# FamiTracker text export 0.4.2

# Song information
TITLE           "The Day Time Ran Away"
AUTHOR          "Ozzed"
COPYRIGHT       "No"

# Song comment
COMMENT ""

# Global settings
MACHINE         0
FRAMERATE       79
EXPANSION       0
VIBRATO         1
SPLIT           21

# Macros

# DPCM samples

# Instruments
INST2A03   0    -1  -1  -1  -1  -1 "blank"

# Tracks

TRACK 256   1 180 "New song"
COLUMNS : 3 3 1 1 2

ORDER 00 : 00 00 00 00 00
ORDER 01 : 01 01 01 01 01
ORDER 02 : 02 02 02 02 02
ORDER 03 : 03 03 03 03 03
ORDER 04 : 04 04 04 04 04
ORDER 05 : 05 05 05 05 05
ORDER 06 : 06 06 06 06 06
ORDER 07 : 07 07 07 07 07
ORDER 08 : 08 08 08 08 08
ORDER 09 : 09 09 09 09 09
ORDER 0A : 0A 0A 0A 0A 0A
ORDER 0B : 0B 0B 0B 0B 0B
ORDER 0C : 0C 0C 0C 0C 0C
ORDER 0D : 0D 0D 0D 0D 0D
ORDER 0E : 0E 0E 0E 0E 0E
ORDER 0F : 0F 0F 0F 0F 0F
ORDER 10 : 10 10 10 10 10
ORDER 11 : 11 11 11 11 11
ORDER 12 : 12 12 12 12 12
ORDER 13 : 13 13 13 13 13
ORDER 14 : 14 14 14 14 14
ORDER 15 : 15 15 15 15 15
ORDER 16 : 16 16 16 16 16
ORDER 17 : 17 17 17 17 17
ORDER 18 : 18 18 18 18 18
ORDER 19 : 19 19 19 19 19
ORDER 1A : 1A 1A 1A 1A 1A

PATTERN 00
ROW 00 : A-1 00 F P80 V03 ... : --- .. 0 P80 V00 ... : --- .. . P80 : F-# 00 0 V00 : === 00 . Z00 ...
ROW 01 : ... .. . ... V01 ... : ... .. . ... ... ... : ... .. . ... : ... .. . ... : ... .. . ... ...
ROW 02 : ... .. E ... V02 ... : ... .. . ... ... ... : ... .. . ... : ... .. . ... : ... .. . ... ...
ROW 03 : ... .. . ... ... ... : ... .. . ... ... ... : ... .. . ... : ... .. . ... : ... .. . ... ...
ROW 04 : ... .. D ... ... ... : ... .. . ... ... ... : ... .. . ... : ... .. . ... : ... .. . ... ...
ROW 05 : ... .. C ... ... ... : ... .. . ... ... ... : ... .. . ... : ... .. . ... : ... .. . ... ...
ROW 06 : ... .. . ... ... ... : ... .. . ... ... ... : ... .. . ... : ... .. . ... : ... .. . ... ...
ROW 07 : ... .. B ... ... ... : ... .. . ... ... ... : ... .. . ... : ... .. . ... : ... .. . ... ...
ROW 08 : ... .. A ... ... ... : ... .. . ... ... ... : ... .. . ... : ... .. . ... : ... .. . ... ...
ROW 09 : ... .. . ... ... ... : ... .. . ... ... ... : ... .. . ... : ... .. . ... : ... .. . ... ...
ROW 0A : ... .. 9 ... ... ... : ... .. . ... ... ... : ... .. . ... : ... .. . ... : ... .. . ... ...
ROW 0B : ... .. F ... V03 ... : ... .. . ... ... ... : ... .. . ... : ... .. . ... : ... .. . ... ...
ROW 0C : ... .. . ... V01 ... : ... .. . ... ... ... : ... .. . ... : ... .. . ... : ... .. . ... ...
ROW 0D : ... .. E ... V02 ... : ... .. . ... ... ... : ... .. . ... : ... .. . ... : ... .. . ... ...
ROW 0E : ... .. . ... ... ... : ... .. . ... ... ... : ... .. . ... : ... .. . ... : ... .. . ... ...
ROW 0F : ... .. D ... ... ... : ... .. . ... ... ... : ... .. . ... : ... .. . ... : ... .. . ... ...
ROW 10 : ... .. C ... ... ... : ... .. . ... ... ... : ... .. . ... : ... .. . ... : ... .. . ... ...
ROW 11 : ... .. . ... ... ... : ... .. . ... ... ... : ... .. . ... : ... .. . ... : ... .. . ... ...
ROW 12 : ... .. B ... ... ... : ... .. . ... ... ... : ... .. . ... : ... .. . ... : ... .. . ... ...
ROW 13 : ... .. A ... ... ... : ... .. . ... ... ... : ... .. . ... : ... .. . ... : ... .. . ... ...
ROW 14 : ... .. . ... ... ... : ... .. . ... ... ... : ... .. . ... : ... .. . ... : ... .. . ... ...
ROW 15 : ... .. 9 ... ... ... : ... .. . ... ... ... : ... .. . ... : ... .. . ... : ... .. . ... ...
ROW 16 : ... .. . ... ... ... : ... .. . ... ... ... : ... .. . ... : ... .. . ... : ... .. . ... ...
ROW 17 : A-2 00 F P7F V03 ... : ... .. . ... ... ... : ... .. . ... : ... .. . ... : ... .. . ... ...
ROW 18 : ... .. . ... V01 ... : ... .. . ... ... ... : ... .. . ... : ... .. . ... : ... .. . ... ...
ROW 19 : ... .. E ... V02 ... : ... .. . ... ... ... : ... .. . ... : ... .. . ... : ... .. . ... ...
ROW 1A : ... .. . ... ... ... : ... .. . ... ... ... : ... .. . ... : ... .. . ... : ... .. . ... ...
ROW 1B : ... .. D ... ... ... : ... .. . ... ... ... : ... .. . ... : ... .. . ... : ... .. . ... ...
ROW 1C : ... .. C ... ... ... : ... .. . ... ... ... : ... .. . ... : ... .. . ... : ... .. . ... ...
ROW 1D : ... .. . ... ... ... : ... .. . ... ... ... : ... .. . ... : ... .. . ... : ... .. . ... ...
ROW 1E : ... .. B ... ... ... : ... .. . ... ... ... : ... .. . ... : ... .. . ... : ... .. . ... ...
ROW 1F : ... .. A ... ... ... : ... .. . ... ... ... : ... .. . ... : ... .. . ... : ... .. . ... ...
ROW 20 : ... .. . ... ... ... : ... .. . ... ... ... : ... .. . ... : ... .. . ... : ... .. . ... ...
ROW 21 : ... .. 9 ... ... ... : ... .. . ... ... ... : ... .. . ... : ... .. . ... : ... .. . ... ...
ROW 22 : ... .. . ... ... ... : ... .. . ... ... ... : ... .. . ... : ... .. . ... : ... .. . ... ...
ROW 23 : A-1 00 F P80 V03 ... : ... .. . ... ... ... : ... .. . ... : ... .. . ... : ... .. . ... ...
ROW 24 : ... .. . ... V01 ... : ... .. . ... ... ... : ... .. . ... : ... .. . ... : ... .. . ... ...
ROW 25 : ... .. E ... V02 ... : ... .. . ... ... ... : ... .. . ... : ... .. . ... : ... .. . ... ...
ROW 26 : ... .. . ... ... ... : ... .. . ... ... ... : ... .. . ... : ... .. . ... : ... .. . ... ...
ROW 27 : ... .. D ... ... ... : ... .. . ... ... ... : ... .. . ... : ... .. . ... : ... .. . ... ...
ROW 28 : ... .. C ... ... ... : ... .. . ... ... ... : ... .. . ... : ... .. . ... : ... .. . ... ...
ROW 29 : ... .. . ... ... ... : ... .. . ... ... ... : ... .. . ... : ... .. . ... : ... .. . ... ...
ROW 2A : ... .. B ... ... ... : ... .. . ... ... ... : ... .. . ... : ... .. . ... : ... .. . ... ...
ROW 2B : ... .. A ... ... ... : ... .. . ... ... ... : ... .. . ... : ... .. . ... : ... .. . ... ...
ROW 2C : ... .. . ... ... ... : ... .. . ... ... ... : ... .. . ... : ... .. . ... : ... .. . ... ...
ROW 2D : ... .. 9 ... ... ... : ... .. . ... ... ... : ... .. . ... : ... .. . ... : ... .. . ... ...
ROW 2E : ... .. . ... ... ... : ... .. . ... ... ... : ... .. . ... : ... .. . ... : ... .. . ... ...
ROW 2F : ... .. F ... V03 ... : ... .. . ... ... ... : ... .. . ... : ... .. . ... : ... .. . ... ...
ROW 30 : ... .. . ... V01 ... : ... .. . ... ... ... : ... .. . ... : ... .. . ... : ... .. . ... ...
ROW 31 : ... .. E ... V02 ... : ... .. . ... ... ... : ... .. . ... : ... .. . ... : ... .. . ... ...
ROW 32 : ... .. . ... ... ... : ... .. . ... ... ... : ... .. . ... : ... .. . ... : ... .. . ... ...
ROW 33 : ... .. D ... ... ... : ... .. . ... ... ... : ... .. . ... : ... .. . ... : ... .. . ... ...
ROW 34 : ... .. C ... ... ... : ... .. . ... ... ... : ... .. . ... : ... .. . ... : ... .. . ... ...
ROW 35 : ... .. . ... ... ... : ... .. . ... ... ... : ... .. . ... : ... .. . ... : ... .. . ... ...
ROW 36 : ... .. B ... ... ... : ... .. . ... ... ... : ... .. . ... : ... .. . ... : ... .. . ... ...
ROW 37 : ... .. A ... ... ... : ... .. . ... ... ... : ... .. . ... : ... .. . ... : ... .. . ... ...
ROW 38 : ... .. . ... ... ... : ... .. . ... ... ... : ... .. . ... : ... .. . ... : ... .. . ... ...
ROW 39 : ... .. 9 ... ... ... : ... .. . ... ... ... : ... .. . ... : ... .. . ... : ... .. . ... ...
ROW 3A : ... .. . ... ... ... : ... .. . ... ... ... : ... .. . ... : ... .. . ... : ... .. . ... ...
ROW 3B : ... .. F ... V03 ... : ... .. . ... ... ... : ... .. . ... : ... .. . ... : ... .. . ... ...
ROW 3C : ... .. . ... V01 ... : ... .. . ... ... ... : ... .. . ... : ... .. . ... : ... .. . ... ...
ROW 3D : ... .. E ... V02 ... : ... .. . ... ... ... : ... .. . ... : ... .. . ... : ... .. . ... ...
ROW 3E : ... .. . ... ... ... : ... .. . ... ... ... : ... .. . ... : ... .. . ... : ... .. . ... ...
ROW 3F : ... .. D ... ... ... : ... .. . ... ... ... : ... .. . ... : ... .. . ... : ... .. . ... ...
ROW 40 : ... .. C ... ... ... : ... .. . ... ... ... : ... .. . ... : ... .. . ... : ... .. . ... ...
ROW 41 : ... .. . ... ... ... : ... .. . ... ... ... : ... .. . ... : ... .. . ... : ... .. . ... ...
ROW 42 : ... .. B ... ... ... : ... .. . ... ... ... : ... .. . ... : ... .. . ... : ... .. . ... ...
ROW 43 : ... .. A ... ... ... : ... .. . ... ... ... : ... .. . ... : ... .. . ... : ... .. . ... ...
ROW 44 : ... .. . ... ... ... : ... .. . ... ... ... : ... .. . ... : ... .. . ... : ... .. . ... ...
ROW 45 : ... .. 9 ... ... ... : ... .. . ... ... ... : ... .. . ... : ... .. . ... : ... .. . ... ...
ROW 46 : ... .. . ... ... ... : ... .. . ... ... ... : ... .. . ... : ... .. . ... : ... .. . ... ...
ROW 47 : A-2 00 F P7F V03 ... : ... .. . ... ... ... : ... .. . ... : ... .. . ... : ... .. . ... ...
ROW 48 : ... .. . ... V01 ... : ... .. . ... ... ... : ... .. . ... : ... .. . ... : ... .. . ... ...
ROW 49 : ... .. E ... V02 ... : ... .. . ... ... ... : ... .. . ... : ... .. . ... : ... .. . ... ...
ROW 4A : ... .. . ... ... ... : ... .. . ... ... ... : ... .. . ... : ... .. . ... : ... .. . ... ...
ROW 4B : ... .. D ... ... ... : ... .. . ... ... ... : ... .. . ... : ... .. . ... : ... .. . ... ...
ROW 4C : ... .. C ... ... ... : ... .. . ... ... ... : ... .. . ... : ... .. . ... : ... .. . ... ...
ROW 4D : ... .. . ... ... ... : ... .. . ... ... ... : ... .. . ... : ... .. . ... : ... .. . ... ...
ROW 4E : ... .. B ... ... ... : ... .. . ... ... ... : ... .. . ... : ... .. . ... : ... .. . ... ...
ROW 4F : ... .. A ... ... ... : ... .. . ... ... ... : ... .. . ... : ... .. . ... : ... .. . ... ...
ROW 50 : ... .. . ... ... ... : ... .. . ... ... ... : ... .. . ... : ... .. . ... : ... .. . ... ...
ROW 51 : ... .. 9 ... ... ... : ... .. . ... ... ... : ... .. . ... : ... .. . ... : ... .. . ... ...
ROW 52 : ... .. . ... ... ... : ... .. . ... ... ... : ... .. . ... : ... .. . ... : ... .. . ... ...
ROW 53 : A-1 00 F P80 V03 ... : ... .. . ... ... ... : ... .. . ... : ... .. . ... : ... .. . ... ...
ROW 54 : ... .. . ... V01 ... : ... .. . ... ... ... : ... .. . ... : ... .. . ... : ... .. . ... ...
ROW 55 : ... .. E ... V02 ... : ... .. . ... ... ... : ... .. . ... : ... .. . ... : ... .. . ... ...
ROW 56 : ... .. . ... ... ... : ... .. . ... ... ... : ... .. . ... : ... .. . ... : ... .. . ... ...
ROW 57 : ... .. D ... ... ... : ... .. . ... ... ... : ... .. . ... : ... .. . ... : ... .. . ... ...
ROW 58 : ... .. C ... ... ... : ... .. . ... ... ... : ... .. . ... : ... .. . ... : ... .. . ... ...
ROW 59 : ... .. . ... ... ... : ... .. . ... ... ... : ... .. . ... : ... .. . ... : ... .. . ... ...
ROW 5A : ... .. B ... ... ... : ... .. . ... ... ... : ... .. . ... : ... .. . ... : ... .. . ... ...
ROW 5B : ... .. A ... ... ... : ... .. . ... ... ... : ... .. . ... : ... .. . ... : ... .. . ... ...
ROW 5C : ... .. . ... ... ... : ... .. . ... ... ... : ... .. . ... : ... .. . ... : ... .. . ... ...
ROW 5D : ... .. 9 ... ... ... : ... .. . ... ... ... : ... .. . ... : ... .. . ... : ... .. . ... ...
ROW 5E : ... .. . ... ... ... : ... .. . ... ... ... : ... .. . ... : ... .. . ... : ... .. . ... ...
ROW 5F : ... .. F ... V03 ... : ... .. . ... ... ... : ... .. . ... : ... .. . ... : ... .. . ... ...
ROW 60 : ... .. . ... V01 ... : ... .. . ... ... ... : ... .. . ... : ... .. . ... : ... .. . ... ...
ROW 61 : ... .. E ... V02 ... : ... .. . ... ... ... : ... .. . ... : ... .. . ... : ... .. . ... ...
ROW 62 : ... .. . ... ... ... : ... .. . ... ... ... : ... .. . ... : ... .. . ... : ... .. . ... ...
ROW 63 : ... .. D ... ... ... : ... .. . ... ... ... : ... .. . ... : ... .. . ... : ... .. . ... ...
ROW 64 : ... .. C ... ... ... : ... .. . ... ... ... : ... .. . ... : ... .. . ... : ... .. . ... ...
ROW 65 : ... .. . ... ... ... : ... .. . ... ... ... : ... .. . ... : ... .. . ... : ... .. . ... ...
ROW 66 : ... .. B ... ... ... : ... .. . ... ... ... : ... .. . ... : ... .. . ... : ... .. . ... ...
ROW 67 : ... .. A ... ... ... : ... .. . ... ... ... : ... .. . ... : ... .. . ... : ... .. . ... ...
ROW 68 : ... .. . ... ... ... : ... .. . ... ... ... : ... .. . ... : ... .. . ... : ... .. . ... ...
ROW 69 : ... .. 9 ... ... ... : ... .. . ... ... ... : ... .. . ... : ... .. . ... : ... .. . ... ...
ROW 6A : ... .. . ... ... ... : ... .. . ... ... ... : ... .. . ... : ... .. . ... : ... .. . ... ...
ROW 6B : ... .. F ... V03 ... : ... .. . ... ... ... : ... .. . ... : ... .. . ... : ... .. . ... ...
ROW 6C : ... .. . ... V01 ... : ... .. . ... ... ... : ... .. . ... : ... .. . ... : ... .. . ... ...
ROW 6D : ... .. E ... V02 ... : ... .. . ... ... ... : ... .. . ... : ... .. . ... : ... .. . ... ...
ROW 6E : ... .. . ... ... ... : ... .. . ... ... ... : ... .. . ... : ... .. . ... : ... .. . ... ...
ROW 6F : ... .. D ... ... ... : ... .. . ... ... ... : ... .. . ... : ... .. . ... : ... .. . ... ...
ROW 70 : ... .. C ... ... ... : ... .. . ... ... ... : ... .. . ... : ... .. . ... : ... .. . ... ...
ROW 71 : ... .. . ... ... ... : ... .. . ... ... ... : ... .. . ... : ... .. . ... : ... .. . ... ...
ROW 72 : ... .. B ... ... ... : ... .. . ... ... ... : ... .. . ... : ... .. . ... : ... .. . ... ...
ROW 73 : ... .. A ... ... ... : ... .. . ... ... ... : ... .. . ... : ... .. . ... : ... .. . ... ...
ROW 74 : ... .. . ... ... ... : ... .. . ... ... ... : ... .. . ... : ... .. . ... : ... .. . ... ...
ROW 75 : ... .. 9 ... ... ... : ... .. . ... ... ... : ... .. . ... : ... .. . ... : ... .. . ... ...
ROW 76 : ... .. . ... ... ... : ... .. . ... ... ... : ... .. . ... : ... .. . ... : ... .. . ... ...
ROW 77 : A-2 00 F P7F V03 ... : ... .. . ... ... ... : ... .. . ... : ... .. . ... : ... .. . ... ...
ROW 78 : ... .. . ... V01 ... : ... .. . ... ... ... : ... .. . ... : ... .. . ... : ... .. . ... ...
ROW 79 : ... .. E ... V02 ... : ... .. . ... ... ... : ... .. . ... : ... .. . ... : ... .. . ... ...
ROW 7A : ... .. . ... ... ... : ... .. . ... ... ... : ... .. . ... : ... .. . ... : ... .. . ... ...
ROW 7B : ... .. D ... ... ... : ... .. . ... ... ... : ... .. . ... : ... .. . ... : ... .. . ... ...
ROW 7C : ... .. C ... ... ... : ... .. . ... ... ... : ... .. . ... : ... .. . ... : ... .. . ... ...
ROW 7D : ... .. . ... ... ... : ... .. . ... ... ... : ... .. . ... : ... .. . ... : ... .. . ... ...
ROW 7E : ... .. B ... ... ... : ... .. . ... ... ... : ... .. . ... : ... .. . ... : ... .. . ... ...
ROW 7F : ... .. A ... ... ... : ... .. . ... ... ... : ... .. . ... : ... .. . ... : ... .. . ... ...
ROW 80 : ... .. . ... ... ... : ... .. . ... ... ... : ... .. . ... : ... .. . ... : ... .. . ... ...
ROW 81 : ... .. 9 ... ... ... : ... .. . ... ... ... : ... .. . ... : ... .. . ... : ... .. . ... ...
ROW 82 : ... .. . ... ... ... : ... .. . ... ... ... : ... .. . ... : ... .. . ... : ... .. . ... ...
ROW 83 : A-1 00 F P80 V03 ... : ... .. . ... ... ... : ... .. . ... : ... .. . ... : ... .. . ... ...
ROW 84 : ... .. . ... V01 ... : ... .. . ... ... ... : ... .. . ... : ... .. . ... : ... .. . ... ...
ROW 85 : ... .. E ... V02 ... : ... .. . ... ... ... : ... .. . ... : ... .. . ... : ... .. . ... ...
ROW 86 : ... .. . ... ... ... : ... .. . ... ... ... : ... .. . ... : ... .. . ... : ... .. . ... ...
ROW 87 : ... .. D ... ... ... : ... .. . ... ... ... : ... .. . ... : ... .. . ... : ... .. . ... ...
ROW 88 : ... .. C ... ... ... : ... .. . ... ... ... : ... .. . ... : ... .. . ... : ... .. . ... ...
ROW 89 : ... .. . ... ... ... : ... .. . ... ... ... : ... .. . ... : ... .. . ... : ... .. . ... ...
ROW 8A : ... .. B ... ... ... : ... .. . ... ... ... : ... .. . ... : ... .. . ... : ... .. . ... ...
ROW 8B : ... .. A ... ... ... : ... .. . ... ... ... : ... .. . ... : ... .. . ... : ... .. . ... ...
ROW 8C : ... .. . ... ... ... : ... .. . ... ... ... : ... .. . ... : ... .. . ... : ... .. . ... ...
ROW 8D : ... .. 9 ... ... ... : ... .. . ... ... ... : ... .. . ... : ... .. . ... : ... .. . ... ...
ROW 8E : ... .. . ... ... ... : ... .. . ... ... ... : ... .. . ... : ... .. . ... : ... .. . ... ...
ROW 8F : G-1 00 F ... V03 ... : ... .. . ... ... ... : ... .. . ... : ... .. . ... : ... .. . ... ...
ROW 90 : ... .. . ... V01 ... : ... .. . ... ... ... : ... .. . ... : ... .. . ... : ... .. . ... ...
ROW 91 : ... .. E ... V02 ... : ... .. . ... ... ... : ... .. . ... : ... .. . ... : ... .. . ... ...
ROW 92 : ... .. . ... ... ... : ... .. . ... ... ... : ... .. . ... : ... .. . ... : ... .. . ... ...
ROW 93 : ... .. D ... ... ... : ... .. . ... ... ... : ... .. . ... : ... .. . ... : ... .. . ... ...
ROW 94 : ... .. C ... ... ... : ... .. . ... ... ... : ... .. . ... : ... .. . ... : ... .. . ... ...
ROW 95 : ... .. . ... ... ... : ... .. . ... ... ... : ... .. . ... : ... .. . ... : ... .. . ... ...
ROW 96 : ... .. B ... ... ... : ... .. . ... ... ... : ... .. . ... : ... .. . ... : ... .. . ... ...
ROW 97 : ... .. A ... ... ... : ... .. . ... ... ... : ... .. . ... : ... .. . ... : ... .. . ... ...
ROW 98 : ... .. . ... ... ... : ... .. . ... ... ... : ... .. . ... : ... .. . ... : ... .. . ... ...
ROW 99 : ... .. 9 ... ... ... : ... .. . ... ... ... : ... .. . ... : ... .. . ... : ... .. . ... ...
ROW 9A : ... .. . ... ... ... : ... .. . ... ... ... : ... .. . ... : ... .. . ... : ... .. . ... ...
ROW 9B : ... .. F ... V03 ... : ... .. . ... ... ... : ... .. . ... : ... .. . ... : ... .. . ... ...
ROW 9C : ... .. . ... V01 ... : ... .. . ... ... ... : ... .. . ... : ... .. . ... : ... .. . ... ...
ROW 9D : ... .. E ... V02 ... : ... .. . ... ... ... : ... .. . ... : ... .. . ... : ... .. . ... ...
ROW 9E : ... .. . ... ... ... : ... .. . ... ... ... : ... .. . ... : ... .. . ... : ... .. . ... ...
ROW 9F : ... .. D ... ... ... : ... .. . ... ... ... : ... .. . ... : ... .. . ... : ... .. . ... ...
ROW A0 : ... .. C ... ... ... : ... .. . ... ... ... : ... .. . ... : ... .. . ... : ... .. . ... ...
ROW A1 : ... .. . ... ... ... : ... .. . ... ... ... : ... .. . ... : ... .. . ... : ... .. . ... ...
ROW A2 : ... .. B ... ... ... : ... .. . ... ... ... : ... .. . ... : ... .. . ... : ... .. . ... ...
ROW A3 : ... .. A ... ... ... : ... .. . ... ... ... : ... .. . ... : ... .. . ... : ... .. . ... ...
ROW A4 : ... .. . ... ... ... : ... .. . ... ... ... : ... .. . ... : ... .. . ... : ... .. . ... ...
ROW A5 : ... .. 9 ... ... ... : ... .. . ... ... ... : ... .. . ... : ... .. . ... : ... .. . ... ...
ROW A6 : ... .. . ... ... ... : ... .. . ... ... ... : ... .. . ... : ... .. . ... : ... .. . ... ...
ROW A7 : G-2 00 F ... V03 ... : ... .. . ... ... ... : ... .. . ... : ... .. . ... : ... .. . ... ...
ROW A8 : ... .. . ... V01 ... : ... .. . ... ... ... : ... .. . ... : ... .. . ... : ... .. . ... ...
ROW A9 : ... .. E ... V02 ... : ... .. . ... ... ... : ... .. . ... : ... .. . ... : ... .. . ... ...
ROW AA : ... .. . ... ... ... : ... .. . ... ... ... : ... .. . ... : ... .. . ... : ... .. . ... ...
ROW AB : ... .. D ... ... ... : ... .. . ... ... ... : ... .. . ... : ... .. . ... : ... .. . ... ...
ROW AC : ... .. C ... ... ... : ... .. . ... ... ... : ... .. . ... : ... .. . ... : ... .. . ... ...
ROW AD : ... .. . ... ... ... : ... .. . ... ... ... : ... .. . ... : ... .. . ... : ... .. . ... ...
ROW AE : ... .. B ... ... ... : ... .. . ... ... ... : ... .. . ... : ... .. . ... : ... .. . ... ...
ROW AF : ... .. A ... ... ... : ... .. . ... ... ... : ... .. . ... : ... .. . ... : ... .. . ... ...
ROW B0 : ... .. . ... ... ... : ... .. . ... ... ... : ... .. . ... : ... .. . ... : ... .. . ... ...
ROW B1 : ... .. 9 ... ... ... : ... .. . ... ... ... : ... .. . ... : ... .. . ... : ... .. . ... ...
ROW B2 : ... .. . ... ... ... : ... .. . ... ... ... : ... .. . ... : ... .. . ... : ... .. . ... ...
ROW B3 : G-1 00 F ... V03 ... : ... .. . ... ... ... : ... .. . ... : ... .. . ... : ... .. . ... ...
ROW B4 : ... .. . ... V01 ... : ... .. . ... ... ... : ... .. . ... : ... .. . ... : ... .. . ... ...
ROW B5 : ... .. E ... V02 ... : ... .. . ... ... ... : ... .. . ... : ... .. . ... : ... .. . ... ...
ROW B6 : ... .. . ... ... ... : ... .. . ... ... ... : ... .. . ... : ... .. . ... : ... .. . ... ...
ROW B7 : ... .. D ... ... ... : ... .. . ... ... ... : ... .. . ... : ... .. . ... : ... .. . ... ...
ROW B8 : ... .. C ... ... ... : ... .. . ... ... ... : ... .. . ... : ... .. . ... : ... .. . ... ...
ROW B9 : ... .. . ... ... ... : ... .. . ... ... ... : ... .. . ... : ... .. . ... : ... .. . ... ...
ROW BA : ... .. B ... ... ... : ... .. . ... ... ... : ... .. . ... : ... .. . ... : ... .. . ... ...
ROW BB : ... .. A ... ... ... : ... .. . ... ... ... : ... .. . ... : ... .. . ... : ... .. . ... ...
ROW BC : ... .. . ... ... ... : ... .. . ... ... ... : ... .. . ... : ... .. . ... : ... .. . ... ...
ROW BD : ... .. 9 ... ... ... : ... .. . ... ... ... : ... .. . ... : ... .. . ... : ... .. . ... ...
ROW BE : ... .. . ... ... ... : ... .. . ... ... ... : ... .. . ... : ... .. . ... : ... .. . ... ...
ROW BF : A-1 00 F ... V03 ... : ... .. . ... ... ... : ... .. . ... : ... .. . ... : ... .. . ... ...
ROW C0 : ... .. . ... V01 ... : ... .. . ... ... ... : ... .. . ... : ... .. . ... : ... .. . ... ...
ROW C1 : ... .. E ... V02 ... : ... .. . ... ... ... : ... .. . ... : ... .. . ... : ... .. . ... ...
ROW C2 : ... .. . ... ... ... : ... .. . ... ... ... : ... .. . ... : ... .. . ... : ... .. . ... ...
ROW C3 : ... .. D ... ... ... : ... .. . ... ... ... : ... .. . ... : ... .. . ... : ... .. . ... ...
ROW C4 : ... .. C ... ... ... : ... .. . ... ... ... : ... .. . ... : ... .. . ... : ... .. . ... ...
ROW C5 : ... .. . ... ... ... : ... .. . ... ... ... : ... .. . ... : ... .. . ... : ... .. . ... ...
ROW C6 : ... .. B ... ... ... : ... .. . ... ... ... : ... .. . ... : ... .. . ... : ... .. . ... ...
ROW C7 : ... .. A ... ... ... : ... .. . ... ... ... : ... .. . ... : ... .. . ... : ... .. . ... ...
ROW C8 : ... .. . ... ... ... : ... .. . ... ... ... : ... .. . ... : ... .. . ... : ... .. . ... ...
ROW C9 : ... .. 9 ... ... ... : ... .. . ... ... ... : ... .. . ... : ... .. . ... : ... .. . ... ...
ROW CA : ... .. . ... ... ... : ... .. . ... ... ... : ... .. . ... : ... .. . ... : ... .. . ... ...
ROW CB : ... .. F ... V03 ... : ... .. . ... ... ... : ... .. . ... : ... .. . ... : ... .. . ... ...
ROW CC : ... .. . ... V01 ... : ... .. . ... ... ... : ... .. . ... : ... .. . ... : ... .. . ... ...
ROW CD : ... .. E ... V02 ... : ... .. . ... ... ... : ... .. . ... : ... .. . ... : ... .. . ... ...
ROW CE : ... .. . ... ... ... : ... .. . ... ... ... : ... .. . ... : ... .. . ... : ... .. . ... ...
ROW CF : ... .. D ... ... ... : ... .. . ... ... ... : ... .. . ... : ... .. . ... : ... .. . ... ...
ROW D0 : ... .. C ... ... ... : ... .. . ... ... ... : ... .. . ... : ... .. . ... : ... .. . ... ...
ROW D1 : ... .. . ... ... ... : ... .. . ... ... ... : ... .. . ... : ... .. . ... : ... .. . ... ...
ROW D2 : ... .. B ... ... ... : ... .. . ... ... ... : ... .. . ... : ... .. . ... : ... .. . ... ...
ROW D3 : ... .. A ... ... ... : ... .. . ... ... ... : ... .. . ... : ... .. . ... : ... .. . ... ...
ROW D4 : ... .. . ... ... ... : ... .. . ... ... ... : ... .. . ... : ... .. . ... : ... .. . ... ...
ROW D5 : ... .. 9 ... ... ... : ... .. . ... ... ... : ... .. . ... : ... .. . ... : ... .. . ... ...
ROW D6 : ... .. . ... ... ... : ... .. . ... ... ... : ... .. . ... : ... .. . ... : ... .. . ... ...
ROW D7 : A-2 00 F P7F V03 ... : ... .. . ... ... ... : ... .. . ... : ... .. . ... : ... .. . ... ...
ROW D8 : ... .. . ... V01 ... : ... .. . ... ... ... : ... .. . ... : ... .. . ... : ... .. . ... ...
ROW D9 : ... .. E ... V02 ... : ... .. . ... ... ... : ... .. . ... : ... .. . ... : ... .. . ... ...
ROW DA : ... .. . ... ... ... : ... .. . ... ... ... : ... .. . ... : ... .. . ... : ... .. . ... ...
ROW DB : ... .. D ... ... ... : ... .. . ... ... ... : ... .. . ... : ... .. . ... : ... .. . ... ...
ROW DC : ... .. C ... ... ... : ... .. . ... ... ... : ... .. . ... : ... .. . ... : ... .. . ... ...
ROW DD : ... .. . ... ... ... : ... .. . ... ... ... : ... .. . ... : ... .. . ... : ... .. . ... ...
ROW DE : ... .. B ... ... ... : ... .. . ... ... ... : ... .. . ... : ... .. . ... : ... .. . ... ...
ROW DF : ... .. A ... ... ... : ... .. . ... ... ... : ... .. . ... : ... .. . ... : ... .. . ... ...
ROW E0 : ... .. . ... ... ... : ... .. . ... ... ... : ... .. . ... : ... .. . ... : ... .. . ... ...
ROW E1 : ... .. 9 ... ... ... : ... .. . ... ... ... : ... .. . ... : ... .. . ... : ... .. . ... ...
ROW E2 : ... .. . ... ... ... : ... .. . ... ... ... : ... .. . ... : ... .. . ... : ... .. . ... ...
ROW E3 : A-1 00 F P80 V03 ... : ... .. . ... ... ... : ... .. . ... : ... .. . ... : ... .. . ... ...
ROW E4 : ... .. . ... V01 ... : ... .. . ... ... ... : ... .. . ... : ... .. . ... : ... .. . ... ...
ROW E5 : ... .. E ... V02 ... : ... .. . ... ... ... : ... .. . ... : ... .. . ... : ... .. . ... ...
ROW E6 : ... .. . ... ... ... : ... .. . ... ... ... : ... .. . ... : ... .. . ... : ... .. . ... ...
ROW E7 : ... .. D ... ... ... : ... .. . ... ... ... : ... .. . ... : ... .. . ... : ... .. . ... ...
ROW E8 : ... .. C ... ... ... : ... .. . ... ... ... : ... .. . ... : ... .. . ... : ... .. . ... ...
ROW E9 : ... .. . ... ... ... : ... .. . ... ... ... : ... .. . ... : ... .. . ... : ... .. . ... ...
ROW EA : ... .. B ... ... ... : ... .. . ... ... ... : ... .. . ... : ... .. . ... : ... .. . ... ...
ROW EB : ... .. A ... ... ... : ... .. . ... ... ... : ... .. . ... : ... .. . ... : ... .. . ... ...
ROW EC : ... .. . ... ... ... : ... .. . ... ... ... : ... .. . ... : ... .. . ... : ... .. . ... ...
ROW ED : ... .. 9 ... ... ... : ... .. . ... ... ... : ... .. . ... : ... .. . ... : ... .. . ... ...
ROW EE : ... .. . ... ... ... : ... .. . ... ... ... : ... .. . ... : ... .. . ... : ... .. . ... ...
ROW EF : ... .. F ... V03 ... : ... .. . ... ... ... : ... .. . ... : ... .. . ... : ... .. . ... ...
ROW F0 : ... .. . ... V01 ... : ... .. . ... ... ... : ... .. . ... : ... .. . ... : ... .. . ... ...
ROW F1 : ... .. E ... V02 ... : ... .. . ... ... ... : ... .. . ... : ... .. . ... : ... .. . ... ...
ROW F2 : ... .. . ... ... ... : ... .. . ... ... ... : ... .. . ... : ... .. . ... : ... .. . ... ...
ROW F3 : ... .. D ... ... ... : ... .. . ... ... ... : ... .. . ... : ... .. . ... : ... .. . ... ...
ROW F4 : ... .. C ... ... ... : ... .. . ... ... ... : ... .. . ... : ... .. . ... : ... .. . ... ...
ROW F5 : ... .. . ... ... ... : ... .. . ... ... ... : ... .. . ... : ... .. . ... : ... .. . ... ...
ROW F6 : ... .. B ... ... ... : ... .. . ... ... ... : ... .. . ... : ... .. . ... : ... .. . ... ...
ROW F7 : ... .. A ... ... ... : ... .. . ... ... ... : ... .. . ... : ... .. . ... : ... .. . ... ...
ROW F8 : ... .. . ... ... ... : ... .. . ... ... ... : ... .. . ... : ... .. . ... : ... .. . ... ...
ROW F9 : ... .. 9 ... ... ... : ... .. . ... ... ... : ... .. . ... : ... .. . ... : ... .. . ... ...
ROW FA : ... .. . ... ... ... : ... .. . ... ... ... : ... .. . ... : ... .. . ... : ... .. . ... ...
ROW FB : ... .. F ... V03 ... : ... .. . ... ... ... : ... .. . ... : ... .. . ... : ... .. . ... ...
ROW FC : ... .. . ... V01 ... : ... .. . ... ... ... : ... .. . ... : ... .. . ... : ... .. . ... ...
ROW FD : ... .. E ... V02 ... : ... .. . ... ... ... : ... .. . ... : ... .. . ... : ... .. . ... ...
ROW FE : ... .. . ... ... ... : ... .. . ... ... ... : ... .. . ... : ... .. . ... : ... .. . ... ...
ROW FF : ... .. D ... ... ... : ... .. . ... ... ... : ... .. . ... : ... .. . ... : ... .. . ... ...

PATTERN 01
ROW 00 : ... .. C ... ... ... : ... .. . ... ... ... : ... .. . ... : ... .. . ... : ... .. . ... ...
ROW 01 : ... .. . ... ... ... : ... .. . ... ... ... : ... .. . ... : ... .. . ... : ... .. . ... ...
ROW 02 : ... .. B ... ... ... : ... .. . ... ... ... : ... .. . ... : ... .. . ... : ... .. . ... ...
ROW 03 : ... .. A ... ... ... : ... .. . ... ... ... : ... .. . ... : ... .. . ... : ... .. . ... ...
ROW 04 : ... .. . ... ... ... : ... .. . ... ... ... : ... .. . ... : ... .. . ... : ... .. . ... ...
ROW 05 : ... .. 9 ... ... ... : ... .. . ... ... ... : ... .. . ... : ... .. . ... : ... .. . ... ...
ROW 06 : ... .. . ... ... ... : ... .. . ... ... ... : ... .. . ... : ... .. . ... : ... .. . ... ...
ROW 07 : A-2 00 F P7F V03 ... : ... .. . ... ... ... : ... .. . ... : ... .. . ... : ... .. . ... ...
ROW 08 : ... .. . ... V01 ... : ... .. . ... ... ... : ... .. . ... : ... .. . ... : ... .. . ... ...
ROW 09 : ... .. E ... V02 ... : ... .. . ... ... ... : ... .. . ... : ... .. . ... : ... .. . ... ...
ROW 0A : ... .. . ... ... ... : ... .. . ... ... ... : ... .. . ... : ... .. . ... : ... .. . ... ...
ROW 0B : ... .. D ... ... ... : ... .. . ... ... ... : ... .. . ... : ... .. . ... : ... .. . ... ...
ROW 0C : ... .. C ... ... ... : ... .. . ... ... ... : ... .. . ... : ... .. . ... : ... .. . ... ...
ROW 0D : ... .. . ... ... ... : ... .. . ... ... ... : ... .. . ... : ... .. . ... : ... .. . ... ...
ROW 0E : ... .. B ... ... ... : ... .. . ... ... ... : ... .. . ... : ... .. . ... : ... .. . ... ...
ROW 0F : ... .. A ... ... ... : ... .. . ... ... ... : ... .. . ... : ... .. . ... : ... .. . ... ...
ROW 10 : ... .. . ... ... ... : ... .. . ... ... ... : ... .. . ... : ... .. . ... : ... .. . ... ...
ROW 11 : ... .. 9 ... ... ... : ... .. . ... ... ... : ... .. . ... : ... .. . ... : ... .. . ... ...
ROW 12 : ... .. . ... ... ... : ... .. . ... ... ... : ... .. . ... : ... .. . ... : ... .. . ... ...
ROW 13 : A-1 00 F P80 V03 ... : ... .. . ... ... ... : ... .. . ... : ... .. . ... : ... .. . ... ...
ROW 14 : ... .. . ... V01 ... : ... .. . ... ... ... : ... .. . ... : ... .. . ... : ... .. . ... ...
ROW 15 : ... .. E ... V02 ... : ... .. . ... ... ... : ... .. . ... : ... .. . ... : ... .. . ... ...
ROW 16 : ... .. . ... ... ... : ... .. . ... ... ... : ... .. . ... : ... .. . ... : ... .. . ... ...
ROW 17 : ... .. D ... ... ... : ... .. . ... ... ... : ... .. . ... : ... .. . ... : ... .. . ... ...
ROW 18 : ... .. C ... ... ... : ... .. . ... ... ... : ... .. . ... : ... .. . ... : ... .. . ... ...
ROW 19 : ... .. . ... ... ... : ... .. . ... ... ... : ... .. . ... : ... .. . ... : ... .. . ... ...
ROW 1A : ... .. B ... ... ... : ... .. . ... ... ... : ... .. . ... : ... .. . ... : ... .. . ... ...
ROW 1B : ... .. A ... ... ... : ... .. . ... ... ... : ... .. . ... : ... .. . ... : ... .. . ... ...
ROW 1C : ... .. . ... ... ... : ... .. . ... ... ... : ... .. . ... : ... .. . ... : ... .. . ... ...
ROW 1D : ... .. 9 ... ... ... : ... .. . ... ... ... : ... .. . ... : ... .. . ... : ... .. . ... ...
ROW 1E : ... .. . ... ... ... : ... .. . ... ... ... : ... .. . ... : ... .. . ... : ... .. . ... ...
ROW 1F : ... .. F ... V03 ... : ... .. . ... ... ... : ... .. . ... : ... .. . ... : ... .. . ... ...
ROW 20 : ... .. . ... V01 ... : ... .. . ... ... ... : ... .. . ... : ... .. . ... : ... .. . ... ...
ROW 21 : ... .. E ... V02 ... : ... .. . ... ... ... : ... .. . ... : ... .. . ... : ... .. . ... ...
ROW 22 : ... .. . ... ... ... : ... .. . ... ... ... : ... .. . ... : ... .. . ... : ... .. . ... ...
ROW 23 : ... .. D ... ... ... : ... .. . ... ... ... : ... .. . ... : ... .. . ... : ... .. . ... ...
ROW 24 : ... .. C ... ... ... : ... .. . ... ... ... : ... .. . ... : ... .. . ... : ... .. . ... ...
ROW 25 : ... .. . ... ... ... : ... .. . ... ... ... : ... .. . ... : ... .. . ... : ... .. . ... ...
ROW 26 : ... .. B ... ... ... : ... .. . ... ... ... : ... .. . ... : ... .. . ... : ... .. . ... ...
ROW 27 : ... .. A ... ... ... : ... .. . ... ... ... : ... .. . ... : ... .. . ... : ... .. . ... ...
ROW 28 : ... .. . ... ... ... : ... .. . ... ... ... : ... .. . ... : ... .. . ... : ... .. . ... ...
ROW 29 : ... .. 9 ... ... ... : ... .. . ... ... ... : ... .. . ... : ... .. . ... : ... .. . ... ...
ROW 2A : ... .. . ... ... ... : ... .. . ... ... ... : ... .. . ... : ... .. . ... : ... .. . ... ...
ROW 2B : ... .. F ... V03 ... : ... .. . ... ... ... : ... .. . ... : ... .. . ... : ... .. . ... ...
ROW 2C : ... .. . ... V01 ... : ... .. . ... ... ... : ... .. . ... : ... .. . ... : ... .. . ... ...
ROW 2D : ... .. E ... V02 ... : ... .. . ... ... ... : ... .. . ... : ... .. . ... : ... .. . ... ...
ROW 2E : ... .. . ... ... ... : ... .. . ... ... ... : ... .. . ... : ... .. . ... : ... .. . ... ...
ROW 2F : ... .. D ... ... ... : ... .. . ... ... ... : ... .. . ... : ... .. . ... : ... .. . ... ...
ROW 30 : ... .. C ... ... ... : ... .. . ... ... ... : ... .. . ... : ... .. . ... : ... .. . ... ...
ROW 31 : ... .. . ... ... ... : ... .. . ... ... ... : ... .. . ... : ... .. . ... : ... .. . ... ...
ROW 32 : ... .. B ... ... ... : ... .. . ... ... ... : ... .. . ... : ... .. . ... : ... .. . ... ...
ROW 33 : ... .. A ... ... ... : ... .. . ... ... ... : ... .. . ... : ... .. . ... : ... .. . ... ...
ROW 34 : ... .. . ... ... ... : ... .. . ... ... ... : ... .. . ... : ... .. . ... : ... .. . ... ...
ROW 35 : ... .. 9 ... ... ... : ... .. . ... ... ... : ... .. . ... : ... .. . ... : ... .. . ... ...
ROW 36 : ... .. . ... ... ... : ... .. . ... ... ... : ... .. . ... : ... .. . ... : ... .. . ... ...
ROW 37 : A-2 00 F P7F V03 ... : ... .. . ... ... ... : ... .. . ... : ... .. . ... : ... .. . ... ...
ROW 38 : ... .. . ... V01 ... : ... .. . ... ... ... : ... .. . ... : ... .. . ... : ... .. . ... ...
ROW 39 : ... .. E ... V02 ... : ... .. . ... ... ... : ... .. . ... : ... .. . ... : ... .. . ... ...
ROW 3A : ... .. . ... ... ... : ... .. . ... ... ... : ... .. . ... : ... .. . ... : ... .. . ... ...
ROW 3B : ... .. D ... ... ... : ... .. . ... ... ... : ... .. . ... : ... .. . ... : ... .. . ... ...
ROW 3C : ... .. C ... ... ... : ... .. . ... ... ... : ... .. . ... : ... .. . ... : ... .. . ... ...
ROW 3D : ... .. . ... ... ... : ... .. . ... ... ... : ... .. . ... : ... .. . ... : ... .. . ... ...
ROW 3E : ... .. B ... ... ... : ... .. . ... ... ... : ... .. . ... : ... .. . ... : ... .. . ... ...
ROW 3F : ... .. A ... ... ... : ... .. . ... ... ... : ... .. . ... : ... .. . ... : ... .. . ... ...
ROW 40 : ... .. . ... ... ... : ... .. . ... ... ... : ... .. . ... : ... .. . ... : ... .. . ... ...
ROW 41 : ... .. 9 ... ... ... : ... .. . ... ... ... : ... .. . ... : ... .. . ... : ... .. . ... ...
ROW 42 : ... .. . ... ... ... : ... .. . ... ... ... : ... .. . ... : ... .. . ... : ... .. . ... ...
ROW 43 : A-1 00 F P80 V03 ... : ... .. . ... ... ... : ... .. . ... : ... .. . ... : ... .. . ... ...
ROW 44 : ... .. . ... V01 ... : ... .. . ... ... ... : ... .. . ... : ... .. . ... : ... .. . ... ...
ROW 45 : ... .. E ... V02 ... : ... .. . ... ... ... : ... .. . ... : ... .. . ... : ... .. . ... ...
ROW 46 : ... .. . ... ... ... : ... .. . ... ... ... : ... .. . ... : ... .. . ... : ... .. . ... ...
ROW 47 : ... .. D ... ... ... : ... .. . ... ... ... : ... .. . ... : ... .. . ... : ... .. . ... ...
ROW 48 : ... .. C ... ... ... : ... .. . ... ... ... : ... .. . ... : ... .. . ... : ... .. . ... ...
ROW 49 : ... .. . ... ... ... : ... .. . ... ... ... : ... .. . ... : ... .. . ... : ... .. . ... ...
ROW 4A : ... .. B ... ... ... : ... .. . ... ... ... : ... .. . ... : ... .. . ... : ... .. . ... ...
ROW 4B : ... .. A ... ... ... : ... .. . ... ... ... : ... .. . ... : ... .. . ... : ... .. . ... ...
ROW 4C : ... .. . ... ... ... : ... .. . ... ... ... : ... .. . ... : ... .. . ... : ... .. . ... ...
ROW 4D : ... .. 9 ... ... ... : ... .. . ... ... ... : ... .. . ... : ... .. . ... : ... .. . ... ...
ROW 4E : ... .. . ... ... ... : ... .. . ... ... ... : ... .. . ... : ... .. . ... : ... .. . ... ...
ROW 4F : G-1 00 F ... V03 ... : ... .. . ... ... ... : ... .. . ... : ... .. . ... : ... .. . ... ...
ROW 50 : ... .. . ... V01 ... : ... .. . ... ... ... : ... .. . ... : ... .. . ... : ... .. . ... ...
ROW 51 : ... .. E ... V02 ... : ... .. . ... ... ... : ... .. . ... : ... .. . ... : ... .. . ... ...
ROW 52 : ... .. . ... ... ... : ... .. . ... ... ... : ... .. . ... : ... .. . ... : ... .. . ... ...
ROW 53 : ... .. D ... ... ... : ... .. . ... ... ... : ... .. . ... : ... .. . ... : ... .. . ... ...
ROW 54 : ... .. C ... ... ... : ... .. . ... ... ... : ... .. . ... : ... .. . ... : ... .. . ... ...
ROW 55 : ... .. . ... ... ... : ... .. . ... ... ... : ... .. . ... : ... .. . ... : ... .. . ... ...
ROW 56 : ... .. B ... ... ... : ... .. . ... ... ... : ... .. . ... : ... .. . ... : ... .. . ... ...
ROW 57 : ... .. A ... ... ... : ... .. . ... ... ... : ... .. . ... : ... .. . ... : ... .. . ... ...
ROW 58 : ... .. . ... ... ... : ... .. . ... ... ... : ... .. . ... : ... .. . ... : ... .. . ... ...
ROW 59 : ... .. 9 ... ... ... : ... .. . ... ... ... : ... .. . ... : ... .. . ... : ... .. . ... ...
ROW 5A : ... .. . ... ... ... : ... .. . ... ... ... : ... .. . ... : ... .. . ... : ... .. . ... ...
ROW 5B : ... .. F ... V03 ... : ... .. . ... ... ... : ... .. . ... : ... .. . ... : ... .. . ... ...
ROW 5C : ... .. . ... V01 ... : ... .. . ... ... ... : ... .. . ... : ... .. . ... : ... .. . ... ...
ROW 5D : ... .. E ... V02 ... : ... .. . ... ... ... : ... .. . ... : ... .. . ... : ... .. . ... ...
ROW 5E : ... .. . ... ... ... : ... .. . ... ... ... : ... .. . ... : ... .. . ... : ... .. . ... ...
ROW 5F : ... .. D ... ... ... : ... .. . ... ... ... : ... .. . ... : ... .. . ... : ... .. . ... ...
ROW 60 : ... .. C ... ... ... : ... .. . ... ... ... : ... .. . ... : ... .. . ... : ... .. . ... ...
ROW 61 : ... .. . ... ... ... : ... .. . ... ... ... : ... .. . ... : ... .. . ... : ... .. . ... ...
ROW 62 : ... .. B ... ... ... : ... .. . ... ... ... : ... .. . ... : ... .. . ... : ... .. . ... ...
ROW 63 : ... .. A ... ... ... : ... .. . ... ... ... : ... .. . ... : ... .. . ... : ... .. . ... ...
ROW 64 : ... .. . ... ... ... : ... .. . ... ... ... : ... .. . ... : ... .. . ... : ... .. . ... ...
ROW 65 : ... .. 9 ... ... ... : ... .. . ... ... ... : ... .. . ... : ... .. . ... : ... .. . ... ...
ROW 66 : ... .. . ... ... ... : ... .. . ... ... ... : ... .. . ... : ... .. . ... : ... .. . ... ...
ROW 67 : G-2 00 F ... V03 ... : ... .. . ... ... ... : ... .. . ... : ... .. . ... : ... .. . ... ...
ROW 68 : ... .. . ... V01 ... : ... .. . ... ... ... : ... .. . ... : ... .. . ... : ... .. . ... ...
ROW 69 : ... .. E ... V02 ... : ... .. . ... ... ... : ... .. . ... : ... .. . ... : ... .. . ... ...
ROW 6A : ... .. . ... ... ... : ... .. . ... ... ... : ... .. . ... : ... .. . ... : ... .. . ... ...
ROW 6B : ... .. D ... ... ... : ... .. . ... ... ... : ... .. . ... : ... .. . ... : ... .. . ... ...
ROW 6C : ... .. C ... ... ... : ... .. . ... ... ... : ... .. . ... : ... .. . ... : ... .. . ... ...
ROW 6D : ... .. . ... ... ... : ... .. . ... ... ... : ... .. . ... : ... .. . ... : ... .. . ... ...
ROW 6E : ... .. B ... ... ... : ... .. . ... ... ... : ... .. . ... : ... .. . ... : ... .. . ... ...
ROW 6F : ... .. A ... ... ... : ... .. . ... ... ... : ... .. . ... : ... .. . ... : ... .. . ... ...
ROW 70 : ... .. . ... ... ... : ... .. . ... ... ... : ... .. . ... : ... .. . ... : ... .. . ... ...
ROW 71 : ... .. 9 ... ... ... : ... .. . ... ... ... : ... .. . ... : ... .. . ... : ... .. . ... ...
ROW 72 : ... .. . ... ... ... : ... .. . ... ... ... : ... .. . ... : ... .. . ... : ... .. . ... ...
ROW 73 : G-1 00 F ... V03 ... : ... .. . ... ... ... : ... .. . ... : ... .. . ... : ... .. . ... ...
ROW 74 : ... .. . ... V01 ... : ... .. . ... ... ... : ... .. . ... : ... .. . ... : ... .. . ... ...
ROW 75 : ... .. E ... V02 ... : ... .. . ... ... ... : ... .. . ... : ... .. . ... : ... .. . ... ...
ROW 76 : ... .. . ... ... ... : ... .. . ... ... ... : ... .. . ... : ... .. . ... : ... .. . ... ...
ROW 77 : ... .. D ... ... ... : ... .. . ... ... ... : ... .. . ... : ... .. . ... : ... .. . ... ...
ROW 78 : ... .. C ... ... ... : ... .. . ... ... ... : ... .. . ... : ... .. . ... : ... .. . ... ...
ROW 79 : ... .. . ... ... ... : ... .. . ... ... ... : ... .. . ... : ... .. . ... : ... .. . ... ...
ROW 7A : ... .. B ... ... ... : ... .. . ... ... ... : ... .. . ... : ... .. . ... : ... .. . ... ...
ROW 7B : ... .. A ... ... ... : ... .. . ... ... ... : ... .. . ... : ... .. . ... : ... .. . ... ...
ROW 7C : ... .. . ... ... ... : ... .. . ... ... ... : ... .. . ... : ... .. . ... : ... .. . ... ...
ROW 7D : ... .. 9 ... ... ... : ... .. . ... ... ... : ... .. . ... : ... .. . ... : ... .. . ... ...
ROW 7E : ... .. . ... ... ... : ... .. . ... ... ... : ... .. . ... : ... .. . ... : ... .. . ... ...
ROW 7F : A-1 00 F ... V03 ... : ... .. . ... ... ... : ... .. . ... : 0-# 00 F ... : ... .. . ... ...
ROW 80 : ... .. . ... V01 ... : ... .. . ... ... ... : ... .. . ... : ... .. E ... : ... .. . ... ...
ROW 81 : ... .. E ... V02 ... : ... .. . ... ... ... : ... .. . ... : ... .. C ... : ... .. . ... ...
ROW 82 : ... .. . ... ... ... : ... .. . ... ... ... : ... .. . ... : ... .. A ... : ... .. . ... ...
ROW 83 : ... .. D ... ... ... : ... .. . ... ... ... : ... .. . ... : ... .. 9 ... : ... .. . ... ...
ROW 84 : ... .. C ... ... ... : ... .. . ... ... ... : ... .. . ... : ... .. 7 ... : ... .. . ... ...
ROW 85 : ... .. . ... ... ... : ... .. . ... ... ... : ... .. . ... : ... .. 5 ... : ... .. . ... ...
ROW 86 : ... .. B ... ... ... : ... .. . ... ... ... : ... .. . ... : ... .. 4 ... : ... .. . ... ...
ROW 87 : ... .. A ... ... ... : ... .. . ... ... ... : ... .. . ... : ... .. 2 ... : ... .. . ... ...
ROW 88 : ... .. . ... ... ... : ... .. . ... ... ... : ... .. . ... : ... .. 0 ... : ... .. . ... ...
ROW 89 : ... .. 9 ... ... ... : ... .. . ... ... ... : ... .. . ... : ... .. . ... : ... .. . ... ...
ROW 8A : ... .. . ... ... ... : ... .. . ... ... ... : ... .. . ... : ... .. . ... : ... .. . ... ...
ROW 8B : ... .. F ... V03 ... : ... .. . ... ... ... : ... .. . ... : ... .. . ... : ... .. . ... ...
ROW 8C : ... .. . ... V01 ... : ... .. . ... ... ... : ... .. . ... : ... .. . ... : ... .. . ... ...
ROW 8D : ... .. E ... V02 ... : ... .. . ... ... ... : ... .. . ... : ... .. . ... : ... .. . ... ...
ROW 8E : ... .. . ... ... ... : ... .. . ... ... ... : ... .. . ... : ... .. . ... : ... .. . ... ...
ROW 8F : ... .. D ... ... ... : ... .. . ... ... ... : ... .. . ... : ... .. . ... : ... .. . ... ...
ROW 90 : ... .. C ... ... ... : ... .. . ... ... ... : ... .. . ... : ... .. . ... : ... .. . ... ...
ROW 91 : ... .. . ... ... ... : ... .. . ... ... ... : ... .. . ... : ... .. . ... : ... .. . ... ...
ROW 92 : ... .. B ... ... ... : ... .. . ... ... ... : ... .. . ... : ... .. . ... : ... .. . ... ...
ROW 93 : ... .. A ... ... ... : ... .. . ... ... ... : ... .. . ... : ... .. . ... : ... .. . ... ...
ROW 94 : ... .. . ... ... ... : ... .. . ... ... ... : ... .. . ... : ... .. . ... : ... .. . ... ...
ROW 95 : ... .. 9 ... ... ... : ... .. . ... ... ... : ... .. . ... : ... .. . ... : ... .. . ... ...
ROW 96 : ... .. . ... ... ... : ... .. . ... ... ... : ... .. . ... : ... .. . ... : ... .. . ... ...
ROW 97 : A-2 00 F P7F V03 ... : ... .. . ... ... ... : ... .. . ... : ... .. F ... : ... .. . ... ...
ROW 98 : ... .. . ... V01 ... : ... .. . ... ... ... : ... .. . ... : ... .. E ... : ... .. . ... ...
ROW 99 : ... .. E ... V02 ... : ... .. . ... ... ... : ... .. . ... : ... .. C ... : ... .. . ... ...
ROW 9A : ... .. . ... ... ... : ... .. . ... ... ... : ... .. . ... : ... .. A ... : ... .. . ... ...
ROW 9B : ... .. D ... ... ... : ... .. . ... ... ... : ... .. . ... : ... .. 9 ... : ... .. . ... ...
ROW 9C : ... .. C ... ... ... : ... .. . ... ... ... : ... .. . ... : ... .. 7 ... : ... .. . ... ...
ROW 9D : ... .. . ... ... ... : ... .. . ... ... ... : ... .. . ... : ... .. 5 ... : ... .. . ... ...
ROW 9E : ... .. B ... ... ... : ... .. . ... ... ... : ... .. . ... : ... .. 4 ... : ... .. . ... ...
ROW 9F : ... .. A ... ... ... : ... .. . ... ... ... : ... .. . ... : ... .. 2 ... : ... .. . ... ...
ROW A0 : ... .. . ... ... ... : ... .. . ... ... ... : ... .. . ... : ... .. 0 ... : ... .. . ... ...
ROW A1 : ... .. 9 ... ... ... : ... .. . ... ... ... : ... .. . ... : ... .. . ... : ... .. . ... ...
ROW A2 : ... .. . ... ... ... : ... .. . ... ... ... : ... .. . ... : ... .. . ... : ... .. . ... ...
ROW A3 : A-1 00 F P80 V03 ... : ... .. . ... ... ... : ... .. . ... : ... .. . ... : ... .. . ... ...
ROW A4 : ... .. . ... V01 ... : ... .. . ... ... ... : ... .. . ... : ... .. . ... : ... .. . ... ...
ROW A5 : ... .. E ... V02 ... : ... .. . ... ... ... : ... .. . ... : ... .. . ... : ... .. . ... ...
ROW A6 : ... .. . ... ... ... : ... .. . ... ... ... : ... .. . ... : ... .. . ... : ... .. . ... ...
ROW A7 : ... .. D ... ... ... : ... .. . ... ... ... : ... .. . ... : ... .. . ... : ... .. . ... ...
ROW A8 : ... .. C ... ... ... : ... .. . ... ... ... : ... .. . ... : ... .. . ... : ... .. . ... ...
ROW A9 : ... .. . ... ... ... : ... .. . ... ... ... : ... .. . ... : ... .. . ... : ... .. . ... ...
ROW AA : ... .. B ... ... ... : ... .. . ... ... ... : ... .. . ... : ... .. . ... : ... .. . ... ...
ROW AB : ... .. A ... ... ... : ... .. . ... ... ... : ... .. . ... : ... .. . ... : ... .. . ... ...
ROW AC : ... .. . ... ... ... : ... .. . ... ... ... : ... .. . ... : ... .. . ... : ... .. . ... ...
ROW AD : ... .. 9 ... ... ... : ... .. . ... ... ... : ... .. . ... : ... .. . ... : ... .. . ... ...
ROW AE : ... .. . ... ... ... : ... .. . ... ... ... : ... .. . ... : ... .. . ... : ... .. . ... ...
ROW AF : ... .. F ... V03 ... : ... .. . ... ... ... : ... .. . ... : ... .. F ... : ... .. . ... ...
ROW B0 : ... .. . ... V01 ... : ... .. . ... ... ... : ... .. . ... : ... .. E ... : ... .. . ... ...
ROW B1 : ... .. E ... V02 ... : ... .. . ... ... ... : ... .. . ... : ... .. C ... : ... .. . ... ...
ROW B2 : ... .. . ... ... ... : ... .. . ... ... ... : ... .. . ... : ... .. A ... : ... .. . ... ...
ROW B3 : ... .. D ... ... ... : ... .. . ... ... ... : ... .. . ... : ... .. 9 ... : ... .. . ... ...
ROW B4 : ... .. C ... ... ... : ... .. . ... ... ... : ... .. . ... : ... .. 7 ... : ... .. . ... ...
ROW B5 : ... .. . ... ... ... : ... .. . ... ... ... : ... .. . ... : ... .. 5 ... : ... .. . ... ...
ROW B6 : ... .. B ... ... ... : ... .. . ... ... ... : ... .. . ... : ... .. 4 ... : ... .. . ... ...
ROW B7 : ... .. A ... ... ... : ... .. . ... ... ... : ... .. . ... : ... .. 2 ... : ... .. . ... ...
ROW B8 : ... .. . ... ... ... : ... .. . ... ... ... : ... .. . ... : ... .. 0 ... : ... .. . ... ...
ROW B9 : ... .. 9 ... ... ... : ... .. . ... ... ... : ... .. . ... : ... .. . ... : ... .. . ... ...
ROW BA : ... .. . ... ... ... : ... .. . ... ... ... : ... .. . ... : ... .. . ... : ... .. . ... ...
ROW BB : ... .. F ... V03 ... : ... .. . ... ... ... : ... .. . ... : ... .. . ... : ... .. . ... ...
ROW BC : ... .. . ... V01 ... : ... .. . ... ... ... : ... .. . ... : ... .. . ... : ... .. . ... ...
ROW BD : ... .. E ... V02 ... : ... .. . ... ... ... : ... .. . ... : ... .. . ... : ... .. . ... ...
ROW BE : ... .. . ... ... ... : ... .. . ... ... ... : ... .. . ... : ... .. . ... : ... .. . ... ...
ROW BF : ... .. D ... ... ... : ... .. . ... ... ... : ... .. . ... : ... .. . ... : ... .. . ... ...
ROW C0 : ... .. C ... ... ... : ... .. . ... ... ... : ... .. . ... : ... .. . ... : ... .. . ... ...
ROW C1 : ... .. . ... ... ... : ... .. . ... ... ... : ... .. . ... : ... .. . ... : ... .. . ... ...
ROW C2 : ... .. B ... ... ... : ... .. . ... ... ... : ... .. . ... : ... .. . ... : ... .. . ... ...
ROW C3 : ... .. A ... ... ... : ... .. . ... ... ... : ... .. . ... : ... .. . ... : ... .. . ... ...
ROW C4 : ... .. . ... ... ... : ... .. . ... ... ... : ... .. . ... : ... .. . ... : ... .. . ... ...
ROW C5 : ... .. 9 ... ... ... : ... .. . ... ... ... : ... .. . ... : ... .. . ... : ... .. . ... ...
ROW C6 : ... .. . ... ... ... : ... .. . ... ... ... : ... .. . ... : ... .. . ... : ... .. . ... ...
ROW C7 : A-2 00 F P7F V03 ... : ... .. . ... ... ... : ... .. . ... : ... .. F ... : ... .. . ... ...
ROW C8 : ... .. . ... V01 ... : ... .. . ... ... ... : ... .. . ... : ... .. E ... : ... .. . ... ...
ROW C9 : ... .. E ... V02 ... : ... .. . ... ... ... : ... .. . ... : ... .. C ... : ... .. . ... ...
ROW CA : ... .. . ... ... ... : ... .. . ... ... ... : ... .. . ... : ... .. A ... : ... .. . ... ...
ROW CB : ... .. D ... ... ... : ... .. . ... ... ... : ... .. . ... : ... .. 9 ... : ... .. . ... ...
ROW CC : ... .. C ... ... ... : ... .. . ... ... ... : ... .. . ... : ... .. 7 ... : ... .. . ... ...
ROW CD : ... .. . ... ... ... : ... .. . ... ... ... : ... .. . ... : ... .. 5 ... : ... .. . ... ...
ROW CE : ... .. B ... ... ... : ... .. . ... ... ... : ... .. . ... : ... .. 4 ... : ... .. . ... ...
ROW CF : ... .. A ... ... ... : ... .. . ... ... ... : ... .. . ... : ... .. 2 ... : ... .. . ... ...
ROW D0 : ... .. . ... ... ... : ... .. . ... ... ... : ... .. . ... : ... .. 0 ... : ... .. . ... ...
ROW D1 : ... .. 9 ... ... ... : ... .. . ... ... ... : ... .. . ... : ... .. . ... : ... .. . ... ...
ROW D2 : ... .. . ... ... ... : ... .. . ... ... ... : ... .. . ... : ... .. . ... : ... .. . ... ...
ROW D3 : A-1 00 F P80 V03 ... : ... .. . ... ... ... : ... .. . ... : ... .. . ... : ... .. . ... ...
ROW D4 : ... .. . ... V01 ... : ... .. . ... ... ... : ... .. . ... : ... .. . ... : ... .. . ... ...
ROW D5 : ... .. E ... V02 ... : ... .. . ... ... ... : ... .. . ... : ... .. . ... : ... .. . ... ...
ROW D6 : ... .. . ... ... ... : ... .. . ... ... ... : ... .. . ... : ... .. . ... : ... .. . ... ...
ROW D7 : ... .. D ... ... ... : ... .. . ... ... ... : ... .. . ... : ... .. . ... : ... .. . ... ...
ROW D8 : ... .. C ... ... ... : ... .. . ... ... ... : ... .. . ... : ... .. . ... : ... .. . ... ...
ROW D9 : ... .. . ... ... ... : ... .. . ... ... ... : ... .. . ... : ... .. . ... : ... .. . ... ...
ROW DA : ... .. B ... ... ... : ... .. . ... ... ... : ... .. . ... : ... .. . ... : ... .. . ... ...
ROW DB : ... .. A ... ... ... : ... .. . ... ... ... : ... .. . ... : ... .. . ... : ... .. . ... ...
ROW DC : ... .. . ... ... ... : ... .. . ... ... ... : ... .. . ... : ... .. . ... : ... .. . ... ...
ROW DD : ... .. 9 ... ... ... : ... .. . ... ... ... : ... .. . ... : ... .. . ... : ... .. . ... ...
ROW DE : ... .. . ... ... ... : ... .. . ... ... ... : ... .. . ... : ... .. . ... : ... .. . ... ...
ROW DF : ... .. F ... V03 ... : ... .. . ... ... ... : ... .. . ... : ... .. F ... : ... .. . ... ...
ROW E0 : ... .. . ... V01 ... : ... .. . ... ... ... : ... .. . ... : ... .. E ... : ... .. . ... ...
ROW E1 : ... .. E ... V02 ... : ... .. . ... ... ... : ... .. . ... : ... .. C ... : ... .. . ... ...
ROW E2 : ... .. . ... ... ... : ... .. . ... ... ... : ... .. . ... : ... .. A ... : ... .. . ... ...
ROW E3 : ... .. D ... ... ... : ... .. . ... ... ... : ... .. . ... : ... .. 9 ... : ... .. . ... ...
ROW E4 : ... .. C ... ... ... : ... .. . ... ... ... : ... .. . ... : ... .. 7 ... : ... .. . ... ...
ROW E5 : ... .. . ... ... ... : ... .. . ... ... ... : ... .. . ... : ... .. 5 ... : ... .. . ... ...
ROW E6 : ... .. B ... ... ... : ... .. . ... ... ... : ... .. . ... : ... .. 4 ... : ... .. . ... ...
ROW E7 : ... .. A ... ... ... : ... .. . ... ... ... : ... .. . ... : ... .. 2 ... : ... .. . ... ...
ROW E8 : ... .. . ... ... ... : ... .. . ... ... ... : ... .. . ... : ... .. 0 ... : ... .. . ... ...
ROW E9 : ... .. 9 ... ... ... : ... .. . ... ... ... : ... .. . ... : ... .. . ... : ... .. . ... ...
ROW EA : ... .. . ... ... ... : ... .. . ... ... ... : ... .. . ... : ... .. . ... : ... .. . ... ...
ROW EB : ... .. F ... V03 ... : ... .. . ... ... ... : ... .. . ... : ... .. . ... : ... .. . ... ...
ROW EC : ... .. . ... V01 ... : ... .. . ... ... ... : ... .. . ... : ... .. . ... : ... .. . ... ...
ROW ED : ... .. E ... V02 ... : ... .. . ... ... ... : ... .. . ... : ... .. . ... : ... .. . ... ...
ROW EE : ... .. . ... ... ... : ... .. . ... ... ... : ... .. . ... : ... .. . ... : ... .. . ... ...
ROW EF : ... .. D ... ... ... : ... .. . ... ... ... : ... .. . ... : ... .. . ... : ... .. . ... ...
ROW F0 : ... .. C ... ... ... : ... .. . ... ... ... : ... .. . ... : ... .. . ... : ... .. . ... ...
ROW F1 : ... .. . ... ... ... : ... .. . ... ... ... : ... .. . ... : ... .. . ... : ... .. . ... ...
ROW F2 : ... .. B ... ... ... : ... .. . ... ... ... : ... .. . ... : ... .. . ... : ... .. . ... ...
ROW F3 : ... .. A ... ... ... : ... .. . ... ... ... : ... .. . ... : ... .. . ... : ... .. . ... ...
ROW F4 : ... .. . ... ... ... : ... .. . ... ... ... : ... .. . ... : ... .. . ... : ... .. . ... ...
ROW F5 : ... .. 9 ... ... ... : ... .. . ... ... ... : ... .. . ... : ... .. . ... : ... .. . ... ...
ROW F6 : ... .. . ... ... ... : ... .. . ... ... ... : ... .. . ... : ... .. . ... : ... .. . ... ...
ROW F7 : A-2 00 F P7F V03 ... : ... .. . ... ... ... : ... .. . ... : ... .. F ... : ... .. . ... ...
ROW F8 : ... .. . ... V01 ... : ... .. . ... ... ... : ... .. . ... : ... .. E ... : ... .. . ... ...
ROW F9 : ... .. E ... V02 ... : ... .. . ... ... ... : ... .. . ... : ... .. C ... : ... .. . ... ...
ROW FA : ... .. . ... ... ... : ... .. . ... ... ... : ... .. . ... : ... .. A ... : ... .. . ... ...
ROW FB : ... .. D ... ... ... : ... .. . ... ... ... : ... .. . ... : ... .. 9 ... : ... .. . ... ...
ROW FC : ... .. C ... ... ... : ... .. . ... ... ... : ... .. . ... : ... .. 7 ... : ... .. . ... ...
ROW FD : ... .. . ... ... ... : ... .. . ... ... ... : ... .. . ... : ... .. 5 ... : ... .. . ... ...
ROW FE : ... .. B ... ... ... : ... .. . ... ... ... : ... .. . ... : ... .. 4 ... : ... .. . ... ...
ROW FF : ... .. A ... ... ... : ... .. . ... ... ... : ... .. . ... : ... .. 2 ... : ... .. . ... ...

PATTERN 02
ROW 00 : ... .. . ... ... ... : ... .. . ... ... ... : ... .. . ... : ... .. 0 ... : ... .. . ... ...
ROW 01 : ... .. 9 ... ... ... : ... .. . ... ... ... : ... .. . ... : ... .. . ... : ... .. . ... ...
ROW 02 : ... .. . ... ... ... : ... .. . ... ... ... : ... .. . ... : ... .. . ... : ... .. . ... ...
ROW 03 : A-1 00 F P80 V03 ... : ... .. . ... ... ... : ... .. . ... : ... .. . ... : ... .. . ... ...
ROW 04 : ... .. . ... V01 ... : ... .. . ... ... ... : ... .. . ... : ... .. . ... : ... .. . ... ...
ROW 05 : ... .. E ... V02 ... : ... .. . ... ... ... : ... .. . ... : ... .. . ... : ... .. . ... ...
ROW 06 : ... .. . ... ... ... : ... .. . ... ... ... : ... .. . ... : ... .. . ... : ... .. . ... ...
ROW 07 : ... .. D ... ... ... : ... .. . ... ... ... : ... .. . ... : ... .. . ... : ... .. . ... ...
ROW 08 : ... .. C ... ... ... : ... .. . ... ... ... : ... .. . ... : ... .. . ... : ... .. . ... ...
ROW 09 : ... .. . ... ... ... : ... .. . ... ... ... : ... .. . ... : ... .. . ... : ... .. . ... ...
ROW 0A : ... .. B ... ... ... : ... .. . ... ... ... : ... .. . ... : ... .. . ... : ... .. . ... ...
ROW 0B : ... .. A ... ... ... : ... .. . ... ... ... : ... .. . ... : ... .. . ... : ... .. . ... ...
ROW 0C : ... .. . ... ... ... : ... .. . ... ... ... : ... .. . ... : ... .. . ... : ... .. . ... ...
ROW 0D : ... .. 9 ... ... ... : ... .. . ... ... ... : ... .. . ... : ... .. . ... : ... .. . ... ...
ROW 0E : ... .. . ... ... ... : ... .. . ... ... ... : ... .. . ... : ... .. . ... : ... .. . ... ...
ROW 0F : G-1 00 F ... V03 ... : ... .. . ... ... ... : ... .. . ... : ... .. F ... : ... .. . ... ...
ROW 10 : ... .. . ... V01 ... : ... .. . ... ... ... : ... .. . ... : ... .. E ... : ... .. . ... ...
ROW 11 : ... .. E ... V02 ... : ... .. . ... ... ... : ... .. . ... : ... .. C ... : ... .. . ... ...
ROW 12 : ... .. . ... ... ... : ... .. . ... ... ... : ... .. . ... : ... .. A ... : ... .. . ... ...
ROW 13 : ... .. D ... ... ... : ... .. . ... ... ... : ... .. . ... : ... .. 9 ... : ... .. . ... ...
ROW 14 : ... .. C ... ... ... : ... .. . ... ... ... : ... .. . ... : ... .. 7 ... : ... .. . ... ...
ROW 15 : ... .. . ... ... ... : ... .. . ... ... ... : ... .. . ... : ... .. 5 ... : ... .. . ... ...
ROW 16 : ... .. B ... ... ... : ... .. . ... ... ... : ... .. . ... : ... .. 4 ... : ... .. . ... ...
ROW 17 : ... .. A ... ... ... : ... .. . ... ... ... : ... .. . ... : ... .. 2 ... : ... .. . ... ...
ROW 18 : ... .. . ... ... ... : ... .. . ... ... ... : ... .. . ... : ... .. 0 ... : ... .. . ... ...
ROW 19 : ... .. 9 ... ... ... : ... .. . ... ... ... : ... .. . ... : ... .. . ... : ... .. . ... ...
ROW 1A : ... .. . ... ... ... : ... .. . ... ... ... : ... .. . ... : ... .. . ... : ... .. . ... ...
ROW 1B : ... .. F ... V03 ... : ... .. . ... ... ... : ... .. . ... : ... .. . ... : ... .. . ... ...
ROW 1C : ... .. . ... V01 ... : ... .. . ... ... ... : ... .. . ... : ... .. . ... : ... .. . ... ...
ROW 1D : ... .. E ... V02 ... : ... .. . ... ... ... : ... .. . ... : ... .. . ... : ... .. . ... ...
ROW 1E : ... .. . ... ... ... : ... .. . ... ... ... : ... .. . ... : ... .. . ... : ... .. . ... ...
ROW 1F : ... .. D ... ... ... : ... .. . ... ... ... : ... .. . ... : ... .. . ... : ... .. . ... ...
ROW 20 : ... .. C ... ... ... : ... .. . ... ... ... : ... .. . ... : ... .. . ... : ... .. . ... ...
ROW 21 : ... .. . ... ... ... : ... .. . ... ... ... : ... .. . ... : ... .. . ... : ... .. . ... ...
ROW 22 : ... .. B ... ... ... : ... .. . ... ... ... : ... .. . ... : ... .. . ... : ... .. . ... ...
ROW 23 : ... .. A ... ... ... : ... .. . ... ... ... : ... .. . ... : ... .. . ... : ... .. . ... ...
ROW 24 : ... .. . ... ... ... : ... .. . ... ... ... : ... .. . ... : ... .. . ... : ... .. . ... ...
ROW 25 : ... .. 9 ... ... ... : ... .. . ... ... ... : ... .. . ... : ... .. . ... : ... .. . ... ...
ROW 26 : ... .. . ... ... ... : ... .. . ... ... ... : ... .. . ... : ... .. . ... : ... .. . ... ...
ROW 27 : G-2 00 F ... V03 ... : ... .. . ... ... ... : ... .. . ... : ... .. F ... : ... .. . ... ...
ROW 28 : ... .. . ... V01 ... : ... .. . ... ... ... : ... .. . ... : ... .. E ... : ... .. . ... ...
ROW 29 : ... .. E ... V02 ... : ... .. . ... ... ... : ... .. . ... : ... .. C ... : ... .. . ... ...
ROW 2A : ... .. . ... ... ... : ... .. . ... ... ... : ... .. . ... : ... .. A ... : ... .. . ... ...
ROW 2B : ... .. D ... ... ... : ... .. . ... ... ... : ... .. . ... : ... .. 9 ... : ... .. . ... ...
ROW 2C : ... .. C ... ... ... : ... .. . ... ... ... : ... .. . ... : ... .. 7 ... : ... .. . ... ...
ROW 2D : ... .. . ... ... ... : ... .. . ... ... ... : ... .. . ... : ... .. 5 ... : ... .. . ... ...
ROW 2E : ... .. B ... ... ... : ... .. . ... ... ... : ... .. . ... : ... .. 4 ... : ... .. . ... ...
ROW 2F : ... .. A ... ... ... : ... .. . ... ... ... : ... .. . ... : ... .. 2 ... : ... .. . ... ...
ROW 30 : ... .. . ... ... ... : ... .. . ... ... ... : ... .. . ... : ... .. 0 ... : ... .. . ... ...
ROW 31 : ... .. 9 ... ... ... : ... .. . ... ... ... : ... .. . ... : ... .. . ... : ... .. . ... ...
ROW 32 : ... .. . ... ... ... : ... .. . ... ... ... : ... .. . ... : ... .. . ... : ... .. . ... ...
ROW 33 : G-1 00 F ... V03 ... : ... .. . ... ... ... : ... .. . ... : ... .. . ... : ... .. . ... ...
ROW 34 : ... .. . ... V01 ... : ... .. . ... ... ... : ... .. . ... : ... .. . ... : ... .. . ... ...
ROW 35 : ... .. E ... V02 ... : ... .. . ... ... ... : ... .. . ... : ... .. . ... : ... .. . ... ...
ROW 36 : ... .. . ... ... ... : ... .. . ... ... ... : ... .. . ... : ... .. . ... : ... .. . ... ...
ROW 37 : ... .. D ... ... ... : ... .. . ... ... ... : ... .. . ... : ... .. . ... : ... .. . ... ...
ROW 38 : ... .. C ... ... ... : ... .. . ... ... ... : ... .. . ... : ... .. . ... : ... .. . ... ...
ROW 39 : ... .. . ... ... ... : ... .. . ... ... ... : ... .. . ... : ... .. . ... : ... .. . ... ...
ROW 3A : ... .. B ... ... ... : ... .. . ... ... ... : ... .. . ... : ... .. . ... : ... .. . ... ...
ROW 3B : ... .. A ... ... ... : ... .. . ... ... ... : ... .. . ... : ... .. . ... : ... .. . ... ...
ROW 3C : ... .. . ... ... ... : ... .. . ... ... ... : ... .. . ... : ... .. . ... : ... .. . ... ...
ROW 3D : ... .. 9 ... ... ... : ... .. . ... ... ... : ... .. . ... : ... .. . ... : ... .. . ... ...
ROW 3E : ... .. . ... ... ... : ... .. . ... ... ... : ... .. . ... : ... .. . ... : ... .. . ... ...
ROW 3F : A-1 00 F ... V03 ... : ... .. . ... ... ... : ... .. . ... : ... .. F ... : ... .. . ... ...
ROW 40 : ... .. . ... V01 ... : ... .. . ... ... ... : ... .. . ... : ... .. E ... : ... .. . ... ...
ROW 41 : ... .. E ... V02 ... : ... .. . ... ... ... : ... .. . ... : ... .. C ... : ... .. . ... ...
ROW 42 : ... .. . ... ... ... : ... .. . ... ... ... : ... .. . ... : ... .. A ... : ... .. . ... ...
ROW 43 : ... .. D ... ... ... : ... .. . ... ... ... : ... .. . ... : ... .. 9 ... : ... .. . ... ...
ROW 44 : ... .. C ... ... ... : ... .. . ... ... ... : ... .. . ... : ... .. 7 ... : ... .. . ... ...
ROW 45 : ... .. . ... ... ... : ... .. . ... ... ... : ... .. . ... : ... .. 5 ... : ... .. . ... ...
ROW 46 : ... .. B ... ... ... : ... .. . ... ... ... : ... .. . ... : ... .. 4 ... : ... .. . ... ...
ROW 47 : ... .. A ... ... ... : ... .. . ... ... ... : ... .. . ... : ... .. 2 ... : ... .. . ... ...
ROW 48 : ... .. . ... ... ... : ... .. . ... ... ... : ... .. . ... : ... .. 0 ... : ... .. . ... ...
ROW 49 : ... .. 9 ... ... ... : ... .. . ... ... ... : ... .. . ... : ... .. . ... : ... .. . ... ...
ROW 4A : ... .. . ... ... ... : ... .. . ... ... ... : ... .. . ... : ... .. . ... : ... .. . ... ...
ROW 4B : ... .. F ... V03 ... : ... .. . ... ... ... : ... .. . ... : ... .. . ... : ... .. . ... ...
ROW 4C : ... .. . ... V01 ... : ... .. . ... ... ... : ... .. . ... : ... .. . ... : ... .. . ... ...
ROW 4D : ... .. E ... V02 ... : ... .. . ... ... ... : ... .. . ... : ... .. . ... : ... .. . ... ...
ROW 4E : ... .. . ... ... ... : ... .. . ... ... ... : ... .. . ... : ... .. . ... : ... .. . ... ...
ROW 4F : ... .. D ... ... ... : ... .. . ... ... ... : ... .. . ... : ... .. . ... : ... .. . ... ...
ROW 50 : ... .. C ... ... ... : ... .. . ... ... ... : ... .. . ... : ... .. . ... : ... .. . ... ...
ROW 51 : ... .. . ... ... ... : ... .. . ... ... ... : ... .. . ... : ... .. . ... : ... .. . ... ...
ROW 52 : ... .. B ... ... ... : ... .. . ... ... ... : ... .. . ... : ... .. . ... : ... .. . ... ...
ROW 53 : ... .. A ... ... ... : ... .. . ... ... ... : ... .. . ... : ... .. . ... : ... .. . ... ...
ROW 54 : ... .. . ... ... ... : ... .. . ... ... ... : ... .. . ... : ... .. . ... : ... .. . ... ...
ROW 55 : ... .. 9 ... ... ... : ... .. . ... ... ... : ... .. . ... : ... .. . ... : ... .. . ... ...
ROW 56 : ... .. . ... ... ... : ... .. . ... ... ... : ... .. . ... : ... .. . ... : ... .. . ... ...
ROW 57 : A-2 00 F P7F V03 ... : ... .. . ... ... ... : ... .. . ... : ... .. F ... : ... .. . ... ...
ROW 58 : ... .. . ... V01 ... : ... .. . ... ... ... : ... .. . ... : ... .. E ... : ... .. . ... ...
ROW 59 : ... .. E ... V02 ... : ... .. . ... ... ... : ... .. . ... : ... .. C ... : ... .. . ... ...
ROW 5A : ... .. . ... ... ... : ... .. . ... ... ... : ... .. . ... : ... .. A ... : ... .. . ... ...
ROW 5B : ... .. D ... ... ... : ... .. . ... ... ... : ... .. . ... : ... .. 9 ... : ... .. . ... ...
ROW 5C : ... .. C ... ... ... : ... .. . ... ... ... : ... .. . ... : ... .. 7 ... : ... .. . ... ...
ROW 5D : ... .. . ... ... ... : ... .. . ... ... ... : ... .. . ... : ... .. 5 ... : ... .. . ... ...
ROW 5E : ... .. B ... ... ... : ... .. . ... ... ... : ... .. . ... : ... .. 4 ... : ... .. . ... ...
ROW 5F : ... .. A ... ... ... : ... .. . ... ... ... : ... .. . ... : ... .. 2 ... : ... .. . ... ...
ROW 60 : ... .. . ... ... ... : ... .. . ... ... ... : ... .. . ... : ... .. 0 ... : ... .. . ... ...
ROW 61 : ... .. 9 ... ... ... : ... .. . ... ... ... : ... .. . ... : ... .. . ... : ... .. . ... ...
ROW 62 : ... .. . ... ... ... : ... .. . ... ... ... : ... .. . ... : ... .. . ... : ... .. . ... ...
ROW 63 : A-1 00 F P80 V03 ... : ... .. . ... ... ... : ... .. . ... : ... .. . ... : ... .. . ... ...
ROW 64 : ... .. . ... V01 ... : ... .. . ... ... ... : ... .. . ... : ... .. . ... : ... .. . ... ...
ROW 65 : ... .. E ... V02 ... : ... .. . ... ... ... : ... .. . ... : ... .. . ... : ... .. . ... ...
ROW 66 : ... .. . ... ... ... : ... .. . ... ... ... : ... .. . ... : ... .. . ... : ... .. . ... ...
ROW 67 : ... .. D ... ... ... : ... .. . ... ... ... : ... .. . ... : ... .. . ... : ... .. . ... ...
ROW 68 : ... .. C ... ... ... : ... .. . ... ... ... : ... .. . ... : ... .. . ... : ... .. . ... ...
ROW 69 : ... .. . ... ... ... : ... .. . ... ... ... : ... .. . ... : ... .. . ... : ... .. . ... ...
ROW 6A : ... .. B ... ... ... : ... .. . ... ... ... : ... .. . ... : ... .. . ... : ... .. . ... ...
ROW 6B : ... .. A ... ... ... : ... .. . ... ... ... : ... .. . ... : ... .. . ... : ... .. . ... ...
ROW 6C : ... .. . ... ... ... : ... .. . ... ... ... : ... .. . ... : ... .. . ... : ... .. . ... ...
ROW 6D : ... .. 9 ... ... ... : ... .. . ... ... ... : ... .. . ... : ... .. . ... : ... .. . ... ...
ROW 6E : ... .. . ... ... ... : ... .. . ... ... ... : ... .. . ... : ... .. . ... : ... .. . ... ...
ROW 6F : ... .. F ... V03 ... : ... .. . ... ... ... : ... .. . ... : ... .. F ... : ... .. . ... ...
ROW 70 : ... .. . ... V01 ... : ... .. . ... ... ... : ... .. . ... : ... .. E ... : ... .. . ... ...
ROW 71 : ... .. E ... V02 ... : ... .. . ... ... ... : ... .. . ... : ... .. C ... : ... .. . ... ...
ROW 72 : ... .. . ... ... ... : ... .. . ... ... ... : ... .. . ... : ... .. A ... : ... .. . ... ...
ROW 73 : ... .. D ... ... ... : ... .. . ... ... ... : ... .. . ... : ... .. 9 ... : ... .. . ... ...
ROW 74 : ... .. C ... ... ... : ... .. . ... ... ... : ... .. . ... : ... .. 7 ... : ... .. . ... ...
ROW 75 : ... .. . ... ... ... : ... .. . ... ... ... : ... .. . ... : ... .. 5 ... : ... .. . ... ...
ROW 76 : ... .. B ... ... ... : ... .. . ... ... ... : ... .. . ... : ... .. 4 ... : ... .. . ... ...
ROW 77 : ... .. A ... ... ... : ... .. . ... ... ... : ... .. . ... : ... .. 2 ... : ... .. . ... ...
ROW 78 : ... .. . ... ... ... : ... .. . ... ... ... : ... .. . ... : ... .. 0 ... : ... .. . ... ...
ROW 79 : ... .. 9 ... ... ... : ... .. . ... ... ... : ... .. . ... : ... .. . ... : ... .. . ... ...
ROW 7A : ... .. . ... ... ... : ... .. . ... ... ... : ... .. . ... : ... .. . ... : ... .. . ... ...
ROW 7B : ... .. F ... V03 ... : ... .. . ... ... ... : ... .. . ... : ... .. . ... : ... .. . ... ...
ROW 7C : ... .. . ... V01 ... : ... .. . ... ... ... : ... .. . ... : ... .. . ... : ... .. . ... ...
ROW 7D : ... .. E ... V02 ... : ... .. . ... ... ... : ... .. . ... : ... .. . ... : ... .. . ... ...
ROW 7E : ... .. . ... ... ... : ... .. . ... ... ... : ... .. . ... : ... .. . ... : ... .. . ... ...
ROW 7F : ... .. D ... ... ... : ... .. . ... ... ... : ... .. . ... : ... .. . ... : ... .. . ... ...
ROW 80 : ... .. C ... ... ... : ... .. . ... ... ... : ... .. . ... : ... .. . ... : ... .. . ... ...
ROW 81 : ... .. . ... ... ... : ... .. . ... ... ... : ... .. . ... : ... .. . ... : ... .. . ... ...
ROW 82 : ... .. B ... ... ... : ... .. . ... ... ... : ... .. . ... : ... .. . ... : ... .. . ... ...
ROW 83 : ... .. A ... ... ... : ... .. . ... ... ... : ... .. . ... : ... .. . ... : ... .. . ... ...
ROW 84 : ... .. . ... ... ... : ... .. . ... ... ... : ... .. . ... : ... .. . ... : ... .. . ... ...
ROW 85 : ... .. 9 ... ... ... : ... .. . ... ... ... : ... .. . ... : ... .. . ... : ... .. . ... ...
ROW 86 : ... .. . ... ... ... : ... .. . ... ... ... : ... .. . ... : ... .. . ... : ... .. . ... ...
ROW 87 : A-2 00 F P7F V03 ... : ... .. . ... ... ... : ... .. . ... : ... .. F ... : ... .. . ... ...
ROW 88 : ... .. . ... V01 ... : ... .. . ... ... ... : ... .. . ... : ... .. E ... : ... .. . ... ...
ROW 89 : ... .. E ... V02 ... : ... .. . ... ... ... : ... .. . ... : ... .. C ... : ... .. . ... ...
ROW 8A : ... .. . ... ... ... : ... .. . ... ... ... : ... .. . ... : ... .. A ... : ... .. . ... ...
ROW 8B : ... .. D ... ... ... : ... .. . ... ... ... : ... .. . ... : ... .. 9 ... : ... .. . ... ...
ROW 8C : ... .. C ... ... ... : ... .. . ... ... ... : ... .. . ... : ... .. 7 ... : ... .. . ... ...
ROW 8D : ... .. . ... ... ... : ... .. . ... ... ... : ... .. . ... : ... .. 5 ... : ... .. . ... ...
ROW 8E : ... .. B ... ... ... : ... .. . ... ... ... : ... .. . ... : ... .. 4 ... : ... .. . ... ...
ROW 8F : ... .. A ... ... ... : ... .. . ... ... ... : ... .. . ... : ... .. 2 ... : ... .. . ... ...
ROW 90 : ... .. . ... ... ... : ... .. . ... ... ... : ... .. . ... : ... .. 0 ... : ... .. . ... ...
ROW 91 : ... .. 9 ... ... ... : ... .. . ... ... ... : ... .. . ... : ... .. . ... : ... .. . ... ...
ROW 92 : ... .. . ... ... ... : ... .. . ... ... ... : ... .. . ... : ... .. . ... : ... .. . ... ...
ROW 93 : A-1 00 F P80 V03 ... : ... .. . ... ... ... : ... .. . ... : ... .. . ... : ... .. . ... ...
ROW 94 : ... .. . ... V01 ... : ... .. . ... ... ... : ... .. . ... : ... .. . ... : ... .. . ... ...
ROW 95 : ... .. E ... V02 ... : ... .. . ... ... ... : ... .. . ... : ... .. . ... : ... .. . ... ...
ROW 96 : ... .. . ... ... ... : ... .. . ... ... ... : ... .. . ... : ... .. . ... : ... .. . ... ...
ROW 97 : ... .. D ... ... ... : ... .. . ... ... ... : ... .. . ... : ... .. . ... : ... .. . ... ...
ROW 98 : ... .. C ... ... ... : ... .. . ... ... ... : ... .. . ... : ... .. . ... : ... .. . ... ...
ROW 99 : ... .. . ... ... ... : ... .. . ... ... ... : ... .. . ... : ... .. . ... : ... .. . ... ...
ROW 9A : ... .. B ... ... ... : ... .. . ... ... ... : ... .. . ... : ... .. . ... : ... .. . ... ...
ROW 9B : ... .. A ... ... ... : ... .. . ... ... ... : ... .. . ... : ... .. . ... : ... .. . ... ...
ROW 9C : ... .. . ... ... ... : ... .. . ... ... ... : ... .. . ... : ... .. . ... : ... .. . ... ...
ROW 9D : ... .. 9 ... ... ... : ... .. . ... ... ... : ... .. . ... : ... .. . ... : ... .. . ... ...
ROW 9E : ... .. . ... ... ... : ... .. . ... ... ... : ... .. . ... : ... .. . ... : ... .. . ... ...
ROW 9F : ... .. F ... V03 ... : ... .. . ... ... ... : ... .. . ... : ... .. F ... : ... .. . ... ...
ROW A0 : ... .. . ... V01 ... : ... .. . ... ... ... : ... .. . ... : ... .. E ... : ... .. . ... ...
ROW A1 : ... .. E ... V02 ... : ... .. . ... ... ... : ... .. . ... : ... .. C ... : ... .. . ... ...
ROW A2 : ... .. . ... ... ... : ... .. . ... ... ... : ... .. . ... : ... .. A ... : ... .. . ... ...
ROW A3 : ... .. D ... ... ... : ... .. . ... ... ... : ... .. . ... : ... .. 9 ... : ... .. . ... ...
ROW A4 : ... .. C ... ... ... : ... .. . ... ... ... : ... .. . ... : ... .. 7 ... : ... .. . ... ...
ROW A5 : ... .. . ... ... ... : ... .. . ... ... ... : ... .. . ... : ... .. 5 ... : ... .. . ... ...
ROW A6 : ... .. B ... ... ... : ... .. . ... ... ... : ... .. . ... : ... .. 4 ... : ... .. . ... ...
ROW A7 : ... .. A ... ... ... : ... .. . ... ... ... : ... .. . ... : ... .. 2 ... : ... .. . ... ...
ROW A8 : ... .. . ... ... ... : ... .. . ... ... ... : ... .. . ... : ... .. 0 ... : ... .. . ... ...
ROW A9 : ... .. 9 ... ... ... : ... .. . ... ... ... : ... .. . ... : ... .. . ... : ... .. . ... ...
ROW AA : ... .. . ... ... ... : ... .. . ... ... ... : ... .. . ... : ... .. . ... : ... .. . ... ...
ROW AB : ... .. F ... V03 ... : ... .. . ... ... ... : ... .. . ... : ... .. . ... : ... .. . ... ...
ROW AC : ... .. . ... V01 ... : ... .. . ... ... ... : ... .. . ... : ... .. . ... : ... .. . ... ...
ROW AD : ... .. E ... V02 ... : ... .. . ... ... ... : ... .. . ... : ... .. . ... : ... .. . ... ...
ROW AE : ... .. . ... ... ... : ... .. . ... ... ... : ... .. . ... : ... .. . ... : ... .. . ... ...
ROW AF : ... .. D ... ... ... : ... .. . ... ... ... : ... .. . ... : ... .. . ... : ... .. . ... ...
ROW B0 : ... .. C ... ... ... : ... .. . ... ... ... : ... .. . ... : ... .. . ... : ... .. . ... ...
ROW B1 : ... .. . ... ... ... : ... .. . ... ... ... : ... .. . ... : ... .. . ... : ... .. . ... ...
ROW B2 : ... .. B ... ... ... : ... .. . ... ... ... : ... .. . ... : ... .. . ... : ... .. . ... ...
ROW B3 : ... .. A ... ... ... : ... .. . ... ... ... : ... .. . ... : ... .. . ... : ... .. . ... ...
ROW B4 : ... .. . ... ... ... : ... .. . ... ... ... : ... .. . ... : ... .. . ... : ... .. . ... ...
ROW B5 : ... .. 9 ... ... ... : ... .. . ... ... ... : ... .. . ... : ... .. . ... : ... .. . ... ...
ROW B6 : ... .. . ... ... ... : ... .. . ... ... ... : ... .. . ... : ... .. . ... : ... .. . ... ...
ROW B7 : A-2 00 F P7F V03 ... : ... .. . ... ... ... : ... .. . ... : ... .. F ... : ... .. . ... ...
ROW B8 : ... .. . ... V01 ... : ... .. . ... ... ... : ... .. . ... : ... .. E ... : ... .. . ... ...
ROW B9 : ... .. E ... V02 ... : ... .. . ... ... ... : ... .. . ... : ... .. C ... : ... .. . ... ...
ROW BA : ... .. . ... ... ... : ... .. . ... ... ... : ... .. . ... : ... .. A ... : ... .. . ... ...
ROW BB : ... .. D ... ... ... : ... .. . ... ... ... : ... .. . ... : ... .. 9 ... : ... .. . ... ...
ROW BC : ... .. C ... ... ... : ... .. . ... ... ... : ... .. . ... : ... .. 7 ... : ... .. . ... ...
ROW BD : ... .. . ... ... ... : ... .. . ... ... ... : ... .. . ... : ... .. 5 ... : ... .. . ... ...
ROW BE : ... .. B ... ... ... : ... .. . ... ... ... : ... .. . ... : ... .. 4 ... : ... .. . ... ...
ROW BF : ... .. A ... ... ... : ... .. . ... ... ... : ... .. . ... : ... .. 2 ... : ... .. . ... ...
ROW C0 : ... .. . ... ... ... : ... .. . ... ... ... : ... .. . ... : ... .. 0 ... : ... .. . ... ...
ROW C1 : ... .. 9 ... ... ... : ... .. . ... ... ... : ... .. . ... : ... .. . ... : ... .. . ... ...
ROW C2 : ... .. . ... ... ... : ... .. . ... ... ... : ... .. . ... : ... .. . ... : ... .. . ... ...
ROW C3 : A-1 00 F P80 V03 ... : ... .. . ... ... ... : ... .. . ... : ... .. . ... : ... .. . ... ...
ROW C4 : ... .. . ... V01 ... : ... .. . ... ... ... : ... .. . ... : ... .. . ... : ... .. . ... ...
ROW C5 : ... .. E ... V02 ... : ... .. . ... ... ... : ... .. . ... : ... .. . ... : ... .. . ... ...
ROW C6 : ... .. . ... ... ... : ... .. . ... ... ... : ... .. . ... : ... .. . ... : ... .. . ... ...
ROW C7 : ... .. D ... ... ... : ... .. . ... ... ... : ... .. . ... : ... .. . ... : ... .. . ... ...
ROW C8 : ... .. C ... ... ... : ... .. . ... ... ... : ... .. . ... : ... .. . ... : ... .. . ... ...
ROW C9 : ... .. . ... ... ... : ... .. . ... ... ... : ... .. . ... : ... .. . ... : ... .. . ... ...
ROW CA : ... .. B ... ... ... : ... .. . ... ... ... : ... .. . ... : ... .. . ... : ... .. . ... ...
ROW CB : ... .. A ... ... ... : ... .. . ... ... ... : ... .. . ... : ... .. . ... : ... .. . ... ...
ROW CC : ... .. . ... ... ... : ... .. . ... ... ... : ... .. . ... : ... .. . ... : ... .. . ... ...
ROW CD : ... .. 9 ... ... ... : ... .. . ... ... ... : ... .. . ... : ... .. . ... : ... .. . ... ...
ROW CE : ... .. . ... ... ... : ... .. . ... ... ... : ... .. . ... : ... .. . ... : ... .. . ... ...
ROW CF : G-1 00 F ... V03 ... : ... .. . ... ... ... : ... .. . ... : ... .. F ... : ... .. . ... ...
ROW D0 : ... .. . ... V01 ... : ... .. . ... ... ... : ... .. . ... : ... .. E ... : ... .. . ... ...
ROW D1 : ... .. E ... V02 ... : ... .. . ... ... ... : ... .. . ... : ... .. C ... : ... .. . ... ...
ROW D2 : ... .. . ... ... ... : ... .. . ... ... ... : ... .. . ... : ... .. A ... : ... .. . ... ...
ROW D3 : ... .. D ... ... ... : ... .. . ... ... ... : ... .. . ... : ... .. 9 ... : ... .. . ... ...
ROW D4 : ... .. C ... ... ... : ... .. . ... ... ... : ... .. . ... : ... .. 7 ... : ... .. . ... ...
ROW D5 : ... .. . ... ... ... : ... .. . ... ... ... : ... .. . ... : ... .. 5 ... : ... .. . ... ...
ROW D6 : ... .. B ... ... ... : ... .. . ... ... ... : ... .. . ... : ... .. 4 ... : ... .. . ... ...
ROW D7 : ... .. A ... ... ... : ... .. . ... ... ... : ... .. . ... : ... .. 2 ... : ... .. . ... ...
ROW D8 : ... .. . ... ... ... : ... .. . ... ... ... : ... .. . ... : ... .. 0 ... : ... .. . ... ...
ROW D9 : ... .. 9 ... ... ... : ... .. . ... ... ... : ... .. . ... : ... .. . ... : ... .. . ... ...
ROW DA : ... .. . ... ... ... : ... .. . ... ... ... : ... .. . ... : ... .. . ... : ... .. . ... ...
ROW DB : ... .. F ... V03 ... : ... .. . ... ... ... : ... .. . ... : ... .. . ... : ... .. . ... ...
ROW DC : ... .. . ... V01 ... : ... .. . ... ... ... : ... .. . ... : ... .. . ... : ... .. . ... ...
ROW DD : ... .. E ... V02 ... : ... .. . ... ... ... : ... .. . ... : ... .. . ... : ... .. . ... ...
ROW DE : ... .. . ... ... ... : ... .. . ... ... ... : ... .. . ... : ... .. . ... : ... .. . ... ...
ROW DF : ... .. D ... ... ... : ... .. . ... ... ... : ... .. . ... : ... .. . ... : ... .. . ... ...
ROW E0 : ... .. C ... ... ... : ... .. . ... ... ... : ... .. . ... : ... .. . ... : ... .. . ... ...
ROW E1 : ... .. . ... ... ... : ... .. . ... ... ... : ... .. . ... : ... .. . ... : ... .. . ... ...
ROW E2 : ... .. B ... ... ... : ... .. . ... ... ... : ... .. . ... : ... .. . ... : ... .. . ... ...
ROW E3 : ... .. A ... ... ... : ... .. . ... ... ... : ... .. . ... : ... .. . ... : ... .. . ... ...
ROW E4 : ... .. . ... ... ... : ... .. . ... ... ... : ... .. . ... : ... .. . ... : ... .. . ... ...
ROW E5 : ... .. 9 ... ... ... : ... .. . ... ... ... : ... .. . ... : ... .. . ... : ... .. . ... ...
ROW E6 : ... .. . ... ... ... : ... .. . ... ... ... : ... .. . ... : ... .. . ... : ... .. . ... ...
ROW E7 : G-2 00 F ... V03 ... : ... .. . ... ... ... : ... .. . ... : ... .. F ... : ... .. . ... ...
ROW E8 : ... .. . ... V01 ... : ... .. . ... ... ... : ... .. . ... : ... .. E ... : ... .. . ... ...
ROW E9 : ... .. E ... V02 ... : ... .. . ... ... ... : ... .. . ... : ... .. C ... : ... .. . ... ...
ROW EA : ... .. . ... ... ... : ... .. . ... ... ... : ... .. . ... : ... .. A ... : ... .. . ... ...
ROW EB : ... .. D ... ... ... : ... .. . ... ... ... : ... .. . ... : ... .. 9 ... : ... .. . ... ...
ROW EC : ... .. C ... ... ... : ... .. . ... ... ... : ... .. . ... : ... .. 7 ... : ... .. . ... ...
ROW ED : ... .. . ... ... ... : ... .. . ... ... ... : ... .. . ... : ... .. 5 ... : ... .. . ... ...
ROW EE : ... .. B ... ... ... : ... .. . ... ... ... : ... .. . ... : ... .. 4 ... : ... .. . ... ...
ROW EF : ... .. A ... ... ... : ... .. . ... ... ... : ... .. . ... : ... .. 2 ... : ... .. . ... ...
ROW F0 : ... .. . ... ... ... : ... .. . ... ... ... : ... .. . ... : ... .. 0 ... : ... .. . ... ...
ROW F1 : ... .. 9 ... ... ... : ... .. . ... ... ... : ... .. . ... : ... .. . ... : ... .. . ... ...
ROW F2 : ... .. . ... ... ... : ... .. . ... ... ... : ... .. . ... : ... .. . ... : ... .. . ... ...
ROW F3 : G-1 00 F ... V03 ... : ... .. . ... ... ... : ... .. . ... : ... .. . ... : ... .. . ... ...
ROW F4 : ... .. . ... V01 ... : ... .. . ... ... ... : ... .. . ... : ... .. . ... : ... .. . ... ...
ROW F5 : ... .. E ... V02 ... : ... .. . ... ... ... : ... .. . ... : ... .. . ... : ... .. . ... ...
ROW F6 : ... .. . ... ... ... : ... .. . ... ... ... : ... .. . ... : ... .. . ... : ... .. . ... ...
ROW F7 : ... .. D ... ... ... : ... .. . ... ... ... : ... .. . ... : ... .. . ... : ... .. . ... ...
ROW F8 : ... .. C ... ... ... : ... .. . ... ... ... : ... .. . ... : ... .. . ... : ... .. . ... ...
ROW F9 : ... .. . ... ... ... : ... .. . ... ... ... : ... .. . ... : ... .. . ... : ... .. . ... ...
ROW FA : ... .. B ... ... ... : ... .. . ... ... ... : ... .. . ... : ... .. . ... : ... .. . ... ...
ROW FB : ... .. A ... ... ... : ... .. . ... ... ... : ... .. . ... : ... .. . ... : ... .. . ... ...
ROW FC : ... .. . ... ... ... : ... .. . ... ... ... : ... .. . ... : ... .. . ... : ... .. . ... ...
ROW FD : ... .. 9 ... ... ... : ... .. . ... ... ... : ... .. . ... : ... .. . ... : ... .. . ... ...
ROW FE : ... .. . ... ... ... : ... .. . ... ... ... : ... .. . ... : ... .. . ... : ... .. . ... ...
ROW FF : A-1 00 F ... V03 ... : ... .. . ... ... ... : ... .. . ... : ... .. F ... : ... .. . ... ...

PATTERN 03
ROW 00 : ... .. . ... V01 ... : ... .. . ... ... ... : ... .. . ... : ... .. E ... : ... .. . ... ...
ROW 01 : ... .. E ... V02 ... : ... .. . ... ... ... : ... .. . ... : ... .. C ... : ... .. . ... ...
ROW 02 : ... .. . ... ... ... : ... .. . ... ... ... : ... .. . ... : ... .. A ... : ... .. . ... ...
ROW 03 : ... .. D ... ... ... : ... .. . ... ... ... : ... .. . ... : ... .. 9 ... : ... .. . ... ...
ROW 04 : ... .. C ... ... ... : ... .. . ... ... ... : ... .. . ... : ... .. 7 ... : ... .. . ... ...
ROW 05 : ... .. . ... ... ... : ... .. . ... ... ... : ... .. . ... : ... .. 5 ... : ... .. . ... ...
ROW 06 : ... .. B ... ... ... : ... .. . ... ... ... : ... .. . ... : ... .. 4 ... : ... .. . ... ...
ROW 07 : ... .. A ... ... ... : ... .. . ... ... ... : ... .. . ... : ... .. 2 ... : ... .. . ... ...
ROW 08 : ... .. . ... ... ... : ... .. . ... ... ... : ... .. . ... : ... .. 0 ... : ... .. . ... ...
ROW 09 : ... .. 9 ... ... ... : ... .. . ... ... ... : ... .. . ... : ... .. . ... : ... .. . ... ...
ROW 0A : ... .. . ... ... ... : ... .. . ... ... ... : ... .. . ... : ... .. . ... : ... .. . ... ...
ROW 0B : ... .. F ... V03 ... : ... .. . ... ... ... : ... .. . ... : ... .. . ... : ... .. . ... ...
ROW 0C : ... .. . ... V01 ... : ... .. . ... ... ... : ... .. . ... : ... .. . ... : ... .. . ... ...
ROW 0D : ... .. E ... V02 ... : ... .. . ... ... ... : ... .. . ... : ... .. . ... : ... .. . ... ...
ROW 0E : ... .. . ... ... ... : ... .. . ... ... ... : ... .. . ... : ... .. . ... : ... .. . ... ...
ROW 0F : ... .. D ... ... ... : ... .. . ... ... ... : ... .. . ... : ... .. . ... : ... .. . ... ...
ROW 10 : ... .. C ... ... ... : ... .. . ... ... ... : ... .. . ... : ... .. . ... : ... .. . ... ...
ROW 11 : ... .. . ... ... ... : ... .. . ... ... ... : ... .. . ... : ... .. . ... : ... .. . ... ...
ROW 12 : ... .. B ... ... ... : ... .. . ... ... ... : ... .. . ... : ... .. . ... : ... .. . ... ...
ROW 13 : ... .. A ... ... ... : ... .. . ... ... ... : ... .. . ... : ... .. . ... : ... .. . ... ...
ROW 14 : ... .. . ... ... ... : ... .. . ... ... ... : ... .. . ... : ... .. . ... : ... .. . ... ...
ROW 15 : ... .. 9 ... ... ... : ... .. . ... ... ... : ... .. . ... : ... .. . ... : ... .. . ... ...
ROW 16 : ... .. . ... ... ... : ... .. . ... ... ... : ... .. . ... : ... .. . ... : ... .. . ... ...
ROW 17 : A-2 00 F P7F V03 ... : ... .. . ... ... ... : ... .. . ... : 4-# 00 F ... : ... .. . ... ...
ROW 18 : ... .. . ... V01 ... : ... .. . ... ... ... : ... .. . ... : ... .. E ... : ... .. . ... ...
ROW 19 : ... .. E ... V02 ... : ... .. . ... ... ... : ... .. . ... : ... .. C ... : ... .. . ... ...
ROW 1A : ... .. . ... ... ... : ... .. . ... ... ... : ... .. . ... : ... .. A ... : ... .. . ... ...
ROW 1B : ... .. D ... ... ... : ... .. . ... ... ... : ... .. . ... : ... .. 9 ... : ... .. . ... ...
ROW 1C : ... .. C ... ... ... : ... .. . ... ... ... : ... .. . ... : ... .. 7 ... : ... .. . ... ...
ROW 1D : ... .. . ... ... ... : ... .. . ... ... ... : ... .. . ... : ... .. 5 ... : ... .. . ... ...
ROW 1E : ... .. B ... ... ... : ... .. . ... ... ... : ... .. . ... : ... .. 4 ... : ... .. . ... ...
ROW 1F : ... .. A ... ... ... : ... .. . ... ... ... : ... .. . ... : ... .. 2 ... : ... .. . ... ...
ROW 20 : ... .. . ... ... ... : ... .. . ... ... ... : ... .. . ... : ... .. 0 ... : ... .. . ... ...
ROW 21 : ... .. 9 ... ... ... : ... .. . ... ... ... : ... .. . ... : ... .. . ... : ... .. . ... ...
ROW 22 : ... .. . ... ... ... : ... .. . ... ... ... : ... .. . ... : ... .. . ... : ... .. . ... ...
ROW 23 : A-1 00 F P80 V03 ... : ... .. . ... ... ... : ... .. . ... : ... .. . ... : ... .. . ... ...
ROW 24 : ... .. . ... V01 ... : ... .. . ... ... ... : ... .. . ... : ... .. . ... : ... .. . ... ...
ROW 25 : ... .. E ... V02 ... : ... .. . ... ... ... : ... .. . ... : ... .. . ... : ... .. . ... ...
ROW 26 : ... .. . ... ... ... : ... .. . ... ... ... : ... .. . ... : ... .. . ... : ... .. . ... ...
ROW 27 : ... .. D ... ... ... : ... .. . ... ... ... : ... .. . ... : ... .. . ... : ... .. . ... ...
ROW 28 : ... .. C ... ... ... : ... .. . ... ... ... : ... .. . ... : ... .. . ... : ... .. . ... ...
ROW 29 : ... .. . ... ... ... : ... .. . ... ... ... : ... .. . ... : ... .. . ... : ... .. . ... ...
ROW 2A : ... .. B ... ... ... : ... .. . ... ... ... : ... .. . ... : ... .. . ... : ... .. . ... ...
ROW 2B : ... .. A ... ... ... : ... .. . ... ... ... : ... .. . ... : ... .. . ... : ... .. . ... ...
ROW 2C : ... .. . ... ... ... : ... .. . ... ... ... : ... .. . ... : ... .. . ... : ... .. . ... ...
ROW 2D : ... .. 9 ... ... ... : ... .. . ... ... ... : ... .. . ... : ... .. . ... : ... .. . ... ...
ROW 2E : ... .. . ... ... ... : ... .. . ... ... ... : ... .. . ... : ... .. . ... : ... .. . ... ...
ROW 2F : ... .. F ... V03 ... : ... .. . ... ... ... : ... .. . ... : 0-# 00 F ... : ... .. . ... ...
ROW 30 : ... .. . ... V01 ... : ... .. . ... ... ... : ... .. . ... : ... .. E ... : ... .. . ... ...
ROW 31 : ... .. E ... V02 ... : ... .. . ... ... ... : ... .. . ... : ... .. C ... : ... .. . ... ...
ROW 32 : ... .. . ... ... ... : ... .. . ... ... ... : ... .. . ... : ... .. A ... : ... .. . ... ...
ROW 33 : ... .. D ... ... ... : ... .. . ... ... ... : ... .. . ... : ... .. 9 ... : ... .. . ... ...
ROW 34 : ... .. C ... ... ... : ... .. . ... ... ... : ... .. . ... : ... .. 7 ... : ... .. . ... ...
ROW 35 : ... .. . ... ... ... : ... .. . ... ... ... : ... .. . ... : ... .. 5 ... : ... .. . ... ...
ROW 36 : ... .. B ... ... ... : ... .. . ... ... ... : ... .. . ... : ... .. 4 ... : ... .. . ... ...
ROW 37 : ... .. A ... ... ... : ... .. . ... ... ... : ... .. . ... : ... .. 2 ... : ... .. . ... ...
ROW 38 : ... .. . ... ... ... : ... .. . ... ... ... : ... .. . ... : ... .. 0 ... : ... .. . ... ...
ROW 39 : ... .. 9 ... ... ... : ... .. . ... ... ... : ... .. . ... : ... .. . ... : ... .. . ... ...
ROW 3A : ... .. . ... ... ... : ... .. . ... ... ... : ... .. . ... : ... .. . ... : ... .. . ... ...
ROW 3B : ... .. F ... V03 ... : ... .. . ... ... ... : ... .. . ... : ... .. . ... : ... .. . ... ...
ROW 3C : ... .. . ... V01 ... : ... .. . ... ... ... : ... .. . ... : ... .. . ... : ... .. . ... ...
ROW 3D : ... .. E ... V02 ... : ... .. . ... ... ... : ... .. . ... : ... .. . ... : ... .. . ... ...
ROW 3E : ... .. . ... ... ... : ... .. . ... ... ... : ... .. . ... : ... .. . ... : ... .. . ... ...
ROW 3F : ... .. D ... ... ... : ... .. . ... ... ... : ... .. . ... : ... .. . ... : ... .. . ... ...
ROW 40 : ... .. C ... ... ... : ... .. . ... ... ... : ... .. . ... : ... .. . ... : ... .. . ... ...
ROW 41 : ... .. . ... ... ... : ... .. . ... ... ... : ... .. . ... : ... .. . ... : ... .. . ... ...
ROW 42 : ... .. B ... ... ... : ... .. . ... ... ... : ... .. . ... : ... .. . ... : ... .. . ... ...
ROW 43 : ... .. A ... ... ... : ... .. . ... ... ... : ... .. . ... : ... .. . ... : ... .. . ... ...
ROW 44 : ... .. . ... ... ... : ... .. . ... ... ... : ... .. . ... : ... .. . ... : ... .. . ... ...
ROW 45 : ... .. 9 ... ... ... : ... .. . ... ... ... : ... .. . ... : ... .. . ... : ... .. . ... ...
ROW 46 : ... .. . ... ... ... : ... .. . ... ... ... : ... .. . ... : ... .. . ... : ... .. . ... ...
ROW 47 : A-2 00 F P7F V03 ... : ... .. . ... ... ... : ... .. . ... : 4-# 00 F ... : ... .. . ... ...
ROW 48 : ... .. . ... V01 ... : ... .. . ... ... ... : ... .. . ... : ... .. E ... : ... .. . ... ...
ROW 49 : ... .. E ... V02 ... : ... .. . ... ... ... : ... .. . ... : ... .. C ... : ... .. . ... ...
ROW 4A : ... .. . ... ... ... : ... .. . ... ... ... : ... .. . ... : ... .. A ... : ... .. . ... ...
ROW 4B : ... .. D ... ... ... : ... .. . ... ... ... : ... .. . ... : ... .. 9 ... : ... .. . ... ...
ROW 4C : ... .. C ... ... ... : ... .. . ... ... ... : ... .. . ... : ... .. 7 ... : ... .. . ... ...
ROW 4D : ... .. . ... ... ... : ... .. . ... ... ... : ... .. . ... : ... .. 5 ... : ... .. . ... ...
ROW 4E : ... .. B ... ... ... : ... .. . ... ... ... : ... .. . ... : ... .. 4 ... : ... .. . ... ...
ROW 4F : ... .. A ... ... ... : ... .. . ... ... ... : ... .. . ... : ... .. 2 ... : ... .. . ... ...
ROW 50 : ... .. . ... ... ... : ... .. . ... ... ... : ... .. . ... : ... .. 0 ... : ... .. . ... ...
ROW 51 : ... .. 9 ... ... ... : ... .. . ... ... ... : ... .. . ... : ... .. . ... : ... .. . ... ...
ROW 52 : ... .. . ... ... ... : ... .. . ... ... ... : ... .. . ... : ... .. . ... : ... .. . ... ...
ROW 53 : A-1 00 F P80 V03 ... : ... .. . ... ... ... : ... .. . ... : ... .. . ... : ... .. . ... ...
ROW 54 : ... .. . ... V01 ... : ... .. . ... ... ... : ... .. . ... : ... .. . ... : ... .. . ... ...
ROW 55 : ... .. E ... V02 ... : ... .. . ... ... ... : ... .. . ... : ... .. . ... : ... .. . ... ...
ROW 56 : ... .. . ... ... ... : ... .. . ... ... ... : ... .. . ... : ... .. . ... : ... .. . ... ...
ROW 57 : ... .. D ... ... ... : ... .. . ... ... ... : ... .. . ... : ... .. . ... : ... .. . ... ...
ROW 58 : ... .. C ... ... ... : ... .. . ... ... ... : ... .. . ... : ... .. . ... : ... .. . ... ...
ROW 59 : ... .. . ... ... ... : ... .. . ... ... ... : ... .. . ... : ... .. . ... : ... .. . ... ...
ROW 5A : ... .. B ... ... ... : ... .. . ... ... ... : ... .. . ... : ... .. . ... : ... .. . ... ...
ROW 5B : ... .. A ... ... ... : ... .. . ... ... ... : ... .. . ... : ... .. . ... : ... .. . ... ...
ROW 5C : ... .. . ... ... ... : ... .. . ... ... ... : ... .. . ... : ... .. . ... : ... .. . ... ...
ROW 5D : ... .. 9 ... ... ... : ... .. . ... ... ... : ... .. . ... : ... .. . ... : ... .. . ... ...
ROW 5E : ... .. . ... ... ... : ... .. . ... ... ... : ... .. . ... : ... .. . ... : ... .. . ... ...
ROW 5F : ... .. F ... V03 ... : ... .. . ... ... ... : ... .. . ... : 0-# 00 F ... : ... .. . ... ...
ROW 60 : ... .. . ... V01 ... : ... .. . ... ... ... : ... .. . ... : ... .. E ... : ... .. . ... ...
ROW 61 : ... .. E ... V02 ... : ... .. . ... ... ... : ... .. . ... : ... .. C ... : ... .. . ... ...
ROW 62 : ... .. . ... ... ... : ... .. . ... ... ... : ... .. . ... : ... .. A ... : ... .. . ... ...
ROW 63 : ... .. D ... ... ... : ... .. . ... ... ... : ... .. . ... : ... .. 9 ... : ... .. . ... ...
ROW 64 : ... .. C ... ... ... : ... .. . ... ... ... : ... .. . ... : ... .. 7 ... : ... .. . ... ...
ROW 65 : ... .. . ... ... ... : ... .. . ... ... ... : ... .. . ... : ... .. 5 ... : ... .. . ... ...
ROW 66 : ... .. B ... ... ... : ... .. . ... ... ... : ... .. . ... : ... .. 4 ... : ... .. . ... ...
ROW 67 : ... .. A ... ... ... : ... .. . ... ... ... : ... .. . ... : ... .. 2 ... : ... .. . ... ...
ROW 68 : ... .. . ... ... ... : ... .. . ... ... ... : ... .. . ... : ... .. 0 ... : ... .. . ... ...
ROW 69 : ... .. 9 ... ... ... : ... .. . ... ... ... : ... .. . ... : ... .. . ... : ... .. . ... ...
ROW 6A : ... .. . ... ... ... : ... .. . ... ... ... : ... .. . ... : ... .. . ... : ... .. . ... ...
ROW 6B : ... .. F ... V03 ... : ... .. . ... ... ... : ... .. . ... : ... .. . ... : ... .. . ... ...
ROW 6C : ... .. . ... V01 ... : ... .. . ... ... ... : ... .. . ... : ... .. . ... : ... .. . ... ...
ROW 6D : ... .. E ... V02 ... : ... .. . ... ... ... : ... .. . ... : ... .. . ... : ... .. . ... ...
ROW 6E : ... .. . ... ... ... : ... .. . ... ... ... : ... .. . ... : ... .. . ... : ... .. . ... ...
ROW 6F : ... .. D ... ... ... : ... .. . ... ... ... : ... .. . ... : ... .. . ... : ... .. . ... ...
ROW 70 : ... .. C ... ... ... : ... .. . ... ... ... : ... .. . ... : ... .. . ... : ... .. . ... ...
ROW 71 : ... .. . ... ... ... : ... .. . ... ... ... : ... .. . ... : ... .. . ... : ... .. . ... ...
ROW 72 : ... .. B ... ... ... : ... .. . ... ... ... : ... .. . ... : ... .. . ... : ... .. . ... ...
ROW 73 : ... .. A ... ... ... : ... .. . ... ... ... : ... .. . ... : ... .. . ... : ... .. . ... ...
ROW 74 : ... .. . ... ... ... : ... .. . ... ... ... : ... .. . ... : ... .. . ... : ... .. . ... ...
ROW 75 : ... .. 9 ... ... ... : ... .. . ... ... ... : ... .. . ... : ... .. . ... : ... .. . ... ...
ROW 76 : ... .. . ... ... ... : ... .. . ... ... ... : ... .. . ... : ... .. . ... : ... .. . ... ...
ROW 77 : A-2 00 F P7F V03 ... : ... .. . ... ... ... : ... .. . ... : 4-# 00 F ... : ... .. . ... ...
ROW 78 : ... .. . ... V01 ... : ... .. . ... ... ... : ... .. . ... : ... .. E ... : ... .. . ... ...
ROW 79 : ... .. E ... V02 ... : ... .. . ... ... ... : ... .. . ... : ... .. C ... : ... .. . ... ...
ROW 7A : ... .. . ... ... ... : ... .. . ... ... ... : ... .. . ... : ... .. A ... : ... .. . ... ...
ROW 7B : ... .. D ... ... ... : ... .. . ... ... ... : ... .. . ... : ... .. 9 ... : ... .. . ... ...
ROW 7C : ... .. C ... ... ... : ... .. . ... ... ... : ... .. . ... : ... .. 7 ... : ... .. . ... ...
ROW 7D : ... .. . ... ... ... : ... .. . ... ... ... : ... .. . ... : ... .. 5 ... : ... .. . ... ...
ROW 7E : ... .. B ... ... ... : ... .. . ... ... ... : ... .. . ... : ... .. 4 ... : ... .. . ... ...
ROW 7F : ... .. A ... ... ... : ... .. . ... ... ... : ... .. . ... : ... .. 2 ... : ... .. . ... ...
ROW 80 : ... .. . ... ... ... : ... .. . ... ... ... : ... .. . ... : ... .. 0 ... : ... .. . ... ...
ROW 81 : ... .. 9 ... ... ... : ... .. . ... ... ... : ... .. . ... : ... .. . ... : ... .. . ... ...
ROW 82 : ... .. . ... ... ... : ... .. . ... ... ... : ... .. . ... : ... .. . ... : ... .. . ... ...
ROW 83 : A-1 00 F P80 V03 ... : ... .. . ... ... ... : ... .. . ... : ... .. . ... : ... .. . ... ...
ROW 84 : ... .. . ... V01 ... : ... .. . ... ... ... : ... .. . ... : ... .. . ... : ... .. . ... ...
ROW 85 : ... .. E ... V02 ... : ... .. . ... ... ... : ... .. . ... : ... .. . ... : ... .. . ... ...
ROW 86 : ... .. . ... ... ... : ... .. . ... ... ... : ... .. . ... : ... .. . ... : ... .. . ... ...
ROW 87 : ... .. D ... ... ... : ... .. . ... ... ... : ... .. . ... : ... .. . ... : ... .. . ... ...
ROW 88 : ... .. C ... ... ... : ... .. . ... ... ... : ... .. . ... : ... .. . ... : ... .. . ... ...
ROW 89 : ... .. . ... ... ... : ... .. . ... ... ... : ... .. . ... : ... .. . ... : ... .. . ... ...
ROW 8A : ... .. B ... ... ... : ... .. . ... ... ... : ... .. . ... : ... .. . ... : ... .. . ... ...
ROW 8B : ... .. A ... ... ... : ... .. . ... ... ... : ... .. . ... : ... .. . ... : ... .. . ... ...
ROW 8C : ... .. . ... ... ... : ... .. . ... ... ... : ... .. . ... : ... .. . ... : ... .. . ... ...
ROW 8D : ... .. 9 ... ... ... : ... .. . ... ... ... : ... .. . ... : ... .. . ... : ... .. . ... ...
ROW 8E : ... .. . ... ... ... : ... .. . ... ... ... : ... .. . ... : ... .. . ... : ... .. . ... ...
ROW 8F : G-1 00 F ... V03 ... : ... .. . ... ... ... : ... .. . ... : 0-# 00 F ... : ... .. . ... ...
ROW 90 : ... .. . ... V01 ... : ... .. . ... ... ... : ... .. . ... : ... .. E ... : ... .. . ... ...
ROW 91 : ... .. E ... V02 ... : ... .. . ... ... ... : ... .. . ... : ... .. C ... : ... .. . ... ...
ROW 92 : ... .. . ... ... ... : ... .. . ... ... ... : ... .. . ... : ... .. A ... : ... .. . ... ...
ROW 93 : ... .. D ... ... ... : ... .. . ... ... ... : ... .. . ... : ... .. 9 ... : ... .. . ... ...
ROW 94 : ... .. C ... ... ... : ... .. . ... ... ... : ... .. . ... : ... .. 7 ... : ... .. . ... ...
ROW 95 : ... .. . ... ... ... : ... .. . ... ... ... : ... .. . ... : ... .. 5 ... : ... .. . ... ...
ROW 96 : ... .. B ... ... ... : ... .. . ... ... ... : ... .. . ... : ... .. 4 ... : ... .. . ... ...
ROW 97 : ... .. A ... ... ... : ... .. . ... ... ... : ... .. . ... : ... .. 2 ... : ... .. . ... ...
ROW 98 : ... .. . ... ... ... : ... .. . ... ... ... : ... .. . ... : ... .. 0 ... : ... .. . ... ...
ROW 99 : ... .. 9 ... ... ... : ... .. . ... ... ... : ... .. . ... : ... .. . ... : ... .. . ... ...
ROW 9A : ... .. . ... ... ... : ... .. . ... ... ... : ... .. . ... : ... .. . ... : ... .. . ... ...
ROW 9B : ... .. F ... V03 ... : ... .. . ... ... ... : ... .. . ... : ... .. . ... : ... .. . ... ...
ROW 9C : ... .. . ... V01 ... : ... .. . ... ... ... : ... .. . ... : ... .. . ... : ... .. . ... ...
ROW 9D : ... .. E ... V02 ... : ... .. . ... ... ... : ... .. . ... : ... .. . ... : ... .. . ... ...
ROW 9E : ... .. . ... ... ... : ... .. . ... ... ... : ... .. . ... : ... .. . ... : ... .. . ... ...
ROW 9F : ... .. D ... ... ... : ... .. . ... ... ... : ... .. . ... : ... .. . ... : ... .. . ... ...
ROW A0 : ... .. C ... ... ... : ... .. . ... ... ... : ... .. . ... : ... .. . ... : ... .. . ... ...
ROW A1 : ... .. . ... ... ... : ... .. . ... ... ... : ... .. . ... : ... .. . ... : ... .. . ... ...
ROW A2 : ... .. B ... ... ... : ... .. . ... ... ... : ... .. . ... : ... .. . ... : ... .. . ... ...
ROW A3 : ... .. A ... ... ... : ... .. . ... ... ... : ... .. . ... : ... .. . ... : ... .. . ... ...
ROW A4 : ... .. . ... ... ... : ... .. . ... ... ... : ... .. . ... : ... .. . ... : ... .. . ... ...
ROW A5 : ... .. 9 ... ... ... : ... .. . ... ... ... : ... .. . ... : ... .. . ... : ... .. . ... ...
ROW A6 : ... .. . ... ... ... : ... .. . ... ... ... : ... .. . ... : ... .. . ... : ... .. . ... ...
ROW A7 : G-2 00 F ... V03 ... : ... .. . ... ... ... : ... .. . ... : 4-# 00 F ... : ... .. . ... ...
ROW A8 : ... .. . ... V01 ... : ... .. . ... ... ... : ... .. . ... : ... .. E ... : ... .. . ... ...
ROW A9 : ... .. E ... V02 ... : ... .. . ... ... ... : ... .. . ... : ... .. C ... : ... .. . ... ...
ROW AA : ... .. . ... ... ... : ... .. . ... ... ... : ... .. . ... : ... .. A ... : ... .. . ... ...
ROW AB : ... .. D ... ... ... : ... .. . ... ... ... : ... .. . ... : ... .. 9 ... : ... .. . ... ...
ROW AC : ... .. C ... ... ... : ... .. . ... ... ... : ... .. . ... : ... .. 7 ... : ... .. . ... ...
ROW AD : ... .. . ... ... ... : ... .. . ... ... ... : ... .. . ... : ... .. 5 ... : ... .. . ... ...
ROW AE : ... .. B ... ... ... : ... .. . ... ... ... : ... .. . ... : ... .. 4 ... : ... .. . ... ...
ROW AF : ... .. A ... ... ... : ... .. . ... ... ... : ... .. . ... : ... .. 2 ... : ... .. . ... ...
ROW B0 : ... .. . ... ... ... : ... .. . ... ... ... : ... .. . ... : ... .. 0 ... : ... .. . ... ...
ROW B1 : ... .. 9 ... ... ... : ... .. . ... ... ... : ... .. . ... : ... .. . ... : ... .. . ... ...
ROW B2 : ... .. . ... ... ... : ... .. . ... ... ... : ... .. . ... : ... .. . ... : ... .. . ... ...
ROW B3 : G-1 00 F ... V03 ... : ... .. . ... ... ... : ... .. . ... : ... .. . ... : ... .. . ... ...
ROW B4 : ... .. . ... V01 ... : ... .. . ... ... ... : ... .. . ... : ... .. . ... : ... .. . ... ...
ROW B5 : ... .. E ... V02 ... : ... .. . ... ... ... : ... .. . ... : ... .. . ... : ... .. . ... ...
ROW B6 : ... .. . ... ... ... : ... .. . ... ... ... : ... .. . ... : ... .. . ... : ... .. . ... ...
ROW B7 : ... .. D ... ... ... : ... .. . ... ... ... : ... .. . ... : ... .. . ... : ... .. . ... ...
ROW B8 : ... .. C ... ... ... : ... .. . ... ... ... : ... .. . ... : ... .. . ... : ... .. . ... ...
ROW B9 : ... .. . ... ... ... : ... .. . ... ... ... : ... .. . ... : ... .. . ... : ... .. . ... ...
ROW BA : ... .. B ... ... ... : ... .. . ... ... ... : ... .. . ... : ... .. . ... : ... .. . ... ...
ROW BB : ... .. A ... ... ... : ... .. . ... ... ... : ... .. . ... : ... .. . ... : ... .. . ... ...
ROW BC : ... .. . ... ... ... : ... .. . ... ... ... : ... .. . ... : ... .. . ... : ... .. . ... ...
ROW BD : ... .. 9 ... ... ... : ... .. . ... ... ... : ... .. . ... : ... .. . ... : ... .. . ... ...
ROW BE : ... .. . ... ... ... : ... .. . ... ... ... : ... .. . ... : ... .. . ... : ... .. . ... ...
ROW BF : A-1 00 F ... V03 ... : ... .. . ... ... ... : ... .. . ... : 0-# 00 F ... : ... .. . ... ...
ROW C0 : ... .. . ... V01 ... : ... .. . ... ... ... : ... .. . ... : ... .. E ... : ... .. . ... ...
ROW C1 : ... .. E ... V02 ... : ... .. . ... ... ... : ... .. . ... : ... .. C ... : ... .. . ... ...
ROW C2 : ... .. . ... ... ... : ... .. . ... ... ... : ... .. . ... : ... .. A ... : ... .. . ... ...
ROW C3 : ... .. D ... ... ... : ... .. . ... ... ... : ... .. . ... : ... .. 9 ... : ... .. . ... ...
ROW C4 : ... .. C ... ... ... : ... .. . ... ... ... : ... .. . ... : ... .. 7 ... : ... .. . ... ...
ROW C5 : ... .. . ... ... ... : ... .. . ... ... ... : ... .. . ... : ... .. 5 ... : ... .. . ... ...
ROW C6 : ... .. B ... ... ... : ... .. . ... ... ... : ... .. . ... : ... .. 4 ... : ... .. . ... ...
ROW C7 : ... .. A ... ... ... : ... .. . ... ... ... : ... .. . ... : ... .. 2 ... : ... .. . ... ...
ROW C8 : ... .. . ... ... ... : ... .. . ... ... ... : ... .. . ... : ... .. 0 ... : ... .. . ... ...
ROW C9 : ... .. 9 ... ... ... : ... .. . ... ... ... : ... .. . ... : ... .. . ... : ... .. . ... ...
ROW CA : ... .. . ... ... ... : ... .. . ... ... ... : ... .. . ... : ... .. . ... : ... .. . ... ...
ROW CB : ... .. F ... V03 ... : ... .. . ... ... ... : ... .. . ... : ... .. . ... : ... .. . ... ...
ROW CC : ... .. . ... V01 ... : ... .. . ... ... ... : ... .. . ... : ... .. . ... : ... .. . ... ...
ROW CD : ... .. E ... V02 ... : ... .. . ... ... ... : ... .. . ... : ... .. . ... : ... .. . ... ...
ROW CE : ... .. . ... ... ... : ... .. . ... ... ... : ... .. . ... : ... .. . ... : ... .. . ... ...
ROW CF : ... .. D ... ... ... : ... .. . ... ... ... : ... .. . ... : ... .. . ... : ... .. . ... ...
ROW D0 : ... .. C ... ... ... : ... .. . ... ... ... : ... .. . ... : ... .. . ... : ... .. . ... ...
ROW D1 : ... .. . ... ... ... : ... .. . ... ... ... : ... .. . ... : ... .. . ... : ... .. . ... ...
ROW D2 : ... .. B ... ... ... : ... .. . ... ... ... : ... .. . ... : ... .. . ... : ... .. . ... ...
ROW D3 : ... .. A ... ... ... : ... .. . ... ... ... : ... .. . ... : ... .. . ... : ... .. . ... ...
ROW D4 : ... .. . ... ... ... : ... .. . ... ... ... : ... .. . ... : ... .. . ... : ... .. . ... ...
ROW D5 : ... .. 9 ... ... ... : ... .. . ... ... ... : ... .. . ... : ... .. . ... : ... .. . ... ...
ROW D6 : ... .. . ... ... ... : ... .. . ... ... ... : ... .. . ... : ... .. . ... : ... .. . ... ...
ROW D7 : A-2 00 F P7F V03 ... : ... .. . ... ... ... : ... .. . ... : 4-# 00 F ... : ... .. . ... ...
ROW D8 : ... .. . ... V01 ... : ... .. . ... ... ... : ... .. . ... : ... .. E ... : ... .. . ... ...
ROW D9 : ... .. E ... V02 ... : ... .. . ... ... ... : ... .. . ... : ... .. C ... : ... .. . ... ...
ROW DA : ... .. . ... ... ... : ... .. . ... ... ... : ... .. . ... : ... .. A ... : ... .. . ... ...
ROW DB : ... .. D ... ... ... : ... .. . ... ... ... : ... .. . ... : ... .. 9 ... : ... .. . ... ...
ROW DC : ... .. C ... ... ... : ... .. . ... ... ... : ... .. . ... : ... .. 7 ... : ... .. . ... ...
ROW DD : ... .. . ... ... ... : ... .. . ... ... ... : ... .. . ... : ... .. 5 ... : ... .. . ... ...
ROW DE : ... .. B ... ... ... : ... .. . ... ... ... : ... .. . ... : ... .. 4 ... : ... .. . ... ...
ROW DF : ... .. A ... ... ... : ... .. . ... ... ... : ... .. . ... : ... .. 2 ... : ... .. . ... ...
ROW E0 : ... .. . ... ... ... : ... .. . ... ... ... : ... .. . ... : ... .. 0 ... : ... .. . ... ...
ROW E1 : ... .. 9 ... ... ... : ... .. . ... ... ... : ... .. . ... : ... .. . ... : ... .. . ... ...
ROW E2 : ... .. . ... ... ... : ... .. . ... ... ... : ... .. . ... : ... .. . ... : ... .. . ... ...
ROW E3 : A-1 00 F P80 V03 ... : ... .. . ... ... ... : ... .. . ... : ... .. . ... : ... .. . ... ...
ROW E4 : ... .. . ... V01 ... : ... .. . ... ... ... : ... .. . ... : ... .. . ... : ... .. . ... ...
ROW E5 : ... .. E ... V02 ... : ... .. . ... ... ... : ... .. . ... : ... .. . ... : ... .. . ... ...
ROW E6 : ... .. . ... ... ... : ... .. . ... ... ... : ... .. . ... : ... .. . ... : ... .. . ... ...
ROW E7 : ... .. D ... ... ... : ... .. . ... ... ... : ... .. . ... : ... .. . ... : ... .. . ... ...
ROW E8 : ... .. C ... ... ... : ... .. . ... ... ... : ... .. . ... : ... .. . ... : ... .. . ... ...
ROW E9 : ... .. . ... ... ... : ... .. . ... ... ... : ... .. . ... : ... .. . ... : ... .. . ... ...
ROW EA : ... .. B ... ... ... : ... .. . ... ... ... : ... .. . ... : ... .. . ... : ... .. . ... ...
ROW EB : ... .. A ... ... ... : ... .. . ... ... ... : ... .. . ... : ... .. . ... : ... .. . ... ...
ROW EC : ... .. . ... ... ... : ... .. . ... ... ... : ... .. . ... : ... .. . ... : ... .. . ... ...
ROW ED : ... .. 9 ... ... ... : ... .. . ... ... ... : ... .. . ... : ... .. . ... : ... .. . ... ...
ROW EE : ... .. . ... ... ... : ... .. . ... ... ... : ... .. . ... : ... .. . ... : ... .. . ... ...
ROW EF : ... .. F ... V03 ... : ... .. . ... ... ... : ... .. . ... : 0-# 00 F ... : ... .. . ... ...
ROW F0 : ... .. . ... V01 ... : ... .. . ... ... ... : ... .. . ... : ... .. E ... : ... .. . ... ...
ROW F1 : ... .. E ... V02 ... : ... .. . ... ... ... : ... .. . ... : ... .. C ... : ... .. . ... ...
ROW F2 : ... .. . ... ... ... : ... .. . ... ... ... : ... .. . ... : ... .. A ... : ... .. . ... ...
ROW F3 : ... .. D ... ... ... : ... .. . ... ... ... : ... .. . ... : ... .. 9 ... : ... .. . ... ...
ROW F4 : ... .. C ... ... ... : ... .. . ... ... ... : ... .. . ... : ... .. 7 ... : ... .. . ... ...
ROW F5 : ... .. . ... ... ... : ... .. . ... ... ... : ... .. . ... : ... .. 5 ... : ... .. . ... ...
ROW F6 : ... .. B ... ... ... : ... .. . ... ... ... : ... .. . ... : ... .. 4 ... : ... .. . ... ...
ROW F7 : ... .. A ... ... ... : ... .. . ... ... ... : ... .. . ... : ... .. 2 ... : ... .. . ... ...
ROW F8 : ... .. . ... ... ... : ... .. . ... ... ... : ... .. . ... : ... .. 0 ... : ... .. . ... ...
ROW F9 : ... .. 9 ... ... ... : ... .. . ... ... ... : ... .. . ... : ... .. . ... : ... .. . ... ...
ROW FA : ... .. . ... ... ... : ... .. . ... ... ... : ... .. . ... : ... .. . ... : ... .. . ... ...
ROW FB : ... .. F ... V03 ... : ... .. . ... ... ... : ... .. . ... : ... .. . ... : ... .. . ... ...
ROW FC : ... .. . ... V01 ... : ... .. . ... ... ... : ... .. . ... : ... .. . ... : ... .. . ... ...
ROW FD : ... .. E ... V02 ... : ... .. . ... ... ... : ... .. . ... : ... .. . ... : ... .. . ... ...
ROW FE : ... .. . ... ... ... : ... .. . ... ... ... : ... .. . ... : ... .. . ... : ... .. . ... ...
ROW FF : ... .. D ... ... ... : ... .. . ... ... ... : ... .. . ... : ... .. . ... : ... .. . ... ...

PATTERN 04
ROW 00 : ... .. C ... ... ... : ... .. . ... ... ... : ... .. . ... : ... .. . ... : ... .. . ... ...
ROW 01 : ... .. . ... ... ... : ... .. . ... ... ... : ... .. . ... : ... .. . ... : ... .. . ... ...
ROW 02 : ... .. B ... ... ... : ... .. . ... ... ... : ... .. . ... : ... .. . ... : ... .. . ... ...
ROW 03 : ... .. A ... ... ... : ... .. . ... ... ... : ... .. . ... : ... .. . ... : ... .. . ... ...
ROW 04 : ... .. . ... ... ... : ... .. . ... ... ... : ... .. . ... : ... .. . ... : ... .. . ... ...
ROW 05 : ... .. 9 ... ... ... : ... .. . ... ... ... : ... .. . ... : ... .. . ... : ... .. . ... ...
ROW 06 : ... .. . ... ... ... : ... .. . ... ... ... : ... .. . ... : ... .. . ... : ... .. . ... ...
ROW 07 : A-2 00 F P7F V03 ... : ... .. . ... ... ... : ... .. . ... : 4-# 00 F ... : ... .. . ... ...
ROW 08 : ... .. . ... V01 ... : ... .. . ... ... ... : ... .. . ... : ... .. E ... : ... .. . ... ...
ROW 09 : ... .. E ... V02 ... : ... .. . ... ... ... : ... .. . ... : ... .. C ... : ... .. . ... ...
ROW 0A : ... .. . ... ... ... : ... .. . ... ... ... : ... .. . ... : ... .. A ... : ... .. . ... ...
ROW 0B : ... .. D ... ... ... : ... .. . ... ... ... : ... .. . ... : ... .. 9 ... : ... .. . ... ...
ROW 0C : ... .. C ... ... ... : ... .. . ... ... ... : ... .. . ... : ... .. 7 ... : ... .. . ... ...
ROW 0D : ... .. . ... ... ... : ... .. . ... ... ... : ... .. . ... : ... .. 5 ... : ... .. . ... ...
ROW 0E : ... .. B ... ... ... : ... .. . ... ... ... : ... .. . ... : ... .. 4 ... : ... .. . ... ...
ROW 0F : ... .. A ... ... ... : ... .. . ... ... ... : ... .. . ... : ... .. 2 ... : ... .. . ... ...
ROW 10 : ... .. . ... ... ... : ... .. . ... ... ... : ... .. . ... : ... .. 0 ... : ... .. . ... ...
ROW 11 : ... .. 9 ... ... ... : ... .. . ... ... ... : ... .. . ... : ... .. . ... : ... .. . ... ...
ROW 12 : ... .. . ... ... ... : ... .. . ... ... ... : ... .. . ... : ... .. . ... : ... .. . ... ...
ROW 13 : A-1 00 F P80 V03 ... : ... .. . ... ... ... : ... .. . ... : ... .. . ... : ... .. . ... ...
ROW 14 : ... .. . ... V01 ... : ... .. . ... ... ... : ... .. . ... : ... .. . ... : ... .. . ... ...
ROW 15 : ... .. E ... V02 ... : ... .. . ... ... ... : ... .. . ... : ... .. . ... : ... .. . ... ...
ROW 16 : ... .. . ... ... ... : ... .. . ... ... ... : ... .. . ... : ... .. . ... : ... .. . ... ...
ROW 17 : ... .. D ... ... ... : ... .. . ... ... ... : ... .. . ... : ... .. . ... : ... .. . ... ...
ROW 18 : ... .. C ... ... ... : ... .. . ... ... ... : ... .. . ... : ... .. . ... : ... .. . ... ...
ROW 19 : ... .. . ... ... ... : ... .. . ... ... ... : ... .. . ... : ... .. . ... : ... .. . ... ...
ROW 1A : ... .. B ... ... ... : ... .. . ... ... ... : ... .. . ... : ... .. . ... : ... .. . ... ...
ROW 1B : ... .. A ... ... ... : ... .. . ... ... ... : ... .. . ... : ... .. . ... : ... .. . ... ...
ROW 1C : ... .. . ... ... ... : ... .. . ... ... ... : ... .. . ... : ... .. . ... : ... .. . ... ...
ROW 1D : ... .. 9 ... ... ... : ... .. . ... ... ... : ... .. . ... : ... .. . ... : ... .. . ... ...
ROW 1E : ... .. . ... ... ... : ... .. . ... ... ... : ... .. . ... : ... .. . ... : ... .. . ... ...
ROW 1F : ... .. F ... V03 ... : ... .. . ... ... ... : ... .. . ... : 0-# 00 F ... : ... .. . ... ...
ROW 20 : ... .. . ... V01 ... : ... .. . ... ... ... : ... .. . ... : ... .. E ... : ... .. . ... ...
ROW 21 : ... .. E ... V02 ... : ... .. . ... ... ... : ... .. . ... : ... .. C ... : ... .. . ... ...
ROW 22 : ... .. . ... ... ... : ... .. . ... ... ... : ... .. . ... : ... .. A ... : ... .. . ... ...
ROW 23 : ... .. D ... ... ... : ... .. . ... ... ... : ... .. . ... : ... .. 9 ... : ... .. . ... ...
ROW 24 : ... .. C ... ... ... : ... .. . ... ... ... : ... .. . ... : ... .. 7 ... : ... .. . ... ...
ROW 25 : ... .. . ... ... ... : ... .. . ... ... ... : ... .. . ... : ... .. 5 ... : ... .. . ... ...
ROW 26 : ... .. B ... ... ... : ... .. . ... ... ... : ... .. . ... : ... .. 4 ... : ... .. . ... ...
ROW 27 : ... .. A ... ... ... : ... .. . ... ... ... : ... .. . ... : ... .. 2 ... : ... .. . ... ...
ROW 28 : ... .. . ... ... ... : ... .. . ... ... ... : ... .. . ... : ... .. 0 ... : ... .. . ... ...
ROW 29 : ... .. 9 ... ... ... : ... .. . ... ... ... : ... .. . ... : ... .. . ... : ... .. . ... ...
ROW 2A : ... .. . ... ... ... : ... .. . ... ... ... : ... .. . ... : ... .. . ... : ... .. . ... ...
ROW 2B : ... .. F ... V03 ... : ... .. . ... ... ... : ... .. . ... : ... .. . ... : ... .. . ... ...
ROW 2C : ... .. . ... V01 ... : ... .. . ... ... ... : ... .. . ... : ... .. . ... : ... .. . ... ...
ROW 2D : ... .. E ... V02 ... : ... .. . ... ... ... : ... .. . ... : ... .. . ... : ... .. . ... ...
ROW 2E : ... .. . ... ... ... : ... .. . ... ... ... : ... .. . ... : ... .. . ... : ... .. . ... ...
ROW 2F : ... .. D ... ... ... : ... .. . ... ... ... : ... .. . ... : ... .. . ... : ... .. . ... ...
ROW 30 : ... .. C ... ... ... : ... .. . ... ... ... : ... .. . ... : ... .. . ... : ... .. . ... ...
ROW 31 : ... .. . ... ... ... : ... .. . ... ... ... : ... .. . ... : ... .. . ... : ... .. . ... ...
ROW 32 : ... .. B ... ... ... : ... .. . ... ... ... : ... .. . ... : ... .. . ... : ... .. . ... ...
ROW 33 : ... .. A ... ... ... : ... .. . ... ... ... : ... .. . ... : ... .. . ... : ... .. . ... ...
ROW 34 : ... .. . ... ... ... : ... .. . ... ... ... : ... .. . ... : ... .. . ... : ... .. . ... ...
ROW 35 : ... .. 9 ... ... ... : ... .. . ... ... ... : ... .. . ... : ... .. . ... : ... .. . ... ...
ROW 36 : ... .. . ... ... ... : ... .. . ... ... ... : ... .. . ... : ... .. . ... : ... .. . ... ...
ROW 37 : A-2 00 F P7F V03 ... : ... .. . ... ... ... : ... .. . ... : 4-# 00 F ... : ... .. . ... ...
ROW 38 : ... .. . ... V01 ... : ... .. . ... ... ... : ... .. . ... : ... .. E ... : ... .. . ... ...
ROW 39 : ... .. E ... V02 ... : ... .. . ... ... ... : ... .. . ... : ... .. C ... : ... .. . ... ...
ROW 3A : ... .. . ... ... ... : ... .. . ... ... ... : ... .. . ... : ... .. A ... : ... .. . ... ...
ROW 3B : ... .. D ... ... ... : ... .. . ... ... ... : ... .. . ... : ... .. 9 ... : ... .. . ... ...
ROW 3C : ... .. C ... ... ... : ... .. . ... ... ... : ... .. . ... : ... .. 7 ... : ... .. . ... ...
ROW 3D : ... .. . ... ... ... : ... .. . ... ... ... : ... .. . ... : ... .. 5 ... : ... .. . ... ...
ROW 3E : ... .. B ... ... ... : ... .. . ... ... ... : ... .. . ... : ... .. 4 ... : ... .. . ... ...
ROW 3F : ... .. A ... ... ... : ... .. . ... ... ... : ... .. . ... : ... .. 2 ... : ... .. . ... ...
ROW 40 : ... .. . ... ... ... : ... .. . ... ... ... : ... .. . ... : ... .. 0 ... : ... .. . ... ...
ROW 41 : ... .. 9 ... ... ... : ... .. . ... ... ... : ... .. . ... : ... .. . ... : ... .. . ... ...
ROW 42 : ... .. . ... ... ... : ... .. . ... ... ... : ... .. . ... : ... .. . ... : ... .. . ... ...
ROW 43 : A-1 00 F P80 V03 ... : ... .. . ... ... ... : ... .. . ... : ... .. . ... : ... .. . ... ...
ROW 44 : ... .. . ... V01 ... : ... .. . ... ... ... : ... .. . ... : ... .. . ... : ... .. . ... ...
ROW 45 : ... .. E ... V02 ... : ... .. . ... ... ... : ... .. . ... : ... .. . ... : ... .. . ... ...
ROW 46 : ... .. . ... ... ... : ... .. . ... ... ... : ... .. . ... : ... .. . ... : ... .. . ... ...
ROW 47 : ... .. D ... ... ... : ... .. . ... ... ... : ... .. . ... : ... .. . ... : ... .. . ... ...
ROW 48 : ... .. C ... ... ... : ... .. . ... ... ... : ... .. . ... : ... .. . ... : ... .. . ... ...
ROW 49 : ... .. . ... ... ... : ... .. . ... ... ... : ... .. . ... : ... .. . ... : ... .. . ... ...
ROW 4A : ... .. B ... ... ... : ... .. . ... ... ... : ... .. . ... : ... .. . ... : ... .. . ... ...
ROW 4B : ... .. A ... ... ... : ... .. . ... ... ... : ... .. . ... : ... .. . ... : ... .. . ... ...
ROW 4C : ... .. . ... ... ... : ... .. . ... ... ... : ... .. . ... : ... .. . ... : ... .. . ... ...
ROW 4D : ... .. 9 ... ... ... : ... .. . ... ... ... : ... .. . ... : ... .. . ... : ... .. . ... ...
ROW 4E : ... .. . ... ... ... : ... .. . ... ... ... : ... .. . ... : ... .. . ... : ... .. . ... ...
ROW 4F : G-1 00 F ... V03 ... : ... .. . ... ... ... : ... .. . ... : 0-# 00 F ... : ... .. . ... ...
ROW 50 : ... .. . ... V01 ... : ... .. . ... ... ... : ... .. . ... : ... .. E ... : ... .. . ... ...
ROW 51 : ... .. E ... V02 ... : ... .. . ... ... ... : ... .. . ... : ... .. C ... : ... .. . ... ...
ROW 52 : ... .. . ... ... ... : ... .. . ... ... ... : ... .. . ... : ... .. A ... : ... .. . ... ...
ROW 53 : ... .. D ... ... ... : ... .. . ... ... ... : ... .. . ... : ... .. 9 ... : ... .. . ... ...
ROW 54 : ... .. C ... ... ... : ... .. . ... ... ... : ... .. . ... : ... .. 7 ... : ... .. . ... ...
ROW 55 : ... .. . ... ... ... : ... .. . ... ... ... : ... .. . ... : ... .. 5 ... : ... .. . ... ...
ROW 56 : ... .. B ... ... ... : ... .. . ... ... ... : ... .. . ... : ... .. 4 ... : ... .. . ... ...
ROW 57 : ... .. A ... ... ... : ... .. . ... ... ... : ... .. . ... : ... .. 2 ... : ... .. . ... ...
ROW 58 : ... .. . ... ... ... : ... .. . ... ... ... : ... .. . ... : ... .. 0 ... : ... .. . ... ...
ROW 59 : ... .. 9 ... ... ... : ... .. . ... ... ... : ... .. . ... : ... .. . ... : ... .. . ... ...
ROW 5A : ... .. . ... ... ... : ... .. . ... ... ... : ... .. . ... : ... .. . ... : ... .. . ... ...
ROW 5B : ... .. F ... V03 ... : ... .. . ... ... ... : ... .. . ... : ... .. . ... : ... .. . ... ...
ROW 5C : ... .. . ... V01 ... : ... .. . ... ... ... : ... .. . ... : ... .. . ... : ... .. . ... ...
ROW 5D : ... .. E ... V02 ... : ... .. . ... ... ... : ... .. . ... : ... .. . ... : ... .. . ... ...
ROW 5E : ... .. . ... ... ... : ... .. . ... ... ... : ... .. . ... : ... .. . ... : ... .. . ... ...
ROW 5F : ... .. D ... ... ... : ... .. . ... ... ... : ... .. . ... : ... .. . ... : ... .. . ... ...
ROW 60 : ... .. C ... ... ... : ... .. . ... ... ... : ... .. . ... : ... .. . ... : ... .. . ... ...
ROW 61 : ... .. . ... ... ... : ... .. . ... ... ... : ... .. . ... : ... .. . ... : ... .. . ... ...
ROW 62 : ... .. B ... ... ... : ... .. . ... ... ... : ... .. . ... : ... .. . ... : ... .. . ... ...
ROW 63 : ... .. A ... ... ... : ... .. . ... ... ... : ... .. . ... : ... .. . ... : ... .. . ... ...
ROW 64 : ... .. . ... ... ... : ... .. . ... ... ... : ... .. . ... : ... .. . ... : ... .. . ... ...
ROW 65 : ... .. 9 ... ... ... : ... .. . ... ... ... : ... .. . ... : ... .. . ... : ... .. . ... ...
ROW 66 : ... .. . ... ... ... : ... .. . ... ... ... : ... .. . ... : ... .. . ... : ... .. . ... ...
ROW 67 : G-2 00 F ... V03 ... : ... .. . ... ... ... : ... .. . ... : 4-# 00 F ... : ... .. . ... ...
ROW 68 : ... .. . ... V01 ... : ... .. . ... ... ... : ... .. . ... : ... .. E ... : ... .. . ... ...
ROW 69 : ... .. E ... V02 ... : ... .. . ... ... ... : ... .. . ... : ... .. C ... : ... .. . ... ...
ROW 6A : ... .. . ... ... ... : ... .. . ... ... ... : ... .. . ... : ... .. A ... : ... .. . ... ...
ROW 6B : ... .. D ... ... ... : ... .. . ... ... ... : ... .. . ... : ... .. 9 ... : ... .. . ... ...
ROW 6C : ... .. C ... ... ... : ... .. . ... ... ... : ... .. . ... : ... .. 7 ... : ... .. . ... ...
ROW 6D : ... .. . ... ... ... : ... .. . ... ... ... : ... .. . ... : ... .. 5 ... : ... .. . ... ...
ROW 6E : ... .. B ... ... ... : ... .. . ... ... ... : ... .. . ... : ... .. 4 ... : ... .. . ... ...
ROW 6F : ... .. A ... ... ... : ... .. . ... ... ... : ... .. . ... : ... .. 2 ... : ... .. . ... ...
ROW 70 : ... .. . ... ... ... : ... .. . ... ... ... : ... .. . ... : ... .. 0 ... : ... .. . ... ...
ROW 71 : ... .. 9 ... ... ... : ... .. . ... ... ... : ... .. . ... : ... .. . ... : ... .. . ... ...
ROW 72 : ... .. . ... ... ... : ... .. . ... ... ... : ... .. . ... : ... .. . ... : ... .. . ... ...
ROW 73 : G-1 00 F ... V03 ... : ... .. . ... ... ... : ... .. . ... : ... .. F ... : ... .. . ... ...
ROW 74 : ... .. . ... V01 ... : ... .. . ... ... ... : ... .. . ... : ... .. E ... : ... .. . ... ...
ROW 75 : ... .. E ... V02 ... : ... .. . ... ... ... : ... .. . ... : ... .. C ... : ... .. . ... ...
ROW 76 : ... .. . ... ... ... : ... .. . ... ... ... : ... .. . ... : ... .. A ... : ... .. . ... ...
ROW 77 : ... .. D ... ... ... : ... .. . ... ... ... : ... .. . ... : ... .. 9 ... : ... .. . ... ...
ROW 78 : ... .. C ... ... ... : ... .. . ... ... ... : ... .. . ... : ... .. 7 ... : ... .. . ... ...
ROW 79 : ... .. . ... ... ... : ... .. . ... ... ... : ... .. . ... : ... .. F ... : ... .. . ... ...
ROW 7A : ... .. B ... ... ... : ... .. . ... ... ... : ... .. . ... : ... .. E ... : ... .. . ... ...
ROW 7B : ... .. A ... ... ... : ... .. . ... ... ... : ... .. . ... : ... .. C ... : ... .. . ... ...
ROW 7C : ... .. . ... ... ... : ... .. . ... ... ... : ... .. . ... : ... .. A ... : ... .. . ... ...
ROW 7D : ... .. 9 ... ... ... : ... .. . ... ... ... : ... .. . ... : ... .. 9 ... : ... .. . ... ...
ROW 7E : ... .. . ... ... ... : ... .. . ... ... ... : ... .. . ... : ... .. 7 ... : ... .. . ... ...
ROW 7F : A-1 00 F ... V03 ... : A-3 00 F P7F ... ... : ... .. . ... : 0-# 00 F ... : ... .. . ... ...
ROW 80 : ... .. . ... V01 ... : ... .. . ... ... ... : ... .. . ... : ... .. E ... : ... .. . ... ...
ROW 81 : ... .. E ... V02 ... : ... .. . ... ... ... : ... .. . ... : ... .. C ... : ... .. . ... ...
ROW 82 : ... .. . ... ... ... : ... .. . ... ... ... : ... .. . ... : ... .. A ... : ... .. . ... ...
ROW 83 : ... .. D ... ... ... : ... .. E ... ... ... : ... .. . ... : ... .. 9 ... : ... .. . ... ...
ROW 84 : ... .. C ... ... ... : ... .. . ... ... ... : ... .. . ... : ... .. 7 ... : ... .. . ... ...
ROW 85 : ... .. . ... ... ... : ... .. . ... ... ... : ... .. . ... : ... .. 5 ... : ... .. . ... ...
ROW 86 : ... .. B ... ... ... : ... .. D ... ... ... : ... .. . ... : ... .. 4 ... : ... .. . ... ...
ROW 87 : ... .. A ... ... ... : ... .. . ... ... ... : ... .. . ... : ... .. 2 ... : ... .. . ... ...
ROW 88 : ... .. . ... ... ... : ... .. . ... ... ... : ... .. . ... : ... .. 0 ... : ... .. . ... ...
ROW 89 : ... .. 9 ... ... ... : ... .. C ... ... ... : ... .. . ... : ... .. . ... : ... .. . ... ...
ROW 8A : ... .. . ... ... ... : ... .. . ... ... ... : ... .. . ... : ... .. . ... : ... .. . ... ...
ROW 8B : ... .. F ... V03 ... : A-2 00 F ... ... ... : ... .. . ... : F-# 00 F ... : ... .. . ... ...
ROW 8C : ... .. . ... V01 ... : ... .. . ... ... ... : ... .. . ... : ... .. E ... : ... .. . ... ...
ROW 8D : ... .. E ... V02 ... : ... .. . ... ... ... : ... .. . ... : ... .. C ... : ... .. . ... ...
ROW 8E : ... .. . ... ... ... : ... .. . ... ... ... : ... .. . ... : ... .. A ... : ... .. . ... ...
ROW 8F : ... .. D ... ... ... : ... .. E ... ... ... : ... .. . ... : ... .. 9 ... : ... .. . ... ...
ROW 90 : ... .. C ... ... ... : ... .. . ... ... ... : ... .. . ... : ... .. 7 ... : ... .. . ... ...
ROW 91 : ... .. . ... ... ... : ... .. . ... ... ... : ... .. . ... : ... .. 5 ... : ... .. . ... ...
ROW 92 : ... .. B ... ... ... : ... .. D ... ... ... : ... .. . ... : ... .. 4 ... : ... .. . ... ...
ROW 93 : ... .. A ... ... ... : ... .. . ... ... ... : ... .. . ... : ... .. 2 ... : ... .. . ... ...
ROW 94 : ... .. . ... ... ... : ... .. . ... ... ... : ... .. . ... : ... .. 0 ... : ... .. . ... ...
ROW 95 : ... .. 9 ... ... ... : ... .. C ... ... ... : ... .. . ... : ... .. . ... : ... .. . ... ...
ROW 96 : ... .. . ... ... ... : ... .. . ... ... ... : ... .. . ... : ... .. . ... : ... .. . ... ...
ROW 97 : A-2 00 F P7F V03 ... : ... .. F ... ... ... : ... .. . ... : 4-# 00 F ... : ... .. . ... ...
ROW 98 : ... .. . ... V01 ... : ... .. . ... ... ... : ... .. . ... : ... .. E ... : ... .. . ... ...
ROW 99 : ... .. E ... V02 ... : ... .. . ... ... ... : ... .. . ... : ... .. C ... : ... .. . ... ...
ROW 9A : ... .. . ... ... ... : ... .. . ... ... ... : ... .. . ... : ... .. A ... : ... .. . ... ...
ROW 9B : ... .. D ... ... ... : ... .. E ... ... ... : ... .. . ... : ... .. 9 ... : ... .. . ... ...
ROW 9C : ... .. C ... ... ... : ... .. . ... ... ... : ... .. . ... : ... .. 7 ... : ... .. . ... ...
ROW 9D : ... .. . ... ... ... : ... .. . ... ... ... : ... .. . ... : ... .. 5 ... : ... .. . ... ...
ROW 9E : ... .. B ... ... ... : ... .. D ... ... ... : ... .. . ... : ... .. 4 ... : ... .. . ... ...
ROW 9F : ... .. A ... ... ... : ... .. . ... ... ... : ... .. . ... : ... .. 2 ... : ... .. . ... ...
ROW A0 : ... .. . ... ... ... : ... .. . ... ... ... : ... .. . ... : ... .. 0 ... : ... .. . ... ...
ROW A1 : ... .. 9 ... ... ... : ... .. C ... ... ... : ... .. . ... : ... .. . ... : ... .. . ... ...
ROW A2 : ... .. . ... ... ... : ... .. . ... ... ... : ... .. . ... : ... .. . ... : ... .. . ... ...
ROW A3 : A-1 00 F P80 V03 ... : A-3 00 F ... ... ... : ... .. . ... : F-# 00 F ... : ... .. . ... ...
ROW A4 : ... .. . ... V01 ... : ... .. . ... ... ... : ... .. . ... : ... .. E ... : ... .. . ... ...
ROW A5 : ... .. E ... V02 ... : ... .. . ... ... ... : ... .. . ... : ... .. C ... : ... .. . ... ...
ROW A6 : ... .. . ... ... ... : ... .. . ... ... ... : ... .. . ... : ... .. A ... : ... .. . ... ...
ROW A7 : ... .. D ... ... ... : ... .. E ... ... ... : ... .. . ... : ... .. 9 ... : ... .. . ... ...
ROW A8 : ... .. C ... ... ... : ... .. . ... ... ... : ... .. . ... : ... .. 7 ... : ... .. . ... ...
ROW A9 : ... .. . ... ... ... : ... .. . ... ... ... : ... .. . ... : ... .. 5 ... : ... .. . ... ...
ROW AA : ... .. B ... ... ... : ... .. D ... ... ... : ... .. . ... : ... .. 4 ... : ... .. . ... ...
ROW AB : ... .. A ... ... ... : ... .. . ... ... ... : ... .. . ... : ... .. 2 ... : ... .. . ... ...
ROW AC : ... .. . ... ... ... : ... .. . ... ... ... : ... .. . ... : ... .. 0 ... : ... .. . ... ...
ROW AD : ... .. 9 ... ... ... : ... .. C ... ... ... : ... .. . ... : ... .. . ... : ... .. . ... ...
ROW AE : ... .. . ... ... ... : ... .. . ... ... ... : ... .. . ... : ... .. . ... : ... .. . ... ...
ROW AF : ... .. F ... V03 ... : A-2 00 F ... ... ... : ... .. . ... : 0-# 00 F ... : ... .. . ... ...
ROW B0 : ... .. . ... V01 ... : ... .. . ... ... ... : ... .. . ... : ... .. E ... : ... .. . ... ...
ROW B1 : ... .. E ... V02 ... : ... .. . ... ... ... : ... .. . ... : ... .. C ... : ... .. . ... ...
ROW B2 : ... .. . ... ... ... : ... .. . ... ... ... : ... .. . ... : ... .. A ... : ... .. . ... ...
ROW B3 : ... .. D ... ... ... : ... .. E ... ... ... : ... .. . ... : ... .. 9 ... : ... .. . ... ...
ROW B4 : ... .. C ... ... ... : ... .. . ... ... ... : ... .. . ... : ... .. 7 ... : ... .. . ... ...
ROW B5 : ... .. . ... ... ... : ... .. . ... ... ... : ... .. . ... : ... .. 5 ... : ... .. . ... ...
ROW B6 : ... .. B ... ... ... : ... .. D ... ... ... : ... .. . ... : ... .. 4 ... : ... .. . ... ...
ROW B7 : ... .. A ... ... ... : ... .. . ... ... ... : ... .. . ... : ... .. 2 ... : ... .. . ... ...
ROW B8 : ... .. . ... ... ... : ... .. . ... ... ... : ... .. . ... : ... .. 0 ... : ... .. . ... ...
ROW B9 : ... .. 9 ... ... ... : ... .. C ... ... ... : ... .. . ... : ... .. . ... : ... .. . ... ...
ROW BA : ... .. . ... ... ... : ... .. . ... ... ... : ... .. . ... : ... .. . ... : ... .. . ... ...
ROW BB : ... .. F ... V03 ... : ... .. F ... ... ... : ... .. . ... : F-# 00 F ... : ... .. . ... ...
ROW BC : ... .. . ... V01 ... : ... .. . ... ... ... : ... .. . ... : ... .. E ... : ... .. . ... ...
ROW BD : ... .. E ... V02 ... : ... .. . ... ... ... : ... .. . ... : ... .. C ... : ... .. . ... ...
ROW BE : ... .. . ... ... ... : ... .. . ... ... ... : ... .. . ... : ... .. A ... : ... .. . ... ...
ROW BF : ... .. D ... ... ... : ... .. E ... ... ... : ... .. . ... : ... .. 9 ... : ... .. . ... ...
ROW C0 : ... .. C ... ... ... : ... .. . ... ... ... : ... .. . ... : ... .. 7 ... : ... .. . ... ...
ROW C1 : ... .. . ... ... ... : ... .. . ... ... ... : ... .. . ... : ... .. 5 ... : ... .. . ... ...
ROW C2 : ... .. B ... ... ... : ... .. D ... ... ... : ... .. . ... : ... .. 4 ... : ... .. . ... ...
ROW C3 : ... .. A ... ... ... : ... .. . ... ... ... : ... .. . ... : ... .. 2 ... : ... .. . ... ...
ROW C4 : ... .. . ... ... ... : ... .. . ... ... ... : ... .. . ... : ... .. 0 ... : ... .. . ... ...
ROW C5 : ... .. 9 ... ... ... : ... .. C ... ... ... : ... .. . ... : ... .. . ... : ... .. . ... ...
ROW C6 : ... .. . ... ... ... : ... .. . ... ... ... : ... .. . ... : ... .. . ... : ... .. . ... ...
ROW C7 : A-2 00 F P7F V03 ... : A-3 00 F ... ... ... : ... .. . ... : 4-# 00 F ... : ... .. . ... ...
ROW C8 : ... .. . ... V01 ... : ... .. . ... ... ... : ... .. . ... : ... .. E ... : ... .. . ... ...
ROW C9 : ... .. E ... V02 ... : ... .. . ... ... ... : ... .. . ... : ... .. C ... : ... .. . ... ...
ROW CA : ... .. . ... ... ... : ... .. . ... ... ... : ... .. . ... : ... .. A ... : ... .. . ... ...
ROW CB : ... .. D ... ... ... : ... .. E ... ... ... : ... .. . ... : ... .. 9 ... : ... .. . ... ...
ROW CC : ... .. C ... ... ... : ... .. . ... ... ... : ... .. . ... : ... .. 7 ... : ... .. . ... ...
ROW CD : ... .. . ... ... ... : ... .. . ... ... ... : ... .. . ... : ... .. 5 ... : ... .. . ... ...
ROW CE : ... .. B ... ... ... : ... .. D ... ... ... : ... .. . ... : ... .. 4 ... : ... .. . ... ...
ROW CF : ... .. A ... ... ... : ... .. . ... ... ... : ... .. . ... : ... .. 2 ... : ... .. . ... ...
ROW D0 : ... .. . ... ... ... : ... .. . ... ... ... : ... .. . ... : ... .. 0 ... : ... .. . ... ...
ROW D1 : ... .. 9 ... ... ... : ... .. C ... ... ... : ... .. . ... : ... .. . ... : ... .. . ... ...
ROW D2 : ... .. . ... ... ... : ... .. . ... ... ... : ... .. . ... : ... .. . ... : ... .. . ... ...
ROW D3 : A-1 00 F P80 V03 ... : A-2 00 F ... ... ... : ... .. . ... : F-# 00 F ... : ... .. . ... ...
ROW D4 : ... .. . ... V01 ... : ... .. . ... ... ... : ... .. . ... : ... .. E ... : ... .. . ... ...
ROW D5 : ... .. E ... V02 ... : ... .. . ... ... ... : ... .. . ... : ... .. C ... : ... .. . ... ...
ROW D6 : ... .. . ... ... ... : ... .. . ... ... ... : ... .. . ... : ... .. A ... : ... .. . ... ...
ROW D7 : ... .. D ... ... ... : ... .. E ... ... ... : ... .. . ... : ... .. 9 ... : ... .. . ... ...
ROW D8 : ... .. C ... ... ... : ... .. . ... ... ... : ... .. . ... : ... .. 7 ... : ... .. . ... ...
ROW D9 : ... .. . ... ... ... : ... .. . ... ... ... : ... .. . ... : ... .. 5 ... : ... .. . ... ...
ROW DA : ... .. B ... ... ... : ... .. D ... ... ... : ... .. . ... : ... .. 4 ... : ... .. . ... ...
ROW DB : ... .. A ... ... ... : ... .. . ... ... ... : ... .. . ... : ... .. 2 ... : ... .. . ... ...
ROW DC : ... .. . ... ... ... : ... .. . ... ... ... : ... .. . ... : ... .. 0 ... : ... .. . ... ...
ROW DD : ... .. 9 ... ... ... : ... .. C ... ... ... : ... .. . ... : ... .. . ... : ... .. . ... ...
ROW DE : ... .. . ... ... ... : ... .. . ... ... ... : ... .. . ... : ... .. . ... : ... .. . ... ...
ROW DF : ... .. F ... V03 ... : A-3 00 F ... ... ... : ... .. . ... : 0-# 00 F ... : ... .. . ... ...
ROW E0 : ... .. . ... V01 ... : ... .. . ... ... ... : ... .. . ... : ... .. E ... : ... .. . ... ...
ROW E1 : ... .. E ... V02 ... : ... .. . ... ... ... : ... .. . ... : ... .. C ... : ... .. . ... ...
ROW E2 : ... .. . ... ... ... : ... .. . ... ... ... : ... .. . ... : ... .. A ... : ... .. . ... ...
ROW E3 : ... .. D ... ... ... : ... .. E ... ... ... : ... .. . ... : ... .. 9 ... : ... .. . ... ...
ROW E4 : ... .. C ... ... ... : ... .. . ... ... ... : ... .. . ... : ... .. 7 ... : ... .. . ... ...
ROW E5 : ... .. . ... ... ... : ... .. . ... ... ... : ... .. . ... : ... .. 5 ... : ... .. . ... ...
ROW E6 : ... .. B ... ... ... : ... .. D ... ... ... : ... .. . ... : ... .. 4 ... : ... .. . ... ...
ROW E7 : ... .. A ... ... ... : ... .. . ... ... ... : ... .. . ... : ... .. 2 ... : ... .. . ... ...
ROW E8 : ... .. . ... ... ... : ... .. . ... ... ... : ... .. . ... : ... .. 0 ... : ... .. . ... ...
ROW E9 : ... .. 9 ... ... ... : ... .. C ... ... ... : ... .. . ... : ... .. . ... : ... .. . ... ...
ROW EA : ... .. . ... ... ... : ... .. . ... ... ... : ... .. . ... : ... .. . ... : ... .. . ... ...
ROW EB : ... .. F ... V03 ... : A-2 00 F ... ... ... : ... .. . ... : F-# 00 F ... : ... .. . ... ...
ROW EC : ... .. . ... V01 ... : ... .. . ... ... ... : ... .. . ... : ... .. E ... : ... .. . ... ...
ROW ED : ... .. E ... V02 ... : ... .. . ... ... ... : ... .. . ... : ... .. C ... : ... .. . ... ...
ROW EE : ... .. . ... ... ... : ... .. . ... ... ... : ... .. . ... : ... .. A ... : ... .. . ... ...
ROW EF : ... .. D ... ... ... : ... .. E ... ... ... : ... .. . ... : ... .. 9 ... : ... .. . ... ...
ROW F0 : ... .. C ... ... ... : ... .. . ... ... ... : ... .. . ... : ... .. 7 ... : ... .. . ... ...
ROW F1 : ... .. . ... ... ... : ... .. . ... ... ... : ... .. . ... : ... .. 5 ... : ... .. . ... ...
ROW F2 : ... .. B ... ... ... : ... .. D ... ... ... : ... .. . ... : ... .. 4 ... : ... .. . ... ...
ROW F3 : ... .. A ... ... ... : ... .. . ... ... ... : ... .. . ... : ... .. 2 ... : ... .. . ... ...
ROW F4 : ... .. . ... ... ... : ... .. . ... ... ... : ... .. . ... : ... .. 0 ... : ... .. . ... ...
ROW F5 : ... .. 9 ... ... ... : ... .. C ... ... ... : ... .. . ... : ... .. . ... : ... .. . ... ...
ROW F6 : ... .. . ... ... ... : ... .. . ... ... ... : ... .. . ... : ... .. . ... : ... .. . ... ...
ROW F7 : A-2 00 F P7F V03 ... : ... .. F ... ... ... : ... .. . ... : 4-# 00 F ... : ... .. . ... ...
ROW F8 : ... .. . ... V01 ... : ... .. . ... ... ... : ... .. . ... : ... .. E ... : ... .. . ... ...
ROW F9 : ... .. E ... V02 ... : ... .. . ... ... ... : ... .. . ... : ... .. C ... : ... .. . ... ...
ROW FA : ... .. . ... ... ... : ... .. . ... ... ... : ... .. . ... : ... .. A ... : ... .. . ... ...
ROW FB : ... .. D ... ... ... : ... .. E ... ... ... : ... .. . ... : ... .. 9 ... : ... .. . ... ...
ROW FC : ... .. C ... ... ... : ... .. . ... ... ... : ... .. . ... : ... .. 7 ... : ... .. . ... ...
ROW FD : ... .. . ... ... ... : ... .. . ... ... ... : ... .. . ... : ... .. 5 ... : ... .. . ... ...
ROW FE : ... .. B ... ... ... : ... .. D ... ... ... : ... .. . ... : ... .. 4 ... : ... .. . ... ...
ROW FF : ... .. A ... ... ... : ... .. . ... ... ... : ... .. . ... : ... .. 2 ... : ... .. . ... ...

PATTERN 05
ROW 00 : ... .. . ... ... ... : ... .. . ... ... ... : ... .. . ... : ... .. 0 ... : ... .. . ... ...
ROW 01 : ... .. 9 ... ... ... : ... .. C ... ... ... : ... .. . ... : ... .. . ... : ... .. . ... ...
ROW 02 : ... .. . ... ... ... : ... .. . ... ... ... : ... .. . ... : ... .. . ... : ... .. . ... ...
ROW 03 : A-1 00 F P80 V03 ... : A-3 00 F ... ... ... : ... .. . ... : F-# 00 F ... : ... .. . ... ...
ROW 04 : ... .. . ... V01 ... : ... .. . ... ... ... : ... .. . ... : ... .. E ... : ... .. . ... ...
ROW 05 : ... .. E ... V02 ... : ... .. . ... ... ... : ... .. . ... : ... .. C ... : ... .. . ... ...
ROW 06 : ... .. . ... ... ... : ... .. . ... ... ... : ... .. . ... : ... .. A ... : ... .. . ... ...
ROW 07 : ... .. D ... ... ... : ... .. E ... ... ... : ... .. . ... : ... .. 9 ... : ... .. . ... ...
ROW 08 : ... .. C ... ... ... : ... .. . ... ... ... : ... .. . ... : ... .. 7 ... : ... .. . ... ...
ROW 09 : ... .. . ... ... ... : ... .. . ... ... ... : ... .. . ... : ... .. 5 ... : ... .. . ... ...
ROW 0A : ... .. B ... ... ... : ... .. D ... ... ... : ... .. . ... : ... .. 4 ... : ... .. . ... ...
ROW 0B : ... .. A ... ... ... : ... .. . ... ... ... : ... .. . ... : ... .. 2 ... : ... .. . ... ...
ROW 0C : ... .. . ... ... ... : ... .. . ... ... ... : ... .. . ... : ... .. 0 ... : ... .. . ... ...
ROW 0D : ... .. 9 ... ... ... : ... .. C ... ... ... : ... .. . ... : ... .. . ... : ... .. . ... ...
ROW 0E : ... .. . ... ... ... : ... .. . ... ... ... : ... .. . ... : ... .. . ... : ... .. . ... ...
ROW 0F : G-1 00 F ... V03 ... : G-2 00 F P80 ... ... : ... .. . ... : 0-# 00 F ... : ... .. . ... ...
ROW 10 : ... .. . ... V01 ... : ... .. . ... ... ... : ... .. . ... : ... .. E ... : ... .. . ... ...
ROW 11 : ... .. E ... V02 ... : ... .. . ... ... ... : ... .. . ... : ... .. C ... : ... .. . ... ...
ROW 12 : ... .. . ... ... ... : ... .. . ... ... ... : ... .. . ... : ... .. A ... : ... .. . ... ...
ROW 13 : ... .. D ... ... ... : ... .. E ... ... ... : ... .. . ... : ... .. 9 ... : ... .. . ... ...
ROW 14 : ... .. C ... ... ... : ... .. . ... ... ... : ... .. . ... : ... .. 7 ... : ... .. . ... ...
ROW 15 : ... .. . ... ... ... : ... .. . ... ... ... : ... .. . ... : ... .. 5 ... : ... .. . ... ...
ROW 16 : ... .. B ... ... ... : ... .. D ... ... ... : ... .. . ... : ... .. 4 ... : ... .. . ... ...
ROW 17 : ... .. A ... ... ... : ... .. . ... ... ... : ... .. . ... : ... .. 2 ... : ... .. . ... ...
ROW 18 : ... .. . ... ... ... : ... .. . ... ... ... : ... .. . ... : ... .. 0 ... : ... .. . ... ...
ROW 19 : ... .. 9 ... ... ... : ... .. C ... ... ... : ... .. . ... : ... .. . ... : ... .. . ... ...
ROW 1A : ... .. . ... ... ... : ... .. . ... ... ... : ... .. . ... : ... .. . ... : ... .. . ... ...
ROW 1B : ... .. F ... V03 ... : ... .. F ... ... ... : ... .. . ... : F-# 00 F ... : ... .. . ... ...
ROW 1C : ... .. . ... V01 ... : ... .. . ... ... ... : ... .. . ... : ... .. E ... : ... .. . ... ...
ROW 1D : ... .. E ... V02 ... : ... .. . ... ... ... : ... .. . ... : ... .. C ... : ... .. . ... ...
ROW 1E : ... .. . ... ... ... : ... .. . ... ... ... : ... .. . ... : ... .. A ... : ... .. . ... ...
ROW 1F : ... .. D ... ... ... : ... .. E ... ... ... : ... .. . ... : ... .. 9 ... : ... .. . ... ...
ROW 20 : ... .. C ... ... ... : ... .. . ... ... ... : ... .. . ... : ... .. 7 ... : ... .. . ... ...
ROW 21 : ... .. . ... ... ... : ... .. . ... ... ... : ... .. . ... : ... .. 5 ... : ... .. . ... ...
ROW 22 : ... .. B ... ... ... : ... .. D ... ... ... : ... .. . ... : ... .. 4 ... : ... .. . ... ...
ROW 23 : ... .. A ... ... ... : ... .. . ... ... ... : ... .. . ... : ... .. 2 ... : ... .. . ... ...
ROW 24 : ... .. . ... ... ... : ... .. . ... ... ... : ... .. . ... : ... .. 0 ... : ... .. . ... ...
ROW 25 : ... .. 9 ... ... ... : ... .. C ... ... ... : ... .. . ... : ... .. . ... : ... .. . ... ...
ROW 26 : ... .. . ... ... ... : ... .. . ... ... ... : ... .. . ... : ... .. . ... : ... .. . ... ...
ROW 27 : G-2 00 F ... V03 ... : G-3 00 F P7F ... ... : ... .. . ... : 4-# 00 F ... : ... .. . ... ...
ROW 28 : ... .. . ... V01 ... : ... .. . ... ... ... : ... .. . ... : ... .. E ... : ... .. . ... ...
ROW 29 : ... .. E ... V02 ... : ... .. . ... ... ... : ... .. . ... : ... .. C ... : ... .. . ... ...
ROW 2A : ... .. . ... ... ... : ... .. . ... ... ... : ... .. . ... : ... .. A ... : ... .. . ... ...
ROW 2B : ... .. D ... ... ... : ... .. E ... ... ... : ... .. . ... : ... .. 9 ... : ... .. . ... ...
ROW 2C : ... .. C ... ... ... : ... .. . ... ... ... : ... .. . ... : ... .. 7 ... : ... .. . ... ...
ROW 2D : ... .. . ... ... ... : ... .. . ... ... ... : ... .. . ... : ... .. 5 ... : ... .. . ... ...
ROW 2E : ... .. B ... ... ... : ... .. D ... ... ... : ... .. . ... : ... .. 4 ... : ... .. . ... ...
ROW 2F : ... .. A ... ... ... : ... .. . ... ... ... : ... .. . ... : ... .. 2 ... : ... .. . ... ...
ROW 30 : ... .. . ... ... ... : ... .. . ... ... ... : ... .. . ... : ... .. 0 ... : ... .. . ... ...
ROW 31 : ... .. 9 ... ... ... : ... .. C ... ... ... : ... .. . ... : ... .. . ... : ... .. . ... ...
ROW 32 : ... .. . ... ... ... : ... .. . ... ... ... : ... .. . ... : ... .. . ... : ... .. . ... ...
ROW 33 : G-1 00 F ... V03 ... : G-2 00 F P80 ... ... : ... .. . ... : F-# 00 F ... : ... .. . ... ...
ROW 34 : ... .. . ... V01 ... : ... .. . ... ... ... : ... .. . ... : ... .. E ... : ... .. . ... ...
ROW 35 : ... .. E ... V02 ... : ... .. . ... ... ... : ... .. . ... : ... .. C ... : ... .. . ... ...
ROW 36 : ... .. . ... ... ... : ... .. . ... ... ... : ... .. . ... : ... .. A ... : ... .. . ... ...
ROW 37 : ... .. D ... ... ... : ... .. E ... ... ... : ... .. . ... : ... .. 9 ... : ... .. . ... ...
ROW 38 : ... .. C ... ... ... : ... .. . ... ... ... : ... .. . ... : ... .. 7 ... : ... .. . ... ...
ROW 39 : ... .. . ... ... ... : ... .. . ... ... ... : ... .. . ... : ... .. 5 ... : ... .. . ... ...
ROW 3A : ... .. B ... ... ... : ... .. D ... ... ... : ... .. . ... : ... .. 4 ... : ... .. . ... ...
ROW 3B : ... .. A ... ... ... : ... .. . ... ... ... : ... .. . ... : ... .. 2 ... : ... .. . ... ...
ROW 3C : ... .. . ... ... ... : ... .. . ... ... ... : ... .. . ... : ... .. 0 ... : ... .. . ... ...
ROW 3D : ... .. 9 ... ... ... : ... .. C ... ... ... : ... .. . ... : ... .. . ... : ... .. . ... ...
ROW 3E : ... .. . ... ... ... : ... .. . ... ... ... : ... .. . ... : ... .. . ... : ... .. . ... ...
ROW 3F : A-1 00 F ... V03 ... : A-3 00 F P7F ... ... : ... .. . ... : 0-# 00 F ... : ... .. . ... ...
ROW 40 : ... .. . ... V01 ... : ... .. . ... ... ... : ... .. . ... : ... .. E ... : ... .. . ... ...
ROW 41 : ... .. E ... V02 ... : ... .. . ... ... ... : ... .. . ... : ... .. C ... : ... .. . ... ...
ROW 42 : ... .. . ... ... ... : ... .. . ... ... ... : ... .. . ... : ... .. A ... : ... .. . ... ...
ROW 43 : ... .. D ... ... ... : ... .. E ... ... ... : ... .. . ... : ... .. 9 ... : ... .. . ... ...
ROW 44 : ... .. C ... ... ... : ... .. . ... ... ... : ... .. . ... : ... .. 7 ... : ... .. . ... ...
ROW 45 : ... .. . ... ... ... : ... .. . ... ... ... : ... .. . ... : ... .. 5 ... : ... .. . ... ...
ROW 46 : ... .. B ... ... ... : ... .. D ... ... ... : ... .. . ... : ... .. 4 ... : ... .. . ... ...
ROW 47 : ... .. A ... ... ... : ... .. . ... ... ... : ... .. . ... : ... .. 2 ... : ... .. . ... ...
ROW 48 : ... .. . ... ... ... : ... .. . ... ... ... : ... .. . ... : ... .. 0 ... : ... .. . ... ...
ROW 49 : ... .. 9 ... ... ... : ... .. C ... ... ... : ... .. . ... : ... .. . ... : ... .. . ... ...
ROW 4A : ... .. . ... ... ... : ... .. . ... ... ... : ... .. . ... : ... .. . ... : ... .. . ... ...
ROW 4B : ... .. F ... V03 ... : A-2 00 F ... ... ... : ... .. . ... : F-# 00 F ... : ... .. . ... ...
ROW 4C : ... .. . ... V01 ... : ... .. . ... ... ... : ... .. . ... : ... .. E ... : ... .. . ... ...
ROW 4D : ... .. E ... V02 ... : ... .. . ... ... ... : ... .. . ... : ... .. C ... : ... .. . ... ...
ROW 4E : ... .. . ... ... ... : ... .. . ... ... ... : ... .. . ... : ... .. A ... : ... .. . ... ...
ROW 4F : ... .. D ... ... ... : ... .. E ... ... ... : ... .. . ... : ... .. 9 ... : ... .. . ... ...
ROW 50 : ... .. C ... ... ... : ... .. . ... ... ... : ... .. . ... : ... .. 7 ... : ... .. . ... ...
ROW 51 : ... .. . ... ... ... : ... .. . ... ... ... : ... .. . ... : ... .. 5 ... : ... .. . ... ...
ROW 52 : ... .. B ... ... ... : ... .. D ... ... ... : ... .. . ... : ... .. 4 ... : ... .. . ... ...
ROW 53 : ... .. A ... ... ... : ... .. . ... ... ... : ... .. . ... : ... .. 2 ... : ... .. . ... ...
ROW 54 : ... .. . ... ... ... : ... .. . ... ... ... : ... .. . ... : ... .. 0 ... : ... .. . ... ...
ROW 55 : ... .. 9 ... ... ... : ... .. C ... ... ... : ... .. . ... : ... .. . ... : ... .. . ... ...
ROW 56 : ... .. . ... ... ... : ... .. . ... ... ... : ... .. . ... : ... .. . ... : ... .. . ... ...
ROW 57 : A-2 00 F P7F V03 ... : ... .. F ... ... ... : ... .. . ... : 4-# 00 F ... : ... .. . ... ...
ROW 58 : ... .. . ... V01 ... : ... .. . ... ... ... : ... .. . ... : ... .. E ... : ... .. . ... ...
ROW 59 : ... .. E ... V02 ... : ... .. . ... ... ... : ... .. . ... : ... .. C ... : ... .. . ... ...
ROW 5A : ... .. . ... ... ... : ... .. . ... ... ... : ... .. . ... : ... .. A ... : ... .. . ... ...
ROW 5B : ... .. D ... ... ... : ... .. E ... ... ... : ... .. . ... : ... .. 9 ... : ... .. . ... ...
ROW 5C : ... .. C ... ... ... : ... .. . ... ... ... : ... .. . ... : ... .. 7 ... : ... .. . ... ...
ROW 5D : ... .. . ... ... ... : ... .. . ... ... ... : ... .. . ... : ... .. 5 ... : ... .. . ... ...
ROW 5E : ... .. B ... ... ... : ... .. D ... ... ... : ... .. . ... : ... .. 4 ... : ... .. . ... ...
ROW 5F : ... .. A ... ... ... : ... .. . ... ... ... : ... .. . ... : ... .. 2 ... : ... .. . ... ...
ROW 60 : ... .. . ... ... ... : ... .. . ... ... ... : ... .. . ... : ... .. 0 ... : ... .. . ... ...
ROW 61 : ... .. 9 ... ... ... : ... .. C ... ... ... : ... .. . ... : ... .. . ... : ... .. . ... ...
ROW 62 : ... .. . ... ... ... : ... .. . ... ... ... : ... .. . ... : ... .. . ... : ... .. . ... ...
ROW 63 : A-1 00 F P80 V03 ... : A-3 00 F ... ... ... : ... .. . ... : F-# 00 F ... : ... .. . ... ...
ROW 64 : ... .. . ... V01 ... : ... .. . ... ... ... : ... .. . ... : ... .. E ... : ... .. . ... ...
ROW 65 : ... .. E ... V02 ... : ... .. . ... ... ... : ... .. . ... : ... .. C ... : ... .. . ... ...
ROW 66 : ... .. . ... ... ... : ... .. . ... ... ... : ... .. . ... : ... .. A ... : ... .. . ... ...
ROW 67 : ... .. D ... ... ... : ... .. E ... ... ... : ... .. . ... : ... .. 9 ... : ... .. . ... ...
ROW 68 : ... .. C ... ... ... : ... .. . ... ... ... : ... .. . ... : ... .. 7 ... : ... .. . ... ...
ROW 69 : ... .. . ... ... ... : ... .. . ... ... ... : ... .. . ... : ... .. 5 ... : ... .. . ... ...
ROW 6A : ... .. B ... ... ... : ... .. D ... ... ... : ... .. . ... : ... .. 4 ... : ... .. . ... ...
ROW 6B : ... .. A ... ... ... : ... .. . ... ... ... : ... .. . ... : ... .. 2 ... : ... .. . ... ...
ROW 6C : ... .. . ... ... ... : ... .. . ... ... ... : ... .. . ... : ... .. 0 ... : ... .. . ... ...
ROW 6D : ... .. 9 ... ... ... : ... .. C ... ... ... : ... .. . ... : ... .. . ... : ... .. . ... ...
ROW 6E : ... .. . ... ... ... : ... .. . ... ... ... : ... .. . ... : ... .. . ... : ... .. . ... ...
ROW 6F : ... .. F ... V03 ... : A-2 00 F ... ... ... : ... .. . ... : 0-# 00 F ... : ... .. . ... ...
ROW 70 : ... .. . ... V01 ... : ... .. . ... ... ... : ... .. . ... : ... .. E ... : ... .. . ... ...
ROW 71 : ... .. E ... V02 ... : ... .. . ... ... ... : ... .. . ... : ... .. C ... : ... .. . ... ...
ROW 72 : ... .. . ... ... ... : ... .. . ... ... ... : ... .. . ... : ... .. A ... : ... .. . ... ...
ROW 73 : ... .. D ... ... ... : ... .. E ... ... ... : ... .. . ... : ... .. 9 ... : ... .. . ... ...
ROW 74 : ... .. C ... ... ... : ... .. . ... ... ... : ... .. . ... : ... .. 7 ... : ... .. . ... ...
ROW 75 : ... .. . ... ... ... : ... .. . ... ... ... : ... .. . ... : ... .. 5 ... : ... .. . ... ...
ROW 76 : ... .. B ... ... ... : ... .. D ... ... ... : ... .. . ... : ... .. 4 ... : ... .. . ... ...
ROW 77 : ... .. A ... ... ... : ... .. . ... ... ... : ... .. . ... : ... .. 2 ... : ... .. . ... ...
ROW 78 : ... .. . ... ... ... : ... .. . ... ... ... : ... .. . ... : ... .. 0 ... : ... .. . ... ...
ROW 79 : ... .. 9 ... ... ... : ... .. C ... ... ... : ... .. . ... : ... .. . ... : ... .. . ... ...
ROW 7A : ... .. . ... ... ... : ... .. . ... ... ... : ... .. . ... : ... .. . ... : ... .. . ... ...
ROW 7B : ... .. F ... V03 ... : ... .. F ... ... ... : ... .. . ... : F-# 00 F ... : ... .. . ... ...
ROW 7C : ... .. . ... V01 ... : ... .. . ... ... ... : ... .. . ... : ... .. E ... : ... .. . ... ...
ROW 7D : ... .. E ... V02 ... : ... .. . ... ... ... : ... .. . ... : ... .. C ... : ... .. . ... ...
ROW 7E : ... .. . ... ... ... : ... .. . ... ... ... : ... .. . ... : ... .. A ... : ... .. . ... ...
ROW 7F : ... .. D ... ... ... : ... .. E ... ... ... : ... .. . ... : ... .. 9 ... : ... .. . ... ...
ROW 80 : ... .. C ... ... ... : ... .. . ... ... ... : ... .. . ... : ... .. 7 ... : ... .. . ... ...
ROW 81 : ... .. . ... ... ... : ... .. . ... ... ... : ... .. . ... : ... .. 5 ... : ... .. . ... ...
ROW 82 : ... .. B ... ... ... : ... .. D ... ... ... : ... .. . ... : ... .. 4 ... : ... .. . ... ...
ROW 83 : ... .. A ... ... ... : ... .. . ... ... ... : ... .. . ... : ... .. 2 ... : ... .. . ... ...
ROW 84 : ... .. . ... ... ... : ... .. . ... ... ... : ... .. . ... : ... .. 0 ... : ... .. . ... ...
ROW 85 : ... .. 9 ... ... ... : ... .. C ... ... ... : ... .. . ... : ... .. . ... : ... .. . ... ...
ROW 86 : ... .. . ... ... ... : ... .. . ... ... ... : ... .. . ... : ... .. . ... : ... .. . ... ...
ROW 87 : A-2 00 F P7F V03 ... : A-3 00 F ... ... ... : ... .. . ... : 4-# 00 F ... : ... .. . ... ...
ROW 88 : ... .. . ... V01 ... : ... .. . ... ... ... : ... .. . ... : ... .. E ... : ... .. . ... ...
ROW 89 : ... .. E ... V02 ... : ... .. . ... ... ... : ... .. . ... : ... .. C ... : ... .. . ... ...
ROW 8A : ... .. . ... ... ... : ... .. . ... ... ... : ... .. . ... : ... .. A ... : ... .. . ... ...
ROW 8B : ... .. D ... ... ... : ... .. E ... ... ... : ... .. . ... : ... .. 9 ... : ... .. . ... ...
ROW 8C : ... .. C ... ... ... : ... .. . ... ... ... : ... .. . ... : ... .. 7 ... : ... .. . ... ...
ROW 8D : ... .. . ... ... ... : ... .. . ... ... ... : ... .. . ... : ... .. 5 ... : ... .. . ... ...
ROW 8E : ... .. B ... ... ... : ... .. D ... ... ... : ... .. . ... : ... .. 4 ... : ... .. . ... ...
ROW 8F : ... .. A ... ... ... : ... .. . ... ... ... : ... .. . ... : ... .. 2 ... : ... .. . ... ...
ROW 90 : ... .. . ... ... ... : ... .. . ... ... ... : ... .. . ... : ... .. 0 ... : ... .. . ... ...
ROW 91 : ... .. 9 ... ... ... : ... .. C ... ... ... : ... .. . ... : ... .. . ... : ... .. . ... ...
ROW 92 : ... .. . ... ... ... : ... .. . ... ... ... : ... .. . ... : ... .. . ... : ... .. . ... ...
ROW 93 : A-1 00 F P80 V03 ... : A-2 00 F ... ... ... : ... .. . ... : F-# 00 F ... : ... .. . ... ...
ROW 94 : ... .. . ... V01 ... : ... .. . ... ... ... : ... .. . ... : ... .. E ... : ... .. . ... ...
ROW 95 : ... .. E ... V02 ... : ... .. . ... ... ... : ... .. . ... : ... .. C ... : ... .. . ... ...
ROW 96 : ... .. . ... ... ... : ... .. . ... ... ... : ... .. . ... : ... .. A ... : ... .. . ... ...
ROW 97 : ... .. D ... ... ... : ... .. E ... ... ... : ... .. . ... : ... .. 9 ... : ... .. . ... ...
ROW 98 : ... .. C ... ... ... : ... .. . ... ... ... : ... .. . ... : ... .. 7 ... : ... .. . ... ...
ROW 99 : ... .. . ... ... ... : ... .. . ... ... ... : ... .. . ... : ... .. 5 ... : ... .. . ... ...
ROW 9A : ... .. B ... ... ... : ... .. D ... ... ... : ... .. . ... : ... .. 4 ... : ... .. . ... ...
ROW 9B : ... .. A ... ... ... : ... .. . ... ... ... : ... .. . ... : ... .. 2 ... : ... .. . ... ...
ROW 9C : ... .. . ... ... ... : ... .. . ... ... ... : ... .. . ... : ... .. 0 ... : ... .. . ... ...
ROW 9D : ... .. 9 ... ... ... : ... .. C ... ... ... : ... .. . ... : ... .. . ... : ... .. . ... ...
ROW 9E : ... .. . ... ... ... : ... .. . ... ... ... : ... .. . ... : ... .. . ... : ... .. . ... ...
ROW 9F : ... .. F ... V03 ... : A-3 00 F ... ... ... : ... .. . ... : 0-# 00 F ... : ... .. . ... ...
ROW A0 : ... .. . ... V01 ... : ... .. . ... ... ... : ... .. . ... : ... .. E ... : ... .. . ... ...
ROW A1 : ... .. E ... V02 ... : ... .. . ... ... ... : ... .. . ... : ... .. C ... : ... .. . ... ...
ROW A2 : ... .. . ... ... ... : ... .. . ... ... ... : ... .. . ... : ... .. A ... : ... .. . ... ...
ROW A3 : ... .. D ... ... ... : ... .. E ... ... ... : ... .. . ... : ... .. 9 ... : ... .. . ... ...
ROW A4 : ... .. C ... ... ... : ... .. . ... ... ... : ... .. . ... : ... .. 7 ... : ... .. . ... ...
ROW A5 : ... .. . ... ... ... : ... .. . ... ... ... : ... .. . ... : ... .. 5 ... : ... .. . ... ...
ROW A6 : ... .. B ... ... ... : ... .. D ... ... ... : ... .. . ... : ... .. 4 ... : ... .. . ... ...
ROW A7 : ... .. A ... ... ... : ... .. . ... ... ... : ... .. . ... : ... .. 2 ... : ... .. . ... ...
ROW A8 : ... .. . ... ... ... : ... .. . ... ... ... : ... .. . ... : ... .. 0 ... : ... .. . ... ...
ROW A9 : ... .. 9 ... ... ... : ... .. C ... ... ... : ... .. . ... : ... .. . ... : ... .. . ... ...
ROW AA : ... .. . ... ... ... : ... .. . ... ... ... : ... .. . ... : ... .. . ... : ... .. . ... ...
ROW AB : ... .. F ... V03 ... : A-2 00 F ... ... ... : ... .. . ... : F-# 00 F ... : ... .. . ... ...
ROW AC : ... .. . ... V01 ... : ... .. . ... ... ... : ... .. . ... : ... .. E ... : ... .. . ... ...
ROW AD : ... .. E ... V02 ... : ... .. . ... ... ... : ... .. . ... : ... .. C ... : ... .. . ... ...
ROW AE : ... .. . ... ... ... : ... .. . ... ... ... : ... .. . ... : ... .. A ... : ... .. . ... ...
ROW AF : ... .. D ... ... ... : ... .. E ... ... ... : ... .. . ... : ... .. 9 ... : ... .. . ... ...
ROW B0 : ... .. C ... ... ... : ... .. . ... ... ... : ... .. . ... : ... .. 7 ... : ... .. . ... ...
ROW B1 : ... .. . ... ... ... : ... .. . ... ... ... : ... .. . ... : ... .. 5 ... : ... .. . ... ...
ROW B2 : ... .. B ... ... ... : ... .. D ... ... ... : ... .. . ... : ... .. 4 ... : ... .. . ... ...
ROW B3 : ... .. A ... ... ... : ... .. . ... ... ... : ... .. . ... : ... .. 2 ... : ... .. . ... ...
ROW B4 : ... .. . ... ... ... : ... .. . ... ... ... : ... .. . ... : ... .. 0 ... : ... .. . ... ...
ROW B5 : ... .. 9 ... ... ... : ... .. C ... ... ... : ... .. . ... : ... .. . ... : ... .. . ... ...
ROW B6 : ... .. . ... ... ... : ... .. . ... ... ... : ... .. . ... : ... .. . ... : ... .. . ... ...
ROW B7 : A-2 00 F P7F V03 ... : ... .. F ... ... ... : ... .. . ... : 4-# 00 F ... : ... .. . ... ...
ROW B8 : ... .. . ... V01 ... : ... .. . ... ... ... : ... .. . ... : ... .. E ... : ... .. . ... ...
ROW B9 : ... .. E ... V02 ... : ... .. . ... ... ... : ... .. . ... : ... .. C ... : ... .. . ... ...
ROW BA : ... .. . ... ... ... : ... .. . ... ... ... : ... .. . ... : ... .. A ... : ... .. . ... ...
ROW BB : ... .. D ... ... ... : ... .. E ... ... ... : ... .. . ... : ... .. 9 ... : ... .. . ... ...
ROW BC : ... .. C ... ... ... : ... .. . ... ... ... : ... .. . ... : ... .. 7 ... : ... .. . ... ...
ROW BD : ... .. . ... ... ... : ... .. . ... ... ... : ... .. . ... : ... .. 5 ... : ... .. . ... ...
ROW BE : ... .. B ... ... ... : ... .. D ... ... ... : ... .. . ... : ... .. 4 ... : ... .. . ... ...
ROW BF : ... .. A ... ... ... : ... .. . ... ... ... : ... .. . ... : ... .. 2 ... : ... .. . ... ...
ROW C0 : ... .. . ... ... ... : ... .. . ... ... ... : ... .. . ... : ... .. 0 ... : ... .. . ... ...
ROW C1 : ... .. 9 ... ... ... : ... .. C ... ... ... : ... .. . ... : ... .. . ... : ... .. . ... ...
ROW C2 : ... .. . ... ... ... : ... .. . ... ... ... : ... .. . ... : ... .. . ... : ... .. . ... ...
ROW C3 : A-1 00 F P80 V03 ... : A-3 00 F ... ... ... : ... .. . ... : F-# 00 F ... : ... .. . ... ...
ROW C4 : ... .. . ... V01 ... : ... .. . ... ... ... : ... .. . ... : ... .. E ... : ... .. . ... ...
ROW C5 : ... .. E ... V02 ... : ... .. . ... ... ... : ... .. . ... : ... .. C ... : ... .. . ... ...
ROW C6 : ... .. . ... ... ... : ... .. . ... ... ... : ... .. . ... : ... .. A ... : ... .. . ... ...
ROW C7 : ... .. D ... ... ... : ... .. E ... ... ... : ... .. . ... : ... .. 9 ... : ... .. . ... ...
ROW C8 : ... .. C ... ... ... : ... .. . ... ... ... : ... .. . ... : ... .. 7 ... : ... .. . ... ...
ROW C9 : ... .. . ... ... ... : ... .. . ... ... ... : ... .. . ... : ... .. 5 ... : ... .. . ... ...
ROW CA : ... .. B ... ... ... : ... .. D ... ... ... : ... .. . ... : ... .. 4 ... : ... .. . ... ...
ROW CB : ... .. A ... ... ... : ... .. . ... ... ... : ... .. . ... : ... .. 2 ... : ... .. . ... ...
ROW CC : ... .. . ... ... ... : ... .. . ... ... ... : ... .. . ... : ... .. 0 ... : ... .. . ... ...
ROW CD : ... .. 9 ... ... ... : ... .. C ... ... ... : ... .. . ... : ... .. . ... : ... .. . ... ...
ROW CE : ... .. . ... ... ... : ... .. . ... ... ... : ... .. . ... : ... .. . ... : ... .. . ... ...
ROW CF : G-1 00 F ... V03 ... : G-2 00 F P80 ... ... : ... .. . ... : 0-# 00 F ... : ... .. . ... ...
ROW D0 : ... .. . ... V01 ... : ... .. . ... ... ... : ... .. . ... : ... .. E ... : ... .. . ... ...
ROW D1 : ... .. E ... V02 ... : ... .. . ... ... ... : ... .. . ... : ... .. C ... : ... .. . ... ...
ROW D2 : ... .. . ... ... ... : ... .. . ... ... ... : ... .. . ... : ... .. A ... : ... .. . ... ...
ROW D3 : ... .. D ... ... ... : ... .. E ... ... ... : ... .. . ... : ... .. 9 ... : ... .. . ... ...
ROW D4 : ... .. C ... ... ... : ... .. . ... ... ... : ... .. . ... : ... .. 7 ... : ... .. . ... ...
ROW D5 : ... .. . ... ... ... : ... .. . ... ... ... : ... .. . ... : ... .. 5 ... : ... .. . ... ...
ROW D6 : ... .. B ... ... ... : ... .. D ... ... ... : ... .. . ... : ... .. 4 ... : ... .. . ... ...
ROW D7 : ... .. A ... ... ... : ... .. . ... ... ... : ... .. . ... : ... .. 2 ... : ... .. . ... ...
ROW D8 : ... .. . ... ... ... : ... .. . ... ... ... : ... .. . ... : ... .. 0 ... : ... .. . ... ...
ROW D9 : ... .. 9 ... ... ... : ... .. C ... ... ... : ... .. . ... : ... .. . ... : ... .. . ... ...
ROW DA : ... .. . ... ... ... : ... .. . ... ... ... : ... .. . ... : ... .. . ... : ... .. . ... ...
ROW DB : ... .. F ... V03 ... : ... .. F ... ... ... : ... .. . ... : F-# 00 F ... : ... .. . ... ...
ROW DC : ... .. . ... V01 ... : ... .. . ... ... ... : ... .. . ... : ... .. E ... : ... .. . ... ...
ROW DD : ... .. E ... V02 ... : ... .. . ... ... ... : ... .. . ... : ... .. C ... : ... .. . ... ...
ROW DE : ... .. . ... ... ... : ... .. . ... ... ... : ... .. . ... : ... .. A ... : ... .. . ... ...
ROW DF : ... .. D ... ... ... : ... .. E ... ... ... : ... .. . ... : ... .. 9 ... : ... .. . ... ...
ROW E0 : ... .. C ... ... ... : ... .. . ... ... ... : ... .. . ... : ... .. 7 ... : ... .. . ... ...
ROW E1 : ... .. . ... ... ... : ... .. . ... ... ... : ... .. . ... : ... .. 5 ... : ... .. . ... ...
ROW E2 : ... .. B ... ... ... : ... .. D ... ... ... : ... .. . ... : ... .. 4 ... : ... .. . ... ...
ROW E3 : ... .. A ... ... ... : ... .. . ... ... ... : ... .. . ... : ... .. 2 ... : ... .. . ... ...
ROW E4 : ... .. . ... ... ... : ... .. . ... ... ... : ... .. . ... : ... .. 0 ... : ... .. . ... ...
ROW E5 : ... .. 9 ... ... ... : ... .. C ... ... ... : ... .. . ... : ... .. . ... : ... .. . ... ...
ROW E6 : ... .. . ... ... ... : ... .. . ... ... ... : ... .. . ... : ... .. . ... : ... .. . ... ...
ROW E7 : G-2 00 F ... V03 ... : G-3 00 F P7F ... ... : ... .. . ... : 4-# 00 F ... : ... .. . ... ...
ROW E8 : ... .. . ... V01 ... : ... .. . ... ... ... : ... .. . ... : ... .. E ... : ... .. . ... ...
ROW E9 : ... .. E ... V02 ... : ... .. . ... ... ... : ... .. . ... : ... .. C ... : ... .. . ... ...
ROW EA : ... .. . ... ... ... : ... .. . ... ... ... : ... .. . ... : ... .. A ... : ... .. . ... ...
ROW EB : ... .. D ... ... ... : ... .. E ... ... ... : ... .. . ... : ... .. 9 ... : ... .. . ... ...
ROW EC : ... .. C ... ... ... : ... .. . ... ... ... : ... .. . ... : ... .. 7 ... : ... .. . ... ...
ROW ED : ... .. . ... ... ... : ... .. . ... ... ... : ... .. . ... : ... .. 5 ... : ... .. . ... ...
ROW EE : ... .. B ... ... ... : ... .. D ... ... ... : ... .. . ... : ... .. 4 ... : ... .. . ... ...
ROW EF : ... .. A ... ... ... : ... .. . ... ... ... : ... .. . ... : ... .. 2 ... : ... .. . ... ...
ROW F0 : ... .. . ... ... ... : ... .. . ... ... ... : ... .. . ... : ... .. 0 ... : ... .. . ... ...
ROW F1 : ... .. 9 ... ... ... : ... .. C ... ... ... : ... .. . ... : ... .. . ... : ... .. . ... ...
ROW F2 : ... .. . ... ... ... : ... .. . ... ... ... : ... .. . ... : ... .. . ... : ... .. . ... ...
ROW F3 : G-1 00 F ... V03 ... : G-2 00 F P80 ... ... : ... .. . ... : F-# 00 F ... : ... .. . ... ...
ROW F4 : ... .. . ... V01 ... : ... .. . ... ... ... : ... .. . ... : ... .. E ... : ... .. . ... ...
ROW F5 : ... .. E ... V02 ... : ... .. . ... ... ... : ... .. . ... : ... .. C ... : ... .. . ... ...
ROW F6 : ... .. . ... ... ... : ... .. . ... ... ... : ... .. . ... : ... .. A ... : ... .. . ... ...
ROW F7 : ... .. D ... ... ... : ... .. E ... ... ... : ... .. . ... : ... .. 9 ... : ... .. . ... ...
ROW F8 : ... .. C ... ... ... : ... .. . ... ... ... : ... .. . ... : ... .. 7 ... : ... .. . ... ...
ROW F9 : ... .. . ... ... ... : ... .. . ... ... ... : ... .. . ... : ... .. 5 ... : ... .. . ... ...
ROW FA : ... .. B ... ... ... : ... .. D ... ... ... : ... .. . ... : ... .. 4 ... : ... .. . ... ...
ROW FB : ... .. A ... ... ... : ... .. . ... ... ... : ... .. . ... : ... .. 2 ... : ... .. . ... ...
ROW FC : ... .. . ... ... ... : ... .. . ... ... ... : ... .. . ... : ... .. 0 ... : ... .. . ... ...
ROW FD : ... .. 9 ... ... ... : ... .. C ... ... ... : ... .. . ... : ... .. . ... : ... .. . ... ...
ROW FE : ... .. . ... ... ... : ... .. . ... ... ... : ... .. . ... : ... .. . ... : ... .. . ... ...
ROW FF : A-1 00 F ... V03 ... : A-3 00 F P7F ... ... : ... .. . ... : 0-# 00 F ... : ... .. . ... ...

PATTERN 06
ROW 00 : ... .. . ... V01 ... : ... .. . ... ... ... : ... .. . ... : ... .. E ... : ... .. . ... ...
ROW 01 : ... .. E ... V02 ... : ... .. . ... ... ... : ... .. . ... : ... .. C ... : ... .. . ... ...
ROW 02 : ... .. . ... ... ... : ... .. . ... ... ... : ... .. . ... : ... .. A ... : ... .. . ... ...
ROW 03 : ... .. D ... ... ... : ... .. E ... ... ... : ... .. . ... : ... .. 9 ... : ... .. . ... ...
ROW 04 : ... .. C ... ... ... : ... .. . ... ... ... : ... .. . ... : ... .. 7 ... : ... .. . ... ...
ROW 05 : ... .. . ... ... ... : ... .. . ... ... ... : ... .. . ... : ... .. 5 ... : ... .. . ... ...
ROW 06 : ... .. B ... ... ... : ... .. D ... ... ... : ... .. . ... : ... .. 4 ... : ... .. . ... ...
ROW 07 : ... .. A ... ... ... : ... .. . ... ... ... : ... .. . ... : ... .. 2 ... : ... .. . ... ...
ROW 08 : ... .. . ... ... ... : ... .. . ... ... ... : ... .. . ... : ... .. 0 ... : ... .. . ... ...
ROW 09 : ... .. 9 ... ... ... : ... .. C ... ... ... : ... .. . ... : ... .. . ... : ... .. . ... ...
ROW 0A : ... .. . ... ... ... : ... .. . ... ... ... : ... .. . ... : ... .. . ... : ... .. . ... ...
ROW 0B : ... .. F ... V03 ... : A-2 00 F ... ... ... : ... .. . ... : F-# 00 F ... : ... .. . ... ...
ROW 0C : ... .. . ... V01 ... : ... .. . ... ... ... : ... .. . ... : ... .. E ... : ... .. . ... ...
ROW 0D : ... .. E ... V02 ... : ... .. . ... ... ... : ... .. . ... : ... .. C ... : ... .. . ... ...
ROW 0E : ... .. . ... ... ... : ... .. . ... ... ... : ... .. . ... : ... .. A ... : ... .. . ... ...
ROW 0F : ... .. D ... ... ... : ... .. E ... ... ... : ... .. . ... : ... .. 9 ... : ... .. . ... ...
ROW 10 : ... .. C ... ... ... : ... .. . ... ... ... : ... .. . ... : ... .. 7 ... : ... .. . ... ...
ROW 11 : ... .. . ... ... ... : ... .. . ... ... ... : ... .. . ... : ... .. 5 ... : ... .. . ... ...
ROW 12 : ... .. B ... ... ... : ... .. D ... ... ... : ... .. . ... : ... .. 4 ... : ... .. . ... ...
ROW 13 : ... .. A ... ... ... : ... .. . ... ... ... : ... .. . ... : ... .. 2 ... : ... .. . ... ...
ROW 14 : ... .. . ... ... ... : ... .. . ... ... ... : ... .. . ... : ... .. 0 ... : ... .. . ... ...
ROW 15 : ... .. 9 ... ... ... : ... .. C ... ... ... : ... .. . ... : ... .. . ... : ... .. . ... ...
ROW 16 : ... .. . ... ... ... : ... .. . ... ... ... : ... .. . ... : ... .. . ... : ... .. . ... ...
ROW 17 : A-2 00 F P7F V03 ... : ... .. F ... ... ... : ... .. . ... : 4-# 00 F ... : ... .. . ... ...
ROW 18 : ... .. . ... V01 ... : ... .. . ... ... ... : ... .. . ... : ... .. E ... : ... .. . ... ...
ROW 19 : ... .. E ... V02 ... : ... .. . ... ... ... : ... .. . ... : ... .. C ... : ... .. . ... ...
ROW 1A : ... .. . ... ... ... : ... .. . ... ... ... : ... .. . ... : ... .. A ... : ... .. . ... ...
ROW 1B : ... .. D ... ... ... : ... .. E ... ... ... : ... .. . ... : ... .. 9 ... : ... .. . ... ...
ROW 1C : ... .. C ... ... ... : ... .. . ... ... ... : ... .. . ... : ... .. 7 ... : ... .. . ... ...
ROW 1D : ... .. . ... ... ... : ... .. . ... ... ... : ... .. . ... : ... .. 5 ... : ... .. . ... ...
ROW 1E : ... .. B ... ... ... : ... .. D ... ... ... : ... .. . ... : ... .. 4 ... : ... .. . ... ...
ROW 1F : ... .. A ... ... ... : ... .. . ... ... ... : ... .. . ... : ... .. 2 ... : ... .. . ... ...
ROW 20 : ... .. . ... ... ... : ... .. . ... ... ... : ... .. . ... : ... .. 0 ... : ... .. . ... ...
ROW 21 : ... .. 9 ... ... ... : ... .. C ... ... ... : ... .. . ... : ... .. . ... : ... .. . ... ...
ROW 22 : ... .. . ... ... ... : ... .. . ... ... ... : ... .. . ... : ... .. . ... : ... .. . ... ...
ROW 23 : A-1 00 F P80 V03 ... : A-3 00 F ... ... ... : ... .. . ... : F-# 00 F ... : ... .. . ... ...
ROW 24 : ... .. . ... V01 ... : ... .. . ... ... ... : ... .. . ... : ... .. E ... : ... .. . ... ...
ROW 25 : ... .. E ... V02 ... : ... .. . ... ... ... : ... .. . ... : ... .. C ... : ... .. . ... ...
ROW 26 : ... .. . ... ... ... : ... .. . ... ... ... : ... .. . ... : ... .. A ... : ... .. . ... ...
ROW 27 : ... .. D ... ... ... : ... .. E ... ... ... : ... .. . ... : ... .. 9 ... : ... .. . ... ...
ROW 28 : ... .. C ... ... ... : ... .. . ... ... ... : ... .. . ... : ... .. 7 ... : ... .. . ... ...
ROW 29 : ... .. . ... ... ... : ... .. . ... ... ... : ... .. . ... : ... .. 5 ... : ... .. . ... ...
ROW 2A : ... .. B ... ... ... : ... .. D ... ... ... : ... .. . ... : ... .. 4 ... : ... .. . ... ...
ROW 2B : ... .. A ... ... ... : ... .. . ... ... ... : ... .. . ... : ... .. 2 ... : ... .. . ... ...
ROW 2C : ... .. . ... ... ... : ... .. . ... ... ... : ... .. . ... : ... .. 0 ... : ... .. . ... ...
ROW 2D : ... .. 9 ... ... ... : ... .. C ... ... ... : ... .. . ... : ... .. . ... : ... .. . ... ...
ROW 2E : ... .. . ... ... ... : ... .. . ... ... ... : ... .. . ... : ... .. . ... : ... .. . ... ...
ROW 2F : ... .. F ... V03 ... : A-2 00 F ... ... ... : ... .. . ... : 0-# 00 F ... : ... .. . ... ...
ROW 30 : ... .. . ... V01 ... : ... .. . ... ... ... : ... .. . ... : ... .. E ... : ... .. . ... ...
ROW 31 : ... .. E ... V02 ... : ... .. . ... ... ... : ... .. . ... : ... .. C ... : ... .. . ... ...
ROW 32 : ... .. . ... ... ... : ... .. . ... ... ... : ... .. . ... : ... .. A ... : ... .. . ... ...
ROW 33 : ... .. D ... ... ... : ... .. E ... ... ... : ... .. . ... : ... .. 9 ... : ... .. . ... ...
ROW 34 : ... .. C ... ... ... : ... .. . ... ... ... : ... .. . ... : ... .. 7 ... : ... .. . ... ...
ROW 35 : ... .. . ... ... ... : ... .. . ... ... ... : ... .. . ... : ... .. 5 ... : ... .. . ... ...
ROW 36 : ... .. B ... ... ... : ... .. D ... ... ... : ... .. . ... : ... .. 4 ... : ... .. . ... ...
ROW 37 : ... .. A ... ... ... : ... .. . ... ... ... : ... .. . ... : ... .. 2 ... : ... .. . ... ...
ROW 38 : ... .. . ... ... ... : ... .. . ... ... ... : ... .. . ... : ... .. 0 ... : ... .. . ... ...
ROW 39 : ... .. 9 ... ... ... : ... .. C ... ... ... : ... .. . ... : ... .. . ... : ... .. . ... ...
ROW 3A : ... .. . ... ... ... : ... .. . ... ... ... : ... .. . ... : ... .. . ... : ... .. . ... ...
ROW 3B : ... .. F ... V03 ... : ... .. F ... ... ... : ... .. . ... : F-# 00 F ... : ... .. . ... ...
ROW 3C : ... .. . ... V01 ... : ... .. . ... ... ... : ... .. . ... : ... .. E ... : ... .. . ... ...
ROW 3D : ... .. E ... V02 ... : ... .. . ... ... ... : ... .. . ... : ... .. C ... : ... .. . ... ...
ROW 3E : ... .. . ... ... ... : ... .. . ... ... ... : ... .. . ... : ... .. A ... : ... .. . ... ...
ROW 3F : ... .. D ... ... ... : ... .. E ... ... ... : ... .. . ... : ... .. 9 ... : ... .. . ... ...
ROW 40 : ... .. C ... ... ... : ... .. . ... ... ... : ... .. . ... : ... .. 7 ... : ... .. . ... ...
ROW 41 : ... .. . ... ... ... : ... .. . ... ... ... : ... .. . ... : ... .. 5 ... : ... .. . ... ...
ROW 42 : ... .. B ... ... ... : ... .. D ... ... ... : ... .. . ... : ... .. 4 ... : ... .. . ... ...
ROW 43 : ... .. A ... ... ... : ... .. . ... ... ... : ... .. . ... : ... .. 2 ... : ... .. . ... ...
ROW 44 : ... .. . ... ... ... : ... .. . ... ... ... : ... .. . ... : ... .. 0 ... : ... .. . ... ...
ROW 45 : ... .. 9 ... ... ... : ... .. C ... ... ... : ... .. . ... : ... .. . ... : ... .. . ... ...
ROW 46 : ... .. . ... ... ... : ... .. . ... ... ... : ... .. . ... : ... .. . ... : ... .. . ... ...
ROW 47 : A-2 00 F P7F V03 ... : A-3 00 F ... ... ... : ... .. . ... : 4-# 00 F ... : ... .. . ... ...
ROW 48 : ... .. . ... V01 ... : ... .. . ... ... ... : ... .. . ... : ... .. E ... : ... .. . ... ...
ROW 49 : ... .. E ... V02 ... : ... .. . ... ... ... : ... .. . ... : ... .. C ... : ... .. . ... ...
ROW 4A : ... .. . ... ... ... : ... .. . ... ... ... : ... .. . ... : ... .. A ... : ... .. . ... ...
ROW 4B : ... .. D ... ... ... : ... .. E ... ... ... : ... .. . ... : ... .. 9 ... : ... .. . ... ...
ROW 4C : ... .. C ... ... ... : ... .. . ... ... ... : ... .. . ... : ... .. 7 ... : ... .. . ... ...
ROW 4D : ... .. . ... ... ... : ... .. . ... ... ... : ... .. . ... : ... .. 5 ... : ... .. . ... ...
ROW 4E : ... .. B ... ... ... : ... .. D ... ... ... : ... .. . ... : ... .. 4 ... : ... .. . ... ...
ROW 4F : ... .. A ... ... ... : ... .. . ... ... ... : ... .. . ... : ... .. 2 ... : ... .. . ... ...
ROW 50 : ... .. . ... ... ... : ... .. . ... ... ... : ... .. . ... : ... .. 0 ... : ... .. . ... ...
ROW 51 : ... .. 9 ... ... ... : ... .. C ... ... ... : ... .. . ... : ... .. . ... : ... .. . ... ...
ROW 52 : ... .. . ... ... ... : ... .. . ... ... ... : ... .. . ... : ... .. . ... : ... .. . ... ...
ROW 53 : A-1 00 F P80 V03 ... : A-2 00 F ... ... ... : ... .. . ... : F-# 00 F ... : ... .. . ... ...
ROW 54 : ... .. . ... V01 ... : ... .. . ... ... ... : ... .. . ... : ... .. E ... : ... .. . ... ...
ROW 55 : ... .. E ... V02 ... : ... .. . ... ... ... : ... .. . ... : ... .. C ... : ... .. . ... ...
ROW 56 : ... .. . ... ... ... : ... .. . ... ... ... : ... .. . ... : ... .. A ... : ... .. . ... ...
ROW 57 : ... .. D ... ... ... : ... .. E ... ... ... : ... .. . ... : ... .. 9 ... : ... .. . ... ...
ROW 58 : ... .. C ... ... ... : ... .. . ... ... ... : ... .. . ... : ... .. 7 ... : ... .. . ... ...
ROW 59 : ... .. . ... ... ... : ... .. . ... ... ... : ... .. . ... : ... .. 5 ... : ... .. . ... ...
ROW 5A : ... .. B ... ... ... : ... .. D ... ... ... : ... .. . ... : ... .. 4 ... : ... .. . ... ...
ROW 5B : ... .. A ... ... ... : ... .. . ... ... ... : ... .. . ... : ... .. 2 ... : ... .. . ... ...
ROW 5C : ... .. . ... ... ... : ... .. . ... ... ... : ... .. . ... : ... .. 0 ... : ... .. . ... ...
ROW 5D : ... .. 9 ... ... ... : ... .. C ... ... ... : ... .. . ... : ... .. . ... : ... .. . ... ...
ROW 5E : ... .. . ... ... ... : ... .. . ... ... ... : ... .. . ... : ... .. . ... : ... .. . ... ...
ROW 5F : ... .. F ... V03 ... : A-3 00 F ... ... ... : ... .. . ... : 0-# 00 F ... : ... .. . ... ...
ROW 60 : ... .. . ... V01 ... : ... .. . ... ... ... : ... .. . ... : ... .. E ... : ... .. . ... ...
ROW 61 : ... .. E ... V02 ... : ... .. . ... ... ... : ... .. . ... : ... .. C ... : ... .. . ... ...
ROW 62 : ... .. . ... ... ... : ... .. . ... ... ... : ... .. . ... : ... .. A ... : ... .. . ... ...
ROW 63 : ... .. D ... ... ... : ... .. E ... ... ... : ... .. . ... : ... .. 9 ... : ... .. . ... ...
ROW 64 : ... .. C ... ... ... : ... .. . ... ... ... : ... .. . ... : ... .. 7 ... : ... .. . ... ...
ROW 65 : ... .. . ... ... ... : ... .. . ... ... ... : ... .. . ... : ... .. 5 ... : ... .. . ... ...
ROW 66 : ... .. B ... ... ... : ... .. D ... ... ... : ... .. . ... : ... .. 4 ... : ... .. . ... ...
ROW 67 : ... .. A ... ... ... : ... .. . ... ... ... : ... .. . ... : ... .. 2 ... : ... .. . ... ...
ROW 68 : ... .. . ... ... ... : ... .. . ... ... ... : ... .. . ... : ... .. 0 ... : ... .. . ... ...
ROW 69 : ... .. 9 ... ... ... : ... .. C ... ... ... : ... .. . ... : ... .. . ... : ... .. . ... ...
ROW 6A : ... .. . ... ... ... : ... .. . ... ... ... : ... .. . ... : ... .. . ... : ... .. . ... ...
ROW 6B : ... .. F ... V03 ... : A-2 00 F ... ... ... : ... .. . ... : F-# 00 F ... : ... .. . ... ...
ROW 6C : ... .. . ... V01 ... : ... .. . ... ... ... : ... .. . ... : ... .. E ... : ... .. . ... ...
ROW 6D : ... .. E ... V02 ... : ... .. . ... ... ... : ... .. . ... : ... .. C ... : ... .. . ... ...
ROW 6E : ... .. . ... ... ... : ... .. . ... ... ... : ... .. . ... : ... .. A ... : ... .. . ... ...
ROW 6F : ... .. D ... ... ... : ... .. E ... ... ... : ... .. . ... : ... .. 9 ... : ... .. . ... ...
ROW 70 : ... .. C ... ... ... : ... .. . ... ... ... : ... .. . ... : ... .. 7 ... : ... .. . ... ...
ROW 71 : ... .. . ... ... ... : ... .. . ... ... ... : ... .. . ... : ... .. 5 ... : ... .. . ... ...
ROW 72 : ... .. B ... ... ... : ... .. D ... ... ... : ... .. . ... : ... .. 4 ... : ... .. . ... ...
ROW 73 : ... .. A ... ... ... : ... .. . ... ... ... : ... .. . ... : ... .. 2 ... : ... .. . ... ...
ROW 74 : ... .. . ... ... ... : ... .. . ... ... ... : ... .. . ... : ... .. 0 ... : ... .. . ... ...
ROW 75 : ... .. 9 ... ... ... : ... .. C ... ... ... : ... .. . ... : ... .. . ... : ... .. . ... ...
ROW 76 : ... .. . ... ... ... : ... .. . ... ... ... : ... .. . ... : ... .. . ... : ... .. . ... ...
ROW 77 : A-2 00 F P7F V03 ... : ... .. F ... ... ... : ... .. . ... : 4-# 00 F ... : ... .. . ... ...
ROW 78 : ... .. . ... V01 ... : ... .. . ... ... ... : ... .. . ... : ... .. E ... : ... .. . ... ...
ROW 79 : ... .. E ... V02 ... : ... .. . ... ... ... : ... .. . ... : ... .. C ... : ... .. . ... ...
ROW 7A : ... .. . ... ... ... : ... .. . ... ... ... : ... .. . ... : ... .. A ... : ... .. . ... ...
ROW 7B : ... .. D ... ... ... : ... .. E ... ... ... : ... .. . ... : ... .. 9 ... : ... .. . ... ...
ROW 7C : ... .. C ... ... ... : ... .. . ... ... ... : ... .. . ... : ... .. 7 ... : ... .. . ... ...
ROW 7D : ... .. . ... ... ... : ... .. . ... ... ... : ... .. . ... : ... .. 5 ... : ... .. . ... ...
ROW 7E : ... .. B ... ... ... : ... .. D ... ... ... : ... .. . ... : ... .. 4 ... : ... .. . ... ...
ROW 7F : ... .. A ... ... ... : ... .. . ... ... ... : ... .. . ... : ... .. 2 ... : ... .. . ... ...
ROW 80 : ... .. . ... ... ... : ... .. . ... ... ... : ... .. . ... : ... .. 0 ... : ... .. . ... ...
ROW 81 : ... .. 9 ... ... ... : ... .. C ... ... ... : ... .. . ... : ... .. . ... : ... .. . ... ...
ROW 82 : ... .. . ... ... ... : ... .. . ... ... ... : ... .. . ... : ... .. . ... : ... .. . ... ...
ROW 83 : A-1 00 F P80 V03 ... : A-3 00 F ... ... ... : ... .. . ... : F-# 00 F ... : ... .. . ... ...
ROW 84 : ... .. . ... V01 ... : ... .. . ... ... ... : ... .. . ... : ... .. E ... : ... .. . ... ...
ROW 85 : ... .. E ... V02 ... : ... .. . ... ... ... : ... .. . ... : ... .. C ... : ... .. . ... ...
ROW 86 : ... .. . ... ... ... : ... .. . ... ... ... : ... .. . ... : ... .. A ... : ... .. . ... ...
ROW 87 : ... .. D ... ... ... : ... .. E ... ... ... : ... .. . ... : ... .. 9 ... : ... .. . ... ...
ROW 88 : ... .. C ... ... ... : ... .. . ... ... ... : ... .. . ... : ... .. 7 ... : ... .. . ... ...
ROW 89 : ... .. . ... ... ... : ... .. . ... ... ... : ... .. . ... : ... .. 5 ... : ... .. . ... ...
ROW 8A : ... .. B ... ... ... : ... .. D ... ... ... : ... .. . ... : ... .. 4 ... : ... .. . ... ...
ROW 8B : ... .. A ... ... ... : ... .. . ... ... ... : ... .. . ... : ... .. 2 ... : ... .. . ... ...
ROW 8C : ... .. . ... ... ... : ... .. . ... ... ... : ... .. . ... : ... .. 0 ... : ... .. . ... ...
ROW 8D : ... .. 9 ... ... ... : ... .. C ... ... ... : ... .. . ... : ... .. . ... : ... .. . ... ...
ROW 8E : ... .. . ... ... ... : ... .. . ... ... ... : ... .. . ... : ... .. . ... : ... .. . ... ...
ROW 8F : G-1 00 F ... V03 ... : G-2 00 F P80 ... ... : ... .. . ... : 0-# 00 F ... : ... .. . ... ...
ROW 90 : ... .. . ... V01 ... : ... .. . ... ... ... : ... .. . ... : ... .. E ... : ... .. . ... ...
ROW 91 : ... .. E ... V02 ... : ... .. . ... ... ... : ... .. . ... : ... .. C ... : ... .. . ... ...
ROW 92 : ... .. . ... ... ... : ... .. . ... ... ... : ... .. . ... : ... .. A ... : ... .. . ... ...
ROW 93 : ... .. D ... ... ... : ... .. E ... ... ... : ... .. . ... : ... .. 9 ... : ... .. . ... ...
ROW 94 : ... .. C ... ... ... : ... .. . ... ... ... : ... .. . ... : ... .. 7 ... : ... .. . ... ...
ROW 95 : ... .. . ... ... ... : ... .. . ... ... ... : ... .. . ... : ... .. 5 ... : ... .. . ... ...
ROW 96 : ... .. B ... ... ... : ... .. D ... ... ... : ... .. . ... : ... .. 4 ... : ... .. . ... ...
ROW 97 : ... .. A ... ... ... : ... .. . ... ... ... : ... .. . ... : ... .. 2 ... : ... .. . ... ...
ROW 98 : ... .. . ... ... ... : ... .. . ... ... ... : ... .. . ... : ... .. 0 ... : ... .. . ... ...
ROW 99 : ... .. 9 ... ... ... : ... .. C ... ... ... : ... .. . ... : ... .. . ... : ... .. . ... ...
ROW 9A : ... .. . ... ... ... : ... .. . ... ... ... : ... .. . ... : ... .. . ... : ... .. . ... ...
ROW 9B : ... .. F ... V03 ... : ... .. F ... ... ... : ... .. . ... : F-# 00 F ... : ... .. . ... ...
ROW 9C : ... .. . ... V01 ... : ... .. . ... ... ... : ... .. . ... : ... .. E ... : ... .. . ... ...
ROW 9D : ... .. E ... V02 ... : ... .. . ... ... ... : ... .. . ... : ... .. C ... : ... .. . ... ...
ROW 9E : ... .. . ... ... ... : ... .. . ... ... ... : ... .. . ... : ... .. A ... : ... .. . ... ...
ROW 9F : ... .. D ... ... ... : ... .. E ... ... ... : ... .. . ... : ... .. 9 ... : ... .. . ... ...
ROW A0 : ... .. C ... ... ... : ... .. . ... ... ... : ... .. . ... : ... .. 7 ... : ... .. . ... ...
ROW A1 : ... .. . ... ... ... : ... .. . ... ... ... : ... .. . ... : ... .. 5 ... : ... .. . ... ...
ROW A2 : ... .. B ... ... ... : ... .. D ... ... ... : ... .. . ... : ... .. 4 ... : ... .. . ... ...
ROW A3 : ... .. A ... ... ... : ... .. . ... ... ... : ... .. . ... : ... .. 2 ... : ... .. . ... ...
ROW A4 : ... .. . ... ... ... : ... .. . ... ... ... : ... .. . ... : ... .. 0 ... : ... .. . ... ...
ROW A5 : ... .. 9 ... ... ... : ... .. C ... ... ... : ... .. . ... : ... .. . ... : ... .. . ... ...
ROW A6 : ... .. . ... ... ... : ... .. . ... ... ... : ... .. . ... : ... .. . ... : ... .. . ... ...
ROW A7 : G-2 00 F ... V03 ... : G-3 00 F P7F ... ... : ... .. . ... : 4-# 00 F ... : ... .. . ... ...
ROW A8 : ... .. . ... V01 ... : ... .. . ... ... ... : ... .. . ... : ... .. E ... : ... .. . ... ...
ROW A9 : ... .. E ... V02 ... : ... .. . ... ... ... : ... .. . ... : ... .. C ... : ... .. . ... ...
ROW AA : ... .. . ... ... ... : ... .. . ... ... ... : ... .. . ... : ... .. A ... : ... .. . ... ...
ROW AB : ... .. D ... ... ... : ... .. E ... ... ... : ... .. . ... : ... .. 9 ... : ... .. . ... ...
ROW AC : ... .. C ... ... ... : ... .. . ... ... ... : ... .. . ... : ... .. 7 ... : ... .. . ... ...
ROW AD : ... .. . ... ... ... : ... .. . ... ... ... : ... .. . ... : ... .. 5 ... : ... .. . ... ...
ROW AE : ... .. B ... ... ... : ... .. D ... ... ... : ... .. . ... : ... .. 4 ... : ... .. . ... ...
ROW AF : ... .. A ... ... ... : ... .. . ... ... ... : ... .. . ... : ... .. 2 ... : ... .. . ... ...
ROW B0 : ... .. . ... ... ... : ... .. . ... ... ... : ... .. . ... : ... .. 0 ... : ... .. . ... ...
ROW B1 : ... .. 9 ... ... ... : ... .. C ... ... ... : ... .. . ... : ... .. . ... : ... .. . ... ...
ROW B2 : ... .. . ... ... ... : ... .. . ... ... ... : ... .. . ... : ... .. . ... : ... .. . ... ...
ROW B3 : G-1 00 F ... V03 ... : G-2 00 F P80 ... ... : ... .. . ... : F-# 00 F ... : ... .. . ... ...
ROW B4 : ... .. . ... V01 ... : ... .. . ... ... ... : ... .. . ... : ... .. E ... : ... .. . ... ...
ROW B5 : ... .. E ... V02 ... : ... .. . ... ... ... : ... .. . ... : ... .. C ... : ... .. . ... ...
ROW B6 : ... .. . ... ... ... : ... .. . ... ... ... : ... .. . ... : ... .. A ... : ... .. . ... ...
ROW B7 : ... .. D ... ... ... : ... .. E ... ... ... : ... .. . ... : ... .. 9 ... : ... .. . ... ...
ROW B8 : ... .. C ... ... ... : ... .. . ... ... ... : ... .. . ... : ... .. 7 ... : ... .. . ... ...
ROW B9 : ... .. . ... ... ... : ... .. . ... ... ... : ... .. . ... : ... .. 5 ... : ... .. . ... ...
ROW BA : ... .. B ... ... ... : ... .. D ... ... ... : ... .. . ... : ... .. 4 ... : ... .. . ... ...
ROW BB : ... .. A ... ... ... : ... .. . ... ... ... : ... .. . ... : ... .. 2 ... : ... .. . ... ...
ROW BC : ... .. . ... ... ... : ... .. . ... ... ... : ... .. . ... : ... .. 0 ... : ... .. . ... ...
ROW BD : ... .. 9 ... ... ... : ... .. C ... ... ... : ... .. . ... : ... .. . ... : ... .. . ... ...
ROW BE : ... .. . ... ... ... : ... .. . ... ... ... : ... .. . ... : ... .. . ... : ... .. . ... ...
ROW BF : A-1 00 F ... V03 ... : A-3 00 F P7F ... ... : ... .. . ... : 0-# 00 F ... : ... .. . ... ...
ROW C0 : ... .. . ... V01 ... : ... .. . ... ... ... : ... .. . ... : ... .. E ... : ... .. . ... ...
ROW C1 : ... .. E ... V02 ... : ... .. . ... ... ... : ... .. . ... : ... .. C ... : ... .. . ... ...
ROW C2 : ... .. . ... ... ... : ... .. . ... ... ... : ... .. . ... : ... .. A ... : ... .. . ... ...
ROW C3 : ... .. D ... ... ... : ... .. E ... ... ... : ... .. . ... : ... .. 9 ... : ... .. . ... ...
ROW C4 : ... .. C ... ... ... : ... .. . ... ... ... : ... .. . ... : ... .. 7 ... : ... .. . ... ...
ROW C5 : ... .. . ... ... ... : ... .. . ... ... ... : ... .. . ... : ... .. 5 ... : ... .. . ... ...
ROW C6 : ... .. B ... ... ... : ... .. D ... ... ... : ... .. . ... : ... .. 4 ... : ... .. . ... ...
ROW C7 : ... .. A ... ... ... : ... .. . ... ... ... : ... .. . ... : ... .. 2 ... : ... .. . ... ...
ROW C8 : ... .. . ... ... ... : ... .. . ... ... ... : ... .. . ... : ... .. 0 ... : ... .. . ... ...
ROW C9 : ... .. 9 ... ... ... : ... .. C ... ... ... : ... .. . ... : ... .. . ... : ... .. . ... ...
ROW CA : ... .. . ... ... ... : ... .. . ... ... ... : ... .. . ... : ... .. . ... : ... .. . ... ...
ROW CB : ... .. F ... V03 ... : A-2 00 F ... ... ... : ... .. . ... : F-# 00 F ... : ... .. . ... ...
ROW CC : ... .. . ... V01 ... : ... .. . ... ... ... : ... .. . ... : ... .. E ... : ... .. . ... ...
ROW CD : ... .. E ... V02 ... : ... .. . ... ... ... : ... .. . ... : ... .. C ... : ... .. . ... ...
ROW CE : ... .. . ... ... ... : ... .. . ... ... ... : ... .. . ... : ... .. A ... : ... .. . ... ...
ROW CF : ... .. D ... ... ... : ... .. E ... ... ... : ... .. . ... : ... .. 9 ... : ... .. . ... ...
ROW D0 : ... .. C ... ... ... : ... .. . ... ... ... : ... .. . ... : ... .. 7 ... : ... .. . ... ...
ROW D1 : ... .. . ... ... ... : ... .. . ... ... ... : ... .. . ... : ... .. 5 ... : ... .. . ... ...
ROW D2 : ... .. B ... ... ... : ... .. D ... ... ... : ... .. . ... : ... .. 4 ... : ... .. . ... ...
ROW D3 : ... .. A ... ... ... : ... .. . ... ... ... : ... .. . ... : ... .. 2 ... : ... .. . ... ...
ROW D4 : ... .. . ... ... ... : ... .. . ... ... ... : ... .. . ... : ... .. 0 ... : ... .. . ... ...
ROW D5 : ... .. 9 ... ... ... : ... .. C ... ... ... : ... .. . ... : ... .. . ... : ... .. . ... ...
ROW D6 : ... .. . ... ... ... : ... .. . ... ... ... : ... .. . ... : ... .. . ... : ... .. . ... ...
ROW D7 : A-2 00 F P7F V03 ... : ... .. F ... ... ... : ... .. . ... : 4-# 00 F ... : ... .. . ... ...
ROW D8 : ... .. . ... V01 ... : ... .. . ... ... ... : ... .. . ... : ... .. E ... : ... .. . ... ...
ROW D9 : ... .. E ... V02 ... : ... .. . ... ... ... : ... .. . ... : ... .. C ... : ... .. . ... ...
ROW DA : ... .. . ... ... ... : ... .. . ... ... ... : ... .. . ... : ... .. A ... : ... .. . ... ...
ROW DB : ... .. D ... ... ... : ... .. E ... ... ... : ... .. . ... : ... .. 9 ... : ... .. . ... ...
ROW DC : ... .. C ... ... ... : ... .. . ... ... ... : ... .. . ... : ... .. 7 ... : ... .. . ... ...
ROW DD : ... .. . ... ... ... : ... .. . ... ... ... : ... .. . ... : ... .. 5 ... : ... .. . ... ...
ROW DE : ... .. B ... ... ... : ... .. D ... ... ... : ... .. . ... : ... .. 4 ... : ... .. . ... ...
ROW DF : ... .. A ... ... ... : ... .. . ... ... ... : ... .. . ... : ... .. 2 ... : ... .. . ... ...
ROW E0 : ... .. . ... ... ... : ... .. . ... ... ... : ... .. . ... : ... .. 0 ... : ... .. . ... ...
ROW E1 : ... .. 9 ... ... ... : ... .. C ... ... ... : ... .. . ... : ... .. . ... : ... .. . ... ...
ROW E2 : ... .. . ... ... ... : ... .. . ... ... ... : ... .. . ... : ... .. . ... : ... .. . ... ...
ROW E3 : A-1 00 F P80 V03 ... : A-3 00 F ... ... ... : ... .. . ... : F-# 00 F ... : ... .. . ... ...
ROW E4 : ... .. . ... V01 ... : ... .. . ... ... ... : ... .. . ... : ... .. E ... : ... .. . ... ...
ROW E5 : ... .. E ... V02 ... : ... .. . ... ... ... : ... .. . ... : ... .. C ... : ... .. . ... ...
ROW E6 : ... .. . ... ... ... : ... .. . ... ... ... : ... .. . ... : ... .. A ... : ... .. . ... ...
ROW E7 : ... .. D ... ... ... : ... .. E ... ... ... : ... .. . ... : ... .. 9 ... : ... .. . ... ...
ROW E8 : ... .. C ... ... ... : ... .. . ... ... ... : ... .. . ... : ... .. 7 ... : ... .. . ... ...
ROW E9 : ... .. . ... ... ... : ... .. . ... ... ... : ... .. . ... : ... .. 5 ... : ... .. . ... ...
ROW EA : ... .. B ... ... ... : ... .. D ... ... ... : ... .. . ... : ... .. 4 ... : ... .. . ... ...
ROW EB : ... .. A ... ... ... : ... .. . ... ... ... : ... .. . ... : ... .. 2 ... : ... .. . ... ...
ROW EC : ... .. . ... ... ... : ... .. . ... ... ... : ... .. . ... : ... .. 0 ... : ... .. . ... ...
ROW ED : ... .. 9 ... ... ... : ... .. C ... ... ... : ... .. . ... : ... .. . ... : ... .. . ... ...
ROW EE : ... .. . ... ... ... : ... .. . ... ... ... : ... .. . ... : ... .. . ... : ... .. . ... ...
ROW EF : ... .. F ... V03 ... : A-2 00 F ... ... ... : ... .. . ... : 0-# 00 F ... : ... .. . ... ...
ROW F0 : ... .. . ... V01 ... : ... .. . ... ... ... : ... .. . ... : ... .. E ... : ... .. . ... ...
ROW F1 : ... .. E ... V02 ... : ... .. . ... ... ... : ... .. . ... : ... .. C ... : ... .. . ... ...
ROW F2 : ... .. . ... ... ... : ... .. . ... ... ... : ... .. . ... : ... .. A ... : ... .. . ... ...
ROW F3 : ... .. D ... ... ... : ... .. E ... ... ... : ... .. . ... : ... .. 9 ... : ... .. . ... ...
ROW F4 : ... .. C ... ... ... : ... .. . ... ... ... : ... .. . ... : ... .. 7 ... : ... .. . ... ...
ROW F5 : ... .. . ... ... ... : ... .. . ... ... ... : ... .. . ... : ... .. 5 ... : ... .. . ... ...
ROW F6 : ... .. B ... ... ... : ... .. D ... ... ... : ... .. . ... : ... .. 4 ... : ... .. . ... ...
ROW F7 : ... .. A ... ... ... : ... .. . ... ... ... : ... .. . ... : ... .. 2 ... : ... .. . ... ...
ROW F8 : ... .. . ... ... ... : ... .. . ... ... ... : ... .. . ... : ... .. 0 ... : ... .. . ... ...
ROW F9 : ... .. 9 ... ... ... : ... .. C ... ... ... : ... .. . ... : ... .. . ... : ... .. . ... ...
ROW FA : ... .. . ... ... ... : ... .. . ... ... ... : ... .. . ... : ... .. . ... : ... .. . ... ...
ROW FB : ... .. F ... V03 ... : ... .. F ... ... ... : ... .. . ... : F-# 00 F ... : ... .. . ... ...
ROW FC : ... .. . ... V01 ... : ... .. . ... ... ... : ... .. . ... : ... .. E ... : ... .. . ... ...
ROW FD : ... .. E ... V02 ... : ... .. . ... ... ... : ... .. . ... : ... .. C ... : ... .. . ... ...
ROW FE : ... .. . ... ... ... : ... .. . ... ... ... : ... .. . ... : ... .. A ... : ... .. . ... ...
ROW FF : ... .. D ... ... ... : ... .. E ... ... ... : ... .. . ... : ... .. 9 ... : ... .. . ... ...

PATTERN 07
ROW 00 : ... .. C ... ... ... : ... .. . ... ... ... : ... .. . ... : ... .. 7 ... : ... .. . ... ...
ROW 01 : ... .. . ... ... ... : ... .. . ... ... ... : ... .. . ... : ... .. 5 ... : ... .. . ... ...
ROW 02 : ... .. B ... ... ... : ... .. D ... ... ... : ... .. . ... : ... .. 4 ... : ... .. . ... ...
ROW 03 : ... .. A ... ... ... : ... .. . ... ... ... : ... .. . ... : ... .. 2 ... : ... .. . ... ...
ROW 04 : ... .. . ... ... ... : ... .. . ... ... ... : ... .. . ... : ... .. 0 ... : ... .. . ... ...
ROW 05 : ... .. 9 ... ... ... : ... .. C ... ... ... : ... .. . ... : ... .. . ... : ... .. . ... ...
ROW 06 : ... .. . ... ... ... : ... .. . ... ... ... : ... .. . ... : ... .. . ... : ... .. . ... ...
ROW 07 : A-2 00 F P7F V03 ... : A-3 00 F ... ... ... : ... .. . ... : 4-# 00 F ... : ... .. . ... ...
ROW 08 : ... .. . ... V01 ... : ... .. . ... ... ... : ... .. . ... : ... .. E ... : ... .. . ... ...
ROW 09 : ... .. E ... V02 ... : ... .. . ... ... ... : ... .. . ... : ... .. C ... : ... .. . ... ...
ROW 0A : ... .. . ... ... ... : ... .. . ... ... ... : ... .. . ... : ... .. A ... : ... .. . ... ...
ROW 0B : ... .. D ... ... ... : ... .. E ... ... ... : ... .. . ... : ... .. 9 ... : ... .. . ... ...
ROW 0C : ... .. C ... ... ... : ... .. . ... ... ... : ... .. . ... : ... .. 7 ... : ... .. . ... ...
ROW 0D : ... .. . ... ... ... : ... .. . ... ... ... : ... .. . ... : ... .. 5 ... : ... .. . ... ...
ROW 0E : ... .. B ... ... ... : ... .. D ... ... ... : ... .. . ... : ... .. 4 ... : ... .. . ... ...
ROW 0F : ... .. A ... ... ... : ... .. . ... ... ... : ... .. . ... : ... .. 2 ... : ... .. . ... ...
ROW 10 : ... .. . ... ... ... : ... .. . ... ... ... : ... .. . ... : ... .. 0 ... : ... .. . ... ...
ROW 11 : ... .. 9 ... ... ... : ... .. C ... ... ... : ... .. . ... : ... .. . ... : ... .. . ... ...
ROW 12 : ... .. . ... ... ... : ... .. . ... ... ... : ... .. . ... : ... .. . ... : ... .. . ... ...
ROW 13 : A-1 00 F P80 V03 ... : A-2 00 F ... ... ... : ... .. . ... : F-# 00 F ... : ... .. . ... ...
ROW 14 : ... .. . ... V01 ... : ... .. . ... ... ... : ... .. . ... : ... .. E ... : ... .. . ... ...
ROW 15 : ... .. E ... V02 ... : ... .. . ... ... ... : ... .. . ... : ... .. C ... : ... .. . ... ...
ROW 16 : ... .. . ... ... ... : ... .. . ... ... ... : ... .. . ... : ... .. A ... : ... .. . ... ...
ROW 17 : ... .. D ... ... ... : ... .. E ... ... ... : ... .. . ... : ... .. 9 ... : ... .. . ... ...
ROW 18 : ... .. C ... ... ... : ... .. . ... ... ... : ... .. . ... : ... .. 7 ... : ... .. . ... ...
ROW 19 : ... .. . ... ... ... : ... .. . ... ... ... : ... .. . ... : ... .. 5 ... : ... .. . ... ...
ROW 1A : ... .. B ... ... ... : ... .. D ... ... ... : ... .. . ... : ... .. 4 ... : ... .. . ... ...
ROW 1B : ... .. A ... ... ... : ... .. . ... ... ... : ... .. . ... : ... .. 2 ... : ... .. . ... ...
ROW 1C : ... .. . ... ... ... : ... .. . ... ... ... : ... .. . ... : ... .. 0 ... : ... .. . ... ...
ROW 1D : ... .. 9 ... ... ... : ... .. C ... ... ... : ... .. . ... : ... .. . ... : ... .. . ... ...
ROW 1E : ... .. . ... ... ... : ... .. . ... ... ... : ... .. . ... : ... .. . ... : ... .. . ... ...
ROW 1F : ... .. F ... V03 ... : A-3 00 F ... ... ... : ... .. . ... : 0-# 00 F ... : ... .. . ... ...
ROW 20 : ... .. . ... V01 ... : ... .. . ... ... ... : ... .. . ... : ... .. E ... : ... .. . ... ...
ROW 21 : ... .. E ... V02 ... : ... .. . ... ... ... : ... .. . ... : ... .. C ... : ... .. . ... ...
ROW 22 : ... .. . ... ... ... : ... .. . ... ... ... : ... .. . ... : ... .. A ... : ... .. . ... ...
ROW 23 : ... .. D ... ... ... : ... .. E ... ... ... : ... .. . ... : ... .. 9 ... : ... .. . ... ...
ROW 24 : ... .. C ... ... ... : ... .. . ... ... ... : ... .. . ... : ... .. 7 ... : ... .. . ... ...
ROW 25 : ... .. . ... ... ... : ... .. . ... ... ... : ... .. . ... : ... .. 5 ... : ... .. . ... ...
ROW 26 : ... .. B ... ... ... : ... .. D ... ... ... : ... .. . ... : ... .. 4 ... : ... .. . ... ...
ROW 27 : ... .. A ... ... ... : ... .. . ... ... ... : ... .. . ... : ... .. 2 ... : ... .. . ... ...
ROW 28 : ... .. . ... ... ... : ... .. . ... ... ... : ... .. . ... : ... .. 0 ... : ... .. . ... ...
ROW 29 : ... .. 9 ... ... ... : ... .. C ... ... ... : ... .. . ... : ... .. . ... : ... .. . ... ...
ROW 2A : ... .. . ... ... ... : ... .. . ... ... ... : ... .. . ... : ... .. . ... : ... .. . ... ...
ROW 2B : ... .. F ... V03 ... : A-2 00 F ... ... ... : ... .. . ... : F-# 00 F ... : ... .. . ... ...
ROW 2C : ... .. . ... V01 ... : ... .. . ... ... ... : ... .. . ... : ... .. E ... : ... .. . ... ...
ROW 2D : ... .. E ... V02 ... : ... .. . ... ... ... : ... .. . ... : ... .. C ... : ... .. . ... ...
ROW 2E : ... .. . ... ... ... : ... .. . ... ... ... : ... .. . ... : ... .. A ... : ... .. . ... ...
ROW 2F : ... .. D ... ... ... : ... .. E ... ... ... : ... .. . ... : ... .. 9 ... : ... .. . ... ...
ROW 30 : ... .. C ... ... ... : ... .. . ... ... ... : ... .. . ... : ... .. 7 ... : ... .. . ... ...
ROW 31 : ... .. . ... ... ... : ... .. . ... ... ... : ... .. . ... : ... .. 5 ... : ... .. . ... ...
ROW 32 : ... .. B ... ... ... : ... .. D ... ... ... : ... .. . ... : ... .. 4 ... : ... .. . ... ...
ROW 33 : ... .. A ... ... ... : ... .. . ... ... ... : ... .. . ... : ... .. 2 ... : ... .. . ... ...
ROW 34 : ... .. . ... ... ... : ... .. . ... ... ... : ... .. . ... : ... .. 0 ... : ... .. . ... ...
ROW 35 : ... .. 9 ... ... ... : ... .. C ... ... ... : ... .. . ... : ... .. . ... : ... .. . ... ...
ROW 36 : ... .. . ... ... ... : ... .. . ... ... ... : ... .. . ... : ... .. . ... : ... .. . ... ...
ROW 37 : A-2 00 F P7F V03 ... : ... .. F ... ... ... : ... .. . ... : 4-# 00 F ... : ... .. . ... ...
ROW 38 : ... .. . ... V01 ... : ... .. . ... ... ... : ... .. . ... : ... .. E ... : ... .. . ... ...
ROW 39 : ... .. E ... V02 ... : ... .. . ... ... ... : ... .. . ... : ... .. C ... : ... .. . ... ...
ROW 3A : ... .. . ... ... ... : ... .. . ... ... ... : ... .. . ... : ... .. A ... : ... .. . ... ...
ROW 3B : ... .. D ... ... ... : ... .. E ... ... ... : ... .. . ... : ... .. 9 ... : ... .. . ... ...
ROW 3C : ... .. C ... ... ... : ... .. . ... ... ... : ... .. . ... : ... .. 7 ... : ... .. . ... ...
ROW 3D : ... .. . ... ... ... : ... .. . ... ... ... : ... .. . ... : ... .. 5 ... : ... .. . ... ...
ROW 3E : ... .. B ... ... ... : ... .. D ... ... ... : ... .. . ... : ... .. 4 ... : ... .. . ... ...
ROW 3F : ... .. A ... ... ... : ... .. . ... ... ... : ... .. . ... : ... .. 2 ... : ... .. . ... ...
ROW 40 : ... .. . ... ... ... : ... .. . ... ... ... : ... .. . ... : ... .. 0 ... : ... .. . ... ...
ROW 41 : ... .. 9 ... ... ... : ... .. C ... ... ... : ... .. . ... : ... .. . ... : ... .. . ... ...
ROW 42 : ... .. . ... ... ... : ... .. . ... ... ... : ... .. . ... : ... .. . ... : ... .. . ... ...
ROW 43 : A-1 00 F P80 V03 ... : A-3 00 F ... ... ... : ... .. . ... : F-# 00 F ... : ... .. . ... ...
ROW 44 : ... .. . ... V01 ... : ... .. . ... ... ... : ... .. . ... : ... .. E ... : ... .. . ... ...
ROW 45 : ... .. E ... V02 ... : ... .. . ... ... ... : ... .. . ... : ... .. C ... : ... .. . ... ...
ROW 46 : ... .. . ... ... ... : ... .. . ... ... ... : ... .. . ... : ... .. A ... : ... .. . ... ...
ROW 47 : ... .. D ... ... ... : ... .. E ... ... ... : ... .. . ... : ... .. 9 ... : ... .. . ... ...
ROW 48 : ... .. C ... ... ... : ... .. . ... ... ... : ... .. . ... : ... .. 7 ... : ... .. . ... ...
ROW 49 : ... .. . ... ... ... : ... .. . ... ... ... : ... .. . ... : ... .. 5 ... : ... .. . ... ...
ROW 4A : ... .. B ... ... ... : ... .. D ... ... ... : ... .. . ... : ... .. 4 ... : ... .. . ... ...
ROW 4B : ... .. A ... ... ... : ... .. . ... ... ... : ... .. . ... : ... .. 2 ... : ... .. . ... ...
ROW 4C : ... .. . ... ... ... : ... .. . ... ... ... : ... .. . ... : ... .. 0 ... : ... .. . ... ...
ROW 4D : ... .. 9 ... ... ... : ... .. C ... ... ... : ... .. . ... : ... .. . ... : ... .. . ... ...
ROW 4E : ... .. . ... ... ... : ... .. . ... ... ... : ... .. . ... : ... .. . ... : ... .. . ... ...
ROW 4F : G-1 00 F ... V03 ... : G-2 00 F P80 ... ... : ... .. . ... : 0-# 00 F ... : ... .. . ... ...
ROW 50 : ... .. . ... V01 ... : ... .. . ... ... ... : ... .. . ... : ... .. E ... : ... .. . ... ...
ROW 51 : ... .. E ... V02 ... : ... .. . ... ... ... : ... .. . ... : ... .. C ... : ... .. . ... ...
ROW 52 : ... .. . ... ... ... : ... .. . ... ... ... : ... .. . ... : ... .. A ... : ... .. . ... ...
ROW 53 : ... .. D ... ... ... : ... .. E ... ... ... : ... .. . ... : ... .. 9 ... : ... .. . ... ...
ROW 54 : ... .. C ... ... ... : ... .. . ... ... ... : ... .. . ... : ... .. 7 ... : ... .. . ... ...
ROW 55 : ... .. . ... ... ... : ... .. . ... ... ... : ... .. . ... : ... .. 5 ... : ... .. . ... ...
ROW 56 : ... .. B ... ... ... : ... .. D ... ... ... : ... .. . ... : ... .. 4 ... : ... .. . ... ...
ROW 57 : ... .. A ... ... ... : ... .. . ... ... ... : ... .. . ... : ... .. 2 ... : ... .. . ... ...
ROW 58 : ... .. . ... ... ... : ... .. . ... ... ... : ... .. . ... : ... .. 0 ... : ... .. . ... ...
ROW 59 : ... .. 9 ... ... ... : ... .. C ... ... ... : ... .. . ... : ... .. . ... : ... .. . ... ...
ROW 5A : ... .. . ... ... ... : ... .. . ... ... ... : ... .. . ... : ... .. . ... : ... .. . ... ...
ROW 5B : ... .. F ... V03 ... : ... .. F ... ... ... : ... .. . ... : F-# 00 F ... : ... .. . ... ...
ROW 5C : ... .. . ... V01 ... : ... .. . ... ... ... : ... .. . ... : ... .. E ... : ... .. . ... ...
ROW 5D : ... .. E ... V02 ... : ... .. . ... ... ... : ... .. . ... : ... .. C ... : ... .. . ... ...
ROW 5E : ... .. . ... ... ... : ... .. . ... ... ... : ... .. . ... : ... .. A ... : ... .. . ... ...
ROW 5F : ... .. D ... ... ... : ... .. E ... ... ... : ... .. . ... : ... .. 9 ... : ... .. . ... ...
ROW 60 : ... .. C ... ... ... : ... .. . ... ... ... : ... .. . ... : ... .. 7 ... : ... .. . ... ...
ROW 61 : ... .. . ... ... ... : ... .. . ... ... ... : ... .. . ... : ... .. 5 ... : ... .. . ... ...
ROW 62 : ... .. B ... ... ... : ... .. D ... ... ... : ... .. . ... : ... .. 4 ... : ... .. . ... ...
ROW 63 : ... .. A ... ... ... : ... .. . ... ... ... : ... .. . ... : ... .. 2 ... : ... .. . ... ...
ROW 64 : ... .. . ... ... ... : ... .. . ... ... ... : ... .. . ... : ... .. 0 ... : ... .. . ... ...
ROW 65 : ... .. 9 ... ... ... : ... .. C ... ... ... : ... .. . ... : ... .. . ... : ... .. . ... ...
ROW 66 : ... .. . ... ... ... : ... .. . ... ... ... : ... .. . ... : ... .. . ... : ... .. . ... ...
ROW 67 : G-2 00 F ... V03 ... : G-3 00 F P7F ... ... : ... .. . ... : 4-# 00 F ... : ... .. . ... ...
ROW 68 : ... .. . ... V01 ... : ... .. . ... ... ... : ... .. . ... : ... .. E ... : ... .. . ... ...
ROW 69 : ... .. E ... V02 ... : ... .. . ... ... ... : ... .. . ... : ... .. C ... : ... .. . ... ...
ROW 6A : ... .. . ... ... ... : ... .. . ... ... ... : ... .. . ... : ... .. A ... : ... .. . ... ...
ROW 6B : ... .. D ... ... ... : ... .. E ... ... ... : ... .. . ... : ... .. 9 ... : ... .. . ... ...
ROW 6C : ... .. C ... ... ... : ... .. . ... ... ... : ... .. . ... : ... .. 7 ... : ... .. . ... ...
ROW 6D : ... .. . ... ... ... : ... .. . ... ... ... : ... .. . ... : ... .. 5 ... : ... .. . ... ...
ROW 6E : ... .. B ... ... ... : ... .. D ... ... ... : ... .. . ... : ... .. 4 ... : ... .. . ... ...
ROW 6F : ... .. A ... ... ... : ... .. . ... ... ... : ... .. . ... : ... .. 2 ... : ... .. . ... ...
ROW 70 : ... .. . ... ... ... : ... .. . ... ... ... : ... .. . ... : ... .. 0 ... : ... .. . ... ...
ROW 71 : ... .. 9 ... ... ... : ... .. C ... ... ... : ... .. . ... : ... .. . ... : ... .. . ... ...
ROW 72 : ... .. . ... ... ... : ... .. . ... ... ... : ... .. . ... : ... .. . ... : ... .. . ... ...
ROW 73 : G-1 00 F ... V03 ... : G-2 00 F P80 ... ... : ... .. . ... : F-# 00 F ... : ... .. . ... ...
ROW 74 : ... .. . ... V01 ... : ... .. . ... ... ... : ... .. . ... : ... .. E ... : ... .. . ... ...
ROW 75 : ... .. E ... V02 ... : ... .. . ... ... ... : ... .. . ... : ... .. C ... : ... .. . ... ...
ROW 76 : ... .. . ... ... ... : ... .. . ... ... ... : ... .. . ... : ... .. A ... : ... .. . ... ...
ROW 77 : ... .. D ... ... ... : ... .. E ... ... ... : ... .. . ... : ... .. 9 ... : ... .. . ... ...
ROW 78 : ... .. C ... ... ... : ... .. . ... ... ... : ... .. . ... : ... .. 7 ... : ... .. . ... ...
ROW 79 : ... .. . ... ... ... : ... .. . ... ... ... : ... .. . ... : ... .. 5 ... : ... .. . ... ...
ROW 7A : ... .. B ... ... ... : ... .. D ... ... ... : ... .. . ... : ... .. 4 ... : ... .. . ... ...
ROW 7B : ... .. A ... ... ... : ... .. . ... ... ... : ... .. . ... : ... .. 2 ... : ... .. . ... ...
ROW 7C : ... .. . ... ... ... : ... .. . ... ... ... : ... .. . ... : ... .. 0 ... : ... .. . ... ...
ROW 7D : ... .. 9 ... ... ... : ... .. C ... ... ... : ... .. . ... : ... .. . ... : ... .. . ... ...
ROW 7E : ... .. . ... ... ... : ... .. . ... ... ... : ... .. . ... : ... .. . ... : ... .. . ... ...
ROW 7F : A-1 00 F ... V03 ... : A-2 00 F P7F ... ... : ... .. . ... : 0-# 00 F ... : ... .. . ... ...
ROW 80 : ... .. . ... V01 ... : ... .. . ... ... ... : ... .. . ... : ... .. E ... : ... .. . ... ...
ROW 81 : ... .. E ... V02 ... : ... .. . ... ... ... : ... .. . ... : ... .. C ... : ... .. . ... ...
ROW 82 : ... .. . ... ... ... : ... .. . ... ... ... : ... .. . ... : ... .. A ... : ... .. . ... ...
ROW 83 : ... .. D ... ... ... : ... .. E ... ... ... : ... .. . ... : ... .. 9 ... : ... .. . ... ...
ROW 84 : ... .. C ... ... ... : ... .. . ... ... ... : ... .. . ... : ... .. 7 ... : ... .. . ... ...
ROW 85 : ... .. . ... ... ... : ... .. . ... ... ... : ... .. . ... : ... .. 5 ... : ... .. . ... ...
ROW 86 : ... .. B ... ... ... : ... .. D ... ... ... : ... .. . ... : ... .. 4 ... : ... .. . ... ...
ROW 87 : ... .. A ... ... ... : ... .. . ... ... ... : ... .. . ... : ... .. 2 ... : ... .. . ... ...
ROW 88 : ... .. . ... ... ... : ... .. . ... ... ... : ... .. . ... : ... .. 0 ... : ... .. . ... ...
ROW 89 : ... .. 9 ... ... ... : ... .. C ... ... ... : ... .. . ... : ... .. . ... : ... .. . ... ...
ROW 8A : ... .. . ... ... ... : ... .. . ... ... ... : ... .. . ... : ... .. . ... : ... .. . ... ...
ROW 8B : ... .. F ... V03 ... : ... .. . ... ... ... : ... .. . ... : F-# 00 F ... : ... .. . ... ...
ROW 8C : ... .. . ... V01 ... : ... .. . ... ... ... : ... .. . ... : ... .. E ... : ... .. . ... ...
ROW 8D : ... .. E ... V02 ... : ... .. B ... ... ... : ... .. . ... : ... .. C ... : ... .. . ... ...
ROW 8E : ... .. . ... ... ... : ... .. . ... ... ... : ... .. . ... : ... .. A ... : ... .. . ... ...
ROW 8F : ... .. D ... ... ... : ... .. . ... ... ... : ... .. . ... : ... .. 9 ... : ... .. . ... ...
ROW 90 : ... .. C ... ... ... : ... .. A ... ... ... : ... .. . ... : ... .. 7 ... : ... .. . ... ...
ROW 91 : ... .. . ... ... ... : ... .. . ... ... ... : ... .. . ... : ... .. 5 ... : ... .. . ... ...
ROW 92 : ... .. B ... ... ... : ... .. . ... ... ... : ... .. . ... : ... .. 4 ... : ... .. . ... ...
ROW 93 : ... .. A ... ... ... : ... .. 9 ... ... ... : ... .. . ... : ... .. 2 ... : ... .. . ... ...
ROW 94 : ... .. . ... ... ... : ... .. . ... ... ... : ... .. . ... : ... .. 0 ... : ... .. . ... ...
ROW 95 : ... .. 9 ... ... ... : ... .. . ... ... ... : ... .. . ... : ... .. . ... : ... .. . ... ...
ROW 96 : ... .. . ... ... ... : ... .. 8 ... ... ... : ... .. . ... : ... .. . ... : ... .. . ... ...
ROW 97 : A-2 00 F P7F V03 ... : C-3 00 F ... ... ... : ... .. . ... : 4-# 00 F ... : ... .. . ... ...
ROW 98 : ... .. . ... V01 ... : ... .. . ... ... ... : ... .. . ... : ... .. E ... : ... .. . ... ...
ROW 99 : ... .. E ... V02 ... : ... .. . ... ... ... : ... .. . ... : ... .. C ... : ... .. . ... ...
ROW 9A : ... .. . ... ... ... : ... .. . ... ... ... : ... .. . ... : ... .. A ... : ... .. . ... ...
ROW 9B : ... .. D ... ... ... : ... .. E ... ... ... : ... .. . ... : ... .. 9 ... : ... .. . ... ...
ROW 9C : ... .. C ... ... ... : ... .. . ... ... ... : ... .. . ... : ... .. 7 ... : ... .. . ... ...
ROW 9D : ... .. . ... ... ... : ... .. . ... ... ... : ... .. . ... : ... .. 5 ... : ... .. . ... ...
ROW 9E : ... .. B ... ... ... : ... .. D ... ... ... : ... .. . ... : ... .. 4 ... : ... .. . ... ...
ROW 9F : ... .. A ... ... ... : ... .. . ... ... ... : ... .. . ... : ... .. 2 ... : ... .. . ... ...
ROW A0 : ... .. . ... ... ... : ... .. . ... ... ... : ... .. . ... : ... .. 0 ... : ... .. . ... ...
ROW A1 : ... .. 9 ... ... ... : ... .. C ... ... ... : ... .. . ... : ... .. . ... : ... .. . ... ...
ROW A2 : ... .. . ... ... ... : ... .. . ... ... ... : ... .. . ... : ... .. . ... : ... .. . ... ...
ROW A3 : A-1 00 F P80 V03 ... : ... .. . ... ... ... : ... .. . ... : F-# 00 F ... : ... .. . ... ...
ROW A4 : ... .. . ... V01 ... : ... .. . ... ... ... : ... .. . ... : ... .. E ... : ... .. . ... ...
ROW A5 : ... .. E ... V02 ... : ... .. B ... ... ... : ... .. . ... : ... .. C ... : ... .. . ... ...
ROW A6 : ... .. . ... ... ... : ... .. . ... ... ... : ... .. . ... : ... .. A ... : ... .. . ... ...
ROW A7 : ... .. D ... ... ... : ... .. . ... ... ... : ... .. . ... : ... .. 9 ... : ... .. . ... ...
ROW A8 : ... .. C ... ... ... : ... .. A ... ... ... : ... .. . ... : ... .. 7 ... : ... .. . ... ...
ROW A9 : ... .. . ... ... ... : ... .. . ... ... ... : ... .. . ... : ... .. 5 ... : ... .. . ... ...
ROW AA : ... .. B ... ... ... : ... .. . ... ... ... : ... .. . ... : ... .. 4 ... : ... .. . ... ...
ROW AB : ... .. A ... ... ... : ... .. 9 ... ... ... : ... .. . ... : ... .. 2 ... : ... .. . ... ...
ROW AC : ... .. . ... ... ... : ... .. . ... ... ... : ... .. . ... : ... .. 0 ... : ... .. . ... ...
ROW AD : ... .. 9 ... ... ... : ... .. . ... ... ... : ... .. . ... : ... .. . ... : ... .. . ... ...
ROW AE : ... .. . ... ... ... : ... .. 8 ... ... ... : ... .. . ... : ... .. . ... : ... .. . ... ...
ROW AF : ... .. F ... V03 ... : E-3 00 F P7E ... ... : ... .. . ... : 0-# 00 F ... : ... .. . ... ...
ROW B0 : ... .. . ... V01 ... : ... .. . ... ... ... : ... .. . ... : ... .. E ... : ... .. . ... ...
ROW B1 : ... .. E ... V02 ... : ... .. . ... ... ... : ... .. . ... : ... .. C ... : ... .. . ... ...
ROW B2 : ... .. . ... ... ... : ... .. . ... ... ... : ... .. . ... : ... .. A ... : ... .. . ... ...
ROW B3 : ... .. D ... ... ... : ... .. E ... ... ... : ... .. . ... : ... .. 9 ... : ... .. . ... ...
ROW B4 : ... .. C ... ... ... : ... .. . ... ... ... : ... .. . ... : ... .. 7 ... : ... .. . ... ...
ROW B5 : ... .. . ... ... ... : ... .. . ... ... ... : ... .. . ... : ... .. 5 ... : ... .. . ... ...
ROW B6 : ... .. B ... ... ... : ... .. D ... ... ... : ... .. . ... : ... .. 4 ... : ... .. . ... ...
ROW B7 : ... .. A ... ... ... : ... .. . ... ... ... : ... .. . ... : ... .. 2 ... : ... .. . ... ...
ROW B8 : ... .. . ... ... ... : ... .. . ... ... ... : ... .. . ... : ... .. 0 ... : ... .. . ... ...
ROW B9 : ... .. 9 ... ... ... : ... .. C ... ... ... : ... .. . ... : ... .. . ... : ... .. . ... ...
ROW BA : ... .. . ... ... ... : ... .. . ... ... ... : ... .. . ... : ... .. . ... : ... .. . ... ...
ROW BB : ... .. F ... V03 ... : ... .. . ... ... ... : ... .. . ... : F-# 00 F ... : ... .. . ... ...
ROW BC : ... .. . ... V01 ... : ... .. . ... ... ... : ... .. . ... : ... .. E ... : ... .. . ... ...
ROW BD : ... .. E ... V02 ... : ... .. B ... ... ... : ... .. . ... : ... .. C ... : ... .. . ... ...
ROW BE : ... .. . ... ... ... : ... .. . ... ... ... : ... .. . ... : ... .. A ... : ... .. . ... ...
ROW BF : ... .. D ... ... ... : ... .. . ... ... ... : ... .. . ... : ... .. 9 ... : ... .. . ... ...
ROW C0 : ... .. C ... ... ... : ... .. A ... ... ... : ... .. . ... : ... .. 7 ... : ... .. . ... ...
ROW C1 : ... .. . ... ... ... : ... .. . ... ... ... : ... .. . ... : ... .. 5 ... : ... .. . ... ...
ROW C2 : ... .. B ... ... ... : ... .. . ... ... ... : ... .. . ... : ... .. 4 ... : ... .. . ... ...
ROW C3 : ... .. A ... ... ... : ... .. 9 ... ... ... : ... .. . ... : ... .. 2 ... : ... .. . ... ...
ROW C4 : ... .. . ... ... ... : ... .. . ... ... ... : ... .. . ... : ... .. 0 ... : ... .. . ... ...
ROW C5 : ... .. 9 ... ... ... : ... .. . ... ... ... : ... .. . ... : ... .. . ... : ... .. . ... ...
ROW C6 : ... .. . ... ... ... : ... .. 8 ... ... ... : ... .. . ... : ... .. . ... : ... .. . ... ...
ROW C7 : A-2 00 F P7F V03 ... : A-3 00 F P7F ... ... : ... .. . ... : 4-# 00 F ... : ... .. . ... ...
ROW C8 : ... .. . ... V01 ... : C-4 00 F ... ... ... : ... .. . ... : ... .. E ... : ... .. . ... ...
ROW C9 : ... .. E ... V02 ... : E-4 00 F ... ... ... : ... .. . ... : ... .. C ... : ... .. . ... ...
ROW CA : ... .. . ... ... ... : A-3 00 F ... ... ... : ... .. . ... : ... .. A ... : ... .. . ... ...
ROW CB : ... .. D ... ... ... : C-4 00 E ... ... ... : ... .. . ... : ... .. 9 ... : ... .. . ... ...
ROW CC : ... .. C ... ... ... : E-4 00 E ... ... ... : ... .. . ... : ... .. 7 ... : ... .. . ... ...
ROW CD : ... .. . ... ... ... : A-3 00 E ... ... ... : ... .. . ... : ... .. 5 ... : ... .. . ... ...
ROW CE : ... .. B ... ... ... : C-4 00 D ... ... ... : ... .. . ... : ... .. 4 ... : ... .. . ... ...
ROW CF : ... .. A ... ... ... : E-4 00 D ... ... ... : ... .. . ... : ... .. 2 ... : ... .. . ... ...
ROW D0 : ... .. . ... ... ... : A-3 00 D ... ... ... : ... .. . ... : ... .. 0 ... : ... .. . ... ...
ROW D1 : ... .. 9 ... ... ... : C-4 00 C ... ... ... : ... .. . ... : ... .. . ... : ... .. . ... ...
ROW D2 : ... .. . ... ... ... : E-4 00 C ... ... ... : ... .. . ... : ... .. . ... : ... .. . ... ...
ROW D3 : A-1 00 F P80 V03 ... : A-3 00 C ... ... ... : ... .. . ... : F-# 00 F ... : ... .. . ... ...
ROW D4 : ... .. . ... V01 ... : C-4 00 C ... ... ... : ... .. . ... : ... .. E ... : ... .. . ... ...
ROW D5 : ... .. E ... V02 ... : E-4 00 B ... ... ... : ... .. . ... : ... .. C ... : ... .. . ... ...
ROW D6 : ... .. . ... ... ... : A-3 00 B ... ... ... : ... .. . ... : ... .. A ... : ... .. . ... ...
ROW D7 : ... .. D ... ... ... : C-4 00 B ... ... ... : ... .. . ... : ... .. 9 ... : ... .. . ... ...
ROW D8 : ... .. C ... ... ... : E-4 00 A ... ... ... : ... .. . ... : ... .. 7 ... : ... .. . ... ...
ROW D9 : ... .. . ... ... ... : A-3 00 A ... ... ... : ... .. . ... : ... .. 5 ... : ... .. . ... ...
ROW DA : ... .. B ... ... ... : C-4 00 A ... ... ... : ... .. . ... : ... .. 4 ... : ... .. . ... ...
ROW DB : ... .. A ... ... ... : E-4 00 9 ... ... ... : ... .. . ... : ... .. 2 ... : ... .. . ... ...
ROW DC : ... .. . ... ... ... : A-3 00 9 ... ... ... : ... .. . ... : ... .. 0 ... : ... .. . ... ...
ROW DD : ... .. 9 ... ... ... : C-4 00 9 ... ... ... : ... .. . ... : ... .. . ... : ... .. . ... ...
ROW DE : ... .. . ... ... ... : E-4 00 8 ... ... ... : ... .. . ... : ... .. . ... : ... .. . ... ...
ROW DF : ... .. F ... V03 ... : A-2 00 F ... ... ... : ... .. . ... : 0-# 00 F ... : ... .. . ... ...
ROW E0 : ... .. . ... V01 ... : ... .. . ... ... ... : ... .. . ... : ... .. E ... : ... .. . ... ...
ROW E1 : ... .. E ... V02 ... : ... .. . ... ... ... : ... .. . ... : ... .. C ... : ... .. . ... ...
ROW E2 : ... .. . ... ... ... : ... .. . ... ... ... : ... .. . ... : ... .. A ... : ... .. . ... ...
ROW E3 : ... .. D ... ... ... : ... .. E ... ... ... : ... .. . ... : ... .. 9 ... : ... .. . ... ...
ROW E4 : ... .. C ... ... ... : ... .. . ... ... ... : ... .. . ... : ... .. 7 ... : ... .. . ... ...
ROW E5 : ... .. . ... ... ... : ... .. . ... ... ... : ... .. . ... : ... .. 5 ... : ... .. . ... ...
ROW E6 : ... .. B ... ... ... : ... .. D ... ... ... : ... .. . ... : ... .. 4 ... : ... .. . ... ...
ROW E7 : ... .. A ... ... ... : ... .. . ... ... ... : ... .. . ... : ... .. 2 ... : ... .. . ... ...
ROW E8 : ... .. . ... ... ... : ... .. . ... ... ... : ... .. . ... : ... .. 0 ... : ... .. . ... ...
ROW E9 : ... .. 9 ... ... ... : ... .. C ... ... ... : ... .. . ... : ... .. . ... : ... .. . ... ...
ROW EA : ... .. . ... ... ... : ... .. . ... ... ... : ... .. . ... : ... .. . ... : ... .. . ... ...
ROW EB : ... .. F ... V03 ... : ... .. . ... ... ... : ... .. . ... : F-# 00 F ... : ... .. . ... ...
ROW EC : ... .. . ... V01 ... : ... .. . ... ... ... : ... .. . ... : ... .. E ... : ... .. . ... ...
ROW ED : ... .. E ... V02 ... : ... .. B ... ... ... : ... .. . ... : ... .. C ... : ... .. . ... ...
ROW EE : ... .. . ... ... ... : ... .. . ... ... ... : ... .. . ... : ... .. A ... : ... .. . ... ...
ROW EF : ... .. D ... ... ... : ... .. . ... ... ... : ... .. . ... : ... .. 9 ... : ... .. . ... ...
ROW F0 : ... .. C ... ... ... : ... .. A ... ... ... : ... .. . ... : ... .. 7 ... : ... .. . ... ...
ROW F1 : ... .. . ... ... ... : ... .. . ... ... ... : ... .. . ... : ... .. 5 ... : ... .. . ... ...
ROW F2 : ... .. B ... ... ... : ... .. . ... ... ... : ... .. . ... : ... .. 4 ... : ... .. . ... ...
ROW F3 : ... .. A ... ... ... : ... .. 9 ... ... ... : ... .. . ... : ... .. 2 ... : ... .. . ... ...
ROW F4 : ... .. . ... ... ... : ... .. . ... ... ... : ... .. . ... : ... .. 0 ... : ... .. . ... ...
ROW F5 : ... .. 9 ... ... ... : ... .. . ... ... ... : ... .. . ... : ... .. . ... : ... .. . ... ...
ROW F6 : ... .. . ... ... ... : ... .. 8 ... ... ... : ... .. . ... : ... .. . ... : ... .. . ... ...
ROW F7 : A-2 00 F P7F V03 ... : C-3 00 F ... ... ... : ... .. . ... : 4-# 00 F ... : ... .. . ... ...
ROW F8 : ... .. . ... V01 ... : ... .. . ... ... ... : ... .. . ... : ... .. E ... : ... .. . ... ...
ROW F9 : ... .. E ... V02 ... : ... .. . ... ... ... : ... .. . ... : ... .. C ... : ... .. . ... ...
ROW FA : ... .. . ... ... ... : ... .. . ... ... ... : ... .. . ... : ... .. A ... : ... .. . ... ...
ROW FB : ... .. D ... ... ... : ... .. E ... ... ... : ... .. . ... : ... .. 9 ... : ... .. . ... ...
ROW FC : ... .. C ... ... ... : ... .. . ... ... ... : ... .. . ... : ... .. 7 ... : ... .. . ... ...
ROW FD : ... .. . ... ... ... : ... .. . ... ... ... : ... .. . ... : ... .. 5 ... : ... .. . ... ...
ROW FE : ... .. B ... ... ... : ... .. D ... ... ... : ... .. . ... : ... .. 4 ... : ... .. . ... ...
ROW FF : ... .. A ... ... ... : ... .. . ... ... ... : ... .. . ... : ... .. 2 ... : ... .. . ... ...

PATTERN 08
ROW 00 : ... .. . ... ... ... : ... .. . ... ... ... : ... .. . ... : ... .. 0 ... : ... .. . ... ...
ROW 01 : ... .. 9 ... ... ... : ... .. C ... ... ... : ... .. . ... : ... .. . ... : ... .. . ... ...
ROW 02 : ... .. . ... ... ... : ... .. . ... ... ... : ... .. . ... : ... .. . ... : ... .. . ... ...
ROW 03 : A-1 00 F P80 V03 ... : ... .. . ... ... ... : ... .. . ... : F-# 00 F ... : ... .. . ... ...
ROW 04 : ... .. . ... V01 ... : ... .. . ... ... ... : ... .. . ... : ... .. E ... : ... .. . ... ...
ROW 05 : ... .. E ... V02 ... : ... .. B ... ... ... : ... .. . ... : ... .. C ... : ... .. . ... ...
ROW 06 : ... .. . ... ... ... : ... .. . ... ... ... : ... .. . ... : ... .. A ... : ... .. . ... ...
ROW 07 : ... .. D ... ... ... : ... .. . ... ... ... : ... .. . ... : ... .. 9 ... : ... .. . ... ...
ROW 08 : ... .. C ... ... ... : ... .. A ... ... ... : ... .. . ... : ... .. 7 ... : ... .. . ... ...
ROW 09 : ... .. . ... ... ... : ... .. . ... ... ... : ... .. . ... : ... .. 5 ... : ... .. . ... ...
ROW 0A : ... .. B ... ... ... : ... .. . ... ... ... : ... .. . ... : ... .. 4 ... : ... .. . ... ...
ROW 0B : ... .. A ... ... ... : ... .. 9 ... ... ... : ... .. . ... : ... .. 2 ... : ... .. . ... ...
ROW 0C : ... .. . ... ... ... : ... .. . ... ... ... : ... .. . ... : ... .. 0 ... : ... .. . ... ...
ROW 0D : ... .. 9 ... ... ... : ... .. . ... ... ... : ... .. . ... : ... .. . ... : ... .. . ... ...
ROW 0E : ... .. . ... ... ... : ... .. 8 ... ... ... : ... .. . ... : ... .. . ... : ... .. . ... ...
ROW 0F : G-1 00 F ... V03 ... : G-2 00 F P80 ... ... : ... .. . ... : 0-# 00 F ... : ... .. . ... ...
ROW 10 : ... .. . ... V01 ... : ... .. . ... ... ... : ... .. . ... : ... .. E ... : ... .. . ... ...
ROW 11 : ... .. E ... V02 ... : ... .. . ... ... ... : ... .. . ... : ... .. C ... : ... .. . ... ...
ROW 12 : ... .. . ... ... ... : ... .. . ... ... ... : ... .. . ... : ... .. A ... : ... .. . ... ...
ROW 13 : ... .. D ... ... ... : ... .. E ... ... ... : ... .. . ... : ... .. 9 ... : ... .. . ... ...
ROW 14 : ... .. C ... ... ... : ... .. . ... ... ... : ... .. . ... : ... .. 7 ... : ... .. . ... ...
ROW 15 : ... .. . ... ... ... : ... .. . ... ... ... : ... .. . ... : ... .. 5 ... : ... .. . ... ...
ROW 16 : ... .. B ... ... ... : ... .. D ... ... ... : ... .. . ... : ... .. 4 ... : ... .. . ... ...
ROW 17 : ... .. A ... ... ... : ... .. . ... ... ... : ... .. . ... : ... .. 2 ... : ... .. . ... ...
ROW 18 : ... .. . ... ... ... : ... .. . ... ... ... : ... .. . ... : ... .. 0 ... : ... .. . ... ...
ROW 19 : ... .. 9 ... ... ... : ... .. C ... ... ... : ... .. . ... : ... .. . ... : ... .. . ... ...
ROW 1A : ... .. . ... ... ... : ... .. . ... ... ... : ... .. . ... : ... .. . ... : ... .. . ... ...
ROW 1B : ... .. F ... V03 ... : ... .. . ... ... ... : ... .. . ... : F-# 00 F ... : ... .. . ... ...
ROW 1C : ... .. . ... V01 ... : ... .. . ... ... ... : ... .. . ... : ... .. E ... : ... .. . ... ...
ROW 1D : ... .. E ... V02 ... : ... .. B ... ... ... : ... .. . ... : ... .. C ... : ... .. . ... ...
ROW 1E : ... .. . ... ... ... : ... .. . ... ... ... : ... .. . ... : ... .. A ... : ... .. . ... ...
ROW 1F : ... .. D ... ... ... : ... .. . ... ... ... : ... .. . ... : ... .. 9 ... : ... .. . ... ...
ROW 20 : ... .. C ... ... ... : ... .. A ... ... ... : ... .. . ... : ... .. 7 ... : ... .. . ... ...
ROW 21 : ... .. . ... ... ... : ... .. . ... ... ... : ... .. . ... : ... .. 5 ... : ... .. . ... ...
ROW 22 : ... .. B ... ... ... : ... .. . ... ... ... : ... .. . ... : ... .. 4 ... : ... .. . ... ...
ROW 23 : ... .. A ... ... ... : ... .. 9 ... ... ... : ... .. . ... : ... .. 2 ... : ... .. . ... ...
ROW 24 : ... .. . ... ... ... : ... .. . ... ... ... : ... .. . ... : ... .. 0 ... : ... .. . ... ...
ROW 25 : ... .. 9 ... ... ... : ... .. . ... ... ... : ... .. . ... : ... .. . ... : ... .. . ... ...
ROW 26 : ... .. . ... ... ... : ... .. 8 ... ... ... : ... .. . ... : ... .. . ... : ... .. . ... ...
ROW 27 : G-2 00 F ... V03 ... : A-2 00 F P7F ... ... : ... .. . ... : 4-# 00 F ... : ... .. . ... ...
ROW 28 : ... .. . ... V01 ... : ... .. . ... ... ... : ... .. . ... : ... .. E ... : ... .. . ... ...
ROW 29 : ... .. E ... V02 ... : ... .. . ... ... ... : ... .. . ... : ... .. C ... : ... .. . ... ...
ROW 2A : ... .. . ... ... ... : ... .. . ... ... ... : ... .. . ... : ... .. A ... : ... .. . ... ...
ROW 2B : ... .. D ... ... ... : ... .. E ... ... ... : ... .. . ... : ... .. 9 ... : ... .. . ... ...
ROW 2C : ... .. C ... ... ... : ... .. . ... ... ... : ... .. . ... : ... .. 7 ... : ... .. . ... ...
ROW 2D : ... .. . ... ... ... : ... .. . ... ... ... : ... .. . ... : ... .. 5 ... : ... .. . ... ...
ROW 2E : ... .. B ... ... ... : ... .. D ... ... ... : ... .. . ... : ... .. 4 ... : ... .. . ... ...
ROW 2F : ... .. A ... ... ... : ... .. . ... ... ... : ... .. . ... : ... .. 2 ... : ... .. . ... ...
ROW 30 : ... .. . ... ... ... : ... .. . ... ... ... : ... .. . ... : ... .. 0 ... : ... .. . ... ...
ROW 31 : ... .. 9 ... ... ... : ... .. C ... ... ... : ... .. . ... : ... .. . ... : ... .. . ... ...
ROW 32 : ... .. . ... ... ... : ... .. . ... ... ... : ... .. . ... : ... .. . ... : ... .. . ... ...
ROW 33 : G-1 00 F ... V03 ... : ... .. . ... ... ... : ... .. . ... : F-# 00 F ... : ... .. . ... ...
ROW 34 : ... .. . ... V01 ... : ... .. . ... ... ... : ... .. . ... : ... .. E ... : ... .. . ... ...
ROW 35 : ... .. E ... V02 ... : ... .. B ... ... ... : ... .. . ... : ... .. C ... : ... .. . ... ...
ROW 36 : ... .. . ... ... ... : ... .. . ... ... ... : ... .. . ... : ... .. A ... : ... .. . ... ...
ROW 37 : ... .. D ... ... ... : ... .. . ... ... ... : ... .. . ... : ... .. 9 ... : ... .. . ... ...
ROW 38 : ... .. C ... ... ... : ... .. A ... ... ... : ... .. . ... : ... .. 7 ... : ... .. . ... ...
ROW 39 : ... .. . ... ... ... : ... .. . ... ... ... : ... .. . ... : ... .. 5 ... : ... .. . ... ...
ROW 3A : ... .. B ... ... ... : ... .. . ... ... ... : ... .. . ... : ... .. 4 ... : ... .. . ... ...
ROW 3B : ... .. A ... ... ... : ... .. 9 ... ... ... : ... .. . ... : ... .. 2 ... : ... .. . ... ...
ROW 3C : ... .. . ... ... ... : ... .. . ... ... ... : ... .. . ... : ... .. 0 ... : ... .. . ... ...
ROW 3D : ... .. 9 ... ... ... : ... .. . ... ... ... : ... .. . ... : ... .. . ... : ... .. . ... ...
ROW 3E : ... .. . ... ... ... : ... .. 8 ... ... ... : ... .. . ... : ... .. . ... : ... .. . ... ...
ROW 3F : A-1 00 F ... V03 ... : E-3 00 F P7E ... ... : ... .. . ... : 0-# 00 F ... : ... .. . ... ...
ROW 40 : ... .. . ... V01 ... : ... .. . ... ... ... : ... .. . ... : ... .. E ... : ... .. . ... ...
ROW 41 : ... .. E ... V02 ... : ... .. . ... ... ... : ... .. . ... : ... .. C ... : ... .. . ... ...
ROW 42 : ... .. . ... ... ... : ... .. . ... ... ... : ... .. . ... : ... .. A ... : ... .. . ... ...
ROW 43 : ... .. D ... ... ... : ... .. E ... ... ... : ... .. . ... : ... .. 9 ... : ... .. . ... ...
ROW 44 : ... .. C ... ... ... : ... .. . ... ... ... : ... .. . ... : ... .. 7 ... : ... .. . ... ...
ROW 45 : ... .. . ... ... ... : ... .. . ... ... ... : ... .. . ... : ... .. 5 ... : ... .. . ... ...
ROW 46 : ... .. B ... ... ... : ... .. D ... ... ... : ... .. . ... : ... .. 4 ... : ... .. . ... ...
ROW 47 : ... .. A ... ... ... : ... .. . ... ... ... : ... .. . ... : ... .. 2 ... : ... .. . ... ...
ROW 48 : ... .. . ... ... ... : ... .. . ... ... ... : ... .. . ... : ... .. 0 ... : ... .. . ... ...
ROW 49 : ... .. 9 ... ... ... : ... .. C ... ... ... : ... .. . ... : ... .. . ... : ... .. . ... ...
ROW 4A : ... .. . ... ... ... : ... .. . ... ... ... : ... .. . ... : ... .. . ... : ... .. . ... ...
ROW 4B : ... .. F ... V03 ... : ... .. . ... ... ... : ... .. . ... : F-# 00 F ... : ... .. . ... ...
ROW 4C : ... .. . ... V01 ... : ... .. . ... ... ... : ... .. . ... : ... .. E ... : ... .. . ... ...
ROW 4D : ... .. E ... V02 ... : ... .. B ... ... ... : ... .. . ... : ... .. C ... : ... .. . ... ...
ROW 4E : ... .. . ... ... ... : ... .. . ... ... ... : ... .. . ... : ... .. A ... : ... .. . ... ...
ROW 4F : ... .. D ... ... ... : ... .. . ... ... ... : ... .. . ... : ... .. 9 ... : ... .. . ... ...
ROW 50 : ... .. C ... ... ... : ... .. A ... ... ... : ... .. . ... : ... .. 7 ... : ... .. . ... ...
ROW 51 : ... .. . ... ... ... : ... .. . ... ... ... : ... .. . ... : ... .. 5 ... : ... .. . ... ...
ROW 52 : ... .. B ... ... ... : ... .. . ... ... ... : ... .. . ... : ... .. 4 ... : ... .. . ... ...
ROW 53 : ... .. A ... ... ... : ... .. 9 ... ... ... : ... .. . ... : ... .. 2 ... : ... .. . ... ...
ROW 54 : ... .. . ... ... ... : ... .. . ... ... ... : ... .. . ... : ... .. 0 ... : ... .. . ... ...
ROW 55 : ... .. 9 ... ... ... : ... .. . ... ... ... : ... .. . ... : ... .. . ... : ... .. . ... ...
ROW 56 : ... .. . ... ... ... : ... .. 8 ... ... ... : ... .. . ... : ... .. . ... : ... .. . ... ...
ROW 57 : A-2 00 F P7F V03 ... : D-3 00 F P7F ... ... : ... .. . ... : 4-# 00 F ... : ... .. . ... ...
ROW 58 : ... .. . ... V01 ... : ... .. . ... ... ... : ... .. . ... : ... .. E ... : ... .. . ... ...
ROW 59 : ... .. E ... V02 ... : ... .. . ... ... ... : ... .. . ... : ... .. C ... : ... .. . ... ...
ROW 5A : ... .. . ... ... ... : ... .. . ... ... ... : ... .. . ... : ... .. A ... : ... .. . ... ...
ROW 5B : ... .. D ... ... ... : ... .. E ... ... ... : ... .. . ... : ... .. 9 ... : ... .. . ... ...
ROW 5C : ... .. C ... ... ... : ... .. . ... ... ... : ... .. . ... : ... .. 7 ... : ... .. . ... ...
ROW 5D : ... .. . ... ... ... : ... .. . ... ... ... : ... .. . ... : ... .. 5 ... : ... .. . ... ...
ROW 5E : ... .. B ... ... ... : ... .. D ... ... ... : ... .. . ... : ... .. 4 ... : ... .. . ... ...
ROW 5F : ... .. A ... ... ... : ... .. . ... ... ... : ... .. . ... : ... .. 2 ... : ... .. . ... ...
ROW 60 : ... .. . ... ... ... : ... .. . ... ... ... : ... .. . ... : ... .. 0 ... : ... .. . ... ...
ROW 61 : ... .. 9 ... ... ... : ... .. C ... ... ... : ... .. . ... : ... .. . ... : ... .. . ... ...
ROW 62 : ... .. . ... ... ... : ... .. . ... ... ... : ... .. . ... : ... .. . ... : ... .. . ... ...
ROW 63 : A-1 00 F P80 V03 ... : ... .. . ... ... ... : ... .. . ... : F-# 00 F ... : ... .. . ... ...
ROW 64 : ... .. . ... V01 ... : ... .. . ... ... ... : ... .. . ... : ... .. E ... : ... .. . ... ...
ROW 65 : ... .. E ... V02 ... : ... .. B ... ... ... : ... .. . ... : ... .. C ... : ... .. . ... ...
ROW 66 : ... .. . ... ... ... : ... .. . ... ... ... : ... .. . ... : ... .. A ... : ... .. . ... ...
ROW 67 : ... .. D ... ... ... : ... .. . ... ... ... : ... .. . ... : ... .. 9 ... : ... .. . ... ...
ROW 68 : ... .. C ... ... ... : ... .. A ... ... ... : ... .. . ... : ... .. 7 ... : ... .. . ... ...
ROW 69 : ... .. . ... ... ... : ... .. . ... ... ... : ... .. . ... : ... .. 5 ... : ... .. . ... ...
ROW 6A : ... .. B ... ... ... : ... .. . ... ... ... : ... .. . ... : ... .. 4 ... : ... .. . ... ...
ROW 6B : ... .. A ... ... ... : ... .. 9 ... ... ... : ... .. . ... : ... .. 2 ... : ... .. . ... ...
ROW 6C : ... .. . ... ... ... : ... .. . ... ... ... : ... .. . ... : ... .. 0 ... : ... .. . ... ...
ROW 6D : ... .. 9 ... ... ... : ... .. . ... ... ... : ... .. . ... : ... .. . ... : ... .. . ... ...
ROW 6E : ... .. . ... ... ... : ... .. 8 ... ... ... : ... .. . ... : ... .. . ... : ... .. . ... ...
ROW 6F : ... .. F ... V03 ... : C-3 00 F ... ... ... : ... .. . ... : 0-# 00 F ... : ... .. . ... ...
ROW 70 : ... .. . ... V01 ... : ... .. . ... ... ... : ... .. . ... : ... .. E ... : ... .. . ... ...
ROW 71 : ... .. E ... V02 ... : ... .. . ... ... ... : ... .. . ... : ... .. C ... : ... .. . ... ...
ROW 72 : ... .. . ... ... ... : ... .. . ... ... ... : ... .. . ... : ... .. A ... : ... .. . ... ...
ROW 73 : ... .. D ... ... ... : ... .. E ... ... ... : ... .. . ... : ... .. 9 ... : ... .. . ... ...
ROW 74 : ... .. C ... ... ... : ... .. . ... ... ... : ... .. . ... : ... .. 7 ... : ... .. . ... ...
ROW 75 : ... .. . ... ... ... : ... .. . ... ... ... : ... .. . ... : ... .. 5 ... : ... .. . ... ...
ROW 76 : ... .. B ... ... ... : ... .. D ... ... ... : ... .. . ... : ... .. 4 ... : ... .. . ... ...
ROW 77 : ... .. A ... ... ... : ... .. . ... ... ... : ... .. . ... : ... .. 2 ... : ... .. . ... ...
ROW 78 : ... .. . ... ... ... : ... .. . ... ... ... : ... .. . ... : ... .. 0 ... : ... .. . ... ...
ROW 79 : ... .. 9 ... ... ... : ... .. C ... ... ... : ... .. . ... : ... .. . ... : ... .. . ... ...
ROW 7A : ... .. . ... ... ... : ... .. . ... ... ... : ... .. . ... : ... .. . ... : ... .. . ... ...
ROW 7B : ... .. F ... V03 ... : ... .. . ... ... ... : ... .. . ... : F-# 00 F ... : ... .. . ... ...
ROW 7C : ... .. . ... V01 ... : ... .. . ... ... ... : ... .. . ... : ... .. E ... : ... .. . ... ...
ROW 7D : ... .. E ... V02 ... : ... .. B ... ... ... : ... .. . ... : ... .. C ... : ... .. . ... ...
ROW 7E : ... .. . ... ... ... : ... .. . ... ... ... : ... .. . ... : ... .. A ... : ... .. . ... ...
ROW 7F : ... .. D ... ... ... : ... .. . ... ... ... : ... .. . ... : ... .. 9 ... : ... .. . ... ...
ROW 80 : ... .. C ... ... ... : ... .. A ... ... ... : ... .. . ... : ... .. 7 ... : ... .. . ... ...
ROW 81 : ... .. . ... ... ... : ... .. . ... ... ... : ... .. . ... : ... .. 5 ... : ... .. . ... ...
ROW 82 : ... .. B ... ... ... : ... .. . ... ... ... : ... .. . ... : ... .. 4 ... : ... .. . ... ...
ROW 83 : ... .. A ... ... ... : ... .. 9 ... ... ... : ... .. . ... : ... .. 2 ... : ... .. . ... ...
ROW 84 : ... .. . ... ... ... : ... .. . ... ... ... : ... .. . ... : ... .. 0 ... : ... .. . ... ...
ROW 85 : ... .. 9 ... ... ... : ... .. . ... ... ... : ... .. . ... : ... .. . ... : ... .. . ... ...
ROW 86 : ... .. . ... ... ... : ... .. 8 ... ... ... : ... .. . ... : ... .. . ... : ... .. . ... ...
ROW 87 : A-2 00 F P7F V03 ... : A-3 00 F ... ... ... : ... .. . ... : 4-# 00 F ... : ... .. . ... ...
ROW 88 : ... .. . ... V01 ... : C-4 00 F ... ... ... : ... .. . ... : ... .. E ... : ... .. . ... ...
ROW 89 : ... .. E ... V02 ... : E-4 00 F ... ... ... : ... .. . ... : ... .. C ... : ... .. . ... ...
ROW 8A : ... .. . ... ... ... : A-3 00 F ... ... ... : ... .. . ... : ... .. A ... : ... .. . ... ...
ROW 8B : ... .. D ... ... ... : C-4 00 E ... ... ... : ... .. . ... : ... .. 9 ... : ... .. . ... ...
ROW 8C : ... .. C ... ... ... : E-4 00 E ... ... ... : ... .. . ... : ... .. 7 ... : ... .. . ... ...
ROW 8D : ... .. . ... ... ... : A-3 00 E ... ... ... : ... .. . ... : ... .. 5 ... : ... .. . ... ...
ROW 8E : ... .. B ... ... ... : C-4 00 D ... ... ... : ... .. . ... : ... .. 4 ... : ... .. . ... ...
ROW 8F : ... .. A ... ... ... : E-4 00 D ... ... ... : ... .. . ... : ... .. 2 ... : ... .. . ... ...
ROW 90 : ... .. . ... ... ... : A-3 00 D ... ... ... : ... .. . ... : ... .. 0 ... : ... .. . ... ...
ROW 91 : ... .. 9 ... ... ... : C-4 00 C ... ... ... : ... .. . ... : ... .. . ... : ... .. . ... ...
ROW 92 : ... .. . ... ... ... : E-4 00 C ... ... ... : ... .. . ... : ... .. . ... : ... .. . ... ...
ROW 93 : A-1 00 F P80 V03 ... : A-3 00 C ... ... ... : ... .. . ... : F-# 00 F ... : ... .. . ... ...
ROW 94 : ... .. . ... V01 ... : C-4 00 C ... ... ... : ... .. . ... : ... .. E ... : ... .. . ... ...
ROW 95 : ... .. E ... V02 ... : E-4 00 B ... ... ... : ... .. . ... : ... .. C ... : ... .. . ... ...
ROW 96 : ... .. . ... ... ... : A-3 00 B ... ... ... : ... .. . ... : ... .. A ... : ... .. . ... ...
ROW 97 : ... .. D ... ... ... : C-4 00 B ... ... ... : ... .. . ... : ... .. 9 ... : ... .. . ... ...
ROW 98 : ... .. C ... ... ... : E-4 00 A ... ... ... : ... .. . ... : ... .. 7 ... : ... .. . ... ...
ROW 99 : ... .. . ... ... ... : A-3 00 A ... ... ... : ... .. . ... : ... .. 5 ... : ... .. . ... ...
ROW 9A : ... .. B ... ... ... : C-4 00 A ... ... ... : ... .. . ... : ... .. 4 ... : ... .. . ... ...
ROW 9B : ... .. A ... ... ... : E-4 00 9 ... ... ... : ... .. . ... : ... .. 2 ... : ... .. . ... ...
ROW 9C : ... .. . ... ... ... : A-3 00 9 ... ... ... : ... .. . ... : ... .. 0 ... : ... .. . ... ...
ROW 9D : ... .. 9 ... ... ... : C-4 00 9 ... ... ... : ... .. . ... : ... .. . ... : ... .. . ... ...
ROW 9E : ... .. . ... ... ... : E-4 00 8 ... ... ... : ... .. . ... : ... .. . ... : ... .. . ... ...
ROW 9F : ... .. F ... V03 ... : C-3 00 F ... ... ... : ... .. . ... : 0-# 00 F ... : ... .. . ... ...
ROW A0 : ... .. . ... V01 ... : ... .. . ... ... ... : ... .. . ... : ... .. E ... : ... .. . ... ...
ROW A1 : ... .. E ... V02 ... : ... .. . ... ... ... : ... .. . ... : ... .. C ... : ... .. . ... ...
ROW A2 : ... .. . ... ... ... : ... .. . ... ... ... : ... .. . ... : ... .. A ... : ... .. . ... ...
ROW A3 : ... .. D ... ... ... : ... .. E ... ... ... : ... .. . ... : ... .. 9 ... : ... .. . ... ...
ROW A4 : ... .. C ... ... ... : ... .. . ... ... ... : ... .. . ... : ... .. 7 ... : ... .. . ... ...
ROW A5 : ... .. . ... ... ... : ... .. . ... ... ... : ... .. . ... : ... .. 5 ... : ... .. . ... ...
ROW A6 : ... .. B ... ... ... : ... .. D ... ... ... : ... .. . ... : ... .. 4 ... : ... .. . ... ...
ROW A7 : ... .. A ... ... ... : ... .. . ... ... ... : ... .. . ... : ... .. 2 ... : ... .. . ... ...
ROW A8 : ... .. . ... ... ... : ... .. . ... ... ... : ... .. . ... : ... .. 0 ... : ... .. . ... ...
ROW A9 : ... .. 9 ... ... ... : ... .. C ... ... ... : ... .. . ... : ... .. . ... : ... .. . ... ...
ROW AA : ... .. . ... ... ... : ... .. . ... ... ... : ... .. . ... : ... .. . ... : ... .. . ... ...
ROW AB : ... .. F ... V03 ... : ... .. . ... ... ... : ... .. . ... : F-# 00 F ... : ... .. . ... ...
ROW AC : ... .. . ... V01 ... : ... .. . ... ... ... : ... .. . ... : ... .. E ... : ... .. . ... ...
ROW AD : ... .. E ... V02 ... : ... .. B ... ... ... : ... .. . ... : ... .. C ... : ... .. . ... ...
ROW AE : ... .. . ... ... ... : ... .. . ... ... ... : ... .. . ... : ... .. A ... : ... .. . ... ...
ROW AF : ... .. D ... ... ... : ... .. . ... ... ... : ... .. . ... : ... .. 9 ... : ... .. . ... ...
ROW B0 : ... .. C ... ... ... : ... .. A ... ... ... : ... .. . ... : ... .. 7 ... : ... .. . ... ...
ROW B1 : ... .. . ... ... ... : ... .. . ... ... ... : ... .. . ... : ... .. 5 ... : ... .. . ... ...
ROW B2 : ... .. B ... ... ... : ... .. . ... ... ... : ... .. . ... : ... .. 4 ... : ... .. . ... ...
ROW B3 : ... .. A ... ... ... : ... .. 9 ... ... ... : ... .. . ... : ... .. 2 ... : ... .. . ... ...
ROW B4 : ... .. . ... ... ... : ... .. . ... ... ... : ... .. . ... : ... .. 0 ... : ... .. . ... ...
ROW B5 : ... .. 9 ... ... ... : ... .. . ... ... ... : ... .. . ... : ... .. . ... : ... .. . ... ...
ROW B6 : ... .. . ... ... ... : ... .. 8 ... ... ... : ... .. . ... : ... .. . ... : ... .. . ... ...
ROW B7 : A-2 00 F P7F V03 ... : A-2 00 F ... ... ... : ... .. . ... : 4-# 00 F ... : ... .. . ... ...
ROW B8 : ... .. . ... V01 ... : ... .. . ... ... ... : ... .. . ... : ... .. E ... : ... .. . ... ...
ROW B9 : ... .. E ... V02 ... : ... .. . ... ... ... : ... .. . ... : ... .. C ... : ... .. . ... ...
ROW BA : ... .. . ... ... ... : ... .. . ... ... ... : ... .. . ... : ... .. A ... : ... .. . ... ...
ROW BB : ... .. D ... ... ... : ... .. E ... ... ... : ... .. . ... : ... .. 9 ... : ... .. . ... ...
ROW BC : ... .. C ... ... ... : ... .. . ... ... ... : ... .. . ... : ... .. 7 ... : ... .. . ... ...
ROW BD : ... .. . ... ... ... : ... .. . ... ... ... : ... .. . ... : ... .. 5 ... : ... .. . ... ...
ROW BE : ... .. B ... ... ... : ... .. D ... ... ... : ... .. . ... : ... .. 4 ... : ... .. . ... ...
ROW BF : ... .. A ... ... ... : ... .. . ... ... ... : ... .. . ... : ... .. 2 ... : ... .. . ... ...
ROW C0 : ... .. . ... ... ... : ... .. . ... ... ... : ... .. . ... : ... .. 0 ... : ... .. . ... ...
ROW C1 : ... .. 9 ... ... ... : ... .. C ... ... ... : ... .. . ... : ... .. . ... : ... .. . ... ...
ROW C2 : ... .. . ... ... ... : ... .. . ... ... ... : ... .. . ... : ... .. . ... : ... .. . ... ...
ROW C3 : A-1 00 F P80 V03 ... : ... .. . ... ... ... : ... .. . ... : F-# 00 F ... : ... .. . ... ...
ROW C4 : ... .. . ... V01 ... : ... .. . ... ... ... : ... .. . ... : ... .. E ... : ... .. . ... ...
ROW C5 : ... .. E ... V02 ... : ... .. B ... ... ... : ... .. . ... : ... .. C ... : ... .. . ... ...
ROW C6 : ... .. . ... ... ... : ... .. . ... ... ... : ... .. . ... : ... .. A ... : ... .. . ... ...
ROW C7 : ... .. D ... ... ... : ... .. . ... ... ... : ... .. . ... : ... .. 9 ... : ... .. . ... ...
ROW C8 : ... .. C ... ... ... : ... .. A ... ... ... : ... .. . ... : ... .. 7 ... : ... .. . ... ...
ROW C9 : ... .. . ... ... ... : ... .. . ... ... ... : ... .. . ... : ... .. 5 ... : ... .. . ... ...
ROW CA : ... .. B ... ... ... : ... .. . ... ... ... : ... .. . ... : ... .. 4 ... : ... .. . ... ...
ROW CB : ... .. A ... ... ... : ... .. 9 ... ... ... : ... .. . ... : ... .. 2 ... : ... .. . ... ...
ROW CC : ... .. . ... ... ... : ... .. . ... ... ... : ... .. . ... : ... .. 0 ... : ... .. . ... ...
ROW CD : ... .. 9 ... ... ... : ... .. . ... ... ... : ... .. . ... : ... .. . ... : ... .. . ... ...
ROW CE : ... .. . ... ... ... : ... .. 8 ... ... ... : ... .. . ... : ... .. . ... : ... .. . ... ...
ROW CF : G-1 00 F ... V03 ... : G-2 00 F P80 ... ... : ... .. . ... : 0-# 00 F ... : ... .. . ... ...
ROW D0 : ... .. . ... V01 ... : ... .. . ... ... ... : ... .. . ... : ... .. E ... : ... .. . ... ...
ROW D1 : ... .. E ... V02 ... : ... .. . ... ... ... : ... .. . ... : ... .. C ... : ... .. . ... ...
ROW D2 : ... .. . ... ... ... : ... .. . ... ... ... : ... .. . ... : ... .. A ... : ... .. . ... ...
ROW D3 : ... .. D ... ... ... : ... .. E ... ... ... : ... .. . ... : ... .. 9 ... : ... .. . ... ...
ROW D4 : ... .. C ... ... ... : ... .. . ... ... ... : ... .. . ... : ... .. 7 ... : ... .. . ... ...
ROW D5 : ... .. . ... ... ... : ... .. . ... ... ... : ... .. . ... : ... .. 5 ... : ... .. . ... ...
ROW D6 : ... .. B ... ... ... : ... .. D ... ... ... : ... .. . ... : ... .. 4 ... : ... .. . ... ...
ROW D7 : ... .. A ... ... ... : ... .. . ... ... ... : ... .. . ... : ... .. 2 ... : ... .. . ... ...
ROW D8 : ... .. . ... ... ... : ... .. . ... ... ... : ... .. . ... : ... .. 0 ... : ... .. . ... ...
ROW D9 : ... .. 9 ... ... ... : ... .. C ... ... ... : ... .. . ... : ... .. . ... : ... .. . ... ...
ROW DA : ... .. . ... ... ... : ... .. . ... ... ... : ... .. . ... : ... .. . ... : ... .. . ... ...
ROW DB : ... .. F ... V03 ... : ... .. . ... ... ... : ... .. . ... : F-# 00 F ... : ... .. . ... ...
ROW DC : ... .. . ... V01 ... : ... .. . ... ... ... : ... .. . ... : ... .. E ... : ... .. . ... ...
ROW DD : ... .. E ... V02 ... : ... .. B ... ... ... : ... .. . ... : ... .. C ... : ... .. . ... ...
ROW DE : ... .. . ... ... ... : ... .. . ... ... ... : ... .. . ... : ... .. A ... : ... .. . ... ...
ROW DF : ... .. D ... ... ... : ... .. . ... ... ... : ... .. . ... : ... .. 9 ... : ... .. . ... ...
ROW E0 : ... .. C ... ... ... : ... .. A ... ... ... : ... .. . ... : ... .. 7 ... : ... .. . ... ...
ROW E1 : ... .. . ... ... ... : ... .. . ... ... ... : ... .. . ... : ... .. 5 ... : ... .. . ... ...
ROW E2 : ... .. B ... ... ... : ... .. . ... ... ... : ... .. . ... : ... .. 4 ... : ... .. . ... ...
ROW E3 : ... .. A ... ... ... : ... .. 9 ... ... ... : ... .. . ... : ... .. 2 ... : ... .. . ... ...
ROW E4 : ... .. . ... ... ... : ... .. . ... ... ... : ... .. . ... : ... .. 0 ... : ... .. . ... ...
ROW E5 : ... .. 9 ... ... ... : ... .. . ... ... ... : ... .. . ... : ... .. . ... : ... .. . ... ...
ROW E6 : ... .. . ... ... ... : ... .. 8 ... ... ... : ... .. . ... : ... .. . ... : ... .. . ... ...
ROW E7 : G-2 00 F ... V03 ... : A-2 00 F P7F ... ... : ... .. . ... : 4-# 00 F ... : ... .. . ... ...
ROW E8 : ... .. . ... V01 ... : ... .. . ... ... ... : ... .. . ... : ... .. E ... : ... .. . ... ...
ROW E9 : ... .. E ... V02 ... : ... .. . ... ... ... : ... .. . ... : ... .. C ... : ... .. . ... ...
ROW EA : ... .. . ... ... ... : ... .. . ... ... ... : ... .. . ... : ... .. A ... : ... .. . ... ...
ROW EB : ... .. D ... ... ... : ... .. E ... ... ... : ... .. . ... : ... .. 9 ... : ... .. . ... ...
ROW EC : ... .. C ... ... ... : ... .. . ... ... ... : ... .. . ... : ... .. 7 ... : ... .. . ... ...
ROW ED : ... .. . ... ... ... : ... .. . ... ... ... : ... .. . ... : ... .. 5 ... : ... .. . ... ...
ROW EE : ... .. B ... ... ... : ... .. D ... ... ... : ... .. . ... : ... .. 4 ... : ... .. . ... ...
ROW EF : ... .. A ... ... ... : ... .. . ... ... ... : ... .. . ... : ... .. 2 ... : ... .. . ... ...
ROW F0 : ... .. . ... ... ... : ... .. . ... ... ... : ... .. . ... : ... .. 0 ... : ... .. . ... ...
ROW F1 : ... .. 9 ... ... ... : ... .. C ... ... ... : ... .. . ... : ... .. . ... : ... .. . ... ...
ROW F2 : ... .. . ... ... ... : ... .. . ... ... ... : ... .. . ... : ... .. . ... : ... .. . ... ...
ROW F3 : G-1 00 F ... V03 ... : ... .. . ... ... ... : ... .. . ... : F-# 00 F ... : ... .. . ... ...
ROW F4 : ... .. . ... V01 ... : ... .. . ... ... ... : ... .. . ... : ... .. E ... : ... .. . ... ...
ROW F5 : ... .. E ... V02 ... : ... .. B ... ... ... : ... .. . ... : ... .. C ... : ... .. . ... ...
ROW F6 : ... .. . ... ... ... : ... .. . ... ... ... : ... .. . ... : ... .. A ... : ... .. . ... ...
ROW F7 : ... .. D ... ... ... : ... .. . ... ... ... : ... .. . ... : ... .. 9 ... : ... .. . ... ...
ROW F8 : ... .. C ... ... ... : ... .. A ... ... ... : ... .. . ... : ... .. 7 ... : ... .. . ... ...
ROW F9 : ... .. . ... ... ... : ... .. . ... ... ... : ... .. . ... : ... .. 5 ... : ... .. . ... ...
ROW FA : ... .. B ... ... ... : ... .. . ... ... ... : ... .. . ... : ... .. 4 ... : ... .. . ... ...
ROW FB : ... .. A ... ... ... : ... .. 9 ... ... ... : ... .. . ... : ... .. 2 ... : ... .. . ... ...
ROW FC : ... .. . ... ... ... : ... .. . ... ... ... : ... .. . ... : ... .. 0 ... : ... .. . ... ...
ROW FD : ... .. 9 ... ... ... : ... .. . ... ... ... : ... .. . ... : ... .. . ... : ... .. . ... ...
ROW FE : ... .. . ... ... ... : ... .. 8 ... ... ... : ... .. . ... : ... .. . ... : ... .. . ... ...
ROW FF : A-1 00 F ... V03 ... : A-3 00 F ... V03 ... : C-5 00 . P7F : 0-# 00 F ... : ... .. . ... ...

PATTERN 09
ROW 00 : ... .. . ... V01 ... : C-4 00 F ... V01 ... : ... .. . ... : ... .. E ... : ... .. . ... ...
ROW 01 : ... .. E ... V02 ... : E-4 00 E ... V02 ... : ... .. . ... : ... .. C ... : ... .. . ... ...
ROW 02 : ... .. . ... ... ... : A-3 00 E ... ... ... : ... .. . ... : ... .. A ... : ... .. . ... ...
ROW 03 : ... .. D ... ... ... : C-4 00 D ... ... ... : ... .. . ... : ... .. 9 ... : ... .. . ... ...
ROW 04 : ... .. C ... ... ... : E-4 00 C ... ... ... : ... .. . ... : ... .. 7 ... : ... .. . ... ...
ROW 05 : ... .. . ... ... ... : A-3 00 C ... ... ... : ... .. . ... : ... .. 5 ... : ... .. . ... ...
ROW 06 : ... .. B ... ... ... : C-4 00 B ... ... ... : ... .. . ... : ... .. 4 ... : ... .. . ... ...
ROW 07 : ... .. A ... ... ... : E-4 00 A ... ... ... : ... .. . ... : ... .. 2 ... : ... .. . ... ...
ROW 08 : ... .. . ... ... ... : A-3 00 A ... ... ... : ... .. . ... : ... .. 0 ... : ... .. . ... ...
ROW 09 : ... .. 9 ... ... ... : C-4 00 9 ... ... ... : ... .. . ... : ... .. . ... : ... .. . ... ...
ROW 0A : ... .. . ... ... ... : E-4 00 9 ... ... ... : ... .. . ... : ... .. . ... : ... .. . ... ...
ROW 0B : ... .. F ... V03 ... : A-3 00 8 ... ... ... : C-6 00 . ... : F-# 00 F ... : ... .. . ... ...
ROW 0C : ... .. . ... V01 ... : C-4 00 7 ... ... ... : ... .. . ... : ... .. E ... : ... .. . ... ...
ROW 0D : ... .. E ... V02 ... : E-4 00 7 ... ... ... : ... .. . ... : ... .. C ... : ... .. . ... ...
ROW 0E : ... .. . ... ... ... : A-3 00 6 ... ... ... : ... .. . ... : ... .. A ... : ... .. . ... ...
ROW 0F : ... .. D ... ... ... : C-4 00 5 ... ... ... : ... .. . ... : ... .. 9 ... : ... .. . ... ...
ROW 10 : ... .. C ... ... ... : E-4 00 5 ... ... ... : ... .. . ... : ... .. 7 ... : ... .. . ... ...
ROW 11 : ... .. . ... ... ... : A-3 00 4 ... ... ... : ... .. . ... : ... .. 5 ... : ... .. . ... ...
ROW 12 : ... .. B ... ... ... : C-4 00 4 ... ... ... : ... .. . ... : ... .. 4 ... : ... .. . ... ...
ROW 13 : ... .. A ... ... ... : E-4 00 3 ... ... ... : ... .. . ... : ... .. 2 ... : ... .. . ... ...
ROW 14 : ... .. . ... ... ... : A-3 00 2 ... ... ... : ... .. . ... : ... .. 0 ... : ... .. . ... ...
ROW 15 : ... .. 9 ... ... ... : C-4 00 2 ... ... ... : ... .. . ... : ... .. . ... : ... .. . ... ...
ROW 16 : ... .. . ... ... ... : E-4 00 1 ... ... ... : ... .. . ... : ... .. . ... : ... .. . ... ...
ROW 17 : A-2 00 F P7F V03 ... : A-3 00 F ... V03 ... : C-5 00 . ... : 4-# 00 F ... : ... .. . ... ...
ROW 18 : ... .. . ... V01 ... : C-4 00 F ... V01 ... : ... .. . ... : ... .. E ... : ... .. . ... ...
ROW 19 : ... .. E ... V02 ... : E-4 00 E ... V02 ... : ... .. . ... : ... .. C ... : ... .. . ... ...
ROW 1A : ... .. . ... ... ... : A-3 00 E ... ... ... : ... .. . ... : ... .. A ... : ... .. . ... ...
ROW 1B : ... .. D ... ... ... : C-4 00 D ... ... ... : ... .. . ... : ... .. 9 ... : ... .. . ... ...
ROW 1C : ... .. C ... ... ... : E-4 00 C ... ... ... : ... .. . ... : ... .. 7 ... : ... .. . ... ...
ROW 1D : ... .. . ... ... ... : A-3 00 C ... ... ... : ... .. . ... : ... .. 5 ... : ... .. . ... ...
ROW 1E : ... .. B ... ... ... : C-4 00 B ... ... ... : ... .. . ... : ... .. 4 ... : ... .. . ... ...
ROW 1F : ... .. A ... ... ... : E-4 00 A ... ... ... : ... .. . ... : ... .. 2 ... : ... .. . ... ...
ROW 20 : ... .. . ... ... ... : A-3 00 A ... ... ... : ... .. . ... : ... .. 0 ... : ... .. . ... ...
ROW 21 : ... .. 9 ... ... ... : C-4 00 9 ... ... ... : ... .. . ... : ... .. . ... : ... .. . ... ...
ROW 22 : ... .. . ... ... ... : E-4 00 9 ... ... ... : ... .. . ... : ... .. . ... : ... .. . ... ...
ROW 23 : A-1 00 F P80 V03 ... : A-3 00 8 ... ... ... : C-6 00 . ... : F-# 00 F ... : ... .. . ... ...
ROW 24 : ... .. . ... V01 ... : C-4 00 7 ... ... ... : ... .. . ... : ... .. E ... : ... .. . ... ...
ROW 25 : ... .. E ... V02 ... : E-4 00 7 ... ... ... : ... .. . ... : ... .. C ... : ... .. . ... ...
ROW 26 : ... .. . ... ... ... : A-3 00 6 ... ... ... : ... .. . ... : ... .. A ... : ... .. . ... ...
ROW 27 : ... .. D ... ... ... : C-4 00 5 ... ... ... : ... .. . ... : ... .. 9 ... : ... .. . ... ...
ROW 28 : ... .. C ... ... ... : E-4 00 5 ... ... ... : ... .. . ... : ... .. 7 ... : ... .. . ... ...
ROW 29 : ... .. . ... ... ... : A-3 00 4 ... ... ... : ... .. . ... : ... .. 5 ... : ... .. . ... ...
ROW 2A : ... .. B ... ... ... : C-4 00 4 ... ... ... : ... .. . ... : ... .. 4 ... : ... .. . ... ...
ROW 2B : ... .. A ... ... ... : E-4 00 3 ... ... ... : ... .. . ... : ... .. 2 ... : ... .. . ... ...
ROW 2C : ... .. . ... ... ... : A-3 00 2 ... ... ... : ... .. . ... : ... .. 0 ... : ... .. . ... ...
ROW 2D : ... .. 9 ... ... ... : C-4 00 2 ... ... ... : ... .. . ... : ... .. . ... : ... .. . ... ...
ROW 2E : ... .. . ... ... ... : E-4 00 1 ... ... ... : ... .. . ... : ... .. . ... : ... .. . ... ...
ROW 2F : ... .. F ... V03 ... : A-3 00 F ... V03 ... : C-5 00 . ... : 0-# 00 F ... : ... .. . ... ...
ROW 30 : ... .. . ... V01 ... : C-4 00 F ... V01 ... : ... .. . ... : ... .. E ... : ... .. . ... ...
ROW 31 : ... .. E ... V02 ... : E-4 00 E ... V02 ... : ... .. . ... : ... .. C ... : ... .. . ... ...
ROW 32 : ... .. . ... ... ... : A-3 00 E ... ... ... : ... .. . ... : ... .. A ... : ... .. . ... ...
ROW 33 : ... .. D ... ... ... : C-4 00 D ... ... ... : ... .. . ... : ... .. 9 ... : ... .. . ... ...
ROW 34 : ... .. C ... ... ... : E-4 00 C ... ... ... : ... .. . ... : ... .. 7 ... : ... .. . ... ...
ROW 35 : ... .. . ... ... ... : A-3 00 C ... ... ... : ... .. . ... : ... .. 5 ... : ... .. . ... ...
ROW 36 : ... .. B ... ... ... : C-4 00 B ... ... ... : ... .. . ... : ... .. 4 ... : ... .. . ... ...
ROW 37 : ... .. A ... ... ... : E-4 00 A ... ... ... : ... .. . ... : ... .. 2 ... : ... .. . ... ...
ROW 38 : ... .. . ... ... ... : A-3 00 A ... ... ... : ... .. . ... : ... .. 0 ... : ... .. . ... ...
ROW 39 : ... .. 9 ... ... ... : C-4 00 9 ... ... ... : ... .. . ... : ... .. . ... : ... .. . ... ...
ROW 3A : ... .. . ... ... ... : E-4 00 9 ... ... ... : ... .. . ... : ... .. . ... : ... .. . ... ...
ROW 3B : ... .. F ... V03 ... : A-3 00 8 ... ... ... : C-6 00 . ... : F-# 00 F ... : ... .. . ... ...
ROW 3C : ... .. . ... V01 ... : C-4 00 7 ... ... ... : ... .. . ... : ... .. E ... : ... .. . ... ...
ROW 3D : ... .. E ... V02 ... : E-4 00 7 ... ... ... : ... .. . ... : ... .. C ... : ... .. . ... ...
ROW 3E : ... .. . ... ... ... : A-3 00 6 ... ... ... : ... .. . ... : ... .. A ... : ... .. . ... ...
ROW 3F : ... .. D ... ... ... : C-4 00 5 ... ... ... : ... .. . ... : ... .. 9 ... : ... .. . ... ...
ROW 40 : ... .. C ... ... ... : E-4 00 5 ... ... ... : ... .. . ... : ... .. 7 ... : ... .. . ... ...
ROW 41 : ... .. . ... ... ... : A-3 00 4 ... ... ... : ... .. . ... : ... .. 5 ... : ... .. . ... ...
ROW 42 : ... .. B ... ... ... : C-4 00 4 ... ... ... : ... .. . ... : ... .. 4 ... : ... .. . ... ...
ROW 43 : ... .. A ... ... ... : E-4 00 3 ... ... ... : ... .. . ... : ... .. 2 ... : ... .. . ... ...
ROW 44 : ... .. . ... ... ... : A-3 00 2 ... ... ... : ... .. . ... : ... .. 0 ... : ... .. . ... ...
ROW 45 : ... .. 9 ... ... ... : C-4 00 2 ... ... ... : ... .. . ... : ... .. . ... : ... .. . ... ...
ROW 46 : ... .. . ... ... ... : E-4 00 1 ... ... ... : ... .. . ... : ... .. . ... : ... .. . ... ...
ROW 47 : A-2 00 F P7F V03 ... : A-3 00 F ... V03 ... : C-5 00 . ... : 4-# 00 F ... : ... .. . ... ...
ROW 48 : ... .. . ... V01 ... : C-4 00 F ... V01 ... : ... .. . ... : ... .. E ... : ... .. . ... ...
ROW 49 : ... .. E ... V02 ... : E-4 00 E ... V02 ... : ... .. . ... : ... .. C ... : ... .. . ... ...
ROW 4A : ... .. . ... ... ... : A-3 00 E ... ... ... : ... .. . ... : ... .. A ... : ... .. . ... ...
ROW 4B : ... .. D ... ... ... : C-4 00 D ... ... ... : ... .. . ... : ... .. 9 ... : ... .. . ... ...
ROW 4C : ... .. C ... ... ... : E-4 00 C ... ... ... : ... .. . ... : ... .. 7 ... : ... .. . ... ...
ROW 4D : ... .. . ... ... ... : A-3 00 C ... ... ... : ... .. . ... : ... .. 5 ... : ... .. . ... ...
ROW 4E : ... .. B ... ... ... : C-4 00 B ... ... ... : ... .. . ... : ... .. 4 ... : ... .. . ... ...
ROW 4F : ... .. A ... ... ... : E-4 00 A ... ... ... : ... .. . ... : ... .. 2 ... : ... .. . ... ...
ROW 50 : ... .. . ... ... ... : A-3 00 A ... ... ... : ... .. . ... : ... .. 0 ... : ... .. . ... ...
ROW 51 : ... .. 9 ... ... ... : C-4 00 9 ... ... ... : ... .. . ... : ... .. . ... : ... .. . ... ...
ROW 52 : ... .. . ... ... ... : E-4 00 9 ... ... ... : ... .. . ... : ... .. . ... : ... .. . ... ...
ROW 53 : A-1 00 F P80 V03 ... : A-3 00 8 ... ... ... : C-6 00 . ... : F-# 00 F ... : ... .. . ... ...
ROW 54 : ... .. . ... V01 ... : C-4 00 7 ... ... ... : ... .. . ... : ... .. E ... : ... .. . ... ...
ROW 55 : ... .. E ... V02 ... : E-4 00 7 ... ... ... : ... .. . ... : ... .. C ... : ... .. . ... ...
ROW 56 : ... .. . ... ... ... : A-3 00 6 ... ... ... : ... .. . ... : ... .. A ... : ... .. . ... ...
ROW 57 : ... .. D ... ... ... : C-4 00 5 ... ... ... : ... .. . ... : ... .. 9 ... : ... .. . ... ...
ROW 58 : ... .. C ... ... ... : E-4 00 5 ... ... ... : ... .. . ... : ... .. 7 ... : ... .. . ... ...
ROW 59 : ... .. . ... ... ... : A-3 00 4 ... ... ... : ... .. . ... : ... .. 5 ... : ... .. . ... ...
ROW 5A : ... .. B ... ... ... : C-4 00 4 ... ... ... : ... .. . ... : ... .. 4 ... : ... .. . ... ...
ROW 5B : ... .. A ... ... ... : E-4 00 3 ... ... ... : ... .. . ... : ... .. 2 ... : ... .. . ... ...
ROW 5C : ... .. . ... ... ... : A-3 00 2 ... ... ... : ... .. . ... : ... .. 0 ... : ... .. . ... ...
ROW 5D : ... .. 9 ... ... ... : C-4 00 2 ... ... ... : ... .. . ... : ... .. . ... : ... .. . ... ...
ROW 5E : ... .. . ... ... ... : E-4 00 1 ... ... ... : ... .. . ... : ... .. . ... : ... .. . ... ...
ROW 5F : ... .. F ... V03 ... : A-3 00 F ... V03 ... : C-5 00 . ... : 0-# 00 F ... : ... .. . ... ...
ROW 60 : ... .. . ... V01 ... : C-4 00 F ... V01 ... : ... .. . ... : ... .. E ... : ... .. . ... ...
ROW 61 : ... .. E ... V02 ... : E-4 00 E ... V02 ... : ... .. . ... : ... .. C ... : ... .. . ... ...
ROW 62 : ... .. . ... ... ... : A-3 00 E ... ... ... : ... .. . ... : ... .. A ... : ... .. . ... ...
ROW 63 : ... .. D ... ... ... : C-4 00 D ... ... ... : ... .. . ... : ... .. 9 ... : ... .. . ... ...
ROW 64 : ... .. C ... ... ... : E-4 00 C ... ... ... : ... .. . ... : ... .. 7 ... : ... .. . ... ...
ROW 65 : ... .. . ... ... ... : A-3 00 C ... ... ... : ... .. . ... : ... .. 5 ... : ... .. . ... ...
ROW 66 : ... .. B ... ... ... : C-4 00 B ... ... ... : ... .. . ... : ... .. 4 ... : ... .. . ... ...
ROW 67 : ... .. A ... ... ... : E-4 00 A ... ... ... : ... .. . ... : ... .. 2 ... : ... .. . ... ...
ROW 68 : ... .. . ... ... ... : A-3 00 A ... ... ... : ... .. . ... : ... .. 0 ... : ... .. . ... ...
ROW 69 : ... .. 9 ... ... ... : C-4 00 9 ... ... ... : ... .. . ... : ... .. . ... : ... .. . ... ...
ROW 6A : ... .. . ... ... ... : E-4 00 9 ... ... ... : ... .. . ... : ... .. . ... : ... .. . ... ...
ROW 6B : ... .. F ... V03 ... : A-3 00 8 ... ... ... : C-6 00 . ... : F-# 00 F ... : ... .. . ... ...
ROW 6C : ... .. . ... V01 ... : C-4 00 7 ... ... ... : ... .. . ... : ... .. E ... : ... .. . ... ...
ROW 6D : ... .. E ... V02 ... : E-4 00 7 ... ... ... : ... .. . ... : ... .. C ... : ... .. . ... ...
ROW 6E : ... .. . ... ... ... : A-3 00 6 ... ... ... : ... .. . ... : ... .. A ... : ... .. . ... ...
ROW 6F : ... .. D ... ... ... : C-4 00 5 ... ... ... : ... .. . ... : ... .. 9 ... : ... .. . ... ...
ROW 70 : ... .. C ... ... ... : E-4 00 5 ... ... ... : ... .. . ... : ... .. 7 ... : ... .. . ... ...
ROW 71 : ... .. . ... ... ... : A-3 00 4 ... ... ... : ... .. . ... : ... .. 5 ... : ... .. . ... ...
ROW 72 : ... .. B ... ... ... : C-4 00 4 ... ... ... : ... .. . ... : ... .. 4 ... : ... .. . ... ...
ROW 73 : ... .. A ... ... ... : E-4 00 3 ... ... ... : ... .. . ... : ... .. 2 ... : ... .. . ... ...
ROW 74 : ... .. . ... ... ... : A-3 00 2 ... ... ... : ... .. . ... : ... .. 0 ... : ... .. . ... ...
ROW 75 : ... .. 9 ... ... ... : C-4 00 2 ... ... ... : ... .. . ... : ... .. . ... : ... .. . ... ...
ROW 76 : ... .. . ... ... ... : E-4 00 1 ... ... ... : ... .. . ... : ... .. . ... : ... .. . ... ...
ROW 77 : A-2 00 F P7F V03 ... : A-3 00 F ... V03 ... : C-5 00 . ... : 4-# 00 F ... : ... .. . ... ...
ROW 78 : ... .. . ... V01 ... : C-4 00 F ... V01 ... : ... .. . ... : ... .. E ... : ... .. . ... ...
ROW 79 : ... .. E ... V02 ... : E-4 00 E ... V02 ... : ... .. . ... : ... .. C ... : ... .. . ... ...
ROW 7A : ... .. . ... ... ... : A-3 00 E ... ... ... : ... .. . ... : ... .. A ... : ... .. . ... ...
ROW 7B : ... .. D ... ... ... : C-4 00 D ... ... ... : ... .. . ... : ... .. 9 ... : ... .. . ... ...
ROW 7C : ... .. C ... ... ... : E-4 00 C ... ... ... : ... .. . ... : ... .. 7 ... : ... .. . ... ...
ROW 7D : ... .. . ... ... ... : A-3 00 C ... ... ... : ... .. . ... : ... .. 5 ... : ... .. . ... ...
ROW 7E : ... .. B ... ... ... : C-4 00 B ... ... ... : ... .. . ... : ... .. 4 ... : ... .. . ... ...
ROW 7F : ... .. A ... ... ... : E-4 00 A ... ... ... : ... .. . ... : ... .. 2 ... : ... .. . ... ...
ROW 80 : ... .. . ... ... ... : A-3 00 A ... ... ... : ... .. . ... : ... .. 0 ... : ... .. . ... ...
ROW 81 : ... .. 9 ... ... ... : C-4 00 9 ... ... ... : ... .. . ... : ... .. . ... : ... .. . ... ...
ROW 82 : ... .. . ... ... ... : E-4 00 9 ... ... ... : ... .. . ... : ... .. . ... : ... .. . ... ...
ROW 83 : A-1 00 F P80 V03 ... : A-3 00 8 ... ... ... : C-6 00 . ... : F-# 00 F ... : ... .. . ... ...
ROW 84 : ... .. . ... V01 ... : C-4 00 7 ... ... ... : ... .. . ... : ... .. E ... : ... .. . ... ...
ROW 85 : ... .. E ... V02 ... : E-4 00 7 ... ... ... : ... .. . ... : ... .. C ... : ... .. . ... ...
ROW 86 : ... .. . ... ... ... : A-3 00 6 ... ... ... : ... .. . ... : ... .. A ... : ... .. . ... ...
ROW 87 : ... .. D ... ... ... : C-4 00 5 ... ... ... : ... .. . ... : ... .. 9 ... : ... .. . ... ...
ROW 88 : ... .. C ... ... ... : E-4 00 5 ... ... ... : ... .. . ... : ... .. 7 ... : ... .. . ... ...
ROW 89 : ... .. . ... ... ... : A-3 00 4 ... ... ... : ... .. . ... : ... .. 5 ... : ... .. . ... ...
ROW 8A : ... .. B ... ... ... : C-4 00 4 ... ... ... : ... .. . ... : ... .. 4 ... : ... .. . ... ...
ROW 8B : ... .. A ... ... ... : E-4 00 3 ... ... ... : ... .. . ... : ... .. 2 ... : ... .. . ... ...
ROW 8C : ... .. . ... ... ... : A-3 00 2 ... ... ... : ... .. . ... : ... .. 0 ... : ... .. . ... ...
ROW 8D : ... .. 9 ... ... ... : C-4 00 2 ... ... ... : ... .. . ... : ... .. . ... : ... .. . ... ...
ROW 8E : ... .. . ... ... ... : E-4 00 1 ... ... ... : ... .. . ... : ... .. . ... : ... .. . ... ...
ROW 8F : G-1 00 F ... V03 ... : G-3 00 F ... V03 ... : B-4 00 . ... : 0-# 00 F ... : ... .. . ... ...
ROW 90 : ... .. . ... V01 ... : B-3 00 F ... V01 ... : ... .. . ... : ... .. E ... : ... .. . ... ...
ROW 91 : ... .. E ... V02 ... : D-4 00 E ... V02 ... : ... .. . ... : ... .. C ... : ... .. . ... ...
ROW 92 : ... .. . ... ... ... : G-3 00 E ... ... ... : ... .. . ... : ... .. A ... : ... .. . ... ...
ROW 93 : ... .. D ... ... ... : B-3 00 D ... ... ... : ... .. . ... : ... .. 9 ... : ... .. . ... ...
ROW 94 : ... .. C ... ... ... : D-4 00 C ... ... ... : ... .. . ... : ... .. 7 ... : ... .. . ... ...
ROW 95 : ... .. . ... ... ... : G-3 00 C ... ... ... : ... .. . ... : ... .. 5 ... : ... .. . ... ...
ROW 96 : ... .. B ... ... ... : B-3 00 B ... ... ... : ... .. . ... : ... .. 4 ... : ... .. . ... ...
ROW 97 : ... .. A ... ... ... : D-4 00 A ... ... ... : ... .. . ... : ... .. 2 ... : ... .. . ... ...
ROW 98 : ... .. . ... ... ... : G-3 00 A ... ... ... : ... .. . ... : ... .. 0 ... : ... .. . ... ...
ROW 99 : ... .. 9 ... ... ... : B-3 00 9 ... ... ... : ... .. . ... : ... .. . ... : ... .. . ... ...
ROW 9A : ... .. . ... ... ... : D-4 00 9 ... ... ... : ... .. . ... : ... .. . ... : ... .. . ... ...
ROW 9B : ... .. F ... V03 ... : G-3 00 8 ... ... ... : B-5 00 . P80 : F-# 00 F ... : ... .. . ... ...
ROW 9C : ... .. . ... V01 ... : B-3 00 7 ... ... ... : ... .. . ... : ... .. E ... : ... .. . ... ...
ROW 9D : ... .. E ... V02 ... : D-4 00 7 ... ... ... : ... .. . ... : ... .. C ... : ... .. . ... ...
ROW 9E : ... .. . ... ... ... : G-3 00 6 ... ... ... : ... .. . ... : ... .. A ... : ... .. . ... ...
ROW 9F : ... .. D ... ... ... : B-3 00 5 ... ... ... : ... .. . ... : ... .. 9 ... : ... .. . ... ...
ROW A0 : ... .. C ... ... ... : D-4 00 5 ... ... ... : ... .. . ... : ... .. 7 ... : ... .. . ... ...
ROW A1 : ... .. . ... ... ... : G-3 00 4 ... ... ... : ... .. . ... : ... .. 5 ... : ... .. . ... ...
ROW A2 : ... .. B ... ... ... : B-3 00 4 ... ... ... : ... .. . ... : ... .. 4 ... : ... .. . ... ...
ROW A3 : ... .. A ... ... ... : D-4 00 3 ... ... ... : ... .. . ... : ... .. 2 ... : ... .. . ... ...
ROW A4 : ... .. . ... ... ... : G-3 00 2 ... ... ... : ... .. . ... : ... .. 0 ... : ... .. . ... ...
ROW A5 : ... .. 9 ... ... ... : B-3 00 2 ... ... ... : ... .. . ... : ... .. . ... : ... .. . ... ...
ROW A6 : ... .. . ... ... ... : D-4 00 1 ... ... ... : ... .. . ... : ... .. . ... : ... .. . ... ...
ROW A7 : G-2 00 F ... V03 ... : G-3 00 F ... V03 ... : B-4 00 . P7F : 4-# 00 F ... : ... .. . ... ...
ROW A8 : ... .. . ... V01 ... : B-3 00 F ... V01 ... : ... .. . ... : ... .. E ... : ... .. . ... ...
ROW A9 : ... .. E ... V02 ... : D-4 00 E ... V02 ... : ... .. . ... : ... .. C ... : ... .. . ... ...
ROW AA : ... .. . ... ... ... : G-3 00 E ... ... ... : ... .. . ... : ... .. A ... : ... .. . ... ...
ROW AB : ... .. D ... ... ... : B-3 00 D ... ... ... : ... .. . ... : ... .. 9 ... : ... .. . ... ...
ROW AC : ... .. C ... ... ... : D-4 00 C ... ... ... : ... .. . ... : ... .. 7 ... : ... .. . ... ...
ROW AD : ... .. . ... ... ... : G-3 00 C ... ... ... : ... .. . ... : ... .. 5 ... : ... .. . ... ...
ROW AE : ... .. B ... ... ... : B-3 00 B ... ... ... : ... .. . ... : ... .. 4 ... : ... .. . ... ...
ROW AF : ... .. A ... ... ... : D-4 00 A ... ... ... : ... .. . ... : ... .. 2 ... : ... .. . ... ...
ROW B0 : ... .. . ... ... ... : G-3 00 A ... ... ... : ... .. . ... : ... .. 0 ... : ... .. . ... ...
ROW B1 : ... .. 9 ... ... ... : B-3 00 9 ... ... ... : ... .. . ... : ... .. . ... : ... .. . ... ...
ROW B2 : ... .. . ... ... ... : D-4 00 9 ... ... ... : ... .. . ... : ... .. . ... : ... .. . ... ...
ROW B3 : G-1 00 F ... V03 ... : G-3 00 8 ... ... ... : B-5 00 . P80 : F-# 00 F ... : ... .. . ... ...
ROW B4 : ... .. . ... V01 ... : B-3 00 7 ... ... ... : ... .. . ... : ... .. E ... : ... .. . ... ...
ROW B5 : ... .. E ... V02 ... : D-4 00 7 ... ... ... : ... .. . ... : ... .. C ... : ... .. . ... ...
ROW B6 : ... .. . ... ... ... : G-3 00 6 ... ... ... : ... .. . ... : ... .. A ... : ... .. . ... ...
ROW B7 : ... .. D ... ... ... : B-3 00 5 ... ... ... : ... .. . ... : ... .. 9 ... : ... .. . ... ...
ROW B8 : ... .. C ... ... ... : D-4 00 5 ... ... ... : ... .. . ... : ... .. 7 ... : ... .. . ... ...
ROW B9 : ... .. . ... ... ... : G-3 00 4 ... ... ... : ... .. . ... : ... .. 5 ... : ... .. . ... ...
ROW BA : ... .. B ... ... ... : B-3 00 4 ... ... ... : ... .. . ... : ... .. 4 ... : ... .. . ... ...
ROW BB : ... .. A ... ... ... : D-4 00 3 ... ... ... : ... .. . ... : ... .. 2 ... : ... .. . ... ...
ROW BC : ... .. . ... ... ... : G-3 00 2 ... ... ... : ... .. . ... : ... .. 0 ... : ... .. . ... ...
ROW BD : ... .. 9 ... ... ... : B-3 00 2 ... ... ... : ... .. . ... : ... .. . ... : ... .. . ... ...
ROW BE : ... .. . ... ... ... : D-4 00 1 ... ... ... : ... .. . ... : ... .. . ... : ... .. . ... ...
ROW BF : A-1 00 F ... V03 ... : A-3 00 F ... V03 ... : C-5 00 . P7F : 0-# 00 F ... : ... .. . ... ...
ROW C0 : ... .. . ... V01 ... : C-4 00 F ... V01 ... : ... .. . ... : ... .. E ... : ... .. . ... ...
ROW C1 : ... .. E ... V02 ... : E-4 00 E ... V02 ... : ... .. . ... : ... .. C ... : ... .. . ... ...
ROW C2 : ... .. . ... ... ... : A-3 00 E ... ... ... : ... .. . ... : ... .. A ... : ... .. . ... ...
ROW C3 : ... .. D ... ... ... : C-4 00 D ... ... ... : ... .. . ... : ... .. 9 ... : ... .. . ... ...
ROW C4 : ... .. C ... ... ... : E-4 00 C ... ... ... : ... .. . ... : ... .. 7 ... : ... .. . ... ...
ROW C5 : ... .. . ... ... ... : A-3 00 C ... ... ... : ... .. . ... : ... .. 5 ... : ... .. . ... ...
ROW C6 : ... .. B ... ... ... : C-4 00 B ... ... ... : ... .. . ... : ... .. 4 ... : ... .. . ... ...
ROW C7 : ... .. A ... ... ... : E-4 00 A ... ... ... : ... .. . ... : ... .. 2 ... : ... .. . ... ...
ROW C8 : ... .. . ... ... ... : A-3 00 A ... ... ... : ... .. . ... : ... .. 0 ... : ... .. . ... ...
ROW C9 : ... .. 9 ... ... ... : C-4 00 9 ... ... ... : ... .. . ... : ... .. . ... : ... .. . ... ...
ROW CA : ... .. . ... ... ... : E-4 00 9 ... ... ... : ... .. . ... : ... .. . ... : ... .. . ... ...
ROW CB : ... .. F ... V03 ... : A-3 00 8 ... ... ... : C-6 00 . ... : F-# 00 F ... : ... .. . ... ...
ROW CC : ... .. . ... V01 ... : C-4 00 7 ... ... ... : ... .. . ... : ... .. E ... : ... .. . ... ...
ROW CD : ... .. E ... V02 ... : E-4 00 7 ... ... ... : ... .. . ... : ... .. C ... : ... .. . ... ...
ROW CE : ... .. . ... ... ... : A-3 00 6 ... ... ... : ... .. . ... : ... .. A ... : ... .. . ... ...
ROW CF : ... .. D ... ... ... : C-4 00 5 ... ... ... : ... .. . ... : ... .. 9 ... : ... .. . ... ...
ROW D0 : ... .. C ... ... ... : E-4 00 5 ... ... ... : ... .. . ... : ... .. 7 ... : ... .. . ... ...
ROW D1 : ... .. . ... ... ... : A-3 00 4 ... ... ... : ... .. . ... : ... .. 5 ... : ... .. . ... ...
ROW D2 : ... .. B ... ... ... : C-4 00 4 ... ... ... : ... .. . ... : ... .. 4 ... : ... .. . ... ...
ROW D3 : ... .. A ... ... ... : E-4 00 3 ... ... ... : ... .. . ... : ... .. 2 ... : ... .. . ... ...
ROW D4 : ... .. . ... ... ... : A-3 00 2 ... ... ... : ... .. . ... : ... .. 0 ... : ... .. . ... ...
ROW D5 : ... .. 9 ... ... ... : C-4 00 2 ... ... ... : ... .. . ... : ... .. . ... : ... .. . ... ...
ROW D6 : ... .. . ... ... ... : E-4 00 1 ... ... ... : ... .. . ... : ... .. . ... : ... .. . ... ...
ROW D7 : A-2 00 F P7F V03 ... : A-3 00 F ... V03 ... : C-5 00 . ... : 4-# 00 F ... : ... .. . ... ...
ROW D8 : ... .. . ... V01 ... : C-4 00 F ... V01 ... : ... .. . ... : ... .. E ... : ... .. . ... ...
ROW D9 : ... .. E ... V02 ... : E-4 00 E ... V02 ... : ... .. . ... : ... .. C ... : ... .. . ... ...
ROW DA : ... .. . ... ... ... : A-3 00 E ... ... ... : ... .. . ... : ... .. A ... : ... .. . ... ...
ROW DB : ... .. D ... ... ... : C-4 00 D ... ... ... : ... .. . ... : ... .. 9 ... : ... .. . ... ...
ROW DC : ... .. C ... ... ... : E-4 00 C ... ... ... : ... .. . ... : ... .. 7 ... : ... .. . ... ...
ROW DD : ... .. . ... ... ... : A-3 00 C ... ... ... : ... .. . ... : ... .. 5 ... : ... .. . ... ...
ROW DE : ... .. B ... ... ... : C-4 00 B ... ... ... : ... .. . ... : ... .. 4 ... : ... .. . ... ...
ROW DF : ... .. A ... ... ... : E-4 00 A ... ... ... : ... .. . ... : ... .. 2 ... : ... .. . ... ...
ROW E0 : ... .. . ... ... ... : A-3 00 A ... ... ... : ... .. . ... : ... .. 0 ... : ... .. . ... ...
ROW E1 : ... .. 9 ... ... ... : C-4 00 9 ... ... ... : ... .. . ... : ... .. . ... : ... .. . ... ...
ROW E2 : ... .. . ... ... ... : E-4 00 9 ... ... ... : ... .. . ... : ... .. . ... : ... .. . ... ...
ROW E3 : A-1 00 F P80 V03 ... : A-3 00 8 ... ... ... : C-6 00 . ... : F-# 00 F ... : ... .. . ... ...
ROW E4 : ... .. . ... V01 ... : C-4 00 7 ... ... ... : ... .. . ... : ... .. E ... : ... .. . ... ...
ROW E5 : ... .. E ... V02 ... : E-4 00 7 ... ... ... : ... .. . ... : ... .. C ... : ... .. . ... ...
ROW E6 : ... .. . ... ... ... : A-3 00 6 ... ... ... : ... .. . ... : ... .. A ... : ... .. . ... ...
ROW E7 : ... .. D ... ... ... : C-4 00 5 ... ... ... : ... .. . ... : ... .. 9 ... : ... .. . ... ...
ROW E8 : ... .. C ... ... ... : E-4 00 5 ... ... ... : ... .. . ... : ... .. 7 ... : ... .. . ... ...
ROW E9 : ... .. . ... ... ... : A-3 00 4 ... ... ... : ... .. . ... : ... .. 5 ... : ... .. . ... ...
ROW EA : ... .. B ... ... ... : C-4 00 4 ... ... ... : ... .. . ... : ... .. 4 ... : ... .. . ... ...
ROW EB : ... .. A ... ... ... : E-4 00 3 ... ... ... : ... .. . ... : ... .. 2 ... : ... .. . ... ...
ROW EC : ... .. . ... ... ... : A-3 00 2 ... ... ... : ... .. . ... : ... .. 0 ... : ... .. . ... ...
ROW ED : ... .. 9 ... ... ... : C-4 00 2 ... ... ... : ... .. . ... : ... .. . ... : ... .. . ... ...
ROW EE : ... .. . ... ... ... : E-4 00 1 ... ... ... : ... .. . ... : ... .. . ... : ... .. . ... ...
ROW EF : ... .. F ... V03 ... : A-3 00 F ... V03 ... : C-5 00 . ... : 0-# 00 F ... : ... .. . ... ...
ROW F0 : ... .. . ... V01 ... : C-4 00 F ... V01 ... : ... .. . ... : ... .. E ... : ... .. . ... ...
ROW F1 : ... .. E ... V02 ... : E-4 00 E ... V02 ... : ... .. . ... : ... .. C ... : ... .. . ... ...
ROW F2 : ... .. . ... ... ... : A-3 00 E ... ... ... : ... .. . ... : ... .. A ... : ... .. . ... ...
ROW F3 : ... .. D ... ... ... : C-4 00 D ... ... ... : ... .. . ... : ... .. 9 ... : ... .. . ... ...
ROW F4 : ... .. C ... ... ... : E-4 00 C ... ... ... : ... .. . ... : ... .. 7 ... : ... .. . ... ...
ROW F5 : ... .. . ... ... ... : A-3 00 C ... ... ... : ... .. . ... : ... .. 5 ... : ... .. . ... ...
ROW F6 : ... .. B ... ... ... : C-4 00 B ... ... ... : ... .. . ... : ... .. 4 ... : ... .. . ... ...
ROW F7 : ... .. A ... ... ... : E-4 00 A ... ... ... : ... .. . ... : ... .. 2 ... : ... .. . ... ...
ROW F8 : ... .. . ... ... ... : A-3 00 A ... ... ... : ... .. . ... : ... .. 0 ... : ... .. . ... ...
ROW F9 : ... .. 9 ... ... ... : C-4 00 9 ... ... ... : ... .. . ... : ... .. . ... : ... .. . ... ...
ROW FA : ... .. . ... ... ... : E-4 00 9 ... ... ... : ... .. . ... : ... .. . ... : ... .. . ... ...
ROW FB : ... .. F ... V03 ... : A-3 00 8 ... ... ... : C-6 00 . ... : F-# 00 F ... : ... .. . ... ...
ROW FC : ... .. . ... V01 ... : C-4 00 7 ... ... ... : ... .. . ... : ... .. E ... : ... .. . ... ...
ROW FD : ... .. E ... V02 ... : E-4 00 7 ... ... ... : ... .. . ... : ... .. C ... : ... .. . ... ...
ROW FE : ... .. . ... ... ... : A-3 00 6 ... ... ... : ... .. . ... : ... .. A ... : ... .. . ... ...
ROW FF : ... .. D ... ... ... : C-4 00 5 ... ... ... : ... .. . ... : ... .. 9 ... : ... .. . ... ...

PATTERN 0A
ROW 00 : ... .. C ... ... ... : E-4 00 5 ... ... ... : ... .. . ... : ... .. 7 ... : ... .. . ... ...
ROW 01 : ... .. . ... ... ... : A-3 00 4 ... ... ... : ... .. . ... : ... .. 5 ... : ... .. . ... ...
ROW 02 : ... .. B ... ... ... : C-4 00 4 ... ... ... : ... .. . ... : ... .. 4 ... : ... .. . ... ...
ROW 03 : ... .. A ... ... ... : E-4 00 3 ... ... ... : ... .. . ... : ... .. 2 ... : ... .. . ... ...
ROW 04 : ... .. . ... ... ... : A-3 00 2 ... ... ... : ... .. . ... : ... .. 0 ... : ... .. . ... ...
ROW 05 : ... .. 9 ... ... ... : C-4 00 2 ... ... ... : ... .. . ... : ... .. . ... : ... .. . ... ...
ROW 06 : ... .. . ... ... ... : E-4 00 1 ... ... ... : ... .. . ... : ... .. . ... : ... .. . ... ...
ROW 07 : A-2 00 F P7F V03 ... : A-3 00 F ... V03 ... : C-5 00 . ... : 4-# 00 F ... : ... .. . ... ...
ROW 08 : ... .. . ... V01 ... : C-4 00 F ... V01 ... : ... .. . ... : ... .. E ... : ... .. . ... ...
ROW 09 : ... .. E ... V02 ... : E-4 00 E ... V02 ... : ... .. . ... : ... .. C ... : ... .. . ... ...
ROW 0A : ... .. . ... ... ... : A-3 00 E ... ... ... : ... .. . ... : ... .. A ... : ... .. . ... ...
ROW 0B : ... .. D ... ... ... : C-4 00 D ... ... ... : ... .. . ... : ... .. 9 ... : ... .. . ... ...
ROW 0C : ... .. C ... ... ... : E-4 00 C ... ... ... : ... .. . ... : ... .. 7 ... : ... .. . ... ...
ROW 0D : ... .. . ... ... ... : A-3 00 C ... ... ... : ... .. . ... : ... .. 5 ... : ... .. . ... ...
ROW 0E : ... .. B ... ... ... : C-4 00 B ... ... ... : ... .. . ... : ... .. 4 ... : ... .. . ... ...
ROW 0F : ... .. A ... ... ... : E-4 00 A ... ... ... : ... .. . ... : ... .. 2 ... : ... .. . ... ...
ROW 10 : ... .. . ... ... ... : A-3 00 A ... ... ... : ... .. . ... : ... .. 0 ... : ... .. . ... ...
ROW 11 : ... .. 9 ... ... ... : C-4 00 9 ... ... ... : ... .. . ... : ... .. . ... : ... .. . ... ...
ROW 12 : ... .. . ... ... ... : E-4 00 9 ... ... ... : ... .. . ... : ... .. . ... : ... .. . ... ...
ROW 13 : A-1 00 F P80 V03 ... : A-3 00 8 ... ... ... : C-6 00 . ... : F-# 00 F ... : ... .. . ... ...
ROW 14 : ... .. . ... V01 ... : C-4 00 7 ... ... ... : ... .. . ... : ... .. E ... : ... .. . ... ...
ROW 15 : ... .. E ... V02 ... : E-4 00 7 ... ... ... : ... .. . ... : ... .. C ... : ... .. . ... ...
ROW 16 : ... .. . ... ... ... : A-3 00 6 ... ... ... : ... .. . ... : ... .. A ... : ... .. . ... ...
ROW 17 : ... .. D ... ... ... : C-4 00 5 ... ... ... : ... .. . ... : ... .. 9 ... : ... .. . ... ...
ROW 18 : ... .. C ... ... ... : E-4 00 5 ... ... ... : ... .. . ... : ... .. 7 ... : ... .. . ... ...
ROW 19 : ... .. . ... ... ... : A-3 00 4 ... ... ... : ... .. . ... : ... .. 5 ... : ... .. . ... ...
ROW 1A : ... .. B ... ... ... : C-4 00 4 ... ... ... : ... .. . ... : ... .. 4 ... : ... .. . ... ...
ROW 1B : ... .. A ... ... ... : E-4 00 3 ... ... ... : ... .. . ... : ... .. 2 ... : ... .. . ... ...
ROW 1C : ... .. . ... ... ... : A-3 00 2 ... ... ... : ... .. . ... : ... .. 0 ... : ... .. . ... ...
ROW 1D : ... .. 9 ... ... ... : C-4 00 2 ... ... ... : ... .. . ... : ... .. . ... : ... .. . ... ...
ROW 1E : ... .. . ... ... ... : E-4 00 1 ... ... ... : ... .. . ... : ... .. . ... : ... .. . ... ...
ROW 1F : ... .. F ... V03 ... : A-3 00 F ... V03 ... : C-5 00 . ... : 0-# 00 F ... : ... .. . ... ...
ROW 20 : ... .. . ... V01 ... : C-4 00 F ... V01 ... : ... .. . ... : ... .. E ... : ... .. . ... ...
ROW 21 : ... .. E ... V02 ... : E-4 00 E ... V02 ... : ... .. . ... : ... .. C ... : ... .. . ... ...
ROW 22 : ... .. . ... ... ... : A-3 00 E ... ... ... : ... .. . ... : ... .. A ... : ... .. . ... ...
ROW 23 : ... .. D ... ... ... : C-4 00 D ... ... ... : ... .. . ... : ... .. 9 ... : ... .. . ... ...
ROW 24 : ... .. C ... ... ... : E-4 00 C ... ... ... : ... .. . ... : ... .. 7 ... : ... .. . ... ...
ROW 25 : ... .. . ... ... ... : A-3 00 C ... ... ... : ... .. . ... : ... .. 5 ... : ... .. . ... ...
ROW 26 : ... .. B ... ... ... : C-4 00 B ... ... ... : ... .. . ... : ... .. 4 ... : ... .. . ... ...
ROW 27 : ... .. A ... ... ... : E-4 00 A ... ... ... : ... .. . ... : ... .. 2 ... : ... .. . ... ...
ROW 28 : ... .. . ... ... ... : A-3 00 A ... ... ... : ... .. . ... : ... .. 0 ... : ... .. . ... ...
ROW 29 : ... .. 9 ... ... ... : C-4 00 9 ... ... ... : ... .. . ... : ... .. . ... : ... .. . ... ...
ROW 2A : ... .. . ... ... ... : E-4 00 9 ... ... ... : ... .. . ... : ... .. . ... : ... .. . ... ...
ROW 2B : ... .. F ... V03 ... : A-3 00 8 ... ... ... : C-6 00 . ... : F-# 00 F ... : ... .. . ... ...
ROW 2C : ... .. . ... V01 ... : C-4 00 7 ... ... ... : ... .. . ... : ... .. E ... : ... .. . ... ...
ROW 2D : ... .. E ... V02 ... : E-4 00 7 ... ... ... : ... .. . ... : ... .. C ... : ... .. . ... ...
ROW 2E : ... .. . ... ... ... : A-3 00 6 ... ... ... : ... .. . ... : ... .. A ... : ... .. . ... ...
ROW 2F : ... .. D ... ... ... : C-4 00 5 ... ... ... : ... .. . ... : ... .. 9 ... : ... .. . ... ...
ROW 30 : ... .. C ... ... ... : E-4 00 5 ... ... ... : ... .. . ... : ... .. 7 ... : ... .. . ... ...
ROW 31 : ... .. . ... ... ... : A-3 00 4 ... ... ... : ... .. . ... : ... .. 5 ... : ... .. . ... ...
ROW 32 : ... .. B ... ... ... : C-4 00 4 ... ... ... : ... .. . ... : ... .. 4 ... : ... .. . ... ...
ROW 33 : ... .. A ... ... ... : E-4 00 3 ... ... ... : ... .. . ... : ... .. 2 ... : ... .. . ... ...
ROW 34 : ... .. . ... ... ... : A-3 00 2 ... ... ... : ... .. . ... : ... .. 0 ... : ... .. . ... ...
ROW 35 : ... .. 9 ... ... ... : C-4 00 2 ... ... ... : ... .. . ... : ... .. . ... : ... .. . ... ...
ROW 36 : ... .. . ... ... ... : E-4 00 1 ... ... ... : ... .. . ... : ... .. . ... : ... .. . ... ...
ROW 37 : A-2 00 F P7F V03 ... : A-3 00 F ... V03 ... : C-5 00 . ... : 4-# 00 F ... : ... .. . ... ...
ROW 38 : ... .. . ... V01 ... : C-4 00 F ... V01 ... : ... .. . ... : ... .. E ... : ... .. . ... ...
ROW 39 : ... .. E ... V02 ... : E-4 00 E ... V02 ... : ... .. . ... : ... .. C ... : ... .. . ... ...
ROW 3A : ... .. . ... ... ... : A-3 00 E ... ... ... : ... .. . ... : ... .. A ... : ... .. . ... ...
ROW 3B : ... .. D ... ... ... : C-4 00 D ... ... ... : ... .. . ... : ... .. 9 ... : ... .. . ... ...
ROW 3C : ... .. C ... ... ... : E-4 00 C ... ... ... : ... .. . ... : ... .. 7 ... : ... .. . ... ...
ROW 3D : ... .. . ... ... ... : A-3 00 C ... ... ... : ... .. . ... : ... .. 5 ... : ... .. . ... ...
ROW 3E : ... .. B ... ... ... : C-4 00 B ... ... ... : ... .. . ... : ... .. 4 ... : ... .. . ... ...
ROW 3F : ... .. A ... ... ... : E-4 00 A ... ... ... : ... .. . ... : ... .. 2 ... : ... .. . ... ...
ROW 40 : ... .. . ... ... ... : A-3 00 A ... ... ... : ... .. . ... : ... .. 0 ... : ... .. . ... ...
ROW 41 : ... .. 9 ... ... ... : C-4 00 9 ... ... ... : ... .. . ... : ... .. . ... : ... .. . ... ...
ROW 42 : ... .. . ... ... ... : E-4 00 9 ... ... ... : ... .. . ... : ... .. . ... : ... .. . ... ...
ROW 43 : A-1 00 F P80 V03 ... : A-3 00 8 ... ... ... : C-6 00 . ... : F-# 00 F ... : ... .. . ... ...
ROW 44 : ... .. . ... V01 ... : C-4 00 7 ... ... ... : ... .. . ... : ... .. E ... : ... .. . ... ...
ROW 45 : ... .. E ... V02 ... : E-4 00 7 ... ... ... : ... .. . ... : ... .. C ... : ... .. . ... ...
ROW 46 : ... .. . ... ... ... : A-3 00 6 ... ... ... : ... .. . ... : ... .. A ... : ... .. . ... ...
ROW 47 : ... .. D ... ... ... : C-4 00 5 ... ... ... : ... .. . ... : ... .. 9 ... : ... .. . ... ...
ROW 48 : ... .. C ... ... ... : E-4 00 5 ... ... ... : ... .. . ... : ... .. 7 ... : ... .. . ... ...
ROW 49 : ... .. . ... ... ... : A-3 00 4 ... ... ... : ... .. . ... : ... .. 5 ... : ... .. . ... ...
ROW 4A : ... .. B ... ... ... : C-4 00 4 ... ... ... : ... .. . ... : ... .. 4 ... : ... .. . ... ...
ROW 4B : ... .. A ... ... ... : E-4 00 3 ... ... ... : ... .. . ... : ... .. 2 ... : ... .. . ... ...
ROW 4C : ... .. . ... ... ... : A-3 00 2 ... ... ... : ... .. . ... : ... .. 0 ... : ... .. . ... ...
ROW 4D : ... .. 9 ... ... ... : C-4 00 2 ... ... ... : ... .. . ... : ... .. . ... : ... .. . ... ...
ROW 4E : ... .. . ... ... ... : E-4 00 1 ... ... ... : ... .. . ... : ... .. . ... : ... .. . ... ...
ROW 4F : G-1 00 F ... V03 ... : G-3 00 F ... V03 ... : B-4 00 . ... : 0-# 00 F ... : ... .. . ... ...
ROW 50 : ... .. . ... V01 ... : B-3 00 F ... V01 ... : ... .. . ... : ... .. E ... : ... .. . ... ...
ROW 51 : ... .. E ... V02 ... : D-4 00 E ... V02 ... : ... .. . ... : ... .. C ... : ... .. . ... ...
ROW 52 : ... .. . ... ... ... : G-3 00 E ... ... ... : ... .. . ... : ... .. A ... : ... .. . ... ...
ROW 53 : ... .. D ... ... ... : B-3 00 D ... ... ... : ... .. . ... : ... .. 9 ... : ... .. . ... ...
ROW 54 : ... .. C ... ... ... : D-4 00 C ... ... ... : ... .. . ... : ... .. 7 ... : ... .. . ... ...
ROW 55 : ... .. . ... ... ... : G-3 00 C ... ... ... : ... .. . ... : ... .. 5 ... : ... .. . ... ...
ROW 56 : ... .. B ... ... ... : B-3 00 B ... ... ... : ... .. . ... : ... .. 4 ... : ... .. . ... ...
ROW 57 : ... .. A ... ... ... : D-4 00 A ... ... ... : ... .. . ... : ... .. 2 ... : ... .. . ... ...
ROW 58 : ... .. . ... ... ... : G-3 00 A ... ... ... : ... .. . ... : ... .. 0 ... : ... .. . ... ...
ROW 59 : ... .. 9 ... ... ... : B-3 00 9 ... ... ... : ... .. . ... : ... .. . ... : ... .. . ... ...
ROW 5A : ... .. . ... ... ... : D-4 00 9 ... ... ... : ... .. . ... : ... .. . ... : ... .. . ... ...
ROW 5B : ... .. F ... V03 ... : G-3 00 8 ... ... ... : B-5 00 . P80 : F-# 00 F ... : ... .. . ... ...
ROW 5C : ... .. . ... V01 ... : B-3 00 7 ... ... ... : ... .. . ... : ... .. E ... : ... .. . ... ...
ROW 5D : ... .. E ... V02 ... : D-4 00 7 ... ... ... : ... .. . ... : ... .. C ... : ... .. . ... ...
ROW 5E : ... .. . ... ... ... : G-3 00 6 ... ... ... : ... .. . ... : ... .. A ... : ... .. . ... ...
ROW 5F : ... .. D ... ... ... : B-3 00 5 ... ... ... : ... .. . ... : ... .. 9 ... : ... .. . ... ...
ROW 60 : ... .. C ... ... ... : D-4 00 5 ... ... ... : ... .. . ... : ... .. 7 ... : ... .. . ... ...
ROW 61 : ... .. . ... ... ... : G-3 00 4 ... ... ... : ... .. . ... : ... .. 5 ... : ... .. . ... ...
ROW 62 : ... .. B ... ... ... : B-3 00 4 ... ... ... : ... .. . ... : ... .. 4 ... : ... .. . ... ...
ROW 63 : ... .. A ... ... ... : D-4 00 3 ... ... ... : ... .. . ... : ... .. 2 ... : ... .. . ... ...
ROW 64 : ... .. . ... ... ... : G-3 00 2 ... ... ... : ... .. . ... : ... .. 0 ... : ... .. . ... ...
ROW 65 : ... .. 9 ... ... ... : B-3 00 2 ... ... ... : ... .. . ... : ... .. . ... : ... .. . ... ...
ROW 66 : ... .. . ... ... ... : D-4 00 1 ... ... ... : ... .. . ... : ... .. . ... : ... .. . ... ...
ROW 67 : G-2 00 F ... V03 ... : G-3 00 F ... V03 ... : B-4 00 . P7F : 4-# 00 F ... : ... .. . ... ...
ROW 68 : ... .. . ... V01 ... : B-3 00 F ... V01 ... : ... .. . ... : ... .. E ... : ... .. . ... ...
ROW 69 : ... .. E ... V02 ... : D-4 00 E ... V02 ... : ... .. . ... : ... .. C ... : ... .. . ... ...
ROW 6A : ... .. . ... ... ... : G-3 00 E ... ... ... : ... .. . ... : ... .. A ... : ... .. . ... ...
ROW 6B : ... .. D ... ... ... : B-3 00 D ... ... ... : ... .. . ... : ... .. 9 ... : ... .. . ... ...
ROW 6C : ... .. C ... ... ... : D-4 00 C ... ... ... : ... .. . ... : ... .. 7 ... : ... .. . ... ...
ROW 6D : ... .. . ... ... ... : G-3 00 C ... ... ... : ... .. . ... : ... .. 5 ... : ... .. . ... ...
ROW 6E : ... .. B ... ... ... : B-3 00 B ... ... ... : ... .. . ... : ... .. 4 ... : ... .. . ... ...
ROW 6F : ... .. A ... ... ... : D-4 00 A ... ... ... : ... .. . ... : ... .. 2 ... : ... .. . ... ...
ROW 70 : ... .. . ... ... ... : G-3 00 A ... ... ... : ... .. . ... : ... .. 0 ... : ... .. . ... ...
ROW 71 : ... .. 9 ... ... ... : B-3 00 9 ... ... ... : ... .. . ... : ... .. . ... : ... .. . ... ...
ROW 72 : ... .. . ... ... ... : D-4 00 9 ... ... ... : ... .. . ... : ... .. . ... : ... .. . ... ...
ROW 73 : G-1 00 F ... V03 ... : G-3 00 8 ... ... ... : B-5 00 . P80 : F-# 00 F ... : ... .. . ... ...
ROW 74 : ... .. . ... V01 ... : B-3 00 7 ... ... ... : ... .. . ... : ... .. E ... : ... .. . ... ...
ROW 75 : ... .. E ... V02 ... : D-4 00 7 ... ... ... : ... .. . ... : ... .. C ... : ... .. . ... ...
ROW 76 : ... .. . ... ... ... : G-3 00 6 ... ... ... : ... .. . ... : ... .. A ... : ... .. . ... ...
ROW 77 : ... .. D ... ... ... : B-3 00 5 ... ... ... : ... .. . ... : ... .. 9 ... : ... .. . ... ...
ROW 78 : ... .. C ... ... ... : D-4 00 5 ... ... ... : ... .. . ... : ... .. 7 ... : ... .. . ... ...
ROW 79 : ... .. . ... ... ... : G-3 00 4 ... ... ... : ... .. . ... : ... .. 5 ... : ... .. . ... ...
ROW 7A : ... .. B ... ... ... : B-3 00 4 ... ... ... : ... .. . ... : ... .. 4 ... : ... .. . ... ...
ROW 7B : ... .. A ... ... ... : D-4 00 3 ... ... ... : ... .. . ... : ... .. 2 ... : ... .. . ... ...
ROW 7C : ... .. . ... ... ... : G-3 00 2 ... ... ... : ... .. . ... : ... .. 0 ... : ... .. . ... ...
ROW 7D : ... .. 9 ... ... ... : B-3 00 2 ... ... ... : ... .. . ... : ... .. . ... : ... .. . ... ...
ROW 7E : ... .. . ... ... ... : D-4 00 1 ... ... ... : ... .. . ... : ... .. . ... : ... .. . ... ...
ROW 7F : A-1 00 F ... V03 ... : ... .. 0 ... V00 ... : C#6 00 . P81 : 0-# 00 F ... : ... .. . ... ...
ROW 80 : ... .. . ... V01 ... : ... .. . ... ... ... : ... .. . P80 : ... .. E ... : ... .. . ... ...
ROW 81 : ... .. E ... V02 ... : ... .. . ... ... ... : ... .. . P7F : ... .. C ... : ... .. . ... ...
ROW 82 : ... .. . ... ... ... : ... .. . ... ... ... : C-6 00 . P81 : ... .. A ... : ... .. . ... ...
ROW 83 : ... .. D ... ... ... : ... .. . ... ... ... : ... .. . P80 : ... .. 9 ... : ... .. . ... ...
ROW 84 : ... .. C ... ... ... : ... .. . ... ... ... : ... .. . P7F : ... .. 7 ... : ... .. . ... ...
ROW 85 : ... .. . ... ... ... : ... .. . ... ... ... : B-5 00 . P82 : ... .. 5 ... : ... .. . ... ...
ROW 86 : ... .. B ... ... ... : ... .. . ... ... ... : ... .. . P81 : ... .. 4 ... : ... .. . ... ...
ROW 87 : ... .. A ... ... ... : ... .. . ... ... ... : ... .. . P80 : ... .. 2 ... : ... .. . ... ...
ROW 88 : ... .. . ... ... ... : ... .. . ... ... ... : ... .. . P7F : ... .. 0 ... : ... .. . ... ...
ROW 89 : ... .. 9 ... ... ... : ... .. . ... ... ... : A#5 00 . P81 : ... .. . ... : ... .. . ... ...
ROW 8A : ... .. . ... ... ... : ... .. . ... ... ... : ... .. . P80 : ... .. . ... : ... .. . ... ...
ROW 8B : ... .. F ... V03 ... : ... .. . ... ... ... : ... .. . P7F : F-# 00 F ... : ... .. . ... ...
ROW 8C : ... .. . ... V01 ... : ... .. . ... ... ... : A-5 00 . P82 : ... .. E ... : ... .. . ... ...
ROW 8D : ... .. E ... V02 ... : ... .. . ... ... ... : ... .. . P81 : ... .. C ... : ... .. . ... ...
ROW 8E : ... .. . ... ... ... : ... .. . ... ... ... : ... .. . P80 : ... .. A ... : ... .. . ... ...
ROW 8F : ... .. D ... ... ... : ... .. . ... ... ... : ... .. . P7F : ... .. 9 ... : ... .. . ... ...
ROW 90 : ... .. C ... ... ... : ... .. . ... ... ... : G#5 00 . P81 : ... .. 7 ... : ... .. . ... ...
ROW 91 : ... .. . ... ... ... : ... .. . ... ... ... : ... .. . P80 : ... .. 5 ... : ... .. . ... ...
ROW 92 : ... .. B ... ... ... : ... .. . ... ... ... : ... .. . P7F : ... .. 4 ... : ... .. . ... ...
ROW 93 : ... .. A ... ... ... : ... .. . ... ... ... : G-5 00 . P82 : ... .. 2 ... : ... .. . ... ...
ROW 94 : ... .. . ... ... ... : ... .. . ... ... ... : ... .. . P81 : ... .. 0 ... : ... .. . ... ...
ROW 95 : ... .. 9 ... ... ... : ... .. . ... ... ... : ... .. . P80 : ... .. . ... : ... .. . ... ...
ROW 96 : ... .. . ... ... ... : ... .. . ... ... ... : ... .. . P7F : ... .. . ... : ... .. . ... ...
ROW 97 : A-2 00 F P7F V03 ... : ... .. . ... ... ... : ... .. . P7E : 4-# 00 F ... : ... .. . ... ...
ROW 98 : ... .. . ... V01 ... : ... .. . ... ... ... : F#5 00 . P82 : ... .. E ... : ... .. . ... ...
ROW 99 : ... .. E ... V02 ... : ... .. . ... ... ... : ... .. . P81 : ... .. C ... : ... .. . ... ...
ROW 9A : ... .. . ... ... ... : ... .. . ... ... ... : ... .. . P80 : ... .. A ... : ... .. . ... ...
ROW 9B : ... .. D ... ... ... : ... .. . ... ... ... : ... .. . P7F : ... .. 9 ... : ... .. . ... ...
ROW 9C : ... .. C ... ... ... : ... .. . ... ... ... : F-5 00 . P82 : ... .. 7 ... : ... .. . ... ...
ROW 9D : ... .. . ... ... ... : ... .. . ... ... ... : ... .. . P81 : ... .. 5 ... : ... .. . ... ...
ROW 9E : ... .. B ... ... ... : ... .. . ... ... ... : ... .. . P80 : ... .. 4 ... : ... .. . ... ...
ROW 9F : ... .. A ... ... ... : ... .. . ... ... ... : ... .. . P7F : ... .. 2 ... : ... .. . ... ...
ROW A0 : ... .. . ... ... ... : ... .. . ... ... ... : ... .. . P7E : ... .. 0 ... : ... .. . ... ...
ROW A1 : ... .. 9 ... ... ... : ... .. . ... ... ... : E-5 00 . P82 : ... .. . ... : ... .. . ... ...
ROW A2 : ... .. . ... ... ... : ... .. . ... ... ... : ... .. . P81 : ... .. . ... : ... .. . ... ...
ROW A3 : A-1 00 F P80 V03 ... : ... .. . ... ... ... : ... .. . P80 : 0-# 00 F ... : ... .. . ... ...
ROW A4 : ... .. . ... V01 ... : ... .. . ... ... ... : ... .. . P7F : ... .. E ... : ... .. . ... ...
ROW A5 : ... .. E ... V02 ... : ... .. . ... ... ... : ... .. . P7E : ... .. C ... : ... .. . ... ...
ROW A6 : ... .. . ... ... ... : ... .. . ... ... ... : D#5 00 . P82 : ... .. A ... : ... .. . ... ...
ROW A7 : ... .. D ... ... ... : ... .. . ... ... ... : ... .. . P81 : ... .. 9 ... : ... .. . ... ...
ROW A8 : ... .. C ... ... ... : ... .. . ... ... ... : ... .. . P80 : ... .. 7 ... : ... .. . ... ...
ROW A9 : ... .. . ... ... ... : ... .. . ... ... ... : ... .. . P7F : ... .. F ... : ... .. . ... ...
ROW AA : ... .. B ... ... ... : ... .. . ... ... ... : ... .. . P7E : ... .. E ... : ... .. . ... ...
ROW AB : ... .. A ... ... ... : ... .. . ... ... ... : D-5 00 . P82 : ... .. C ... : ... .. . ... ...
ROW AC : ... .. . ... ... ... : ... .. . ... ... ... : ... .. . P81 : ... .. A ... : ... .. . ... ...
ROW AD : ... .. 9 ... ... ... : ... .. . ... ... ... : ... .. . P80 : ... .. 9 ... : ... .. . ... ...
ROW AE : ... .. . ... ... ... : ... .. . ... ... ... : ... .. . P7F : ... .. 7 ... : ... .. . ... ...
ROW AF : ... .. F ... V03 ... : ... .. . ... ... ... : ... .. . P7E : ... .. F ... : ... .. . ... ...
ROW B0 : ... .. . ... V01 ... : ... .. . ... ... ... : C#5 00 . P83 : ... .. E ... : ... .. . ... ...
ROW B1 : ... .. E ... V02 ... : ... .. . ... ... ... : ... .. . P82 : ... .. C ... : ... .. . ... ...
ROW B2 : ... .. . ... ... ... : ... .. . ... ... ... : ... .. . P81 : ... .. A ... : ... .. . ... ...
ROW B3 : ... .. D ... ... ... : ... .. . ... ... ... : ... .. . P80 : ... .. 9 ... : ... .. . ... ...
ROW B4 : ... .. C ... ... ... : ... .. . ... ... ... : ... .. . P7F : ... .. 7 ... : ... .. . ... ...
ROW B5 : ... .. . ... ... ... : ... .. . ... ... ... : ... .. . P7E : ... .. F ... : ... .. . ... ...
ROW B6 : ... .. B ... ... ... : ... .. . ... ... ... : C-5 00 . P83 : ... .. E ... : ... .. . ... ...
ROW B7 : ... .. A ... ... ... : ... .. . ... ... ... : ... .. . P82 : ... .. C ... : ... .. . ... ...
ROW B8 : ... .. . ... ... ... : ... .. . ... ... ... : ... .. . P81 : ... .. A ... : ... .. . ... ...
ROW B9 : ... .. 9 ... ... ... : ... .. . ... ... ... : ... .. . P80 : ... .. 9 ... : ... .. . ... ...
ROW BA : ... .. . ... ... ... : ... .. . ... ... ... : ... .. . P7F : ... .. 7 ... : ... .. . ... ...
ROW BB : ... .. F ... V03 ... : ... .. . ... ... ... : ... .. . P7E : ... .. F ... : ... .. . ... ...
ROW BC : ... .. . ... V01 ... : ... .. . ... ... ... : B-4 00 . P83 : ... .. E ... : ... .. . ... ...
ROW BD : ... .. E ... V02 ... : ... .. . ... ... ... : ... .. . P82 : ... .. C ... : ... .. . ... ...
ROW BE : ... .. . ... ... ... : ... .. . ... ... ... : ... .. . P81 : ... .. A ... : ... .. . ... ...
ROW BF : ... .. D ... ... ... : ... .. . ... ... ... : ... .. . P80 : ... .. 9 ... : ... .. . ... ...
ROW C0 : ... .. C ... ... ... : ... .. . ... ... ... : ... .. . P7F : ... .. 7 ... : ... .. . ... ...
ROW C1 : ... .. . ... ... ... : ... .. . ... ... ... : ... .. . P7E : F-# 00 F ... : ... .. . ... ...
ROW C2 : ... .. B ... ... ... : ... .. . ... ... ... : ... .. . P7D : ... .. E ... : ... .. . ... ...
ROW C3 : ... .. A ... ... ... : ... .. . ... ... ... : A#4 00 . P83 : ... .. C ... : ... .. . ... ...
ROW C4 : ... .. . ... ... ... : ... .. . ... ... ... : ... .. . P82 : ... .. A ... : ... .. . ... ...
ROW C5 : ... .. 9 ... ... ... : ... .. . ... ... ... : ... .. . P81 : ... .. 9 ... : ... .. . ... ...
ROW C6 : ... .. . ... ... ... : ... .. . ... ... ... : ... .. . P80 : ... .. 7 ... : ... .. . ... ...
ROW C7 : A-2 00 F P7F V03 ... : ... .. . ... ... ... : ... .. . P7F : 4-# 00 F ... : ... .. . ... ...
ROW C8 : ... .. . ... V01 ... : ... .. . ... ... ... : ... .. . P7E : ... .. E ... : ... .. . ... ...
ROW C9 : ... .. E ... V02 ... : ... .. . ... ... ... : ... .. . P7D : ... .. C ... : ... .. . ... ...
ROW CA : ... .. . ... ... ... : ... .. . ... ... ... : A-4 00 . P83 : ... .. A ... : ... .. . ... ...
ROW CB : ... .. D ... ... ... : ... .. . ... ... ... : ... .. . P82 : ... .. 9 ... : ... .. . ... ...
ROW CC : ... .. C ... ... ... : ... .. . ... ... ... : ... .. . P81 : ... .. 7 ... : ... .. . ... ...
ROW CD : ... .. . ... ... ... : ... .. . ... ... ... : ... .. . P80 : ... .. 5 ... : ... .. . ... ...
ROW CE : ... .. B ... ... ... : ... .. . ... ... ... : ... .. . P7F : ... .. 4 ... : ... .. . ... ...
ROW CF : ... .. A ... ... ... : ... .. . ... ... ... : ... .. . P7E : ... .. 2 ... : ... .. . ... ...
ROW D0 : ... .. . ... ... ... : ... .. . ... ... ... : ... .. . P7D : ... .. 0 ... : ... .. . ... ...
ROW D1 : ... .. 9 ... ... ... : ... .. . ... ... ... : G#4 00 . P84 : ... .. . ... : ... .. . ... ...
ROW D2 : ... .. . ... ... ... : ... .. . ... ... ... : ... .. . P83 : ... .. . ... : ... .. . ... ...
ROW D3 : A-1 00 F P80 V03 ... : ... .. . ... ... ... : ... .. . P82 : F-# 00 F ... : ... .. . ... ...
ROW D4 : ... .. . ... V01 ... : ... .. . ... ... ... : ... .. . P81 : ... .. E ... : ... .. . ... ...
ROW D5 : ... .. E ... V02 ... : ... .. . ... ... ... : ... .. . P80 : ... .. C ... : ... .. . ... ...
ROW D6 : ... .. . ... ... ... : ... .. . ... ... ... : ... .. . P7F : ... .. A ... : ... .. . ... ...
ROW D7 : ... .. D ... ... ... : ... .. . ... ... ... : ... .. . P7E : ... .. 9 ... : ... .. . ... ...
ROW D8 : ... .. C ... ... ... : ... .. . ... ... ... : ... .. . P7D : ... .. 7 ... : ... .. . ... ...
ROW D9 : ... .. . ... ... ... : ... .. . ... ... ... : G-4 00 . P84 : ... .. F ... : ... .. . ... ...
ROW DA : ... .. B ... ... ... : ... .. . ... ... ... : ... .. . P83 : ... .. E ... : ... .. . ... ...
ROW DB : ... .. A ... ... ... : ... .. . ... ... ... : ... .. . P82 : ... .. C ... : ... .. . ... ...
ROW DC : ... .. . ... ... ... : ... .. . ... ... ... : ... .. . P81 : ... .. A ... : ... .. . ... ...
ROW DD : ... .. 9 ... ... ... : ... .. . ... ... ... : ... .. . P80 : ... .. 9 ... : ... .. . ... ...
ROW DE : ... .. . ... ... ... : ... .. . ... ... ... : ... .. . P7F : ... .. 7 ... : ... .. . ... ...
ROW DF : ... .. F ... V03 ... : ... .. . ... ... ... : ... .. . P7E : 0-# 00 F ... : ... .. . ... ...
ROW E0 : ... .. . ... V01 ... : ... .. . ... ... ... : ... .. . P7D : ... .. E ... : ... .. . ... ...
ROW E1 : ... .. E ... V02 ... : ... .. . ... ... ... : F#4 00 . P84 : ... .. C ... : ... .. . ... ...
ROW E2 : ... .. . ... ... ... : ... .. . ... ... ... : ... .. . P83 : ... .. A ... : ... .. . ... ...
ROW E3 : ... .. D ... ... ... : ... .. . ... ... ... : ... .. . P82 : ... .. 9 ... : ... .. . ... ...
ROW E4 : ... .. C ... ... ... : ... .. . ... ... ... : ... .. . P81 : ... .. 7 ... : ... .. . ... ...
ROW E5 : ... .. . ... ... ... : ... .. . ... ... ... : ... .. . P80 : ... .. 5 ... : ... .. . ... ...
ROW E6 : ... .. B ... ... ... : ... .. . ... ... ... : ... .. . P7F : ... .. 4 ... : ... .. . ... ...
ROW E7 : ... .. A ... ... ... : ... .. . ... ... ... : ... .. . P7E : ... .. 2 ... : ... .. . ... ...
ROW E8 : ... .. . ... ... ... : ... .. . ... ... ... : ... .. . P7D : ... .. 0 ... : ... .. . ... ...
ROW E9 : ... .. 9 ... ... ... : ... .. . ... ... ... : ... .. . P7C : ... .. . ... : ... .. . ... ...
ROW EA : ... .. . ... ... ... : ... .. . ... ... ... : F-4 00 . P84 : ... .. . ... : ... .. . ... ...
ROW EB : ... .. F ... V03 ... : ... .. . ... ... ... : ... .. . P83 : F-# 00 F ... : ... .. . ... ...
ROW EC : ... .. . ... V01 ... : ... .. . ... ... ... : ... .. . P82 : ... .. E ... : ... .. . ... ...
ROW ED : ... .. E ... V02 ... : ... .. . ... ... ... : ... .. . P81 : ... .. C ... : ... .. . ... ...
ROW EE : ... .. . ... ... ... : ... .. . ... ... ... : ... .. . P80 : ... .. A ... : ... .. . ... ...
ROW EF : ... .. D ... ... ... : ... .. . ... ... ... : ... .. . P7F : ... .. 9 ... : ... .. . ... ...
ROW F0 : ... .. C ... ... ... : ... .. . ... ... ... : ... .. . P7E : ... .. 7 ... : ... .. . ... ...
ROW F1 : ... .. . ... ... ... : ... .. . ... ... ... : ... .. . P7D : ... .. 5 ... : ... .. . ... ...
ROW F2 : ... .. B ... ... ... : ... .. . ... ... ... : ... .. . P7C : ... .. 4 ... : ... .. . ... ...
ROW F3 : ... .. A ... ... ... : ... .. . ... ... ... : E-4 00 . P85 : ... .. 2 ... : ... .. . ... ...
ROW F4 : ... .. . ... ... ... : ... .. . ... ... ... : ... .. . P84 : ... .. 0 ... : ... .. . ... ...
ROW F5 : ... .. 9 ... ... ... : ... .. . ... ... ... : ... .. . P83 : ... .. . ... : ... .. . ... ...
ROW F6 : ... .. . ... ... ... : ... .. . ... ... ... : ... .. . P82 : ... .. . ... : ... .. . ... ...
ROW F7 : A-2 00 F P7F V03 ... : ... .. . ... ... ... : ... .. . P81 : 4-# 00 F ... : ... .. . ... ...
ROW F8 : ... .. . ... V01 ... : ... .. . ... ... ... : ... .. . P80 : ... .. E ... : ... .. . ... ...
ROW F9 : ... .. E ... V02 ... : ... .. . ... ... ... : ... .. . P7F : ... .. C ... : ... .. . ... ...
ROW FA : ... .. . ... ... ... : ... .. . ... ... ... : ... .. . P7E : ... .. A ... : ... .. . ... ...
ROW FB : ... .. D ... ... ... : ... .. . ... ... ... : ... .. . P7D : ... .. 9 ... : ... .. . ... ...
ROW FC : ... .. C ... ... ... : ... .. . ... ... ... : ... .. . P7C : ... .. 7 ... : ... .. . ... ...
ROW FD : ... .. . ... ... ... : ... .. . ... ... ... : D#4 00 . P85 : ... .. 5 ... : ... .. . ... ...
ROW FE : ... .. B ... ... ... : ... .. . ... ... ... : ... .. . P84 : ... .. 4 ... : ... .. . ... ...
ROW FF : ... .. A ... ... ... : ... .. . ... ... ... : ... .. . P83 : ... .. 2 ... : ... .. . ... ...

PATTERN 0B
ROW 00 : ... .. . ... ... ... : ... .. . ... ... ... : ... .. . P82 : ... .. 0 ... : ... .. . ... ...
ROW 01 : ... .. 9 ... ... ... : ... .. . ... ... ... : ... .. . P81 : ... .. . ... : ... .. . ... ...
ROW 02 : ... .. . ... ... ... : ... .. . ... ... ... : ... .. . P80 : ... .. . ... : ... .. . ... ...
ROW 03 : A-1 00 F P80 V03 ... : ... .. . ... ... ... : ... .. . P7F : ... .. F ... : ... .. . ... ...
ROW 04 : ... .. . ... V01 ... : ... .. . ... ... ... : ... .. . P7E : ... .. E ... : ... .. . ... ...
ROW 05 : ... .. E ... V02 ... : ... .. . ... ... ... : ... .. . P7D : ... .. C ... : ... .. . ... ...
ROW 06 : ... .. . ... ... ... : ... .. . ... ... ... : ... .. . P7C : ... .. A ... : ... .. . ... ...
ROW 07 : ... .. D ... ... ... : ... .. . ... ... ... : D-4 00 . P85 : ... .. 9 ... : ... .. . ... ...
ROW 08 : ... .. C ... ... ... : ... .. . ... ... ... : ... .. . P84 : ... .. 7 ... : ... .. . ... ...
ROW 09 : ... .. . ... ... ... : ... .. . ... ... ... : ... .. . P83 : ... .. F ... : ... .. . ... ...
ROW 0A : ... .. B ... ... ... : ... .. . ... ... ... : ... .. . P82 : ... .. E ... : ... .. . ... ...
ROW 0B : ... .. A ... ... ... : ... .. . ... ... ... : ... .. . P81 : ... .. C ... : ... .. . ... ...
ROW 0C : ... .. . ... ... ... : ... .. . ... ... ... : ... .. . P80 : ... .. A ... : ... .. . ... ...
ROW 0D : ... .. 9 ... ... ... : ... .. . ... ... ... : ... .. . P7F : ... .. 9 ... : ... .. . ... ...
ROW 0E : ... .. . ... ... ... : ... .. . ... ... ... : ... .. . P7E : ... .. 7 ... : ... .. . ... ...
ROW 0F : G-1 00 F ... V03 ... : ... .. . ... ... ... : ... .. . P7D : ... .. F ... : ... .. . ... ...
ROW 10 : ... .. . ... V01 ... : ... .. . ... ... ... : ... .. . P7C : ... .. E ... : ... .. . ... ...
ROW 11 : ... .. E ... V02 ... : ... .. . ... ... ... : ... .. . P7B : ... .. C ... : ... .. . ... ...
ROW 12 : ... .. . ... ... ... : ... .. . ... ... ... : C#4 00 . P86 : ... .. A ... : ... .. . ... ...
ROW 13 : ... .. D ... ... ... : ... .. . ... ... ... : ... .. . P85 : ... .. 9 ... : ... .. . ... ...
ROW 14 : ... .. C ... ... ... : ... .. . ... ... ... : ... .. . P84 : ... .. 7 ... : ... .. . ... ...
ROW 15 : ... .. . ... ... ... : ... .. . ... ... ... : ... .. . P83 : ... .. F ... : ... .. . ... ...
ROW 16 : ... .. B ... ... ... : ... .. . ... ... ... : ... .. . P82 : ... .. E ... : ... .. . ... ...
ROW 17 : ... .. A ... ... ... : ... .. . ... ... ... : ... .. . P81 : ... .. C ... : ... .. . ... ...
ROW 18 : ... .. . ... ... ... : ... .. . ... ... ... : ... .. . P80 : ... .. A ... : ... .. . ... ...
ROW 19 : ... .. 9 ... ... ... : ... .. . ... ... ... : ... .. . P7F : ... .. 9 ... : ... .. . ... ...
ROW 1A : ... .. . ... ... ... : ... .. . ... ... ... : ... .. . P7E : ... .. 7 ... : ... .. . ... ...
ROW 1B : ... .. F ... V03 ... : ... .. . ... ... ... : ... .. . P7D : ... .. F ... : ... .. . ... ...
ROW 1C : ... .. . ... V01 ... : ... .. . ... ... ... : ... .. . P7C : ... .. E ... : ... .. . ... ...
ROW 1D : ... .. E ... V02 ... : ... .. . ... ... ... : ... .. . P7B : ... .. C ... : ... .. . ... ...
ROW 1E : ... .. . ... ... ... : ... .. . ... ... ... : C-4 00 . P86 : ... .. A ... : ... .. . ... ...
ROW 1F : ... .. D ... ... ... : ... .. . ... ... ... : ... .. . P85 : ... .. 9 ... : ... .. . ... ...
ROW 20 : ... .. C ... ... ... : ... .. . ... ... ... : ... .. . P84 : ... .. 7 ... : ... .. . ... ...
ROW 21 : ... .. . ... ... ... : ... .. . ... ... ... : ... .. . P83 : ... .. F ... : ... .. . ... ...
ROW 22 : ... .. B ... ... ... : ... .. . ... ... ... : ... .. . P82 : ... .. E ... : ... .. . ... ...
ROW 23 : ... .. A ... ... ... : ... .. . ... ... ... : ... .. . P81 : ... .. C ... : ... .. . ... ...
ROW 24 : ... .. . ... ... ... : ... .. . ... ... ... : ... .. . P80 : ... .. A ... : ... .. . ... ...
ROW 25 : ... .. 9 ... ... ... : ... .. . ... ... ... : ... .. . P7F : ... .. 9 ... : ... .. . ... ...
ROW 26 : ... .. . ... ... ... : ... .. . ... ... ... : ... .. . P7E : ... .. 7 ... : ... .. . ... ...
ROW 27 : G-2 00 F ... V03 ... : ... .. . ... ... ... : ... .. . P7D : ... .. F ... : ... .. . ... ...
ROW 28 : ... .. . ... V01 ... : ... .. . ... ... ... : ... .. . P7C : ... .. E ... : ... .. . ... ...
ROW 29 : ... .. E ... V02 ... : ... .. . ... ... ... : ... .. . P7B : ... .. C ... : ... .. . ... ...
ROW 2A : ... .. . ... ... ... : ... .. . ... ... ... : B-3 00 . P86 : ... .. A ... : ... .. . ... ...
ROW 2B : ... .. D ... ... ... : ... .. . ... ... ... : ... .. . P85 : ... .. 9 ... : ... .. . ... ...
ROW 2C : ... .. C ... ... ... : ... .. . ... ... ... : ... .. . P84 : ... .. 7 ... : ... .. . ... ...
ROW 2D : ... .. . ... ... ... : ... .. . ... ... ... : ... .. . P83 : ... .. 5 ... : ... .. . ... ...
ROW 2E : ... .. B ... ... ... : ... .. . ... ... ... : ... .. . P82 : ... .. 4 ... : ... .. . ... ...
ROW 2F : ... .. A ... ... ... : ... .. . ... ... ... : ... .. . P81 : ... .. 2 ... : ... .. . ... ...
ROW 30 : ... .. . ... ... ... : ... .. . ... ... ... : ... .. . P80 : ... .. 0 ... : ... .. . ... ...
ROW 31 : ... .. 9 ... ... ... : ... .. . ... ... ... : ... .. . P7F : ... .. . ... : ... .. . ... ...
ROW 32 : ... .. . ... ... ... : ... .. . ... ... ... : ... .. . P7E : ... .. . ... : ... .. . ... ...
ROW 33 : G-1 00 F ... V03 ... : ... .. . ... ... ... : ... .. . P7D : ... .. F ... : ... .. . ... ...
ROW 34 : ... .. . ... V01 ... : ... .. . ... ... ... : ... .. . P7C : ... .. E ... : ... .. . ... ...
ROW 35 : ... .. E ... V02 ... : ... .. . ... ... ... : ... .. . P7B : ... .. C ... : ... .. . ... ...
ROW 36 : ... .. . ... ... ... : ... .. . ... ... ... : ... .. . P7A : ... .. A ... : ... .. . ... ...
ROW 37 : ... .. D ... ... ... : ... .. . ... ... ... : A#3 00 . P87 : ... .. 9 ... : ... .. . ... ...
ROW 38 : ... .. C ... ... ... : ... .. . ... ... ... : ... .. . P86 : ... .. 7 ... : ... .. . ... ...
ROW 39 : ... .. . ... ... ... : ... .. . ... ... ... : ... .. . P85 : ... .. F ... : ... .. . ... ...
ROW 3A : ... .. B ... ... ... : ... .. . ... ... ... : ... .. . P84 : ... .. E ... : ... .. . ... ...
ROW 3B : ... .. A ... ... ... : ... .. . ... ... ... : ... .. . P83 : ... .. C ... : ... .. . ... ...
ROW 3C : ... .. . ... ... ... : ... .. . ... ... ... : ... .. . P82 : ... .. A ... : ... .. . ... ...
ROW 3D : ... .. 9 ... ... ... : ... .. . ... ... ... : ... .. . P81 : ... .. 9 ... : ... .. . ... ...
ROW 3E : ... .. . ... ... ... : ... .. . ... ... ... : ... .. . P80 : ... .. 7 ... : ... .. . ... ...
ROW 3F : A-1 00 F ... V03 ... : ... .. . ... ... ... : ... .. . P7F : 0-# 00 F ... : ... .. . ... ...
ROW 40 : ... .. . ... V01 ... : ... .. . ... ... ... : ... .. . P7E : ... .. E ... : ... .. . ... ...
ROW 41 : ... .. E ... V02 ... : ... .. . ... ... ... : ... .. . P7D : ... .. C ... : ... .. . ... ...
ROW 42 : ... .. . ... ... ... : ... .. . ... ... ... : ... .. . P7C : ... .. A ... : ... .. . ... ...
ROW 43 : ... .. D ... ... ... : ... .. . ... ... ... : ... .. . P7B : ... .. 9 ... : ... .. . ... ...
ROW 44 : ... .. C ... ... ... : ... .. . ... ... ... : ... .. . P7A : ... .. 7 ... : ... .. . ... ...
ROW 45 : ... .. . ... ... ... : ... .. . ... ... ... : A-3 00 . P87 : ... .. 5 ... : ... .. . ... ...
ROW 46 : ... .. B ... ... ... : ... .. . ... ... ... : ... .. . P86 : ... .. 4 ... : ... .. . ... ...
ROW 47 : ... .. A ... ... ... : ... .. . ... ... ... : ... .. . P85 : ... .. 2 ... : ... .. . ... ...
ROW 48 : ... .. . ... ... ... : ... .. . ... ... ... : ... .. . P84 : ... .. 0 ... : ... .. . ... ...
ROW 49 : ... .. 9 ... ... ... : ... .. . ... ... ... : ... .. . P83 : ... .. . ... : ... .. . ... ...
ROW 4A : ... .. . ... ... ... : ... .. . ... ... ... : ... .. . P82 : ... .. . ... : ... .. . ... ...
ROW 4B : ... .. F ... V03 ... : ... .. . ... ... ... : ... .. . P81 : F-# 00 F ... : ... .. . ... ...
ROW 4C : ... .. . ... V01 ... : ... .. . ... ... ... : ... .. . P80 : ... .. E ... : ... .. . ... ...
ROW 4D : ... .. E ... V02 ... : ... .. . ... ... ... : ... .. . P7F : ... .. C ... : ... .. . ... ...
ROW 4E : ... .. . ... ... ... : ... .. . ... ... ... : ... .. . P7E : ... .. A ... : ... .. . ... ...
ROW 4F : ... .. D ... ... ... : ... .. . ... ... ... : ... .. . P7D : ... .. 9 ... : ... .. . ... ...
ROW 50 : ... .. C ... ... ... : ... .. . ... ... ... : ... .. . P7C : ... .. 7 ... : ... .. . ... ...
ROW 51 : ... .. . ... ... ... : ... .. . ... ... ... : ... .. . P7B : 0-# 00 F ... : ... .. . ... ...
ROW 52 : ... .. B ... ... ... : ... .. . ... ... ... : ... .. . P7A : ... .. E ... : ... .. . ... ...
ROW 53 : ... .. A ... ... ... : ... .. . ... ... ... : ... .. . P79 : ... .. C ... : ... .. . ... ...
ROW 54 : ... .. . ... ... ... : ... .. . ... ... ... : G#3 00 . P87 : ... .. A ... : ... .. . ... ...
ROW 55 : ... .. 9 ... ... ... : ... .. . ... ... ... : ... .. . P86 : ... .. 9 ... : ... .. . ... ...
ROW 56 : ... .. . ... ... ... : ... .. . ... ... ... : ... .. . P85 : ... .. 7 ... : ... .. . ... ...
ROW 57 : A-2 00 F P7F V03 ... : ... .. . ... ... ... : ... .. . P84 : 4-# 00 F ... : ... .. . ... ...
ROW 58 : ... .. . ... V01 ... : ... .. . ... ... ... : ... .. . P83 : ... .. E ... : ... .. . ... ...
ROW 59 : ... .. E ... V02 ... : ... .. . ... ... ... : ... .. . P82 : ... .. C ... : ... .. . ... ...
ROW 5A : ... .. . ... ... ... : ... .. . ... ... ... : ... .. . P81 : ... .. A ... : ... .. . ... ...
ROW 5B : ... .. D ... ... ... : ... .. . ... ... ... : ... .. . P80 : ... .. 9 ... : ... .. . ... ...
ROW 5C : ... .. C ... ... ... : ... .. . ... ... ... : ... .. . P7F : ... .. 7 ... : ... .. . ... ...
ROW 5D : ... .. . ... ... ... : ... .. . ... ... ... : ... .. . P7E : ... .. 5 ... : ... .. . ... ...
ROW 5E : ... .. B ... ... ... : ... .. . ... ... ... : ... .. . P7D : ... .. 4 ... : ... .. . ... ...
ROW 5F : ... .. A ... ... ... : ... .. . ... ... ... : ... .. . P7C : ... .. 2 ... : ... .. . ... ...
ROW 60 : ... .. . ... ... ... : ... .. . ... ... ... : ... .. . P7B : ... .. 0 ... : ... .. . ... ...
ROW 61 : ... .. 9 ... ... ... : ... .. . ... ... ... : ... .. . P7A : ... .. . ... : ... .. . ... ...
ROW 62 : ... .. . ... ... ... : ... .. . ... ... ... : ... .. . P79 : ... .. . ... : ... .. . ... ...
ROW 63 : A-1 00 F P80 V03 ... : ... .. . ... ... ... : G-3 00 . P88 : F-# 00 F ... : ... .. . ... ...
ROW 64 : ... .. . ... V01 ... : ... .. . ... ... ... : ... .. . P87 : ... .. E ... : ... .. . ... ...
ROW 65 : ... .. E ... V02 ... : ... .. . ... ... ... : ... .. . P86 : ... .. C ... : ... .. . ... ...
ROW 66 : ... .. . ... ... ... : ... .. . ... ... ... : ... .. . P85 : ... .. A ... : ... .. . ... ...
ROW 67 : ... .. D ... ... ... : ... .. . ... ... ... : ... .. . P84 : ... .. 9 ... : ... .. . ... ...
ROW 68 : ... .. C ... ... ... : ... .. . ... ... ... : ... .. . P83 : ... .. 7 ... : ... .. . ... ...
ROW 69 : ... .. . ... ... ... : ... .. . ... ... ... : ... .. . P82 : 4-# 00 F ... : ... .. . ... ...
ROW 6A : ... .. B ... ... ... : ... .. . ... ... ... : ... .. . P81 : ... .. E ... : ... .. . ... ...
ROW 6B : ... .. A ... ... ... : ... .. . ... ... ... : ... .. . P80 : ... .. C ... : ... .. . ... ...
ROW 6C : ... .. . ... ... ... : ... .. . ... ... ... : ... .. . P7F : ... .. A ... : ... .. . ... ...
ROW 6D : ... .. 9 ... ... ... : ... .. . ... ... ... : ... .. . P7E : ... .. 9 ... : ... .. . ... ...
ROW 6E : ... .. . ... ... ... : ... .. . ... ... ... : ... .. . P7D : ... .. 7 ... : ... .. . ... ...
ROW 6F : ... .. F ... V03 ... : ... .. . ... ... ... : ... .. . P7C : 0-# 00 F ... : ... .. . ... ...
ROW 70 : ... .. . ... V01 ... : ... .. . ... ... ... : ... .. . P7B : ... .. E ... : ... .. . ... ...
ROW 71 : ... .. E ... V02 ... : ... .. . ... ... ... : ... .. . P7A : ... .. C ... : ... .. . ... ...
ROW 72 : ... .. . ... ... ... : ... .. . ... ... ... : ... .. . P79 : ... .. A ... : ... .. . ... ...
ROW 73 : ... .. D ... ... ... : ... .. . ... ... ... : ... .. . P78 : ... .. 9 ... : ... .. . ... ...
ROW 74 : ... .. C ... ... ... : ... .. . ... ... ... : F#3 00 . P88 : ... .. 7 ... : ... .. . ... ...
ROW 75 : ... .. . ... ... ... : ... .. . ... ... ... : ... .. . P87 : ... .. 5 ... : ... .. . ... ...
ROW 76 : ... .. B ... ... ... : ... .. . ... ... ... : ... .. . P86 : ... .. 4 ... : ... .. . ... ...
ROW 77 : ... .. A ... ... ... : ... .. . ... ... ... : ... .. . P85 : ... .. 2 ... : ... .. . ... ...
ROW 78 : ... .. . ... ... ... : ... .. . ... ... ... : ... .. . P84 : ... .. 0 ... : ... .. . ... ...
ROW 79 : ... .. 9 ... ... ... : ... .. . ... ... ... : ... .. . P83 : ... .. . ... : ... .. . ... ...
ROW 7A : ... .. . ... ... ... : ... .. . ... ... ... : ... .. . P82 : ... .. . ... : ... .. . ... ...
ROW 7B : ... .. F ... V03 ... : ... .. . ... ... ... : ... .. . P81 : F-# 00 F ... : ... .. . ... ...
ROW 7C : ... .. . ... V01 ... : ... .. . ... ... ... : ... .. . P80 : ... .. E ... : ... .. . ... ...
ROW 7D : ... .. E ... V02 ... : ... .. . ... ... ... : ... .. . P7F : ... .. C ... : ... .. . ... ...
ROW 7E : ... .. . ... ... ... : ... .. . ... ... ... : ... .. . P7E : ... .. A ... : ... .. . ... ...
ROW 7F : ... .. D ... ... ... : ... .. . ... ... ... : ... .. . P7D : ... .. 9 ... : ... .. . ... ...
ROW 80 : ... .. C ... ... ... : ... .. . ... ... ... : ... .. . P7C : ... .. 7 ... : ... .. . ... ...
ROW 81 : ... .. . ... ... ... : ... .. . ... ... ... : ... .. . P7B : 0-# 00 F ... : ... .. . ... ...
ROW 82 : ... .. B ... ... ... : ... .. . ... ... ... : ... .. . P7A : ... .. E ... : ... .. . ... ...
ROW 83 : ... .. A ... ... ... : ... .. . ... ... ... : ... .. . P79 : ... .. C ... : ... .. . ... ...
ROW 84 : ... .. . ... ... ... : ... .. . ... ... ... : ... .. . P78 : ... .. A ... : ... .. . ... ...
ROW 85 : ... .. 9 ... ... ... : ... .. . ... ... ... : F-3 00 . P89 : ... .. 9 ... : ... .. . ... ...
ROW 86 : ... .. . ... ... ... : ... .. . ... ... ... : ... .. . P88 : ... .. 7 ... : ... .. . ... ...
ROW 87 : A-2 00 F P7F V03 ... : ... .. . ... ... ... : ... .. . P87 : 4-# 00 F ... : ... .. . ... ...
ROW 88 : ... .. . ... V01 ... : ... .. . ... ... ... : ... .. . P86 : ... .. E ... : ... .. . ... ...
ROW 89 : ... .. E ... V02 ... : ... .. . ... ... ... : ... .. . P85 : ... .. C ... : ... .. . ... ...
ROW 8A : ... .. . ... ... ... : ... .. . ... ... ... : ... .. . P84 : ... .. A ... : ... .. . ... ...
ROW 8B : ... .. D ... ... ... : ... .. . ... ... ... : ... .. . P83 : ... .. 9 ... : ... .. . ... ...
ROW 8C : ... .. C ... ... ... : ... .. . ... ... ... : ... .. . P82 : ... .. 7 ... : ... .. . ... ...
ROW 8D : ... .. . ... ... ... : ... .. . ... ... ... : ... .. . P81 : ... .. 5 ... : ... .. . ... ...
ROW 8E : ... .. B ... ... ... : ... .. . ... ... ... : ... .. . P80 : ... .. 4 ... : ... .. . ... ...
ROW 8F : ... .. A ... ... ... : ... .. . ... ... ... : ... .. . P7F : ... .. 2 ... : ... .. . ... ...
ROW 90 : ... .. . ... ... ... : ... .. . ... ... ... : ... .. . P7E : ... .. 0 ... : ... .. . ... ...
ROW 91 : ... .. 9 ... ... ... : ... .. . ... ... ... : ... .. . P7D : ... .. . ... : ... .. . ... ...
ROW 92 : ... .. . ... ... ... : ... .. . ... ... ... : ... .. . P7C : ... .. . ... : ... .. . ... ...
ROW 93 : A-1 00 F P80 V03 ... : ... .. . ... ... ... : ... .. . P7B : F-# 00 F ... : ... .. . ... ...
ROW 94 : ... .. . ... V01 ... : ... .. . ... ... ... : ... .. . P7A : ... .. E ... : ... .. . ... ...
ROW 95 : ... .. E ... V02 ... : ... .. . ... ... ... : ... .. . P79 : ... .. C ... : ... .. . ... ...
ROW 96 : ... .. . ... ... ... : ... .. . ... ... ... : ... .. . P78 : ... .. A ... : ... .. . ... ...
ROW 97 : ... .. D ... ... ... : ... .. . ... ... ... : ... .. . P77 : ... .. 9 ... : ... .. . ... ...
ROW 98 : ... .. C ... ... ... : ... .. . ... ... ... : E-3 00 . P89 : ... .. 7 ... : ... .. . ... ...
ROW 99 : ... .. . ... ... ... : ... .. . ... ... ... : ... .. . P88 : 4-# 00 F ... : ... .. . ... ...
ROW 9A : ... .. B ... ... ... : ... .. . ... ... ... : ... .. . P87 : ... .. E ... : ... .. . ... ...
ROW 9B : ... .. A ... ... ... : ... .. . ... ... ... : ... .. . P86 : ... .. C ... : ... .. . ... ...
ROW 9C : ... .. . ... ... ... : ... .. . ... ... ... : ... .. . P85 : ... .. A ... : ... .. . ... ...
ROW 9D : ... .. 9 ... ... ... : ... .. . ... ... ... : ... .. . P84 : ... .. 9 ... : ... .. . ... ...
ROW 9E : ... .. . ... ... ... : ... .. . ... ... ... : ... .. . P83 : ... .. 7 ... : ... .. . ... ...
ROW 9F : ... .. F ... V03 ... : ... .. . ... ... ... : ... .. . P82 : 0-# 00 F ... : ... .. . ... ...
ROW A0 : ... .. . ... V01 ... : ... .. . ... ... ... : ... .. . P81 : ... .. E ... : ... .. . ... ...
ROW A1 : ... .. E ... V02 ... : ... .. . ... ... ... : ... .. . P80 : ... .. C ... : ... .. . ... ...
ROW A2 : ... .. . ... ... ... : ... .. . ... ... ... : ... .. . P7F : ... .. A ... : ... .. . ... ...
ROW A3 : ... .. D ... ... ... : ... .. . ... ... ... : ... .. . P7E : ... .. 9 ... : ... .. . ... ...
ROW A4 : ... .. C ... ... ... : ... .. . ... ... ... : ... .. . P7D : ... .. 7 ... : ... .. . ... ...
ROW A5 : ... .. . ... ... ... : ... .. . ... ... ... : ... .. . P7C : ... .. 5 ... : ... .. . ... ...
ROW A6 : ... .. B ... ... ... : ... .. . ... ... ... : ... .. . P7B : ... .. 4 ... : ... .. . ... ...
ROW A7 : ... .. A ... ... ... : ... .. . ... ... ... : ... .. . P7A : ... .. 2 ... : ... .. . ... ...
ROW A8 : ... .. . ... ... ... : ... .. . ... ... ... : ... .. . P79 : ... .. 0 ... : ... .. . ... ...
ROW A9 : ... .. 9 ... ... ... : ... .. . ... ... ... : ... .. . P78 : ... .. . ... : ... .. . ... ...
ROW AA : ... .. . ... ... ... : ... .. . ... ... ... : ... .. . P77 : ... .. . ... : ... .. . ... ...
ROW AB : ... .. F ... V03 ... : ... .. . ... ... ... : ... .. . P76 : F-# 00 F ... : ... .. . ... ...
ROW AC : ... .. . ... V01 ... : ... .. . ... ... ... : D#3 00 . P8A : ... .. E ... : ... .. . ... ...
ROW AD : ... .. E ... V02 ... : ... .. . ... ... ... : ... .. . P89 : ... .. C ... : ... .. . ... ...
ROW AE : ... .. . ... ... ... : ... .. . ... ... ... : ... .. . P88 : ... .. A ... : ... .. . ... ...
ROW AF : ... .. D ... ... ... : ... .. . ... ... ... : ... .. . P87 : ... .. 9 ... : ... .. . ... ...
ROW B0 : ... .. C ... ... ... : ... .. . ... ... ... : ... .. . P86 : ... .. 7 ... : ... .. . ... ...
ROW B1 : ... .. . ... ... ... : ... .. . ... ... ... : ... .. . P85 : 0-# 00 F ... : ... .. . ... ...
ROW B2 : ... .. B ... ... ... : ... .. . ... ... ... : ... .. . P84 : ... .. E ... : ... .. . ... ...
ROW B3 : ... .. A ... ... ... : ... .. . ... ... ... : ... .. . P83 : ... .. C ... : ... .. . ... ...
ROW B4 : ... .. . ... ... ... : ... .. . ... ... ... : ... .. . P82 : ... .. A ... : ... .. . ... ...
ROW B5 : ... .. 9 ... ... ... : ... .. . ... ... ... : ... .. . P81 : ... .. 9 ... : ... .. . ... ...
ROW B6 : ... .. . ... ... ... : ... .. . ... ... ... : ... .. . P80 : ... .. 7 ... : ... .. . ... ...
ROW B7 : A-2 00 F P7F V03 ... : ... .. . ... ... ... : ... .. . P7F : 4-# 00 F ... : ... .. . ... ...
ROW B8 : ... .. . ... V01 ... : ... .. . ... ... ... : ... .. . P7E : ... .. E ... : ... .. . ... ...
ROW B9 : ... .. E ... V02 ... : ... .. . ... ... ... : ... .. . P7D : ... .. C ... : ... .. . ... ...
ROW BA : ... .. . ... ... ... : ... .. . ... ... ... : ... .. . P7C : ... .. A ... : ... .. . ... ...
ROW BB : ... .. D ... ... ... : ... .. . ... ... ... : ... .. . P7B : ... .. 9 ... : ... .. . ... ...
ROW BC : ... .. C ... ... ... : ... .. . ... ... ... : ... .. . P7A : ... .. 7 ... : ... .. . ... ...
ROW BD : ... .. . ... ... ... : ... .. . ... ... ... : ... .. . P79 : ... .. 5 ... : ... .. . ... ...
ROW BE : ... .. B ... ... ... : ... .. . ... ... ... : ... .. . P78 : ... .. 4 ... : ... .. . ... ...
ROW BF : ... .. A ... ... ... : ... .. . ... ... ... : ... .. . P77 : ... .. 2 ... : ... .. . ... ...
ROW C0 : ... .. . ... ... ... : ... .. . ... ... ... : ... .. . P76 : ... .. 0 ... : ... .. . ... ...
ROW C1 : ... .. 9 ... ... ... : ... .. . ... ... ... : D-3 00 . P8A : ... .. . ... : ... .. . ... ...
ROW C2 : ... .. . ... ... ... : ... .. . ... ... ... : ... .. . P89 : ... .. . ... : ... .. . ... ...
ROW C3 : A-1 00 F P80 V03 ... : ... .. . ... ... ... : ... .. . P88 : F-# 00 F ... : ... .. . ... ...
ROW C4 : ... .. . ... V01 ... : ... .. . ... ... ... : ... .. . P87 : ... .. E ... : ... .. . ... ...
ROW C5 : ... .. E ... V02 ... : ... .. . ... ... ... : ... .. . P86 : ... .. C ... : ... .. . ... ...
ROW C6 : ... .. . ... ... ... : ... .. . ... ... ... : ... .. . P85 : ... .. A ... : ... .. . ... ...
ROW C7 : ... .. D ... ... ... : ... .. . ... ... ... : ... .. . P84 : ... .. 9 ... : ... .. . ... ...
ROW C8 : ... .. C ... ... ... : ... .. . ... ... ... : ... .. . P83 : ... .. 7 ... : ... .. . ... ...
ROW C9 : ... .. . ... ... ... : ... .. . ... ... ... : ... .. . P82 : 4-# 00 F ... : ... .. . ... ...
ROW CA : ... .. B ... ... ... : ... .. . ... ... ... : ... .. . P81 : ... .. E ... : ... .. . ... ...
ROW CB : ... .. A ... ... ... : ... .. . ... ... ... : ... .. . P80 : ... .. C ... : ... .. . ... ...
ROW CC : ... .. . ... ... ... : ... .. . ... ... ... : ... .. . P7F : ... .. A ... : ... .. . ... ...
ROW CD : ... .. 9 ... ... ... : ... .. . ... ... ... : ... .. . P7E : ... .. 9 ... : ... .. . ... ...
ROW CE : ... .. . ... ... ... : ... .. . ... ... ... : ... .. . P7D : ... .. 7 ... : ... .. . ... ...
ROW CF : G-1 00 F ... V03 ... : ... .. . ... ... ... : ... .. . P7C : 0-# 00 F ... : ... .. . ... ...
ROW D0 : ... .. . ... V01 ... : ... .. . ... ... ... : ... .. . P7B : ... .. E ... : ... .. . ... ...
ROW D1 : ... .. E ... V02 ... : ... .. . ... ... ... : ... .. . P7A : ... .. C ... : ... .. . ... ...
ROW D2 : ... .. . ... ... ... : ... .. . ... ... ... : ... .. . P79 : ... .. A ... : ... .. . ... ...
ROW D3 : ... .. D ... ... ... : ... .. . ... ... ... : ... .. . P78 : ... .. 9 ... : ... .. . ... ...
ROW D4 : ... .. C ... ... ... : ... .. . ... ... ... : ... .. . P77 : ... .. 7 ... : ... .. . ... ...
ROW D5 : ... .. . ... ... ... : ... .. . ... ... ... : ... .. . P76 : ... .. 5 ... : ... .. . ... ...
ROW D6 : ... .. B ... ... ... : ... .. . ... ... ... : ... .. . P75 : ... .. 4 ... : ... .. . ... ...
ROW D7 : ... .. A ... ... ... : ... .. . ... ... ... : C#3 00 . P8B : ... .. 2 ... : ... .. . ... ...
ROW D8 : ... .. . ... ... ... : ... .. . ... ... ... : ... .. . P8A : ... .. 0 ... : ... .. . ... ...
ROW D9 : ... .. 9 ... ... ... : ... .. . ... ... ... : ... .. . P89 : ... .. . ... : ... .. . ... ...
ROW DA : ... .. . ... ... ... : ... .. . ... ... ... : ... .. . P88 : ... .. . ... : ... .. . ... ...
ROW DB : ... .. F ... V03 ... : ... .. . ... ... ... : ... .. . P87 : F-# 00 F ... : ... .. . ... ...
ROW DC : ... .. . ... V01 ... : ... .. . ... ... ... : ... .. . P86 : ... .. E ... : ... .. . ... ...
ROW DD : ... .. E ... V02 ... : ... .. . ... ... ... : ... .. . P85 : ... .. C ... : ... .. . ... ...
ROW DE : ... .. . ... ... ... : ... .. . ... ... ... : ... .. . P84 : ... .. A ... : ... .. . ... ...
ROW DF : ... .. D ... ... ... : ... .. . ... ... ... : ... .. . P83 : ... .. 9 ... : ... .. . ... ...
ROW E0 : ... .. C ... ... ... : ... .. . ... ... ... : ... .. . P82 : ... .. 7 ... : ... .. . ... ...
ROW E1 : ... .. . ... ... ... : ... .. . ... ... ... : ... .. . P81 : 0-# 00 F ... : ... .. . ... ...
ROW E2 : ... .. B ... ... ... : ... .. . ... ... ... : ... .. . P80 : ... .. E ... : ... .. . ... ...
ROW E3 : ... .. A ... ... ... : ... .. . ... ... ... : ... .. . P7F : ... .. C ... : ... .. . ... ...
ROW E4 : ... .. . ... ... ... : ... .. . ... ... ... : ... .. . P7E : ... .. A ... : ... .. . ... ...
ROW E5 : ... .. 9 ... ... ... : ... .. . ... ... ... : ... .. . P7D : ... .. 9 ... : ... .. . ... ...
ROW E6 : ... .. . ... ... ... : ... .. . ... ... ... : ... .. . P7C : ... .. 7 ... : ... .. . ... ...
ROW E7 : G-2 00 F ... V03 ... : ... .. . ... ... ... : C#6 00 . P81 : 4-# 00 F ... : ... .. . ... ...
ROW E8 : ... .. . ... V01 ... : ... .. . ... ... ... : ... .. . P80 : ... .. E ... : ... .. . ... ...
ROW E9 : ... .. E ... V02 ... : ... .. . ... ... ... : ... .. . P7F : ... .. C ... : ... .. . ... ...
ROW EA : ... .. . ... ... ... : ... .. . ... ... ... : C-6 00 . P81 : ... .. A ... : ... .. . ... ...
ROW EB : ... .. D ... ... ... : ... .. . ... ... ... : ... .. . P80 : ... .. 9 ... : ... .. . ... ...
ROW EC : ... .. C ... ... ... : ... .. . ... ... ... : ... .. . P7F : ... .. 7 ... : ... .. . ... ...
ROW ED : ... .. . ... ... ... : ... .. . ... ... ... : B-5 00 . P82 : ... .. F ... : ... .. . ... ...
ROW EE : ... .. B ... ... ... : ... .. . ... ... ... : ... .. . P81 : ... .. E ... : ... .. . ... ...
ROW EF : ... .. A ... ... ... : ... .. . ... ... ... : ... .. . P80 : ... .. C ... : ... .. . ... ...
ROW F0 : ... .. . ... ... ... : ... .. . ... ... ... : ... .. . P7F : ... .. A ... : ... .. . ... ...
ROW F1 : ... .. 9 ... ... ... : ... .. . ... ... ... : A#5 00 . P81 : ... .. 9 ... : ... .. . ... ...
ROW F2 : ... .. . ... ... ... : ... .. . ... ... ... : ... .. . P80 : ... .. 7 ... : ... .. . ... ...
ROW F3 : G-1 00 F ... V03 ... : ... .. . ... ... ... : C#6 00 . P81 : ... .. F ... : ... .. . ... ...
ROW F4 : ... .. . ... V01 ... : ... .. . ... ... ... : ... .. . P80 : ... .. E ... : ... .. . ... ...
ROW F5 : ... .. E ... V02 ... : ... .. . ... ... ... : ... .. . P7F : ... .. C ... : ... .. . ... ...
ROW F6 : ... .. . ... ... ... : ... .. . ... ... ... : C-6 00 . P81 : ... .. A ... : ... .. . ... ...
ROW F7 : ... .. D ... ... ... : ... .. . ... ... ... : ... .. . P80 : ... .. 9 ... : ... .. . ... ...
ROW F8 : ... .. C ... ... ... : ... .. . ... ... ... : ... .. . P7F : ... .. 7 ... : ... .. . ... ...
ROW F9 : ... .. . ... ... ... : ... .. . ... ... ... : B-5 00 . P82 : ... .. F ... : ... .. . ... ...
ROW FA : ... .. B ... ... ... : ... .. . ... ... ... : ... .. . P81 : ... .. E ... : ... .. . ... ...
ROW FB : ... .. A ... ... ... : ... .. . ... ... ... : ... .. . P80 : ... .. C ... : ... .. . ... ...
ROW FC : ... .. . ... ... ... : ... .. . ... ... ... : ... .. . P7F : ... .. A ... : ... .. . ... ...
ROW FD : ... .. 9 ... ... ... : ... .. . ... ... ... : A#5 00 . P81 : ... .. 9 ... : ... .. . ... ...
ROW FE : ... .. . ... ... ... : ... .. . ... ... ... : ... .. . P80 : ... .. 7 ... : ... .. . ... ...
ROW FF : A-1 00 F ... V03 ... : C-4 00 F P7F ... ... : --- .. . ... : 0-# 00 F ... : ... .. . ... ...

PATTERN 0C
ROW 00 : ... .. . ... V01 ... : ... .. E ... ... ... : ... .. . ... : ... .. E ... : ... .. . ... ...
ROW 01 : ... .. E ... V02 ... : ... .. C ... ... ... : ... .. . ... : ... .. C ... : ... .. . ... ...
ROW 02 : ... .. . ... ... ... : ... .. A ... ... ... : ... .. . ... : ... .. A ... : ... .. . ... ...
ROW 03 : ... .. D ... ... ... : ... .. 9 ... ... ... : ... .. . ... : ... .. 9 ... : ... .. . ... ...
ROW 04 : ... .. C ... ... ... : ... .. 7 ... ... ... : ... .. . ... : ... .. 7 ... : ... .. . ... ...
ROW 05 : ... .. . ... ... ... : ... .. 5 ... ... ... : ... .. . ... : ... .. 5 ... : ... .. . ... ...
ROW 06 : ... .. B ... ... ... : ... .. 4 ... ... ... : ... .. . ... : ... .. 4 ... : ... .. . ... ...
ROW 07 : ... .. A ... ... ... : ... .. 2 ... ... ... : ... .. . ... : ... .. 2 ... : ... .. . ... ...
ROW 08 : ... .. . ... ... ... : ... .. 0 ... ... ... : ... .. . ... : ... .. 0 ... : ... .. . ... ...
ROW 09 : ... .. 9 ... ... ... : ... .. . ... ... ... : ... .. . ... : ... .. . ... : ... .. . ... ...
ROW 0A : ... .. . ... ... ... : ... .. . ... ... ... : ... .. . ... : ... .. . ... : ... .. . ... ...
ROW 0B : ... .. F ... V03 ... : C-4 00 F P7F ... ... : ... .. . ... : F-# 00 F ... : ... .. . ... ...
ROW 0C : ... .. . ... V01 ... : ... .. E ... ... ... : ... .. . ... : ... .. E ... : ... .. . ... ...
ROW 0D : ... .. E ... V02 ... : ... .. C ... ... ... : ... .. . ... : ... .. C ... : ... .. . ... ...
ROW 0E : ... .. . ... ... ... : ... .. A ... ... ... : ... .. . ... : ... .. A ... : ... .. . ... ...
ROW 0F : ... .. D ... ... ... : ... .. 9 ... ... ... : ... .. . ... : ... .. 9 ... : ... .. . ... ...
ROW 10 : ... .. C ... ... ... : ... .. 7 ... ... ... : ... .. . ... : ... .. 7 ... : ... .. . ... ...
ROW 11 : ... .. . ... ... ... : ... .. F ... ... ... : ... .. . ... : ... .. F ... : ... .. . ... ...
ROW 12 : ... .. B ... ... ... : ... .. E ... ... ... : ... .. . ... : ... .. E ... : ... .. . ... ...
ROW 13 : ... .. A ... ... ... : ... .. C ... ... ... : ... .. . ... : ... .. C ... : ... .. . ... ...
ROW 14 : ... .. . ... ... ... : ... .. A ... ... ... : ... .. . ... : ... .. A ... : ... .. . ... ...
ROW 15 : ... .. 9 ... ... ... : ... .. 9 ... ... ... : ... .. . ... : ... .. 9 ... : ... .. . ... ...
ROW 16 : ... .. . ... ... ... : ... .. 7 ... ... ... : ... .. . ... : ... .. 7 ... : ... .. . ... ...
ROW 17 : A-2 00 F P7F V03 ... : A-3 00 F ... ... ... : ... .. . ... : 4-# 00 F ... : ... .. . ... ...
ROW 18 : ... .. . ... V01 ... : ... .. E ... ... ... : ... .. . ... : ... .. E ... : ... .. . ... ...
ROW 19 : ... .. E ... V02 ... : ... .. C ... ... ... : ... .. . ... : ... .. C ... : ... .. . ... ...
ROW 1A : ... .. . ... ... ... : ... .. A ... ... ... : ... .. . ... : ... .. A ... : ... .. . ... ...
ROW 1B : ... .. D ... ... ... : ... .. 9 ... ... ... : ... .. . ... : ... .. 9 ... : ... .. . ... ...
ROW 1C : ... .. C ... ... ... : ... .. 7 ... ... ... : ... .. . ... : ... .. 7 ... : ... .. . ... ...
ROW 1D : ... .. . ... ... ... : ... .. 5 ... ... ... : ... .. . ... : ... .. 5 ... : ... .. . ... ...
ROW 1E : ... .. B ... ... ... : ... .. 4 ... ... ... : ... .. . ... : ... .. 4 ... : ... .. . ... ...
ROW 1F : ... .. A ... ... ... : ... .. 2 ... ... ... : ... .. . ... : ... .. 2 ... : ... .. . ... ...
ROW 20 : ... .. . ... ... ... : ... .. 0 ... ... ... : ... .. . ... : ... .. 0 ... : ... .. . ... ...
ROW 21 : ... .. 9 ... ... ... : ... .. . ... ... ... : ... .. . ... : ... .. . ... : ... .. . ... ...
ROW 22 : ... .. . ... ... ... : ... .. . ... ... ... : ... .. . ... : ... .. . ... : ... .. . ... ...
ROW 23 : A-1 00 F P80 V03 ... : A-3 00 F P7F ... ... : ... .. . ... : F-# 00 F ... : ... .. . ... ...
ROW 24 : ... .. . ... V01 ... : ... .. E ... ... ... : ... .. . ... : ... .. E ... : ... .. . ... ...
ROW 25 : ... .. E ... V02 ... : ... .. C ... ... ... : ... .. . ... : ... .. C ... : ... .. . ... ...
ROW 26 : ... .. . ... ... ... : ... .. A ... ... ... : ... .. . ... : ... .. A ... : ... .. . ... ...
ROW 27 : ... .. D ... ... ... : ... .. 9 ... ... ... : ... .. . ... : ... .. 9 ... : ... .. . ... ...
ROW 28 : ... .. C ... ... ... : ... .. 7 ... ... ... : ... .. . ... : ... .. 7 ... : ... .. . ... ...
ROW 29 : ... .. . ... ... ... : ... .. 5 ... ... ... : ... .. . ... : 4-# 00 F ... : ... .. . ... ...
ROW 2A : ... .. B ... ... ... : ... .. 4 ... ... ... : ... .. . ... : ... .. E ... : ... .. . ... ...
ROW 2B : ... .. A ... ... ... : ... .. 2 ... ... ... : ... .. . ... : ... .. C ... : ... .. . ... ...
ROW 2C : ... .. . ... ... ... : ... .. 0 ... ... ... : ... .. . ... : ... .. A ... : ... .. . ... ...
ROW 2D : ... .. 9 ... ... ... : ... .. . ... ... ... : ... .. . ... : ... .. 9 ... : ... .. . ... ...
ROW 2E : ... .. . ... ... ... : ... .. . ... ... ... : ... .. . ... : ... .. 7 ... : ... .. . ... ...
ROW 2F : ... .. F ... V03 ... : C-4 00 F P7F ... ... : ... .. . ... : 0-# 00 F ... : ... .. . ... ...
ROW 30 : ... .. . ... V01 ... : ... .. E ... ... ... : ... .. . ... : ... .. E ... : ... .. . ... ...
ROW 31 : ... .. E ... V02 ... : ... .. C ... ... ... : ... .. . ... : ... .. C ... : ... .. . ... ...
ROW 32 : ... .. . ... ... ... : ... .. A ... ... ... : ... .. . ... : ... .. A ... : ... .. . ... ...
ROW 33 : ... .. D ... ... ... : ... .. 9 ... ... ... : ... .. . ... : ... .. 9 ... : ... .. . ... ...
ROW 34 : ... .. C ... ... ... : ... .. 7 ... ... ... : ... .. . ... : ... .. 7 ... : ... .. . ... ...
ROW 35 : ... .. . ... ... ... : A-3 00 F ... ... ... : ... .. . ... : ... .. 5 ... : ... .. . ... ...
ROW 36 : ... .. B ... ... ... : ... .. E ... ... ... : ... .. . ... : ... .. 4 ... : ... .. . ... ...
ROW 37 : ... .. A ... ... ... : ... .. C ... ... ... : ... .. . ... : ... .. 2 ... : ... .. . ... ...
ROW 38 : ... .. . ... ... ... : ... .. A ... ... ... : ... .. . ... : ... .. 0 ... : ... .. . ... ...
ROW 39 : ... .. 9 ... ... ... : ... .. 9 ... ... ... : ... .. . ... : ... .. . ... : ... .. . ... ...
ROW 3A : ... .. . ... ... ... : ... .. 7 ... ... ... : ... .. . ... : ... .. . ... : ... .. . ... ...
ROW 3B : ... .. F ... V03 ... : C-4 00 F ... ... ... : ... .. . ... : F-# 00 F ... : ... .. . ... ...
ROW 3C : ... .. . ... V01 ... : ... .. E ... ... ... : ... .. . ... : ... .. E ... : ... .. . ... ...
ROW 3D : ... .. E ... V02 ... : ... .. C ... ... ... : ... .. . ... : ... .. C ... : ... .. . ... ...
ROW 3E : ... .. . ... ... ... : ... .. A ... ... ... : ... .. . ... : ... .. A ... : ... .. . ... ...
ROW 3F : ... .. D ... ... ... : ... .. 9 ... ... ... : ... .. . ... : ... .. 9 ... : ... .. . ... ...
ROW 40 : ... .. C ... ... ... : ... .. 7 ... ... ... : ... .. . ... : ... .. 7 ... : ... .. . ... ...
ROW 41 : ... .. . ... ... ... : ... .. 5 ... ... ... : ... .. . ... : 0-# 00 F ... : ... .. . ... ...
ROW 42 : ... .. B ... ... ... : ... .. 4 ... ... ... : ... .. . ... : ... .. E ... : ... .. . ... ...
ROW 43 : ... .. A ... ... ... : ... .. 2 ... ... ... : ... .. . ... : ... .. C ... : ... .. . ... ...
ROW 44 : ... .. . ... ... ... : ... .. 0 ... ... ... : ... .. . ... : ... .. A ... : ... .. . ... ...
ROW 45 : ... .. 9 ... ... ... : ... .. . ... ... ... : ... .. . ... : ... .. 9 ... : ... .. . ... ...
ROW 46 : ... .. . ... ... ... : ... .. . ... ... ... : ... .. . ... : ... .. 7 ... : ... .. . ... ...
ROW 47 : A-2 00 F P7F V03 ... : A-3 00 F P7F ... ... : ... .. . ... : 4-# 00 F ... : ... .. . ... ...
ROW 48 : ... .. . ... V01 ... : ... .. E ... ... ... : ... .. . ... : ... .. E ... : ... .. . ... ...
ROW 49 : ... .. E ... V02 ... : ... .. C ... ... ... : ... .. . ... : ... .. C ... : ... .. . ... ...
ROW 4A : ... .. . ... ... ... : ... .. A ... ... ... : ... .. . ... : ... .. A ... : ... .. . ... ...
ROW 4B : ... .. D ... ... ... : ... .. 9 ... ... ... : ... .. . ... : ... .. 9 ... : ... .. . ... ...
ROW 4C : ... .. C ... ... ... : ... .. 7 ... ... ... : ... .. . ... : ... .. 7 ... : ... .. . ... ...
ROW 4D : ... .. . ... ... ... : ... .. 5 ... ... ... : ... .. . ... : ... .. 5 ... : ... .. . ... ...
ROW 4E : ... .. B ... ... ... : ... .. 4 ... ... ... : ... .. . ... : ... .. 4 ... : ... .. . ... ...
ROW 4F : ... .. A ... ... ... : ... .. 2 ... ... ... : ... .. . ... : ... .. 2 ... : ... .. . ... ...
ROW 50 : ... .. . ... ... ... : ... .. 0 ... ... ... : ... .. . ... : ... .. 0 ... : ... .. . ... ...
ROW 51 : ... .. 9 ... ... ... : ... .. . ... ... ... : ... .. . ... : ... .. . ... : ... .. . ... ...
ROW 52 : ... .. . ... ... ... : ... .. . ... ... ... : ... .. . ... : ... .. . ... : ... .. . ... ...
ROW 53 : A-1 00 F P80 V03 ... : A-3 00 F P7F ... ... : ... .. . ... : F-# 00 F ... : ... .. . ... ...
ROW 54 : ... .. . ... V01 ... : ... .. E ... ... ... : ... .. . ... : ... .. E ... : ... .. . ... ...
ROW 55 : ... .. E ... V02 ... : ... .. C ... ... ... : ... .. . ... : ... .. C ... : ... .. . ... ...
ROW 56 : ... .. . ... ... ... : ... .. A ... ... ... : ... .. . ... : ... .. A ... : ... .. . ... ...
ROW 57 : ... .. D ... ... ... : ... .. 9 ... ... ... : ... .. . ... : ... .. 9 ... : ... .. . ... ...
ROW 58 : ... .. C ... ... ... : ... .. 7 ... ... ... : ... .. . ... : ... .. 7 ... : ... .. . ... ...
ROW 59 : ... .. . ... ... ... : A-4 00 F ... ... ... : ... .. . ... : 4-# 00 F ... : ... .. . ... ...
ROW 5A : ... .. B ... ... ... : ... .. E ... ... ... : ... .. . ... : ... .. E ... : ... .. . ... ...
ROW 5B : ... .. A ... ... ... : ... .. C ... ... ... : ... .. . ... : ... .. C ... : ... .. . ... ...
ROW 5C : ... .. . ... ... ... : ... .. A ... ... ... : ... .. . ... : ... .. A ... : ... .. . ... ...
ROW 5D : ... .. 9 ... ... ... : ... .. 9 ... ... ... : ... .. . ... : ... .. 9 ... : ... .. . ... ...
ROW 5E : ... .. . ... ... ... : ... .. 7 ... ... ... : ... .. . ... : ... .. 7 ... : ... .. . ... ...
ROW 5F : ... .. F ... V03 ... : A-3 00 F ... ... ... : ... .. . ... : 0-# 00 F ... : ... .. . ... ...
ROW 60 : ... .. . ... V01 ... : ... .. E ... ... ... : ... .. . ... : ... .. E ... : ... .. . ... ...
ROW 61 : ... .. E ... V02 ... : ... .. C ... ... ... : ... .. . ... : ... .. C ... : ... .. . ... ...
ROW 62 : ... .. . ... ... ... : ... .. A ... ... ... : ... .. . ... : ... .. A ... : ... .. . ... ...
ROW 63 : ... .. D ... ... ... : ... .. 9 ... ... ... : ... .. . ... : ... .. 9 ... : ... .. . ... ...
ROW 64 : ... .. C ... ... ... : ... .. 7 ... ... ... : ... .. . ... : ... .. 7 ... : ... .. . ... ...
ROW 65 : ... .. . ... ... ... : A-4 00 F ... ... ... : ... .. . ... : ... .. 5 ... : ... .. . ... ...
ROW 66 : ... .. B ... ... ... : ... .. E ... ... ... : ... .. . ... : ... .. 4 ... : ... .. . ... ...
ROW 67 : ... .. A ... ... ... : ... .. C ... ... ... : ... .. . ... : ... .. 2 ... : ... .. . ... ...
ROW 68 : ... .. . ... ... ... : ... .. A ... ... ... : ... .. . ... : ... .. 0 ... : ... .. . ... ...
ROW 69 : ... .. 9 ... ... ... : ... .. 9 ... ... ... : ... .. . ... : ... .. . ... : ... .. . ... ...
ROW 6A : ... .. . ... ... ... : ... .. 7 ... ... ... : ... .. . ... : ... .. . ... : ... .. . ... ...
ROW 6B : ... .. F ... V03 ... : A-3 00 F ... ... ... : ... .. . ... : F-# 00 F ... : ... .. . ... ...
ROW 6C : ... .. . ... V01 ... : ... .. E ... ... ... : ... .. . ... : ... .. E ... : ... .. . ... ...
ROW 6D : ... .. E ... V02 ... : ... .. C ... ... ... : ... .. . ... : ... .. C ... : ... .. . ... ...
ROW 6E : ... .. . ... ... ... : ... .. A ... ... ... : ... .. . ... : ... .. A ... : ... .. . ... ...
ROW 6F : ... .. D ... ... ... : ... .. 9 ... ... ... : ... .. . ... : ... .. 9 ... : ... .. . ... ...
ROW 70 : ... .. C ... ... ... : ... .. 7 ... ... ... : ... .. . ... : ... .. 7 ... : ... .. . ... ...
ROW 71 : ... .. . ... ... ... : ... .. 5 ... ... ... : ... .. . ... : 0-# 00 F ... : ... .. . ... ...
ROW 72 : ... .. B ... ... ... : ... .. 4 ... ... ... : ... .. . ... : ... .. E ... : ... .. . ... ...
ROW 73 : ... .. A ... ... ... : ... .. 2 ... ... ... : ... .. . ... : ... .. C ... : ... .. . ... ...
ROW 74 : ... .. . ... ... ... : ... .. 0 ... ... ... : ... .. . ... : ... .. A ... : ... .. . ... ...
ROW 75 : ... .. 9 ... ... ... : ... .. . ... ... ... : ... .. . ... : ... .. 9 ... : ... .. . ... ...
ROW 76 : ... .. . ... ... ... : ... .. . ... ... ... : ... .. . ... : ... .. 7 ... : ... .. . ... ...
ROW 77 : A-2 00 F P7F V03 ... : A-4 00 F P7F ... ... : ... .. . ... : 4-# 00 F ... : ... .. . ... ...
ROW 78 : ... .. . ... V01 ... : ... .. E ... ... ... : ... .. . ... : ... .. E ... : ... .. . ... ...
ROW 79 : ... .. E ... V02 ... : ... .. C ... ... ... : ... .. . ... : ... .. C ... : ... .. . ... ...
ROW 7A : ... .. . ... ... ... : ... .. A ... ... ... : ... .. . ... : ... .. A ... : ... .. . ... ...
ROW 7B : ... .. D ... ... ... : ... .. 9 ... ... ... : ... .. . ... : ... .. 9 ... : ... .. . ... ...
ROW 7C : ... .. C ... ... ... : ... .. 7 ... ... ... : ... .. . ... : ... .. 7 ... : ... .. . ... ...
ROW 7D : ... .. . ... ... ... : ... .. 5 ... ... ... : ... .. . ... : ... .. 5 ... : ... .. . ... ...
ROW 7E : ... .. B ... ... ... : ... .. 4 ... ... ... : ... .. . ... : ... .. 4 ... : ... .. . ... ...
ROW 7F : ... .. A ... ... ... : ... .. 2 ... ... ... : ... .. . ... : ... .. 2 ... : ... .. . ... ...
ROW 80 : ... .. . ... ... ... : ... .. 0 ... ... ... : ... .. . ... : ... .. 0 ... : ... .. . ... ...
ROW 81 : ... .. 9 ... ... ... : ... .. . ... ... ... : ... .. . ... : ... .. . ... : ... .. . ... ...
ROW 82 : ... .. . ... ... ... : ... .. . ... ... ... : ... .. . ... : ... .. . ... : ... .. . ... ...
ROW 83 : A-1 00 F P80 V03 ... : C-4 00 F P7F ... ... : ... .. . ... : F-# 00 F ... : ... .. . ... ...
ROW 84 : ... .. . ... V01 ... : ... .. E ... ... ... : ... .. . ... : ... .. E ... : ... .. . ... ...
ROW 85 : ... .. E ... V02 ... : ... .. C ... ... ... : ... .. . ... : ... .. C ... : ... .. . ... ...
ROW 86 : ... .. . ... ... ... : ... .. A ... ... ... : ... .. . ... : ... .. A ... : ... .. . ... ...
ROW 87 : ... .. D ... ... ... : ... .. 9 ... ... ... : ... .. . ... : ... .. 9 ... : ... .. . ... ...
ROW 88 : ... .. C ... ... ... : ... .. 7 ... ... ... : ... .. . ... : ... .. 7 ... : ... .. . ... ...
ROW 89 : ... .. . ... ... ... : C-5 00 F ... ... ... : ... .. . ... : 4-# 00 F ... : ... .. . ... ...
ROW 8A : ... .. B ... ... ... : ... .. E ... ... ... : ... .. . ... : ... .. E ... : ... .. . ... ...
ROW 8B : ... .. A ... ... ... : ... .. C ... ... ... : ... .. . ... : ... .. C ... : ... .. . ... ...
ROW 8C : ... .. . ... ... ... : ... .. A ... ... ... : ... .. . ... : ... .. A ... : ... .. . ... ...
ROW 8D : ... .. 9 ... ... ... : ... .. 9 ... ... ... : ... .. . ... : ... .. 9 ... : ... .. . ... ...
ROW 8E : ... .. . ... ... ... : ... .. 7 ... ... ... : ... .. . ... : ... .. 7 ... : ... .. . ... ...
ROW 8F : G-1 00 F ... V03 ... : D-4 00 F ... ... ... : ... .. . ... : 0-# 00 F ... : ... .. . ... ...
ROW 90 : ... .. . ... V01 ... : ... .. E ... ... ... : ... .. . ... : ... .. E ... : ... .. . ... ...
ROW 91 : ... .. E ... V02 ... : ... .. C ... ... ... : ... .. . ... : ... .. C ... : ... .. . ... ...
ROW 92 : ... .. . ... ... ... : ... .. A ... ... ... : ... .. . ... : ... .. A ... : ... .. . ... ...
ROW 93 : ... .. D ... ... ... : ... .. 9 ... ... ... : ... .. . ... : ... .. 9 ... : ... .. . ... ...
ROW 94 : ... .. C ... ... ... : ... .. 7 ... ... ... : ... .. . ... : ... .. 7 ... : ... .. . ... ...
ROW 95 : ... .. . ... ... ... : D-5 00 F ... ... ... : ... .. . ... : ... .. 5 ... : ... .. . ... ...
ROW 96 : ... .. B ... ... ... : ... .. E ... ... ... : ... .. . ... : ... .. 4 ... : ... .. . ... ...
ROW 97 : ... .. A ... ... ... : ... .. C ... ... ... : ... .. . ... : ... .. 2 ... : ... .. . ... ...
ROW 98 : ... .. . ... ... ... : ... .. A ... ... ... : ... .. . ... : ... .. 0 ... : ... .. . ... ...
ROW 99 : ... .. 9 ... ... ... : ... .. 9 ... ... ... : ... .. . ... : ... .. . ... : ... .. . ... ...
ROW 9A : ... .. . ... ... ... : ... .. 7 ... ... ... : ... .. . ... : ... .. . ... : ... .. . ... ...
ROW 9B : ... .. F ... V03 ... : E-4 00 F ... ... ... : ... .. . ... : F-# 00 F ... : ... .. . ... ...
ROW 9C : ... .. . ... V01 ... : ... .. E ... ... ... : ... .. . ... : ... .. E ... : ... .. . ... ...
ROW 9D : ... .. E ... V02 ... : ... .. C ... ... ... : ... .. . ... : ... .. C ... : ... .. . ... ...
ROW 9E : ... .. . ... ... ... : ... .. A ... ... ... : ... .. . ... : ... .. A ... : ... .. . ... ...
ROW 9F : ... .. D ... ... ... : ... .. 9 ... ... ... : ... .. . ... : ... .. 9 ... : ... .. . ... ...
ROW A0 : ... .. C ... ... ... : ... .. 7 ... ... ... : ... .. . ... : ... .. 7 ... : ... .. . ... ...
ROW A1 : ... .. . ... ... ... : E-5 00 F ... ... ... : ... .. . ... : 0-# 00 F ... : ... .. . ... ...
ROW A2 : ... .. B ... ... ... : ... .. E ... ... ... : ... .. . ... : ... .. E ... : ... .. . ... ...
ROW A3 : ... .. A ... ... ... : ... .. C ... ... ... : ... .. . ... : ... .. C ... : ... .. . ... ...
ROW A4 : ... .. . ... ... ... : ... .. A ... ... ... : ... .. . ... : ... .. A ... : ... .. . ... ...
ROW A5 : ... .. 9 ... ... ... : ... .. 9 ... ... ... : ... .. . ... : ... .. 9 ... : ... .. . ... ...
ROW A6 : ... .. . ... ... ... : ... .. 7 ... ... ... : ... .. . ... : ... .. 7 ... : ... .. . ... ...
ROW A7 : G-2 00 F ... V03 ... : G-4 00 F P80 ... ... : ... .. . ... : 4-# 00 F ... : ... .. . ... ...
ROW A8 : ... .. . ... V01 ... : ... .. E ... ... ... : ... .. . ... : ... .. E ... : ... .. . ... ...
ROW A9 : ... .. E ... V02 ... : ... .. C ... ... ... : ... .. . ... : ... .. C ... : ... .. . ... ...
ROW AA : ... .. . ... ... ... : ... .. A ... ... ... : ... .. . ... : ... .. A ... : ... .. . ... ...
ROW AB : ... .. D ... ... ... : ... .. 9 ... ... ... : ... .. . ... : ... .. 9 ... : ... .. . ... ...
ROW AC : ... .. C ... ... ... : ... .. 7 ... ... ... : ... .. . ... : ... .. 7 ... : ... .. . ... ...
ROW AD : ... .. . ... ... ... : G-5 00 F P7F ... ... : ... .. . ... : ... .. 5 ... : ... .. . ... ...
ROW AE : ... .. B ... ... ... : ... .. E ... ... ... : ... .. . ... : ... .. 4 ... : ... .. . ... ...
ROW AF : ... .. A ... ... ... : ... .. C ... ... ... : ... .. . ... : ... .. 2 ... : ... .. . ... ...
ROW B0 : ... .. . ... ... ... : ... .. A ... ... ... : ... .. . ... : ... .. 0 ... : ... .. . ... ...
ROW B1 : ... .. 9 ... ... ... : ... .. 9 ... ... ... : ... .. . ... : ... .. . ... : ... .. . ... ...
ROW B2 : ... .. . ... ... ... : ... .. 7 ... ... ... : ... .. . ... : ... .. . ... : ... .. . ... ...
ROW B3 : G-1 00 F ... V03 ... : E-4 00 F ... ... ... : ... .. . ... : F-# 00 F ... : ... .. . ... ...
ROW B4 : ... .. . ... V01 ... : ... .. E ... ... ... : ... .. . ... : ... .. E ... : ... .. . ... ...
ROW B5 : ... .. E ... V02 ... : ... .. C ... ... ... : ... .. . ... : ... .. C ... : ... .. . ... ...
ROW B6 : ... .. . ... ... ... : ... .. A ... ... ... : ... .. . ... : ... .. A ... : ... .. . ... ...
ROW B7 : ... .. D ... ... ... : ... .. 9 ... ... ... : ... .. . ... : ... .. 9 ... : ... .. . ... ...
ROW B8 : ... .. C ... ... ... : ... .. 7 ... ... ... : ... .. . ... : ... .. 7 ... : ... .. . ... ...
ROW B9 : ... .. . ... ... ... : E-5 00 F ... ... ... : ... .. . ... : 4-# 00 F ... : ... .. . ... ...
ROW BA : ... .. B ... ... ... : ... .. E ... ... ... : ... .. . ... : ... .. E ... : ... .. . ... ...
ROW BB : ... .. A ... ... ... : ... .. C ... ... ... : ... .. . ... : ... .. C ... : ... .. . ... ...
ROW BC : ... .. . ... ... ... : ... .. A ... ... ... : ... .. . ... : ... .. A ... : ... .. . ... ...
ROW BD : ... .. 9 ... ... ... : ... .. 9 ... ... ... : ... .. . ... : ... .. 9 ... : ... .. . ... ...
ROW BE : ... .. . ... ... ... : ... .. 7 ... ... ... : ... .. . ... : ... .. 7 ... : ... .. . ... ...
ROW BF : A-1 00 F ... V03 ... : A-4 00 F ... ... ... : ... .. . ... : 0-# 00 F ... : ... .. . ... ...
ROW C0 : ... .. . ... V01 ... : ... .. E ... ... ... : ... .. . ... : ... .. E ... : ... .. . ... ...
ROW C1 : ... .. E ... V02 ... : ... .. C ... ... ... : ... .. . ... : ... .. C ... : ... .. . ... ...
ROW C2 : ... .. . ... ... ... : ... .. A ... ... ... : ... .. . ... : ... .. A ... : ... .. . ... ...
ROW C3 : ... .. D ... ... ... : ... .. 9 ... ... ... : ... .. . ... : ... .. 9 ... : ... .. . ... ...
ROW C4 : ... .. C ... ... ... : ... .. 7 ... ... ... : ... .. . ... : ... .. 7 ... : ... .. . ... ...
ROW C5 : ... .. . ... ... ... : A-3 00 F ... ... ... : ... .. . ... : ... .. 5 ... : ... .. . ... ...
ROW C6 : ... .. B ... ... ... : ... .. E ... ... ... : ... .. . ... : ... .. 4 ... : ... .. . ... ...
ROW C7 : ... .. A ... ... ... : ... .. C ... ... ... : ... .. . ... : ... .. 2 ... : ... .. . ... ...
ROW C8 : ... .. . ... ... ... : ... .. A ... ... ... : ... .. . ... : ... .. 0 ... : ... .. . ... ...
ROW C9 : ... .. 9 ... ... ... : ... .. 9 ... ... ... : ... .. . ... : ... .. . ... : ... .. . ... ...
ROW CA : ... .. . ... ... ... : ... .. 7 ... ... ... : ... .. . ... : ... .. . ... : ... .. . ... ...
ROW CB : ... .. F ... V03 ... : A-4 00 F ... ... ... : ... .. . ... : F-# 00 F ... : ... .. . ... ...
ROW CC : ... .. . ... V01 ... : ... .. E ... ... ... : ... .. . ... : ... .. E ... : ... .. . ... ...
ROW CD : ... .. E ... V02 ... : ... .. C ... ... ... : ... .. . ... : ... .. C ... : ... .. . ... ...
ROW CE : ... .. . ... ... ... : ... .. A ... ... ... : ... .. . ... : ... .. A ... : ... .. . ... ...
ROW CF : ... .. D ... ... ... : ... .. 9 ... ... ... : ... .. . ... : ... .. 9 ... : ... .. . ... ...
ROW D0 : ... .. C ... ... ... : ... .. 7 ... ... ... : ... .. . ... : ... .. 7 ... : ... .. . ... ...
ROW D1 : ... .. . ... ... ... : ... .. 5 ... ... ... : ... .. . ... : 0-# 00 F ... : ... .. . ... ...
ROW D2 : ... .. B ... ... ... : ... .. 4 ... ... ... : ... .. . ... : ... .. E ... : ... .. . ... ...
ROW D3 : ... .. A ... ... ... : ... .. 2 ... ... ... : ... .. . ... : ... .. C ... : ... .. . ... ...
ROW D4 : ... .. . ... ... ... : ... .. 0 ... ... ... : ... .. . ... : ... .. A ... : ... .. . ... ...
ROW D5 : ... .. 9 ... ... ... : ... .. . ... ... ... : ... .. . ... : ... .. 9 ... : ... .. . ... ...
ROW D6 : ... .. . ... ... ... : ... .. . ... ... ... : ... .. . ... : ... .. 7 ... : ... .. . ... ...
ROW D7 : A-2 00 F P7F V03 ... : A-3 00 F P7F ... ... : ... .. . ... : 4-# 00 F ... : ... .. . ... ...
ROW D8 : ... .. . ... V01 ... : ... .. E ... ... ... : ... .. . ... : ... .. E ... : ... .. . ... ...
ROW D9 : ... .. E ... V02 ... : ... .. C ... ... ... : ... .. . ... : ... .. C ... : ... .. . ... ...
ROW DA : ... .. . ... ... ... : ... .. A ... ... ... : ... .. . ... : ... .. A ... : ... .. . ... ...
ROW DB : ... .. D ... ... ... : ... .. 9 ... ... ... : ... .. . ... : ... .. 9 ... : ... .. . ... ...
ROW DC : ... .. C ... ... ... : ... .. 7 ... ... ... : ... .. . ... : ... .. 7 ... : ... .. . ... ...
ROW DD : ... .. . ... ... ... : ... .. 5 ... ... ... : ... .. . ... : ... .. 5 ... : ... .. . ... ...
ROW DE : ... .. B ... ... ... : ... .. 4 ... ... ... : ... .. . ... : ... .. 4 ... : ... .. . ... ...
ROW DF : ... .. A ... ... ... : ... .. 2 ... ... ... : ... .. . ... : ... .. 2 ... : ... .. . ... ...
ROW E0 : ... .. . ... ... ... : ... .. 0 ... ... ... : ... .. . ... : ... .. 0 ... : ... .. . ... ...
ROW E1 : ... .. 9 ... ... ... : ... .. . ... ... ... : ... .. . ... : ... .. . ... : ... .. . ... ...
ROW E2 : ... .. . ... ... ... : ... .. . ... ... ... : ... .. . ... : ... .. . ... : ... .. . ... ...
ROW E3 : A-1 00 F P80 V03 ... : A-3 00 F P7F V03 ... : ... .. . ... : F-# 00 F ... : ... .. . ... ...
ROW E4 : ... .. . ... V01 ... : ... .. . ... V01 ... : ... .. . ... : ... .. E ... : ... .. . ... ...
ROW E5 : ... .. E ... V02 ... : ... .. E ... V02 ... : ... .. . ... : ... .. C ... : ... .. . ... ...
ROW E6 : ... .. . ... ... ... : ... .. . ... ... ... : ... .. . ... : ... .. A ... : ... .. . ... ...
ROW E7 : ... .. D ... ... ... : ... .. D ... ... ... : ... .. . ... : ... .. 9 ... : ... .. . ... ...
ROW E8 : ... .. C ... ... ... : ... .. C ... ... ... : ... .. . ... : ... .. 7 ... : ... .. . ... ...
ROW E9 : ... .. . ... ... ... : C#4 00 F P80 V03 ... : ... .. . ... : 4-# 00 F ... : ... .. . ... ...
ROW EA : ... .. B ... ... ... : ... .. . ... V01 ... : ... .. . ... : ... .. E ... : ... .. . ... ...
ROW EB : ... .. A ... ... ... : ... .. E ... V02 ... : ... .. . ... : ... .. C ... : ... .. . ... ...
ROW EC : ... .. . ... ... ... : ... .. . ... ... ... : ... .. . ... : ... .. A ... : ... .. . ... ...
ROW ED : ... .. 9 ... ... ... : ... .. D ... ... ... : ... .. . ... : ... .. 9 ... : ... .. . ... ...
ROW EE : ... .. . ... ... ... : ... .. C ... ... ... : ... .. . ... : ... .. 7 ... : ... .. . ... ...
ROW EF : ... .. F ... V03 ... : E-4 00 F P7F V03 ... : ... .. . ... : 0-# 00 F ... : ... .. . ... ...
ROW F0 : ... .. . ... V01 ... : ... .. . ... V01 ... : ... .. . ... : ... .. E ... : ... .. . ... ...
ROW F1 : ... .. E ... V02 ... : ... .. E ... V02 ... : ... .. . ... : ... .. C ... : ... .. . ... ...
ROW F2 : ... .. . ... ... ... : ... .. . ... ... ... : ... .. . ... : ... .. A ... : ... .. . ... ...
ROW F3 : ... .. D ... ... ... : ... .. D ... ... ... : ... .. . ... : ... .. 9 ... : ... .. . ... ...
ROW F4 : ... .. C ... ... ... : ... .. C ... ... ... : ... .. . ... : ... .. 7 ... : ... .. . ... ...
ROW F5 : ... .. . ... ... ... : C#4 00 F P80 V03 ... : ... .. . ... : ... .. 5 ... : ... .. . ... ...
ROW F6 : ... .. B ... ... ... : ... .. . ... V01 ... : ... .. . ... : ... .. 4 ... : ... .. . ... ...
ROW F7 : ... .. A ... ... ... : ... .. E ... V02 ... : ... .. . ... : ... .. 2 ... : ... .. . ... ...
ROW F8 : ... .. . ... ... ... : ... .. . ... ... ... : ... .. . ... : ... .. 0 ... : ... .. . ... ...
ROW F9 : ... .. 9 ... ... ... : ... .. D ... ... ... : ... .. . ... : ... .. . ... : ... .. . ... ...
ROW FA : ... .. . ... ... ... : ... .. C ... ... ... : ... .. . ... : ... .. . ... : ... .. . ... ...
ROW FB : ... .. F ... V03 ... : E-4 00 F P7F V03 ... : ... .. . ... : F-# 00 F ... : ... .. . ... ...
ROW FC : ... .. . ... V01 ... : ... .. . ... V01 ... : ... .. . ... : ... .. E ... : ... .. . ... ...
ROW FD : ... .. E ... V02 ... : ... .. E ... V02 ... : ... .. . ... : ... .. C ... : ... .. . ... ...
ROW FE : ... .. . ... ... ... : ... .. . ... ... ... : ... .. . ... : ... .. A ... : ... .. . ... ...
ROW FF : ... .. D ... ... ... : ... .. D ... ... ... : ... .. . ... : ... .. 9 ... : ... .. . ... ...

PATTERN 0D
ROW 00 : ... .. C ... ... ... : ... .. C ... ... ... : ... .. . ... : ... .. 7 ... : ... .. . ... ...
ROW 01 : ... .. . ... ... ... : A-4 00 F ... V03 ... : ... .. . ... : 0-# 00 F ... : ... .. . ... ...
ROW 02 : ... .. B ... ... ... : ... .. . ... V01 ... : ... .. . ... : ... .. E ... : ... .. . ... ...
ROW 03 : ... .. A ... ... ... : ... .. E ... V02 ... : ... .. . ... : ... .. C ... : ... .. . ... ...
ROW 04 : ... .. . ... ... ... : ... .. . ... ... ... : ... .. . ... : ... .. A ... : ... .. . ... ...
ROW 05 : ... .. 9 ... ... ... : ... .. D ... ... ... : ... .. . ... : ... .. 9 ... : ... .. . ... ...
ROW 06 : ... .. . ... ... ... : ... .. C ... ... ... : ... .. . ... : ... .. 7 ... : ... .. . ... ...
ROW 07 : A-2 00 F P7F V03 ... : ... .. . ... ... ... : ... .. . ... : 4-# 00 F ... : ... .. . ... ...
ROW 08 : ... .. . ... V01 ... : ... .. B ... ... ... : ... .. . ... : ... .. E ... : ... .. . ... ...
ROW 09 : ... .. E ... V02 ... : ... .. A ... ... ... : ... .. . ... : ... .. C ... : ... .. . ... ...
ROW 0A : ... .. . ... ... ... : ... .. . ... ... ... : ... .. . ... : ... .. A ... : ... .. . ... ...
ROW 0B : ... .. D ... ... ... : ... .. 9 ... ... ... : ... .. . ... : ... .. 9 ... : ... .. . ... ...
ROW 0C : ... .. C ... ... ... : ... .. . ... ... ... : ... .. . ... : ... .. 7 ... : ... .. . ... ...
ROW 0D : ... .. . ... ... ... : ... .. 8 ... ... ... : ... .. . ... : ... .. 5 ... : ... .. . ... ...
ROW 0E : ... .. B ... ... ... : ... .. 7 ... ... ... : ... .. . ... : ... .. 4 ... : ... .. . ... ...
ROW 0F : ... .. A ... ... ... : ... .. . ... ... ... : ... .. . ... : ... .. 2 ... : ... .. . ... ...
ROW 10 : ... .. . ... ... ... : ... .. 6 ... ... ... : ... .. . ... : ... .. 0 ... : ... .. . ... ...
ROW 11 : ... .. 9 ... ... ... : ... .. 5 ... ... ... : ... .. . ... : ... .. . ... : ... .. . ... ...
ROW 12 : ... .. . ... ... ... : ... .. . ... ... ... : ... .. . ... : ... .. . ... : ... .. . ... ...
ROW 13 : A-1 00 F P80 V03 ... : ... .. F ... V03 ... : ... .. . ... : F-# 00 F ... : ... .. . ... ...
ROW 14 : ... .. . ... V01 ... : ... .. . ... V01 ... : ... .. . ... : ... .. E ... : ... .. . ... ...
ROW 15 : ... .. E ... V02 ... : ... .. E ... V02 ... : ... .. . ... : ... .. C ... : ... .. . ... ...
ROW 16 : ... .. . ... ... ... : ... .. . ... ... ... : ... .. . ... : ... .. A ... : ... .. . ... ...
ROW 17 : ... .. D ... ... ... : ... .. D ... ... ... : ... .. . ... : ... .. 9 ... : ... .. . ... ...
ROW 18 : ... .. C ... ... ... : ... .. C ... ... ... : ... .. . ... : ... .. 7 ... : ... .. . ... ...
ROW 19 : ... .. . ... ... ... : ... .. . ... ... ... : ... .. . ... : 4-# 00 F ... : ... .. . ... ...
ROW 1A : ... .. B ... ... ... : ... .. B ... ... ... : ... .. . ... : ... .. E ... : ... .. . ... ...
ROW 1B : ... .. A ... ... ... : ... .. A ... ... ... : ... .. . ... : ... .. C ... : ... .. . ... ...
ROW 1C : ... .. . ... ... ... : ... .. . ... ... ... : ... .. . ... : ... .. A ... : ... .. . ... ...
ROW 1D : ... .. 9 ... ... ... : ... .. 9 ... ... ... : ... .. . ... : ... .. 9 ... : ... .. . ... ...
ROW 1E : ... .. . ... ... ... : ... .. . ... ... ... : ... .. . ... : ... .. 7 ... : ... .. . ... ...
ROW 1F : ... .. F ... V03 ... : ... .. F ... V03 ... : ... .. . ... : 0-# 00 F ... : ... .. . ... ...
ROW 20 : ... .. . ... V01 ... : ... .. . ... V01 ... : ... .. . ... : ... .. E ... : ... .. . ... ...
ROW 21 : ... .. E ... V02 ... : ... .. E ... V02 ... : ... .. . ... : ... .. C ... : ... .. . ... ...
ROW 22 : ... .. . ... ... ... : ... .. . ... ... ... : ... .. . ... : ... .. A ... : ... .. . ... ...
ROW 23 : ... .. D ... ... ... : ... .. D ... ... ... : ... .. . ... : ... .. 9 ... : ... .. . ... ...
ROW 24 : ... .. C ... ... ... : ... .. C ... ... ... : ... .. . ... : ... .. 7 ... : ... .. . ... ...
ROW 25 : ... .. . ... ... ... : ... .. . ... ... ... : ... .. . ... : ... .. 5 ... : ... .. . ... ...
ROW 26 : ... .. B ... ... ... : ... .. B ... ... ... : ... .. . ... : ... .. 4 ... : ... .. . ... ...
ROW 27 : ... .. A ... ... ... : ... .. A ... ... ... : ... .. . ... : ... .. 2 ... : ... .. . ... ...
ROW 28 : ... .. . ... ... ... : ... .. . ... ... ... : ... .. . ... : ... .. 0 ... : ... .. . ... ...
ROW 29 : ... .. 9 ... ... ... : ... .. 9 ... ... ... : ... .. . ... : ... .. . ... : ... .. . ... ...
ROW 2A : ... .. . ... ... ... : ... .. . ... ... ... : ... .. . ... : ... .. . ... : ... .. . ... ...
ROW 2B : ... .. F ... V03 ... : ... .. F ... V03 ... : ... .. . ... : F-# 00 F ... : ... .. . ... ...
ROW 2C : ... .. . ... V01 ... : ... .. . ... V01 ... : ... .. . ... : ... .. E ... : ... .. . ... ...
ROW 2D : ... .. E ... V02 ... : ... .. E ... V02 ... : ... .. . ... : ... .. C ... : ... .. . ... ...
ROW 2E : ... .. . ... ... ... : ... .. . ... ... ... : ... .. . ... : ... .. A ... : ... .. . ... ...
ROW 2F : ... .. D ... ... ... : ... .. D ... ... ... : ... .. . ... : ... .. 9 ... : ... .. . ... ...
ROW 30 : ... .. C ... ... ... : ... .. C ... ... ... : ... .. . ... : ... .. 7 ... : ... .. . ... ...
ROW 31 : ... .. . ... ... ... : ... .. . ... ... ... : ... .. . ... : 0-# 00 F ... : ... .. . ... ...
ROW 32 : ... .. B ... ... ... : ... .. B ... ... ... : ... .. . ... : ... .. E ... : ... .. . ... ...
ROW 33 : ... .. A ... ... ... : ... .. A ... ... ... : ... .. . ... : ... .. C ... : ... .. . ... ...
ROW 34 : ... .. . ... ... ... : ... .. . ... ... ... : ... .. . ... : ... .. A ... : ... .. . ... ...
ROW 35 : ... .. 9 ... ... ... : ... .. 9 ... ... ... : ... .. . ... : ... .. 9 ... : ... .. . ... ...
ROW 36 : ... .. . ... ... ... : ... .. . ... ... ... : ... .. . ... : ... .. 7 ... : ... .. . ... ...
ROW 37 : A-2 00 F P7F V03 ... : G-4 00 F P80 V03 ... : ... .. . ... : 4-# 00 F ... : ... .. . ... ...
ROW 38 : ... .. . ... V01 ... : ... .. . ... V01 ... : ... .. . ... : ... .. E ... : ... .. . ... ...
ROW 39 : ... .. E ... V02 ... : ... .. E ... V02 ... : ... .. . ... : ... .. C ... : ... .. . ... ...
ROW 3A : ... .. . ... ... ... : ... .. . ... ... ... : ... .. . ... : ... .. A ... : ... .. . ... ...
ROW 3B : ... .. D ... ... ... : ... .. D ... ... ... : ... .. . ... : ... .. 9 ... : ... .. . ... ...
ROW 3C : ... .. C ... ... ... : ... .. C ... ... ... : ... .. . ... : ... .. 7 ... : ... .. . ... ...
ROW 3D : ... .. . ... ... ... : ... .. . ... ... ... : ... .. . ... : ... .. 5 ... : ... .. . ... ...
ROW 3E : ... .. B ... ... ... : ... .. B ... ... ... : ... .. . ... : ... .. 4 ... : ... .. . ... ...
ROW 3F : ... .. A ... ... ... : ... .. A ... ... ... : ... .. . ... : ... .. 2 ... : ... .. . ... ...
ROW 40 : ... .. . ... ... ... : ... .. . ... ... ... : ... .. . ... : ... .. 0 ... : ... .. . ... ...
ROW 41 : ... .. 9 ... ... ... : ... .. 9 ... ... ... : ... .. . ... : ... .. . ... : ... .. . ... ...
ROW 42 : ... .. . ... ... ... : ... .. . ... ... ... : ... .. . ... : ... .. . ... : ... .. . ... ...
ROW 43 : A-1 00 F P80 V03 ... : ... .. F ... V03 ... : ... .. . ... : F-# 00 F ... : ... .. . ... ...
ROW 44 : ... .. . ... V01 ... : ... .. . ... V01 ... : ... .. . ... : ... .. E ... : ... .. . ... ...
ROW 45 : ... .. E ... V02 ... : ... .. E ... V02 ... : ... .. . ... : ... .. C ... : ... .. . ... ...
ROW 46 : ... .. . ... ... ... : ... .. . ... ... ... : ... .. . ... : ... .. A ... : ... .. . ... ...
ROW 47 : ... .. D ... ... ... : ... .. D ... ... ... : ... .. . ... : ... .. 9 ... : ... .. . ... ...
ROW 48 : ... .. C ... ... ... : ... .. C ... ... ... : ... .. . ... : ... .. 7 ... : ... .. . ... ...
ROW 49 : ... .. . ... ... ... : ... .. . ... ... ... : ... .. . ... : 4-# 00 F ... : ... .. . ... ...
ROW 4A : ... .. B ... ... ... : ... .. B ... ... ... : ... .. . ... : ... .. E ... : ... .. . ... ...
ROW 4B : ... .. A ... ... ... : ... .. A ... ... ... : ... .. . ... : ... .. C ... : ... .. . ... ...
ROW 4C : ... .. . ... ... ... : ... .. . ... ... ... : ... .. . ... : ... .. A ... : ... .. . ... ...
ROW 4D : ... .. 9 ... ... ... : ... .. 9 ... ... ... : ... .. . ... : ... .. 9 ... : ... .. . ... ...
ROW 4E : ... .. . ... ... ... : ... .. . ... ... ... : ... .. . ... : ... .. 7 ... : ... .. . ... ...
ROW 4F : G-1 00 F ... V03 ... : E-4 00 F P7F V03 ... : ... .. . ... : 0-# 00 F ... : ... .. . ... ...
ROW 50 : ... .. . ... V01 ... : ... .. . ... V01 ... : ... .. . ... : ... .. E ... : ... .. . ... ...
ROW 51 : ... .. E ... V02 ... : ... .. E ... V02 ... : ... .. . ... : ... .. C ... : ... .. . ... ...
ROW 52 : ... .. . ... ... ... : ... .. . ... ... ... : ... .. . ... : ... .. A ... : ... .. . ... ...
ROW 53 : ... .. D ... ... ... : ... .. D ... ... ... : ... .. . ... : ... .. 9 ... : ... .. . ... ...
ROW 54 : ... .. C ... ... ... : ... .. C ... ... ... : ... .. . ... : ... .. 7 ... : ... .. . ... ...
ROW 55 : ... .. . ... ... ... : ... .. . ... ... ... : ... .. . ... : ... .. 5 ... : ... .. . ... ...
ROW 56 : ... .. B ... ... ... : ... .. B ... ... ... : ... .. . ... : ... .. 4 ... : ... .. . ... ...
ROW 57 : ... .. A ... ... ... : ... .. A ... ... ... : ... .. . ... : ... .. 2 ... : ... .. . ... ...
ROW 58 : ... .. . ... ... ... : ... .. . ... ... ... : ... .. . ... : ... .. 0 ... : ... .. . ... ...
ROW 59 : ... .. 9 ... ... ... : ... .. 9 ... ... ... : ... .. . ... : ... .. . ... : ... .. . ... ...
ROW 5A : ... .. . ... ... ... : ... .. . ... ... ... : ... .. . ... : ... .. . ... : ... .. . ... ...
ROW 5B : ... .. F ... V03 ... : ... .. F ... V03 ... : ... .. . ... : F-# 00 F ... : ... .. . ... ...
ROW 5C : ... .. . ... V01 ... : ... .. . ... V01 ... : ... .. . ... : ... .. E ... : ... .. . ... ...
ROW 5D : ... .. E ... V02 ... : ... .. E ... V02 ... : ... .. . ... : ... .. C ... : ... .. . ... ...
ROW 5E : ... .. . ... ... ... : ... .. . ... ... ... : ... .. . ... : ... .. A ... : ... .. . ... ...
ROW 5F : ... .. D ... ... ... : ... .. D ... ... ... : ... .. . ... : ... .. 9 ... : ... .. . ... ...
ROW 60 : ... .. C ... ... ... : ... .. C ... ... ... : ... .. . ... : ... .. 7 ... : ... .. . ... ...
ROW 61 : ... .. . ... ... ... : ... .. . ... ... ... : ... .. . ... : 0-# 00 F ... : ... .. . ... ...
ROW 62 : ... .. B ... ... ... : ... .. B ... ... ... : ... .. . ... : ... .. E ... : ... .. . ... ...
ROW 63 : ... .. A ... ... ... : ... .. A ... ... ... : ... .. . ... : ... .. C ... : ... .. . ... ...
ROW 64 : ... .. . ... ... ... : ... .. . ... ... ... : ... .. . ... : ... .. A ... : ... .. . ... ...
ROW 65 : ... .. 9 ... ... ... : ... .. 9 ... ... ... : ... .. . ... : ... .. 9 ... : ... .. . ... ...
ROW 66 : ... .. . ... ... ... : ... .. . ... ... ... : ... .. . ... : ... .. 7 ... : ... .. . ... ...
ROW 67 : G-2 00 F ... V03 ... : G-4 00 F P80 V03 ... : ... .. . ... : 4-# 00 F ... : ... .. . ... ...
ROW 68 : ... .. . ... V01 ... : ... .. . ... V01 ... : ... .. . ... : ... .. E ... : ... .. . ... ...
ROW 69 : ... .. E ... V02 ... : ... .. E ... V02 ... : ... .. . ... : ... .. C ... : ... .. . ... ...
ROW 6A : ... .. . ... ... ... : ... .. . ... ... ... : ... .. . ... : ... .. A ... : ... .. . ... ...
ROW 6B : ... .. D ... ... ... : ... .. D ... ... ... : ... .. . ... : ... .. 9 ... : ... .. . ... ...
ROW 6C : ... .. C ... ... ... : ... .. C ... ... ... : ... .. . ... : ... .. 7 ... : ... .. . ... ...
ROW 6D : ... .. . ... ... ... : ... .. . ... ... ... : ... .. . ... : ... .. 5 ... : ... .. . ... ...
ROW 6E : ... .. B ... ... ... : ... .. B ... ... ... : ... .. . ... : ... .. 4 ... : ... .. . ... ...
ROW 6F : ... .. A ... ... ... : ... .. A ... ... ... : ... .. . ... : ... .. 2 ... : ... .. . ... ...
ROW 70 : ... .. . ... ... ... : ... .. . ... ... ... : ... .. . ... : ... .. 0 ... : ... .. . ... ...
ROW 71 : ... .. 9 ... ... ... : ... .. 9 ... ... ... : ... .. . ... : ... .. . ... : ... .. . ... ...
ROW 72 : ... .. . ... ... ... : ... .. . ... ... ... : ... .. . ... : ... .. . ... : ... .. . ... ...
ROW 73 : G-1 00 F ... V03 ... : G#4 00 F ... V03 ... : ... .. . ... : F-# 00 F ... : ... .. . ... ...
ROW 74 : ... .. . ... V01 ... : ... .. . ... V01 ... : ... .. . ... : ... .. E ... : ... .. . ... ...
ROW 75 : ... .. E ... V02 ... : ... .. E ... V02 ... : ... .. . ... : ... .. C ... : ... .. . ... ...
ROW 76 : ... .. . ... ... ... : ... .. . ... ... ... : ... .. . ... : ... .. A ... : ... .. . ... ...
ROW 77 : ... .. D ... ... ... : ... .. D ... ... ... : ... .. . ... : ... .. 9 ... : ... .. . ... ...
ROW 78 : ... .. C ... ... ... : ... .. C ... ... ... : ... .. . ... : ... .. 7 ... : ... .. . ... ...
ROW 79 : ... .. . ... ... ... : ... .. . ... ... ... : ... .. . ... : 4-# 00 F ... : ... .. . ... ...
ROW 7A : ... .. B ... ... ... : ... .. B ... ... ... : ... .. . ... : ... .. E ... : ... .. . ... ...
ROW 7B : ... .. A ... ... ... : ... .. A ... ... ... : ... .. . ... : ... .. C ... : ... .. . ... ...
ROW 7C : ... .. . ... ... ... : ... .. . ... ... ... : ... .. . ... : ... .. A ... : ... .. . ... ...
ROW 7D : ... .. 9 ... ... ... : ... .. 9 ... ... ... : ... .. . ... : ... .. 9 ... : ... .. . ... ...
ROW 7E : ... .. . ... ... ... : ... .. . ... ... ... : ... .. . ... : ... .. 7 ... : ... .. . ... ...
ROW 7F : A-1 00 F ... V03 ... : A-3 00 F P7F V00 ... : G-4 00 . ... : 0-# 00 F ... : ... .. . ... ...
ROW 80 : ... .. . ... V01 ... : ... .. . ... ... ... : F-4 00 . P82 : ... .. E ... : ... .. . ... ...
ROW 81 : ... .. E ... V02 ... : ... .. . ... ... ... : E-4 00 . P7D : ... .. C ... : ... .. . ... ...
ROW 82 : ... .. . ... ... ... : ... .. . ... ... ... : D-4 00 . P82 : ... .. A ... : ... .. . ... ...
ROW 83 : ... .. D ... ... ... : ... .. E ... ... ... : C#4 00 . P7F : ... .. 9 ... : ... .. . ... ...
ROW 84 : ... .. C ... ... ... : ... .. . ... ... ... : C-4 00 . P7C : ... .. 7 ... : ... .. . ... ...
ROW 85 : ... .. . ... ... ... : ... .. . ... ... ... : A#3 00 . P87 : ... .. 5 ... : ... .. . ... ...
ROW 86 : ... .. B ... ... ... : ... .. D ... ... ... : A-3 00 . P86 : ... .. 4 ... : ... .. . ... ...
ROW 87 : ... .. A ... ... ... : ... .. . ... ... ... : G#3 00 . ... : ... .. 2 ... : ... .. . ... ...
ROW 88 : ... .. . ... ... ... : ... .. . ... ... ... : --- .. . ... : ... .. 0 ... : ... .. . ... ...
ROW 89 : ... .. 9 ... ... ... : ... .. C ... ... ... : ... .. . ... : ... .. . ... : ... .. . ... ...
ROW 8A : ... .. . ... ... ... : ... .. . ... ... ... : ... .. . ... : ... .. . ... : ... .. . ... ...
ROW 8B : ... .. F ... V03 ... : ... .. . ... ... ... : G-5 00 . P82 : F-# 00 F ... : ... .. . ... ...
ROW 8C : ... .. . ... V01 ... : ... .. . ... ... ... : E-5 00 . P81 : ... .. E ... : ... .. . ... ...
ROW 8D : ... .. E ... V02 ... : ... .. B ... ... ... : C#5 00 . P82 : ... .. C ... : ... .. . ... ...
ROW 8E : ... .. . ... ... ... : ... .. . ... ... ... : B-4 00 . P7F : ... .. A ... : ... .. . ... ...
ROW 8F : ... .. D ... ... ... : ... .. . ... ... ... : A-4 00 . P7E : ... .. 9 ... : ... .. . ... ...
ROW 90 : ... .. C ... ... ... : ... .. A ... ... ... : G-4 00 . P7F : ... .. 7 ... : ... .. . ... ...
ROW 91 : ... .. . ... ... ... : ... .. . ... ... ... : G-5 00 . P82 : ... .. F ... : ... .. . ... ...
ROW 92 : ... .. B ... ... ... : ... .. . ... ... ... : E-5 00 . P81 : ... .. E ... : ... .. . ... ...
ROW 93 : ... .. A ... ... ... : ... .. 9 ... ... ... : C#5 00 . P82 : ... .. C ... : ... .. . ... ...
ROW 94 : ... .. . ... ... ... : ... .. . ... ... ... : B-4 00 . P7F : ... .. A ... : ... .. . ... ...
ROW 95 : ... .. 9 ... ... ... : ... .. . ... ... ... : A-4 00 . P7E : ... .. 9 ... : ... .. . ... ...
ROW 96 : ... .. . ... ... ... : ... .. 8 ... ... ... : G-4 00 . P7F : ... .. 7 ... : ... .. . ... ...
ROW 97 : A-2 00 F P7F V03 ... : ... .. . ... ... ... : G-5 00 . P82 : 4-# 00 F ... : ... .. . ... ...
ROW 98 : ... .. . ... V01 ... : ... .. . ... ... ... : E-5 00 . P81 : ... .. E ... : ... .. . ... ...
ROW 99 : ... .. E ... V02 ... : ... .. . ... ... ... : C#5 00 . P82 : ... .. C ... : ... .. . ... ...
ROW 9A : ... .. . ... ... ... : ... .. 7 ... ... ... : B-4 00 . P7F : ... .. A ... : ... .. . ... ...
ROW 9B : ... .. D ... ... ... : ... .. . ... ... ... : A-4 00 . P7E : ... .. 9 ... : ... .. . ... ...
ROW 9C : ... .. C ... ... ... : ... .. . ... ... ... : G-4 00 . P7F : ... .. 7 ... : ... .. . ... ...
ROW 9D : ... .. . ... ... ... : ... .. 6 ... ... ... : F-4 00 . P81 : ... .. 5 ... : ... .. . ... ...
ROW 9E : ... .. B ... ... ... : ... .. . ... ... ... : E-4 00 . P7C : ... .. 4 ... : ... .. . ... ...
ROW 9F : ... .. A ... ... ... : ... .. . ... ... ... : D-4 00 . P81 : ... .. 2 ... : ... .. . ... ...
ROW A0 : ... .. . ... ... ... : ... .. 5 ... ... ... : --- .. . ... : ... .. 0 ... : ... .. . ... ...
ROW A1 : ... .. 9 ... ... ... : ... .. . ... ... ... : ... .. . ... : ... .. . ... : ... .. . ... ...
ROW A2 : ... .. . ... ... ... : ... .. . ... ... ... : ... .. . ... : ... .. . ... : ... .. . ... ...
ROW A3 : A-1 00 F P80 V03 ... : ... .. 4 ... ... ... : G-4 00 . P80 : F-# 00 F ... : ... .. . ... ...
ROW A4 : ... .. . ... V01 ... : ... .. . ... ... ... : F-4 00 . P82 : ... .. E ... : ... .. . ... ...
ROW A5 : ... .. E ... V02 ... : ... .. . ... ... ... : E-4 00 . P7D : ... .. C ... : ... .. . ... ...
ROW A6 : ... .. . ... ... ... : ... .. . ... ... ... : D-4 00 . P82 : ... .. A ... : ... .. . ... ...
ROW A7 : ... .. D ... ... ... : ... .. 3 ... ... ... : C#4 00 . P7F : ... .. 9 ... : ... .. . ... ...
ROW A8 : ... .. C ... ... ... : ... .. . ... ... ... : C-4 00 . P7C : ... .. 7 ... : ... .. . ... ...
ROW A9 : ... .. . ... ... ... : ... .. . ... ... ... : A#3 00 . P87 : 4-# 00 F ... : ... .. . ... ...
ROW AA : ... .. B ... ... ... : ... .. 2 ... ... ... : A-3 00 . P86 : ... .. E ... : ... .. . ... ...
ROW AB : ... .. A ... ... ... : ... .. . ... ... ... : G#3 00 . ... : ... .. C ... : ... .. . ... ...
ROW AC : ... .. . ... ... ... : ... .. . ... ... ... : --- .. . ... : ... .. A ... : ... .. . ... ...
ROW AD : ... .. 9 ... ... ... : ... .. 1 ... ... ... : ... .. . ... : ... .. 9 ... : ... .. . ... ...
ROW AE : ... .. . ... ... ... : ... .. . ... ... ... : ... .. . ... : ... .. 7 ... : ... .. . ... ...
ROW AF : ... .. F ... V03 ... : ... .. . ... ... ... : G-5 00 . P82 : 0-# 00 F ... : ... .. . ... ...
ROW B0 : ... .. . ... V01 ... : ... .. 0 ... ... ... : E-5 00 . P81 : ... .. E ... : ... .. . ... ...
ROW B1 : ... .. E ... V02 ... : ... .. . ... ... ... : C#5 00 . P82 : ... .. C ... : ... .. . ... ...
ROW B2 : ... .. . ... ... ... : ... .. . ... ... ... : B-4 00 . P7F : ... .. A ... : ... .. . ... ...
ROW B3 : ... .. D ... ... ... : ... .. . ... ... ... : A-4 00 . P7E : ... .. 9 ... : ... .. . ... ...
ROW B4 : ... .. C ... ... ... : ... .. . ... ... ... : G-4 00 . P7F : ... .. 7 ... : ... .. . ... ...
ROW B5 : ... .. . ... ... ... : ... .. . ... ... ... : F-4 00 . P81 : ... .. 5 ... : ... .. . ... ...
ROW B6 : ... .. B ... ... ... : ... .. . ... ... ... : E-4 00 . P7C : ... .. 4 ... : ... .. . ... ...
ROW B7 : ... .. A ... ... ... : ... .. . ... ... ... : D-4 00 . P81 : ... .. 2 ... : ... .. . ... ...
ROW B8 : ... .. . ... ... ... : ... .. . ... ... ... : --- .. . ... : ... .. 0 ... : ... .. . ... ...
ROW B9 : ... .. 9 ... ... ... : ... .. . ... ... ... : ... .. . ... : ... .. . ... : ... .. . ... ...
ROW BA : ... .. . ... ... ... : ... .. . ... ... ... : ... .. . ... : ... .. . ... : ... .. . ... ...
ROW BB : ... .. F ... V03 ... : ... .. . ... ... ... : G-4 00 . P80 : F-# 00 F ... : ... .. . ... ...
ROW BC : ... .. . ... V01 ... : ... .. . ... ... ... : F-4 00 . P82 : ... .. E ... : ... .. . ... ...
ROW BD : ... .. E ... V02 ... : ... .. . ... ... ... : E-4 00 . P7D : ... .. C ... : ... .. . ... ...
ROW BE : ... .. . ... ... ... : ... .. . ... ... ... : D-4 00 . P82 : ... .. A ... : ... .. . ... ...
ROW BF : ... .. D ... ... ... : ... .. . ... ... ... : C#4 00 . P7F : ... .. 9 ... : ... .. . ... ...
ROW C0 : ... .. C ... ... ... : ... .. . ... ... ... : C-4 00 . P7C : ... .. 7 ... : ... .. . ... ...
ROW C1 : ... .. . ... ... ... : ... .. . ... ... ... : A#3 00 . P87 : 0-# 00 F ... : ... .. . ... ...
ROW C2 : ... .. B ... ... ... : ... .. . ... ... ... : A-3 00 . P86 : ... .. E ... : ... .. . ... ...
ROW C3 : ... .. A ... ... ... : ... .. . ... ... ... : G#3 00 . ... : ... .. C ... : ... .. . ... ...
ROW C4 : ... .. . ... ... ... : ... .. . ... ... ... : --- .. . ... : ... .. A ... : ... .. . ... ...
ROW C5 : ... .. 9 ... ... ... : ... .. . ... ... ... : ... .. . ... : ... .. 9 ... : ... .. . ... ...
ROW C6 : ... .. . ... ... ... : ... .. . ... ... ... : ... .. . ... : ... .. 7 ... : ... .. . ... ...
ROW C7 : A-2 00 F P7F V03 ... : A-3 00 F P7F ... ... : G-5 00 . P82 : 4-# 00 F ... : ... .. . ... ...
ROW C8 : ... .. . ... V01 ... : ... .. . ... ... ... : E-5 00 . P81 : ... .. E ... : ... .. . ... ...
ROW C9 : ... .. E ... V02 ... : ... .. . ... ... ... : C#5 00 . P82 : ... .. C ... : ... .. . ... ...
ROW CA : ... .. . ... ... ... : ... .. . ... ... ... : B-4 00 . P7F : ... .. A ... : ... .. . ... ...
ROW CB : ... .. D ... ... ... : ... .. E ... ... ... : A-4 00 . P7E : ... .. 9 ... : ... .. . ... ...
ROW CC : ... .. C ... ... ... : ... .. . ... ... ... : G-4 00 . P7F : ... .. 7 ... : ... .. . ... ...
ROW CD : ... .. . ... ... ... : ... .. . ... ... ... : F-4 00 . P81 : ... .. 5 ... : ... .. . ... ...
ROW CE : ... .. B ... ... ... : ... .. D ... ... ... : E-4 00 . P7C : ... .. 4 ... : ... .. . ... ...
ROW CF : ... .. A ... ... ... : ... .. . ... ... ... : D-4 00 . P81 : ... .. 2 ... : ... .. . ... ...
ROW D0 : ... .. . ... ... ... : ... .. . ... ... ... : --- .. . ... : ... .. 0 ... : ... .. . ... ...
ROW D1 : ... .. 9 ... ... ... : ... .. C ... ... ... : ... .. . ... : ... .. . ... : ... .. . ... ...
ROW D2 : ... .. . ... ... ... : ... .. . ... ... ... : ... .. . ... : ... .. . ... : ... .. . ... ...
ROW D3 : A-1 00 F P80 V03 ... : B-3 00 F ... ... ... : G-4 00 . P80 : F-# 00 F ... : ... .. . ... ...
ROW D4 : ... .. . ... V01 ... : ... .. . ... ... ... : F-4 00 . P82 : ... .. E ... : ... .. . ... ...
ROW D5 : ... .. E ... V02 ... : ... .. . ... ... ... : E-4 00 . P7D : ... .. C ... : ... .. . ... ...
ROW D6 : ... .. . ... ... ... : ... .. . ... ... ... : D-4 00 . P82 : ... .. A ... : ... .. . ... ...
ROW D7 : ... .. D ... ... ... : ... .. E ... ... ... : C#4 00 . P7F : ... .. 9 ... : ... .. . ... ...
ROW D8 : ... .. C ... ... ... : ... .. . ... ... ... : C-4 00 . P7C : ... .. 7 ... : ... .. . ... ...
ROW D9 : ... .. . ... ... ... : ... .. . ... ... ... : A#3 00 . P87 : 4-# 00 F ... : ... .. . ... ...
ROW DA : ... .. B ... ... ... : ... .. D ... ... ... : A-3 00 . P86 : ... .. E ... : ... .. . ... ...
ROW DB : ... .. A ... ... ... : ... .. . ... ... ... : G#3 00 . ... : ... .. C ... : ... .. . ... ...
ROW DC : ... .. . ... ... ... : ... .. . ... ... ... : --- .. . ... : ... .. A ... : ... .. . ... ...
ROW DD : ... .. 9 ... ... ... : ... .. C ... ... ... : ... .. . ... : ... .. 9 ... : ... .. . ... ...
ROW DE : ... .. . ... ... ... : ... .. . ... ... ... : ... .. . ... : ... .. 7 ... : ... .. . ... ...
ROW DF : C-2 00 F P7E V03 ... : C-4 00 F ... ... ... : G-5 00 . P82 : 0-# 00 F ... : ... .. . ... ...
ROW E0 : ... .. . ... V01 ... : ... .. . ... ... ... : E-5 00 . P81 : ... .. E ... : ... .. . ... ...
ROW E1 : ... .. E ... V02 ... : ... .. . ... ... ... : C#5 00 . P82 : ... .. C ... : ... .. . ... ...
ROW E2 : ... .. . ... ... ... : ... .. . ... ... ... : B-4 00 . P7F : ... .. A ... : ... .. . ... ...
ROW E3 : ... .. D ... ... ... : ... .. E ... ... ... : A-4 00 . P7E : ... .. 9 ... : ... .. . ... ...
ROW E4 : ... .. C ... ... ... : ... .. . ... ... ... : G-4 00 . P7F : ... .. 7 ... : ... .. . ... ...
ROW E5 : ... .. . ... ... ... : ... .. . ... ... ... : F-4 00 . P81 : ... .. 5 ... : ... .. . ... ...
ROW E6 : ... .. B ... ... ... : ... .. D ... ... ... : E-4 00 . P7C : ... .. 4 ... : ... .. . ... ...
ROW E7 : ... .. A ... ... ... : ... .. . ... ... ... : D-4 00 . P81 : ... .. 2 ... : ... .. . ... ...
ROW E8 : ... .. . ... ... ... : ... .. . ... ... ... : --- .. . ... : ... .. 0 ... : ... .. . ... ...
ROW E9 : ... .. 9 ... ... ... : ... .. C ... ... ... : ... .. . ... : ... .. . ... : ... .. . ... ...
ROW EA : ... .. . ... ... ... : ... .. . ... ... ... : ... .. . ... : ... .. . ... : ... .. . ... ...
ROW EB : ... .. F ... V03 ... : ... .. . ... ... ... : G-4 00 . P80 : F-# 00 F ... : ... .. . ... ...
ROW EC : ... .. . ... V01 ... : ... .. . ... ... ... : F-4 00 . P82 : ... .. E ... : ... .. . ... ...
ROW ED : ... .. E ... V02 ... : ... .. B ... ... ... : E-4 00 . P7D : ... .. C ... : ... .. . ... ...
ROW EE : ... .. . ... ... ... : ... .. . ... ... ... : D-4 00 . P82 : ... .. A ... : ... .. . ... ...
ROW EF : ... .. D ... ... ... : ... .. . ... ... ... : C#4 00 . P7F : ... .. 9 ... : ... .. . ... ...
ROW F0 : ... .. C ... ... ... : ... .. A ... ... ... : C-4 00 . P7C : ... .. 7 ... : ... .. . ... ...
ROW F1 : ... .. . ... ... ... : ... .. . ... ... ... : G-4 00 . P80 : 0-# 00 F ... : ... .. . ... ...
ROW F2 : ... .. B ... ... ... : ... .. . ... ... ... : F-4 00 . P82 : ... .. E ... : ... .. . ... ...
ROW F3 : ... .. A ... ... ... : ... .. 9 ... ... ... : E-4 00 . P7D : ... .. C ... : ... .. . ... ...
ROW F4 : ... .. . ... ... ... : ... .. . ... ... ... : D-4 00 . P82 : ... .. A ... : ... .. . ... ...
ROW F5 : ... .. 9 ... ... ... : ... .. . ... ... ... : C#4 00 . P7F : ... .. 9 ... : ... .. . ... ...
ROW F6 : ... .. . ... ... ... : ... .. 8 ... ... ... : C-4 00 . P7C : ... .. 7 ... : ... .. . ... ...
ROW F7 : C-3 00 F P7F V03 ... : ... .. . ... ... ... : G-4 00 . P80 : 4-# 00 F ... : ... .. . ... ...
ROW F8 : ... .. . ... V01 ... : ... .. . ... ... ... : F-4 00 . P82 : ... .. E ... : ... .. . ... ...
ROW F9 : ... .. E ... V02 ... : ... .. . ... ... ... : E-4 00 . P7D : ... .. C ... : ... .. . ... ...
ROW FA : ... .. . ... ... ... : ... .. 7 ... ... ... : D-4 00 . P82 : ... .. A ... : ... .. . ... ...
ROW FB : ... .. D ... ... ... : ... .. . ... ... ... : C#4 00 . P7F : ... .. 9 ... : ... .. . ... ...
ROW FC : ... .. C ... ... ... : ... .. . ... ... ... : C-4 00 . P7C : ... .. 7 ... : ... .. . ... ...
ROW FD : ... .. . ... ... ... : ... .. 6 ... ... ... : A#3 00 . P87 : ... .. 5 ... : ... .. . ... ...
ROW FE : ... .. B ... ... ... : ... .. . ... ... ... : A-3 00 . P86 : ... .. 4 ... : ... .. . ... ...
ROW FF : ... .. A ... ... ... : ... .. . ... ... ... : G#3 00 . ... : ... .. 2 ... : ... .. . ... ...

PATTERN 0E
ROW 00 : ... .. . ... ... ... : ... .. 5 ... ... ... : --- .. . ... : ... .. 0 ... : ... .. . ... ...
ROW 01 : ... .. 9 ... ... ... : ... .. . ... ... ... : ... .. . ... : ... .. . ... : ... .. . ... ...
ROW 02 : ... .. . ... ... ... : ... .. . ... ... ... : ... .. . ... : ... .. . ... : ... .. . ... ...
ROW 03 : C-2 00 F P7E V03 ... : ... .. F ... ... ... : G-5 00 . P82 : F-# 00 F ... : ... .. . ... ...
ROW 04 : ... .. . ... V01 ... : ... .. . ... ... ... : E-5 00 . P81 : ... .. E ... : ... .. . ... ...
ROW 05 : ... .. E ... V02 ... : ... .. . ... ... ... : C#5 00 . P82 : ... .. C ... : ... .. . ... ...
ROW 06 : ... .. . ... ... ... : ... .. . ... ... ... : B-4 00 . P7F : ... .. A ... : ... .. . ... ...
ROW 07 : ... .. D ... ... ... : ... .. E ... ... ... : A-4 00 . P7E : ... .. 9 ... : ... .. . ... ...
ROW 08 : ... .. C ... ... ... : ... .. . ... ... ... : G-4 00 . P7F : ... .. 7 ... : ... .. . ... ...
ROW 09 : ... .. . ... ... ... : ... .. . ... ... ... : G-5 00 . P82 : 4-# 00 F ... : ... .. . ... ...
ROW 0A : ... .. B ... ... ... : ... .. D ... ... ... : E-5 00 . P81 : ... .. E ... : ... .. . ... ...
ROW 0B : ... .. A ... ... ... : ... .. . ... ... ... : C#5 00 . P82 : ... .. C ... : ... .. . ... ...
ROW 0C : ... .. . ... ... ... : ... .. . ... ... ... : B-4 00 . P7F : ... .. A ... : ... .. . ... ...
ROW 0D : ... .. 9 ... ... ... : ... .. C ... ... ... : A-4 00 . P7E : ... .. 9 ... : ... .. . ... ...
ROW 0E : ... .. . ... ... ... : ... .. . ... ... ... : G-4 00 . P7F : ... .. 7 ... : ... .. . ... ...
ROW 0F : G-1 00 F P80 V03 ... : D-4 00 F ... ... ... : ... .. . P80 : 0-# 00 F ... : ... .. . ... ...
ROW 10 : ... .. . ... V01 ... : ... .. . ... ... ... : F-4 00 . P82 : ... .. E ... : ... .. . ... ...
ROW 11 : ... .. E ... V02 ... : ... .. . ... ... ... : E-4 00 . P7D : ... .. C ... : ... .. . ... ...
ROW 12 : ... .. . ... ... ... : ... .. . ... ... ... : D-4 00 . P82 : ... .. A ... : ... .. . ... ...
ROW 13 : ... .. D ... ... ... : ... .. E ... ... ... : C#4 00 . P7F : ... .. 9 ... : ... .. . ... ...
ROW 14 : ... .. C ... ... ... : ... .. . ... ... ... : C-4 00 . P7C : ... .. 7 ... : ... .. . ... ...
ROW 15 : ... .. . ... ... ... : ... .. . ... ... ... : A#3 00 . P87 : ... .. 5 ... : ... .. . ... ...
ROW 16 : ... .. B ... ... ... : ... .. D ... ... ... : A-3 00 . P86 : ... .. 4 ... : ... .. . ... ...
ROW 17 : ... .. A ... ... ... : ... .. . ... ... ... : G#3 00 . ... : ... .. 2 ... : ... .. . ... ...
ROW 18 : ... .. . ... ... ... : ... .. . ... ... ... : --- .. . ... : ... .. 0 ... : ... .. . ... ...
ROW 19 : ... .. 9 ... ... ... : ... .. C ... ... ... : ... .. . ... : ... .. . ... : ... .. . ... ...
ROW 1A : ... .. . ... ... ... : ... .. . ... ... ... : ... .. . ... : ... .. . ... : ... .. . ... ...
ROW 1B : ... .. F ... V03 ... : C-4 00 F ... ... ... : G-4 00 . P80 : F-# 00 F ... : ... .. . ... ...
ROW 1C : ... .. . ... V01 ... : ... .. . ... ... ... : F-4 00 . P82 : ... .. E ... : ... .. . ... ...
ROW 1D : ... .. E ... V02 ... : ... .. . ... ... ... : E-4 00 . P7D : ... .. C ... : ... .. . ... ...
ROW 1E : ... .. . ... ... ... : ... .. . ... ... ... : D-4 00 . P82 : ... .. A ... : ... .. . ... ...
ROW 1F : ... .. D ... ... ... : ... .. E ... ... ... : C#4 00 . P7F : ... .. 9 ... : ... .. . ... ...
ROW 20 : ... .. C ... ... ... : ... .. . ... ... ... : C-4 00 . P7C : ... .. 7 ... : ... .. . ... ...
ROW 21 : ... .. . ... ... ... : ... .. . ... ... ... : A#3 00 . P87 : 0-# 00 F ... : ... .. . ... ...
ROW 22 : ... .. B ... ... ... : ... .. D ... ... ... : A-3 00 . P86 : ... .. E ... : ... .. . ... ...
ROW 23 : ... .. A ... ... ... : ... .. . ... ... ... : G#3 00 . ... : ... .. C ... : ... .. . ... ...
ROW 24 : ... .. . ... ... ... : ... .. . ... ... ... : --- .. . ... : ... .. A ... : ... .. . ... ...
ROW 25 : ... .. 9 ... ... ... : ... .. C ... ... ... : ... .. . ... : ... .. 9 ... : ... .. . ... ...
ROW 26 : ... .. . ... ... ... : ... .. . ... ... ... : ... .. . ... : ... .. 7 ... : ... .. . ... ...
ROW 27 : G-2 00 F ... V03 ... : ... .. . ... ... ... : G-5 00 . P82 : 4-# 00 F ... : ... .. . ... ...
ROW 28 : ... .. . ... V01 ... : ... .. . ... ... ... : E-5 00 . P81 : ... .. E ... : ... .. . ... ...
ROW 29 : ... .. E ... V02 ... : ... .. B ... ... ... : C#5 00 . P82 : ... .. C ... : ... .. . ... ...
ROW 2A : ... .. . ... ... ... : ... .. . ... ... ... : B-4 00 . P7F : ... .. A ... : ... .. . ... ...
ROW 2B : ... .. D ... ... ... : ... .. . ... ... ... : A-4 00 . P7E : ... .. 9 ... : ... .. . ... ...
ROW 2C : ... .. C ... ... ... : ... .. A ... ... ... : G-4 00 . P7F : ... .. 7 ... : ... .. . ... ...
ROW 2D : ... .. . ... ... ... : ... .. . ... ... ... : F-4 00 . P81 : ... .. 5 ... : ... .. . ... ...
ROW 2E : ... .. B ... ... ... : ... .. . ... ... ... : E-4 00 . P7C : ... .. 4 ... : ... .. . ... ...
ROW 2F : ... .. A ... ... ... : ... .. 9 ... ... ... : D-4 00 . P81 : ... .. 2 ... : ... .. . ... ...
ROW 30 : ... .. . ... ... ... : ... .. . ... ... ... : --- .. . ... : ... .. 0 ... : ... .. . ... ...
ROW 31 : ... .. 9 ... ... ... : ... .. . ... ... ... : ... .. . ... : ... .. . ... : ... .. . ... ...
ROW 32 : ... .. . ... ... ... : ... .. 8 ... ... ... : ... .. . ... : ... .. . ... : ... .. . ... ...
ROW 33 : G-1 00 F ... V03 ... : B-3 00 F ... ... ... : G-4 00 . P80 : F-# 00 F ... : ... .. . ... ...
ROW 34 : ... .. . ... V01 ... : ... .. . ... ... ... : F-4 00 . P82 : ... .. E ... : ... .. . ... ...
ROW 35 : ... .. E ... V02 ... : ... .. . ... ... ... : E-4 00 . P7D : ... .. C ... : ... .. . ... ...
ROW 36 : ... .. . ... ... ... : ... .. . ... ... ... : D-4 00 . P82 : ... .. A ... : ... .. . ... ...
ROW 37 : ... .. D ... ... ... : ... .. E ... ... ... : C#4 00 . P7F : ... .. 9 ... : ... .. . ... ...
ROW 38 : ... .. C ... ... ... : ... .. . ... ... ... : C-4 00 . P7C : ... .. 7 ... : ... .. . ... ...
ROW 39 : ... .. . ... ... ... : ... .. . ... ... ... : A#3 00 . P87 : 4-# 00 F ... : ... .. . ... ...
ROW 3A : ... .. B ... ... ... : ... .. D ... ... ... : A-3 00 . P86 : ... .. E ... : ... .. . ... ...
ROW 3B : ... .. A ... ... ... : ... .. . ... ... ... : G#3 00 . ... : ... .. C ... : ... .. . ... ...
ROW 3C : ... .. . ... ... ... : ... .. . ... ... ... : --- .. . ... : ... .. A ... : ... .. . ... ...
ROW 3D : ... .. 9 ... ... ... : ... .. C ... ... ... : ... .. . ... : ... .. 9 ... : ... .. . ... ...
ROW 3E : ... .. . ... ... ... : ... .. . ... ... ... : ... .. . ... : ... .. 7 ... : ... .. . ... ...
ROW 3F : F-1 00 F ... V03 ... : A-3 00 F ... ... ... : G-5 00 . P82 : 0-# 00 F ... : ... .. . ... ...
ROW 40 : ... .. . ... V01 ... : ... .. . ... ... ... : E-5 00 . P81 : ... .. E ... : ... .. . ... ...
ROW 41 : ... .. E ... V02 ... : ... .. . ... ... ... : C#5 00 . P82 : ... .. C ... : ... .. . ... ...
ROW 42 : ... .. . ... ... ... : ... .. . ... ... ... : B-4 00 . P7F : ... .. A ... : ... .. . ... ...
ROW 43 : ... .. D ... ... ... : ... .. E ... ... ... : A-4 00 . P7E : ... .. 9 ... : ... .. . ... ...
ROW 44 : ... .. C ... ... ... : ... .. . ... ... ... : G-4 00 . P7F : ... .. 7 ... : ... .. . ... ...
ROW 45 : ... .. . ... ... ... : ... .. . ... ... ... : G-5 00 . P82 : ... .. 5 ... : ... .. . ... ...
ROW 46 : ... .. B ... ... ... : ... .. D ... ... ... : E-5 00 . P81 : ... .. 4 ... : ... .. . ... ...
ROW 47 : ... .. A ... ... ... : ... .. . ... ... ... : C#5 00 . P82 : ... .. 2 ... : ... .. . ... ...
ROW 48 : ... .. . ... ... ... : ... .. . ... ... ... : B-4 00 . P7F : ... .. 0 ... : ... .. . ... ...
ROW 49 : ... .. 9 ... ... ... : ... .. C ... ... ... : A-4 00 . P7E : ... .. . ... : ... .. . ... ...
ROW 4A : ... .. . ... ... ... : ... .. . ... ... ... : G-4 00 . P7F : ... .. . ... : ... .. . ... ...
ROW 4B : ... .. F ... V03 ... : ... .. . ... ... ... : G-5 00 . P82 : F-# 00 F ... : ... .. . ... ...
ROW 4C : ... .. . ... V01 ... : ... .. . ... ... ... : E-5 00 . P81 : ... .. E ... : ... .. . ... ...
ROW 4D : ... .. E ... V02 ... : ... .. B ... ... ... : C#5 00 . P82 : ... .. C ... : ... .. . ... ...
ROW 4E : ... .. . ... ... ... : ... .. . ... ... ... : B-4 00 . P7F : ... .. A ... : ... .. . ... ...
ROW 4F : ... .. D ... ... ... : ... .. . ... ... ... : A-4 00 . P7E : ... .. 9 ... : ... .. . ... ...
ROW 50 : ... .. C ... ... ... : ... .. A ... ... ... : G-4 00 . P7F : ... .. 7 ... : ... .. . ... ...
ROW 51 : ... .. . ... ... ... : ... .. . ... ... ... : F-4 00 . P81 : 0-# 00 F ... : ... .. . ... ...
ROW 52 : ... .. B ... ... ... : ... .. . ... ... ... : E-4 00 . P7C : ... .. E ... : ... .. . ... ...
ROW 53 : ... .. A ... ... ... : ... .. 9 ... ... ... : D-4 00 . P81 : ... .. C ... : ... .. . ... ...
ROW 54 : ... .. . ... ... ... : ... .. . ... ... ... : --- .. . ... : ... .. A ... : ... .. . ... ...
ROW 55 : ... .. 9 ... ... ... : ... .. . ... ... ... : ... .. . ... : ... .. 9 ... : ... .. . ... ...
ROW 56 : ... .. . ... ... ... : ... .. 8 ... ... ... : ... .. . ... : ... .. 7 ... : ... .. . ... ...
ROW 57 : F-2 00 F ... V03 ... : F-4 00 F ... ... ... : G-4 00 . P80 : 4-# 00 F ... : ... .. . ... ...
ROW 58 : ... .. . ... V01 ... : ... .. . ... ... ... : F-4 00 . P82 : ... .. E ... : ... .. . ... ...
ROW 59 : ... .. E ... V02 ... : ... .. . ... ... ... : E-4 00 . P7D : ... .. C ... : ... .. . ... ...
ROW 5A : ... .. . ... ... ... : ... .. . ... ... ... : D-4 00 . P82 : ... .. A ... : ... .. . ... ...
ROW 5B : ... .. D ... ... ... : ... .. E ... ... ... : C#4 00 . P7F : ... .. 9 ... : ... .. . ... ...
ROW 5C : ... .. C ... ... ... : ... .. . ... ... ... : C-4 00 . P7C : ... .. 7 ... : ... .. . ... ...
ROW 5D : ... .. . ... ... ... : ... .. . ... ... ... : A#3 00 . P87 : ... .. 5 ... : ... .. . ... ...
ROW 5E : ... .. B ... ... ... : ... .. D ... ... ... : A-3 00 . P86 : ... .. 4 ... : ... .. . ... ...
ROW 5F : ... .. A ... ... ... : ... .. . ... ... ... : G#3 00 . ... : ... .. 2 ... : ... .. . ... ...
ROW 60 : ... .. . ... ... ... : ... .. . ... ... ... : --- .. . ... : ... .. 0 ... : ... .. . ... ...
ROW 61 : ... .. 9 ... ... ... : ... .. C ... ... ... : ... .. . ... : ... .. . ... : ... .. . ... ...
ROW 62 : ... .. . ... ... ... : ... .. . ... ... ... : ... .. . ... : ... .. . ... : ... .. . ... ...
ROW 63 : F-1 00 F ... V03 ... : F-3 00 F ... ... ... : G-5 00 . P82 : F-# 00 F ... : ... .. . ... ...
ROW 64 : ... .. . ... V01 ... : ... .. . ... ... ... : E-5 00 . P81 : ... .. E ... : ... .. . ... ...
ROW 65 : ... .. E ... V02 ... : ... .. . ... ... ... : C#5 00 . P82 : ... .. C ... : ... .. . ... ...
ROW 66 : ... .. . ... ... ... : ... .. . ... ... ... : B-4 00 . P7F : ... .. A ... : ... .. . ... ...
ROW 67 : ... .. D ... ... ... : ... .. E ... ... ... : A-4 00 . P7E : ... .. 9 ... : ... .. . ... ...
ROW 68 : ... .. C ... ... ... : ... .. . ... ... ... : G-4 00 . P7F : ... .. 7 ... : ... .. . ... ...
ROW 69 : ... .. . ... ... ... : ... .. . ... ... ... : G-5 00 . P82 : 4-# 00 F ... : ... .. . ... ...
ROW 6A : ... .. B ... ... ... : ... .. D ... ... ... : E-5 00 . P81 : ... .. E ... : ... .. . ... ...
ROW 6B : ... .. A ... ... ... : ... .. . ... ... ... : C#5 00 . P82 : ... .. C ... : ... .. . ... ...
ROW 6C : ... .. . ... ... ... : ... .. . ... ... ... : B-4 00 . P7F : ... .. A ... : ... .. . ... ...
ROW 6D : ... .. 9 ... ... ... : ... .. C ... ... ... : A-4 00 . P7E : ... .. 9 ... : ... .. . ... ...
ROW 6E : ... .. . ... ... ... : ... .. . ... ... ... : G-4 00 . P7F : ... .. 7 ... : ... .. . ... ...
ROW 6F : ... .. F ... V03 ... : F-4 00 F ... ... ... : ... .. . P80 : 0-# 00 F ... : ... .. . ... ...
ROW 70 : ... .. . ... V01 ... : ... .. . ... ... ... : F-4 00 . P82 : ... .. E ... : ... .. . ... ...
ROW 71 : ... .. E ... V02 ... : ... .. . ... ... ... : E-4 00 . P7D : ... .. C ... : ... .. . ... ...
ROW 72 : ... .. . ... ... ... : ... .. . ... ... ... : D-4 00 . P82 : ... .. A ... : ... .. . ... ...
ROW 73 : ... .. D ... ... ... : ... .. E ... ... ... : C#4 00 . P7F : ... .. 9 ... : ... .. . ... ...
ROW 74 : ... .. C ... ... ... : ... .. . ... ... ... : C-4 00 . P7C : ... .. 7 ... : ... .. . ... ...
ROW 75 : ... .. . ... ... ... : ... .. . ... ... ... : A#3 00 . P87 : ... .. 5 ... : ... .. . ... ...
ROW 76 : ... .. B ... ... ... : ... .. D ... ... ... : A-3 00 . P86 : ... .. 4 ... : ... .. . ... ...
ROW 77 : ... .. A ... ... ... : ... .. . ... ... ... : G#3 00 . ... : ... .. 2 ... : ... .. . ... ...
ROW 78 : ... .. . ... ... ... : ... .. . ... ... ... : --- .. . ... : ... .. 0 ... : ... .. . ... ...
ROW 79 : ... .. 9 ... ... ... : ... .. C ... ... ... : ... .. . ... : ... .. . ... : ... .. . ... ...
ROW 7A : ... .. . ... ... ... : ... .. . ... ... ... : ... .. . ... : ... .. . ... : ... .. . ... ...
ROW 7B : ... .. F ... V03 ... : F-3 00 F ... ... ... : G-4 00 . P80 : F-# 00 F ... : ... .. . ... ...
ROW 7C : ... .. . ... V01 ... : ... .. . ... ... ... : F-4 00 . P82 : ... .. E ... : ... .. . ... ...
ROW 7D : ... .. E ... V02 ... : ... .. . ... ... ... : E-4 00 . P7D : ... .. C ... : ... .. . ... ...
ROW 7E : ... .. . ... ... ... : ... .. . ... ... ... : D-4 00 . P82 : ... .. A ... : ... .. . ... ...
ROW 7F : ... .. D ... ... ... : ... .. E ... ... ... : C#4 00 . P7F : ... .. 9 ... : ... .. . ... ...
ROW 80 : ... .. C ... ... ... : ... .. . ... ... ... : C-4 00 . P7C : ... .. 7 ... : ... .. . ... ...
ROW 81 : ... .. . ... ... ... : ... .. . ... ... ... : A#3 00 . P87 : 0-# 00 F ... : ... .. . ... ...
ROW 82 : ... .. B ... ... ... : ... .. D ... ... ... : A-3 00 . P86 : ... .. E ... : ... .. . ... ...
ROW 83 : ... .. A ... ... ... : ... .. . ... ... ... : G#3 00 . ... : ... .. C ... : ... .. . ... ...
ROW 84 : ... .. . ... ... ... : ... .. . ... ... ... : --- .. . ... : ... .. A ... : ... .. . ... ...
ROW 85 : ... .. 9 ... ... ... : ... .. C ... ... ... : ... .. . ... : ... .. 9 ... : ... .. . ... ...
ROW 86 : ... .. . ... ... ... : ... .. . ... ... ... : ... .. . ... : ... .. 7 ... : ... .. . ... ...
ROW 87 : F-2 00 F ... V03 ... : F-4 00 F ... ... ... : G-5 00 . P82 : 4-# 00 F ... : ... .. . ... ...
ROW 88 : ... .. . ... V01 ... : ... .. . ... ... ... : E-5 00 . P81 : ... .. E ... : ... .. . ... ...
ROW 89 : ... .. E ... V02 ... : ... .. . ... ... ... : C#5 00 . P82 : ... .. C ... : ... .. . ... ...
ROW 8A : ... .. . ... ... ... : ... .. . ... ... ... : B-4 00 . P7F : ... .. A ... : ... .. . ... ...
ROW 8B : ... .. D ... ... ... : ... .. E ... ... ... : A-4 00 . P7E : ... .. 9 ... : ... .. . ... ...
ROW 8C : ... .. C ... ... ... : ... .. . ... ... ... : G-4 00 . P7F : ... .. 7 ... : ... .. . ... ...
ROW 8D : ... .. . ... ... ... : ... .. . ... ... ... : G-5 00 . P82 : ... .. 5 ... : ... .. . ... ...
ROW 8E : ... .. B ... ... ... : ... .. D ... ... ... : E-5 00 . P81 : ... .. 4 ... : ... .. . ... ...
ROW 8F : ... .. A ... ... ... : ... .. . ... ... ... : C#5 00 . P82 : ... .. 2 ... : ... .. . ... ...
ROW 90 : ... .. . ... ... ... : ... .. . ... ... ... : B-4 00 . P7F : ... .. 0 ... : ... .. . ... ...
ROW 91 : ... .. 9 ... ... ... : ... .. C ... ... ... : A-4 00 . P7E : ... .. . ... : ... .. . ... ...
ROW 92 : ... .. . ... ... ... : ... .. . ... ... ... : G-4 00 . P7F : ... .. . ... : ... .. . ... ...
ROW 93 : F-1 00 F ... V03 ... : F-3 00 F ... ... ... : G-5 00 . P82 : F-# 00 F ... : ... .. . ... ...
ROW 94 : ... .. . ... V01 ... : ... .. . ... ... ... : E-5 00 . P81 : ... .. E ... : ... .. . ... ...
ROW 95 : ... .. E ... V02 ... : ... .. . ... ... ... : C#5 00 . P82 : ... .. C ... : ... .. . ... ...
ROW 96 : ... .. . ... ... ... : ... .. . ... ... ... : B-4 00 . P7F : ... .. A ... : ... .. . ... ...
ROW 97 : ... .. D ... ... ... : ... .. E ... ... ... : A-4 00 . P7E : ... .. 9 ... : ... .. . ... ...
ROW 98 : ... .. C ... ... ... : ... .. . ... ... ... : G-4 00 . P7F : ... .. 7 ... : ... .. . ... ...
ROW 99 : ... .. . ... ... ... : ... .. . ... ... ... : F-4 00 . P81 : 4-# 00 F ... : ... .. . ... ...
ROW 9A : ... .. B ... ... ... : ... .. D ... ... ... : E-4 00 . P7C : ... .. E ... : ... .. . ... ...
ROW 9B : ... .. A ... ... ... : ... .. . ... ... ... : D-4 00 . P81 : ... .. C ... : ... .. . ... ...
ROW 9C : ... .. . ... ... ... : ... .. . ... ... ... : --- .. . ... : ... .. A ... : ... .. . ... ...
ROW 9D : ... .. 9 ... ... ... : ... .. C ... ... ... : ... .. . ... : ... .. 9 ... : ... .. . ... ...
ROW 9E : ... .. . ... ... ... : ... .. . ... ... ... : ... .. . ... : ... .. 7 ... : ... .. . ... ...
ROW 9F : C-2 00 F P7E V03 ... : C-4 00 F ... ... ... : G-5 00 . P82 : 0-# 00 F ... : ... .. . ... ...
ROW A0 : ... .. . ... V01 ... : ... .. . ... ... ... : E-5 00 . P81 : ... .. E ... : ... .. . ... ...
ROW A1 : ... .. E ... V02 ... : ... .. . ... ... ... : C#5 00 . P82 : ... .. C ... : ... .. . ... ...
ROW A2 : ... .. . ... ... ... : ... .. . ... ... ... : B-4 00 . P7F : ... .. A ... : ... .. . ... ...
ROW A3 : ... .. D ... ... ... : ... .. E ... ... ... : A-4 00 . P7E : ... .. 9 ... : ... .. . ... ...
ROW A4 : ... .. C ... ... ... : ... .. . ... ... ... : G-4 00 . P7F : ... .. 7 ... : ... .. . ... ...
ROW A5 : ... .. . ... ... ... : ... .. . ... ... ... : F-4 00 . P81 : ... .. 5 ... : ... .. . ... ...
ROW A6 : ... .. B ... ... ... : ... .. D ... ... ... : E-4 00 . P7C : ... .. 4 ... : ... .. . ... ...
ROW A7 : ... .. A ... ... ... : ... .. . ... ... ... : D-4 00 . P81 : ... .. 2 ... : ... .. . ... ...
ROW A8 : ... .. . ... ... ... : ... .. . ... ... ... : --- .. . ... : ... .. 0 ... : ... .. . ... ...
ROW A9 : ... .. 9 ... ... ... : ... .. C ... ... ... : ... .. . ... : ... .. . ... : ... .. . ... ...
ROW AA : ... .. . ... ... ... : ... .. . ... ... ... : ... .. . ... : ... .. . ... : ... .. . ... ...
ROW AB : ... .. F ... V03 ... : D-4 00 F ... ... ... : G-4 00 . P80 : F-# 00 F ... : ... .. . ... ...
ROW AC : ... .. . ... V01 ... : ... .. . ... ... ... : F-4 00 . P82 : ... .. E ... : ... .. . ... ...
ROW AD : ... .. E ... V02 ... : ... .. . ... ... ... : E-4 00 . P7D : ... .. C ... : ... .. . ... ...
ROW AE : ... .. . ... ... ... : ... .. . ... ... ... : D-4 00 . P82 : ... .. A ... : ... .. . ... ...
ROW AF : ... .. D ... ... ... : ... .. E ... ... ... : C#4 00 . P7F : ... .. 9 ... : ... .. . ... ...
ROW B0 : ... .. C ... ... ... : ... .. . ... ... ... : C-4 00 . P7C : ... .. 7 ... : ... .. . ... ...
ROW B1 : ... .. . ... ... ... : ... .. . ... ... ... : G-4 00 . P80 : 0-# 00 F ... : ... .. . ... ...
ROW B2 : ... .. B ... ... ... : ... .. D ... ... ... : F-4 00 . P82 : ... .. E ... : ... .. . ... ...
ROW B3 : ... .. A ... ... ... : ... .. . ... ... ... : E-4 00 . P7D : ... .. C ... : ... .. . ... ...
ROW B4 : ... .. . ... ... ... : ... .. . ... ... ... : D-4 00 . P82 : ... .. A ... : ... .. . ... ...
ROW B5 : ... .. 9 ... ... ... : ... .. C ... ... ... : C#4 00 . P7F : ... .. 9 ... : ... .. . ... ...
ROW B6 : ... .. . ... ... ... : ... .. . ... ... ... : C-4 00 . P7C : ... .. 7 ... : ... .. . ... ...
ROW B7 : C-3 00 F P7F V03 ... : E-4 00 F ... ... ... : G-4 00 . P80 : 4-# 00 F ... : ... .. . ... ...
ROW B8 : ... .. . ... V01 ... : ... .. . ... ... ... : F-4 00 . P82 : ... .. E ... : ... .. . ... ...
ROW B9 : ... .. E ... V02 ... : ... .. . ... ... ... : E-4 00 . P7D : ... .. C ... : ... .. . ... ...
ROW BA : ... .. . ... ... ... : ... .. . ... ... ... : D-4 00 . P82 : ... .. A ... : ... .. . ... ...
ROW BB : ... .. D ... ... ... : ... .. E ... ... ... : C#4 00 . P7F : ... .. 9 ... : ... .. . ... ...
ROW BC : ... .. C ... ... ... : ... .. . ... ... ... : C-4 00 . P7C : ... .. 7 ... : ... .. . ... ...
ROW BD : ... .. . ... ... ... : ... .. . ... ... ... : A#3 00 . P87 : ... .. 5 ... : ... .. . ... ...
ROW BE : ... .. B ... ... ... : ... .. D ... ... ... : A-3 00 . P86 : ... .. 4 ... : ... .. . ... ...
ROW BF : ... .. A ... ... ... : ... .. . ... ... ... : G#3 00 . ... : ... .. 2 ... : ... .. . ... ...
ROW C0 : ... .. . ... ... ... : ... .. . ... ... ... : --- .. . ... : ... .. 0 ... : ... .. . ... ...
ROW C1 : ... .. 9 ... ... ... : ... .. C ... ... ... : ... .. . ... : ... .. . ... : ... .. . ... ...
ROW C2 : ... .. . ... ... ... : ... .. . ... ... ... : ... .. . ... : ... .. . ... : ... .. . ... ...
ROW C3 : C-2 00 F P7E V03 ... : F-4 00 F ... ... ... : G-4 00 . P80 : F-# 00 F ... : ... .. . ... ...
ROW C4 : ... .. . ... V01 ... : ... .. . ... ... ... : F-4 00 . P82 : ... .. E ... : ... .. . ... ...
ROW C5 : ... .. E ... V02 ... : ... .. . ... ... ... : E-4 00 . P7D : ... .. C ... : ... .. . ... ...
ROW C6 : ... .. . ... ... ... : ... .. . ... ... ... : D-4 00 . P82 : ... .. A ... : ... .. . ... ...
ROW C7 : ... .. D ... ... ... : ... .. E ... ... ... : C#4 00 . P7F : ... .. 9 ... : ... .. . ... ...
ROW C8 : ... .. C ... ... ... : ... .. . ... ... ... : C-4 00 . P7C : ... .. 7 ... : ... .. . ... ...
ROW C9 : ... .. . ... ... ... : ... .. . ... ... ... : A#3 00 . P87 : 4-# 00 F ... : ... .. . ... ...
ROW CA : ... .. B ... ... ... : ... .. D ... ... ... : A-3 00 . P86 : ... .. E ... : ... .. . ... ...
ROW CB : ... .. A ... ... ... : ... .. . ... ... ... : G#3 00 . ... : ... .. C ... : ... .. . ... ...
ROW CC : ... .. . ... ... ... : ... .. . ... ... ... : --- .. . ... : ... .. A ... : ... .. . ... ...
ROW CD : ... .. 9 ... ... ... : ... .. C ... ... ... : ... .. . ... : ... .. 9 ... : ... .. . ... ...
ROW CE : ... .. . ... ... ... : ... .. . ... ... ... : ... .. . ... : ... .. 7 ... : ... .. . ... ...
ROW CF : G-1 00 F P80 V03 ... : E-4 00 F ... ... ... : G-5 00 . P82 : 0-# 00 F ... : ... .. . ... ...
ROW D0 : ... .. . ... V01 ... : ... .. . ... ... ... : E-5 00 . P81 : ... .. E ... : ... .. . ... ...
ROW D1 : ... .. E ... V02 ... : ... .. . ... ... ... : C#5 00 . P82 : ... .. C ... : ... .. . ... ...
ROW D2 : ... .. . ... ... ... : ... .. . ... ... ... : B-4 00 . P7F : ... .. A ... : ... .. . ... ...
ROW D3 : ... .. D ... ... ... : ... .. E ... ... ... : A-4 00 . P7E : ... .. 9 ... : ... .. . ... ...
ROW D4 : ... .. C ... ... ... : ... .. . ... ... ... : G-4 00 . P7F : ... .. 7 ... : ... .. . ... ...
ROW D5 : ... .. . ... ... ... : ... .. . ... ... ... : F-4 00 . P81 : ... .. 5 ... : ... .. . ... ...
ROW D6 : ... .. B ... ... ... : ... .. D ... ... ... : E-4 00 . P7C : ... .. 4 ... : ... .. . ... ...
ROW D7 : ... .. A ... ... ... : ... .. . ... ... ... : D-4 00 . P81 : ... .. 2 ... : ... .. . ... ...
ROW D8 : ... .. . ... ... ... : ... .. . ... ... ... : --- .. . ... : ... .. 0 ... : ... .. . ... ...
ROW D9 : ... .. 9 ... ... ... : ... .. C ... ... ... : ... .. . ... : ... .. . ... : ... .. . ... ...
ROW DA : ... .. . ... ... ... : ... .. . ... ... ... : ... .. . ... : ... .. . ... : ... .. . ... ...
ROW DB : ... .. F ... V03 ... : D-4 00 F ... ... ... : G-4 00 . P80 : F-# 00 F ... : ... .. . ... ...
ROW DC : ... .. . ... V01 ... : ... .. . ... ... ... : F-4 00 . P82 : ... .. E ... : ... .. . ... ...
ROW DD : ... .. E ... V02 ... : ... .. . ... ... ... : E-4 00 . P7D : ... .. C ... : ... .. . ... ...
ROW DE : ... .. . ... ... ... : ... .. . ... ... ... : D-4 00 . P82 : ... .. A ... : ... .. . ... ...
ROW DF : ... .. D ... ... ... : ... .. E ... ... ... : C#4 00 . P7F : ... .. 9 ... : ... .. . ... ...
ROW E0 : ... .. C ... ... ... : ... .. . ... ... ... : C-4 00 . P7C : ... .. 7 ... : ... .. . ... ...
ROW E1 : ... .. . ... ... ... : ... .. . ... ... ... : A#3 00 . P87 : 0-# 00 F ... : ... .. . ... ...
ROW E2 : ... .. B ... ... ... : ... .. D ... ... ... : A-3 00 . P86 : ... .. E ... : ... .. . ... ...
ROW E3 : ... .. A ... ... ... : ... .. . ... ... ... : G#3 00 . ... : ... .. C ... : ... .. . ... ...
ROW E4 : ... .. . ... ... ... : ... .. . ... ... ... : --- .. . ... : ... .. A ... : ... .. . ... ...
ROW E5 : ... .. 9 ... ... ... : ... .. C ... ... ... : ... .. . ... : ... .. 9 ... : ... .. . ... ...
ROW E6 : ... .. . ... ... ... : ... .. . ... ... ... : ... .. . ... : ... .. 7 ... : ... .. . ... ...
ROW E7 : G-2 00 F ... V03 ... : C-4 00 F ... ... ... : G-5 00 . P82 : 4-# 00 F ... : ... .. . ... ...
ROW E8 : ... .. . ... V01 ... : ... .. . ... ... ... : E-5 00 . P81 : ... .. E ... : ... .. . ... ...
ROW E9 : ... .. E ... V02 ... : ... .. . ... ... ... : C#5 00 . P82 : ... .. C ... : ... .. . ... ...
ROW EA : ... .. . ... ... ... : ... .. . ... ... ... : B-4 00 . P7F : ... .. A ... : ... .. . ... ...
ROW EB : ... .. D ... ... ... : ... .. E ... ... ... : A-4 00 . P7E : ... .. 9 ... : ... .. . ... ...
ROW EC : ... .. C ... ... ... : ... .. . ... ... ... : G-4 00 . P7F : ... .. 7 ... : ... .. . ... ...
ROW ED : ... .. . ... ... ... : ... .. . ... ... ... : F-4 00 . P81 : ... .. 5 ... : ... .. . ... ...
ROW EE : ... .. B ... ... ... : ... .. D ... ... ... : E-4 00 . P7C : ... .. 4 ... : ... .. . ... ...
ROW EF : ... .. A ... ... ... : ... .. . ... ... ... : D-4 00 . P81 : ... .. 2 ... : ... .. . ... ...
ROW F0 : ... .. . ... ... ... : ... .. . ... ... ... : --- .. . ... : ... .. 0 ... : ... .. . ... ...
ROW F1 : ... .. 9 ... ... ... : ... .. C ... ... ... : ... .. . ... : ... .. . ... : ... .. . ... ...
ROW F2 : ... .. . ... ... ... : ... .. . ... ... ... : ... .. . ... : ... .. . ... : ... .. . ... ...
ROW F3 : G-1 00 F ... V03 ... : B-3 00 F ... ... ... : G-4 00 . P80 : F-# 00 F ... : ... .. . ... ...
ROW F4 : ... .. . ... V01 ... : ... .. . ... ... ... : F-4 00 . P82 : ... .. E ... : ... .. . ... ...
ROW F5 : ... .. E ... V02 ... : ... .. . ... ... ... : E-4 00 . P7D : ... .. C ... : ... .. . ... ...
ROW F6 : ... .. . ... ... ... : ... .. . ... ... ... : D-4 00 . P82 : ... .. A ... : ... .. . ... ...
ROW F7 : ... .. D ... ... ... : ... .. E ... ... ... : C#4 00 . P7F : ... .. 9 ... : ... .. . ... ...
ROW F8 : ... .. C ... ... ... : ... .. . ... ... ... : C-4 00 . P7C : ... .. 7 ... : ... .. . ... ...
ROW F9 : ... .. . ... ... ... : ... .. . ... ... ... : G-4 00 . P80 : 4-# 00 F ... : ... .. . ... ...
ROW FA : ... .. B ... ... ... : ... .. D ... ... ... : F-4 00 . P82 : ... .. E ... : ... .. . ... ...
ROW FB : ... .. A ... ... ... : ... .. . ... ... ... : E-4 00 . P7D : ... .. C ... : ... .. . ... ...
ROW FC : ... .. . ... ... ... : ... .. . ... ... ... : D-4 00 . P82 : ... .. A ... : ... .. . ... ...
ROW FD : ... .. 9 ... ... ... : ... .. C ... ... ... : C#4 00 . P7F : ... .. 9 ... : ... .. . ... ...
ROW FE : ... .. . ... ... ... : ... .. . ... ... ... : C-4 00 . P7C : ... .. 7 ... : ... .. . ... ...
ROW FF : A-1 00 F ... V03 ... : A-3 00 F ... ... ... : D#4 00 . P84 : 0-# 00 F V01 : ... .. . ... ...

PATTERN 0F
ROW 00 : ... .. . ... V01 ... : ... .. . ... ... ... : B-3 00 . P82 : ... .. . ... : ... .. . ... ...
ROW 01 : ... .. E ... V02 ... : ... .. . ... ... ... : G#3 00 . P7D : ... .. E V00 : ... .. . ... ...
ROW 02 : ... .. . ... ... ... : ... .. . ... ... ... : F-3 00 . P80 : ... .. . ... : ... .. . ... ...
ROW 03 : ... .. D ... ... ... : ... .. E ... ... ... : D#3 00 . P78 : ... .. D ... : ... .. . ... ...
ROW 04 : ... .. C ... ... ... : ... .. . ... ... ... : C-3 00 . P8C : ... .. C ... : ... .. . ... ...
ROW 05 : ... .. . ... ... ... : ... .. . ... ... ... : B-2 00 . P75 : ... .. . ... : ... .. . ... ...
ROW 06 : ... .. B ... ... ... : ... .. D ... ... ... : A-2 00 . P7C : ... .. B ... : ... .. . ... ...
ROW 07 : ... .. A ... ... ... : ... .. . ... ... ... : G-2 00 . P8B : ... .. A ... : ... .. . ... ...
ROW 08 : ... .. . ... ... ... : ... .. . ... ... ... : --- .. . ... : ... .. . ... : ... .. . ... ...
ROW 09 : ... .. 9 ... ... ... : ... .. C ... ... ... : ... .. . ... : ... .. 9 ... : ... .. . ... ...
ROW 0A : ... .. . ... ... ... : ... .. . ... ... ... : ... .. . ... : ... .. . ... : ... .. . ... ...
ROW 0B : ... .. F ... V03 ... : ... .. . ... ... ... : A-4 00 . P7F : ... .. 8 ... : ... .. . ... ...
ROW 0C : ... .. . ... V01 ... : ... .. . ... ... ... : ... .. . ... : ... .. 7 ... : ... .. . ... ...
ROW 0D : ... .. E ... V02 ... : ... .. B ... ... ... : ... .. . ... : ... .. . ... : ... .. . ... ...
ROW 0E : ... .. . ... ... ... : ... .. . ... ... ... : ... .. . ... : ... .. 6 ... : ... .. . ... ...
ROW 0F : ... .. D ... ... ... : ... .. . ... ... ... : ... .. . ... : ... .. 5 ... : ... .. . ... ...
ROW 10 : ... .. C ... ... ... : ... .. A ... ... ... : ... .. . ... : ... .. . ... : ... .. . ... ...
ROW 11 : ... .. . ... ... ... : ... .. . ... ... ... : ... .. . ... : ... .. 4 ... : ... .. . ... ...
ROW 12 : ... .. B ... ... ... : ... .. . ... ... ... : ... .. . ... : ... .. . ... : ... .. . ... ...
ROW 13 : ... .. A ... ... ... : ... .. 9 ... ... ... : ... .. . ... : ... .. 3 ... : ... .. . ... ...
ROW 14 : ... .. . ... ... ... : ... .. . ... ... ... : --- .. . ... : ... .. 2 ... : ... .. . ... ...
ROW 15 : ... .. 9 ... ... ... : ... .. . ... ... ... : ... .. . ... : ... .. . ... : ... .. . ... ...
ROW 16 : ... .. . ... ... ... : ... .. 8 ... ... ... : ... .. . ... : ... .. 1 ... : ... .. . ... ...
ROW 17 : A-2 00 F P7F V03 ... : ... .. . ... ... ... : D#4 00 . P84 : 4-# 00 F V01 : ... .. . ... ...
ROW 18 : ... .. . ... V01 ... : ... .. . ... ... ... : B-3 00 . P82 : ... .. . ... : ... .. . ... ...
ROW 19 : ... .. E ... V02 ... : ... .. . ... ... ... : G#3 00 . P7D : ... .. E V00 : ... .. . ... ...
ROW 1A : ... .. . ... ... ... : ... .. 7 ... ... ... : F-3 00 . P80 : ... .. . ... : ... .. . ... ...
ROW 1B : ... .. D ... ... ... : ... .. . ... ... ... : D#3 00 . P78 : ... .. D ... : ... .. . ... ...
ROW 1C : ... .. C ... ... ... : ... .. . ... ... ... : C-3 00 . P8C : ... .. C ... : ... .. . ... ...
ROW 1D : ... .. . ... ... ... : ... .. 6 ... ... ... : B-2 00 . P75 : ... .. . ... : ... .. . ... ...
ROW 1E : ... .. B ... ... ... : ... .. . ... ... ... : A-2 00 . P7C : ... .. B ... : ... .. . ... ...
ROW 1F : ... .. A ... ... ... : ... .. . ... ... ... : G-2 00 . P8B : ... .. A ... : ... .. . ... ...
ROW 20 : ... .. . ... ... ... : ... .. 5 ... ... ... : --- .. . ... : ... .. . ... : ... .. . ... ...
ROW 21 : ... .. 9 ... ... ... : ... .. . ... ... ... : ... .. . ... : ... .. 9 ... : ... .. . ... ...
ROW 22 : ... .. . ... ... ... : ... .. . ... ... ... : ... .. . ... : ... .. . ... : ... .. . ... ...
ROW 23 : A-1 00 F P80 V03 ... : ... .. 4 ... ... ... : A-4 00 . P7F : ... .. 8 ... : ... .. . ... ...
ROW 24 : ... .. . ... V01 ... : ... .. . ... ... ... : ... .. . ... : ... .. 7 ... : ... .. . ... ...
ROW 25 : ... .. E ... V02 ... : ... .. . ... ... ... : ... .. . ... : ... .. . ... : ... .. . ... ...
ROW 26 : ... .. . ... ... ... : ... .. . ... ... ... : ... .. . ... : ... .. 6 ... : ... .. . ... ...
ROW 27 : ... .. D ... ... ... : ... .. 3 ... ... ... : ... .. . ... : ... .. 5 ... : ... .. . ... ...
ROW 28 : ... .. C ... ... ... : ... .. . ... ... ... : ... .. . ... : ... .. . ... : ... .. . ... ...
ROW 29 : ... .. . ... ... ... : ... .. . ... ... ... : ... .. . ... : ... .. 4 ... : ... .. . ... ...
ROW 2A : ... .. B ... ... ... : ... .. 2 ... ... ... : ... .. . ... : ... .. . ... : ... .. . ... ...
ROW 2B : ... .. A ... ... ... : ... .. . ... ... ... : ... .. . ... : ... .. 3 ... : ... .. . ... ...
ROW 2C : ... .. . ... ... ... : ... .. . ... ... ... : --- .. . ... : ... .. 2 ... : ... .. . ... ...
ROW 2D : ... .. 9 ... ... ... : ... .. 1 ... ... ... : ... .. . ... : ... .. . ... : ... .. . ... ...
ROW 2E : ... .. . ... ... ... : ... .. . ... ... ... : ... .. . ... : ... .. 1 ... : ... .. . ... ...
ROW 2F : ... .. F ... V03 ... : ... .. . ... ... ... : D#4 00 . P84 : 0-# 00 F V01 : ... .. . ... ...
ROW 30 : ... .. . ... V01 ... : ... .. 0 ... ... ... : B-3 00 . P82 : ... .. . ... : ... .. . ... ...
ROW 31 : ... .. E ... V02 ... : ... .. . ... ... ... : G#3 00 . P7D : ... .. E V00 : ... .. . ... ...
ROW 32 : ... .. . ... ... ... : ... .. . ... ... ... : F-3 00 . P80 : ... .. . ... : ... .. . ... ...
ROW 33 : ... .. D ... ... ... : ... .. . ... ... ... : D#3 00 . P78 : ... .. D ... : ... .. . ... ...
ROW 34 : ... .. C ... ... ... : ... .. . ... ... ... : C-3 00 . P8C : ... .. C ... : ... .. . ... ...
ROW 35 : ... .. . ... ... ... : ... .. . ... ... ... : B-2 00 . P75 : ... .. . ... : ... .. . ... ...
ROW 36 : ... .. B ... ... ... : ... .. . ... ... ... : A-2 00 . P7C : ... .. B ... : ... .. . ... ...
ROW 37 : ... .. A ... ... ... : ... .. . ... ... ... : G-2 00 . P8B : ... .. A ... : ... .. . ... ...
ROW 38 : ... .. . ... ... ... : ... .. . ... ... ... : --- .. . ... : ... .. . ... : ... .. . ... ...
ROW 39 : ... .. 9 ... ... ... : ... .. . ... ... ... : ... .. . ... : ... .. 9 ... : ... .. . ... ...
ROW 3A : ... .. . ... ... ... : ... .. . ... ... ... : ... .. . ... : ... .. . ... : ... .. . ... ...
ROW 3B : ... .. F ... V03 ... : ... .. . ... ... ... : A-4 00 . P7F : ... .. 8 ... : ... .. . ... ...
ROW 3C : ... .. . ... V01 ... : ... .. . ... ... ... : ... .. . ... : ... .. 7 ... : ... .. . ... ...
ROW 3D : ... .. E ... V02 ... : ... .. . ... ... ... : ... .. . ... : ... .. . ... : ... .. . ... ...
ROW 3E : ... .. . ... ... ... : ... .. . ... ... ... : ... .. . ... : ... .. 6 ... : ... .. . ... ...
ROW 3F : ... .. D ... ... ... : ... .. . ... ... ... : ... .. . ... : ... .. 5 ... : ... .. . ... ...
ROW 40 : ... .. C ... ... ... : ... .. . ... ... ... : ... .. . ... : ... .. . ... : ... .. . ... ...
ROW 41 : ... .. . ... ... ... : ... .. . ... ... ... : ... .. . ... : ... .. 4 ... : ... .. . ... ...
ROW 42 : ... .. B ... ... ... : ... .. . ... ... ... : ... .. . ... : ... .. . ... : ... .. . ... ...
ROW 43 : ... .. A ... ... ... : ... .. . ... ... ... : ... .. . ... : ... .. 3 ... : ... .. . ... ...
ROW 44 : ... .. . ... ... ... : ... .. . ... ... ... : --- .. . ... : ... .. 2 ... : ... .. . ... ...
ROW 45 : ... .. 9 ... ... ... : ... .. . ... ... ... : ... .. . ... : ... .. . ... : ... .. . ... ...
ROW 46 : ... .. . ... ... ... : ... .. . ... ... ... : ... .. . ... : ... .. 1 ... : ... .. . ... ...
ROW 47 : A-2 00 F P7F V03 ... : A-3 00 F P7F ... ... : D#4 00 . P84 : 4-# 00 F V01 : ... .. . ... ...
ROW 48 : ... .. . ... V01 ... : ... .. . ... ... ... : B-3 00 . P82 : ... .. . ... : ... .. . ... ...
ROW 49 : ... .. E ... V02 ... : ... .. . ... ... ... : G#3 00 . P7D : ... .. E V00 : ... .. . ... ...
ROW 4A : ... .. . ... ... ... : ... .. . ... ... ... : F-3 00 . P80 : ... .. . ... : ... .. . ... ...
ROW 4B : ... .. D ... ... ... : ... .. E ... ... ... : D#3 00 . P78 : ... .. D ... : ... .. . ... ...
ROW 4C : ... .. C ... ... ... : ... .. . ... ... ... : C-3 00 . P8C : ... .. C ... : ... .. . ... ...
ROW 4D : ... .. . ... ... ... : ... .. . ... ... ... : B-2 00 . P75 : ... .. . ... : ... .. . ... ...
ROW 4E : ... .. B ... ... ... : ... .. D ... ... ... : A-2 00 . P7C : ... .. B ... : ... .. . ... ...
ROW 4F : ... .. A ... ... ... : ... .. . ... ... ... : G-2 00 . P8B : ... .. A ... : ... .. . ... ...
ROW 50 : ... .. . ... ... ... : ... .. . ... ... ... : --- .. . ... : ... .. . ... : ... .. . ... ...
ROW 51 : ... .. 9 ... ... ... : ... .. C ... ... ... : ... .. . ... : ... .. 9 ... : ... .. . ... ...
ROW 52 : ... .. . ... ... ... : ... .. . ... ... ... : ... .. . ... : ... .. . ... : ... .. . ... ...
ROW 53 : A-1 00 F P80 V03 ... : B-3 00 F ... ... ... : A-4 00 . P7F : ... .. 8 ... : ... .. . ... ...
ROW 54 : ... .. . ... V01 ... : ... .. . ... ... ... : ... .. . ... : ... .. 7 ... : ... .. . ... ...
ROW 55 : ... .. E ... V02 ... : ... .. . ... ... ... : ... .. . ... : ... .. . ... : ... .. . ... ...
ROW 56 : ... .. . ... ... ... : ... .. . ... ... ... : ... .. . ... : ... .. 6 ... : ... .. . ... ...
ROW 57 : ... .. D ... ... ... : ... .. E ... ... ... : ... .. . ... : ... .. 5 ... : ... .. . ... ...
ROW 58 : ... .. C ... ... ... : ... .. . ... ... ... : ... .. . ... : ... .. . ... : ... .. . ... ...
ROW 59 : ... .. . ... ... ... : ... .. . ... ... ... : ... .. . ... : ... .. 4 ... : ... .. . ... ...
ROW 5A : ... .. B ... ... ... : ... .. D ... ... ... : ... .. . ... : ... .. . ... : ... .. . ... ...
ROW 5B : ... .. A ... ... ... : ... .. . ... ... ... : ... .. . ... : ... .. 3 ... : ... .. . ... ...
ROW 5C : ... .. . ... ... ... : ... .. . ... ... ... : --- .. . ... : ... .. 2 ... : ... .. . ... ...
ROW 5D : ... .. 9 ... ... ... : ... .. C ... ... ... : ... .. . ... : ... .. . ... : ... .. . ... ...
ROW 5E : ... .. . ... ... ... : ... .. . ... ... ... : ... .. . ... : ... .. 1 ... : ... .. . ... ...
ROW 5F : C-2 00 F P7E V03 ... : C-4 00 F ... ... ... : D#4 00 . P84 : 0-# 00 F V01 : ... .. . ... ...
ROW 60 : ... .. . ... V01 ... : ... .. . ... ... ... : B-3 00 . P82 : ... .. . ... : ... .. . ... ...
ROW 61 : ... .. E ... V02 ... : ... .. . ... ... ... : G#3 00 . P7D : ... .. E V00 : ... .. . ... ...
ROW 62 : ... .. . ... ... ... : ... .. . ... ... ... : F-3 00 . P80 : ... .. . ... : ... .. . ... ...
ROW 63 : ... .. D ... ... ... : ... .. E ... ... ... : D#3 00 . P78 : ... .. D ... : ... .. . ... ...
ROW 64 : ... .. C ... ... ... : ... .. . ... ... ... : C-3 00 . P8C : ... .. C ... : ... .. . ... ...
ROW 65 : ... .. . ... ... ... : ... .. . ... ... ... : B-2 00 . P75 : ... .. . ... : ... .. . ... ...
ROW 66 : ... .. B ... ... ... : ... .. D ... ... ... : A-2 00 . P7C : ... .. B ... : ... .. . ... ...
ROW 67 : ... .. A ... ... ... : ... .. . ... ... ... : G-2 00 . P8B : ... .. A ... : ... .. . ... ...
ROW 68 : ... .. . ... ... ... : ... .. . ... ... ... : --- .. . ... : ... .. . ... : ... .. . ... ...
ROW 69 : ... .. 9 ... ... ... : ... .. C ... ... ... : ... .. . ... : ... .. 9 ... : ... .. . ... ...
ROW 6A : ... .. . ... ... ... : ... .. . ... ... ... : ... .. . ... : ... .. . ... : ... .. . ... ...
ROW 6B : ... .. F ... V03 ... : ... .. . ... ... ... : C-5 00 . P7F : ... .. 8 ... : ... .. . ... ...
ROW 6C : ... .. . ... V01 ... : ... .. . ... ... ... : ... .. . ... : ... .. 7 ... : ... .. . ... ...
ROW 6D : ... .. E ... V02 ... : ... .. B ... ... ... : ... .. . ... : ... .. . ... : ... .. . ... ...
ROW 6E : ... .. . ... ... ... : ... .. . ... ... ... : ... .. . ... : ... .. 6 ... : ... .. . ... ...
ROW 6F : ... .. D ... ... ... : ... .. . ... ... ... : ... .. . ... : ... .. 5 ... : ... .. . ... ...
ROW 70 : ... .. C ... ... ... : ... .. A ... ... ... : ... .. . ... : ... .. . ... : ... .. . ... ...
ROW 71 : ... .. . ... ... ... : ... .. . ... ... ... : ... .. . ... : ... .. 4 ... : ... .. . ... ...
ROW 72 : ... .. B ... ... ... : ... .. . ... ... ... : ... .. . ... : ... .. . ... : ... .. . ... ...
ROW 73 : ... .. A ... ... ... : ... .. 9 ... ... ... : ... .. . ... : ... .. 3 ... : ... .. . ... ...
ROW 74 : ... .. . ... ... ... : ... .. . ... ... ... : --- .. . ... : ... .. 2 ... : ... .. . ... ...
ROW 75 : ... .. 9 ... ... ... : ... .. . ... ... ... : ... .. . ... : ... .. . ... : ... .. . ... ...
ROW 76 : ... .. . ... ... ... : ... .. 8 ... ... ... : ... .. . ... : ... .. 1 ... : ... .. . ... ...
ROW 77 : C-3 00 F P7F V03 ... : ... .. . ... ... ... : D#4 00 . P84 : 4-# 00 F V01 : ... .. . ... ...
ROW 78 : ... .. . ... V01 ... : ... .. . ... ... ... : B-3 00 . P82 : ... .. . ... : ... .. . ... ...
ROW 79 : ... .. E ... V02 ... : ... .. . ... ... ... : G#3 00 . P7D : ... .. E V00 : ... .. . ... ...
ROW 7A : ... .. . ... ... ... : ... .. 7 ... ... ... : F-3 00 . P80 : ... .. . ... : ... .. . ... ...
ROW 7B : ... .. D ... ... ... : ... .. . ... ... ... : D#3 00 . P78 : ... .. D ... : ... .. . ... ...
ROW 7C : ... .. C ... ... ... : ... .. . ... ... ... : C-3 00 . P8C : ... .. C ... : ... .. . ... ...
ROW 7D : ... .. . ... ... ... : ... .. 6 ... ... ... : B-2 00 . P75 : ... .. . ... : ... .. . ... ...
ROW 7E : ... .. B ... ... ... : ... .. . ... ... ... : A-2 00 . P7C : ... .. B ... : ... .. . ... ...
ROW 7F : ... .. A ... ... ... : ... .. . ... ... ... : G-2 00 . P8B : ... .. A ... : ... .. . ... ...
ROW 80 : ... .. . ... ... ... : ... .. 5 ... ... ... : --- .. . ... : ... .. . ... : ... .. . ... ...
ROW 81 : ... .. 9 ... ... ... : ... .. . ... ... ... : ... .. . ... : ... .. 9 ... : ... .. . ... ...
ROW 82 : ... .. . ... ... ... : ... .. . ... ... ... : ... .. . ... : ... .. . ... : ... .. . ... ...
ROW 83 : C-2 00 F P7E V03 ... : E-4 00 F ... ... ... : C-5 00 . P7F : ... .. 8 ... : ... .. . ... ...
ROW 84 : ... .. . ... V01 ... : ... .. . ... ... ... : ... .. . ... : ... .. 7 ... : ... .. . ... ...
ROW 85 : ... .. E ... V02 ... : ... .. . ... ... ... : ... .. . ... : ... .. . ... : ... .. . ... ...
ROW 86 : ... .. . ... ... ... : ... .. . ... ... ... : ... .. . ... : ... .. 6 ... : ... .. . ... ...
ROW 87 : ... .. D ... ... ... : ... .. E ... ... ... : ... .. . ... : ... .. 5 ... : ... .. . ... ...
ROW 88 : ... .. C ... ... ... : ... .. . ... ... ... : ... .. . ... : ... .. . ... : ... .. . ... ...
ROW 89 : ... .. . ... ... ... : ... .. . ... ... ... : ... .. . ... : ... .. 4 ... : ... .. . ... ...
ROW 8A : ... .. B ... ... ... : ... .. D ... ... ... : ... .. . ... : ... .. . ... : ... .. . ... ...
ROW 8B : ... .. A ... ... ... : ... .. . ... ... ... : ... .. . ... : ... .. 3 ... : ... .. . ... ...
ROW 8C : ... .. . ... ... ... : ... .. . ... ... ... : --- .. . ... : ... .. 2 ... : ... .. . ... ...
ROW 8D : ... .. 9 ... ... ... : ... .. C ... ... ... : ... .. . ... : ... .. . ... : ... .. . ... ...
ROW 8E : ... .. . ... ... ... : ... .. . ... ... ... : ... .. . ... : ... .. 1 ... : ... .. . ... ...
ROW 8F : G-1 00 F P80 V03 ... : D-4 00 F ... ... ... : D#4 00 . P84 : 0-# 00 F V01 : ... .. . ... ...
ROW 90 : ... .. . ... V01 ... : ... .. . ... ... ... : B-3 00 . P82 : ... .. . ... : ... .. . ... ...
ROW 91 : ... .. E ... V02 ... : ... .. . ... ... ... : G#3 00 . P7D : ... .. E V00 : ... .. . ... ...
ROW 92 : ... .. . ... ... ... : ... .. . ... ... ... : F-3 00 . P80 : ... .. . ... : ... .. . ... ...
ROW 93 : ... .. D ... ... ... : ... .. E ... ... ... : D#3 00 . P78 : ... .. D ... : ... .. . ... ...
ROW 94 : ... .. C ... ... ... : ... .. . ... ... ... : C-3 00 . P8C : ... .. C ... : ... .. . ... ...
ROW 95 : ... .. . ... ... ... : ... .. . ... ... ... : B-2 00 . P75 : ... .. . ... : ... .. . ... ...
ROW 96 : ... .. B ... ... ... : ... .. D ... ... ... : A-2 00 . P7C : ... .. B ... : ... .. . ... ...
ROW 97 : ... .. A ... ... ... : ... .. . ... ... ... : G-2 00 . P8B : ... .. A ... : ... .. . ... ...
ROW 98 : ... .. . ... ... ... : ... .. . ... ... ... : --- .. . ... : ... .. . ... : ... .. . ... ...
ROW 99 : ... .. 9 ... ... ... : ... .. C ... ... ... : ... .. . ... : ... .. 9 ... : ... .. . ... ...
ROW 9A : ... .. . ... ... ... : ... .. . ... ... ... : ... .. . ... : ... .. . ... : ... .. . ... ...
ROW 9B : ... .. F ... V03 ... : C-4 00 F ... ... ... : G-4 00 . P80 : ... .. 8 ... : ... .. . ... ...
ROW 9C : ... .. . ... V01 ... : ... .. . ... ... ... : ... .. . ... : ... .. 7 ... : ... .. . ... ...
ROW 9D : ... .. E ... V02 ... : ... .. . ... ... ... : ... .. . ... : ... .. . ... : ... .. . ... ...
ROW 9E : ... .. . ... ... ... : ... .. . ... ... ... : ... .. . ... : ... .. 6 ... : ... .. . ... ...
ROW 9F : ... .. D ... ... ... : ... .. E ... ... ... : ... .. . ... : ... .. 5 ... : ... .. . ... ...
ROW A0 : ... .. C ... ... ... : ... .. . ... ... ... : ... .. . ... : ... .. . ... : ... .. . ... ...
ROW A1 : ... .. . ... ... ... : ... .. . ... ... ... : ... .. . ... : ... .. 4 ... : ... .. . ... ...
ROW A2 : ... .. B ... ... ... : ... .. D ... ... ... : ... .. . ... : ... .. . ... : ... .. . ... ...
ROW A3 : ... .. A ... ... ... : ... .. . ... ... ... : ... .. . ... : ... .. 3 ... : ... .. . ... ...
ROW A4 : ... .. . ... ... ... : ... .. . ... ... ... : --- .. . ... : ... .. 2 ... : ... .. . ... ...
ROW A5 : ... .. 9 ... ... ... : ... .. C ... ... ... : ... .. . ... : ... .. . ... : ... .. . ... ...
ROW A6 : ... .. . ... ... ... : ... .. . ... ... ... : ... .. . ... : ... .. 1 ... : ... .. . ... ...
ROW A7 : G-2 00 F ... V03 ... : E-4 00 F ... ... ... : D#4 00 . P84 : 4-# 00 F V01 : ... .. . ... ...
ROW A8 : ... .. . ... V01 ... : ... .. . ... ... ... : B-3 00 . P82 : ... .. . ... : ... .. . ... ...
ROW A9 : ... .. E ... V02 ... : ... .. . ... ... ... : G#3 00 . P7D : ... .. E V00 : ... .. . ... ...
ROW AA : ... .. . ... ... ... : ... .. . ... ... ... : F-3 00 . P80 : ... .. . ... : ... .. . ... ...
ROW AB : ... .. D ... ... ... : ... .. E ... ... ... : D#3 00 . P78 : ... .. D ... : ... .. . ... ...
ROW AC : ... .. C ... ... ... : ... .. . ... ... ... : C-3 00 . P8C : ... .. C ... : ... .. . ... ...
ROW AD : ... .. . ... ... ... : ... .. . ... ... ... : B-2 00 . P75 : ... .. . ... : ... .. . ... ...
ROW AE : ... .. B ... ... ... : ... .. D ... ... ... : A-2 00 . P7C : ... .. B ... : ... .. . ... ...
ROW AF : ... .. A ... ... ... : ... .. . ... ... ... : G-2 00 . P8B : ... .. A ... : ... .. . ... ...
ROW B0 : ... .. . ... ... ... : ... .. . ... ... ... : --- .. . ... : ... .. . ... : ... .. . ... ...
ROW B1 : ... .. 9 ... ... ... : ... .. C ... ... ... : ... .. . ... : ... .. 9 ... : ... .. . ... ...
ROW B2 : ... .. . ... ... ... : ... .. . ... ... ... : ... .. . ... : ... .. . ... : ... .. . ... ...
ROW B3 : G-1 00 F ... V03 ... : ... .. . ... ... ... : G-4 00 . P80 : ... .. 8 ... : ... .. . ... ...
ROW B4 : ... .. . ... V01 ... : ... .. . ... ... ... : ... .. . ... : ... .. 7 ... : ... .. . ... ...
ROW B5 : ... .. E ... V02 ... : ... .. B ... ... ... : ... .. . ... : ... .. . ... : ... .. . ... ...
ROW B6 : ... .. . ... ... ... : ... .. . ... ... ... : ... .. . ... : ... .. 6 ... : ... .. . ... ...
ROW B7 : ... .. D ... ... ... : ... .. . ... ... ... : ... .. . ... : ... .. 5 ... : ... .. . ... ...
ROW B8 : ... .. C ... ... ... : ... .. A ... ... ... : ... .. . ... : ... .. . ... : ... .. . ... ...
ROW B9 : ... .. . ... ... ... : ... .. . ... ... ... : ... .. . ... : ... .. 4 ... : ... .. . ... ...
ROW BA : ... .. B ... ... ... : ... .. . ... ... ... : ... .. . ... : ... .. . ... : ... .. . ... ...
ROW BB : ... .. A ... ... ... : ... .. 9 ... ... ... : ... .. . ... : ... .. 3 ... : ... .. . ... ...
ROW BC : ... .. . ... ... ... : ... .. . ... ... ... : --- .. . ... : ... .. 2 ... : ... .. . ... ...
ROW BD : ... .. 9 ... ... ... : ... .. . ... ... ... : ... .. . ... : ... .. . ... : ... .. . ... ...
ROW BE : ... .. . ... ... ... : ... .. 8 ... ... ... : ... .. . ... : ... .. 1 ... : ... .. . ... ...
ROW BF : F-1 00 F ... V03 ... : F-4 00 F ... ... ... : D#4 00 . P84 : 0-# 00 F V01 : ... .. . ... ...
ROW C0 : ... .. . ... V01 ... : ... .. . ... ... ... : B-3 00 . P82 : ... .. . ... : ... .. . ... ...
ROW C1 : ... .. E ... V02 ... : ... .. . ... ... ... : G#3 00 . P7D : ... .. E V00 : ... .. . ... ...
ROW C2 : ... .. . ... ... ... : ... .. . ... ... ... : F-3 00 . P80 : ... .. . ... : ... .. . ... ...
ROW C3 : ... .. D ... ... ... : ... .. E ... ... ... : D#3 00 . P78 : ... .. D ... : ... .. . ... ...
ROW C4 : ... .. C ... ... ... : ... .. . ... ... ... : C-3 00 . P8C : ... .. C ... : ... .. . ... ...
ROW C5 : ... .. . ... ... ... : ... .. . ... ... ... : B-2 00 . P75 : ... .. . ... : ... .. . ... ...
ROW C6 : ... .. B ... ... ... : ... .. D ... ... ... : A-2 00 . P7C : ... .. B ... : ... .. . ... ...
ROW C7 : ... .. A ... ... ... : ... .. . ... ... ... : G-2 00 . P8B : ... .. A ... : ... .. . ... ...
ROW C8 : ... .. . ... ... ... : ... .. . ... ... ... : --- .. . ... : ... .. . ... : ... .. . ... ...
ROW C9 : ... .. 9 ... ... ... : ... .. C ... ... ... : ... .. . ... : ... .. 9 ... : ... .. . ... ...
ROW CA : ... .. . ... ... ... : ... .. . ... ... ... : ... .. . ... : ... .. . ... : ... .. . ... ...
ROW CB : ... .. F ... V03 ... : ... .. . ... ... ... : F-4 00 . P7F : ... .. 8 ... : ... .. . ... ...
ROW CC : ... .. . ... V01 ... : ... .. . ... ... ... : ... .. . ... : ... .. 7 ... : ... .. . ... ...
ROW CD : ... .. E ... V02 ... : ... .. B ... ... ... : ... .. . ... : ... .. . ... : ... .. . ... ...
ROW CE : ... .. . ... ... ... : ... .. . ... ... ... : ... .. . ... : ... .. 6 ... : ... .. . ... ...
ROW CF : ... .. D ... ... ... : ... .. . ... ... ... : ... .. . ... : ... .. 5 ... : ... .. . ... ...
ROW D0 : ... .. C ... ... ... : ... .. A ... ... ... : ... .. . ... : ... .. . ... : ... .. . ... ...
ROW D1 : ... .. . ... ... ... : ... .. . ... ... ... : ... .. . ... : ... .. 4 ... : ... .. . ... ...
ROW D2 : ... .. B ... ... ... : ... .. . ... ... ... : ... .. . ... : ... .. . ... : ... .. . ... ...
ROW D3 : ... .. A ... ... ... : ... .. 9 ... ... ... : ... .. . ... : ... .. 3 ... : ... .. . ... ...
ROW D4 : ... .. . ... ... ... : ... .. . ... ... ... : --- .. . ... : ... .. 2 ... : ... .. . ... ...
ROW D5 : ... .. 9 ... ... ... : ... .. . ... ... ... : ... .. . ... : ... .. . ... : ... .. . ... ...
ROW D6 : ... .. . ... ... ... : ... .. 8 ... ... ... : ... .. . ... : ... .. 1 ... : ... .. . ... ...
ROW D7 : F-2 00 F ... V03 ... : ... .. . ... ... ... : D#4 00 . P84 : 4-# 00 F V01 : ... .. . ... ...
ROW D8 : ... .. . ... V01 ... : ... .. . ... ... ... : B-3 00 . P82 : ... .. . ... : ... .. . ... ...
ROW D9 : ... .. E ... V02 ... : ... .. . ... ... ... : G#3 00 . P7D : ... .. E V00 : ... .. . ... ...
ROW DA : ... .. . ... ... ... : ... .. 7 ... ... ... : F-3 00 . P80 : ... .. . ... : ... .. . ... ...
ROW DB : ... .. D ... ... ... : ... .. . ... ... ... : D#3 00 . P78 : ... .. D ... : ... .. . ... ...
ROW DC : ... .. C ... ... ... : ... .. . ... ... ... : C-3 00 . P8C : ... .. C ... : ... .. . ... ...
ROW DD : ... .. . ... ... ... : ... .. 6 ... ... ... : B-2 00 . P75 : ... .. . ... : ... .. . ... ...
ROW DE : ... .. B ... ... ... : ... .. . ... ... ... : A-2 00 . P7C : ... .. B ... : ... .. . ... ...
ROW DF : ... .. A ... ... ... : ... .. . ... ... ... : G-2 00 . P8B : ... .. A ... : ... .. . ... ...
ROW E0 : ... .. . ... ... ... : ... .. 5 ... ... ... : --- .. . ... : ... .. . ... : ... .. . ... ...
ROW E1 : ... .. 9 ... ... ... : ... .. . ... ... ... : ... .. . ... : ... .. 9 ... : ... .. . ... ...
ROW E2 : ... .. . ... ... ... : ... .. . ... ... ... : ... .. . ... : ... .. . ... : ... .. . ... ...
ROW E3 : F-1 00 F ... V03 ... : ... .. 4 ... ... ... : F-4 00 . P7F : ... .. 8 ... : ... .. . ... ...
ROW E4 : ... .. . ... V01 ... : ... .. . ... ... ... : ... .. . ... : ... .. 7 ... : ... .. . ... ...
ROW E5 : ... .. E ... V02 ... : ... .. . ... ... ... : ... .. . ... : ... .. . ... : ... .. . ... ...
ROW E6 : ... .. . ... ... ... : ... .. . ... ... ... : ... .. . ... : ... .. 6 ... : ... .. . ... ...
ROW E7 : ... .. D ... ... ... : ... .. 3 ... ... ... : ... .. . ... : ... .. 5 ... : ... .. . ... ...
ROW E8 : ... .. C ... ... ... : ... .. . ... ... ... : ... .. . ... : ... .. . ... : ... .. . ... ...
ROW E9 : ... .. . ... ... ... : ... .. . ... ... ... : ... .. . ... : ... .. 4 ... : ... .. . ... ...
ROW EA : ... .. B ... ... ... : ... .. 2 ... ... ... : ... .. . ... : ... .. . ... : ... .. . ... ...
ROW EB : ... .. A ... ... ... : ... .. . ... ... ... : ... .. . ... : ... .. 3 ... : ... .. . ... ...
ROW EC : ... .. . ... ... ... : ... .. . ... ... ... : --- .. . ... : ... .. 2 ... : ... .. . ... ...
ROW ED : ... .. 9 ... ... ... : ... .. 1 ... ... ... : ... .. . ... : ... .. . ... : ... .. . ... ...
ROW EE : ... .. . ... ... ... : ... .. . ... ... ... : ... .. . ... : ... .. 1 ... : ... .. . ... ...
ROW EF : ... .. F ... V03 ... : ... .. . ... ... ... : D#4 00 . P84 : 0-# 00 F V01 : ... .. . ... ...
ROW F0 : ... .. . ... V01 ... : ... .. 0 ... ... ... : B-3 00 . P82 : ... .. . ... : ... .. . ... ...
ROW F1 : ... .. E ... V02 ... : ... .. . ... ... ... : G#3 00 . P7D : ... .. E V00 : ... .. . ... ...
ROW F2 : ... .. . ... ... ... : ... .. . ... ... ... : F-3 00 . P80 : ... .. . ... : ... .. . ... ...
ROW F3 : ... .. D ... ... ... : ... .. . ... ... ... : D#3 00 . P78 : ... .. D ... : ... .. . ... ...
ROW F4 : ... .. C ... ... ... : ... .. . ... ... ... : C-3 00 . P8C : ... .. C ... : ... .. . ... ...
ROW F5 : ... .. . ... ... ... : ... .. . ... ... ... : B-2 00 . P75 : ... .. . ... : ... .. . ... ...
ROW F6 : ... .. B ... ... ... : ... .. . ... ... ... : A-2 00 . P7C : ... .. B ... : ... .. . ... ...
ROW F7 : ... .. A ... ... ... : ... .. . ... ... ... : G-2 00 . P8B : ... .. A ... : ... .. . ... ...
ROW F8 : ... .. . ... ... ... : ... .. . ... ... ... : --- .. . ... : ... .. . ... : ... .. . ... ...
ROW F9 : ... .. 9 ... ... ... : ... .. . ... ... ... : ... .. . ... : ... .. 9 ... : ... .. . ... ...
ROW FA : ... .. . ... ... ... : ... .. . ... ... ... : ... .. . ... : ... .. . ... : ... .. . ... ...
ROW FB : ... .. F ... V03 ... : ... .. . ... ... ... : F-4 00 . P7F : ... .. 8 ... : ... .. . ... ...
ROW FC : ... .. . ... V01 ... : ... .. . ... ... ... : ... .. . ... : ... .. 7 ... : ... .. . ... ...
ROW FD : ... .. E ... V02 ... : ... .. . ... ... ... : ... .. . ... : ... .. . ... : ... .. . ... ...
ROW FE : ... .. . ... ... ... : ... .. . ... ... ... : ... .. . ... : ... .. 6 ... : ... .. . ... ...
ROW FF : ... .. D ... ... ... : ... .. . ... ... ... : ... .. . ... : ... .. 5 ... : ... .. . ... ...

PATTERN 10
ROW 00 : ... .. C ... ... ... : ... .. . ... ... ... : ... .. . ... : ... .. . ... : ... .. . ... ...
ROW 01 : ... .. . ... ... ... : ... .. . ... ... ... : ... .. . ... : ... .. 4 ... : ... .. . ... ...
ROW 02 : ... .. B ... ... ... : ... .. . ... ... ... : ... .. . ... : ... .. . ... : ... .. . ... ...
ROW 03 : ... .. A ... ... ... : ... .. . ... ... ... : ... .. . ... : ... .. 3 ... : ... .. . ... ...
ROW 04 : ... .. . ... ... ... : ... .. . ... ... ... : --- .. . ... : ... .. 2 ... : ... .. . ... ...
ROW 05 : ... .. 9 ... ... ... : ... .. . ... ... ... : ... .. . ... : ... .. . ... : ... .. . ... ...
ROW 06 : ... .. . ... ... ... : ... .. . ... ... ... : ... .. . ... : ... .. 1 ... : ... .. . ... ...
ROW 07 : F-2 00 F ... V03 ... : A-4 00 F P7F ... ... : D#4 00 . P84 : 4-# 00 F V01 : ... .. . ... ...
ROW 08 : ... .. . ... V01 ... : ... .. . ... ... ... : B-3 00 . P82 : ... .. . ... : ... .. . ... ...
ROW 09 : ... .. E ... V02 ... : ... .. . ... ... ... : G#3 00 . P7D : ... .. E V00 : ... .. . ... ...
ROW 0A : ... .. . ... ... ... : ... .. . ... ... ... : F-3 00 . P80 : ... .. . ... : ... .. . ... ...
ROW 0B : ... .. D ... ... ... : ... .. E ... ... ... : D#3 00 . P78 : ... .. D ... : ... .. . ... ...
ROW 0C : ... .. C ... ... ... : ... .. . ... ... ... : C-3 00 . P8C : ... .. C ... : ... .. . ... ...
ROW 0D : ... .. . ... ... ... : ... .. . ... ... ... : B-2 00 . P75 : ... .. . ... : ... .. . ... ...
ROW 0E : ... .. B ... ... ... : ... .. D ... ... ... : A-2 00 . P7C : ... .. B ... : ... .. . ... ...
ROW 0F : ... .. A ... ... ... : ... .. . ... ... ... : G-2 00 . P8B : ... .. A ... : ... .. . ... ...
ROW 10 : ... .. . ... ... ... : ... .. . ... ... ... : --- .. . ... : ... .. . ... : ... .. . ... ...
ROW 11 : ... .. 9 ... ... ... : ... .. C ... ... ... : ... .. . ... : ... .. 9 ... : ... .. . ... ...
ROW 12 : ... .. . ... ... ... : ... .. . ... ... ... : ... .. . ... : ... .. . ... : ... .. . ... ...
ROW 13 : F-1 00 F ... V03 ... : ... .. . ... ... ... : F-4 00 . P7F : ... .. 8 ... : ... .. . ... ...
ROW 14 : ... .. . ... V01 ... : ... .. . ... ... ... : ... .. . ... : ... .. 7 ... : ... .. . ... ...
ROW 15 : ... .. E ... V02 ... : ... .. B ... ... ... : ... .. . ... : ... .. . ... : ... .. . ... ...
ROW 16 : ... .. . ... ... ... : ... .. . ... ... ... : ... .. . ... : ... .. 6 ... : ... .. . ... ...
ROW 17 : ... .. D ... ... ... : ... .. . ... ... ... : ... .. . ... : ... .. 5 ... : ... .. . ... ...
ROW 18 : ... .. C ... ... ... : ... .. A ... ... ... : ... .. . ... : ... .. . ... : ... .. . ... ...
ROW 19 : ... .. . ... ... ... : ... .. . ... ... ... : ... .. . ... : ... .. 4 ... : ... .. . ... ...
ROW 1A : ... .. B ... ... ... : ... .. . ... ... ... : ... .. . ... : ... .. . ... : ... .. . ... ...
ROW 1B : ... .. A ... ... ... : ... .. 9 ... ... ... : ... .. . ... : ... .. 3 ... : ... .. . ... ...
ROW 1C : ... .. . ... ... ... : ... .. . ... ... ... : --- .. . ... : ... .. 2 ... : ... .. . ... ...
ROW 1D : ... .. 9 ... ... ... : ... .. . ... ... ... : ... .. . ... : ... .. . ... : ... .. . ... ...
ROW 1E : ... .. . ... ... ... : ... .. 8 ... ... ... : ... .. . ... : ... .. 1 ... : ... .. . ... ...
ROW 1F : C-2 00 F P7E V03 ... : G-4 00 F P80 ... ... : D#4 00 . P84 : 0-# 00 F V01 : ... .. . ... ...
ROW 20 : ... .. . ... V01 ... : ... .. . ... ... ... : B-3 00 . P82 : ... .. . ... : ... .. . ... ...
ROW 21 : ... .. E ... V02 ... : ... .. . ... ... ... : G#3 00 . P7D : ... .. E V00 : ... .. . ... ...
ROW 22 : ... .. . ... ... ... : ... .. . ... ... ... : F-3 00 . P80 : ... .. . ... : ... .. . ... ...
ROW 23 : ... .. D ... ... ... : ... .. E ... ... ... : D#3 00 . P78 : ... .. D ... : ... .. . ... ...
ROW 24 : ... .. C ... ... ... : ... .. . ... ... ... : C-3 00 . P8C : ... .. C ... : ... .. . ... ...
ROW 25 : ... .. . ... ... ... : ... .. . ... ... ... : B-2 00 . P75 : ... .. . ... : ... .. . ... ...
ROW 26 : ... .. B ... ... ... : ... .. D ... ... ... : A-2 00 . P7C : ... .. B ... : ... .. . ... ...
ROW 27 : ... .. A ... ... ... : ... .. . ... ... ... : G-2 00 . P8B : ... .. A ... : ... .. . ... ...
ROW 28 : ... .. . ... ... ... : ... .. . ... ... ... : --- .. . ... : ... .. . ... : ... .. . ... ...
ROW 29 : ... .. 9 ... ... ... : ... .. C ... ... ... : ... .. . ... : ... .. 9 ... : ... .. . ... ...
ROW 2A : ... .. . ... ... ... : ... .. . ... ... ... : ... .. . ... : ... .. . ... : ... .. . ... ...
ROW 2B : ... .. F ... V03 ... : ... .. . ... ... ... : C-5 00 . P7F : ... .. 8 ... : ... .. . ... ...
ROW 2C : ... .. . ... V01 ... : ... .. . ... ... ... : ... .. . ... : ... .. 7 ... : ... .. . ... ...
ROW 2D : ... .. E ... V02 ... : ... .. B ... ... ... : ... .. . ... : ... .. . ... : ... .. . ... ...
ROW 2E : ... .. . ... ... ... : ... .. . ... ... ... : ... .. . ... : ... .. 6 ... : ... .. . ... ...
ROW 2F : ... .. D ... ... ... : ... .. . ... ... ... : ... .. . ... : ... .. 5 ... : ... .. . ... ...
ROW 30 : ... .. C ... ... ... : ... .. A ... ... ... : ... .. . ... : ... .. . ... : ... .. . ... ...
ROW 31 : ... .. . ... ... ... : ... .. . ... ... ... : ... .. . ... : ... .. 4 ... : ... .. . ... ...
ROW 32 : ... .. B ... ... ... : ... .. . ... ... ... : ... .. . ... : ... .. . ... : ... .. . ... ...
ROW 33 : ... .. A ... ... ... : ... .. 9 ... ... ... : ... .. . ... : ... .. 3 ... : ... .. . ... ...
ROW 34 : ... .. . ... ... ... : ... .. . ... ... ... : --- .. . ... : ... .. 2 ... : ... .. . ... ...
ROW 35 : ... .. 9 ... ... ... : ... .. . ... ... ... : ... .. . ... : ... .. . ... : ... .. . ... ...
ROW 36 : ... .. . ... ... ... : ... .. 8 ... ... ... : ... .. . ... : ... .. 1 ... : ... .. . ... ...
ROW 37 : C-3 00 F P7F V03 ... : F-4 00 F P7F ... ... : D#4 00 . P84 : 4-# 00 F V01 : ... .. . ... ...
ROW 38 : ... .. . ... V01 ... : ... .. . ... ... ... : B-3 00 . P82 : ... .. . ... : ... .. . ... ...
ROW 39 : ... .. E ... V02 ... : ... .. . ... ... ... : G#3 00 . P7D : ... .. E V00 : ... .. . ... ...
ROW 3A : ... .. . ... ... ... : ... .. . ... ... ... : F-3 00 . P80 : ... .. . ... : ... .. . ... ...
ROW 3B : ... .. D ... ... ... : ... .. E ... ... ... : D#3 00 . P78 : ... .. D ... : ... .. . ... ...
ROW 3C : ... .. C ... ... ... : ... .. . ... ... ... : C-3 00 . P8C : ... .. C ... : ... .. . ... ...
ROW 3D : ... .. . ... ... ... : ... .. . ... ... ... : B-2 00 . P75 : ... .. . ... : ... .. . ... ...
ROW 3E : ... .. B ... ... ... : ... .. D ... ... ... : A-2 00 . P7C : ... .. B ... : ... .. . ... ...
ROW 3F : ... .. A ... ... ... : ... .. . ... ... ... : G-2 00 . P8B : ... .. A ... : ... .. . ... ...
ROW 40 : ... .. . ... ... ... : ... .. . ... ... ... : --- .. . ... : ... .. . ... : ... .. . ... ...
ROW 41 : ... .. 9 ... ... ... : ... .. C ... ... ... : ... .. . ... : ... .. 9 ... : ... .. . ... ...
ROW 42 : ... .. . ... ... ... : ... .. . ... ... ... : ... .. . ... : ... .. . ... : ... .. . ... ...
ROW 43 : C-2 00 F P7E V03 ... : ... .. . ... ... ... : C-5 00 . P7F : ... .. 8 ... : ... .. . ... ...
ROW 44 : ... .. . ... V01 ... : ... .. . ... ... ... : ... .. . ... : ... .. 7 ... : ... .. . ... ...
ROW 45 : ... .. E ... V02 ... : ... .. B ... ... ... : ... .. . ... : ... .. . ... : ... .. . ... ...
ROW 46 : ... .. . ... ... ... : ... .. . ... ... ... : ... .. . ... : ... .. 6 ... : ... .. . ... ...
ROW 47 : ... .. D ... ... ... : ... .. . ... ... ... : ... .. . ... : ... .. 5 ... : ... .. . ... ...
ROW 48 : ... .. C ... ... ... : ... .. A ... ... ... : ... .. . ... : ... .. . ... : ... .. . ... ...
ROW 49 : ... .. . ... ... ... : ... .. . ... ... ... : ... .. . ... : ... .. 4 ... : ... .. . ... ...
ROW 4A : ... .. B ... ... ... : ... .. . ... ... ... : ... .. . ... : ... .. . ... : ... .. . ... ...
ROW 4B : ... .. A ... ... ... : ... .. 9 ... ... ... : ... .. . ... : ... .. 3 ... : ... .. . ... ...
ROW 4C : ... .. . ... ... ... : ... .. . ... ... ... : --- .. . ... : ... .. 2 ... : ... .. . ... ...
ROW 4D : ... .. 9 ... ... ... : ... .. . ... ... ... : ... .. . ... : ... .. . ... : ... .. . ... ...
ROW 4E : ... .. . ... ... ... : ... .. 8 ... ... ... : ... .. . ... : ... .. 1 ... : ... .. . ... ...
ROW 4F : G-1 00 F P80 V03 ... : E-4 00 F ... ... ... : D#4 00 . P84 : ... .. F V01 : ... .. . ... ...
ROW 50 : ... .. . ... V01 ... : ... .. . ... ... ... : B-3 00 . P82 : ... .. . ... : ... .. . ... ...
ROW 51 : ... .. E ... V02 ... : ... .. . ... ... ... : G#3 00 . P7D : ... .. E V00 : ... .. . ... ...
ROW 52 : ... .. . ... ... ... : ... .. . ... ... ... : F-3 00 . P80 : ... .. . ... : ... .. . ... ...
ROW 53 : ... .. D ... ... ... : ... .. E ... ... ... : D#3 00 . P78 : ... .. D ... : ... .. . ... ...
ROW 54 : ... .. C ... ... ... : ... .. . ... ... ... : C-3 00 . P8C : ... .. C ... : ... .. . ... ...
ROW 55 : ... .. . ... ... ... : ... .. . ... ... ... : B-2 00 . P75 : ... .. . ... : ... .. . ... ...
ROW 56 : ... .. B ... ... ... : ... .. D ... ... ... : A-2 00 . P7C : ... .. B ... : ... .. . ... ...
ROW 57 : ... .. A ... ... ... : ... .. . ... ... ... : G-2 00 . P8B : ... .. A ... : ... .. . ... ...
ROW 58 : ... .. . ... ... ... : ... .. . ... ... ... : --- .. . ... : ... .. . ... : ... .. . ... ...
ROW 59 : ... .. 9 ... ... ... : ... .. C ... ... ... : ... .. . ... : ... .. 9 ... : ... .. . ... ...
ROW 5A : ... .. . ... ... ... : ... .. . ... ... ... : ... .. . ... : ... .. . ... : ... .. . ... ...
ROW 5B : ... .. F ... V03 ... : ... .. . ... ... ... : D#4 00 . P84 : ... .. F V01 : ... .. . ... ...
ROW 5C : ... .. . ... V01 ... : ... .. . ... ... ... : B-3 00 . P82 : ... .. . ... : ... .. . ... ...
ROW 5D : ... .. E ... V02 ... : ... .. B ... ... ... : G#3 00 . P7D : ... .. E V00 : ... .. . ... ...
ROW 5E : ... .. . ... ... ... : ... .. . ... ... ... : F-3 00 . P80 : ... .. . ... : ... .. . ... ...
ROW 5F : ... .. D ... ... ... : ... .. . ... ... ... : D#3 00 . P78 : ... .. D ... : ... .. . ... ...
ROW 60 : ... .. C ... ... ... : ... .. A ... ... ... : C-3 00 . P8C : ... .. C ... : ... .. . ... ...
ROW 61 : ... .. . ... ... ... : ... .. . ... ... ... : B-2 00 . P75 : ... .. . ... : ... .. . ... ...
ROW 62 : ... .. B ... ... ... : ... .. . ... ... ... : A-2 00 . P7C : ... .. B ... : ... .. . ... ...
ROW 63 : ... .. A ... ... ... : ... .. 9 ... ... ... : G-2 00 . P8B : ... .. A ... : ... .. . ... ...
ROW 64 : ... .. . ... ... ... : ... .. . ... ... ... : --- .. . ... : ... .. . ... : ... .. . ... ...
ROW 65 : ... .. 9 ... ... ... : ... .. . ... ... ... : ... .. . ... : ... .. 9 ... : ... .. . ... ...
ROW 66 : ... .. . ... ... ... : ... .. 8 ... ... ... : ... .. . ... : ... .. . ... : ... .. . ... ...
ROW 67 : G-2 00 F ... V03 ... : D-4 00 F ... ... ... : D#4 00 . P84 : ... .. F V01 : ... .. . ... ...
ROW 68 : ... .. . ... V01 ... : ... .. . ... ... ... : B-3 00 . P82 : ... .. . ... : ... .. . ... ...
ROW 69 : ... .. E ... V02 ... : ... .. . ... ... ... : G#3 00 . P7D : ... .. E V00 : ... .. . ... ...
ROW 6A : ... .. . ... ... ... : ... .. . ... ... ... : F-3 00 . P80 : ... .. . ... : ... .. . ... ...
ROW 6B : ... .. D ... ... ... : ... .. E ... ... ... : D#3 00 . P78 : ... .. D ... : ... .. . ... ...
ROW 6C : ... .. C ... ... ... : ... .. . ... ... ... : C-3 00 . P8C : ... .. C ... : ... .. . ... ...
ROW 6D : ... .. . ... ... ... : ... .. . ... ... ... : B-2 00 . P75 : ... .. . ... : ... .. . ... ...
ROW 6E : ... .. B ... ... ... : ... .. D ... ... ... : A-2 00 . P7C : ... .. B ... : ... .. . ... ...
ROW 6F : ... .. A ... ... ... : ... .. . ... ... ... : G-2 00 . P8B : ... .. A ... : ... .. . ... ...
ROW 70 : ... .. . ... ... ... : ... .. . ... ... ... : --- .. . ... : ... .. . ... : ... .. . ... ...
ROW 71 : ... .. 9 ... ... ... : ... .. C ... ... ... : ... .. . ... : ... .. 9 ... : ... .. . ... ...
ROW 72 : ... .. . ... ... ... : ... .. . ... ... ... : ... .. . ... : ... .. . ... : ... .. . ... ...
ROW 73 : G-1 00 F ... V03 ... : ... .. . ... ... ... : D-4 00 . P7F : ... .. F V01 : ... .. . ... ...
ROW 74 : ... .. . ... V01 ... : ... .. . ... ... ... : A#3 00 . P81 : ... .. . ... : ... .. . ... ...
ROW 75 : ... .. E ... V02 ... : ... .. B ... ... ... : G-3 00 . P7E : ... .. E V00 : ... .. . ... ...
ROW 76 : ... .. . ... ... ... : ... .. . ... ... ... : E-3 00 . P84 : ... .. . ... : ... .. . ... ...
ROW 77 : ... .. D ... ... ... : ... .. . ... ... ... : D-3 00 . P7E : ... .. D ... : ... .. . ... ...
ROW 78 : ... .. C ... ... ... : ... .. A ... ... ... : C-3 00 . P7D : ... .. C ... : ... .. . ... ...
ROW 79 : ... .. . ... ... ... : ... .. . ... ... ... : D-4 00 . P7F : ... .. F V01 : ... .. . ... ...
ROW 7A : ... .. B ... ... ... : ... .. . ... ... ... : A#3 00 . P81 : ... .. . ... : ... .. . ... ...
ROW 7B : ... .. A ... ... ... : ... .. 9 ... ... ... : G-3 00 . P7E : ... .. E V00 : ... .. . ... ...
ROW 7C : ... .. . ... ... ... : ... .. . ... ... ... : E-3 00 . P84 : ... .. . ... : ... .. . ... ...
ROW 7D : ... .. 9 ... ... ... : ... .. . ... ... ... : D-3 00 . P7E : ... .. D ... : ... .. . ... ...
ROW 7E : ... .. . ... ... ... : ... .. 8 ... ... ... : C-3 00 . P7D : ... .. C ... : ... .. . ... ...
ROW 7F : A-1 00 F ... V03 ... : C-3 00 F ... V03 ... : E-3 00 . P85 : ... .. F V01 : ... .. . ... ...
ROW 80 : ... .. . ... V01 ... : ... .. . ... V01 ... : D-3 00 . P7F : ... .. . ... : ... .. . ... ...
ROW 81 : ... .. E ... V02 ... : ... .. E ... V02 ... : C-3 00 . P7E : ... .. E V00 : ... .. . ... ...
ROW 82 : ... .. . ... ... ... : ... .. . ... ... ... : A#2 00 . P82 : ... .. . ... : ... .. . ... ...
ROW 83 : ... .. D ... ... ... : ... .. D ... ... ... : G#2 00 . P8D : ... .. D ... : ... .. . ... ...
ROW 84 : ... .. C ... ... ... : ... .. C ... ... ... : G-2 00 . P7D : ... .. C ... : ... .. . ... ...
ROW 85 : ... .. . ... ... ... : ... .. . ... ... ... : F#2 00 . P6F : ... .. . ... : ... .. . ... ...
ROW 86 : ... .. B ... ... ... : ... .. B ... ... ... : E-2 00 . P89 : ... .. B ... : ... .. . ... ...
ROW 87 : ... .. A ... ... ... : ... .. A ... ... ... : D#2 00 . P81 : ... .. A ... : ... .. . ... ...
ROW 88 : ... .. . ... ... ... : ... .. . ... ... ... : --- .. . ... : ... .. . ... : ... .. . ... ...
ROW 89 : ... .. 9 ... ... ... : ... .. 9 ... ... ... : ... .. . ... : ... .. 9 ... : ... .. . ... ...
ROW 8A : ... .. . ... ... ... : ... .. . ... ... ... : ... .. . ... : ... .. . ... : ... .. . ... ...
ROW 8B : ... .. F ... V03 ... : ... .. 8 ... ... ... : ... .. . ... : ... .. 8 ... : ... .. . ... ...
ROW 8C : ... .. . ... V01 ... : ... .. 7 ... ... ... : ... .. . ... : ... .. 7 ... : ... .. . ... ...
ROW 8D : ... .. E ... V02 ... : ... .. . ... ... ... : ... .. . ... : ... .. . ... : ... .. . ... ...
ROW 8E : ... .. . ... ... ... : ... .. 6 ... ... ... : ... .. . ... : ... .. 6 ... : ... .. . ... ...
ROW 8F : ... .. D ... ... ... : ... .. 5 ... ... ... : ... .. . ... : ... .. 5 ... : ... .. . ... ...
ROW 90 : ... .. C ... ... ... : ... .. . ... ... ... : ... .. . ... : ... .. . ... : ... .. . ... ...
ROW 91 : ... .. . ... ... ... : ... .. 4 ... ... ... : ... .. . ... : ... .. 4 ... : ... .. . ... ...
ROW 92 : ... .. B ... ... ... : ... .. . ... ... ... : ... .. . ... : ... .. . ... : ... .. . ... ...
ROW 93 : ... .. A ... ... ... : ... .. 3 ... ... ... : ... .. . ... : ... .. 3 ... : ... .. . ... ...
ROW 94 : ... .. . ... ... ... : ... .. 2 ... ... ... : ... .. . ... : ... .. 2 ... : ... .. . ... ...
ROW 95 : ... .. 9 ... ... ... : ... .. . ... ... ... : ... .. . ... : ... .. . ... : ... .. . ... ...
ROW 96 : ... .. . ... ... ... : ... .. 1 ... ... ... : ... .. . ... : ... .. 1 ... : ... .. . ... ...
ROW 97 : A-2 00 F P7F V03 ... : A-3 00 F ... V03 ... : A-4 00 . P7F : ... .. F ... : ... .. . ... ...
ROW 98 : ... .. . ... V01 ... : ... .. . ... V01 ... : ... .. . ... : ... .. E ... : ... .. . ... ...
ROW 99 : ... .. E ... V02 ... : ... .. E ... V02 ... : ... .. . ... : ... .. C ... : ... .. . ... ...
ROW 9A : ... .. . ... ... ... : ... .. . ... ... ... : ... .. . ... : ... .. A ... : ... .. . ... ...
ROW 9B : ... .. D ... ... ... : ... .. D ... ... ... : ... .. . ... : ... .. 9 ... : ... .. . ... ...
ROW 9C : ... .. C ... ... ... : ... .. C ... ... ... : ... .. . ... : ... .. 7 ... : ... .. . ... ...
ROW 9D : ... .. . ... ... ... : ... .. . ... ... ... : ... .. . ... : ... .. 5 ... : ... .. . ... ...
ROW 9E : ... .. B ... ... ... : ... .. B ... ... ... : ... .. . ... : ... .. 4 ... : ... .. . ... ...
ROW 9F : ... .. A ... ... ... : ... .. A ... ... ... : ... .. . ... : ... .. 2 ... : ... .. . ... ...
ROW A0 : ... .. . ... ... ... : ... .. . ... ... ... : --- .. . ... : ... .. 0 ... : ... .. . ... ...
ROW A1 : ... .. 9 ... ... ... : ... .. 9 ... ... ... : ... .. . ... : ... .. . ... : ... .. . ... ...
ROW A2 : ... .. . ... ... ... : ... .. . ... ... ... : ... .. . ... : ... .. . ... : ... .. . ... ...
ROW A3 : A-1 00 F P80 V03 ... : ... .. 8 ... ... ... : ... .. . ... : F-# 00 F ... : ... .. . ... ...
ROW A4 : ... .. . ... V01 ... : ... .. 7 ... ... ... : ... .. . ... : ... .. E ... : ... .. . ... ...
ROW A5 : ... .. E ... V02 ... : ... .. . ... ... ... : ... .. . ... : ... .. C ... : ... .. . ... ...
ROW A6 : ... .. . ... ... ... : ... .. 6 ... ... ... : ... .. . ... : ... .. A ... : ... .. . ... ...
ROW A7 : ... .. D ... ... ... : ... .. 5 ... ... ... : ... .. . ... : ... .. 9 ... : ... .. . ... ...
ROW A8 : ... .. C ... ... ... : ... .. . ... ... ... : ... .. . ... : ... .. 7 ... : ... .. . ... ...
ROW A9 : ... .. . ... ... ... : ... .. 4 ... ... ... : ... .. . ... : ... .. 5 ... : ... .. . ... ...
ROW AA : ... .. B ... ... ... : ... .. . ... ... ... : ... .. . ... : ... .. 4 ... : ... .. . ... ...
ROW AB : ... .. A ... ... ... : ... .. 3 ... ... ... : ... .. . ... : ... .. 2 ... : ... .. . ... ...
ROW AC : ... .. . ... ... ... : ... .. 2 ... ... ... : ... .. . ... : ... .. 0 ... : ... .. . ... ...
ROW AD : ... .. 9 ... ... ... : ... .. . ... ... ... : ... .. . ... : ... .. . ... : ... .. . ... ...
ROW AE : ... .. . ... ... ... : ... .. 1 ... ... ... : ... .. . ... : ... .. . ... : ... .. . ... ...
ROW AF : ... .. F ... V03 ... : A-4 00 F ... V03 ... : A-5 00 . P80 : 0-# 00 F ... : ... .. . ... ...
ROW B0 : ... .. . ... V01 ... : ... .. . ... V01 ... : ... .. . ... : ... .. E ... : ... .. . ... ...
ROW B1 : ... .. E ... V02 ... : ... .. E ... V02 ... : ... .. . ... : ... .. C ... : ... .. . ... ...
ROW B2 : ... .. . ... ... ... : ... .. . ... ... ... : ... .. . ... : ... .. A ... : ... .. . ... ...
ROW B3 : ... .. D ... ... ... : ... .. D ... ... ... : ... .. . ... : ... .. 9 ... : ... .. . ... ...
ROW B4 : ... .. C ... ... ... : ... .. C ... ... ... : ... .. . ... : ... .. 7 ... : ... .. . ... ...
ROW B5 : ... .. . ... ... ... : ... .. . ... ... ... : ... .. . ... : ... .. 5 ... : ... .. . ... ...
ROW B6 : ... .. B ... ... ... : ... .. B ... ... ... : ... .. . ... : ... .. 4 ... : ... .. . ... ...
ROW B7 : ... .. A ... ... ... : ... .. A ... ... ... : ... .. . ... : ... .. 2 ... : ... .. . ... ...
ROW B8 : ... .. . ... ... ... : ... .. . ... ... ... : --- .. . ... : ... .. 0 ... : ... .. . ... ...
ROW B9 : ... .. 9 ... ... ... : ... .. 9 ... ... ... : ... .. . ... : ... .. . ... : ... .. . ... ...
ROW BA : ... .. . ... ... ... : ... .. . ... ... ... : ... .. . ... : ... .. . ... : ... .. . ... ...
ROW BB : ... .. F ... V03 ... : ... .. 8 ... ... ... : ... .. . ... : F-# 00 F ... : ... .. . ... ...
ROW BC : ... .. . ... V01 ... : ... .. 7 ... ... ... : ... .. . ... : ... .. E ... : ... .. . ... ...
ROW BD : ... .. E ... V02 ... : ... .. . ... ... ... : ... .. . ... : ... .. C ... : ... .. . ... ...
ROW BE : ... .. . ... ... ... : ... .. 6 ... ... ... : ... .. . ... : ... .. A ... : ... .. . ... ...
ROW BF : ... .. D ... ... ... : ... .. 5 ... ... ... : ... .. . ... : ... .. 9 ... : ... .. . ... ...
ROW C0 : ... .. C ... ... ... : ... .. . ... ... ... : ... .. . ... : ... .. 7 ... : ... .. . ... ...
ROW C1 : ... .. . ... ... ... : ... .. 4 ... ... ... : ... .. . ... : ... .. 5 ... : ... .. . ... ...
ROW C2 : ... .. B ... ... ... : ... .. . ... ... ... : ... .. . ... : ... .. 4 ... : ... .. . ... ...
ROW C3 : ... .. A ... ... ... : ... .. 3 ... ... ... : ... .. . ... : ... .. 2 ... : ... .. . ... ...
ROW C4 : ... .. . ... ... ... : ... .. 2 ... ... ... : ... .. . ... : ... .. 0 ... : ... .. . ... ...
ROW C5 : ... .. 9 ... ... ... : ... .. . ... ... ... : ... .. . ... : ... .. . ... : ... .. . ... ...
ROW C6 : ... .. . ... ... ... : ... .. 1 ... ... ... : ... .. . ... : ... .. . ... : ... .. . ... ...
ROW C7 : A-2 00 F P7F V03 ... : ... .. 0 ... V00 ... : ... .. . ... : 4-# 00 F ... : ... .. . ... ...
ROW C8 : ... .. . ... V01 ... : ... .. . ... ... ... : ... .. . ... : ... .. E ... : ... .. . ... ...
ROW C9 : ... .. E ... V02 ... : ... .. . ... ... ... : ... .. . ... : ... .. C ... : ... .. . ... ...
ROW CA : ... .. . ... ... ... : ... .. . ... ... ... : ... .. . ... : ... .. A ... : ... .. . ... ...
ROW CB : ... .. D ... ... ... : ... .. . ... ... ... : ... .. . ... : ... .. 9 ... : ... .. . ... ...
ROW CC : ... .. C ... ... ... : ... .. . ... ... ... : ... .. . ... : ... .. 7 ... : ... .. . ... ...
ROW CD : ... .. . ... ... ... : ... .. . ... ... ... : ... .. . ... : ... .. 5 ... : ... .. . ... ...
ROW CE : ... .. B ... ... ... : ... .. . ... ... ... : ... .. . ... : ... .. 4 ... : ... .. . ... ...
ROW CF : ... .. A ... ... ... : ... .. . ... ... ... : ... .. . ... : ... .. 2 ... : ... .. . ... ...
ROW D0 : ... .. . ... ... ... : ... .. . ... ... ... : ... .. . ... : ... .. 0 ... : ... .. . ... ...
ROW D1 : ... .. 9 ... ... ... : ... .. . ... ... ... : ... .. . ... : ... .. . ... : ... .. . ... ...
ROW D2 : ... .. . ... ... ... : ... .. . ... ... ... : ... .. . ... : ... .. . ... : ... .. . ... ...
ROW D3 : A-1 00 F P80 V03 ... : ... .. . ... ... ... : ... .. . ... : F-# 00 F ... : ... .. . ... ...
ROW D4 : ... .. . ... V01 ... : ... .. . ... ... ... : ... .. . ... : ... .. E ... : ... .. . ... ...
ROW D5 : ... .. E ... V02 ... : ... .. . ... ... ... : ... .. . ... : ... .. C ... : ... .. . ... ...
ROW D6 : ... .. . ... ... ... : ... .. . ... ... ... : ... .. . ... : ... .. A ... : ... .. . ... ...
ROW D7 : ... .. D ... ... ... : ... .. . ... ... ... : ... .. . ... : ... .. 9 ... : ... .. . ... ...
ROW D8 : ... .. C ... ... ... : ... .. . ... ... ... : ... .. . ... : ... .. 7 ... : ... .. . ... ...
ROW D9 : ... .. . ... ... ... : ... .. . ... ... ... : ... .. . ... : ... .. 5 ... : ... .. . ... ...
ROW DA : ... .. B ... ... ... : ... .. . ... ... ... : ... .. . ... : ... .. 4 ... : ... .. . ... ...
ROW DB : ... .. A ... ... ... : ... .. . ... ... ... : ... .. . ... : ... .. 2 ... : ... .. . ... ...
ROW DC : ... .. . ... ... ... : ... .. . ... ... ... : ... .. . ... : ... .. 0 ... : ... .. . ... ...
ROW DD : ... .. 9 ... ... ... : ... .. . ... ... ... : ... .. . ... : ... .. . ... : ... .. . ... ...
ROW DE : ... .. . ... ... ... : ... .. . ... ... ... : ... .. . ... : ... .. . ... : ... .. . ... ...
ROW DF : ... .. F ... V03 ... : ... .. . ... ... ... : ... .. . ... : 0-# 00 F ... : ... .. . ... ...
ROW E0 : ... .. . ... V01 ... : ... .. . ... ... ... : ... .. . ... : ... .. E ... : ... .. . ... ...
ROW E1 : ... .. E ... V02 ... : ... .. . ... ... ... : ... .. . ... : ... .. C ... : ... .. . ... ...
ROW E2 : ... .. . ... ... ... : ... .. . ... ... ... : ... .. . ... : ... .. A ... : ... .. . ... ...
ROW E3 : ... .. D ... ... ... : ... .. . ... ... ... : ... .. . ... : ... .. 9 ... : ... .. . ... ...
ROW E4 : ... .. C ... ... ... : ... .. . ... ... ... : ... .. . ... : ... .. 7 ... : ... .. . ... ...
ROW E5 : ... .. . ... ... ... : ... .. . ... ... ... : ... .. . ... : ... .. 5 ... : ... .. . ... ...
ROW E6 : ... .. B ... ... ... : ... .. . ... ... ... : ... .. . ... : ... .. 4 ... : ... .. . ... ...
ROW E7 : ... .. A ... ... ... : ... .. . ... ... ... : ... .. . ... : ... .. 2 ... : ... .. . ... ...
ROW E8 : ... .. . ... ... ... : ... .. . ... ... ... : ... .. . ... : ... .. 0 ... : ... .. . ... ...
ROW E9 : ... .. 9 ... ... ... : ... .. . ... ... ... : ... .. . ... : ... .. . ... : ... .. . ... ...
ROW EA : ... .. . ... ... ... : ... .. . ... ... ... : ... .. . ... : ... .. . ... : ... .. . ... ...
ROW EB : ... .. F ... V03 ... : ... .. . ... ... ... : ... .. . ... : F-# 00 F ... : ... .. . ... ...
ROW EC : ... .. . ... V01 ... : ... .. . ... ... ... : ... .. . ... : ... .. E ... : ... .. . ... ...
ROW ED : ... .. E ... V02 ... : ... .. . ... ... ... : ... .. . ... : ... .. C ... : ... .. . ... ...
ROW EE : ... .. . ... ... ... : ... .. . ... ... ... : ... .. . ... : ... .. A ... : ... .. . ... ...
ROW EF : ... .. D ... ... ... : ... .. . ... ... ... : ... .. . ... : ... .. 9 ... : ... .. . ... ...
ROW F0 : ... .. C ... ... ... : ... .. . ... ... ... : ... .. . ... : ... .. 7 ... : ... .. . ... ...
ROW F1 : ... .. . ... ... ... : ... .. . ... ... ... : ... .. . ... : ... .. 5 ... : ... .. . ... ...
ROW F2 : ... .. B ... ... ... : ... .. . ... ... ... : ... .. . ... : ... .. 4 ... : ... .. . ... ...
ROW F3 : ... .. A ... ... ... : ... .. . ... ... ... : ... .. . ... : ... .. 2 ... : ... .. . ... ...
ROW F4 : ... .. . ... ... ... : ... .. . ... ... ... : ... .. . ... : ... .. 0 ... : ... .. . ... ...
ROW F5 : ... .. 9 ... ... ... : ... .. . ... ... ... : ... .. . ... : ... .. . ... : ... .. . ... ...
ROW F6 : ... .. . ... ... ... : ... .. . ... ... ... : ... .. . ... : ... .. . ... : ... .. . ... ...
ROW F7 : A-2 00 F P7F V03 ... : ... .. . ... ... ... : ... .. . ... : 4-# 00 F ... : ... .. . ... ...
ROW F8 : ... .. . ... V01 ... : ... .. . ... ... ... : ... .. . ... : ... .. E ... : ... .. . ... ...
ROW F9 : ... .. E ... V02 ... : ... .. . ... ... ... : ... .. . ... : ... .. C ... : ... .. . ... ...
ROW FA : ... .. . ... ... ... : ... .. . ... ... ... : ... .. . ... : ... .. A ... : ... .. . ... ...
ROW FB : ... .. D ... ... ... : ... .. . ... ... ... : ... .. . ... : ... .. 9 ... : ... .. . ... ...
ROW FC : ... .. C ... ... ... : ... .. . ... ... ... : ... .. . ... : ... .. 7 ... : ... .. . ... ...
ROW FD : ... .. . ... ... ... : ... .. . ... ... ... : ... .. . ... : ... .. 5 ... : ... .. . ... ...
ROW FE : ... .. B ... ... ... : ... .. . ... ... ... : ... .. . ... : ... .. 4 ... : ... .. . ... ...
ROW FF : ... .. A ... ... ... : ... .. . ... ... ... : ... .. . ... : ... .. 2 ... : ... .. . ... ...

PATTERN 11
ROW 00 : ... .. . ... ... ... : ... .. . ... ... ... : ... .. . ... : ... .. 0 ... : ... .. . ... ...
ROW 01 : ... .. 9 ... ... ... : ... .. . ... ... ... : ... .. . ... : ... .. . ... : ... .. . ... ...
ROW 02 : ... .. . ... ... ... : ... .. . ... ... ... : ... .. . ... : ... .. . ... : ... .. . ... ...
ROW 03 : A-1 00 F P80 V03 ... : ... .. . ... ... ... : ... .. . ... : F-# 00 F ... : ... .. . ... ...
ROW 04 : ... .. . ... V01 ... : ... .. . ... ... ... : ... .. . ... : ... .. E ... : ... .. . ... ...
ROW 05 : ... .. E ... V02 ... : ... .. . ... ... ... : ... .. . ... : ... .. C ... : ... .. . ... ...
ROW 06 : ... .. . ... ... ... : ... .. . ... ... ... : ... .. . ... : ... .. A ... : ... .. . ... ...
ROW 07 : ... .. D ... ... ... : ... .. . ... ... ... : ... .. . ... : ... .. 9 ... : ... .. . ... ...
ROW 08 : ... .. C ... ... ... : ... .. . ... ... ... : ... .. . ... : ... .. 7 ... : ... .. . ... ...
ROW 09 : ... .. . ... ... ... : ... .. . ... ... ... : ... .. . ... : ... .. 5 ... : ... .. . ... ...
ROW 0A : ... .. B ... ... ... : ... .. . ... ... ... : ... .. . ... : ... .. 4 ... : ... .. . ... ...
ROW 0B : ... .. A ... ... ... : ... .. . ... ... ... : ... .. . ... : ... .. 2 ... : ... .. . ... ...
ROW 0C : ... .. . ... ... ... : ... .. . ... ... ... : ... .. . ... : ... .. 0 ... : ... .. . ... ...
ROW 0D : ... .. 9 ... ... ... : ... .. . ... ... ... : ... .. . ... : ... .. . ... : ... .. . ... ...
ROW 0E : ... .. . ... ... ... : ... .. . ... ... ... : ... .. . ... : ... .. . ... : ... .. . ... ...
ROW 0F : G-1 00 F ... V03 ... : C-4 00 F P7F V03 ... : C-6 00 . P7F : 0-# 00 F ... : ... .. . ... ...
ROW 10 : ... .. . ... V01 ... : ... .. . ... V01 ... : ... .. . ... : ... .. E ... : ... .. . ... ...
ROW 11 : ... .. E ... V02 ... : ... .. E ... V02 ... : ... .. . ... : ... .. C ... : ... .. . ... ...
ROW 12 : ... .. . ... ... ... : ... .. . ... ... ... : ... .. . ... : ... .. A ... : ... .. . ... ...
ROW 13 : ... .. D ... ... ... : ... .. D ... ... ... : ... .. . ... : ... .. 9 ... : ... .. . ... ...
ROW 14 : ... .. C ... ... ... : ... .. C ... ... ... : ... .. . ... : ... .. 7 ... : ... .. . ... ...
ROW 15 : ... .. . ... ... ... : ... .. . ... ... ... : ... .. . ... : ... .. 5 ... : ... .. . ... ...
ROW 16 : ... .. B ... ... ... : ... .. B ... ... ... : ... .. . ... : ... .. 4 ... : ... .. . ... ...
ROW 17 : ... .. A ... ... ... : ... .. A ... ... ... : ... .. . ... : ... .. 2 ... : ... .. . ... ...
ROW 18 : ... .. . ... ... ... : ... .. . ... ... ... : --- .. . ... : ... .. 0 ... : ... .. . ... ...
ROW 19 : ... .. 9 ... ... ... : ... .. 9 ... ... ... : ... .. . ... : ... .. . ... : ... .. . ... ...
ROW 1A : ... .. . ... ... ... : ... .. . ... ... ... : ... .. . ... : ... .. . ... : ... .. . ... ...
ROW 1B : ... .. F ... V03 ... : ... .. 8 ... ... ... : ... .. . ... : F-# 00 F ... : ... .. . ... ...
ROW 1C : ... .. . ... V01 ... : ... .. 7 ... ... ... : ... .. . ... : ... .. E ... : ... .. . ... ...
ROW 1D : ... .. E ... V02 ... : ... .. . ... ... ... : ... .. . ... : ... .. C ... : ... .. . ... ...
ROW 1E : ... .. . ... ... ... : ... .. 6 ... ... ... : ... .. . ... : ... .. A ... : ... .. . ... ...
ROW 1F : ... .. D ... ... ... : ... .. 5 ... ... ... : ... .. . ... : ... .. 9 ... : ... .. . ... ...
ROW 20 : ... .. C ... ... ... : ... .. . ... ... ... : ... .. . ... : ... .. 7 ... : ... .. . ... ...
ROW 21 : ... .. . ... ... ... : ... .. 4 ... ... ... : ... .. . ... : ... .. 5 ... : ... .. . ... ...
ROW 22 : ... .. B ... ... ... : ... .. . ... ... ... : ... .. . ... : ... .. 4 ... : ... .. . ... ...
ROW 23 : ... .. A ... ... ... : ... .. 3 ... ... ... : ... .. . ... : ... .. 2 ... : ... .. . ... ...
ROW 24 : ... .. . ... ... ... : ... .. 2 ... ... ... : ... .. . ... : ... .. 0 ... : ... .. . ... ...
ROW 25 : ... .. 9 ... ... ... : ... .. . ... ... ... : ... .. . ... : ... .. . ... : ... .. . ... ...
ROW 26 : ... .. . ... ... ... : ... .. 1 ... ... ... : ... .. . ... : ... .. . ... : ... .. . ... ...
ROW 27 : G-2 00 F ... V03 ... : B-3 00 F ... V03 ... : B-5 00 . P80 : 4-# 00 F ... : ... .. . ... ...
ROW 28 : ... .. . ... V01 ... : ... .. . ... V01 ... : ... .. . ... : ... .. E ... : ... .. . ... ...
ROW 29 : ... .. E ... V02 ... : ... .. E ... V02 ... : ... .. . ... : ... .. C ... : ... .. . ... ...
ROW 2A : ... .. . ... ... ... : ... .. . ... ... ... : ... .. . ... : ... .. A ... : ... .. . ... ...
ROW 2B : ... .. D ... ... ... : ... .. D ... ... ... : ... .. . ... : ... .. 9 ... : ... .. . ... ...
ROW 2C : ... .. C ... ... ... : ... .. C ... ... ... : ... .. . ... : ... .. 7 ... : ... .. . ... ...
ROW 2D : ... .. . ... ... ... : ... .. . ... ... ... : ... .. . ... : ... .. 5 ... : ... .. . ... ...
ROW 2E : ... .. B ... ... ... : ... .. B ... ... ... : ... .. . ... : ... .. 4 ... : ... .. . ... ...
ROW 2F : ... .. A ... ... ... : ... .. A ... ... ... : ... .. . ... : ... .. 2 ... : ... .. . ... ...
ROW 30 : ... .. . ... ... ... : ... .. . ... ... ... : --- .. . ... : ... .. 0 ... : ... .. . ... ...
ROW 31 : ... .. 9 ... ... ... : ... .. 9 ... ... ... : ... .. . ... : ... .. . ... : ... .. . ... ...
ROW 32 : ... .. . ... ... ... : ... .. . ... ... ... : ... .. . ... : ... .. . ... : ... .. . ... ...
ROW 33 : G-1 00 F ... V03 ... : ... .. 8 ... ... ... : ... .. . ... : F-# 00 F ... : ... .. . ... ...
ROW 34 : ... .. . ... V01 ... : ... .. 7 ... ... ... : ... .. . ... : ... .. E ... : ... .. . ... ...
ROW 35 : ... .. E ... V02 ... : ... .. . ... ... ... : ... .. . ... : ... .. C ... : ... .. . ... ...
ROW 36 : ... .. . ... ... ... : ... .. 6 ... ... ... : ... .. . ... : ... .. A ... : ... .. . ... ...
ROW 37 : ... .. D ... ... ... : ... .. 5 ... ... ... : ... .. . ... : ... .. 9 ... : ... .. . ... ...
ROW 38 : ... .. C ... ... ... : ... .. . ... ... ... : ... .. . ... : ... .. 7 ... : ... .. . ... ...
ROW 39 : ... .. . ... ... ... : ... .. 4 ... ... ... : ... .. . ... : ... .. 5 ... : ... .. . ... ...
ROW 3A : ... .. B ... ... ... : ... .. . ... ... ... : ... .. . ... : ... .. 4 ... : ... .. . ... ...
ROW 3B : ... .. A ... ... ... : ... .. 3 ... ... ... : ... .. . ... : ... .. 2 ... : ... .. . ... ...
ROW 3C : ... .. . ... ... ... : ... .. 2 ... ... ... : ... .. . ... : ... .. 0 ... : ... .. . ... ...
ROW 3D : ... .. 9 ... ... ... : ... .. . ... ... ... : ... .. . ... : ... .. . ... : ... .. . ... ...
ROW 3E : ... .. . ... ... ... : ... .. 1 ... ... ... : ... .. . ... : ... .. . ... : ... .. . ... ...
ROW 3F : A-1 00 F ... V03 ... : C-3 00 F ... V03 ... : C-4 00 . P7F : 0-# 00 F ... : ... .. . ... ...
ROW 40 : ... .. . ... V01 ... : ... .. . ... V01 ... : ... .. . ... : ... .. E ... : ... .. . ... ...
ROW 41 : ... .. E ... V02 ... : ... .. E ... V02 ... : ... .. . ... : ... .. C ... : ... .. . ... ...
ROW 42 : ... .. . ... ... ... : ... .. . ... ... ... : ... .. . ... : ... .. A ... : ... .. . ... ...
ROW 43 : ... .. D ... ... ... : ... .. D ... ... ... : ... .. . ... : ... .. 9 ... : ... .. . ... ...
ROW 44 : ... .. C ... ... ... : ... .. C ... ... ... : ... .. . ... : ... .. 7 ... : ... .. . ... ...
ROW 45 : ... .. . ... ... ... : ... .. . ... ... ... : ... .. . ... : ... .. 5 ... : ... .. . ... ...
ROW 46 : ... .. B ... ... ... : ... .. B ... ... ... : ... .. . ... : ... .. 4 ... : ... .. . ... ...
ROW 47 : ... .. A ... ... ... : ... .. A ... ... ... : ... .. . ... : ... .. 2 ... : ... .. . ... ...
ROW 48 : ... .. . ... ... ... : ... .. . ... ... ... : --- .. . ... : ... .. 0 ... : ... .. . ... ...
ROW 49 : ... .. 9 ... ... ... : ... .. 9 ... ... ... : ... .. . ... : ... .. . ... : ... .. . ... ...
ROW 4A : ... .. . ... ... ... : ... .. . ... ... ... : ... .. . ... : ... .. . ... : ... .. . ... ...
ROW 4B : ... .. F ... V03 ... : ... .. 8 ... ... ... : ... .. . ... : F-# 00 F ... : ... .. . ... ...
ROW 4C : ... .. . ... V01 ... : ... .. 7 ... ... ... : ... .. . ... : ... .. E ... : ... .. . ... ...
ROW 4D : ... .. E ... V02 ... : ... .. . ... ... ... : ... .. . ... : ... .. C ... : ... .. . ... ...
ROW 4E : ... .. . ... ... ... : ... .. 6 ... ... ... : ... .. . ... : ... .. A ... : ... .. . ... ...
ROW 4F : ... .. D ... ... ... : ... .. 5 ... ... ... : ... .. . ... : ... .. 9 ... : ... .. . ... ...
ROW 50 : ... .. C ... ... ... : ... .. . ... ... ... : ... .. . ... : ... .. 7 ... : ... .. . ... ...
ROW 51 : ... .. . ... ... ... : ... .. 4 ... ... ... : ... .. . ... : ... .. 5 ... : ... .. . ... ...
ROW 52 : ... .. B ... ... ... : ... .. . ... ... ... : ... .. . ... : ... .. 4 ... : ... .. . ... ...
ROW 53 : ... .. A ... ... ... : ... .. 3 ... ... ... : ... .. . ... : ... .. 2 ... : ... .. . ... ...
ROW 54 : ... .. . ... ... ... : ... .. 2 ... ... ... : ... .. . ... : ... .. 0 ... : ... .. . ... ...
ROW 55 : ... .. 9 ... ... ... : ... .. . ... ... ... : ... .. . ... : ... .. . ... : ... .. . ... ...
ROW 56 : ... .. . ... ... ... : ... .. 1 ... ... ... : ... .. . ... : ... .. . ... : ... .. . ... ...
ROW 57 : A-2 00 F P7F V03 ... : A-3 00 F ... V03 ... : A-4 00 . ... : 4-# 00 F ... : ... .. . ... ...
ROW 58 : ... .. . ... V01 ... : ... .. . ... V01 ... : ... .. . ... : ... .. E ... : ... .. . ... ...
ROW 59 : ... .. E ... V02 ... : ... .. E ... V02 ... : ... .. . ... : ... .. C ... : ... .. . ... ...
ROW 5A : ... .. . ... ... ... : ... .. . ... ... ... : ... .. . ... : ... .. A ... : ... .. . ... ...
ROW 5B : ... .. D ... ... ... : ... .. D ... ... ... : ... .. . ... : ... .. 9 ... : ... .. . ... ...
ROW 5C : ... .. C ... ... ... : ... .. C ... ... ... : ... .. . ... : ... .. 7 ... : ... .. . ... ...
ROW 5D : ... .. . ... ... ... : ... .. . ... ... ... : ... .. . ... : ... .. 5 ... : ... .. . ... ...
ROW 5E : ... .. B ... ... ... : ... .. B ... ... ... : ... .. . ... : ... .. 4 ... : ... .. . ... ...
ROW 5F : ... .. A ... ... ... : ... .. A ... ... ... : ... .. . ... : ... .. 2 ... : ... .. . ... ...
ROW 60 : ... .. . ... ... ... : ... .. . ... ... ... : --- .. . ... : ... .. 0 ... : ... .. . ... ...
ROW 61 : ... .. 9 ... ... ... : ... .. 9 ... ... ... : ... .. . ... : ... .. . ... : ... .. . ... ...
ROW 62 : ... .. . ... ... ... : ... .. . ... ... ... : ... .. . ... : ... .. . ... : ... .. . ... ...
ROW 63 : A-1 00 F P80 V03 ... : ... .. 8 ... ... ... : ... .. . ... : F-# 00 F ... : ... .. . ... ...
ROW 64 : ... .. . ... V01 ... : ... .. 7 ... ... ... : ... .. . ... : ... .. E ... : ... .. . ... ...
ROW 65 : ... .. E ... V02 ... : ... .. . ... ... ... : ... .. . ... : ... .. C ... : ... .. . ... ...
ROW 66 : ... .. . ... ... ... : ... .. 6 ... ... ... : ... .. . ... : ... .. A ... : ... .. . ... ...
ROW 67 : ... .. D ... ... ... : ... .. 5 ... ... ... : ... .. . ... : ... .. 9 ... : ... .. . ... ...
ROW 68 : ... .. C ... ... ... : ... .. . ... ... ... : ... .. . ... : ... .. 7 ... : ... .. . ... ...
ROW 69 : ... .. . ... ... ... : ... .. 4 ... ... ... : ... .. . ... : ... .. 5 ... : ... .. . ... ...
ROW 6A : ... .. B ... ... ... : ... .. . ... ... ... : ... .. . ... : ... .. 4 ... : ... .. . ... ...
ROW 6B : ... .. A ... ... ... : ... .. 3 ... ... ... : ... .. . ... : ... .. 2 ... : ... .. . ... ...
ROW 6C : ... .. . ... ... ... : ... .. 2 ... ... ... : ... .. . ... : ... .. 0 ... : ... .. . ... ...
ROW 6D : ... .. 9 ... ... ... : ... .. . ... ... ... : ... .. . ... : ... .. . ... : ... .. . ... ...
ROW 6E : ... .. . ... ... ... : ... .. 1 ... ... ... : ... .. . ... : ... .. . ... : ... .. . ... ...
ROW 6F : ... .. F ... V03 ... : A-2 00 F ... V03 ... : A-3 00 . ... : 0-# 00 F ... : ... .. . ... ...
ROW 70 : ... .. . ... V01 ... : ... .. . ... V01 ... : ... .. . ... : ... .. E ... : ... .. . ... ...
ROW 71 : ... .. E ... V02 ... : ... .. E ... V02 ... : ... .. . ... : ... .. C ... : ... .. . ... ...
ROW 72 : ... .. . ... ... ... : ... .. . ... ... ... : ... .. . ... : ... .. A ... : ... .. . ... ...
ROW 73 : ... .. D ... ... ... : ... .. D ... ... ... : ... .. . ... : ... .. 9 ... : ... .. . ... ...
ROW 74 : ... .. C ... ... ... : ... .. C ... ... ... : ... .. . ... : ... .. 7 ... : ... .. . ... ...
ROW 75 : ... .. . ... ... ... : ... .. . ... ... ... : ... .. . ... : ... .. 5 ... : ... .. . ... ...
ROW 76 : ... .. B ... ... ... : ... .. B ... ... ... : ... .. . ... : ... .. 4 ... : ... .. . ... ...
ROW 77 : ... .. A ... ... ... : ... .. A ... ... ... : ... .. . ... : ... .. 2 ... : ... .. . ... ...
ROW 78 : ... .. . ... ... ... : ... .. . ... ... ... : --- .. . ... : ... .. 0 ... : ... .. . ... ...
ROW 79 : ... .. 9 ... ... ... : ... .. 9 ... ... ... : ... .. . ... : ... .. . ... : ... .. . ... ...
ROW 7A : ... .. . ... ... ... : ... .. . ... ... ... : ... .. . ... : ... .. . ... : ... .. . ... ...
ROW 7B : ... .. F ... V03 ... : ... .. 8 ... ... ... : ... .. . ... : F-# 00 F ... : ... .. . ... ...
ROW 7C : ... .. . ... V01 ... : ... .. 7 ... ... ... : ... .. . ... : ... .. E ... : ... .. . ... ...
ROW 7D : ... .. E ... V02 ... : ... .. . ... ... ... : ... .. . ... : ... .. C ... : ... .. . ... ...
ROW 7E : ... .. . ... ... ... : ... .. 6 ... ... ... : ... .. . ... : ... .. A ... : ... .. . ... ...
ROW 7F : ... .. D ... ... ... : ... .. 5 ... ... ... : ... .. . ... : ... .. 9 ... : ... .. . ... ...
ROW 80 : ... .. C ... ... ... : ... .. . ... ... ... : ... .. . ... : ... .. 7 ... : ... .. . ... ...
ROW 81 : ... .. . ... ... ... : ... .. 4 ... ... ... : ... .. . ... : ... .. 5 ... : ... .. . ... ...
ROW 82 : ... .. B ... ... ... : ... .. . ... ... ... : ... .. . ... : ... .. 4 ... : ... .. . ... ...
ROW 83 : ... .. A ... ... ... : ... .. 3 ... ... ... : ... .. . ... : ... .. 2 ... : ... .. . ... ...
ROW 84 : ... .. . ... ... ... : ... .. 2 ... ... ... : ... .. . ... : ... .. 0 ... : ... .. . ... ...
ROW 85 : ... .. 9 ... ... ... : ... .. . ... ... ... : ... .. . ... : ... .. . ... : ... .. . ... ...
ROW 86 : ... .. . ... ... ... : ... .. 1 ... ... ... : ... .. . ... : ... .. . ... : ... .. . ... ...
ROW 87 : A-2 00 F P7F V03 ... : ... .. 0 ... V00 ... : ... .. . ... : 4-# 00 F ... : ... .. . ... ...
ROW 88 : ... .. . ... V01 ... : ... .. . ... ... ... : ... .. . ... : ... .. E ... : ... .. . ... ...
ROW 89 : ... .. E ... V02 ... : ... .. . ... ... ... : ... .. . ... : ... .. C ... : ... .. . ... ...
ROW 8A : ... .. . ... ... ... : ... .. . ... ... ... : ... .. . ... : ... .. A ... : ... .. . ... ...
ROW 8B : ... .. D ... ... ... : ... .. . ... ... ... : ... .. . ... : ... .. 9 ... : ... .. . ... ...
ROW 8C : ... .. C ... ... ... : ... .. . ... ... ... : ... .. . ... : ... .. 7 ... : ... .. . ... ...
ROW 8D : ... .. . ... ... ... : ... .. . ... ... ... : ... .. . ... : ... .. 5 ... : ... .. . ... ...
ROW 8E : ... .. B ... ... ... : ... .. . ... ... ... : ... .. . ... : ... .. 4 ... : ... .. . ... ...
ROW 8F : ... .. A ... ... ... : ... .. . ... ... ... : ... .. . ... : ... .. 2 ... : ... .. . ... ...
ROW 90 : ... .. . ... ... ... : ... .. . ... ... ... : ... .. . ... : ... .. 0 ... : ... .. . ... ...
ROW 91 : ... .. 9 ... ... ... : ... .. . ... ... ... : ... .. . ... : ... .. . ... : ... .. . ... ...
ROW 92 : ... .. . ... ... ... : ... .. . ... ... ... : ... .. . ... : ... .. . ... : ... .. . ... ...
ROW 93 : A-1 00 F P80 V03 ... : ... .. . ... ... ... : ... .. . ... : F-# 00 F ... : ... .. . ... ...
ROW 94 : ... .. . ... V01 ... : ... .. . ... ... ... : ... .. . ... : ... .. E ... : ... .. . ... ...
ROW 95 : ... .. E ... V02 ... : ... .. . ... ... ... : ... .. . ... : ... .. C ... : ... .. . ... ...
ROW 96 : ... .. . ... ... ... : ... .. . ... ... ... : ... .. . ... : ... .. A ... : ... .. . ... ...
ROW 97 : ... .. D ... ... ... : ... .. . ... ... ... : ... .. . ... : ... .. 9 ... : ... .. . ... ...
ROW 98 : ... .. C ... ... ... : ... .. . ... ... ... : ... .. . ... : ... .. 7 ... : ... .. . ... ...
ROW 99 : ... .. . ... ... ... : ... .. . ... ... ... : ... .. . ... : ... .. 5 ... : ... .. . ... ...
ROW 9A : ... .. B ... ... ... : ... .. . ... ... ... : ... .. . ... : ... .. 4 ... : ... .. . ... ...
ROW 9B : ... .. A ... ... ... : ... .. . ... ... ... : ... .. . ... : ... .. 2 ... : ... .. . ... ...
ROW 9C : ... .. . ... ... ... : ... .. . ... ... ... : ... .. . ... : ... .. 0 ... : ... .. . ... ...
ROW 9D : ... .. 9 ... ... ... : ... .. . ... ... ... : ... .. . ... : ... .. . ... : ... .. . ... ...
ROW 9E : ... .. . ... ... ... : ... .. . ... ... ... : ... .. . ... : ... .. . ... : ... .. . ... ...
ROW 9F : ... .. F ... V03 ... : ... .. . ... ... ... : ... .. . ... : 0-# 00 F ... : ... .. . ... ...
ROW A0 : ... .. . ... V01 ... : ... .. . ... ... ... : ... .. . ... : ... .. E ... : ... .. . ... ...
ROW A1 : ... .. E ... V02 ... : ... .. . ... ... ... : ... .. . ... : ... .. C ... : ... .. . ... ...
ROW A2 : ... .. . ... ... ... : ... .. . ... ... ... : ... .. . ... : ... .. A ... : ... .. . ... ...
ROW A3 : ... .. D ... ... ... : ... .. . ... ... ... : ... .. . ... : ... .. 9 ... : ... .. . ... ...
ROW A4 : ... .. C ... ... ... : ... .. . ... ... ... : ... .. . ... : ... .. 7 ... : ... .. . ... ...
ROW A5 : ... .. . ... ... ... : ... .. . ... ... ... : ... .. . ... : ... .. 5 ... : ... .. . ... ...
ROW A6 : ... .. B ... ... ... : ... .. . ... ... ... : ... .. . ... : ... .. 4 ... : ... .. . ... ...
ROW A7 : ... .. A ... ... ... : ... .. . ... ... ... : ... .. . ... : ... .. 2 ... : ... .. . ... ...
ROW A8 : ... .. . ... ... ... : ... .. . ... ... ... : ... .. . ... : ... .. 0 ... : ... .. . ... ...
ROW A9 : ... .. 9 ... ... ... : ... .. . ... ... ... : ... .. . ... : ... .. . ... : ... .. . ... ...
ROW AA : ... .. . ... ... ... : ... .. . ... ... ... : ... .. . ... : ... .. . ... : ... .. . ... ...
ROW AB : ... .. F ... V03 ... : ... .. . ... ... ... : ... .. . ... : F-# 00 F ... : ... .. . ... ...
ROW AC : ... .. . ... V01 ... : ... .. . ... ... ... : ... .. . ... : ... .. E ... : ... .. . ... ...
ROW AD : ... .. E ... V02 ... : ... .. . ... ... ... : ... .. . ... : ... .. C ... : ... .. . ... ...
ROW AE : ... .. . ... ... ... : ... .. . ... ... ... : ... .. . ... : ... .. A ... : ... .. . ... ...
ROW AF : ... .. D ... ... ... : ... .. . ... ... ... : ... .. . ... : ... .. 9 ... : ... .. . ... ...
ROW B0 : ... .. C ... ... ... : ... .. . ... ... ... : ... .. . ... : ... .. 7 ... : ... .. . ... ...
ROW B1 : ... .. . ... ... ... : ... .. . ... ... ... : ... .. . ... : ... .. 5 ... : ... .. . ... ...
ROW B2 : ... .. B ... ... ... : ... .. . ... ... ... : ... .. . ... : ... .. 4 ... : ... .. . ... ...
ROW B3 : ... .. A ... ... ... : ... .. . ... ... ... : ... .. . ... : ... .. 2 ... : ... .. . ... ...
ROW B4 : ... .. . ... ... ... : ... .. . ... ... ... : ... .. . ... : ... .. 0 ... : ... .. . ... ...
ROW B5 : ... .. 9 ... ... ... : ... .. . ... ... ... : ... .. . ... : ... .. . ... : ... .. . ... ...
ROW B6 : ... .. . ... ... ... : ... .. . ... ... ... : ... .. . ... : ... .. . ... : ... .. . ... ...
ROW B7 : A-2 00 F P7F V03 ... : ... .. . ... ... ... : ... .. . ... : 4-# 00 F ... : ... .. . ... ...
ROW B8 : ... .. . ... V01 ... : ... .. . ... ... ... : ... .. . ... : ... .. E ... : ... .. . ... ...
ROW B9 : ... .. E ... V02 ... : ... .. . ... ... ... : ... .. . ... : ... .. C ... : ... .. . ... ...
ROW BA : ... .. . ... ... ... : ... .. . ... ... ... : ... .. . ... : ... .. A ... : ... .. . ... ...
ROW BB : ... .. D ... ... ... : ... .. . ... ... ... : ... .. . ... : ... .. 9 ... : ... .. . ... ...
ROW BC : ... .. C ... ... ... : ... .. . ... ... ... : ... .. . ... : ... .. 7 ... : ... .. . ... ...
ROW BD : ... .. . ... ... ... : ... .. . ... ... ... : ... .. . ... : ... .. 5 ... : ... .. . ... ...
ROW BE : ... .. B ... ... ... : ... .. . ... ... ... : ... .. . ... : ... .. 4 ... : ... .. . ... ...
ROW BF : ... .. A ... ... ... : ... .. . ... ... ... : ... .. . ... : ... .. 2 ... : ... .. . ... ...
ROW C0 : ... .. . ... ... ... : ... .. . ... ... ... : ... .. . ... : ... .. 0 ... : ... .. . ... ...
ROW C1 : ... .. 9 ... ... ... : ... .. . ... ... ... : ... .. . ... : ... .. . ... : ... .. . ... ...
ROW C2 : ... .. . ... ... ... : ... .. . ... ... ... : ... .. . ... : ... .. . ... : ... .. . ... ...
ROW C3 : A-1 00 F P80 V03 ... : ... .. . ... ... ... : ... .. . ... : F-# 00 F ... : ... .. . ... ...
ROW C4 : ... .. . ... V01 ... : ... .. . ... ... ... : ... .. . ... : ... .. E ... : ... .. . ... ...
ROW C5 : ... .. E ... V02 ... : ... .. . ... ... ... : ... .. . ... : ... .. C ... : ... .. . ... ...
ROW C6 : ... .. . ... ... ... : ... .. . ... ... ... : ... .. . ... : ... .. A ... : ... .. . ... ...
ROW C7 : ... .. D ... ... ... : ... .. . ... ... ... : ... .. . ... : ... .. 9 ... : ... .. . ... ...
ROW C8 : ... .. C ... ... ... : ... .. . ... ... ... : ... .. . ... : ... .. 7 ... : ... .. . ... ...
ROW C9 : ... .. . ... ... ... : ... .. . ... ... ... : ... .. . ... : ... .. 5 ... : ... .. . ... ...
ROW CA : ... .. B ... ... ... : ... .. . ... ... ... : ... .. . ... : ... .. 4 ... : ... .. . ... ...
ROW CB : ... .. A ... ... ... : ... .. . ... ... ... : ... .. . ... : ... .. 2 ... : ... .. . ... ...
ROW CC : ... .. . ... ... ... : ... .. . ... ... ... : ... .. . ... : ... .. 0 ... : ... .. . ... ...
ROW CD : ... .. 9 ... ... ... : ... .. . ... ... ... : ... .. . ... : ... .. . ... : ... .. . ... ...
ROW CE : ... .. . ... ... ... : ... .. . ... ... ... : ... .. . ... : ... .. . ... : ... .. . ... ...
ROW CF : G-1 00 F ... V03 ... : A-2 00 F P7F V03 ... : A-3 00 . ... : 0-# 00 F ... : ... .. . ... ...
ROW D0 : ... .. . ... V01 ... : ... .. . ... V01 ... : ... .. . ... : ... .. E ... : ... .. . ... ...
ROW D1 : ... .. E ... V02 ... : ... .. E ... V02 ... : ... .. . ... : ... .. C ... : ... .. . ... ...
ROW D2 : ... .. . ... ... ... : ... .. . ... ... ... : ... .. . ... : ... .. A ... : ... .. . ... ...
ROW D3 : ... .. D ... ... ... : ... .. D ... ... ... : ... .. . ... : ... .. 9 ... : ... .. . ... ...
ROW D4 : ... .. C ... ... ... : ... .. C ... ... ... : ... .. . ... : ... .. 7 ... : ... .. . ... ...
ROW D5 : ... .. . ... ... ... : ... .. . ... ... ... : ... .. . ... : ... .. 5 ... : ... .. . ... ...
ROW D6 : ... .. B ... ... ... : ... .. B ... ... ... : ... .. . ... : ... .. 4 ... : ... .. . ... ...
ROW D7 : ... .. A ... ... ... : ... .. A ... ... ... : ... .. . ... : ... .. 2 ... : ... .. . ... ...
ROW D8 : ... .. . ... ... ... : ... .. . ... ... ... : --- .. . ... : ... .. 0 ... : ... .. . ... ...
ROW D9 : ... .. 9 ... ... ... : ... .. 9 ... ... ... : ... .. . ... : ... .. . ... : ... .. . ... ...
ROW DA : ... .. . ... ... ... : ... .. . ... ... ... : ... .. . ... : ... .. . ... : ... .. . ... ...
ROW DB : ... .. F ... V03 ... : ... .. 8 ... ... ... : ... .. . ... : F-# 00 F ... : ... .. . ... ...
ROW DC : ... .. . ... V01 ... : ... .. 7 ... ... ... : ... .. . ... : ... .. E ... : ... .. . ... ...
ROW DD : ... .. E ... V02 ... : ... .. . ... ... ... : ... .. . ... : ... .. C ... : ... .. . ... ...
ROW DE : ... .. . ... ... ... : ... .. 6 ... ... ... : ... .. . ... : ... .. A ... : ... .. . ... ...
ROW DF : ... .. D ... ... ... : ... .. 5 ... ... ... : ... .. . ... : ... .. 9 ... : ... .. . ... ...
ROW E0 : ... .. C ... ... ... : ... .. . ... ... ... : ... .. . ... : ... .. 7 ... : ... .. . ... ...
ROW E1 : ... .. . ... ... ... : ... .. 4 ... ... ... : ... .. . ... : ... .. 5 ... : ... .. . ... ...
ROW E2 : ... .. B ... ... ... : ... .. . ... ... ... : ... .. . ... : ... .. 4 ... : ... .. . ... ...
ROW E3 : ... .. A ... ... ... : ... .. 3 ... ... ... : ... .. . ... : ... .. 2 ... : ... .. . ... ...
ROW E4 : ... .. . ... ... ... : ... .. 2 ... ... ... : ... .. . ... : ... .. 0 ... : ... .. . ... ...
ROW E5 : ... .. 9 ... ... ... : ... .. . ... ... ... : ... .. . ... : ... .. . ... : ... .. . ... ...
ROW E6 : ... .. . ... ... ... : ... .. 1 ... ... ... : ... .. . ... : ... .. . ... : ... .. . ... ...
ROW E7 : G-2 00 F ... V03 ... : C-3 00 F ... V03 ... : C-4 00 . ... : 4-# 00 F ... : ... .. . ... ...
ROW E8 : ... .. . ... V01 ... : ... .. . ... V01 ... : ... .. . ... : ... .. E ... : ... .. . ... ...
ROW E9 : ... .. E ... V02 ... : ... .. E ... V02 ... : ... .. . ... : ... .. C ... : ... .. . ... ...
ROW EA : ... .. . ... ... ... : ... .. . ... ... ... : ... .. . ... : ... .. A ... : ... .. . ... ...
ROW EB : ... .. D ... ... ... : ... .. D ... ... ... : ... .. . ... : ... .. 9 ... : ... .. . ... ...
ROW EC : ... .. C ... ... ... : ... .. C ... ... ... : ... .. . ... : ... .. 7 ... : ... .. . ... ...
ROW ED : ... .. . ... ... ... : ... .. . ... ... ... : ... .. . ... : ... .. 5 ... : ... .. . ... ...
ROW EE : ... .. B ... ... ... : ... .. B ... ... ... : ... .. . ... : ... .. 4 ... : ... .. . ... ...
ROW EF : ... .. A ... ... ... : ... .. A ... ... ... : ... .. . ... : ... .. 2 ... : ... .. . ... ...
ROW F0 : ... .. . ... ... ... : ... .. . ... ... ... : --- .. . ... : ... .. 0 ... : ... .. . ... ...
ROW F1 : ... .. 9 ... ... ... : ... .. 9 ... ... ... : ... .. . ... : ... .. . ... : ... .. . ... ...
ROW F2 : ... .. . ... ... ... : ... .. . ... ... ... : ... .. . ... : ... .. . ... : ... .. . ... ...
ROW F3 : G-1 00 F ... V03 ... : ... .. 8 ... ... ... : ... .. . ... : F-# 00 F ... : ... .. . ... ...
ROW F4 : ... .. . ... V01 ... : ... .. 7 ... ... ... : ... .. . ... : ... .. E ... : ... .. . ... ...
ROW F5 : ... .. E ... V02 ... : ... .. . ... ... ... : ... .. . ... : ... .. C ... : ... .. . ... ...
ROW F6 : ... .. . ... ... ... : ... .. 6 ... ... ... : ... .. . ... : ... .. A ... : ... .. . ... ...
ROW F7 : ... .. D ... ... ... : ... .. 5 ... ... ... : ... .. . ... : ... .. 9 ... : ... .. . ... ...
ROW F8 : ... .. C ... ... ... : ... .. . ... ... ... : ... .. . ... : ... .. 7 ... : ... .. . ... ...
ROW F9 : ... .. . ... ... ... : ... .. 4 ... ... ... : ... .. . ... : ... .. 5 ... : ... .. . ... ...
ROW FA : ... .. B ... ... ... : ... .. . ... ... ... : ... .. . ... : ... .. 4 ... : ... .. . ... ...
ROW FB : ... .. A ... ... ... : ... .. 3 ... ... ... : ... .. . ... : ... .. 2 ... : ... .. . ... ...
ROW FC : ... .. . ... ... ... : ... .. 2 ... ... ... : ... .. . ... : ... .. 0 ... : ... .. . ... ...
ROW FD : ... .. 9 ... ... ... : ... .. . ... ... ... : ... .. . ... : ... .. . ... : ... .. . ... ...
ROW FE : ... .. . ... ... ... : ... .. 1 ... ... ... : ... .. . ... : ... .. . ... : ... .. . ... ...
ROW FF : F-1 00 F ... V03 ... : A-4 00 F ... V00 ... : C-5 00 . ... : 0-# 00 F ... : ... .. . ... ...

PATTERN 12
ROW 00 : ... .. . ... V01 ... : ... .. . ... ... ... : ... .. . ... : ... .. E ... : ... .. . ... ...
ROW 01 : ... .. E ... V02 ... : ... .. . ... ... ... : ... .. . ... : ... .. C ... : ... .. . ... ...
ROW 02 : ... .. . ... ... ... : ... .. . ... ... ... : ... .. . ... : ... .. A ... : ... .. . ... ...
ROW 03 : ... .. D ... ... ... : ... .. E ... ... ... : ... .. . ... : ... .. 9 ... : ... .. . ... ...
ROW 04 : ... .. C ... ... ... : ... .. . ... ... ... : ... .. . ... : ... .. 7 ... : ... .. . ... ...
ROW 05 : ... .. . ... ... ... : ... .. . ... ... ... : ... .. . ... : ... .. 5 ... : ... .. . ... ...
ROW 06 : ... .. B ... ... ... : ... .. D ... ... ... : ... .. . ... : ... .. 4 ... : ... .. . ... ...
ROW 07 : ... .. A ... ... ... : ... .. . ... ... ... : ... .. . ... : ... .. 2 ... : ... .. . ... ...
ROW 08 : ... .. . ... ... ... : ... .. . ... ... ... : ... .. . ... : ... .. 0 ... : ... .. . ... ...
ROW 09 : ... .. 9 ... ... ... : ... .. C ... ... ... : ... .. . ... : ... .. . ... : ... .. . ... ...
ROW 0A : ... .. . ... ... ... : ... .. . ... ... ... : ... .. . ... : ... .. . ... : ... .. . ... ...
ROW 0B : ... .. F ... V03 ... : ... .. . ... ... ... : ... .. . ... : F-# 00 F ... : ... .. . ... ...
ROW 0C : ... .. . ... V01 ... : ... .. . ... ... ... : ... .. . ... : ... .. E ... : ... .. . ... ...
ROW 0D : ... .. E ... V02 ... : ... .. B ... ... ... : ... .. . ... : ... .. C ... : ... .. . ... ...
ROW 0E : ... .. . ... ... ... : ... .. . ... ... ... : ... .. . ... : ... .. A ... : ... .. . ... ...
ROW 0F : ... .. D ... ... ... : ... .. . ... ... ... : ... .. . ... : ... .. 9 ... : ... .. . ... ...
ROW 10 : ... .. C ... ... ... : ... .. A ... ... ... : ... .. . ... : ... .. 7 ... : ... .. . ... ...
ROW 11 : ... .. . ... ... ... : ... .. . ... ... ... : ... .. . ... : ... .. F ... : ... .. . ... ...
ROW 12 : ... .. B ... ... ... : ... .. . ... ... ... : ... .. . ... : ... .. E ... : ... .. . ... ...
ROW 13 : ... .. A ... ... ... : ... .. 9 ... ... ... : ... .. . ... : ... .. C ... : ... .. . ... ...
ROW 14 : ... .. . ... ... ... : ... .. . ... ... ... : ... .. . ... : ... .. A ... : ... .. . ... ...
ROW 15 : ... .. 9 ... ... ... : ... .. . ... ... ... : ... .. . ... : ... .. 9 ... : ... .. . ... ...
ROW 16 : ... .. . ... ... ... : ... .. 8 ... ... ... : ... .. . ... : ... .. 7 ... : ... .. . ... ...
ROW 17 : F-2 00 F ... V03 ... : F-4 00 F ... ... ... : ... .. . ... : 4-# 00 F ... : ... .. . ... ...
ROW 18 : ... .. . ... V01 ... : ... .. . ... ... ... : ... .. . ... : ... .. E ... : ... .. . ... ...
ROW 19 : ... .. E ... V02 ... : ... .. . ... ... ... : ... .. . ... : ... .. C ... : ... .. . ... ...
ROW 1A : ... .. . ... ... ... : ... .. . ... ... ... : ... .. . ... : ... .. A ... : ... .. . ... ...
ROW 1B : ... .. D ... ... ... : ... .. E ... ... ... : ... .. . ... : ... .. 9 ... : ... .. . ... ...
ROW 1C : ... .. C ... ... ... : ... .. . ... ... ... : ... .. . ... : ... .. 7 ... : ... .. . ... ...
ROW 1D : ... .. . ... ... ... : ... .. . ... ... ... : ... .. . ... : ... .. 5 ... : ... .. . ... ...
ROW 1E : ... .. B ... ... ... : ... .. D ... ... ... : ... .. . ... : ... .. 4 ... : ... .. . ... ...
ROW 1F : ... .. A ... ... ... : ... .. . ... ... ... : ... .. . ... : ... .. 2 ... : ... .. . ... ...
ROW 20 : ... .. . ... ... ... : ... .. . ... ... ... : ... .. . ... : ... .. 0 ... : ... .. . ... ...
ROW 21 : ... .. 9 ... ... ... : ... .. C ... ... ... : ... .. . ... : ... .. . ... : ... .. . ... ...
ROW 22 : ... .. . ... ... ... : ... .. . ... ... ... : ... .. . ... : ... .. . ... : ... .. . ... ...
ROW 23 : F-1 00 F ... V03 ... : ... .. . ... ... ... : ... .. . ... : F-# 00 F ... : ... .. . ... ...
ROW 24 : ... .. . ... V01 ... : ... .. . ... ... ... : ... .. . ... : ... .. E ... : ... .. . ... ...
ROW 25 : ... .. E ... V02 ... : ... .. B ... ... ... : ... .. . ... : ... .. C ... : ... .. . ... ...
ROW 26 : ... .. . ... ... ... : ... .. . ... ... ... : ... .. . ... : ... .. A ... : ... .. . ... ...
ROW 27 : ... .. D ... ... ... : ... .. . ... ... ... : ... .. . ... : ... .. 9 ... : ... .. . ... ...
ROW 28 : ... .. C ... ... ... : ... .. A ... ... ... : ... .. . ... : ... .. 7 ... : ... .. . ... ...
ROW 29 : ... .. . ... ... ... : ... .. . ... ... ... : ... .. . ... : 4-# 00 F ... : ... .. . ... ...
ROW 2A : ... .. B ... ... ... : ... .. . ... ... ... : ... .. . ... : ... .. E ... : ... .. . ... ...
ROW 2B : ... .. A ... ... ... : ... .. 9 ... ... ... : ... .. . ... : ... .. C ... : ... .. . ... ...
ROW 2C : ... .. . ... ... ... : ... .. . ... ... ... : ... .. . ... : ... .. A ... : ... .. . ... ...
ROW 2D : ... .. 9 ... ... ... : ... .. . ... ... ... : ... .. . ... : ... .. 9 ... : ... .. . ... ...
ROW 2E : ... .. . ... ... ... : ... .. 8 ... ... ... : ... .. . ... : ... .. 7 ... : ... .. . ... ...
ROW 2F : G-1 00 F ... V03 ... : B-4 00 F ... ... ... : D-5 00 . ... : 0-# 00 F ... : ... .. . ... ...
ROW 30 : ... .. . ... V01 ... : ... .. . ... ... ... : ... .. . ... : ... .. E ... : ... .. . ... ...
ROW 31 : ... .. E ... V02 ... : ... .. . ... ... ... : ... .. . ... : ... .. C ... : ... .. . ... ...
ROW 32 : ... .. . ... ... ... : ... .. . ... ... ... : ... .. . ... : ... .. A ... : ... .. . ... ...
ROW 33 : ... .. D ... ... ... : ... .. E ... ... ... : ... .. . ... : ... .. 9 ... : ... .. . ... ...
ROW 34 : ... .. C ... ... ... : ... .. . ... ... ... : ... .. . ... : ... .. 7 ... : ... .. . ... ...
ROW 35 : ... .. . ... ... ... : ... .. . ... ... ... : ... .. . ... : ... .. 5 ... : ... .. . ... ...
ROW 36 : ... .. B ... ... ... : ... .. D ... ... ... : ... .. . ... : ... .. 4 ... : ... .. . ... ...
ROW 37 : ... .. A ... ... ... : ... .. . ... ... ... : ... .. . ... : ... .. 2 ... : ... .. . ... ...
ROW 38 : ... .. . ... ... ... : ... .. . ... ... ... : ... .. . ... : ... .. 0 ... : ... .. . ... ...
ROW 39 : ... .. 9 ... ... ... : ... .. C ... ... ... : ... .. . ... : ... .. . ... : ... .. . ... ...
ROW 3A : ... .. . ... ... ... : ... .. . ... ... ... : ... .. . ... : ... .. . ... : ... .. . ... ...
ROW 3B : ... .. F ... V03 ... : ... .. . ... ... ... : ... .. . ... : F-# 00 F ... : ... .. . ... ...
ROW 3C : ... .. . ... V01 ... : ... .. . ... ... ... : ... .. . ... : ... .. E ... : ... .. . ... ...
ROW 3D : ... .. E ... V02 ... : ... .. B ... ... ... : ... .. . ... : ... .. C ... : ... .. . ... ...
ROW 3E : ... .. . ... ... ... : ... .. . ... ... ... : ... .. . ... : ... .. A ... : ... .. . ... ...
ROW 3F : ... .. D ... ... ... : ... .. . ... ... ... : ... .. . ... : ... .. 9 ... : ... .. . ... ...
ROW 40 : ... .. C ... ... ... : ... .. A ... ... ... : ... .. . ... : ... .. 7 ... : ... .. . ... ...
ROW 41 : ... .. . ... ... ... : ... .. . ... ... ... : ... .. . ... : 0-# 00 F ... : ... .. . ... ...
ROW 42 : ... .. B ... ... ... : ... .. . ... ... ... : ... .. . ... : ... .. E ... : ... .. . ... ...
ROW 43 : ... .. A ... ... ... : ... .. 9 ... ... ... : ... .. . ... : ... .. C ... : ... .. . ... ...
ROW 44 : ... .. . ... ... ... : ... .. . ... ... ... : ... .. . ... : ... .. A ... : ... .. . ... ...
ROW 45 : ... .. 9 ... ... ... : ... .. . ... ... ... : ... .. . ... : ... .. 9 ... : ... .. . ... ...
ROW 46 : ... .. . ... ... ... : ... .. 8 ... ... ... : ... .. . ... : ... .. 7 ... : ... .. . ... ...
ROW 47 : G-2 00 F ... V03 ... : G-4 00 F P80 ... ... : ... .. . ... : 4-# 00 F ... : ... .. . ... ...
ROW 48 : ... .. . ... V01 ... : ... .. . ... ... ... : ... .. . ... : ... .. E ... : ... .. . ... ...
ROW 49 : ... .. E ... V02 ... : ... .. . ... ... ... : ... .. . ... : ... .. C ... : ... .. . ... ...
ROW 4A : ... .. . ... ... ... : ... .. . ... ... ... : ... .. . ... : ... .. A ... : ... .. . ... ...
ROW 4B : ... .. D ... ... ... : ... .. E ... ... ... : ... .. . ... : ... .. 9 ... : ... .. . ... ...
ROW 4C : ... .. C ... ... ... : ... .. . ... ... ... : ... .. . ... : ... .. 7 ... : ... .. . ... ...
ROW 4D : ... .. . ... ... ... : ... .. . ... ... ... : ... .. . ... : ... .. 5 ... : ... .. . ... ...
ROW 4E : ... .. B ... ... ... : ... .. D ... ... ... : ... .. . ... : ... .. 4 ... : ... .. . ... ...
ROW 4F : ... .. A ... ... ... : ... .. . ... ... ... : ... .. . ... : ... .. 2 ... : ... .. . ... ...
ROW 50 : ... .. . ... ... ... : ... .. . ... ... ... : ... .. . ... : ... .. 0 ... : ... .. . ... ...
ROW 51 : ... .. 9 ... ... ... : ... .. C ... ... ... : ... .. . ... : ... .. . ... : ... .. . ... ...
ROW 52 : ... .. . ... ... ... : ... .. . ... ... ... : ... .. . ... : ... .. . ... : ... .. . ... ...
ROW 53 : G-1 00 F ... V03 ... : ... .. . ... ... ... : ... .. . ... : F-# 00 F ... : ... .. . ... ...
ROW 54 : ... .. . ... V01 ... : ... .. . ... ... ... : ... .. . ... : ... .. E ... : ... .. . ... ...
ROW 55 : ... .. E ... V02 ... : ... .. B ... ... ... : ... .. . ... : ... .. C ... : ... .. . ... ...
ROW 56 : ... .. . ... ... ... : ... .. . ... ... ... : ... .. . ... : ... .. A ... : ... .. . ... ...
ROW 57 : ... .. D ... ... ... : ... .. . ... ... ... : ... .. . ... : ... .. 9 ... : ... .. . ... ...
ROW 58 : ... .. C ... ... ... : ... .. A ... ... ... : ... .. . ... : ... .. 7 ... : ... .. . ... ...
ROW 59 : ... .. . ... ... ... : ... .. . ... ... ... : ... .. . ... : 4-# 00 F ... : ... .. . ... ...
ROW 5A : ... .. B ... ... ... : ... .. . ... ... ... : ... .. . ... : ... .. E ... : ... .. . ... ...
ROW 5B : ... .. A ... ... ... : ... .. 9 ... ... ... : ... .. . ... : ... .. C ... : ... .. . ... ...
ROW 5C : ... .. . ... ... ... : ... .. . ... ... ... : ... .. . ... : ... .. A ... : ... .. . ... ...
ROW 5D : ... .. 9 ... ... ... : ... .. . ... ... ... : ... .. . ... : ... .. 9 ... : ... .. . ... ...
ROW 5E : ... .. . ... ... ... : ... .. 8 ... ... ... : ... .. . ... : ... .. 7 ... : ... .. . ... ...
ROW 5F : C-2 00 F P7E V03 ... : C-5 00 F P7F ... ... : E-5 00 . ... : 0-# 00 F ... : ... .. . ... ...
ROW 60 : ... .. . ... V01 ... : ... .. . ... ... ... : ... .. . ... : ... .. E ... : ... .. . ... ...
ROW 61 : ... .. E ... V02 ... : ... .. . ... ... ... : ... .. . ... : ... .. C ... : ... .. . ... ...
ROW 62 : ... .. . ... ... ... : ... .. . ... ... ... : ... .. . ... : ... .. A ... : ... .. . ... ...
ROW 63 : ... .. D ... ... ... : ... .. E ... ... ... : ... .. . ... : ... .. 9 ... : ... .. . ... ...
ROW 64 : ... .. C ... ... ... : ... .. . ... ... ... : ... .. . ... : ... .. 7 ... : ... .. . ... ...
ROW 65 : ... .. . ... ... ... : B-4 00 F ... ... ... : D-5 00 . ... : ... .. 5 ... : ... .. . ... ...
ROW 66 : ... .. B ... ... ... : ... .. . ... ... ... : ... .. . ... : ... .. 4 ... : ... .. . ... ...
ROW 67 : ... .. A ... ... ... : ... .. . ... ... ... : ... .. . ... : ... .. 2 ... : ... .. . ... ...
ROW 68 : ... .. . ... ... ... : ... .. . ... ... ... : ... .. . ... : ... .. 0 ... : ... .. . ... ...
ROW 69 : ... .. 9 ... ... ... : ... .. E ... ... ... : ... .. . ... : ... .. . ... : ... .. . ... ...
ROW 6A : ... .. . ... ... ... : ... .. . ... ... ... : ... .. . ... : ... .. . ... : ... .. . ... ...
ROW 6B : C-3 00 F P7F V03 ... : C-5 00 F ... ... ... : E-5 00 . ... : F-# 00 F ... : ... .. . ... ...
ROW 6C : ... .. . ... V01 ... : ... .. . ... ... ... : ... .. . ... : ... .. E ... : ... .. . ... ...
ROW 6D : ... .. E ... V02 ... : ... .. . ... ... ... : ... .. . ... : ... .. C ... : ... .. . ... ...
ROW 6E : ... .. . ... ... ... : ... .. . ... ... ... : ... .. . ... : ... .. A ... : ... .. . ... ...
ROW 6F : ... .. D ... ... ... : ... .. E ... ... ... : ... .. . ... : ... .. 9 ... : ... .. . ... ...
ROW 70 : ... .. C ... ... ... : ... .. . ... ... ... : ... .. . ... : ... .. 7 ... : ... .. . ... ...
ROW 71 : ... .. . ... ... ... : ... .. . ... ... ... : ... .. . ... : 0-# 00 F ... : ... .. . ... ...
ROW 72 : ... .. B ... ... ... : ... .. D ... ... ... : ... .. . ... : ... .. E ... : ... .. . ... ...
ROW 73 : ... .. A ... ... ... : ... .. . ... ... ... : ... .. . ... : ... .. C ... : ... .. . ... ...
ROW 74 : ... .. . ... ... ... : ... .. . ... ... ... : ... .. . ... : ... .. A ... : ... .. . ... ...
ROW 75 : ... .. 9 ... ... ... : ... .. C ... ... ... : ... .. . ... : ... .. 9 ... : ... .. . ... ...
ROW 76 : ... .. . ... ... ... : ... .. . ... ... ... : ... .. . ... : ... .. 7 ... : ... .. . ... ...
ROW 77 : B-1 00 F P81 V03 ... : B-4 00 F ... ... ... : D-5 00 . ... : 4-# 00 F ... : ... .. . ... ...
ROW 78 : ... .. . ... V01 ... : ... .. . ... ... ... : ... .. . ... : ... .. E ... : ... .. . ... ...
ROW 79 : ... .. E ... V02 ... : ... .. . ... ... ... : ... .. . ... : ... .. C ... : ... .. . ... ...
ROW 7A : ... .. . ... ... ... : ... .. . ... ... ... : ... .. . ... : ... .. A ... : ... .. . ... ...
ROW 7B : ... .. D ... ... ... : ... .. E ... ... ... : ... .. . ... : ... .. 9 ... : ... .. . ... ...
ROW 7C : ... .. C ... ... ... : ... .. . ... ... ... : ... .. . ... : ... .. 7 ... : ... .. . ... ...
ROW 7D : ... .. . ... ... ... : ... .. . ... ... ... : ... .. . ... : ... .. 5 ... : ... .. . ... ...
ROW 7E : ... .. B ... ... ... : ... .. D ... ... ... : ... .. . ... : ... .. 4 ... : ... .. . ... ...
ROW 7F : ... .. A ... ... ... : ... .. . ... ... ... : ... .. . ... : ... .. 2 ... : ... .. . ... ...
ROW 80 : ... .. . ... ... ... : ... .. . ... ... ... : ... .. . ... : ... .. 0 ... : ... .. . ... ...
ROW 81 : ... .. 9 ... ... ... : ... .. C ... ... ... : ... .. . ... : ... .. . ... : ... .. . ... ...
ROW 82 : ... .. . ... ... ... : ... .. . ... ... ... : ... .. . ... : ... .. . ... : ... .. . ... ...
ROW 83 : B-2 00 F P80 V03 ... : C-5 00 F ... ... ... : E-5 00 . ... : F-# 00 F ... : ... .. . ... ...
ROW 84 : ... .. . ... V01 ... : ... .. . ... ... ... : ... .. . ... : ... .. E ... : ... .. . ... ...
ROW 85 : ... .. E ... V02 ... : ... .. . ... ... ... : ... .. . ... : ... .. C ... : ... .. . ... ...
ROW 86 : ... .. . ... ... ... : ... .. . ... ... ... : ... .. . ... : ... .. A ... : ... .. . ... ...
ROW 87 : ... .. D ... ... ... : ... .. E ... ... ... : ... .. . ... : ... .. 9 ... : ... .. . ... ...
ROW 88 : ... .. C ... ... ... : ... .. . ... ... ... : ... .. . ... : ... .. 7 ... : ... .. . ... ...
ROW 89 : ... .. . ... ... ... : ... .. . ... ... ... : ... .. . ... : 4-# 00 F ... : ... .. . ... ...
ROW 8A : ... .. B ... ... ... : ... .. D ... ... ... : ... .. . ... : ... .. E ... : ... .. . ... ...
ROW 8B : ... .. A ... ... ... : ... .. . ... ... ... : ... .. . ... : ... .. C ... : ... .. . ... ...
ROW 8C : ... .. . ... ... ... : ... .. . ... ... ... : ... .. . ... : ... .. A ... : ... .. . ... ...
ROW 8D : ... .. 9 ... ... ... : ... .. C ... ... ... : ... .. . ... : ... .. 9 ... : ... .. . ... ...
ROW 8E : ... .. . ... ... ... : ... .. . ... ... ... : ... .. . ... : ... .. 7 ... : ... .. . ... ...
ROW 8F : A-1 00 F ... V03 ... : A-4 00 F ... ... ... : C-5 00 . ... : 0-# 00 F ... : ... .. . ... ...
ROW 90 : ... .. . ... V01 ... : ... .. . ... ... ... : ... .. . ... : ... .. E ... : ... .. . ... ...
ROW 91 : ... .. E ... V02 ... : ... .. . ... ... ... : ... .. . ... : ... .. C ... : ... .. . ... ...
ROW 92 : ... .. . ... ... ... : ... .. . ... ... ... : ... .. . ... : ... .. A ... : ... .. . ... ...
ROW 93 : ... .. D ... ... ... : ... .. E ... ... ... : ... .. . ... : ... .. 9 ... : ... .. . ... ...
ROW 94 : ... .. C ... ... ... : ... .. . ... ... ... : ... .. . ... : ... .. 7 ... : ... .. . ... ...
ROW 95 : ... .. . ... ... ... : ... .. . ... ... ... : ... .. . ... : ... .. 5 ... : ... .. . ... ...
ROW 96 : ... .. B ... ... ... : ... .. D ... ... ... : ... .. . ... : ... .. 4 ... : ... .. . ... ...
ROW 97 : ... .. A ... ... ... : ... .. . ... ... ... : ... .. . ... : ... .. 2 ... : ... .. . ... ...
ROW 98 : ... .. . ... ... ... : ... .. . ... ... ... : ... .. . ... : ... .. 0 ... : ... .. . ... ...
ROW 99 : ... .. 9 ... ... ... : ... .. C ... ... ... : ... .. . ... : ... .. . ... : ... .. . ... ...
ROW 9A : ... .. . ... ... ... : ... .. . ... ... ... : ... .. . ... : ... .. . ... : ... .. . ... ...
ROW 9B : ... .. F ... V03 ... : ... .. . ... ... ... : ... .. . ... : F-# 00 F ... : ... .. . ... ...
ROW 9C : ... .. . ... V01 ... : ... .. . ... ... ... : ... .. . ... : ... .. E ... : ... .. . ... ...
ROW 9D : ... .. E ... V02 ... : ... .. B ... ... ... : ... .. . ... : ... .. C ... : ... .. . ... ...
ROW 9E : ... .. . ... ... ... : ... .. . ... ... ... : ... .. . ... : ... .. A ... : ... .. . ... ...
ROW 9F : ... .. D ... ... ... : ... .. . ... ... ... : ... .. . ... : ... .. 9 ... : ... .. . ... ...
ROW A0 : ... .. C ... ... ... : ... .. A ... ... ... : ... .. . ... : ... .. 7 ... : ... .. . ... ...
ROW A1 : ... .. . ... ... ... : ... .. . ... ... ... : ... .. . ... : 0-# 00 F ... : ... .. . ... ...
ROW A2 : ... .. B ... ... ... : ... .. . ... ... ... : ... .. . ... : ... .. E ... : ... .. . ... ...
ROW A3 : ... .. A ... ... ... : ... .. 9 ... ... ... : ... .. . ... : ... .. C ... : ... .. . ... ...
ROW A4 : ... .. . ... ... ... : ... .. . ... ... ... : ... .. . ... : ... .. A ... : ... .. . ... ...
ROW A5 : ... .. 9 ... ... ... : ... .. . ... ... ... : ... .. . ... : ... .. 9 ... : ... .. . ... ...
ROW A6 : ... .. . ... ... ... : ... .. 8 ... ... ... : ... .. . ... : ... .. 7 ... : ... .. . ... ...
ROW A7 : A-2 00 F P7F V03 ... : E-4 00 F ... ... ... : A-4 00 . ... : 4-# 00 F ... : ... .. . ... ...
ROW A8 : ... .. . ... V01 ... : ... .. . ... ... ... : ... .. . ... : ... .. E ... : ... .. . ... ...
ROW A9 : ... .. E ... V02 ... : ... .. . ... ... ... : ... .. . ... : ... .. C ... : ... .. . ... ...
ROW AA : ... .. . ... ... ... : ... .. . ... ... ... : ... .. . ... : ... .. A ... : ... .. . ... ...
ROW AB : ... .. D ... ... ... : ... .. E ... ... ... : ... .. . ... : ... .. 9 ... : ... .. . ... ...
ROW AC : ... .. C ... ... ... : ... .. . ... ... ... : ... .. . ... : ... .. 7 ... : ... .. . ... ...
ROW AD : ... .. . ... ... ... : ... .. . ... ... ... : ... .. . ... : ... .. 5 ... : ... .. . ... ...
ROW AE : ... .. B ... ... ... : ... .. D ... ... ... : ... .. . ... : ... .. 4 ... : ... .. . ... ...
ROW AF : ... .. A ... ... ... : ... .. . ... ... ... : ... .. . ... : ... .. 2 ... : ... .. . ... ...
ROW B0 : ... .. . ... ... ... : ... .. . ... ... ... : ... .. . ... : ... .. 0 ... : ... .. . ... ...
ROW B1 : ... .. 9 ... ... ... : ... .. C ... ... ... : ... .. . ... : ... .. . ... : ... .. . ... ...
ROW B2 : ... .. . ... ... ... : ... .. . ... ... ... : ... .. . ... : ... .. . ... : ... .. . ... ...
ROW B3 : A-1 00 F P80 V03 ... : ... .. . ... ... ... : ... .. . ... : F-# 00 F ... : ... .. . ... ...
ROW B4 : ... .. . ... V01 ... : ... .. . ... ... ... : ... .. . ... : ... .. E ... : ... .. . ... ...
ROW B5 : ... .. E ... V02 ... : ... .. B ... ... ... : ... .. . ... : ... .. C ... : ... .. . ... ...
ROW B6 : ... .. . ... ... ... : ... .. . ... ... ... : ... .. . ... : ... .. A ... : ... .. . ... ...
ROW B7 : ... .. D ... ... ... : ... .. . ... ... ... : ... .. . ... : ... .. 9 ... : ... .. . ... ...
ROW B8 : ... .. C ... ... ... : ... .. A ... ... ... : ... .. . ... : ... .. 7 ... : ... .. . ... ...
ROW B9 : ... .. . ... ... ... : ... .. . ... ... ... : ... .. . ... : 4-# 00 F ... : ... .. . ... ...
ROW BA : ... .. B ... ... ... : ... .. . ... ... ... : ... .. . ... : ... .. E ... : ... .. . ... ...
ROW BB : ... .. A ... ... ... : ... .. 9 ... ... ... : ... .. . ... : ... .. C ... : ... .. . ... ...
ROW BC : ... .. . ... ... ... : ... .. . ... ... ... : ... .. . ... : ... .. A ... : ... .. . ... ...
ROW BD : ... .. 9 ... ... ... : ... .. . ... ... ... : ... .. . ... : ... .. 9 ... : ... .. . ... ...
ROW BE : ... .. . ... ... ... : ... .. 8 ... ... ... : ... .. . ... : ... .. 7 ... : ... .. . ... ...
ROW BF : F-1 00 F ... V03 ... : F-4 00 F ... ... ... : C-5 00 . ... : 0-# 00 F ... : ... .. . ... ...
ROW C0 : ... .. . ... V01 ... : ... .. . ... ... ... : ... .. . ... : ... .. E ... : ... .. . ... ...
ROW C1 : ... .. E ... V02 ... : ... .. . ... ... ... : ... .. . ... : ... .. C ... : ... .. . ... ...
ROW C2 : ... .. . ... ... ... : ... .. . ... ... ... : ... .. . ... : ... .. A ... : ... .. . ... ...
ROW C3 : ... .. D ... ... ... : ... .. E ... ... ... : ... .. . ... : ... .. 9 ... : ... .. . ... ...
ROW C4 : ... .. C ... ... ... : ... .. . ... ... ... : ... .. . ... : ... .. 7 ... : ... .. . ... ...
ROW C5 : ... .. . ... ... ... : ... .. . ... ... ... : ... .. . ... : ... .. 5 ... : ... .. . ... ...
ROW C6 : ... .. B ... ... ... : ... .. D ... ... ... : ... .. . ... : ... .. 4 ... : ... .. . ... ...
ROW C7 : ... .. A ... ... ... : ... .. . ... ... ... : ... .. . ... : ... .. 2 ... : ... .. . ... ...
ROW C8 : ... .. . ... ... ... : ... .. . ... ... ... : ... .. . ... : ... .. 0 ... : ... .. . ... ...
ROW C9 : ... .. 9 ... ... ... : ... .. C ... ... ... : ... .. . ... : ... .. . ... : ... .. . ... ...
ROW CA : ... .. . ... ... ... : ... .. . ... ... ... : ... .. . ... : ... .. . ... : ... .. . ... ...
ROW CB : ... .. F ... V03 ... : ... .. . ... ... ... : ... .. . ... : F-# 00 F ... : ... .. . ... ...
ROW CC : ... .. . ... V01 ... : ... .. . ... ... ... : ... .. . ... : ... .. E ... : ... .. . ... ...
ROW CD : ... .. E ... V02 ... : ... .. B ... ... ... : ... .. . ... : ... .. C ... : ... .. . ... ...
ROW CE : ... .. . ... ... ... : ... .. . ... ... ... : ... .. . ... : ... .. A ... : ... .. . ... ...
ROW CF : ... .. D ... ... ... : ... .. . ... ... ... : ... .. . ... : ... .. 9 ... : ... .. . ... ...
ROW D0 : ... .. C ... ... ... : ... .. A ... ... ... : ... .. . ... : ... .. 7 ... : ... .. . ... ...
ROW D1 : ... .. . ... ... ... : ... .. . ... ... ... : ... .. . ... : 0-# 00 F ... : ... .. . ... ...
ROW D2 : ... .. B ... ... ... : ... .. . ... ... ... : ... .. . ... : ... .. E ... : ... .. . ... ...
ROW D3 : ... .. A ... ... ... : ... .. 9 ... ... ... : ... .. . ... : ... .. C ... : ... .. . ... ...
ROW D4 : ... .. . ... ... ... : ... .. . ... ... ... : ... .. . ... : ... .. A ... : ... .. . ... ...
ROW D5 : ... .. 9 ... ... ... : ... .. . ... ... ... : ... .. . ... : ... .. 9 ... : ... .. . ... ...
ROW D6 : ... .. . ... ... ... : ... .. 8 ... ... ... : ... .. . ... : ... .. 7 ... : ... .. . ... ...
ROW D7 : F-2 00 F ... V03 ... : ... .. F ... ... ... : ... .. . ... : 4-# 00 F ... : ... .. . ... ...
ROW D8 : ... .. . ... V01 ... : ... .. . ... ... ... : ... .. . ... : ... .. E ... : ... .. . ... ...
ROW D9 : ... .. E ... V02 ... : ... .. . ... ... ... : ... .. . ... : ... .. C ... : ... .. . ... ...
ROW DA : ... .. . ... ... ... : ... .. . ... ... ... : ... .. . ... : ... .. A ... : ... .. . ... ...
ROW DB : ... .. D ... ... ... : ... .. E ... ... ... : ... .. . ... : ... .. 9 ... : ... .. . ... ...
ROW DC : ... .. C ... ... ... : ... .. . ... ... ... : ... .. . ... : ... .. 7 ... : ... .. . ... ...
ROW DD : ... .. . ... ... ... : ... .. . ... ... ... : ... .. . ... : ... .. 5 ... : ... .. . ... ...
ROW DE : ... .. B ... ... ... : ... .. D ... ... ... : ... .. . ... : ... .. 4 ... : ... .. . ... ...
ROW DF : ... .. A ... ... ... : ... .. . ... ... ... : ... .. . ... : ... .. 2 ... : ... .. . ... ...
ROW E0 : ... .. . ... ... ... : ... .. . ... ... ... : ... .. . ... : ... .. 0 ... : ... .. . ... ...
ROW E1 : ... .. 9 ... ... ... : ... .. C ... ... ... : ... .. . ... : ... .. . ... : ... .. . ... ...
ROW E2 : ... .. . ... ... ... : ... .. . ... ... ... : ... .. . ... : ... .. . ... : ... .. . ... ...
ROW E3 : F-1 00 F ... V03 ... : ... .. . ... ... ... : ... .. . ... : F-# 00 F ... : ... .. . ... ...
ROW E4 : ... .. . ... V01 ... : ... .. . ... ... ... : ... .. . ... : ... .. E ... : ... .. . ... ...
ROW E5 : ... .. E ... V02 ... : ... .. B ... ... ... : ... .. . ... : ... .. C ... : ... .. . ... ...
ROW E6 : ... .. . ... ... ... : ... .. . ... ... ... : ... .. . ... : ... .. A ... : ... .. . ... ...
ROW E7 : ... .. D ... ... ... : ... .. . ... ... ... : ... .. . ... : ... .. 9 ... : ... .. . ... ...
ROW E8 : ... .. C ... ... ... : ... .. A ... ... ... : ... .. . ... : ... .. 7 ... : ... .. . ... ...
ROW E9 : ... .. . ... ... ... : ... .. . ... ... ... : ... .. . ... : 4-# 00 F ... : ... .. . ... ...
ROW EA : ... .. B ... ... ... : ... .. . ... ... ... : ... .. . ... : ... .. E ... : ... .. . ... ...
ROW EB : ... .. A ... ... ... : ... .. 9 ... ... ... : ... .. . ... : ... .. C ... : ... .. . ... ...
ROW EC : ... .. . ... ... ... : ... .. . ... ... ... : ... .. . ... : ... .. A ... : ... .. . ... ...
ROW ED : ... .. 9 ... ... ... : ... .. . ... ... ... : ... .. . ... : ... .. 9 ... : ... .. . ... ...
ROW EE : ... .. . ... ... ... : ... .. 8 ... ... ... : ... .. . ... : ... .. 7 ... : ... .. . ... ...
ROW EF : G-1 00 F ... V03 ... : E-4 00 F ... ... ... : D-5 00 . ... : 0-# 00 F ... : ... .. . ... ...
ROW F0 : ... .. . ... V01 ... : ... .. . ... ... ... : ... .. . ... : ... .. E ... : ... .. . ... ...
ROW F1 : ... .. E ... V02 ... : ... .. . ... ... ... : ... .. . ... : ... .. C ... : ... .. . ... ...
ROW F2 : ... .. . ... ... ... : ... .. . ... ... ... : ... .. . ... : ... .. A ... : ... .. . ... ...
ROW F3 : ... .. D ... ... ... : ... .. E ... ... ... : ... .. . ... : ... .. 9 ... : ... .. . ... ...
ROW F4 : ... .. C ... ... ... : ... .. . ... ... ... : ... .. . ... : ... .. 7 ... : ... .. . ... ...
ROW F5 : ... .. . ... ... ... : ... .. . ... ... ... : ... .. . ... : ... .. 5 ... : ... .. . ... ...
ROW F6 : ... .. B ... ... ... : ... .. D ... ... ... : ... .. . ... : ... .. 4 ... : ... .. . ... ...
ROW F7 : ... .. A ... ... ... : ... .. . ... ... ... : ... .. . ... : ... .. 2 ... : ... .. . ... ...
ROW F8 : ... .. . ... ... ... : ... .. . ... ... ... : ... .. . ... : ... .. 0 ... : ... .. . ... ...
ROW F9 : ... .. 9 ... ... ... : ... .. C ... ... ... : ... .. . ... : ... .. . ... : ... .. . ... ...
ROW FA : ... .. . ... ... ... : ... .. . ... ... ... : ... .. . ... : ... .. . ... : ... .. . ... ...
ROW FB : ... .. F ... V03 ... : D-4 00 F ... ... ... : C-5 00 . ... : F-# 00 F ... : ... .. . ... ...
ROW FC : ... .. . ... V01 ... : ... .. . ... ... ... : ... .. . ... : ... .. E ... : ... .. . ... ...
ROW FD : ... .. E ... V02 ... : ... .. . ... ... ... : ... .. . ... : ... .. C ... : ... .. . ... ...
ROW FE : ... .. . ... ... ... : ... .. . ... ... ... : ... .. . ... : ... .. A ... : ... .. . ... ...
ROW FF : ... .. D ... ... ... : ... .. E ... ... ... : ... .. . ... : ... .. 9 ... : ... .. . ... ...

PATTERN 13
ROW 00 : ... .. C ... ... ... : ... .. . ... ... ... : ... .. . ... : ... .. 7 ... : ... .. . ... ...
ROW 01 : ... .. . ... ... ... : ... .. . ... ... ... : ... .. . ... : 0-# 00 F ... : ... .. . ... ...
ROW 02 : ... .. B ... ... ... : ... .. D ... ... ... : ... .. . ... : ... .. E ... : ... .. . ... ...
ROW 03 : ... .. A ... ... ... : ... .. . ... ... ... : ... .. . ... : ... .. C ... : ... .. . ... ...
ROW 04 : ... .. . ... ... ... : ... .. . ... ... ... : ... .. . ... : ... .. A ... : ... .. . ... ...
ROW 05 : ... .. 9 ... ... ... : ... .. C ... ... ... : ... .. . ... : ... .. 9 ... : ... .. . ... ...
ROW 06 : ... .. . ... ... ... : ... .. . ... ... ... : ... .. . ... : ... .. 7 ... : ... .. . ... ...
ROW 07 : G-2 00 F ... V03 ... : ... .. F ... ... ... : ... .. . ... : 4-# 00 F ... : ... .. . ... ...
ROW 08 : ... .. . ... V01 ... : ... .. . ... ... ... : ... .. . ... : ... .. E ... : ... .. . ... ...
ROW 09 : ... .. E ... V02 ... : ... .. . ... ... ... : ... .. . ... : ... .. C ... : ... .. . ... ...
ROW 0A : ... .. . ... ... ... : ... .. . ... ... ... : ... .. . ... : ... .. A ... : ... .. . ... ...
ROW 0B : ... .. D ... ... ... : ... .. E ... ... ... : ... .. . ... : ... .. 9 ... : ... .. . ... ...
ROW 0C : ... .. C ... ... ... : ... .. . ... ... ... : ... .. . ... : ... .. 7 ... : ... .. . ... ...
ROW 0D : ... .. . ... ... ... : ... .. . ... ... ... : ... .. . ... : ... .. 5 ... : ... .. . ... ...
ROW 0E : ... .. B ... ... ... : ... .. D ... ... ... : ... .. . ... : ... .. 4 ... : ... .. . ... ...
ROW 0F : ... .. A ... ... ... : ... .. . ... ... ... : ... .. . ... : ... .. 2 ... : ... .. . ... ...
ROW 10 : ... .. . ... ... ... : ... .. . ... ... ... : ... .. . ... : ... .. 0 ... : ... .. . ... ...
ROW 11 : ... .. 9 ... ... ... : ... .. C ... ... ... : ... .. . ... : ... .. . ... : ... .. . ... ...
ROW 12 : ... .. . ... ... ... : ... .. . ... ... ... : ... .. . ... : ... .. . ... : ... .. . ... ...
ROW 13 : G-1 00 F ... V03 ... : E-4 00 F ... ... ... : G-5 00 . ... : F-# 00 F ... : ... .. . ... ...
ROW 14 : ... .. . ... V01 ... : ... .. . ... ... ... : ... .. . ... : ... .. E ... : ... .. . ... ...
ROW 15 : ... .. E ... V02 ... : ... .. . ... ... ... : ... .. . ... : ... .. C ... : ... .. . ... ...
ROW 16 : ... .. . ... ... ... : ... .. . ... ... ... : ... .. . ... : ... .. A ... : ... .. . ... ...
ROW 17 : ... .. D ... ... ... : ... .. E ... ... ... : ... .. . ... : ... .. 9 ... : ... .. . ... ...
ROW 18 : ... .. C ... ... ... : ... .. . ... ... ... : ... .. . ... : ... .. 7 ... : ... .. . ... ...
ROW 19 : ... .. . ... ... ... : ... .. . ... ... ... : ... .. . ... : 4-# 00 F ... : ... .. . ... ...
ROW 1A : ... .. B ... ... ... : ... .. D ... ... ... : ... .. . ... : ... .. E ... : ... .. . ... ...
ROW 1B : ... .. A ... ... ... : ... .. . ... ... ... : ... .. . ... : ... .. C ... : ... .. . ... ...
ROW 1C : ... .. . ... ... ... : ... .. . ... ... ... : ... .. . ... : ... .. A ... : ... .. . ... ...
ROW 1D : ... .. 9 ... ... ... : ... .. C ... ... ... : ... .. . ... : ... .. 9 ... : ... .. . ... ...
ROW 1E : ... .. . ... ... ... : ... .. . ... ... ... : ... .. . ... : ... .. 7 ... : ... .. . ... ...
ROW 1F : C-2 00 F P7E V03 ... : C-4 00 F ... ... ... : E-5 00 . ... : 0-# 00 F ... : ... .. . ... ...
ROW 20 : ... .. . ... V01 ... : ... .. . ... ... ... : ... .. . ... : ... .. E ... : ... .. . ... ...
ROW 21 : ... .. E ... V02 ... : ... .. . ... ... ... : ... .. . ... : ... .. C ... : ... .. . ... ...
ROW 22 : ... .. . ... ... ... : ... .. . ... ... ... : ... .. . ... : ... .. A ... : ... .. . ... ...
ROW 23 : ... .. D ... ... ... : ... .. E ... ... ... : ... .. . ... : ... .. 9 ... : ... .. . ... ...
ROW 24 : ... .. C ... ... ... : ... .. . ... ... ... : ... .. . ... : ... .. 7 ... : ... .. . ... ...
ROW 25 : ... .. . ... ... ... : ... .. . ... ... ... : ... .. . ... : ... .. 5 ... : ... .. . ... ...
ROW 26 : ... .. B ... ... ... : ... .. D ... ... ... : ... .. . ... : ... .. 4 ... : ... .. . ... ...
ROW 27 : ... .. A ... ... ... : ... .. . ... ... ... : ... .. . ... : ... .. 2 ... : ... .. . ... ...
ROW 28 : ... .. . ... ... ... : ... .. . ... ... ... : ... .. . ... : ... .. 0 ... : ... .. . ... ...
ROW 29 : ... .. 9 ... ... ... : ... .. C ... ... ... : ... .. . ... : ... .. . ... : ... .. . ... ...
ROW 2A : ... .. . ... ... ... : ... .. . ... ... ... : ... .. . ... : ... .. . ... : ... .. . ... ...
ROW 2B : C-3 00 F P7F V03 ... : ... .. . ... ... ... : ... .. . ... : F-# 00 F ... : ... .. . ... ...
ROW 2C : ... .. . ... V01 ... : ... .. . ... ... ... : ... .. . ... : ... .. E ... : ... .. . ... ...
ROW 2D : ... .. E ... V02 ... : ... .. B ... ... ... : ... .. . ... : ... .. C ... : ... .. . ... ...
ROW 2E : ... .. . ... ... ... : ... .. . ... ... ... : ... .. . ... : ... .. A ... : ... .. . ... ...
ROW 2F : ... .. D ... ... ... : ... .. . ... ... ... : ... .. . ... : ... .. 9 ... : ... .. . ... ...
ROW 30 : ... .. C ... ... ... : ... .. A ... ... ... : ... .. . ... : ... .. 7 ... : ... .. . ... ...
ROW 31 : ... .. . ... ... ... : ... .. . ... ... ... : ... .. . ... : 0-# 00 F ... : ... .. . ... ...
ROW 32 : ... .. B ... ... ... : ... .. . ... ... ... : ... .. . ... : ... .. E ... : ... .. . ... ...
ROW 33 : ... .. A ... ... ... : ... .. 9 ... ... ... : ... .. . ... : ... .. C ... : ... .. . ... ...
ROW 34 : ... .. . ... ... ... : ... .. . ... ... ... : ... .. . ... : ... .. A ... : ... .. . ... ...
ROW 35 : ... .. 9 ... ... ... : ... .. . ... ... ... : ... .. . ... : ... .. 9 ... : ... .. . ... ...
ROW 36 : ... .. . ... ... ... : ... .. 8 ... ... ... : ... .. . ... : ... .. 7 ... : ... .. . ... ...
ROW 37 : B-1 00 F P81 V03 ... : B-3 00 F ... ... ... : D-5 00 . ... : 4-# 00 F ... : ... .. . ... ...
ROW 38 : ... .. . ... V01 ... : ... .. . ... ... ... : ... .. . ... : ... .. E ... : ... .. . ... ...
ROW 39 : ... .. E ... V02 ... : ... .. . ... ... ... : ... .. . ... : ... .. C ... : ... .. . ... ...
ROW 3A : ... .. . ... ... ... : ... .. . ... ... ... : ... .. . ... : ... .. A ... : ... .. . ... ...
ROW 3B : ... .. D ... ... ... : ... .. E ... ... ... : ... .. . ... : ... .. 9 ... : ... .. . ... ...
ROW 3C : ... .. C ... ... ... : ... .. . ... ... ... : ... .. . ... : ... .. 7 ... : ... .. . ... ...
ROW 3D : ... .. . ... ... ... : ... .. . ... ... ... : ... .. . ... : ... .. 5 ... : ... .. . ... ...
ROW 3E : ... .. B ... ... ... : ... .. D ... ... ... : ... .. . ... : ... .. 4 ... : ... .. . ... ...
ROW 3F : ... .. A ... ... ... : ... .. . ... ... ... : ... .. . ... : ... .. 2 ... : ... .. . ... ...
ROW 40 : ... .. . ... ... ... : ... .. . ... ... ... : ... .. . ... : ... .. 0 ... : ... .. . ... ...
ROW 41 : ... .. 9 ... ... ... : ... .. C ... ... ... : ... .. . ... : ... .. . ... : ... .. . ... ...
ROW 42 : ... .. . ... ... ... : ... .. . ... ... ... : ... .. . ... : ... .. . ... : ... .. . ... ...
ROW 43 : B-2 00 F P80 V03 ... : ... .. . ... ... ... : ... .. . ... : F-# 00 F ... : ... .. . ... ...
ROW 44 : ... .. . ... V01 ... : ... .. . ... ... ... : ... .. . ... : ... .. E ... : ... .. . ... ...
ROW 45 : ... .. E ... V02 ... : ... .. B ... ... ... : ... .. . ... : ... .. C ... : ... .. . ... ...
ROW 46 : ... .. . ... ... ... : ... .. . ... ... ... : ... .. . ... : ... .. A ... : ... .. . ... ...
ROW 47 : ... .. D ... ... ... : ... .. . ... ... ... : ... .. . ... : ... .. 9 ... : ... .. . ... ...
ROW 48 : ... .. C ... ... ... : ... .. A ... ... ... : ... .. . ... : ... .. 7 ... : ... .. . ... ...
ROW 49 : ... .. . ... ... ... : ... .. . ... ... ... : ... .. . ... : 4-# 00 F ... : ... .. . ... ...
ROW 4A : ... .. B ... ... ... : ... .. . ... ... ... : ... .. . ... : ... .. E ... : ... .. . ... ...
ROW 4B : ... .. A ... ... ... : ... .. 9 ... ... ... : ... .. . ... : ... .. C ... : ... .. . ... ...
ROW 4C : ... .. . ... ... ... : ... .. . ... ... ... : ... .. . ... : ... .. A ... : ... .. . ... ...
ROW 4D : ... .. 9 ... ... ... : ... .. . ... ... ... : ... .. . ... : ... .. 9 ... : ... .. . ... ...
ROW 4E : ... .. . ... ... ... : ... .. 8 ... ... ... : ... .. . ... : ... .. 7 ... : ... .. . ... ...
ROW 4F : A-1 00 F ... V03 ... : A-3 00 F ... ... ... : C-5 00 . ... : 0-# 00 F ... : ... .. . ... ...
ROW 50 : ... .. . ... V01 ... : ... .. . ... ... ... : ... .. . ... : ... .. E ... : ... .. . ... ...
ROW 51 : ... .. E ... V02 ... : ... .. . ... ... ... : ... .. . ... : ... .. C ... : ... .. . ... ...
ROW 52 : ... .. . ... ... ... : ... .. . ... ... ... : ... .. . ... : ... .. A ... : ... .. . ... ...
ROW 53 : ... .. D ... ... ... : ... .. E ... ... ... : ... .. . ... : ... .. 9 ... : ... .. . ... ...
ROW 54 : ... .. C ... ... ... : ... .. . ... ... ... : ... .. . ... : ... .. 7 ... : ... .. . ... ...
ROW 55 : ... .. . ... ... ... : ... .. . ... ... ... : ... .. . ... : ... .. 5 ... : ... .. . ... ...
ROW 56 : ... .. B ... ... ... : ... .. D ... ... ... : ... .. . ... : ... .. 4 ... : ... .. . ... ...
ROW 57 : ... .. A ... ... ... : ... .. . ... ... ... : ... .. . ... : ... .. 2 ... : ... .. . ... ...
ROW 58 : ... .. . ... ... ... : ... .. . ... ... ... : ... .. . ... : ... .. 0 ... : ... .. . ... ...
ROW 59 : ... .. 9 ... ... ... : ... .. C ... ... ... : ... .. . ... : ... .. . ... : ... .. . ... ...
ROW 5A : ... .. . ... ... ... : ... .. . ... ... ... : ... .. . ... : ... .. . ... : ... .. . ... ...
ROW 5B : ... .. F ... V03 ... : ... .. . ... ... ... : ... .. . ... : F-# 00 F ... : ... .. . ... ...
ROW 5C : ... .. . ... V01 ... : ... .. . ... ... ... : ... .. . ... : ... .. E ... : ... .. . ... ...
ROW 5D : ... .. E ... V02 ... : ... .. B ... ... ... : ... .. . ... : ... .. C ... : ... .. . ... ...
ROW 5E : ... .. . ... ... ... : ... .. . ... ... ... : ... .. . ... : ... .. A ... : ... .. . ... ...
ROW 5F : ... .. D ... ... ... : ... .. . ... ... ... : ... .. . ... : ... .. 9 ... : ... .. . ... ...
ROW 60 : ... .. C ... ... ... : ... .. A ... ... ... : ... .. . ... : ... .. 7 ... : ... .. . ... ...
ROW 61 : ... .. . ... ... ... : ... .. . ... ... ... : ... .. . ... : 0-# 00 F ... : ... .. . ... ...
ROW 62 : ... .. B ... ... ... : ... .. . ... ... ... : ... .. . ... : ... .. E ... : ... .. . ... ...
ROW 63 : ... .. A ... ... ... : ... .. 9 ... ... ... : ... .. . ... : ... .. C ... : ... .. . ... ...
ROW 64 : ... .. . ... ... ... : ... .. . ... ... ... : ... .. . ... : ... .. A ... : ... .. . ... ...
ROW 65 : ... .. 9 ... ... ... : ... .. . ... ... ... : ... .. . ... : ... .. 9 ... : ... .. . ... ...
ROW 66 : ... .. . ... ... ... : ... .. 8 ... ... ... : ... .. . ... : ... .. 7 ... : ... .. . ... ...
ROW 67 : A-2 00 F P7F V03 ... : E-3 00 F P7E ... ... : B-4 00 . ... : 4-# 00 F ... : ... .. . ... ...
ROW 68 : ... .. . ... V01 ... : ... .. . ... ... ... : ... .. . ... : ... .. E ... : ... .. . ... ...
ROW 69 : ... .. E ... V02 ... : ... .. . ... ... ... : ... .. . ... : ... .. C ... : ... .. . ... ...
ROW 6A : ... .. . ... ... ... : ... .. . ... ... ... : ... .. . ... : ... .. A ... : ... .. . ... ...
ROW 6B : ... .. D ... ... ... : ... .. E ... ... ... : ... .. . ... : ... .. 9 ... : ... .. . ... ...
ROW 6C : ... .. C ... ... ... : ... .. . ... ... ... : ... .. . ... : ... .. 7 ... : ... .. . ... ...
ROW 6D : ... .. . ... ... ... : ... .. . ... ... ... : ... .. . ... : ... .. 5 ... : ... .. . ... ...
ROW 6E : ... .. B ... ... ... : ... .. D ... ... ... : ... .. . ... : ... .. 4 ... : ... .. . ... ...
ROW 6F : ... .. A ... ... ... : ... .. . ... ... ... : ... .. . ... : ... .. 2 ... : ... .. . ... ...
ROW 70 : ... .. . ... ... ... : ... .. . ... ... ... : ... .. . ... : ... .. 0 ... : ... .. . ... ...
ROW 71 : ... .. 9 ... ... ... : ... .. C ... ... ... : ... .. . ... : ... .. . ... : ... .. . ... ...
ROW 72 : ... .. . ... ... ... : ... .. . ... ... ... : ... .. . ... : ... .. . ... : ... .. . ... ...
ROW 73 : A-1 00 F P80 V03 ... : ... .. . ... ... ... : ... .. . ... : F-# 00 F ... : ... .. . ... ...
ROW 74 : ... .. . ... V01 ... : ... .. . ... ... ... : ... .. . ... : ... .. E ... : ... .. . ... ...
ROW 75 : ... .. E ... V02 ... : ... .. B ... ... ... : ... .. . ... : ... .. C ... : ... .. . ... ...
ROW 76 : ... .. . ... ... ... : ... .. . ... ... ... : ... .. . ... : ... .. A ... : ... .. . ... ...
ROW 77 : ... .. D ... ... ... : ... .. . ... ... ... : ... .. . ... : ... .. 9 ... : ... .. . ... ...
ROW 78 : ... .. C ... ... ... : ... .. A ... ... ... : ... .. . ... : ... .. 7 ... : ... .. . ... ...
ROW 79 : ... .. . ... ... ... : ... .. . ... ... ... : ... .. . ... : 4-# 00 F ... : ... .. . ... ...
ROW 7A : ... .. B ... ... ... : ... .. . ... ... ... : ... .. . ... : ... .. E ... : ... .. . ... ...
ROW 7B : ... .. A ... ... ... : ... .. 9 ... ... ... : ... .. . ... : ... .. C ... : ... .. . ... ...
ROW 7C : ... .. . ... ... ... : ... .. . ... ... ... : ... .. . ... : ... .. A ... : ... .. . ... ...
ROW 7D : ... .. 9 ... ... ... : ... .. . ... ... ... : ... .. . ... : ... .. 9 ... : ... .. . ... ...
ROW 7E : ... .. . ... ... ... : ... .. 8 ... ... ... : ... .. . ... : ... .. 7 ... : ... .. . ... ...
ROW 7F : F-1 00 F ... V03 ... : F-3 00 F P7F ... ... : C-5 00 . ... : 0-# 00 F ... : ... .. . ... ...
ROW 80 : ... .. . ... V01 ... : ... .. . ... ... ... : ... .. . ... : ... .. E ... : ... .. . ... ...
ROW 81 : ... .. E ... V02 ... : ... .. . ... ... ... : ... .. . ... : ... .. C ... : ... .. . ... ...
ROW 82 : ... .. . ... ... ... : ... .. . ... ... ... : ... .. . ... : ... .. A ... : ... .. . ... ...
ROW 83 : ... .. D ... ... ... : ... .. E ... ... ... : ... .. . ... : ... .. 9 ... : ... .. . ... ...
ROW 84 : ... .. C ... ... ... : ... .. . ... ... ... : ... .. . ... : ... .. 7 ... : ... .. . ... ...
ROW 85 : ... .. . ... ... ... : ... .. . ... ... ... : ... .. . ... : ... .. 5 ... : ... .. . ... ...
ROW 86 : ... .. B ... ... ... : ... .. D ... ... ... : ... .. . ... : ... .. 4 ... : ... .. . ... ...
ROW 87 : ... .. A ... ... ... : ... .. . ... ... ... : ... .. . ... : ... .. 2 ... : ... .. . ... ...
ROW 88 : ... .. . ... ... ... : ... .. . ... ... ... : ... .. . ... : ... .. 0 ... : ... .. . ... ...
ROW 89 : ... .. 9 ... ... ... : ... .. C ... ... ... : ... .. . ... : ... .. . ... : ... .. . ... ...
ROW 8A : ... .. . ... ... ... : ... .. . ... ... ... : ... .. . ... : ... .. . ... : ... .. . ... ...
ROW 8B : ... .. F ... V03 ... : ... .. . ... ... ... : ... .. . ... : F-# 00 F ... : ... .. . ... ...
ROW 8C : ... .. . ... V01 ... : ... .. . ... ... ... : ... .. . ... : ... .. E ... : ... .. . ... ...
ROW 8D : ... .. E ... V02 ... : ... .. B ... ... ... : ... .. . ... : ... .. C ... : ... .. . ... ...
ROW 8E : ... .. . ... ... ... : ... .. . ... ... ... : ... .. . ... : ... .. A ... : ... .. . ... ...
ROW 8F : ... .. D ... ... ... : ... .. . ... ... ... : ... .. . ... : ... .. 9 ... : ... .. . ... ...
ROW 90 : ... .. C ... ... ... : ... .. A ... ... ... : ... .. . ... : ... .. 7 ... : ... .. . ... ...
ROW 91 : ... .. . ... ... ... : ... .. . ... ... ... : ... .. . ... : ... .. F ... : ... .. . ... ...
ROW 92 : ... .. B ... ... ... : ... .. . ... ... ... : ... .. . ... : ... .. E ... : ... .. . ... ...
ROW 93 : ... .. A ... ... ... : ... .. 9 ... ... ... : ... .. . ... : ... .. C ... : ... .. . ... ...
ROW 94 : ... .. . ... ... ... : ... .. . ... ... ... : ... .. . ... : ... .. A ... : ... .. . ... ...
ROW 95 : ... .. 9 ... ... ... : ... .. . ... ... ... : ... .. . ... : ... .. 9 ... : ... .. . ... ...
ROW 96 : ... .. . ... ... ... : ... .. 8 ... ... ... : ... .. . ... : ... .. 7 ... : ... .. . ... ...
ROW 97 : F-2 00 F ... V03 ... : ... .. F ... ... ... : ... .. . ... : 4-# 00 F ... : ... .. . ... ...
ROW 98 : ... .. . ... V01 ... : ... .. . ... ... ... : ... .. . ... : ... .. E ... : ... .. . ... ...
ROW 99 : ... .. E ... V02 ... : ... .. . ... ... ... : ... .. . ... : ... .. C ... : ... .. . ... ...
ROW 9A : ... .. . ... ... ... : ... .. . ... ... ... : ... .. . ... : ... .. A ... : ... .. . ... ...
ROW 9B : ... .. D ... ... ... : ... .. E ... ... ... : ... .. . ... : ... .. 9 ... : ... .. . ... ...
ROW 9C : ... .. C ... ... ... : ... .. . ... ... ... : ... .. . ... : ... .. 7 ... : ... .. . ... ...
ROW 9D : ... .. . ... ... ... : ... .. . ... ... ... : ... .. . ... : ... .. 5 ... : ... .. . ... ...
ROW 9E : ... .. B ... ... ... : ... .. D ... ... ... : ... .. . ... : ... .. 4 ... : ... .. . ... ...
ROW 9F : ... .. A ... ... ... : ... .. . ... ... ... : ... .. . ... : ... .. 2 ... : ... .. . ... ...
ROW A0 : ... .. . ... ... ... : ... .. . ... ... ... : ... .. . ... : ... .. 0 ... : ... .. . ... ...
ROW A1 : ... .. 9 ... ... ... : ... .. C ... ... ... : ... .. . ... : ... .. . ... : ... .. . ... ...
ROW A2 : ... .. . ... ... ... : ... .. . ... ... ... : ... .. . ... : ... .. . ... : ... .. . ... ...
ROW A3 : F-1 00 F ... V03 ... : E-3 00 F P7E ... ... : B-4 00 . ... : F-# 00 F ... : ... .. . ... ...
ROW A4 : ... .. . ... V01 ... : ... .. . ... ... ... : ... .. . ... : ... .. E ... : ... .. . ... ...
ROW A5 : ... .. E ... V02 ... : ... .. . ... ... ... : ... .. . ... : ... .. C ... : ... .. . ... ...
ROW A6 : ... .. . ... ... ... : ... .. . ... ... ... : ... .. . ... : ... .. A ... : ... .. . ... ...
ROW A7 : ... .. D ... ... ... : ... .. E ... ... ... : ... .. . ... : ... .. 9 ... : ... .. . ... ...
ROW A8 : ... .. C ... ... ... : ... .. . ... ... ... : ... .. . ... : ... .. 7 ... : ... .. . ... ...
ROW A9 : ... .. . ... ... ... : ... .. . ... ... ... : ... .. . ... : 4-# 00 F ... : ... .. . ... ...
ROW AA : ... .. B ... ... ... : ... .. D ... ... ... : ... .. . ... : ... .. E ... : ... .. . ... ...
ROW AB : ... .. A ... ... ... : ... .. . ... ... ... : ... .. . ... : ... .. C ... : ... .. . ... ...
ROW AC : ... .. . ... ... ... : ... .. . ... ... ... : ... .. . ... : ... .. A ... : ... .. . ... ...
ROW AD : ... .. 9 ... ... ... : ... .. C ... ... ... : ... .. . ... : ... .. 9 ... : ... .. . ... ...
ROW AE : ... .. . ... ... ... : ... .. . ... ... ... : ... .. . ... : ... .. 7 ... : ... .. . ... ...
ROW AF : G-1 00 F ... V03 ... : D-3 00 F P7F ... ... : G-4 00 . P80 : 0-# 00 F ... : ... .. . ... ...
ROW B0 : ... .. . ... V01 ... : ... .. . ... ... ... : ... .. . ... : ... .. E ... : ... .. . ... ...
ROW B1 : ... .. E ... V02 ... : ... .. . ... ... ... : ... .. . ... : ... .. C ... : ... .. . ... ...
ROW B2 : ... .. . ... ... ... : ... .. . ... ... ... : ... .. . ... : ... .. A ... : ... .. . ... ...
ROW B3 : ... .. D ... ... ... : ... .. E ... ... ... : ... .. . ... : ... .. 9 ... : ... .. . ... ...
ROW B4 : ... .. C ... ... ... : ... .. . ... ... ... : ... .. . ... : ... .. 7 ... : ... .. . ... ...
ROW B5 : ... .. . ... ... ... : ... .. . ... ... ... : ... .. . ... : ... .. 5 ... : ... .. . ... ...
ROW B6 : ... .. B ... ... ... : ... .. D ... ... ... : ... .. . ... : ... .. 4 ... : ... .. . ... ...
ROW B7 : ... .. A ... ... ... : ... .. . ... ... ... : ... .. . ... : ... .. 2 ... : ... .. . ... ...
ROW B8 : ... .. . ... ... ... : ... .. . ... ... ... : ... .. . ... : ... .. 0 ... : ... .. . ... ...
ROW B9 : ... .. 9 ... ... ... : ... .. C ... ... ... : ... .. . ... : ... .. . ... : ... .. . ... ...
ROW BA : ... .. . ... ... ... : ... .. . ... ... ... : ... .. . ... : ... .. . ... : ... .. . ... ...
ROW BB : ... .. F ... V03 ... : ... .. . ... ... ... : ... .. . ... : F-# 00 F ... : ... .. . ... ...
ROW BC : ... .. . ... V01 ... : ... .. . ... ... ... : ... .. . ... : ... .. E ... : ... .. . ... ...
ROW BD : ... .. E ... V02 ... : ... .. B ... ... ... : ... .. . ... : ... .. C ... : ... .. . ... ...
ROW BE : ... .. . ... ... ... : ... .. . ... ... ... : ... .. . ... : ... .. A ... : ... .. . ... ...
ROW BF : ... .. D ... ... ... : ... .. . ... ... ... : ... .. . ... : ... .. 9 ... : ... .. . ... ...
ROW C0 : ... .. C ... ... ... : ... .. A ... ... ... : ... .. . ... : ... .. 7 ... : ... .. . ... ...
ROW C1 : ... .. . ... ... ... : ... .. . ... ... ... : ... .. . ... : 0-# 00 F ... : ... .. . ... ...
ROW C2 : ... .. B ... ... ... : ... .. . ... ... ... : ... .. . ... : ... .. E ... : ... .. . ... ...
ROW C3 : ... .. A ... ... ... : ... .. 9 ... ... ... : ... .. . ... : ... .. C ... : ... .. . ... ...
ROW C4 : ... .. . ... ... ... : ... .. . ... ... ... : ... .. . ... : ... .. A ... : ... .. . ... ...
ROW C5 : ... .. 9 ... ... ... : ... .. . ... ... ... : ... .. . ... : ... .. 9 ... : ... .. . ... ...
ROW C6 : ... .. . ... ... ... : ... .. 8 ... ... ... : ... .. . ... : ... .. 7 ... : ... .. . ... ...
ROW C7 : G-2 00 F ... V03 ... : ... .. F ... ... ... : ... .. . ... : 4-# 00 F ... : ... .. . ... ...
ROW C8 : ... .. . ... V01 ... : ... .. . ... ... ... : ... .. . ... : ... .. E ... : ... .. . ... ...
ROW C9 : ... .. E ... V02 ... : ... .. . ... ... ... : ... .. . ... : ... .. C ... : ... .. . ... ...
ROW CA : ... .. . ... ... ... : ... .. . ... ... ... : ... .. . ... : ... .. A ... : ... .. . ... ...
ROW CB : ... .. D ... ... ... : ... .. E ... ... ... : ... .. . ... : ... .. 9 ... : ... .. . ... ...
ROW CC : ... .. C ... ... ... : ... .. . ... ... ... : ... .. . ... : ... .. 7 ... : ... .. . ... ...
ROW CD : ... .. . ... ... ... : ... .. . ... ... ... : ... .. . ... : ... .. 5 ... : ... .. . ... ...
ROW CE : ... .. B ... ... ... : ... .. D ... ... ... : ... .. . ... : ... .. 4 ... : ... .. . ... ...
ROW CF : ... .. A ... ... ... : ... .. . ... ... ... : ... .. . ... : ... .. 2 ... : ... .. . ... ...
ROW D0 : ... .. . ... ... ... : ... .. . ... ... ... : ... .. . ... : ... .. 0 ... : ... .. . ... ...
ROW D1 : ... .. 9 ... ... ... : ... .. C ... ... ... : ... .. . ... : ... .. . ... : ... .. . ... ...
ROW D2 : ... .. . ... ... ... : ... .. . ... ... ... : ... .. . ... : ... .. . ... : ... .. . ... ...
ROW D3 : G-1 00 F ... V03 ... : E-3 00 F P7E ... ... : A-4 00 . P7F : F-# 00 F ... : ... .. . ... ...
ROW D4 : ... .. . ... V01 ... : ... .. . ... ... ... : ... .. . ... : ... .. E ... : ... .. . ... ...
ROW D5 : ... .. E ... V02 ... : ... .. . ... ... ... : ... .. . ... : ... .. C ... : ... .. . ... ...
ROW D6 : ... .. . ... ... ... : ... .. . ... ... ... : ... .. . ... : ... .. A ... : ... .. . ... ...
ROW D7 : ... .. D ... ... ... : ... .. E ... ... ... : ... .. . ... : ... .. 9 ... : ... .. . ... ...
ROW D8 : ... .. C ... ... ... : ... .. . ... ... ... : ... .. . ... : ... .. 7 ... : ... .. . ... ...
ROW D9 : ... .. . ... ... ... : ... .. . ... ... ... : ... .. . ... : 4-# 00 F ... : ... .. . ... ...
ROW DA : ... .. B ... ... ... : ... .. D ... ... ... : ... .. . ... : ... .. E ... : ... .. . ... ...
ROW DB : ... .. A ... ... ... : ... .. . ... ... ... : ... .. . ... : ... .. C ... : ... .. . ... ...
ROW DC : ... .. . ... ... ... : ... .. . ... ... ... : ... .. . ... : ... .. A ... : ... .. . ... ...
ROW DD : ... .. 9 ... ... ... : ... .. C ... ... ... : ... .. . ... : ... .. 9 ... : ... .. . ... ...
ROW DE : ... .. . ... ... ... : ... .. . ... ... ... : ... .. . ... : ... .. 7 ... : ... .. . ... ...
ROW DF : C-2 00 F P7E V03 ... : C-3 00 F P7F ... ... : E-4 00 . ... : 0-# 00 F ... : ... .. . ... ...
ROW E0 : ... .. . ... V01 ... : ... .. . ... ... ... : ... .. . ... : ... .. E ... : ... .. . ... ...
ROW E1 : ... .. E ... V02 ... : ... .. . ... ... ... : ... .. . ... : ... .. C ... : ... .. . ... ...
ROW E2 : ... .. . ... ... ... : ... .. . ... ... ... : ... .. . ... : ... .. A ... : ... .. . ... ...
ROW E3 : ... .. D ... ... ... : ... .. E ... ... ... : ... .. . ... : ... .. 9 ... : ... .. . ... ...
ROW E4 : ... .. C ... ... ... : ... .. . ... ... ... : ... .. . ... : ... .. 7 ... : ... .. . ... ...
ROW E5 : ... .. . ... ... ... : ... .. . ... ... ... : ... .. . ... : ... .. 5 ... : ... .. . ... ...
ROW E6 : ... .. B ... ... ... : ... .. D ... ... ... : ... .. . ... : ... .. 4 ... : ... .. . ... ...
ROW E7 : ... .. A ... ... ... : ... .. . ... ... ... : ... .. . ... : ... .. 2 ... : ... .. . ... ...
ROW E8 : ... .. . ... ... ... : ... .. . ... ... ... : ... .. . ... : ... .. 0 ... : ... .. . ... ...
ROW E9 : ... .. 9 ... ... ... : ... .. C ... ... ... : ... .. . ... : ... .. . ... : ... .. . ... ...
ROW EA : ... .. . ... ... ... : ... .. . ... ... ... : ... .. . ... : ... .. . ... : ... .. . ... ...
ROW EB : C-3 00 F P7F V03 ... : ... .. . ... ... ... : ... .. . ... : F-# 00 F ... : ... .. . ... ...
ROW EC : ... .. . ... V01 ... : ... .. . ... ... ... : ... .. . ... : ... .. E ... : ... .. . ... ...
ROW ED : ... .. E ... V02 ... : ... .. B ... ... ... : ... .. . ... : ... .. C ... : ... .. . ... ...
ROW EE : ... .. . ... ... ... : ... .. . ... ... ... : ... .. . ... : ... .. A ... : ... .. . ... ...
ROW EF : ... .. D ... ... ... : ... .. . ... ... ... : ... .. . ... : ... .. 9 ... : ... .. . ... ...
ROW F0 : ... .. C ... ... ... : ... .. A ... ... ... : ... .. . ... : ... .. 7 ... : ... .. . ... ...
ROW F1 : ... .. . ... ... ... : ... .. . ... ... ... : ... .. . ... : 0-# 00 F ... : ... .. . ... ...
ROW F2 : ... .. B ... ... ... : ... .. . ... ... ... : ... .. . ... : ... .. E ... : ... .. . ... ...
ROW F3 : ... .. A ... ... ... : ... .. 9 ... ... ... : ... .. . ... : ... .. C ... : ... .. . ... ...
ROW F4 : ... .. . ... ... ... : ... .. . ... ... ... : ... .. . ... : ... .. A ... : ... .. . ... ...
ROW F5 : ... .. 9 ... ... ... : ... .. . ... ... ... : ... .. . ... : ... .. 9 ... : ... .. . ... ...
ROW F6 : ... .. . ... ... ... : ... .. 8 ... ... ... : ... .. . ... : ... .. 7 ... : ... .. . ... ...
ROW F7 : B-1 00 F P81 V03 ... : E-3 00 F P7E ... ... : G-4 00 . P80 : 4-# 00 F ... : ... .. . ... ...
ROW F8 : ... .. . ... V01 ... : ... .. . ... ... ... : ... .. . ... : ... .. E ... : ... .. . ... ...
ROW F9 : ... .. E ... V02 ... : ... .. . ... ... ... : ... .. . ... : ... .. C ... : ... .. . ... ...
ROW FA : ... .. . ... ... ... : ... .. . ... ... ... : ... .. . ... : ... .. A ... : ... .. . ... ...
ROW FB : ... .. D ... ... ... : ... .. E ... ... ... : ... .. . ... : ... .. 9 ... : ... .. . ... ...
ROW FC : ... .. C ... ... ... : ... .. . ... ... ... : ... .. . ... : ... .. 7 ... : ... .. . ... ...
ROW FD : ... .. . ... ... ... : ... .. . ... ... ... : ... .. . ... : ... .. 5 ... : ... .. . ... ...
ROW FE : ... .. B ... ... ... : ... .. D ... ... ... : ... .. . ... : ... .. 4 ... : ... .. . ... ...
ROW FF : ... .. A ... ... ... : ... .. . ... ... ... : ... .. . ... : ... .. 2 ... : ... .. . ... ...

PATTERN 14
ROW 00 : ... .. . ... ... ... : ... .. . ... ... ... : ... .. . ... : ... .. 0 ... : ... .. . ... ...
ROW 01 : ... .. 9 ... ... ... : ... .. C ... ... ... : ... .. . ... : ... .. . ... : ... .. . ... ...
ROW 02 : ... .. . ... ... ... : ... .. . ... ... ... : ... .. . ... : ... .. . ... : ... .. . ... ...
ROW 03 : B-2 00 F P80 V03 ... : ... .. . ... ... ... : ... .. . ... : F-# 00 F ... : ... .. . ... ...
ROW 04 : ... .. . ... V01 ... : ... .. . ... ... ... : ... .. . ... : ... .. E ... : ... .. . ... ...
ROW 05 : ... .. E ... V02 ... : ... .. B ... ... ... : ... .. . ... : ... .. C ... : ... .. . ... ...
ROW 06 : ... .. . ... ... ... : ... .. . ... ... ... : ... .. . ... : ... .. A ... : ... .. . ... ...
ROW 07 : ... .. D ... ... ... : ... .. . ... ... ... : ... .. . ... : ... .. 9 ... : ... .. . ... ...
ROW 08 : ... .. C ... ... ... : ... .. A ... ... ... : ... .. . ... : ... .. 7 ... : ... .. . ... ...
ROW 09 : ... .. . ... ... ... : ... .. . ... ... ... : ... .. . ... : 4-# 00 F ... : ... .. . ... ...
ROW 0A : ... .. B ... ... ... : ... .. . ... ... ... : ... .. . ... : ... .. E ... : ... .. . ... ...
ROW 0B : ... .. A ... ... ... : ... .. 9 ... ... ... : ... .. . ... : ... .. C ... : ... .. . ... ...
ROW 0C : ... .. . ... ... ... : ... .. . ... ... ... : ... .. . ... : ... .. A ... : ... .. . ... ...
ROW 0D : ... .. 9 ... ... ... : ... .. . ... ... ... : ... .. . ... : ... .. 9 ... : ... .. . ... ...
ROW 0E : ... .. . ... ... ... : ... .. 8 ... ... ... : ... .. . ... : ... .. 7 ... : ... .. . ... ...
ROW 0F : A-1 00 F ... V03 ... : A-3 00 F P7F ... ... : C-5 00 . P7F : 0-# 00 F ... : ... .. . ... ...
ROW 10 : ... .. . ... V01 ... : ... .. . ... ... ... : ... .. . ... : ... .. E ... : ... .. . ... ...
ROW 11 : ... .. E ... V02 ... : ... .. . ... ... ... : ... .. . ... : ... .. C ... : ... .. . ... ...
ROW 12 : ... .. . ... ... ... : ... .. . ... ... ... : ... .. . ... : ... .. A ... : ... .. . ... ...
ROW 13 : ... .. D ... ... ... : ... .. E ... ... ... : ... .. . ... : ... .. 9 ... : ... .. . ... ...
ROW 14 : ... .. C ... ... ... : ... .. . ... ... ... : ... .. . ... : ... .. 7 ... : ... .. . ... ...
ROW 15 : ... .. . ... ... ... : ... .. . ... ... ... : ... .. . ... : ... .. 5 ... : ... .. . ... ...
ROW 16 : ... .. B ... ... ... : ... .. D ... ... ... : ... .. . ... : ... .. 4 ... : ... .. . ... ...
ROW 17 : ... .. A ... ... ... : ... .. . ... ... ... : ... .. . ... : ... .. 2 ... : ... .. . ... ...
ROW 18 : ... .. . ... ... ... : ... .. . ... ... ... : ... .. . ... : ... .. 0 ... : ... .. . ... ...
ROW 19 : ... .. 9 ... ... ... : ... .. C ... ... ... : ... .. . ... : ... .. . ... : ... .. . ... ...
ROW 1A : ... .. . ... ... ... : ... .. . ... ... ... : ... .. . ... : ... .. . ... : ... .. . ... ...
ROW 1B : ... .. F ... V03 ... : ... .. . ... ... ... : ... .. . ... : F-# 00 F ... : ... .. . ... ...
ROW 1C : ... .. . ... V01 ... : ... .. . ... ... ... : ... .. . ... : ... .. E ... : ... .. . ... ...
ROW 1D : ... .. E ... V02 ... : ... .. B ... ... ... : ... .. . ... : ... .. C ... : ... .. . ... ...
ROW 1E : ... .. . ... ... ... : ... .. . ... ... ... : ... .. . ... : ... .. A ... : ... .. . ... ...
ROW 1F : ... .. D ... ... ... : ... .. . ... ... ... : ... .. . ... : ... .. 9 ... : ... .. . ... ...
ROW 20 : ... .. C ... ... ... : ... .. A ... ... ... : ... .. . ... : ... .. 7 ... : ... .. . ... ...
ROW 21 : ... .. . ... ... ... : ... .. . ... ... ... : ... .. . ... : 0-# 00 F ... : ... .. . ... ...
ROW 22 : ... .. B ... ... ... : ... .. . ... ... ... : ... .. . ... : ... .. E ... : ... .. . ... ...
ROW 23 : ... .. A ... ... ... : ... .. 9 ... ... ... : ... .. . ... : ... .. C ... : ... .. . ... ...
ROW 24 : ... .. . ... ... ... : ... .. . ... ... ... : ... .. . ... : ... .. A ... : ... .. . ... ...
ROW 25 : ... .. 9 ... ... ... : ... .. . ... ... ... : ... .. . ... : ... .. 9 ... : ... .. . ... ...
ROW 26 : ... .. . ... ... ... : ... .. 8 ... ... ... : ... .. . ... : ... .. 7 ... : ... .. . ... ...
ROW 27 : A-2 00 F P7F V03 ... : E-3 00 F P7E ... ... : A-4 00 . ... : 4-# 00 F ... : ... .. . ... ...
ROW 28 : ... .. . ... V01 ... : ... .. . ... ... ... : ... .. . ... : ... .. E ... : ... .. . ... ...
ROW 29 : ... .. E ... V02 ... : ... .. . ... ... ... : ... .. . ... : ... .. C ... : ... .. . ... ...
ROW 2A : ... .. . ... ... ... : ... .. . ... ... ... : ... .. . ... : ... .. A ... : ... .. . ... ...
ROW 2B : ... .. D ... ... ... : ... .. E ... ... ... : ... .. . ... : ... .. 9 ... : ... .. . ... ...
ROW 2C : ... .. C ... ... ... : ... .. . ... ... ... : ... .. . ... : ... .. 7 ... : ... .. . ... ...
ROW 2D : ... .. . ... ... ... : ... .. . ... ... ... : ... .. . ... : ... .. 5 ... : ... .. . ... ...
ROW 2E : ... .. B ... ... ... : ... .. D ... ... ... : ... .. . ... : ... .. 4 ... : ... .. . ... ...
ROW 2F : ... .. A ... ... ... : ... .. . ... ... ... : ... .. . ... : ... .. 2 ... : ... .. . ... ...
ROW 30 : ... .. . ... ... ... : ... .. . ... ... ... : ... .. . ... : ... .. 0 ... : ... .. . ... ...
ROW 31 : ... .. 9 ... ... ... : ... .. C ... ... ... : ... .. . ... : ... .. . ... : ... .. . ... ...
ROW 32 : ... .. . ... ... ... : ... .. . ... ... ... : ... .. . ... : ... .. . ... : ... .. . ... ...
ROW 33 : A-1 00 F P80 V03 ... : ... .. . ... ... ... : ... .. . ... : F-# 00 F ... : ... .. . ... ...
ROW 34 : ... .. . ... V01 ... : ... .. . ... ... ... : ... .. . ... : ... .. E ... : ... .. . ... ...
ROW 35 : ... .. E ... V02 ... : ... .. B ... ... ... : ... .. . ... : ... .. C ... : ... .. . ... ...
ROW 36 : ... .. . ... ... ... : ... .. . ... ... ... : ... .. . ... : ... .. A ... : ... .. . ... ...
ROW 37 : ... .. D ... ... ... : ... .. . ... ... ... : ... .. . ... : ... .. 9 ... : ... .. . ... ...
ROW 38 : ... .. C ... ... ... : ... .. A ... ... ... : ... .. . ... : ... .. 7 ... : ... .. . ... ...
ROW 39 : ... .. . ... ... ... : ... .. . ... ... ... : ... .. . ... : 4-# 00 F ... : ... .. . ... ...
ROW 3A : ... .. B ... ... ... : ... .. . ... ... ... : ... .. . ... : ... .. E ... : ... .. . ... ...
ROW 3B : ... .. A ... ... ... : ... .. 9 ... ... ... : ... .. . ... : ... .. C ... : ... .. . ... ...
ROW 3C : ... .. . ... ... ... : ... .. . ... ... ... : ... .. . ... : ... .. A ... : ... .. . ... ...
ROW 3D : ... .. 9 ... ... ... : ... .. . ... ... ... : ... .. . ... : ... .. 9 ... : ... .. . ... ...
ROW 3E : ... .. . ... ... ... : ... .. 8 ... ... ... : ... .. . ... : ... .. 7 ... : ... .. . ... ...
ROW 3F : F-1 00 F ... V03 ... : A-3 00 F P7F ... ... : C-5 00 . ... : 0-# 00 F ... : ... .. . ... ...
ROW 40 : ... .. . ... V01 ... : ... .. . ... ... ... : ... .. . ... : ... .. E ... : ... .. . ... ...
ROW 41 : ... .. E ... V02 ... : ... .. . ... ... ... : ... .. . ... : ... .. C ... : ... .. . ... ...
ROW 42 : ... .. . ... ... ... : ... .. . ... ... ... : ... .. . ... : ... .. A ... : ... .. . ... ...
ROW 43 : ... .. D ... ... ... : ... .. E ... ... ... : ... .. . ... : ... .. 9 ... : ... .. . ... ...
ROW 44 : ... .. C ... ... ... : ... .. . ... ... ... : ... .. . ... : ... .. 7 ... : ... .. . ... ...
ROW 45 : ... .. . ... ... ... : ... .. . ... ... ... : ... .. . ... : ... .. 5 ... : ... .. . ... ...
ROW 46 : ... .. B ... ... ... : ... .. D ... ... ... : ... .. . ... : ... .. 4 ... : ... .. . ... ...
ROW 47 : ... .. A ... ... ... : ... .. . ... ... ... : ... .. . ... : ... .. 2 ... : ... .. . ... ...
ROW 48 : ... .. . ... ... ... : ... .. . ... ... ... : ... .. . ... : ... .. 0 ... : ... .. . ... ...
ROW 49 : ... .. 9 ... ... ... : ... .. C ... ... ... : ... .. . ... : ... .. . ... : ... .. . ... ...
ROW 4A : ... .. . ... ... ... : ... .. . ... ... ... : ... .. . ... : ... .. . ... : ... .. . ... ...
ROW 4B : ... .. F ... V03 ... : ... .. . ... ... ... : ... .. . ... : F-# 00 F ... : ... .. . ... ...
ROW 4C : ... .. . ... V01 ... : ... .. . ... ... ... : ... .. . ... : ... .. E ... : ... .. . ... ...
ROW 4D : ... .. E ... V02 ... : ... .. B ... ... ... : ... .. . ... : ... .. C ... : ... .. . ... ...
ROW 4E : ... .. . ... ... ... : ... .. . ... ... ... : ... .. . ... : ... .. A ... : ... .. . ... ...
ROW 4F : ... .. D ... ... ... : ... .. . ... ... ... : ... .. . ... : ... .. 9 ... : ... .. . ... ...
ROW 50 : ... .. C ... ... ... : ... .. A ... ... ... : ... .. . ... : ... .. 7 ... : ... .. . ... ...
ROW 51 : ... .. . ... ... ... : ... .. . ... ... ... : ... .. . ... : 0-# 00 F ... : ... .. . ... ...
ROW 52 : ... .. B ... ... ... : ... .. . ... ... ... : ... .. . ... : ... .. E ... : ... .. . ... ...
ROW 53 : ... .. A ... ... ... : ... .. 9 ... ... ... : ... .. . ... : ... .. C ... : ... .. . ... ...
ROW 54 : ... .. . ... ... ... : ... .. . ... ... ... : ... .. . ... : ... .. A ... : ... .. . ... ...
ROW 55 : ... .. 9 ... ... ... : ... .. . ... ... ... : ... .. . ... : ... .. 9 ... : ... .. . ... ...
ROW 56 : ... .. . ... ... ... : ... .. 8 ... ... ... : ... .. . ... : ... .. 7 ... : ... .. . ... ...
ROW 57 : F-2 00 F ... V03 ... : ... .. F ... ... ... : ... .. . ... : 4-# 00 F ... : ... .. . ... ...
ROW 58 : ... .. . ... V01 ... : ... .. . ... ... ... : ... .. . ... : ... .. E ... : ... .. . ... ...
ROW 59 : ... .. E ... V02 ... : ... .. . ... ... ... : ... .. . ... : ... .. C ... : ... .. . ... ...
ROW 5A : ... .. . ... ... ... : ... .. . ... ... ... : ... .. . ... : ... .. A ... : ... .. . ... ...
ROW 5B : ... .. D ... ... ... : ... .. E ... ... ... : ... .. . ... : ... .. 9 ... : ... .. . ... ...
ROW 5C : ... .. C ... ... ... : ... .. . ... ... ... : ... .. . ... : ... .. 7 ... : ... .. . ... ...
ROW 5D : ... .. . ... ... ... : ... .. . ... ... ... : ... .. . ... : ... .. 5 ... : ... .. . ... ...
ROW 5E : ... .. B ... ... ... : ... .. D ... ... ... : ... .. . ... : ... .. 4 ... : ... .. . ... ...
ROW 5F : ... .. A ... ... ... : ... .. . ... ... ... : ... .. . ... : ... .. 2 ... : ... .. . ... ...
ROW 60 : ... .. . ... ... ... : ... .. . ... ... ... : ... .. . ... : ... .. 0 ... : ... .. . ... ...
ROW 61 : ... .. 9 ... ... ... : ... .. C ... ... ... : ... .. . ... : ... .. . ... : ... .. . ... ...
ROW 62 : ... .. . ... ... ... : ... .. . ... ... ... : ... .. . ... : ... .. . ... : ... .. . ... ...
ROW 63 : F-1 00 F ... V03 ... : G-3 00 F ... ... ... : B-4 00 . ... : F-# 00 F ... : ... .. . ... ...
ROW 64 : ... .. . ... V01 ... : ... .. . ... ... ... : ... .. . ... : ... .. E ... : ... .. . ... ...
ROW 65 : ... .. E ... V02 ... : ... .. . ... ... ... : ... .. . ... : ... .. C ... : ... .. . ... ...
ROW 66 : ... .. . ... ... ... : ... .. . ... ... ... : ... .. . ... : ... .. A ... : ... .. . ... ...
ROW 67 : ... .. D ... ... ... : ... .. E ... ... ... : ... .. . ... : ... .. 9 ... : ... .. . ... ...
ROW 68 : ... .. C ... ... ... : ... .. . ... ... ... : ... .. . ... : ... .. 7 ... : ... .. . ... ...
ROW 69 : ... .. . ... ... ... : ... .. . ... ... ... : ... .. . ... : 4-# 00 F ... : ... .. . ... ...
ROW 6A : ... .. B ... ... ... : ... .. D ... ... ... : ... .. . ... : ... .. E ... : ... .. . ... ...
ROW 6B : ... .. A ... ... ... : ... .. . ... ... ... : ... .. . ... : ... .. C ... : ... .. . ... ...
ROW 6C : ... .. . ... ... ... : ... .. . ... ... ... : ... .. . ... : ... .. A ... : ... .. . ... ...
ROW 6D : ... .. 9 ... ... ... : ... .. C ... ... ... : ... .. . ... : ... .. 9 ... : ... .. . ... ...
ROW 6E : ... .. . ... ... ... : ... .. . ... ... ... : ... .. . ... : ... .. 7 ... : ... .. . ... ...
ROW 6F : G-1 00 F ... V03 ... : F-3 00 F ... ... ... : A-4 00 . ... : 0-# 00 F ... : ... .. . ... ...
ROW 70 : ... .. . ... V01 ... : ... .. . ... ... ... : ... .. . ... : ... .. E ... : ... .. . ... ...
ROW 71 : ... .. E ... V02 ... : ... .. . ... ... ... : ... .. . ... : ... .. C ... : ... .. . ... ...
ROW 72 : ... .. . ... ... ... : ... .. . ... ... ... : ... .. . ... : ... .. A ... : ... .. . ... ...
ROW 73 : ... .. D ... ... ... : ... .. E ... ... ... : ... .. . ... : ... .. 9 ... : ... .. . ... ...
ROW 74 : ... .. C ... ... ... : ... .. . ... ... ... : ... .. . ... : ... .. 7 ... : ... .. . ... ...
ROW 75 : ... .. . ... ... ... : ... .. . ... ... ... : ... .. . ... : ... .. 5 ... : ... .. . ... ...
ROW 76 : ... .. B ... ... ... : ... .. D ... ... ... : ... .. . ... : ... .. 4 ... : ... .. . ... ...
ROW 77 : ... .. A ... ... ... : ... .. . ... ... ... : ... .. . ... : ... .. 2 ... : ... .. . ... ...
ROW 78 : ... .. . ... ... ... : ... .. . ... ... ... : ... .. . ... : ... .. 0 ... : ... .. . ... ...
ROW 79 : ... .. 9 ... ... ... : ... .. C ... ... ... : ... .. . ... : ... .. . ... : ... .. . ... ...
ROW 7A : ... .. . ... ... ... : ... .. . ... ... ... : ... .. . ... : ... .. . ... : ... .. . ... ...
ROW 7B : ... .. F ... V03 ... : ... .. . ... ... ... : ... .. . ... : F-# 00 F ... : ... .. . ... ...
ROW 7C : ... .. . ... V01 ... : ... .. . ... ... ... : ... .. . ... : ... .. E ... : ... .. . ... ...
ROW 7D : ... .. E ... V02 ... : ... .. B ... ... ... : ... .. . ... : ... .. C ... : ... .. . ... ...
ROW 7E : ... .. . ... ... ... : ... .. . ... ... ... : ... .. . ... : ... .. A ... : ... .. . ... ...
ROW 7F : ... .. D ... ... ... : ... .. . ... ... ... : ... .. . ... : ... .. 9 ... : ... .. . ... ...
ROW 80 : ... .. C ... ... ... : ... .. A ... ... ... : ... .. . ... : ... .. 7 ... : ... .. . ... ...
ROW 81 : ... .. . ... ... ... : ... .. . ... ... ... : ... .. . ... : 0-# 00 F ... : ... .. . ... ...
ROW 82 : ... .. B ... ... ... : ... .. . ... ... ... : ... .. . ... : ... .. E ... : ... .. . ... ...
ROW 83 : ... .. A ... ... ... : ... .. 9 ... ... ... : ... .. . ... : ... .. C ... : ... .. . ... ...
ROW 84 : ... .. . ... ... ... : ... .. . ... ... ... : ... .. . ... : ... .. A ... : ... .. . ... ...
ROW 85 : ... .. 9 ... ... ... : ... .. . ... ... ... : ... .. . ... : ... .. 9 ... : ... .. . ... ...
ROW 86 : ... .. . ... ... ... : ... .. 8 ... ... ... : ... .. . ... : ... .. 7 ... : ... .. . ... ...
ROW 87 : G-2 00 F ... V03 ... : E-3 00 F P7E ... ... : ... .. . ... : 4-# 00 F ... : ... .. . ... ...
ROW 88 : ... .. . ... V01 ... : ... .. . ... ... ... : ... .. . ... : ... .. E ... : ... .. . ... ...
ROW 89 : ... .. E ... V02 ... : ... .. . ... ... ... : ... .. . ... : ... .. C ... : ... .. . ... ...
ROW 8A : ... .. . ... ... ... : ... .. . ... ... ... : ... .. . ... : ... .. A ... : ... .. . ... ...
ROW 8B : ... .. D ... ... ... : ... .. E ... ... ... : ... .. . ... : ... .. 9 ... : ... .. . ... ...
ROW 8C : ... .. C ... ... ... : ... .. . ... ... ... : ... .. . ... : ... .. 7 ... : ... .. . ... ...
ROW 8D : ... .. . ... ... ... : ... .. . ... ... ... : ... .. . ... : ... .. 5 ... : ... .. . ... ...
ROW 8E : ... .. B ... ... ... : ... .. D ... ... ... : ... .. . ... : ... .. 4 ... : ... .. . ... ...
ROW 8F : ... .. A ... ... ... : ... .. . ... ... ... : ... .. . ... : ... .. 2 ... : ... .. . ... ...
ROW 90 : ... .. . ... ... ... : ... .. . ... ... ... : ... .. . ... : ... .. 0 ... : ... .. . ... ...
ROW 91 : ... .. 9 ... ... ... : ... .. C ... ... ... : ... .. . ... : ... .. . ... : ... .. . ... ...
ROW 92 : ... .. . ... ... ... : ... .. . ... ... ... : ... .. . ... : ... .. . ... : ... .. . ... ...
ROW 93 : G-1 00 F ... V03 ... : D-3 00 F P7F ... ... : G-4 00 . P80 : F-# 00 F ... : ... .. . ... ...
ROW 94 : ... .. . ... V01 ... : ... .. . ... ... ... : ... .. . ... : ... .. E ... : ... .. . ... ...
ROW 95 : ... .. E ... V02 ... : ... .. . ... ... ... : ... .. . ... : ... .. C ... : ... .. . ... ...
ROW 96 : ... .. . ... ... ... : ... .. . ... ... ... : ... .. . ... : ... .. A ... : ... .. . ... ...
ROW 97 : ... .. D ... ... ... : ... .. E ... ... ... : ... .. . ... : ... .. 9 ... : ... .. . ... ...
ROW 98 : ... .. C ... ... ... : ... .. . ... ... ... : ... .. . ... : ... .. 7 ... : ... .. . ... ...
ROW 99 : ... .. . ... ... ... : ... .. . ... ... ... : ... .. . ... : 4-# 00 F ... : ... .. . ... ...
ROW 9A : ... .. B ... ... ... : ... .. D ... ... ... : ... .. . ... : ... .. E ... : ... .. . ... ...
ROW 9B : ... .. A ... ... ... : ... .. . ... ... ... : ... .. . ... : ... .. C ... : ... .. . ... ...
ROW 9C : ... .. . ... ... ... : ... .. . ... ... ... : ... .. . ... : ... .. A ... : ... .. . ... ...
ROW 9D : ... .. 9 ... ... ... : ... .. C ... ... ... : ... .. . ... : ... .. 9 ... : ... .. . ... ...
ROW 9E : ... .. . ... ... ... : ... .. . ... ... ... : ... .. . ... : ... .. 7 ... : ... .. . ... ...
ROW 9F : C-2 00 F P7E V03 ... : C-3 00 F ... ... ... : E-4 00 . P7F : 0-# 00 F ... : ... .. . ... ...
ROW A0 : ... .. . ... V01 ... : ... .. . ... ... ... : ... .. . ... : ... .. E ... : ... .. . ... ...
ROW A1 : ... .. E ... V02 ... : ... .. . ... ... ... : ... .. . ... : ... .. C ... : ... .. . ... ...
ROW A2 : ... .. . ... ... ... : ... .. . ... ... ... : ... .. . ... : ... .. A ... : ... .. . ... ...
ROW A3 : ... .. D ... ... ... : ... .. E ... ... ... : ... .. . ... : ... .. 9 ... : ... .. . ... ...
ROW A4 : ... .. C ... ... ... : ... .. . ... ... ... : ... .. . ... : ... .. 7 ... : ... .. . ... ...
ROW A5 : ... .. . ... ... ... : ... .. . ... ... ... : ... .. . ... : ... .. 5 ... : ... .. . ... ...
ROW A6 : ... .. B ... ... ... : ... .. D ... ... ... : ... .. . ... : ... .. 4 ... : ... .. . ... ...
ROW A7 : ... .. A ... ... ... : ... .. . ... ... ... : ... .. . ... : ... .. 2 ... : ... .. . ... ...
ROW A8 : ... .. . ... ... ... : ... .. . ... ... ... : ... .. . ... : ... .. 0 ... : ... .. . ... ...
ROW A9 : ... .. 9 ... ... ... : ... .. C ... ... ... : ... .. . ... : ... .. . ... : ... .. . ... ...
ROW AA : ... .. . ... ... ... : ... .. . ... ... ... : ... .. . ... : ... .. . ... : ... .. . ... ...
ROW AB : C-3 00 F P7F V03 ... : ... .. . ... ... ... : ... .. . ... : F-# 00 F ... : ... .. . ... ...
ROW AC : ... .. . ... V01 ... : ... .. . ... ... ... : ... .. . ... : ... .. E ... : ... .. . ... ...
ROW AD : ... .. E ... V02 ... : ... .. B ... ... ... : ... .. . ... : ... .. C ... : ... .. . ... ...
ROW AE : ... .. . ... ... ... : ... .. . ... ... ... : ... .. . ... : ... .. A ... : ... .. . ... ...
ROW AF : ... .. D ... ... ... : ... .. . ... ... ... : ... .. . ... : ... .. 9 ... : ... .. . ... ...
ROW B0 : ... .. C ... ... ... : ... .. A ... ... ... : ... .. . ... : ... .. 7 ... : ... .. . ... ...
ROW B1 : ... .. . ... ... ... : ... .. . ... ... ... : ... .. . ... : 0-# 00 F ... : ... .. . ... ...
ROW B2 : ... .. B ... ... ... : ... .. . ... ... ... : ... .. . ... : ... .. E ... : ... .. . ... ...
ROW B3 : ... .. A ... ... ... : ... .. 9 ... ... ... : ... .. . ... : ... .. C ... : ... .. . ... ...
ROW B4 : ... .. . ... ... ... : ... .. . ... ... ... : ... .. . ... : ... .. A ... : ... .. . ... ...
ROW B5 : ... .. 9 ... ... ... : ... .. . ... ... ... : ... .. . ... : ... .. 9 ... : ... .. . ... ...
ROW B6 : ... .. . ... ... ... : ... .. 8 ... ... ... : ... .. . ... : ... .. 7 ... : ... .. . ... ...
ROW B7 : G-1 00 F P80 V03 ... : E-3 00 F P7E ... ... : A-4 00 . ... : 4-# 00 F ... : ... .. . ... ...
ROW B8 : ... .. . ... V01 ... : ... .. . ... ... ... : ... .. . ... : ... .. E ... : ... .. . ... ...
ROW B9 : ... .. E ... V02 ... : ... .. . ... ... ... : ... .. . ... : ... .. C ... : ... .. . ... ...
ROW BA : ... .. . ... ... ... : ... .. . ... ... ... : ... .. . ... : ... .. A ... : ... .. . ... ...
ROW BB : ... .. D ... ... ... : ... .. E ... ... ... : ... .. . ... : ... .. 9 ... : ... .. . ... ...
ROW BC : ... .. C ... ... ... : ... .. . ... ... ... : ... .. . ... : ... .. 7 ... : ... .. . ... ...
ROW BD : ... .. . ... ... ... : ... .. . ... ... ... : ... .. . ... : ... .. 5 ... : ... .. . ... ...
ROW BE : ... .. B ... ... ... : ... .. D ... ... ... : ... .. . ... : ... .. 4 ... : ... .. . ... ...
ROW BF : ... .. A ... ... ... : ... .. . ... ... ... : ... .. . ... : ... .. 2 ... : ... .. . ... ...
ROW C0 : ... .. . ... ... ... : ... .. . ... ... ... : ... .. . ... : ... .. 0 ... : ... .. . ... ...
ROW C1 : ... .. 9 ... ... ... : ... .. C ... ... ... : ... .. . ... : ... .. . ... : ... .. . ... ...
ROW C2 : ... .. . ... ... ... : ... .. . ... ... ... : ... .. . ... : ... .. . ... : ... .. . ... ...
ROW C3 : G-2 00 F ... V03 ... : G-3 00 F P7F ... ... : C-5 00 . ... : F-# 00 F ... : ... .. . ... ...
ROW C4 : ... .. . ... V01 ... : ... .. . ... ... ... : ... .. . ... : ... .. E ... : ... .. . ... ...
ROW C5 : ... .. E ... V02 ... : ... .. . ... ... ... : ... .. . ... : ... .. C ... : ... .. . ... ...
ROW C6 : ... .. . ... ... ... : ... .. . ... ... ... : ... .. . ... : ... .. A ... : ... .. . ... ...
ROW C7 : ... .. D ... ... ... : ... .. E ... ... ... : ... .. . ... : ... .. 9 ... : ... .. . ... ...
ROW C8 : ... .. C ... ... ... : ... .. . ... ... ... : ... .. . ... : ... .. 7 ... : ... .. . ... ...
ROW C9 : ... .. . ... ... ... : ... .. . ... ... ... : ... .. . ... : 4-# 00 F ... : ... .. . ... ...
ROW CA : ... .. B ... ... ... : ... .. D ... ... ... : ... .. . ... : ... .. E ... : ... .. . ... ...
ROW CB : ... .. A ... ... ... : ... .. . ... ... ... : ... .. . ... : ... .. C ... : ... .. . ... ...
ROW CC : ... .. . ... ... ... : ... .. . ... ... ... : ... .. . ... : ... .. A ... : ... .. . ... ...
ROW CD : ... .. 9 ... ... ... : ... .. C ... ... ... : ... .. . ... : ... .. 9 ... : ... .. . ... ...
ROW CE : ... .. . ... ... ... : ... .. . ... ... ... : ... .. . ... : ... .. 7 ... : ... .. . ... ...
ROW CF : A-1 00 F ... V03 ... : A-3 00 F ... ... ... : E-5 00 . ... : 0-# 00 F ... : ... .. . ... ...
ROW D0 : ... .. . ... V01 ... : ... .. . ... ... ... : ... .. . ... : ... .. E ... : ... .. . ... ...
ROW D1 : ... .. E ... V02 ... : ... .. . ... ... ... : ... .. . ... : ... .. C ... : ... .. . ... ...
ROW D2 : ... .. . ... ... ... : ... .. . ... ... ... : ... .. . ... : ... .. A ... : ... .. . ... ...
ROW D3 : ... .. D ... ... ... : ... .. E ... ... ... : ... .. . ... : ... .. 9 ... : ... .. . ... ...
ROW D4 : ... .. C ... ... ... : ... .. . ... ... ... : ... .. . ... : ... .. 7 ... : ... .. . ... ...
ROW D5 : ... .. . ... ... ... : ... .. . ... ... ... : ... .. . ... : ... .. 5 ... : ... .. . ... ...
ROW D6 : ... .. B ... ... ... : ... .. D ... ... ... : ... .. . ... : ... .. 4 ... : ... .. . ... ...
ROW D7 : ... .. A ... ... ... : ... .. . ... ... ... : ... .. . ... : ... .. 2 ... : ... .. . ... ...
ROW D8 : ... .. . ... ... ... : ... .. . ... ... ... : ... .. . ... : ... .. 0 ... : ... .. . ... ...
ROW D9 : ... .. 9 ... ... ... : ... .. C ... ... ... : ... .. . ... : ... .. . ... : ... .. . ... ...
ROW DA : ... .. . ... ... ... : ... .. . ... ... ... : ... .. . ... : ... .. . ... : ... .. . ... ...
ROW DB : ... .. F ... V03 ... : ... .. . ... ... ... : ... .. . ... : F-# 00 F ... : ... .. . ... ...
ROW DC : ... .. . ... V01 ... : ... .. . ... ... ... : ... .. . ... : ... .. E ... : ... .. . ... ...
ROW DD : ... .. E ... V02 ... : ... .. B ... ... ... : ... .. . ... : ... .. C ... : ... .. . ... ...
ROW DE : ... .. . ... ... ... : ... .. . ... ... ... : ... .. . ... : ... .. A ... : ... .. . ... ...
ROW DF : ... .. D ... ... ... : ... .. . ... ... ... : ... .. . ... : ... .. 9 ... : ... .. . ... ...
ROW E0 : ... .. C ... ... ... : ... .. A ... ... ... : ... .. . ... : ... .. 7 ... : ... .. . ... ...
ROW E1 : ... .. . ... ... ... : ... .. . ... ... ... : ... .. . ... : 0-# 00 F ... : ... .. . ... ...
ROW E2 : ... .. B ... ... ... : ... .. . ... ... ... : ... .. . ... : ... .. E ... : ... .. . ... ...
ROW E3 : ... .. A ... ... ... : ... .. 9 ... ... ... : ... .. . ... : ... .. C ... : ... .. . ... ...
ROW E4 : ... .. . ... ... ... : ... .. . ... ... ... : ... .. . ... : ... .. A ... : ... .. . ... ...
ROW E5 : ... .. 9 ... ... ... : ... .. . ... ... ... : ... .. . ... : ... .. 9 ... : ... .. . ... ...
ROW E6 : ... .. . ... ... ... : ... .. 8 ... ... ... : ... .. . ... : ... .. 7 ... : ... .. . ... ...
ROW E7 : A-2 00 F P7F V03 ... : ... .. . ... ... ... : ... .. . ... : 4-# 00 F ... : ... .. . ... ...
ROW E8 : ... .. . ... V01 ... : ... .. . ... ... ... : ... .. . ... : ... .. E ... : ... .. . ... ...
ROW E9 : ... .. E ... V02 ... : ... .. . ... ... ... : ... .. . ... : ... .. C ... : ... .. . ... ...
ROW EA : ... .. . ... ... ... : ... .. 7 ... ... ... : ... .. . ... : ... .. A ... : ... .. . ... ...
ROW EB : ... .. D ... ... ... : ... .. . ... ... ... : ... .. . ... : ... .. 9 ... : ... .. . ... ...
ROW EC : ... .. C ... ... ... : ... .. . ... ... ... : ... .. . ... : ... .. 7 ... : ... .. . ... ...
ROW ED : ... .. . ... ... ... : ... .. 6 ... ... ... : ... .. . ... : ... .. 5 ... : ... .. . ... ...
ROW EE : ... .. B ... ... ... : ... .. . ... ... ... : ... .. . ... : ... .. 4 ... : ... .. . ... ...
ROW EF : ... .. A ... ... ... : ... .. . ... ... ... : ... .. . ... : ... .. 2 ... : ... .. . ... ...
ROW F0 : ... .. . ... ... ... : ... .. 5 ... ... ... : ... .. . ... : ... .. 0 ... : ... .. . ... ...
ROW F1 : ... .. 9 ... ... ... : ... .. . ... ... ... : ... .. . ... : ... .. . ... : ... .. . ... ...
ROW F2 : ... .. . ... ... ... : ... .. . ... ... ... : ... .. . ... : ... .. . ... : ... .. . ... ...
ROW F3 : A-1 00 F P80 V03 ... : ... .. 4 ... ... ... : ... .. . ... : F-# 00 F ... : ... .. . ... ...
ROW F4 : ... .. . ... V01 ... : ... .. . ... ... ... : ... .. . ... : ... .. E ... : ... .. . ... ...
ROW F5 : ... .. E ... V02 ... : ... .. . ... ... ... : ... .. . ... : ... .. C ... : ... .. . ... ...
ROW F6 : ... .. . ... ... ... : ... .. . ... ... ... : ... .. . ... : ... .. A ... : ... .. . ... ...
ROW F7 : ... .. D ... ... ... : ... .. 3 ... ... ... : ... .. . ... : ... .. 9 ... : ... .. . ... ...
ROW F8 : ... .. C ... ... ... : ... .. . ... ... ... : ... .. . ... : ... .. 7 ... : ... .. . ... ...
ROW F9 : ... .. . ... ... ... : ... .. . ... ... ... : ... .. . ... : 4-# 00 F ... : ... .. . ... ...
ROW FA : ... .. B ... ... ... : ... .. 2 ... ... ... : ... .. . ... : ... .. E ... : ... .. . ... ...
ROW FB : ... .. A ... ... ... : ... .. . ... ... ... : ... .. . ... : ... .. C ... : ... .. . ... ...
ROW FC : ... .. . ... ... ... : ... .. . ... ... ... : ... .. . ... : ... .. A ... : ... .. . ... ...
ROW FD : ... .. 9 ... ... ... : ... .. 1 ... ... ... : ... .. . ... : ... .. 9 ... : ... .. . ... ...
ROW FE : ... .. . ... ... ... : ... .. . ... ... ... : ... .. . ... : ... .. 7 ... : ... .. . ... ...
ROW FF : ... .. F ... V03 ... : C-4 00 F ... ... ... : D#4 00 . P84 : 0-# 00 F V01 : ... .. . ... ...

PATTERN 15
ROW 00 : ... .. . ... V01 ... : ... .. . ... ... ... : B-3 00 . P82 : ... .. . ... : ... .. . ... ...
ROW 01 : ... .. E ... V02 ... : ... .. . ... ... ... : G#3 00 . P7D : ... .. E V00 : ... .. . ... ...
ROW 02 : ... .. . ... ... ... : ... .. . ... ... ... : F-3 00 . P80 : ... .. . ... : ... .. . ... ...
ROW 03 : ... .. D ... ... ... : ... .. E ... ... ... : D#3 00 . P78 : ... .. D ... : ... .. . ... ...
ROW 04 : ... .. C ... ... ... : ... .. . ... ... ... : C-3 00 . P8C : ... .. C ... : ... .. . ... ...
ROW 05 : ... .. . ... ... ... : ... .. . ... ... ... : B-2 00 . P75 : ... .. . ... : ... .. . ... ...
ROW 06 : ... .. B ... ... ... : ... .. D ... ... ... : A-2 00 . P7C : ... .. B ... : ... .. . ... ...
ROW 07 : ... .. A ... ... ... : ... .. . ... ... ... : G-2 00 . P8B : ... .. A ... : ... .. . ... ...
ROW 08 : ... .. . ... ... ... : ... .. . ... ... ... : F#2 00 . P7D : ... .. . ... : ... .. . ... ...
ROW 09 : ... .. 9 ... ... ... : ... .. C ... ... ... : F-2 00 . P71 : ... .. 9 ... : ... .. . ... ...
ROW 0A : ... .. . ... ... ... : ... .. . ... ... ... : D#2 00 . P8F : ... .. . ... : ... .. . ... ...
ROW 0B : ... .. F ... V03 ... : ... .. . ... ... ... : A-4 00 . P7F : ... .. 8 ... : ... .. . ... ...
ROW 0C : ... .. . ... V01 ... : ... .. . ... ... ... : ... .. . ... : ... .. 7 ... : ... .. . ... ...
ROW 0D : ... .. E ... V02 ... : ... .. B ... ... ... : ... .. . ... : ... .. . ... : ... .. . ... ...
ROW 0E : ... .. . ... ... ... : ... .. . ... ... ... : ... .. . ... : ... .. 6 ... : ... .. . ... ...
ROW 0F : ... .. D ... ... ... : ... .. . ... ... ... : ... .. . ... : ... .. 5 ... : ... .. . ... ...
ROW 10 : ... .. C ... ... ... : ... .. A ... ... ... : ... .. . ... : ... .. . ... : ... .. . ... ...
ROW 11 : ... .. . ... ... ... : ... .. . ... ... ... : ... .. . ... : ... .. 4 ... : ... .. . ... ...
ROW 12 : ... .. B ... ... ... : ... .. . ... ... ... : ... .. . ... : ... .. . ... : ... .. . ... ...
ROW 13 : ... .. A ... ... ... : ... .. 9 ... ... ... : ... .. . ... : ... .. 3 ... : ... .. . ... ...
ROW 14 : ... .. . ... ... ... : ... .. . ... ... ... : ... .. . ... : ... .. 2 ... : ... .. . ... ...
ROW 15 : ... .. 9 ... ... ... : ... .. . ... ... ... : ... .. . ... : ... .. . ... : ... .. . ... ...
ROW 16 : ... .. . ... ... ... : ... .. 8 ... ... ... : ... .. . ... : ... .. 1 ... : ... .. . ... ...
ROW 17 : A-2 00 F P7F V03 ... : A-3 00 F ... ... ... : D#4 00 . P84 : 4-# 00 F V01 : ... .. . ... ...
ROW 18 : ... .. . ... V01 ... : ... .. . ... ... ... : B-3 00 . P82 : ... .. . ... : ... .. . ... ...
ROW 19 : ... .. E ... V02 ... : ... .. . ... ... ... : G#3 00 . P7D : ... .. E V00 : ... .. . ... ...
ROW 1A : ... .. . ... ... ... : ... .. . ... ... ... : F-3 00 . P80 : ... .. . ... : ... .. . ... ...
ROW 1B : ... .. D ... ... ... : ... .. E ... ... ... : D#3 00 . P78 : ... .. D ... : ... .. . ... ...
ROW 1C : ... .. C ... ... ... : ... .. . ... ... ... : C-3 00 . P8C : ... .. C ... : ... .. . ... ...
ROW 1D : ... .. . ... ... ... : C-4 00 F ... ... ... : B-2 00 . P75 : ... .. . ... : ... .. . ... ...
ROW 1E : ... .. B ... ... ... : ... .. . ... ... ... : A-2 00 . P7C : ... .. B ... : ... .. . ... ...
ROW 1F : ... .. A ... ... ... : ... .. . ... ... ... : G-2 00 . P8B : ... .. A ... : ... .. . ... ...
ROW 20 : ... .. . ... ... ... : ... .. . ... ... ... : F#2 00 . P7D : ... .. . ... : ... .. . ... ...
ROW 21 : ... .. 9 ... ... ... : ... .. E ... ... ... : F-2 00 . P71 : ... .. 9 ... : ... .. . ... ...
ROW 22 : ... .. . ... ... ... : ... .. . ... ... ... : D#2 00 . P8F : ... .. . ... : ... .. . ... ...
ROW 23 : A-1 00 F P80 V03 ... : D-4 00 F ... ... ... : A-4 00 . P7F : ... .. 8 ... : ... .. . ... ...
ROW 24 : ... .. . ... V01 ... : ... .. . ... ... ... : ... .. . ... : ... .. 7 ... : ... .. . ... ...
ROW 25 : ... .. E ... V02 ... : ... .. . ... ... ... : ... .. . ... : ... .. . ... : ... .. . ... ...
ROW 26 : ... .. . ... ... ... : ... .. . ... ... ... : ... .. . ... : ... .. 6 ... : ... .. . ... ...
ROW 27 : ... .. D ... ... ... : ... .. E ... ... ... : ... .. . ... : ... .. 5 ... : ... .. . ... ...
ROW 28 : ... .. C ... ... ... : ... .. . ... ... ... : ... .. . ... : ... .. . ... : ... .. . ... ...
ROW 29 : ... .. . ... ... ... : ... .. . ... ... ... : ... .. . ... : ... .. 4 ... : ... .. . ... ...
ROW 2A : ... .. B ... ... ... : ... .. D ... ... ... : ... .. . ... : ... .. . ... : ... .. . ... ...
ROW 2B : ... .. A ... ... ... : ... .. . ... ... ... : ... .. . ... : ... .. 3 ... : ... .. . ... ...
ROW 2C : ... .. . ... ... ... : ... .. . ... ... ... : ... .. . ... : ... .. 2 ... : ... .. . ... ...
ROW 2D : ... .. 9 ... ... ... : ... .. C ... ... ... : ... .. . ... : ... .. . ... : ... .. . ... ...
ROW 2E : ... .. . ... ... ... : ... .. . ... ... ... : ... .. . ... : ... .. 1 ... : ... .. . ... ...
ROW 2F : ... .. F ... V03 ... : E-4 00 F ... ... ... : D#4 00 . P84 : 0-# 00 F V01 : ... .. . ... ...
ROW 30 : ... .. . ... V01 ... : ... .. . ... ... ... : B-3 00 . P82 : ... .. . ... : ... .. . ... ...
ROW 31 : ... .. E ... V02 ... : ... .. . ... ... ... : G#3 00 . P7D : ... .. E V00 : ... .. . ... ...
ROW 32 : ... .. . ... ... ... : ... .. . ... ... ... : F-3 00 . P80 : ... .. . ... : ... .. . ... ...
ROW 33 : ... .. D ... ... ... : ... .. E ... ... ... : D#3 00 . P78 : ... .. D ... : ... .. . ... ...
ROW 34 : ... .. C ... ... ... : ... .. . ... ... ... : C-3 00 . P8C : ... .. C ... : ... .. . ... ...
ROW 35 : ... .. . ... ... ... : ... .. . ... ... ... : B-2 00 . P75 : ... .. . ... : ... .. . ... ...
ROW 36 : ... .. B ... ... ... : ... .. D ... ... ... : A-2 00 . P7C : ... .. B ... : ... .. . ... ...
ROW 37 : ... .. A ... ... ... : ... .. . ... ... ... : G-2 00 . P8B : ... .. A ... : ... .. . ... ...
ROW 38 : ... .. . ... ... ... : ... .. . ... ... ... : F#2 00 . P7D : ... .. . ... : ... .. . ... ...
ROW 39 : ... .. 9 ... ... ... : ... .. C ... ... ... : F-2 00 . P71 : ... .. 9 ... : ... .. . ... ...
ROW 3A : ... .. . ... ... ... : ... .. . ... ... ... : D#2 00 . P8F : ... .. . ... : ... .. . ... ...
ROW 3B : ... .. F ... V03 ... : A-3 00 F ... ... ... : A-4 00 . P7F : ... .. 8 ... : ... .. . ... ...
ROW 3C : ... .. . ... V01 ... : ... .. . ... ... ... : ... .. . ... : ... .. 7 ... : ... .. . ... ...
ROW 3D : ... .. E ... V02 ... : ... .. . ... ... ... : ... .. . ... : ... .. . ... : ... .. . ... ...
ROW 3E : ... .. . ... ... ... : ... .. . ... ... ... : ... .. . ... : ... .. 6 ... : ... .. . ... ...
ROW 3F : ... .. D ... ... ... : ... .. E ... ... ... : ... .. . ... : ... .. 5 ... : ... .. . ... ...
ROW 40 : ... .. C ... ... ... : ... .. . ... ... ... : ... .. . ... : ... .. . ... : ... .. . ... ...
ROW 41 : ... .. . ... ... ... : ... .. . ... ... ... : ... .. . ... : ... .. 4 ... : ... .. . ... ...
ROW 42 : ... .. B ... ... ... : ... .. D ... ... ... : ... .. . ... : ... .. . ... : ... .. . ... ...
ROW 43 : ... .. A ... ... ... : ... .. . ... ... ... : ... .. . ... : ... .. 3 ... : ... .. . ... ...
ROW 44 : ... .. . ... ... ... : ... .. . ... ... ... : ... .. . ... : ... .. 2 ... : ... .. . ... ...
ROW 45 : ... .. 9 ... ... ... : ... .. C ... ... ... : ... .. . ... : ... .. . ... : ... .. . ... ...
ROW 46 : ... .. . ... ... ... : ... .. . ... ... ... : ... .. . ... : ... .. 1 ... : ... .. . ... ...
ROW 47 : A-2 00 F P7F V03 ... : ... .. 0 ... ... ... : D#4 00 . P84 : 4-# 00 F V01 : ... .. . ... ...
ROW 48 : ... .. . ... V01 ... : ... .. . ... ... ... : B-3 00 . P82 : ... .. . ... : ... .. . ... ...
ROW 49 : ... .. E ... V02 ... : ... .. . ... ... ... : G#3 00 . P7D : ... .. E V00 : ... .. . ... ...
ROW 4A : ... .. . ... ... ... : ... .. . ... ... ... : F-3 00 . P80 : ... .. . ... : ... .. . ... ...
ROW 4B : ... .. D ... ... ... : ... .. . ... ... ... : D#3 00 . P78 : ... .. D ... : ... .. . ... ...
ROW 4C : ... .. C ... ... ... : ... .. . ... ... ... : C-3 00 . P8C : ... .. C ... : ... .. . ... ...
ROW 4D : ... .. . ... ... ... : ... .. . ... ... ... : B-2 00 . P75 : ... .. . ... : ... .. . ... ...
ROW 4E : ... .. B ... ... ... : ... .. . ... ... ... : A-2 00 . P7C : ... .. B ... : ... .. . ... ...
ROW 4F : ... .. A ... ... ... : ... .. . ... ... ... : G-2 00 . P8B : ... .. A ... : ... .. . ... ...
ROW 50 : ... .. . ... ... ... : ... .. . ... ... ... : F#2 00 . P7D : ... .. . ... : ... .. . ... ...
ROW 51 : ... .. 9 ... ... ... : ... .. . ... ... ... : F-2 00 . P71 : ... .. 9 ... : ... .. . ... ...
ROW 52 : ... .. . ... ... ... : ... .. . ... ... ... : D#2 00 . P8F : ... .. . ... : ... .. . ... ...
ROW 53 : A-1 00 F P80 V03 ... : ... .. . ... ... ... : A-4 00 . P7F : ... .. 8 ... : ... .. . ... ...
ROW 54 : ... .. . ... V01 ... : ... .. . ... ... ... : ... .. . ... : ... .. 7 ... : ... .. . ... ...
ROW 55 : ... .. E ... V02 ... : ... .. . ... ... ... : ... .. . ... : ... .. . ... : ... .. . ... ...
ROW 56 : ... .. . ... ... ... : ... .. . ... ... ... : ... .. . ... : ... .. 6 ... : ... .. . ... ...
ROW 57 : ... .. D ... ... ... : ... .. . ... ... ... : ... .. . ... : ... .. 5 ... : ... .. . ... ...
ROW 58 : ... .. C ... ... ... : ... .. . ... ... ... : ... .. . ... : ... .. . ... : ... .. . ... ...
ROW 59 : ... .. . ... ... ... : ... .. . ... ... ... : ... .. . ... : ... .. 4 ... : ... .. . ... ...
ROW 5A : ... .. B ... ... ... : ... .. . ... ... ... : ... .. . ... : ... .. . ... : ... .. . ... ...
ROW 5B : ... .. A ... ... ... : ... .. . ... ... ... : ... .. . ... : ... .. 3 ... : ... .. . ... ...
ROW 5C : ... .. . ... ... ... : ... .. . ... ... ... : ... .. . ... : ... .. 2 ... : ... .. . ... ...
ROW 5D : ... .. 9 ... ... ... : ... .. . ... ... ... : ... .. . ... : ... .. . ... : ... .. . ... ...
ROW 5E : ... .. . ... ... ... : ... .. . ... ... ... : ... .. . ... : ... .. 1 ... : ... .. . ... ...
ROW 5F : ... .. F ... V03 ... : ... .. . ... ... ... : D#4 00 . P84 : 0-# 00 F V01 : ... .. . ... ...
ROW 60 : ... .. . ... V01 ... : ... .. . ... ... ... : B-3 00 . P82 : ... .. . ... : ... .. . ... ...
ROW 61 : ... .. E ... V02 ... : ... .. . ... ... ... : G#3 00 . P7D : ... .. E V00 : ... .. . ... ...
ROW 62 : ... .. . ... ... ... : ... .. . ... ... ... : F-3 00 . P80 : ... .. . ... : ... .. . ... ...
ROW 63 : ... .. D ... ... ... : ... .. . ... ... ... : D#3 00 . P78 : ... .. D ... : ... .. . ... ...
ROW 64 : ... .. C ... ... ... : ... .. . ... ... ... : C-3 00 . P8C : ... .. C ... : ... .. . ... ...
ROW 65 : ... .. . ... ... ... : ... .. . ... ... ... : B-2 00 . P75 : ... .. . ... : ... .. . ... ...
ROW 66 : ... .. B ... ... ... : ... .. . ... ... ... : A-2 00 . P7C : ... .. B ... : ... .. . ... ...
ROW 67 : ... .. A ... ... ... : ... .. . ... ... ... : G-2 00 . P8B : ... .. A ... : ... .. . ... ...
ROW 68 : ... .. . ... ... ... : ... .. . ... ... ... : F#2 00 . P7D : ... .. . ... : ... .. . ... ...
ROW 69 : ... .. 9 ... ... ... : ... .. . ... ... ... : F-2 00 . P71 : ... .. 9 ... : ... .. . ... ...
ROW 6A : ... .. . ... ... ... : ... .. . ... ... ... : D#2 00 . P8F : ... .. . ... : ... .. . ... ...
ROW 6B : ... .. F ... V03 ... : ... .. . ... ... ... : A-4 00 . P7F : ... .. 8 ... : ... .. . ... ...
ROW 6C : ... .. . ... V01 ... : ... .. . ... ... ... : ... .. . ... : ... .. 7 ... : ... .. . ... ...
ROW 6D : ... .. E ... V02 ... : ... .. . ... ... ... : ... .. . ... : ... .. . ... : ... .. . ... ...
ROW 6E : ... .. . ... ... ... : ... .. . ... ... ... : ... .. . ... : ... .. 6 ... : ... .. . ... ...
ROW 6F : ... .. D ... ... ... : ... .. . ... ... ... : ... .. . ... : ... .. 5 ... : ... .. . ... ...
ROW 70 : ... .. C ... ... ... : ... .. . ... ... ... : ... .. . ... : ... .. . ... : ... .. . ... ...
ROW 71 : ... .. . ... ... ... : ... .. . ... ... ... : ... .. . ... : ... .. 4 ... : ... .. . ... ...
ROW 72 : ... .. B ... ... ... : ... .. . ... ... ... : ... .. . ... : ... .. . ... : ... .. . ... ...
ROW 73 : ... .. A ... ... ... : ... .. . ... ... ... : ... .. . ... : ... .. 3 ... : ... .. . ... ...
ROW 74 : ... .. . ... ... ... : ... .. . ... ... ... : ... .. . ... : ... .. 2 ... : ... .. . ... ...
ROW 75 : ... .. 9 ... ... ... : ... .. . ... ... ... : ... .. . ... : ... .. . ... : ... .. . ... ...
ROW 76 : ... .. . ... ... ... : ... .. . ... ... ... : ... .. . ... : ... .. 1 ... : ... .. . ... ...
ROW 77 : A-2 00 F P7F V03 ... : ... .. . ... ... ... : D#4 00 . P84 : 4-# 00 F V01 : ... .. . ... ...
ROW 78 : ... .. . ... V01 ... : ... .. . ... ... ... : B-3 00 . P82 : ... .. . ... : ... .. . ... ...
ROW 79 : ... .. E ... V02 ... : ... .. . ... ... ... : G#3 00 . P7D : ... .. E V00 : ... .. . ... ...
ROW 7A : ... .. . ... ... ... : ... .. . ... ... ... : F-3 00 . P80 : ... .. . ... : ... .. . ... ...
ROW 7B : ... .. D ... ... ... : ... .. . ... ... ... : D#3 00 . P78 : ... .. D ... : ... .. . ... ...
ROW 7C : ... .. C ... ... ... : ... .. . ... ... ... : C-3 00 . P8C : ... .. C ... : ... .. . ... ...
ROW 7D : ... .. . ... ... ... : ... .. . ... ... ... : B-2 00 . P75 : ... .. . ... : ... .. . ... ...
ROW 7E : ... .. B ... ... ... : ... .. . ... ... ... : A-2 00 . P7C : ... .. B ... : ... .. . ... ...
ROW 7F : ... .. A ... ... ... : ... .. . ... ... ... : G-2 00 . P8B : ... .. A ... : ... .. . ... ...
ROW 80 : ... .. . ... ... ... : ... .. . ... ... ... : F#2 00 . P7D : ... .. . ... : ... .. . ... ...
ROW 81 : ... .. 9 ... ... ... : ... .. . ... ... ... : F-2 00 . P71 : ... .. 9 ... : ... .. . ... ...
ROW 82 : ... .. . ... ... ... : ... .. . ... ... ... : D#2 00 . P8F : ... .. . ... : ... .. . ... ...
ROW 83 : A-1 00 F P80 V03 ... : ... .. . ... ... ... : A-4 00 . P7F : ... .. 8 ... : ... .. . ... ...
ROW 84 : ... .. . ... V01 ... : ... .. . ... ... ... : ... .. . ... : ... .. 7 ... : ... .. . ... ...
ROW 85 : ... .. E ... V02 ... : ... .. . ... ... ... : ... .. . ... : ... .. . ... : ... .. . ... ...
ROW 86 : ... .. . ... ... ... : ... .. . ... ... ... : ... .. . ... : ... .. 6 ... : ... .. . ... ...
ROW 87 : ... .. D ... ... ... : ... .. . ... ... ... : ... .. . ... : ... .. 5 ... : ... .. . ... ...
ROW 88 : ... .. C ... ... ... : ... .. . ... ... ... : ... .. . ... : ... .. . ... : ... .. . ... ...
ROW 89 : ... .. . ... ... ... : ... .. . ... ... ... : ... .. . ... : ... .. 4 ... : ... .. . ... ...
ROW 8A : ... .. B ... ... ... : ... .. . ... ... ... : ... .. . ... : ... .. . ... : ... .. . ... ...
ROW 8B : ... .. A ... ... ... : ... .. . ... ... ... : ... .. . ... : ... .. 3 ... : ... .. . ... ...
ROW 8C : ... .. . ... ... ... : ... .. . ... ... ... : ... .. . ... : ... .. 2 ... : ... .. . ... ...
ROW 8D : ... .. 9 ... ... ... : ... .. . ... ... ... : ... .. . ... : ... .. . ... : ... .. . ... ...
ROW 8E : ... .. . ... ... ... : ... .. . ... ... ... : ... .. . ... : ... .. 1 ... : ... .. . ... ...
ROW 8F : G-1 00 F ... V03 ... : D-4 00 F P7F ... ... : D#4 00 . P84 : 0-# 00 F V01 : ... .. . ... ...
ROW 90 : ... .. . ... V01 ... : ... .. . ... ... ... : B-3 00 . P82 : ... .. . ... : ... .. . ... ...
ROW 91 : ... .. E ... V02 ... : ... .. . ... ... ... : G#3 00 . P7D : ... .. E V00 : ... .. . ... ...
ROW 92 : ... .. . ... ... ... : ... .. . ... ... ... : F-3 00 . P80 : ... .. . ... : ... .. . ... ...
ROW 93 : ... .. D ... ... ... : ... .. E ... ... ... : D#3 00 . P78 : ... .. D ... : ... .. . ... ...
ROW 94 : ... .. C ... ... ... : ... .. . ... ... ... : C-3 00 . P8C : ... .. C ... : ... .. . ... ...
ROW 95 : ... .. . ... ... ... : ... .. . ... ... ... : B-2 00 . P75 : ... .. . ... : ... .. . ... ...
ROW 96 : ... .. B ... ... ... : ... .. D ... ... ... : A-2 00 . P7C : ... .. B ... : ... .. . ... ...
ROW 97 : ... .. A ... ... ... : ... .. . ... ... ... : G-2 00 . P8B : ... .. A ... : ... .. . ... ...
ROW 98 : ... .. . ... ... ... : ... .. . ... ... ... : F#2 00 . P7D : ... .. . ... : ... .. . ... ...
ROW 99 : ... .. 9 ... ... ... : ... .. C ... ... ... : F-2 00 . P71 : ... .. 9 ... : ... .. . ... ...
ROW 9A : ... .. . ... ... ... : ... .. . ... ... ... : D#2 00 . P8F : ... .. . ... : ... .. . ... ...
ROW 9B : ... .. F ... V03 ... : C-4 00 F ... ... ... : G-4 00 . P80 : ... .. 8 ... : ... .. . ... ...
ROW 9C : ... .. . ... V01 ... : ... .. . ... ... ... : ... .. . ... : ... .. 7 ... : ... .. . ... ...
ROW 9D : ... .. E ... V02 ... : ... .. . ... ... ... : ... .. . ... : ... .. . ... : ... .. . ... ...
ROW 9E : ... .. . ... ... ... : ... .. . ... ... ... : ... .. . ... : ... .. 6 ... : ... .. . ... ...
ROW 9F : ... .. D ... ... ... : ... .. E ... ... ... : ... .. . ... : ... .. 5 ... : ... .. . ... ...
ROW A0 : ... .. C ... ... ... : ... .. . ... ... ... : ... .. . ... : ... .. . ... : ... .. . ... ...
ROW A1 : ... .. . ... ... ... : ... .. . ... ... ... : ... .. . ... : ... .. 4 ... : ... .. . ... ...
ROW A2 : ... .. B ... ... ... : ... .. D ... ... ... : ... .. . ... : ... .. . ... : ... .. . ... ...
ROW A3 : ... .. A ... ... ... : ... .. . ... ... ... : ... .. . ... : ... .. 3 ... : ... .. . ... ...
ROW A4 : ... .. . ... ... ... : ... .. . ... ... ... : ... .. . ... : ... .. 2 ... : ... .. . ... ...
ROW A5 : ... .. 9 ... ... ... : ... .. C ... ... ... : ... .. . ... : ... .. . ... : ... .. . ... ...
ROW A6 : ... .. . ... ... ... : ... .. . ... ... ... : ... .. . ... : ... .. 1 ... : ... .. . ... ...
ROW A7 : G-2 00 F ... V03 ... : E-4 00 F ... ... ... : D#4 00 . P84 : 4-# 00 F V01 : ... .. . ... ...
ROW A8 : ... .. . ... V01 ... : ... .. . ... ... ... : B-3 00 . P82 : ... .. . ... : ... .. . ... ...
ROW A9 : ... .. E ... V02 ... : ... .. . ... ... ... : G#3 00 . P7D : ... .. E V00 : ... .. . ... ...
ROW AA : ... .. . ... ... ... : ... .. . ... ... ... : F-3 00 . P80 : ... .. . ... : ... .. . ... ...
ROW AB : ... .. D ... ... ... : ... .. E ... ... ... : D#3 00 . P78 : ... .. D ... : ... .. . ... ...
ROW AC : ... .. C ... ... ... : ... .. . ... ... ... : C-3 00 . P8C : ... .. C ... : ... .. . ... ...
ROW AD : ... .. . ... ... ... : ... .. . ... ... ... : B-2 00 . P75 : ... .. . ... : ... .. . ... ...
ROW AE : ... .. B ... ... ... : ... .. D ... ... ... : A-2 00 . P7C : ... .. B ... : ... .. . ... ...
ROW AF : ... .. A ... ... ... : ... .. . ... ... ... : G-2 00 . P8B : ... .. A ... : ... .. . ... ...
ROW B0 : ... .. . ... ... ... : ... .. . ... ... ... : F#2 00 . P7D : ... .. . ... : ... .. . ... ...
ROW B1 : ... .. 9 ... ... ... : ... .. C ... ... ... : F-2 00 . P71 : ... .. 9 ... : ... .. . ... ...
ROW B2 : ... .. . ... ... ... : ... .. . ... ... ... : D#2 00 . P8F : ... .. . ... : ... .. . ... ...
ROW B3 : G-1 00 F ... V03 ... : C-4 00 F ... ... ... : G-4 00 . P80 : ... .. 8 ... : ... .. . ... ...
ROW B4 : ... .. . ... V01 ... : ... .. . ... ... ... : ... .. . ... : ... .. 7 ... : ... .. . ... ...
ROW B5 : ... .. E ... V02 ... : ... .. . ... ... ... : ... .. . ... : ... .. . ... : ... .. . ... ...
ROW B6 : ... .. . ... ... ... : ... .. . ... ... ... : ... .. . ... : ... .. 6 ... : ... .. . ... ...
ROW B7 : ... .. D ... ... ... : ... .. E ... ... ... : ... .. . ... : ... .. 5 ... : ... .. . ... ...
ROW B8 : ... .. C ... ... ... : ... .. . ... ... ... : ... .. . ... : ... .. . ... : ... .. . ... ...
ROW B9 : ... .. . ... ... ... : ... .. . ... ... ... : ... .. . ... : ... .. 4 ... : ... .. . ... ...
ROW BA : ... .. B ... ... ... : ... .. D ... ... ... : ... .. . ... : ... .. . ... : ... .. . ... ...
ROW BB : ... .. A ... ... ... : ... .. . ... ... ... : ... .. . ... : ... .. 3 ... : ... .. . ... ...
ROW BC : ... .. . ... ... ... : ... .. . ... ... ... : ... .. . ... : ... .. 2 ... : ... .. . ... ...
ROW BD : ... .. 9 ... ... ... : ... .. C ... ... ... : ... .. . ... : ... .. . ... : ... .. . ... ...
ROW BE : ... .. . ... ... ... : ... .. . ... ... ... : ... .. . ... : ... .. 1 ... : ... .. . ... ...
ROW BF : A-1 00 F ... V03 ... : A-3 00 F ... ... ... : D#4 00 . P84 : 0-# 00 F V01 : ... .. . ... ...
ROW C0 : ... .. . ... V01 ... : ... .. . ... ... ... : B-3 00 . P82 : ... .. . ... : ... .. . ... ...
ROW C1 : ... .. E ... V02 ... : ... .. . ... ... ... : G#3 00 . P7D : ... .. E V00 : ... .. . ... ...
ROW C2 : ... .. . ... ... ... : ... .. . ... ... ... : F-3 00 . P80 : ... .. . ... : ... .. . ... ...
ROW C3 : ... .. D ... ... ... : ... .. E ... ... ... : D#3 00 . P78 : ... .. D ... : ... .. . ... ...
ROW C4 : ... .. C ... ... ... : ... .. . ... ... ... : C-3 00 . P8C : ... .. C ... : ... .. . ... ...
ROW C5 : ... .. . ... ... ... : ... .. . ... ... ... : B-2 00 . P75 : ... .. . ... : ... .. . ... ...
ROW C6 : ... .. B ... ... ... : ... .. D ... ... ... : A-2 00 . P7C : ... .. B ... : ... .. . ... ...
ROW C7 : ... .. A ... ... ... : ... .. . ... ... ... : G-2 00 . P8B : ... .. A ... : ... .. . ... ...
ROW C8 : ... .. . ... ... ... : ... .. . ... ... ... : F#2 00 . P7D : ... .. . ... : ... .. . ... ...
ROW C9 : ... .. 9 ... ... ... : ... .. C ... ... ... : F-2 00 . P71 : ... .. 9 ... : ... .. . ... ...
ROW CA : ... .. . ... ... ... : ... .. . ... ... ... : D#2 00 . P8F : ... .. . ... : ... .. . ... ...
ROW CB : ... .. F ... V03 ... : ... .. . ... ... ... : A-4 00 . P7F : ... .. 8 ... : ... .. . ... ...
ROW CC : ... .. . ... V01 ... : ... .. . ... ... ... : ... .. . ... : ... .. 7 ... : ... .. . ... ...
ROW CD : ... .. E ... V02 ... : ... .. B ... ... ... : ... .. . ... : ... .. . ... : ... .. . ... ...
ROW CE : ... .. . ... ... ... : ... .. . ... ... ... : ... .. . ... : ... .. 6 ... : ... .. . ... ...
ROW CF : ... .. D ... ... ... : ... .. . ... ... ... : ... .. . ... : ... .. 5 ... : ... .. . ... ...
ROW D0 : ... .. C ... ... ... : ... .. A ... ... ... : ... .. . ... : ... .. . ... : ... .. . ... ...
ROW D1 : ... .. . ... ... ... : ... .. . ... ... ... : ... .. . ... : ... .. 4 ... : ... .. . ... ...
ROW D2 : ... .. B ... ... ... : ... .. . ... ... ... : ... .. . ... : ... .. . ... : ... .. . ... ...
ROW D3 : ... .. A ... ... ... : ... .. 9 ... ... ... : ... .. . ... : ... .. 3 ... : ... .. . ... ...
ROW D4 : ... .. . ... ... ... : ... .. . ... ... ... : ... .. . ... : ... .. 2 ... : ... .. . ... ...
ROW D5 : ... .. 9 ... ... ... : ... .. . ... ... ... : ... .. . ... : ... .. . ... : ... .. . ... ...
ROW D6 : ... .. . ... ... ... : ... .. 8 ... ... ... : ... .. . ... : ... .. 1 ... : ... .. . ... ...
ROW D7 : A-2 00 F P7F V03 ... : G-3 00 F ... ... ... : D#4 00 . P84 : 4-# 00 F V01 : ... .. . ... ...
ROW D8 : ... .. . ... V01 ... : ... .. . ... ... ... : B-3 00 . P82 : ... .. . ... : ... .. . ... ...
ROW D9 : ... .. E ... V02 ... : ... .. . ... ... ... : G#3 00 . P7D : ... .. E V00 : ... .. . ... ...
ROW DA : ... .. . ... ... ... : ... .. . ... ... ... : F-3 00 . P80 : ... .. . ... : ... .. . ... ...
ROW DB : ... .. D ... ... ... : ... .. E ... ... ... : D#3 00 . P78 : ... .. D ... : ... .. . ... ...
ROW DC : ... .. C ... ... ... : ... .. . ... ... ... : C-3 00 . P8C : ... .. C ... : ... .. . ... ...
ROW DD : ... .. . ... ... ... : A-3 00 F ... ... ... : B-2 00 . P75 : ... .. . ... : ... .. . ... ...
ROW DE : ... .. B ... ... ... : ... .. . ... ... ... : A-2 00 . P7C : ... .. B ... : ... .. . ... ...
ROW DF : ... .. A ... ... ... : ... .. . ... ... ... : G-2 00 . P8B : ... .. A ... : ... .. . ... ...
ROW E0 : ... .. . ... ... ... : ... .. . ... ... ... : F#2 00 . P7D : ... .. . ... : ... .. . ... ...
ROW E1 : ... .. 9 ... ... ... : ... .. E ... ... ... : F-2 00 . P71 : ... .. 9 ... : ... .. . ... ...
ROW E2 : ... .. . ... ... ... : ... .. . ... ... ... : D#2 00 . P8F : ... .. . ... : ... .. . ... ...
ROW E3 : A-1 00 F P80 V03 ... : B-3 00 F ... ... ... : A-4 00 . P7F : ... .. 8 ... : ... .. . ... ...
ROW E4 : ... .. . ... V01 ... : ... .. . ... ... ... : ... .. . ... : ... .. 7 ... : ... .. . ... ...
ROW E5 : ... .. E ... V02 ... : ... .. . ... ... ... : ... .. . ... : ... .. . ... : ... .. . ... ...
ROW E6 : ... .. . ... ... ... : ... .. . ... ... ... : ... .. . ... : ... .. 6 ... : ... .. . ... ...
ROW E7 : ... .. D ... ... ... : ... .. E ... ... ... : ... .. . ... : ... .. 5 ... : ... .. . ... ...
ROW E8 : ... .. C ... ... ... : ... .. . ... ... ... : ... .. . ... : ... .. . ... : ... .. . ... ...
ROW E9 : ... .. . ... ... ... : ... .. . ... ... ... : ... .. . ... : ... .. 4 ... : ... .. . ... ...
ROW EA : ... .. B ... ... ... : ... .. D ... ... ... : ... .. . ... : ... .. . ... : ... .. . ... ...
ROW EB : ... .. A ... ... ... : ... .. . ... ... ... : ... .. . ... : ... .. 3 ... : ... .. . ... ...
ROW EC : ... .. . ... ... ... : ... .. . ... ... ... : ... .. . ... : ... .. 2 ... : ... .. . ... ...
ROW ED : ... .. 9 ... ... ... : ... .. C ... ... ... : ... .. . ... : ... .. . ... : ... .. . ... ...
ROW EE : ... .. . ... ... ... : ... .. . ... ... ... : ... .. . ... : ... .. 1 ... : ... .. . ... ...
ROW EF : ... .. F ... V03 ... : C-4 00 F ... ... ... : D#4 00 . P84 : 0-# 00 F V01 : ... .. . ... ...
ROW F0 : ... .. . ... V01 ... : ... .. . ... ... ... : B-3 00 . P82 : ... .. . ... : ... .. . ... ...
ROW F1 : ... .. E ... V02 ... : ... .. . ... ... ... : G#3 00 . P7D : ... .. E V00 : ... .. . ... ...
ROW F2 : ... .. . ... ... ... : ... .. . ... ... ... : F-3 00 . P80 : ... .. . ... : ... .. . ... ...
ROW F3 : ... .. D ... ... ... : ... .. E ... ... ... : D#3 00 . P78 : ... .. D ... : ... .. . ... ...
ROW F4 : ... .. C ... ... ... : ... .. . ... ... ... : C-3 00 . P8C : ... .. C ... : ... .. . ... ...
ROW F5 : ... .. . ... ... ... : ... .. . ... ... ... : B-2 00 . P75 : ... .. . ... : ... .. . ... ...
ROW F6 : ... .. B ... ... ... : ... .. D ... ... ... : A-2 00 . P7C : ... .. B ... : ... .. . ... ...
ROW F7 : ... .. A ... ... ... : ... .. . ... ... ... : G-2 00 . P8B : ... .. A ... : ... .. . ... ...
ROW F8 : ... .. . ... ... ... : ... .. . ... ... ... : F#2 00 . P7D : ... .. . ... : ... .. . ... ...
ROW F9 : ... .. 9 ... ... ... : ... .. C ... ... ... : F-2 00 . P71 : ... .. 9 ... : ... .. . ... ...
ROW FA : ... .. . ... ... ... : ... .. . ... ... ... : D#2 00 . P8F : ... .. . ... : ... .. . ... ...
ROW FB : ... .. F ... V03 ... : A-3 00 F ... ... ... : A-4 00 . P7F : ... .. 8 ... : ... .. . ... ...
ROW FC : ... .. . ... V01 ... : ... .. . ... ... ... : ... .. . ... : ... .. 7 ... : ... .. . ... ...
ROW FD : ... .. E ... V02 ... : ... .. . ... ... ... : ... .. . ... : ... .. . ... : ... .. . ... ...
ROW FE : ... .. . ... ... ... : ... .. . ... ... ... : ... .. . ... : ... .. 6 ... : ... .. . ... ...
ROW FF : ... .. D ... ... ... : ... .. E ... ... ... : ... .. . ... : ... .. 5 ... : ... .. . ... ...

PATTERN 16
ROW 00 : ... .. C ... ... ... : ... .. . ... ... ... : ... .. . ... : ... .. . ... : ... .. . ... ...
ROW 01 : ... .. . ... ... ... : ... .. . ... ... ... : ... .. . ... : ... .. 4 ... : ... .. . ... ...
ROW 02 : ... .. B ... ... ... : ... .. D ... ... ... : ... .. . ... : ... .. . ... : ... .. . ... ...
ROW 03 : ... .. A ... ... ... : ... .. . ... ... ... : ... .. . ... : ... .. 3 ... : ... .. . ... ...
ROW 04 : ... .. . ... ... ... : ... .. . ... ... ... : ... .. . ... : ... .. 2 ... : ... .. . ... ...
ROW 05 : ... .. 9 ... ... ... : ... .. C ... ... ... : ... .. . ... : ... .. . ... : ... .. . ... ...
ROW 06 : ... .. . ... ... ... : ... .. . ... ... ... : ... .. . ... : ... .. 1 ... : ... .. . ... ...
ROW 07 : A-2 00 F P7F V03 ... : ... .. 0 ... ... ... : D#4 00 . P84 : 4-# 00 F V01 : ... .. . ... ...
ROW 08 : ... .. . ... V01 ... : ... .. . ... ... ... : B-3 00 . P82 : ... .. . ... : ... .. . ... ...
ROW 09 : ... .. E ... V02 ... : ... .. . ... ... ... : G#3 00 . P7D : ... .. E V00 : ... .. . ... ...
ROW 0A : ... .. . ... ... ... : ... .. . ... ... ... : F-3 00 . P80 : ... .. . ... : ... .. . ... ...
ROW 0B : ... .. D ... ... ... : ... .. . ... ... ... : D#3 00 . P78 : ... .. D ... : ... .. . ... ...
ROW 0C : ... .. C ... ... ... : ... .. . ... ... ... : C-3 00 . P8C : ... .. C ... : ... .. . ... ...
ROW 0D : ... .. . ... ... ... : ... .. . ... ... ... : B-2 00 . P75 : ... .. . ... : ... .. . ... ...
ROW 0E : ... .. B ... ... ... : ... .. . ... ... ... : A-2 00 . P7C : ... .. B ... : ... .. . ... ...
ROW 0F : ... .. A ... ... ... : ... .. . ... ... ... : G-2 00 . P8B : ... .. A ... : ... .. . ... ...
ROW 10 : ... .. . ... ... ... : ... .. . ... ... ... : F#2 00 . P7D : ... .. . ... : ... .. . ... ...
ROW 11 : ... .. 9 ... ... ... : ... .. . ... ... ... : F-2 00 . P71 : ... .. 9 ... : ... .. . ... ...
ROW 12 : ... .. . ... ... ... : ... .. . ... ... ... : D#2 00 . P8F : ... .. . ... : ... .. . ... ...
ROW 13 : A-1 00 F P80 V03 ... : ... .. . ... ... ... : A-4 00 . P7F : ... .. 8 ... : ... .. . ... ...
ROW 14 : ... .. . ... V01 ... : ... .. . ... ... ... : ... .. . ... : ... .. 7 ... : ... .. . ... ...
ROW 15 : ... .. E ... V02 ... : ... .. . ... ... ... : ... .. . ... : ... .. . ... : ... .. . ... ...
ROW 16 : ... .. . ... ... ... : ... .. . ... ... ... : ... .. . ... : ... .. 6 ... : ... .. . ... ...
ROW 17 : ... .. D ... ... ... : ... .. . ... ... ... : ... .. . ... : ... .. 5 ... : ... .. . ... ...
ROW 18 : ... .. C ... ... ... : ... .. . ... ... ... : ... .. . ... : ... .. . ... : ... .. . ... ...
ROW 19 : ... .. . ... ... ... : ... .. . ... ... ... : ... .. . ... : ... .. 4 ... : ... .. . ... ...
ROW 1A : ... .. B ... ... ... : ... .. . ... ... ... : ... .. . ... : ... .. . ... : ... .. . ... ...
ROW 1B : ... .. A ... ... ... : ... .. . ... ... ... : ... .. . ... : ... .. 3 ... : ... .. . ... ...
ROW 1C : ... .. . ... ... ... : ... .. . ... ... ... : ... .. . ... : ... .. 2 ... : ... .. . ... ...
ROW 1D : ... .. 9 ... ... ... : ... .. . ... ... ... : ... .. . ... : ... .. . ... : ... .. . ... ...
ROW 1E : ... .. . ... ... ... : ... .. . ... ... ... : ... .. . ... : ... .. 1 ... : ... .. . ... ...
ROW 1F : ... .. F ... V03 ... : ... .. . ... ... ... : D#4 00 . P84 : 0-# 00 F V01 : ... .. . ... ...
ROW 20 : ... .. . ... V01 ... : ... .. . ... ... ... : B-3 00 . P82 : ... .. . ... : ... .. . ... ...
ROW 21 : ... .. E ... V02 ... : ... .. . ... ... ... : G#3 00 . P7D : ... .. E V00 : ... .. . ... ...
ROW 22 : ... .. . ... ... ... : ... .. . ... ... ... : F-3 00 . P80 : ... .. . ... : ... .. . ... ...
ROW 23 : ... .. D ... ... ... : ... .. . ... ... ... : D#3 00 . P78 : ... .. D ... : ... .. . ... ...
ROW 24 : ... .. C ... ... ... : ... .. . ... ... ... : C-3 00 . P8C : ... .. C ... : ... .. . ... ...
ROW 25 : ... .. . ... ... ... : ... .. . ... ... ... : B-2 00 . P75 : ... .. . ... : ... .. . ... ...
ROW 26 : ... .. B ... ... ... : ... .. . ... ... ... : A-2 00 . P7C : ... .. B ... : ... .. . ... ...
ROW 27 : ... .. A ... ... ... : ... .. . ... ... ... : G-2 00 . P8B : ... .. A ... : ... .. . ... ...
ROW 28 : ... .. . ... ... ... : ... .. . ... ... ... : F#2 00 . P7D : ... .. . ... : ... .. . ... ...
ROW 29 : ... .. 9 ... ... ... : ... .. . ... ... ... : F-2 00 . P71 : ... .. 9 ... : ... .. . ... ...
ROW 2A : ... .. . ... ... ... : ... .. . ... ... ... : D#2 00 . P8F : ... .. . ... : ... .. . ... ...
ROW 2B : ... .. F ... V03 ... : ... .. . ... ... ... : A-4 00 . P7F : ... .. 8 ... : ... .. . ... ...
ROW 2C : ... .. . ... V01 ... : ... .. . ... ... ... : ... .. . ... : ... .. 7 ... : ... .. . ... ...
ROW 2D : ... .. E ... V02 ... : ... .. . ... ... ... : ... .. . ... : ... .. . ... : ... .. . ... ...
ROW 2E : ... .. . ... ... ... : ... .. . ... ... ... : ... .. . ... : ... .. 6 ... : ... .. . ... ...
ROW 2F : ... .. D ... ... ... : ... .. . ... ... ... : ... .. . ... : ... .. 5 ... : ... .. . ... ...
ROW 30 : ... .. C ... ... ... : ... .. . ... ... ... : ... .. . ... : ... .. . ... : ... .. . ... ...
ROW 31 : ... .. . ... ... ... : ... .. . ... ... ... : ... .. . ... : ... .. 4 ... : ... .. . ... ...
ROW 32 : ... .. B ... ... ... : ... .. . ... ... ... : ... .. . ... : ... .. . ... : ... .. . ... ...
ROW 33 : ... .. A ... ... ... : ... .. . ... ... ... : ... .. . ... : ... .. 3 ... : ... .. . ... ...
ROW 34 : ... .. . ... ... ... : ... .. . ... ... ... : ... .. . ... : ... .. 2 ... : ... .. . ... ...
ROW 35 : ... .. 9 ... ... ... : ... .. . ... ... ... : ... .. . ... : ... .. . ... : ... .. . ... ...
ROW 36 : ... .. . ... ... ... : ... .. . ... ... ... : ... .. . ... : ... .. 1 ... : ... .. . ... ...
ROW 37 : A-2 00 F P7F V03 ... : ... .. . ... ... ... : D#4 00 . P84 : 4-# 00 F V01 : ... .. . ... ...
ROW 38 : ... .. . ... V01 ... : ... .. . ... ... ... : B-3 00 . P82 : ... .. . ... : ... .. . ... ...
ROW 39 : ... .. E ... V02 ... : ... .. . ... ... ... : G#3 00 . P7D : ... .. E V00 : ... .. . ... ...
ROW 3A : ... .. . ... ... ... : ... .. . ... ... ... : F-3 00 . P80 : ... .. . ... : ... .. . ... ...
ROW 3B : ... .. D ... ... ... : ... .. . ... ... ... : D#3 00 . P78 : ... .. D ... : ... .. . ... ...
ROW 3C : ... .. C ... ... ... : ... .. . ... ... ... : C-3 00 . P8C : ... .. C ... : ... .. . ... ...
ROW 3D : ... .. . ... ... ... : ... .. . ... ... ... : B-2 00 . P75 : ... .. . ... : ... .. . ... ...
ROW 3E : ... .. B ... ... ... : ... .. . ... ... ... : A-2 00 . P7C : ... .. B ... : ... .. . ... ...
ROW 3F : ... .. A ... ... ... : ... .. . ... ... ... : G-2 00 . P8B : ... .. A ... : ... .. . ... ...
ROW 40 : ... .. . ... ... ... : ... .. . ... ... ... : F#2 00 . P7D : ... .. . ... : ... .. . ... ...
ROW 41 : ... .. 9 ... ... ... : ... .. . ... ... ... : F-2 00 . P71 : ... .. 9 ... : ... .. . ... ...
ROW 42 : ... .. . ... ... ... : ... .. . ... ... ... : D#2 00 . P8F : ... .. . ... : ... .. . ... ...
ROW 43 : A-1 00 F P80 V03 ... : ... .. . ... ... ... : A-4 00 . P7F : ... .. 8 ... : ... .. . ... ...
ROW 44 : ... .. . ... V01 ... : ... .. . ... ... ... : ... .. . ... : ... .. 7 ... : ... .. . ... ...
ROW 45 : ... .. E ... V02 ... : ... .. . ... ... ... : ... .. . ... : ... .. . ... : ... .. . ... ...
ROW 46 : ... .. . ... ... ... : ... .. . ... ... ... : ... .. . ... : ... .. 6 ... : ... .. . ... ...
ROW 47 : ... .. D ... ... ... : ... .. . ... ... ... : ... .. . ... : ... .. 5 ... : ... .. . ... ...
ROW 48 : ... .. C ... ... ... : ... .. . ... ... ... : ... .. . ... : ... .. . ... : ... .. . ... ...
ROW 49 : ... .. . ... ... ... : ... .. . ... ... ... : ... .. . ... : ... .. 4 ... : ... .. . ... ...
ROW 4A : ... .. B ... ... ... : ... .. . ... ... ... : ... .. . ... : ... .. . ... : ... .. . ... ...
ROW 4B : ... .. A ... ... ... : ... .. . ... ... ... : ... .. . ... : ... .. 3 ... : ... .. . ... ...
ROW 4C : ... .. . ... ... ... : ... .. . ... ... ... : ... .. . ... : ... .. 2 ... : ... .. . ... ...
ROW 4D : ... .. 9 ... ... ... : ... .. . ... ... ... : ... .. . ... : ... .. . ... : ... .. . ... ...
ROW 4E : ... .. . ... ... ... : ... .. . ... ... ... : ... .. . ... : ... .. 1 ... : ... .. . ... ...
ROW 4F : G-1 00 F ... V03 ... : D-4 00 F P7F ... ... : D#4 00 . P84 : ... .. F V01 : ... .. . ... ...
ROW 50 : ... .. . ... V01 ... : ... .. . ... ... ... : B-3 00 . P82 : ... .. . ... : ... .. . ... ...
ROW 51 : ... .. E ... V02 ... : ... .. . ... ... ... : G#3 00 . P7D : ... .. E V00 : ... .. . ... ...
ROW 52 : ... .. . ... ... ... : ... .. . ... ... ... : F-3 00 . P80 : ... .. . ... : ... .. . ... ...
ROW 53 : ... .. D ... ... ... : ... .. E ... ... ... : D#3 00 . P78 : ... .. D ... : ... .. . ... ...
ROW 54 : ... .. C ... ... ... : ... .. . ... ... ... : C-3 00 . P8C : ... .. C ... : ... .. . ... ...
ROW 55 : ... .. . ... ... ... : ... .. . ... ... ... : B-2 00 . P75 : ... .. . ... : ... .. . ... ...
ROW 56 : ... .. B ... ... ... : ... .. D ... ... ... : A-2 00 . P7C : ... .. B ... : ... .. . ... ...
ROW 57 : ... .. A ... ... ... : ... .. . ... ... ... : G-2 00 . P8B : ... .. A ... : ... .. . ... ...
ROW 58 : ... .. . ... ... ... : ... .. . ... ... ... : F#2 00 . P7D : ... .. . ... : ... .. . ... ...
ROW 59 : ... .. 9 ... ... ... : ... .. C ... ... ... : F-2 00 . P71 : ... .. 9 ... : ... .. . ... ...
ROW 5A : ... .. . ... ... ... : ... .. . ... ... ... : D#2 00 . P8F : ... .. . ... : ... .. . ... ...
ROW 5B : ... .. F ... V03 ... : E-4 00 F ... ... ... : D#4 00 . P84 : ... .. F V01 : ... .. . ... ...
ROW 5C : ... .. . ... V01 ... : ... .. . ... ... ... : B-3 00 . P82 : ... .. . ... : ... .. . ... ...
ROW 5D : ... .. E ... V02 ... : ... .. . ... ... ... : G#3 00 . P7D : ... .. E V00 : ... .. . ... ...
ROW 5E : ... .. . ... ... ... : ... .. . ... ... ... : F-3 00 . P80 : ... .. . ... : ... .. . ... ...
ROW 5F : ... .. D ... ... ... : ... .. E ... ... ... : D#3 00 . P78 : ... .. D ... : ... .. . ... ...
ROW 60 : ... .. C ... ... ... : ... .. . ... ... ... : C-3 00 . P8C : ... .. C ... : ... .. . ... ...
ROW 61 : ... .. . ... ... ... : ... .. . ... ... ... : B-2 00 . P75 : ... .. . ... : ... .. . ... ...
ROW 62 : ... .. B ... ... ... : ... .. D ... ... ... : A-2 00 . P7C : ... .. B ... : ... .. . ... ...
ROW 63 : ... .. A ... ... ... : ... .. . ... ... ... : G-2 00 . P8B : ... .. A ... : ... .. . ... ...
ROW 64 : ... .. . ... ... ... : ... .. . ... ... ... : --- .. . ... : ... .. . ... : ... .. . ... ...
ROW 65 : ... .. 9 ... ... ... : ... .. C ... ... ... : ... .. . ... : ... .. 9 ... : ... .. . ... ...
ROW 66 : ... .. . ... ... ... : ... .. . ... ... ... : ... .. . ... : ... .. . ... : ... .. . ... ...
ROW 67 : G-2 00 F ... V03 ... : F-4 00 F ... ... ... : D#4 00 . P84 : ... .. F V01 : ... .. . ... ...
ROW 68 : ... .. . ... V01 ... : ... .. . ... ... ... : B-3 00 . P82 : ... .. . ... : ... .. . ... ...
ROW 69 : ... .. E ... V02 ... : ... .. . ... ... ... : G#3 00 . P7D : ... .. E V00 : ... .. . ... ...
ROW 6A : ... .. . ... ... ... : ... .. . ... ... ... : F-3 00 . P80 : ... .. . ... : ... .. . ... ...
ROW 6B : ... .. D ... ... ... : ... .. E ... ... ... : D#3 00 . P78 : ... .. D ... : ... .. . ... ...
ROW 6C : ... .. C ... ... ... : ... .. . ... ... ... : C-3 00 . P8C : ... .. C ... : ... .. . ... ...
ROW 6D : ... .. . ... ... ... : ... .. . ... ... ... : B-2 00 . P75 : ... .. . ... : ... .. . ... ...
ROW 6E : ... .. B ... ... ... : ... .. D ... ... ... : A-2 00 . P7C : ... .. B ... : ... .. . ... ...
ROW 6F : ... .. A ... ... ... : ... .. . ... ... ... : G-2 00 . P8B : ... .. A ... : ... .. . ... ...
ROW 70 : ... .. . ... ... ... : ... .. . ... ... ... : F#2 00 . P7D : ... .. . ... : ... .. . ... ...
ROW 71 : ... .. 9 ... ... ... : ... .. C ... ... ... : F-2 00 . P71 : ... .. 9 ... : ... .. . ... ...
ROW 72 : ... .. . ... ... ... : ... .. . ... ... ... : D#2 00 . P8F : ... .. . ... : ... .. . ... ...
ROW 73 : G-1 00 F ... V03 ... : F#4 00 F ... ... ... : D#4 00 . P84 : ... .. F V01 : ... .. . ... ...
ROW 74 : ... .. . ... V01 ... : ... .. . ... ... ... : B-3 00 . P82 : ... .. . ... : ... .. . ... ...
ROW 75 : ... .. E ... V02 ... : ... .. . ... ... ... : G#3 00 . P7D : ... .. E V00 : ... .. . ... ...
ROW 76 : ... .. . ... ... ... : ... .. . ... ... ... : F-3 00 . P80 : ... .. . ... : ... .. . ... ...
ROW 77 : ... .. D ... ... ... : ... .. E ... ... ... : D#3 00 . P78 : ... .. D ... : ... .. . ... ...
ROW 78 : ... .. C ... ... ... : ... .. . ... ... ... : C-3 00 . P8C : ... .. C ... : ... .. . ... ...
ROW 79 : ... .. . ... ... ... : G-4 00 F P80 ... ... : D#4 00 . P84 : ... .. F V01 : ... .. . ... ...
ROW 7A : ... .. B ... ... ... : ... .. . ... ... ... : B-3 00 . P82 : ... .. . ... : ... .. . ... ...
ROW 7B : ... .. A ... ... ... : ... .. . ... ... ... : G#3 00 . P7D : ... .. E V00 : ... .. . ... ...
ROW 7C : ... .. . ... ... ... : ... .. . ... ... ... : F-3 00 . P80 : ... .. . ... : ... .. . ... ...
ROW 7D : ... .. 9 ... ... ... : ... .. E ... ... ... : D#3 00 . P78 : ... .. D ... : ... .. . ... ...
ROW 7E : ... .. . ... ... ... : ... .. . ... ... ... : C-3 00 . P8C : ... .. C ... : ... .. . ... ...
ROW 7F : A-1 00 F ... V03 ... : A-4 00 F P7F ... ... : D#4 00 . P84 : 0-# 00 F V01 : ... .. . ... ...
ROW 80 : ... .. . ... V01 ... : ... .. . ... ... ... : B-3 00 . P82 : ... .. . ... : ... .. . ... ...
ROW 81 : ... .. E ... V02 ... : ... .. . ... ... ... : G#3 00 . P7D : ... .. E V00 : ... .. . ... ...
ROW 82 : ... .. . ... ... ... : ... .. . ... ... ... : F-3 00 . P80 : ... .. . ... : ... .. . ... ...
ROW 83 : ... .. D ... ... ... : ... .. E ... ... ... : D#3 00 . P78 : ... .. D ... : ... .. . ... ...
ROW 84 : ... .. C ... ... ... : ... .. . ... ... ... : C-3 00 . P8C : ... .. C ... : ... .. . ... ...
ROW 85 : ... .. . ... ... ... : G-4 00 E P7D ... ... : B-2 00 . P75 : ... .. . ... : ... .. . ... ...
ROW 86 : ... .. B ... ... ... : F-4 00 D P7C ... ... : A-2 00 . P7C : ... .. B ... : ... .. . ... ...
ROW 87 : ... .. A ... ... ... : D#4 00 D P7E ... ... : G-2 00 . P8B : ... .. A ... : ... .. . ... ...
ROW 88 : ... .. . ... ... ... : C#4 00 D P82 ... ... : F#2 00 . P7D : ... .. . ... : ... .. . ... ...
ROW 89 : ... .. 9 ... ... ... : C-4 00 C P7C ... ... : F-2 00 . P71 : ... .. 9 ... : ... .. . ... ...
ROW 8A : ... .. . ... ... ... : A#3 00 C P84 ... ... : D#2 00 . P8F : ... .. . ... : ... .. . ... ...
ROW 8B : ... .. F ... V03 ... : A-4 00 F P7F ... ... : A-4 00 . P7F : ... .. 8 ... : ... .. . ... ...
ROW 8C : ... .. . ... V01 ... : ... .. . ... ... ... : ... .. . ... : ... .. 7 ... : ... .. . ... ...
ROW 8D : ... .. E ... V02 ... : ... .. . ... ... ... : ... .. . ... : ... .. . ... : ... .. . ... ...
ROW 8E : ... .. . ... ... ... : ... .. . ... ... ... : ... .. . ... : ... .. 6 ... : ... .. . ... ...
ROW 8F : ... .. D ... ... ... : ... .. E ... ... ... : ... .. . ... : ... .. 5 ... : ... .. . ... ...
ROW 90 : ... .. C ... ... ... : ... .. . ... ... ... : ... .. . ... : ... .. . ... : ... .. . ... ...
ROW 91 : ... .. . ... ... ... : ... .. . ... ... ... : ... .. . ... : ... .. 4 ... : ... .. . ... ...
ROW 92 : ... .. B ... ... ... : ... .. D ... ... ... : ... .. . ... : ... .. . ... : ... .. . ... ...
ROW 93 : ... .. A ... ... ... : ... .. . ... ... ... : ... .. . ... : ... .. 3 ... : ... .. . ... ...
ROW 94 : ... .. . ... ... ... : ... .. . ... ... ... : ... .. . ... : ... .. 2 ... : ... .. . ... ...
ROW 95 : ... .. 9 ... ... ... : ... .. C ... ... ... : ... .. . ... : ... .. . ... : ... .. . ... ...
ROW 96 : ... .. . ... ... ... : ... .. . ... ... ... : ... .. . ... : ... .. 1 ... : ... .. . ... ...
ROW 97 : A-2 00 F P7F V03 ... : G-4 00 F P81 ... ... : D#4 00 . P84 : 4-# 00 F V01 : ... .. . ... ...
ROW 98 : ... .. . ... V01 ... : ... .. . P82 ... ... : B-3 00 . P82 : ... .. . ... : ... .. . ... ...
ROW 99 : ... .. E ... V02 ... : ... .. . P83 ... ... : G#3 00 . P7D : ... .. E V00 : ... .. . ... ...
ROW 9A : ... .. . ... ... ... : ... .. . P84 ... ... : F-3 00 . P80 : ... .. . ... : ... .. . ... ...
ROW 9B : ... .. D ... ... ... : G#4 00 E P7D ... ... : D#3 00 . P78 : ... .. D ... : ... .. . ... ...
ROW 9C : ... .. C ... ... ... : ... .. . P7E ... ... : C-3 00 . P8C : ... .. C ... : ... .. . ... ...
ROW 9D : ... .. . ... ... ... : ... .. . P7F ... ... : B-2 00 . P75 : ... .. . ... : ... .. . ... ...
ROW 9E : ... .. B ... ... ... : ... .. D P80 ... ... : A-2 00 . P7C : ... .. B ... : ... .. . ... ...
ROW 9F : ... .. A ... ... ... : ... .. . P81 ... ... : G-2 00 . P8B : ... .. A ... : ... .. . ... ...
ROW A0 : ... .. . ... ... ... : ... .. . P82 ... ... : F#2 00 . P7D : ... .. . ... : ... .. . ... ...
ROW A1 : ... .. 9 ... ... ... : ... .. C P83 ... ... : F-2 00 . P71 : ... .. 9 ... : ... .. . ... ...
ROW A2 : ... .. . ... ... ... : ... .. . P84 ... ... : D#2 00 . P8F : ... .. . ... : ... .. . ... ...
ROW A3 : A-1 00 F P80 V03 ... : A-4 00 F P7F ... ... : A-4 00 . P7F : ... .. 8 ... : ... .. . ... ...
ROW A4 : ... .. . ... V01 ... : ... .. . ... ... ... : ... .. . ... : ... .. 7 ... : ... .. . ... ...
ROW A5 : ... .. E ... V02 ... : ... .. . ... ... ... : ... .. . ... : ... .. . ... : ... .. . ... ...
ROW A6 : ... .. . ... ... ... : ... .. . ... ... ... : ... .. . ... : ... .. 6 ... : ... .. . ... ...
ROW A7 : ... .. D ... ... ... : ... .. E ... ... ... : ... .. . ... : ... .. 5 ... : ... .. . ... ...
ROW A8 : ... .. C ... ... ... : ... .. . ... ... ... : ... .. . ... : ... .. . ... : ... .. . ... ...
ROW A9 : ... .. . ... ... ... : ... .. . ... ... ... : ... .. . ... : ... .. 4 ... : ... .. . ... ...
ROW AA : ... .. B ... ... ... : ... .. D ... ... ... : ... .. . ... : ... .. . ... : ... .. . ... ...
ROW AB : ... .. A ... ... ... : ... .. . ... ... ... : ... .. . ... : ... .. 3 ... : ... .. . ... ...
ROW AC : ... .. . ... ... ... : ... .. . ... ... ... : ... .. . ... : ... .. 2 ... : ... .. . ... ...
ROW AD : ... .. 9 ... ... ... : ... .. C ... ... ... : ... .. . ... : ... .. . ... : ... .. . ... ...
ROW AE : ... .. . ... ... ... : ... .. . ... ... ... : ... .. . ... : ... .. 1 ... : ... .. . ... ...
ROW AF : ... .. F ... V03 ... : G-4 00 F P81 ... ... : D#4 00 . P84 : 0-# 00 F V01 : ... .. . ... ...
ROW B0 : ... .. . ... V01 ... : ... .. . P82 ... ... : B-3 00 . P82 : ... .. . ... : ... .. . ... ...
ROW B1 : ... .. E ... V02 ... : ... .. . P83 ... ... : G#3 00 . P7D : ... .. E V00 : ... .. . ... ...
ROW B2 : ... .. . ... ... ... : ... .. . P84 ... ... : F-3 00 . P80 : ... .. . ... : ... .. . ... ...
ROW B3 : ... .. D ... ... ... : G#4 00 E P7D ... ... : D#3 00 . P78 : ... .. D ... : ... .. . ... ...
ROW B4 : ... .. C ... ... ... : ... .. . P7E ... ... : C-3 00 . P8C : ... .. C ... : ... .. . ... ...
ROW B5 : ... .. . ... ... ... : ... .. . P7F ... ... : B-2 00 . P75 : ... .. . ... : ... .. . ... ...
ROW B6 : ... .. B ... ... ... : ... .. D P80 ... ... : A-2 00 . P7C : ... .. B ... : ... .. . ... ...
ROW B7 : ... .. A ... ... ... : ... .. . P81 ... ... : G-2 00 . P8B : ... .. A ... : ... .. . ... ...
ROW B8 : ... .. . ... ... ... : ... .. . P82 ... ... : F#2 00 . P7D : ... .. . ... : ... .. . ... ...
ROW B9 : ... .. 9 ... ... ... : ... .. C P83 ... ... : F-2 00 . P71 : ... .. 9 ... : ... .. . ... ...
ROW BA : ... .. . ... ... ... : ... .. . P84 ... ... : D#2 00 . P8F : ... .. . ... : ... .. . ... ...
ROW BB : ... .. F ... V03 ... : A-4 00 F P7F ... ... : A-4 00 . P7F : ... .. 8 ... : ... .. . ... ...
ROW BC : ... .. . ... V01 ... : ... .. . ... ... ... : ... .. . ... : ... .. 7 ... : ... .. . ... ...
ROW BD : ... .. E ... V02 ... : ... .. . ... ... ... : ... .. . ... : ... .. . ... : ... .. . ... ...
ROW BE : ... .. . ... ... ... : ... .. . ... ... ... : ... .. . ... : ... .. 6 ... : ... .. . ... ...
ROW BF : ... .. D ... ... ... : ... .. E ... ... ... : ... .. . ... : ... .. 5 ... : ... .. . ... ...
ROW C0 : ... .. C ... ... ... : ... .. . ... ... ... : ... .. . ... : ... .. . ... : ... .. . ... ...
ROW C1 : ... .. . ... ... ... : ... .. . ... ... ... : ... .. . ... : ... .. 4 ... : ... .. . ... ...
ROW C2 : ... .. B ... ... ... : ... .. D ... ... ... : ... .. . ... : ... .. . ... : ... .. . ... ...
ROW C3 : ... .. A ... ... ... : ... .. . ... ... ... : ... .. . ... : ... .. 3 ... : ... .. . ... ...
ROW C4 : ... .. . ... ... ... : ... .. . ... ... ... : ... .. . ... : ... .. 2 ... : ... .. . ... ...
ROW C5 : ... .. 9 ... ... ... : ... .. C ... ... ... : ... .. . ... : ... .. . ... : ... .. . ... ...
ROW C6 : ... .. . ... ... ... : ... .. . ... ... ... : ... .. . ... : ... .. 1 ... : ... .. . ... ...
ROW C7 : A-2 00 F P7F V03 ... : D-5 00 F ... ... ... : D#4 00 . P84 : 4-# 00 F V01 : ... .. . ... ...
ROW C8 : ... .. . ... V01 ... : ... .. . ... ... ... : B-3 00 . P82 : ... .. . ... : ... .. . ... ...
ROW C9 : ... .. E ... V02 ... : ... .. . ... ... ... : G#3 00 . P7D : ... .. E V00 : ... .. . ... ...
ROW CA : ... .. . ... ... ... : ... .. . ... ... ... : F-3 00 . P80 : ... .. . ... : ... .. . ... ...
ROW CB : ... .. D ... ... ... : ... .. E ... ... ... : D#3 00 . P78 : ... .. D ... : ... .. . ... ...
ROW CC : ... .. C ... ... ... : ... .. . ... ... ... : C-3 00 . P8C : ... .. C ... : ... .. . ... ...
ROW CD : ... .. . ... ... ... : C-5 00 F ... ... ... : B-2 00 . P75 : ... .. . ... : ... .. . ... ...
ROW CE : ... .. B ... ... ... : ... .. . ... ... ... : A-2 00 . P7C : ... .. B ... : ... .. . ... ...
ROW CF : ... .. A ... ... ... : ... .. . ... ... ... : G-2 00 . P8B : ... .. A ... : ... .. . ... ...
ROW D0 : ... .. . ... ... ... : ... .. . ... ... ... : F#2 00 . P7D : ... .. . ... : ... .. . ... ...
ROW D1 : ... .. 9 ... ... ... : ... .. E ... ... ... : F-2 00 . P71 : ... .. 9 ... : ... .. . ... ...
ROW D2 : ... .. . ... ... ... : ... .. . ... ... ... : D#2 00 . P8F : ... .. . ... : ... .. . ... ...
ROW D3 : A-1 00 F P80 V03 ... : B-4 00 F ... ... ... : A-4 00 . P7F : ... .. 8 ... : ... .. . ... ...
ROW D4 : ... .. . ... V01 ... : ... .. . ... ... ... : ... .. . ... : ... .. 7 ... : ... .. . ... ...
ROW D5 : ... .. E ... V02 ... : ... .. . ... ... ... : ... .. . ... : ... .. . ... : ... .. . ... ...
ROW D6 : ... .. . ... ... ... : ... .. . ... ... ... : ... .. . ... : ... .. 6 ... : ... .. . ... ...
ROW D7 : ... .. D ... ... ... : ... .. E ... ... ... : ... .. . ... : ... .. 5 ... : ... .. . ... ...
ROW D8 : ... .. C ... ... ... : ... .. . ... ... ... : ... .. . ... : ... .. . ... : ... .. . ... ...
ROW D9 : ... .. . ... ... ... : A-4 00 F ... ... ... : ... .. . ... : ... .. 4 ... : ... .. . ... ...
ROW DA : ... .. B ... ... ... : ... .. . ... ... ... : ... .. . ... : ... .. . ... : ... .. . ... ...
ROW DB : ... .. A ... ... ... : ... .. . ... ... ... : ... .. . ... : ... .. 3 ... : ... .. . ... ...
ROW DC : ... .. . ... ... ... : ... .. . ... ... ... : ... .. . ... : ... .. 2 ... : ... .. . ... ...
ROW DD : ... .. 9 ... ... ... : ... .. E ... ... ... : ... .. . ... : ... .. . ... : ... .. . ... ...
ROW DE : ... .. . ... ... ... : ... .. . ... ... ... : ... .. . ... : ... .. 1 ... : ... .. . ... ...
ROW DF : ... .. F ... V03 ... : G-4 00 F P81 ... ... : D#4 00 . P84 : 0-# 00 F V01 : ... .. . ... ...
ROW E0 : ... .. . ... V01 ... : ... .. . P82 ... ... : B-3 00 . P82 : ... .. . ... : ... .. . ... ...
ROW E1 : ... .. E ... V02 ... : ... .. . P83 ... ... : G#3 00 . P7D : ... .. E V00 : ... .. . ... ...
ROW E2 : ... .. . ... ... ... : ... .. . P84 ... ... : F-3 00 . P80 : ... .. . ... : ... .. . ... ...
ROW E3 : ... .. D ... ... ... : G#4 00 E P7D ... ... : D#3 00 . P78 : ... .. D ... : ... .. . ... ...
ROW E4 : ... .. C ... ... ... : ... .. . P7E ... ... : C-3 00 . P8C : ... .. C ... : ... .. . ... ...
ROW E5 : ... .. . ... ... ... : ... .. . P7F ... ... : B-2 00 . P75 : ... .. . ... : ... .. . ... ...
ROW E6 : ... .. B ... ... ... : ... .. D P80 ... ... : A-2 00 . P7C : ... .. B ... : ... .. . ... ...
ROW E7 : ... .. A ... ... ... : ... .. . P81 ... ... : G-2 00 . P8B : ... .. A ... : ... .. . ... ...
ROW E8 : ... .. . ... ... ... : ... .. . P82 ... ... : F#2 00 . P7D : ... .. . ... : ... .. . ... ...
ROW E9 : ... .. 9 ... ... ... : ... .. C P83 ... ... : F-2 00 . P71 : ... .. 9 ... : ... .. . ... ...
ROW EA : ... .. . ... ... ... : ... .. . P84 ... ... : D#2 00 . P8F : ... .. . ... : ... .. . ... ...
ROW EB : ... .. F ... V03 ... : A-4 00 F P7F ... ... : A-4 00 . P7F : ... .. 8 ... : ... .. . ... ...
ROW EC : ... .. . ... V01 ... : ... .. . ... ... ... : ... .. . ... : ... .. 7 ... : ... .. . ... ...
ROW ED : ... .. E ... V02 ... : ... .. . ... ... ... : ... .. . ... : ... .. . ... : ... .. . ... ...
ROW EE : ... .. . ... ... ... : ... .. . ... ... ... : ... .. . ... : ... .. 6 ... : ... .. . ... ...
ROW EF : ... .. D ... ... ... : ... .. E ... ... ... : ... .. . ... : ... .. 5 ... : ... .. . ... ...
ROW F0 : ... .. C ... ... ... : ... .. . ... ... ... : ... .. . ... : ... .. . ... : ... .. . ... ...
ROW F1 : ... .. . ... ... ... : ... .. . ... ... ... : ... .. . ... : ... .. 4 ... : ... .. . ... ...
ROW F2 : ... .. B ... ... ... : ... .. D ... ... ... : ... .. . ... : ... .. . ... : ... .. . ... ...
ROW F3 : ... .. A ... ... ... : ... .. . ... ... ... : ... .. . ... : ... .. 3 ... : ... .. . ... ...
ROW F4 : ... .. . ... ... ... : ... .. . ... ... ... : ... .. . ... : ... .. 2 ... : ... .. . ... ...
ROW F5 : ... .. 9 ... ... ... : ... .. C ... ... ... : ... .. . ... : ... .. . ... : ... .. . ... ...
ROW F6 : ... .. . ... ... ... : ... .. . ... ... ... : ... .. . ... : ... .. 1 ... : ... .. . ... ...
ROW F7 : A-2 00 F P7F V03 ... : G-4 00 F P80 ... ... : D#4 00 . P84 : 4-# 00 F V01 : ... .. . ... ...
ROW F8 : ... .. . ... V01 ... : ... .. . ... ... ... : B-3 00 . P82 : ... .. . ... : ... .. . ... ...
ROW F9 : ... .. E ... V02 ... : ... .. . ... ... ... : G#3 00 . P7D : ... .. E V00 : ... .. . ... ...
ROW FA : ... .. . ... ... ... : ... .. . ... ... ... : F-3 00 . P80 : ... .. . ... : ... .. . ... ...
ROW FB : ... .. D ... ... ... : ... .. E ... ... ... : D#3 00 . P78 : ... .. D ... : ... .. . ... ...
ROW FC : ... .. C ... ... ... : ... .. . ... ... ... : C-3 00 . P8C : ... .. C ... : ... .. . ... ...
ROW FD : ... .. . ... ... ... : ... .. . ... ... ... : B-2 00 . P75 : ... .. . ... : ... .. . ... ...
ROW FE : ... .. B ... ... ... : ... .. D ... ... ... : A-2 00 . P7C : ... .. B ... : ... .. . ... ...
ROW FF : ... .. A ... ... ... : ... .. . ... ... ... : G-2 00 . P8B : ... .. A ... : ... .. . ... ...

PATTERN 17
ROW 00 : ... .. . ... ... ... : ... .. . ... ... ... : F#2 00 . P7D : ... .. . ... : ... .. . ... ...
ROW 01 : ... .. 9 ... ... ... : ... .. C ... ... ... : F-2 00 . P71 : ... .. 9 ... : ... .. . ... ...
ROW 02 : ... .. . ... ... ... : ... .. . ... ... ... : D#2 00 . P8F : ... .. . ... : ... .. . ... ...
ROW 03 : A-1 00 F P80 V03 ... : E-4 00 F P7F ... ... : A-4 00 . P7F : ... .. 8 ... : ... .. . ... ...
ROW 04 : ... .. . ... V01 ... : ... .. . ... ... ... : ... .. . ... : ... .. 7 ... : ... .. . ... ...
ROW 05 : ... .. E ... V02 ... : ... .. . ... ... ... : ... .. . ... : ... .. . ... : ... .. . ... ...
ROW 06 : ... .. . ... ... ... : ... .. . ... ... ... : ... .. . ... : ... .. 6 ... : ... .. . ... ...
ROW 07 : ... .. D ... ... ... : ... .. E ... ... ... : ... .. . ... : ... .. 5 ... : ... .. . ... ...
ROW 08 : ... .. C ... ... ... : ... .. . ... ... ... : ... .. . ... : ... .. . ... : ... .. . ... ...
ROW 09 : ... .. . ... ... ... : ... .. . ... ... ... : ... .. . ... : ... .. 4 ... : ... .. . ... ...
ROW 0A : ... .. B ... ... ... : ... .. D ... ... ... : ... .. . ... : ... .. . ... : ... .. . ... ...
ROW 0B : ... .. A ... ... ... : ... .. . ... ... ... : ... .. . ... : ... .. 3 ... : ... .. . ... ...
ROW 0C : ... .. . ... ... ... : ... .. . ... ... ... : ... .. . ... : ... .. 2 ... : ... .. . ... ...
ROW 0D : ... .. 9 ... ... ... : ... .. C ... ... ... : ... .. . ... : ... .. . ... : ... .. . ... ...
ROW 0E : ... .. . ... ... ... : ... .. . ... ... ... : ... .. . ... : ... .. 1 ... : ... .. . ... ...
ROW 0F : G-1 00 F ... V03 ... : D#4 00 F P84 ... ... : D#4 00 . P84 : 0-# 00 F V01 : ... .. . ... ...
ROW 10 : ... .. . ... V01 ... : ... .. . P7F ... ... : B-3 00 . P82 : ... .. . ... : ... .. . ... ...
ROW 11 : ... .. E ... V02 ... : D-4 00 F P84 ... ... : G#3 00 . P7D : ... .. E V00 : ... .. . ... ...
ROW 12 : ... .. . ... ... ... : ... .. . P7F ... ... : F-3 00 . P80 : ... .. . ... : ... .. . ... ...
ROW 13 : ... .. D ... ... ... : ... .. E ... ... ... : D#3 00 . P78 : ... .. D ... : ... .. . ... ...
ROW 14 : ... .. C ... ... ... : ... .. . ... ... ... : C-3 00 . P8C : ... .. C ... : ... .. . ... ...
ROW 15 : ... .. . ... ... ... : ... .. F P84 ... ... : B-2 00 . P75 : ... .. . ... : ... .. . ... ...
ROW 16 : ... .. B ... ... ... : D#4 00 F P7F ... ... : A-2 00 . P7C : ... .. B ... : ... .. . ... ...
ROW 17 : ... .. A ... ... ... : ... .. . P84 ... ... : G-2 00 . P8B : ... .. A ... : ... .. . ... ...
ROW 18 : ... .. . ... ... ... : E-4 00 F P7F ... ... : F#2 00 . P7D : ... .. . ... : ... .. . ... ...
ROW 19 : ... .. 9 ... ... ... : ... .. E ... ... ... : F-2 00 . P71 : ... .. 9 ... : ... .. . ... ...
ROW 1A : ... .. . ... ... ... : ... .. . ... ... ... : D#2 00 . P8F : ... .. . ... : ... .. . ... ...
ROW 1B : ... .. F ... V03 ... : D#4 00 F P84 ... ... : G-4 00 . P80 : ... .. 8 ... : ... .. . ... ...
ROW 1C : ... .. . ... V01 ... : ... .. . P7F ... ... : ... .. . ... : ... .. 7 ... : ... .. . ... ...
ROW 1D : ... .. E ... V02 ... : D-4 00 F P84 ... ... : ... .. . ... : ... .. . ... : ... .. . ... ...
ROW 1E : ... .. . ... ... ... : ... .. . P7F ... ... : ... .. . ... : ... .. 6 ... : ... .. . ... ...
ROW 1F : ... .. D ... ... ... : ... .. E ... ... ... : ... .. . ... : ... .. 5 ... : ... .. . ... ...
ROW 20 : ... .. C ... ... ... : ... .. . ... ... ... : ... .. . ... : ... .. . ... : ... .. . ... ...
ROW 21 : ... .. . ... ... ... : ... .. F P84 ... ... : ... .. . ... : ... .. 4 ... : ... .. . ... ...
ROW 22 : ... .. B ... ... ... : D#4 00 F P7F ... ... : ... .. . ... : ... .. . ... : ... .. . ... ...
ROW 23 : ... .. A ... ... ... : ... .. . P84 ... ... : ... .. . ... : ... .. 3 ... : ... .. . ... ...
ROW 24 : ... .. . ... ... ... : E-4 00 F P7F ... ... : ... .. . ... : ... .. 2 ... : ... .. . ... ...
ROW 25 : ... .. 9 ... ... ... : ... .. E ... ... ... : ... .. . ... : ... .. . ... : ... .. . ... ...
ROW 26 : ... .. . ... ... ... : ... .. . ... ... ... : ... .. . ... : ... .. 1 ... : ... .. . ... ...
ROW 27 : G-2 00 F ... V03 ... : D#4 00 F P84 ... ... : D#4 00 . P84 : 4-# 00 F V01 : ... .. . ... ...
ROW 28 : ... .. . ... V01 ... : ... .. . P7F ... ... : B-3 00 . P82 : ... .. . ... : ... .. . ... ...
ROW 29 : ... .. E ... V02 ... : D-4 00 F P84 ... ... : G#3 00 . P7D : ... .. E V00 : ... .. . ... ...
ROW 2A : ... .. . ... ... ... : ... .. . P7F ... ... : F-3 00 . P80 : ... .. . ... : ... .. . ... ...
ROW 2B : ... .. D ... ... ... : ... .. E ... ... ... : D#3 00 . P78 : ... .. D ... : ... .. . ... ...
ROW 2C : ... .. C ... ... ... : ... .. . ... ... ... : C-3 00 . P8C : ... .. C ... : ... .. . ... ...
ROW 2D : ... .. . ... ... ... : ... .. . ... ... ... : B-2 00 . P75 : ... .. . ... : ... .. . ... ...
ROW 2E : ... .. B ... ... ... : ... .. D ... ... ... : A-2 00 . P7C : ... .. B ... : ... .. . ... ...
ROW 2F : ... .. A ... ... ... : ... .. . ... ... ... : G-2 00 . P8B : ... .. A ... : ... .. . ... ...
ROW 30 : ... .. . ... ... ... : ... .. . ... ... ... : F#2 00 . P7D : ... .. . ... : ... .. . ... ...
ROW 31 : ... .. 9 ... ... ... : ... .. C ... ... ... : F-2 00 . P71 : ... .. 9 ... : ... .. . ... ...
ROW 32 : ... .. . ... ... ... : ... .. . ... ... ... : D#2 00 . P8F : ... .. . ... : ... .. . ... ...
ROW 33 : G-1 00 F ... V03 ... : C#4 00 F P86 ... ... : G-4 00 . P80 : ... .. 8 ... : ... .. . ... ...
ROW 34 : ... .. . ... V01 ... : ... .. . P81 ... ... : ... .. . ... : ... .. 7 ... : ... .. . ... ...
ROW 35 : ... .. E ... V02 ... : ... .. . P7C ... ... : ... .. . ... : ... .. . ... : ... .. . ... ...
ROW 36 : ... .. . ... ... ... : C-4 00 F P83 ... ... : ... .. . ... : ... .. 6 ... : ... .. . ... ...
ROW 37 : ... .. D ... ... ... : ... .. E P7F ... ... : ... .. . ... : ... .. 5 ... : ... .. . ... ...
ROW 38 : ... .. C ... ... ... : ... .. . ... ... ... : ... .. . ... : ... .. . ... : ... .. . ... ...
ROW 39 : ... .. . ... ... ... : ... .. . ... ... ... : ... .. . ... : ... .. 4 ... : ... .. . ... ...
ROW 3A : ... .. B ... ... ... : ... .. D ... ... ... : ... .. . ... : ... .. . ... : ... .. . ... ...
ROW 3B : ... .. A ... ... ... : ... .. . ... ... ... : ... .. . ... : ... .. 3 ... : ... .. . ... ...
ROW 3C : ... .. . ... ... ... : ... .. . ... ... ... : ... .. . ... : ... .. 2 ... : ... .. . ... ...
ROW 3D : ... .. 9 ... ... ... : ... .. C ... ... ... : ... .. . ... : ... .. . ... : ... .. . ... ...
ROW 3E : ... .. . ... ... ... : ... .. . ... ... ... : ... .. . ... : ... .. 1 ... : ... .. . ... ...
ROW 3F : A-1 00 F ... V03 ... : A-3 00 F ... ... ... : D#4 00 . P84 : 0-# 00 F V01 : ... .. . ... ...
ROW 40 : ... .. . ... V01 ... : C#4 00 F P80 ... ... : B-3 00 . P82 : ... .. . ... : ... .. . ... ...
ROW 41 : ... .. E ... V02 ... : E-4 00 F P7F ... ... : G#3 00 . P7D : ... .. E V00 : ... .. . ... ...
ROW 42 : ... .. . ... ... ... : A-3 00 F ... ... ... : F-3 00 . P80 : ... .. . ... : ... .. . ... ...
ROW 43 : ... .. D ... ... ... : C#4 00 E P80 ... ... : D#3 00 . P78 : ... .. D ... : ... .. . ... ...
ROW 44 : ... .. C ... ... ... : E-4 00 E P7F ... ... : C-3 00 . P8C : ... .. C ... : ... .. . ... ...
ROW 45 : ... .. . ... ... ... : A-3 00 E ... ... ... : B-2 00 . P75 : ... .. . ... : ... .. . ... ...
ROW 46 : ... .. B ... ... ... : C#4 00 D P80 ... ... : A-2 00 . P7C : ... .. B ... : ... .. . ... ...
ROW 47 : ... .. A ... ... ... : E-4 00 D P7F ... ... : G-2 00 . P8B : ... .. A ... : ... .. . ... ...
ROW 48 : ... .. . ... ... ... : A-3 00 D ... ... ... : F#2 00 . P7D : ... .. . ... : ... .. . ... ...
ROW 49 : ... .. 9 ... ... ... : C#4 00 C P80 ... ... : F-2 00 . P71 : ... .. 9 ... : ... .. . ... ...
ROW 4A : ... .. . ... ... ... : E-4 00 C P7F ... ... : D#2 00 . P8F : ... .. . ... : ... .. . ... ...
ROW 4B : ... .. F ... V03 ... : A-4 00 F ... ... ... : A-4 00 . P7F : ... .. 8 ... : ... .. . ... ...
ROW 4C : ... .. . ... V01 ... : ... .. . ... ... ... : ... .. . ... : ... .. 7 ... : ... .. . ... ...
ROW 4D : ... .. E ... V02 ... : ... .. . ... ... ... : ... .. . ... : ... .. . ... : ... .. . ... ...
ROW 4E : ... .. . ... ... ... : ... .. . ... ... ... : ... .. . ... : ... .. 6 ... : ... .. . ... ...
ROW 4F : ... .. D ... ... ... : ... .. E ... ... ... : ... .. . ... : ... .. 5 ... : ... .. . ... ...
ROW 50 : ... .. C ... ... ... : ... .. . ... ... ... : ... .. . ... : ... .. . ... : ... .. . ... ...
ROW 51 : ... .. . ... ... ... : ... .. . ... ... ... : ... .. . ... : ... .. 4 ... : ... .. . ... ...
ROW 52 : ... .. B ... ... ... : ... .. D ... ... ... : ... .. . ... : ... .. . ... : ... .. . ... ...
ROW 53 : ... .. A ... ... ... : ... .. . ... ... ... : ... .. . ... : ... .. 3 ... : ... .. . ... ...
ROW 54 : ... .. . ... ... ... : ... .. . ... ... ... : ... .. . ... : ... .. 2 ... : ... .. . ... ...
ROW 55 : ... .. 9 ... ... ... : ... .. C ... ... ... : ... .. . ... : ... .. . ... : ... .. . ... ...
ROW 56 : ... .. . ... ... ... : ... .. . ... ... ... : ... .. . ... : ... .. 1 ... : ... .. . ... ...
ROW 57 : A-2 00 F P7F V03 ... : G-4 00 F P7D ... ... : D#4 00 . P84 : 4-# 00 F V01 : ... .. . ... ...
ROW 58 : ... .. . ... V01 ... : F-4 00 F P7C ... ... : B-3 00 . P82 : ... .. . ... : ... .. . ... ...
ROW 59 : ... .. E ... V02 ... : D#4 00 F P7E ... ... : G#3 00 . P7D : ... .. E V00 : ... .. . ... ...
ROW 5A : ... .. . ... ... ... : C#4 00 F P82 ... ... : F-3 00 . P80 : ... .. . ... : ... .. . ... ...
ROW 5B : ... .. D ... ... ... : C-4 00 E P7C ... ... : D#3 00 . P78 : ... .. D ... : ... .. . ... ...
ROW 5C : ... .. C ... ... ... : A#3 00 E P84 ... ... : C-3 00 . P8C : ... .. C ... : ... .. . ... ...
ROW 5D : ... .. . ... ... ... : G-4 00 F P7D ... ... : B-2 00 . P75 : ... .. . ... : ... .. . ... ...
ROW 5E : ... .. B ... ... ... : F-4 00 F P7C ... ... : A-2 00 . P7C : ... .. B ... : ... .. . ... ...
ROW 5F : ... .. A ... ... ... : D#4 00 F P7E ... ... : G-2 00 . P8B : ... .. A ... : ... .. . ... ...
ROW 60 : ... .. . ... ... ... : C#4 00 F P82 ... ... : F#2 00 . P7D : ... .. . ... : ... .. . ... ...
ROW 61 : ... .. 9 ... ... ... : C-4 00 E P7C ... ... : F-2 00 . P71 : ... .. 9 ... : ... .. . ... ...
ROW 62 : ... .. . ... ... ... : A#3 00 E P84 ... ... : D#2 00 . P8F : ... .. . ... : ... .. . ... ...
ROW 63 : A-1 00 F P80 V03 ... : G-4 00 F P7D ... ... : A-4 00 . P7F : ... .. 8 ... : ... .. . ... ...
ROW 64 : ... .. . ... V01 ... : F-4 00 F P7C ... ... : ... .. . ... : ... .. 7 ... : ... .. . ... ...
ROW 65 : ... .. E ... V02 ... : D#4 00 F P7E ... ... : ... .. . ... : ... .. . ... : ... .. . ... ...
ROW 66 : ... .. . ... ... ... : C#4 00 F P82 ... ... : ... .. . ... : ... .. 6 ... : ... .. . ... ...
ROW 67 : ... .. D ... ... ... : C-4 00 E P7C ... ... : ... .. . ... : ... .. 5 ... : ... .. . ... ...
ROW 68 : ... .. C ... ... ... : A#3 00 E P84 ... ... : ... .. . ... : ... .. . ... : ... .. . ... ...
ROW 69 : ... .. . ... ... ... : A-3 00 E P80 ... ... : ... .. . ... : ... .. 4 ... : ... .. . ... ...
ROW 6A : ... .. B ... ... ... : G#3 00 D P7D ... ... : ... .. . ... : ... .. . ... : ... .. . ... ...
ROW 6B : ... .. A ... ... ... : G-3 00 D P7B ... ... : ... .. . ... : ... .. 3 ... : ... .. . ... ...
ROW 6C : ... .. . ... ... ... : F#3 00 D P7A ... ... : ... .. . ... : ... .. 2 ... : ... .. . ... ...
ROW 6D : ... .. 9 ... ... ... : F-3 00 C ... ... ... : ... .. . ... : ... .. . ... : ... .. . ... ...
ROW 6E : ... .. . ... ... ... : E-3 00 C P7B ... ... : ... .. . ... : ... .. 1 ... : ... .. . ... ...
ROW 6F : ... .. F ... V03 ... : F-5 00 F P7E ... ... : D#4 00 . P84 : 0-# 00 F V01 : ... .. . ... ...
ROW 70 : ... .. . ... V01 ... : C#5 00 F P81 ... ... : B-3 00 . P82 : ... .. . ... : ... .. . ... ...
ROW 71 : ... .. E ... V02 ... : A#4 00 F P82 ... ... : G#3 00 . P7D : ... .. E V00 : ... .. . ... ...
ROW 72 : ... .. . ... ... ... : G#4 00 F P7F ... ... : F-3 00 . P80 : ... .. . ... : ... .. . ... ...
ROW 73 : ... .. D ... ... ... : F#4 00 E P7D ... ... : D#3 00 . P78 : ... .. D ... : ... .. . ... ...
ROW 74 : ... .. C ... ... ... : E-4 00 E P7E ... ... : C-3 00 . P8C : ... .. C ... : ... .. . ... ...
ROW 75 : ... .. . ... ... ... : D-4 00 E P80 ... ... : B-2 00 . P75 : ... .. . ... : ... .. . ... ...
ROW 76 : ... .. B ... ... ... : C-4 00 D P86 ... ... : A-2 00 . P7C : ... .. B ... : ... .. . ... ...
ROW 77 : ... .. A ... ... ... : B-3 00 D P80 ... ... : G-2 00 . P8B : ... .. A ... : ... .. . ... ...
ROW 78 : ... .. . ... ... ... : A#3 00 D P7C ... ... : F#2 00 . P7D : ... .. . ... : ... .. . ... ...
ROW 79 : ... .. 9 ... ... ... : G#3 00 C P87 ... ... : F-2 00 . P71 : ... .. 9 ... : ... .. . ... ...
ROW 7A : ... .. . ... ... ... : G-3 00 C P85 ... ... : D#2 00 . P8F : ... .. . ... : ... .. . ... ...
ROW 7B : ... .. F ... V03 ... : F#3 00 C P84 ... ... : A-4 00 . P7F : ... .. 8 ... : ... .. . ... ...
ROW 7C : ... .. . ... V01 ... : F-3 00 C ... ... ... : ... .. . ... : ... .. 7 ... : ... .. . ... ...
ROW 7D : ... .. E ... V02 ... : E-3 00 B P85 ... ... : ... .. . ... : ... .. . ... : ... .. . ... ...
ROW 7E : ... .. . ... ... ... : D#3 00 B P88 ... ... : ... .. . ... : ... .. 6 ... : ... .. . ... ...
ROW 7F : ... .. D ... ... ... : ... .. . P76 ... ... : ... .. . ... : ... .. 5 ... : ... .. . ... ...
ROW 80 : ... .. C ... ... ... : D-3 00 A P79 ... ... : ... .. . ... : ... .. . ... : ... .. . ... ...
ROW 81 : ... .. . ... ... ... : C#3 00 A P7E ... ... : ... .. . ... : ... .. 4 ... : ... .. . ... ...
ROW 82 : ... .. B ... ... ... : C-3 00 A P84 ... ... : ... .. . ... : ... .. . ... : ... .. . ... ...
ROW 83 : ... .. A ... ... ... : B-2 00 9 P8B ... ... : ... .. . ... : ... .. 3 ... : ... .. . ... ...
ROW 84 : ... .. . ... ... ... : ... .. . P79 ... ... : ... .. . ... : ... .. 2 ... : ... .. . ... ...
ROW 85 : ... .. 9 ... ... ... : A#2 00 9 P82 ... ... : ... .. . ... : ... .. . ... : ... .. . ... ...
ROW 86 : ... .. . ... ... ... : A-2 00 8 P8C ... ... : ... .. . ... : ... .. 1 ... : ... .. . ... ...
ROW 87 : A-2 00 F P7F V03 ... : ... .. . P7A ... ... : D#4 00 . P84 : 4-# 00 F V01 : ... .. . ... ...
ROW 88 : ... .. . ... V01 ... : G#2 00 8 P87 ... ... : B-3 00 . P82 : ... .. . ... : ... .. . ... ...
ROW 89 : ... .. E ... V02 ... : ... .. . P75 ... ... : G#3 00 . P7D : ... .. E V00 : ... .. . ... ...
ROW 8A : ... .. . ... ... ... : G-2 00 7 P83 ... ... : F-3 00 . P80 : ... .. . ... : ... .. . ... ...
ROW 8B : ... .. D ... ... ... : ... .. . P71 ... ... : D#3 00 . P78 : ... .. D ... : ... .. . ... ...
ROW 8C : ... .. C ... ... ... : F#2 00 7 P81 ... ... : C-3 00 . P8C : ... .. C ... : ... .. . ... ...
ROW 8D : ... .. . ... ... ... : ... .. 6 P6F ... ... : B-2 00 . P75 : ... .. . ... : ... .. . ... ...
ROW 8E : ... .. B ... ... ... : F-2 00 6 P81 ... ... : A-2 00 . P7C : ... .. B ... : ... .. . ... ...
ROW 8F : ... .. A ... ... ... : ... .. . P6F ... ... : G-2 00 . P8B : ... .. A ... : ... .. . ... ...
ROW 90 : ... .. . ... ... ... : E-2 00 5 P83 ... ... : F#2 00 . P7D : ... .. . ... : ... .. . ... ...
ROW 91 : ... .. 9 ... ... ... : ... .. . P71 ... ... : F-2 00 . P71 : ... .. 9 ... : ... .. . ... ...
ROW 92 : ... .. . ... ... ... : D#2 00 5 P87 ... ... : D#2 00 . P8F : ... .. . ... : ... .. . ... ...
ROW 93 : A-1 00 F P80 V03 ... : A#3 00 F ... ... ... : A-4 00 . P7F : ... .. 8 ... : ... .. . ... ...
ROW 94 : ... .. . ... V01 ... : A-3 00 F P83 ... ... : ... .. . ... : ... .. 7 ... : ... .. . ... ...
ROW 95 : ... .. E ... V02 ... : G#3 00 F P80 ... ... : ... .. . ... : ... .. . ... : ... .. . ... ...
ROW 96 : ... .. . ... ... ... : G-3 00 F P7E ... ... : ... .. . ... : ... .. 6 ... : ... .. . ... ...
ROW 97 : ... .. D ... ... ... : F#3 00 E P7D ... ... : ... .. . ... : ... .. 5 ... : ... .. . ... ...
ROW 98 : ... .. C ... ... ... : F-3 00 E ... ... ... : ... .. . ... : ... .. . ... : ... .. . ... ...
ROW 99 : ... .. . ... ... ... : A#3 00 F P87 ... ... : ... .. . ... : ... .. 4 ... : ... .. . ... ...
ROW 9A : ... .. B ... ... ... : A-3 00 F P83 ... ... : ... .. . ... : ... .. . ... : ... .. . ... ...
ROW 9B : ... .. A ... ... ... : G#3 00 F P80 ... ... : ... .. . ... : ... .. 3 ... : ... .. . ... ...
ROW 9C : ... .. . ... ... ... : G-3 00 F P7E ... ... : ... .. . ... : ... .. 2 ... : ... .. . ... ...
ROW 9D : ... .. 9 ... ... ... : F#3 00 E P7D ... ... : ... .. . ... : ... .. . ... : ... .. . ... ...
ROW 9E : ... .. . ... ... ... : F-3 00 E ... ... ... : ... .. . ... : ... .. 1 ... : ... .. . ... ...
ROW 9F : ... .. F ... V03 ... : B-3 00 F P86 ... ... : D#4 00 . P84 : 0-# 00 F V01 : ... .. . ... ...
ROW A0 : ... .. . ... V01 ... : A#3 00 F P82 ... ... : B-3 00 . P82 : ... .. . ... : ... .. . ... ...
ROW A1 : ... .. E ... V02 ... : A-3 00 F P7E ... ... : G#3 00 . P7D : ... .. E V00 : ... .. . ... ...
ROW A2 : ... .. . ... ... ... : G#3 00 F P7B ... ... : F-3 00 . P80 : ... .. . ... : ... .. . ... ...
ROW A3 : ... .. D ... ... ... : G-3 00 E P79 ... ... : D#3 00 . P78 : ... .. D ... : ... .. . ... ...
ROW A4 : ... .. C ... ... ... : F#3 00 E P78 ... ... : C-3 00 . P8C : ... .. C ... : ... .. . ... ...
ROW A5 : ... .. . ... ... ... : B-3 00 F P86 ... ... : B-2 00 . P75 : ... .. . ... : ... .. . ... ...
ROW A6 : ... .. B ... ... ... : A#3 00 F P82 ... ... : A-2 00 . P7C : ... .. B ... : ... .. . ... ...
ROW A7 : ... .. A ... ... ... : A-3 00 F P7E ... ... : G-2 00 . P8B : ... .. A ... : ... .. . ... ...
ROW A8 : ... .. . ... ... ... : G#3 00 F P7B ... ... : F#2 00 . P7D : ... .. . ... : ... .. . ... ...
ROW A9 : ... .. 9 ... ... ... : G-3 00 E P79 ... ... : F-2 00 . P71 : ... .. 9 ... : ... .. . ... ...
ROW AA : ... .. . ... ... ... : F#3 00 E P78 ... ... : D#2 00 . P8F : ... .. . ... : ... .. . ... ...
ROW AB : ... .. F ... V03 ... : C-4 00 F P85 ... ... : A-4 00 . P7F : ... .. 8 ... : ... .. . ... ...
ROW AC : ... .. . ... V01 ... : B-3 00 F P7F ... ... : ... .. . ... : ... .. 7 ... : ... .. . ... ...
ROW AD : ... .. E ... V02 ... : A#3 00 F P7B ... ... : ... .. . ... : ... .. . ... : ... .. . ... ...
ROW AE : ... .. . ... ... ... : G#3 00 F P86 ... ... : ... .. . ... : ... .. 6 ... : ... .. . ... ...
ROW AF : ... .. D ... ... ... : G-3 00 E P84 ... ... : ... .. . ... : ... .. 5 ... : ... .. . ... ...
ROW B0 : ... .. C ... ... ... : F#3 00 E P83 ... ... : ... .. . ... : ... .. . ... : ... .. . ... ...
ROW B1 : ... .. . ... ... ... : C-4 00 F P85 ... ... : ... .. . ... : ... .. 4 ... : ... .. . ... ...
ROW B2 : ... .. B ... ... ... : B-3 00 F P7F ... ... : ... .. . ... : ... .. . ... : ... .. . ... ...
ROW B3 : ... .. A ... ... ... : A#3 00 F P7B ... ... : ... .. . ... : ... .. 3 ... : ... .. . ... ...
ROW B4 : ... .. . ... ... ... : G#3 00 F P86 ... ... : ... .. . ... : ... .. 2 ... : ... .. . ... ...
ROW B5 : ... .. 9 ... ... ... : G-3 00 E P84 ... ... : ... .. . ... : ... .. . ... : ... .. . ... ...
ROW B6 : ... .. . ... ... ... : F#3 00 E P83 ... ... : ... .. . ... : ... .. 1 ... : ... .. . ... ...
ROW B7 : A-2 00 F P7F V03 ... : C#4 00 F P84 ... ... : D#4 00 . P84 : 4-# 00 F V01 : ... .. . ... ...
ROW B8 : ... .. . ... V01 ... : C-4 00 F P7E ... ... : B-3 00 . P82 : ... .. . ... : ... .. . ... ...
ROW B9 : ... .. E ... V02 ... : A#3 00 F P86 ... ... : G#3 00 . P7D : ... .. E V00 : ... .. . ... ...
ROW BA : ... .. . ... ... ... : A-3 00 F P82 ... ... : F-3 00 . P80 : ... .. . ... : ... .. . ... ...
ROW BB : ... .. D ... ... ... : G#3 00 E P7F ... ... : D#3 00 . P78 : ... .. D ... : ... .. . ... ...
ROW BC : ... .. C ... ... ... : G-3 00 E P7D ... ... : C-3 00 . P8C : ... .. C ... : ... .. . ... ...
ROW BD : ... .. . ... ... ... : C#4 00 F P84 ... ... : B-2 00 . P75 : ... .. . ... : ... .. . ... ...
ROW BE : ... .. B ... ... ... : C-4 00 F P7E ... ... : A-2 00 . P7C : ... .. B ... : ... .. . ... ...
ROW BF : ... .. A ... ... ... : A#3 00 F P86 ... ... : G-2 00 . P8B : ... .. A ... : ... .. . ... ...
ROW C0 : ... .. . ... ... ... : A-3 00 F P82 ... ... : F#2 00 . P7D : ... .. . ... : ... .. . ... ...
ROW C1 : ... .. 9 ... ... ... : G#3 00 E P7F ... ... : F-2 00 . P71 : ... .. 9 ... : ... .. . ... ...
ROW C2 : ... .. . ... ... ... : G-3 00 E P7D ... ... : D#2 00 . P8F : ... .. . ... : ... .. . ... ...
ROW C3 : A-1 00 F P80 V03 ... : D-4 00 F P81 ... ... : A-4 00 . P7F : ... .. 8 ... : ... .. . ... ...
ROW C4 : ... .. . ... V01 ... : C#4 00 F P7B ... ... : ... .. . ... : ... .. 7 ... : ... .. . ... ...
ROW C5 : ... .. E ... V02 ... : B-3 00 F P81 ... ... : ... .. . ... : ... .. . ... : ... .. . ... ...
ROW C6 : ... .. . ... ... ... : A#3 00 F P7D ... ... : ... .. . ... : ... .. 6 ... : ... .. . ... ...
ROW C7 : ... .. D ... ... ... : A-3 00 E P79 ... ... : ... .. . ... : ... .. 5 ... : ... .. . ... ...
ROW C8 : ... .. C ... ... ... : G-3 00 E P86 ... ... : ... .. . ... : ... .. . ... : ... .. . ... ...
ROW C9 : ... .. . ... ... ... : D-4 00 F P81 ... ... : ... .. . ... : ... .. 4 ... : ... .. . ... ...
ROW CA : ... .. B ... ... ... : C#4 00 F P7B ... ... : ... .. . ... : ... .. . ... : ... .. . ... ...
ROW CB : ... .. A ... ... ... : B-3 00 F P81 ... ... : ... .. . ... : ... .. 3 ... : ... .. . ... ...
ROW CC : ... .. . ... ... ... : A#3 00 F P7D ... ... : ... .. . ... : ... .. 2 ... : ... .. . ... ...
ROW CD : ... .. 9 ... ... ... : A-3 00 E P79 ... ... : ... .. . ... : ... .. . ... : ... .. . ... ...
ROW CE : ... .. . ... ... ... : G-3 00 E P86 ... ... : ... .. . ... : ... .. 1 ... : ... .. . ... ...
ROW CF : G-1 00 F ... V03 ... : D#4 00 F P81 ... ... : D#4 00 . P84 : ... .. F V01 : ... .. . ... ...
ROW D0 : ... .. . ... V01 ... : C#4 00 F P85 ... ... : B-3 00 . P82 : ... .. . ... : ... .. . ... ...
ROW D1 : ... .. E ... V02 ... : C-4 00 F P7F ... ... : G#3 00 . P7D : ... .. E V00 : ... .. . ... ...
ROW D2 : ... .. . ... ... ... : A#3 00 F P87 ... ... : F-3 00 . P80 : ... .. . ... : ... .. . ... ...
ROW D3 : ... .. D ... ... ... : A-3 00 E P83 ... ... : D#3 00 . P78 : ... .. D ... : ... .. . ... ...
ROW D4 : ... .. C ... ... ... : G#3 00 E P80 ... ... : C-3 00 . P8C : ... .. C ... : ... .. . ... ...
ROW D5 : ... .. . ... ... ... : D#4 00 F P81 ... ... : B-2 00 . P75 : ... .. . ... : ... .. . ... ...
ROW D6 : ... .. B ... ... ... : C#4 00 F P85 ... ... : A-2 00 . P7C : ... .. B ... : ... .. . ... ...
ROW D7 : ... .. A ... ... ... : C-4 00 F P7F ... ... : G-2 00 . P8B : ... .. A ... : ... .. . ... ...
ROW D8 : ... .. . ... ... ... : A#3 00 F P87 ... ... : F#2 00 . P7D : ... .. . ... : ... .. . ... ...
ROW D9 : ... .. 9 ... ... ... : A-3 00 E P83 ... ... : F-2 00 . P71 : ... .. 9 ... : ... .. . ... ...
ROW DA : ... .. . ... ... ... : G#3 00 E P80 ... ... : D#2 00 . P8F : ... .. . ... : ... .. . ... ...
ROW DB : ... .. F ... V03 ... : E-4 00 F ... ... ... : D#4 00 . P84 : ... .. F V01 : ... .. . ... ...
ROW DC : ... .. . ... V01 ... : D-4 00 F P82 ... ... : B-3 00 . P82 : ... .. . ... : ... .. . ... ...
ROW DD : ... .. E ... V02 ... : C#4 00 F P7C ... ... : G#3 00 . P7D : ... .. E V00 : ... .. . ... ...
ROW DE : ... .. . ... ... ... : B-3 00 F P82 ... ... : F-3 00 . P80 : ... .. . ... : ... .. . ... ...
ROW DF : ... .. D ... ... ... : A#3 00 E P7E ... ... : D#3 00 . P78 : ... .. D ... : ... .. . ... ...
ROW E0 : ... .. C ... ... ... : A-3 00 E P7A ... ... : C-3 00 . P8C : ... .. C ... : ... .. . ... ...
ROW E1 : ... .. . ... ... ... : E-4 00 F P80 ... ... : B-2 00 . P75 : ... .. . ... : ... .. . ... ...
ROW E2 : ... .. B ... ... ... : D-4 00 F P82 ... ... : A-2 00 . P7C : ... .. B ... : ... .. . ... ...
ROW E3 : ... .. A ... ... ... : C#4 00 F P7C ... ... : G-2 00 . P8B : ... .. A ... : ... .. . ... ...
ROW E4 : ... .. . ... ... ... : B-3 00 F P82 ... ... : --- .. . ... : ... .. . ... : ... .. . ... ...
ROW E5 : ... .. 9 ... ... ... : A#3 00 E P7E ... ... : ... .. . ... : ... .. 9 ... : ... .. . ... ...
ROW E6 : ... .. . ... ... ... : A-3 00 E P7A ... ... : ... .. . ... : ... .. . ... : ... .. . ... ...
ROW E7 : G-2 00 F ... V03 ... : F-4 00 F P7F ... ... : D#4 00 . P84 : ... .. F V01 : ... .. . ... ...
ROW E8 : ... .. . ... V01 ... : D#4 00 F P81 ... ... : B-3 00 . P82 : ... .. . ... : ... .. . ... ...
ROW E9 : ... .. E ... V02 ... : C#4 00 F P85 ... ... : G#3 00 . P7D : ... .. E V00 : ... .. . ... ...
ROW EA : ... .. . ... ... ... : C-4 00 F P7F ... ... : F-3 00 . P80 : ... .. . ... : ... .. . ... ...
ROW EB : ... .. D ... ... ... : A#3 00 E P87 ... ... : D#3 00 . P78 : ... .. D ... : ... .. . ... ...
ROW EC : ... .. C ... ... ... : A-3 00 E P83 ... ... : C-3 00 . P8C : ... .. C ... : ... .. . ... ...
ROW ED : ... .. . ... ... ... : F-4 00 F P7F ... ... : B-2 00 . P75 : ... .. . ... : ... .. . ... ...
ROW EE : ... .. B ... ... ... : D#4 00 F P81 ... ... : A-2 00 . P7C : ... .. B ... : ... .. . ... ...
ROW EF : ... .. A ... ... ... : C#4 00 F P85 ... ... : G-2 00 . P8B : ... .. A ... : ... .. . ... ...
ROW F0 : ... .. . ... ... ... : C-4 00 F P7F ... ... : F#2 00 . P7D : ... .. . ... : ... .. . ... ...
ROW F1 : ... .. 9 ... ... ... : A#3 00 E P87 ... ... : F-2 00 . P71 : ... .. 9 ... : ... .. . ... ...
ROW F2 : ... .. . ... ... ... : A-3 00 E P83 ... ... : D#2 00 . P8F : ... .. . ... : ... .. . ... ...
ROW F3 : G-1 00 F ... V03 ... : F#4 00 F P7E ... ... : D#4 00 . P84 : ... .. F V01 : ... .. . ... ...
ROW F4 : ... .. . ... V01 ... : E-4 00 F P7F ... ... : B-3 00 . P82 : ... .. . ... : ... .. . ... ...
ROW F5 : ... .. E ... V02 ... : D-4 00 F P81 ... ... : G#3 00 . P7D : ... .. E V00 : ... .. . ... ...
ROW F6 : ... .. . ... ... ... : C#4 00 F P7B ... ... : F-3 00 . P80 : ... .. . ... : ... .. . ... ...
ROW F7 : ... .. D ... ... ... : B-3 00 E P81 ... ... : D#3 00 . P78 : ... .. D ... : ... .. . ... ...
ROW F8 : ... .. C ... ... ... : A#3 00 E P7D ... ... : C-3 00 . P8C : ... .. C ... : ... .. . ... ...
ROW F9 : ... .. . ... ... ... : F#4 00 F P7E ... ... : D#4 00 . P84 : ... .. F V01 : ... .. . ... ...
ROW FA : ... .. B ... ... ... : E-4 00 F P7F ... ... : B-3 00 . P82 : ... .. . ... : ... .. . ... ...
ROW FB : ... .. A ... ... ... : D-4 00 F P81 ... ... : G#3 00 . P7D : ... .. E V00 : ... .. . ... ...
ROW FC : ... .. . ... ... ... : C#4 00 F P7B ... ... : F-3 00 . P80 : ... .. . ... : ... .. . ... ...
ROW FD : ... .. 9 ... ... ... : B-3 00 E P81 ... ... : D#3 00 . P78 : ... .. D ... : ... .. . ... ...
ROW FE : ... .. . ... ... ... : A#3 00 E P7D ... ... : C-3 00 . P8C : ... .. C ... : ... .. . ... ...
ROW FF : A-1 00 F ... V03 ... : A-2 00 F P7F ... ... : D#4 00 . P84 : 0-# 00 F V01 : ... .. . ... ...

PATTERN 18
ROW 00 : ... .. . ... V01 ... : C#3 00 F P80 ... ... : B-3 00 . P82 : ... .. . ... : ... .. . ... ...
ROW 01 : ... .. E ... V02 ... : E-3 00 F P7E ... ... : G#3 00 . P7D : ... .. E V00 : ... .. . ... ...
ROW 02 : ... .. . ... ... ... : A-2 00 F P7F ... ... : F-3 00 . P80 : ... .. . ... : ... .. . ... ...
ROW 03 : ... .. D ... ... ... : C#3 00 E P80 ... ... : D#3 00 . P78 : ... .. D ... : ... .. . ... ...
ROW 04 : ... .. C ... ... ... : E-3 00 E P7E ... ... : C-3 00 . P8C : ... .. C ... : ... .. . ... ...
ROW 05 : ... .. . ... ... ... : A-2 00 E P7F ... ... : B-2 00 . P75 : ... .. . ... : ... .. . ... ...
ROW 06 : ... .. B ... ... ... : C#3 00 D P80 ... ... : A-2 00 . P7C : ... .. B ... : ... .. . ... ...
ROW 07 : ... .. A ... ... ... : E-3 00 D P7E ... ... : G-2 00 . P8B : ... .. A ... : ... .. . ... ...
ROW 08 : ... .. . ... ... ... : A-2 00 D P7F ... ... : F#2 00 . P7D : ... .. . ... : ... .. . ... ...
ROW 09 : ... .. 9 ... ... ... : C#3 00 C P80 ... ... : F-2 00 . P71 : ... .. 9 ... : ... .. . ... ...
ROW 0A : ... .. . ... ... ... : E-3 00 C P7E ... ... : D#2 00 . P8F : ... .. . ... : ... .. . ... ...
ROW 0B : ... .. F ... V03 ... : A-2 00 C P7F ... ... : A-4 00 . P7F : ... .. 8 ... : ... .. . ... ...
ROW 0C : ... .. . ... V01 ... : C#3 00 C P80 ... ... : ... .. . ... : ... .. 7 ... : ... .. . ... ...
ROW 0D : ... .. E ... V02 ... : E-3 00 B P7E ... ... : ... .. . ... : ... .. . ... : ... .. . ... ...
ROW 0E : ... .. . ... ... ... : A-2 00 B P7F ... ... : ... .. . ... : ... .. 6 ... : ... .. . ... ...
ROW 0F : ... .. D ... ... ... : C#3 00 B P80 ... ... : ... .. . ... : ... .. 5 ... : ... .. . ... ...
ROW 10 : ... .. C ... ... ... : E-3 00 A P7E ... ... : ... .. . ... : ... .. . ... : ... .. . ... ...
ROW 11 : ... .. . ... ... ... : A-2 00 A P7F ... ... : ... .. . ... : ... .. 4 ... : ... .. . ... ...
ROW 12 : ... .. B ... ... ... : C#3 00 A P80 ... ... : ... .. . ... : ... .. . ... : ... .. . ... ...
ROW 13 : ... .. A ... ... ... : E-3 00 9 P7E ... ... : ... .. . ... : ... .. 3 ... : ... .. . ... ...
ROW 14 : ... .. . ... ... ... : A-2 00 9 P7F ... ... : ... .. . ... : ... .. 2 ... : ... .. . ... ...
ROW 15 : ... .. 9 ... ... ... : C#3 00 9 P80 ... ... : ... .. . ... : ... .. . ... : ... .. . ... ...
ROW 16 : ... .. . ... ... ... : E-3 00 8 P7E ... ... : ... .. . ... : ... .. 1 ... : ... .. . ... ...
ROW 17 : A-2 00 F P7F V03 ... : A-3 00 F P7F ... ... : D#4 00 . P84 : 4-# 00 F V01 : ... .. . ... ...
ROW 18 : ... .. . ... V01 ... : C#4 00 F P80 ... ... : B-3 00 . P82 : ... .. . ... : ... .. . ... ...
ROW 19 : ... .. E ... V02 ... : E-4 00 F P7F ... ... : G#3 00 . P7D : ... .. E V00 : ... .. . ... ...
ROW 1A : ... .. . ... ... ... : A-3 00 F ... ... ... : F-3 00 . P80 : ... .. . ... : ... .. . ... ...
ROW 1B : ... .. D ... ... ... : C#4 00 E P80 ... ... : D#3 00 . P78 : ... .. D ... : ... .. . ... ...
ROW 1C : ... .. C ... ... ... : E-4 00 E P7F ... ... : C-3 00 . P8C : ... .. C ... : ... .. . ... ...
ROW 1D : ... .. . ... ... ... : A-3 00 E ... ... ... : B-2 00 . P75 : ... .. . ... : ... .. . ... ...
ROW 1E : ... .. B ... ... ... : C#4 00 D P80 ... ... : A-2 00 . P7C : ... .. B ... : ... .. . ... ...
ROW 1F : ... .. A ... ... ... : E-4 00 D P7F ... ... : G-2 00 . P8B : ... .. A ... : ... .. . ... ...
ROW 20 : ... .. . ... ... ... : A-3 00 D ... ... ... : F#2 00 . P7D : ... .. . ... : ... .. . ... ...
ROW 21 : ... .. 9 ... ... ... : C#4 00 C P80 ... ... : F-2 00 . P71 : ... .. 9 ... : ... .. . ... ...
ROW 22 : ... .. . ... ... ... : E-4 00 C P7F ... ... : D#2 00 . P8F : ... .. . ... : ... .. . ... ...
ROW 23 : A-1 00 F P80 V03 ... : A-3 00 C ... ... ... : A-4 00 . P7F : ... .. 8 ... : ... .. . ... ...
ROW 24 : ... .. . ... V01 ... : C#4 00 C P80 ... ... : ... .. . ... : ... .. 7 ... : ... .. . ... ...
ROW 25 : ... .. E ... V02 ... : E-4 00 B P7F ... ... : ... .. . ... : ... .. . ... : ... .. . ... ...
ROW 26 : ... .. . ... ... ... : A-3 00 B ... ... ... : ... .. . ... : ... .. 6 ... : ... .. . ... ...
ROW 27 : ... .. D ... ... ... : C#4 00 B P80 ... ... : ... .. . ... : ... .. 5 ... : ... .. . ... ...
ROW 28 : ... .. C ... ... ... : E-4 00 A P7F ... ... : ... .. . ... : ... .. . ... : ... .. . ... ...
ROW 29 : ... .. . ... ... ... : A-3 00 A ... ... ... : ... .. . ... : ... .. 4 ... : ... .. . ... ...
ROW 2A : ... .. B ... ... ... : C#4 00 A P80 ... ... : ... .. . ... : ... .. . ... : ... .. . ... ...
ROW 2B : ... .. A ... ... ... : E-4 00 9 P7F ... ... : ... .. . ... : ... .. 3 ... : ... .. . ... ...
ROW 2C : ... .. . ... ... ... : A-3 00 9 ... ... ... : ... .. . ... : ... .. 2 ... : ... .. . ... ...
ROW 2D : ... .. 9 ... ... ... : C#4 00 9 P80 ... ... : ... .. . ... : ... .. . ... : ... .. . ... ...
ROW 2E : ... .. . ... ... ... : E-4 00 8 P7F ... ... : ... .. . ... : ... .. 1 ... : ... .. . ... ...
ROW 2F : ... .. F ... V03 ... : A-4 00 F ... ... ... : D#4 00 . P84 : 0-# 00 F V01 : ... .. . ... ...
ROW 30 : ... .. . ... V01 ... : C#5 00 F P80 ... ... : B-3 00 . P82 : ... .. . ... : ... .. . ... ...
ROW 31 : ... .. E ... V02 ... : E-5 00 F P7F ... ... : G#3 00 . P7D : ... .. E V00 : ... .. . ... ...
ROW 32 : ... .. . ... ... ... : A-4 00 F ... ... ... : F-3 00 . P80 : ... .. . ... : ... .. . ... ...
ROW 33 : ... .. D ... ... ... : C#5 00 E P80 ... ... : D#3 00 . P78 : ... .. D ... : ... .. . ... ...
ROW 34 : ... .. C ... ... ... : E-5 00 E P7F ... ... : C-3 00 . P8C : ... .. C ... : ... .. . ... ...
ROW 35 : ... .. . ... ... ... : A-4 00 E ... ... ... : B-2 00 . P75 : ... .. . ... : ... .. . ... ...
ROW 36 : ... .. B ... ... ... : C#5 00 D P80 ... ... : A-2 00 . P7C : ... .. B ... : ... .. . ... ...
ROW 37 : ... .. A ... ... ... : E-5 00 D P7F ... ... : G-2 00 . P8B : ... .. A ... : ... .. . ... ...
ROW 38 : ... .. . ... ... ... : A-4 00 D ... ... ... : F#2 00 . P7D : ... .. . ... : ... .. . ... ...
ROW 39 : ... .. 9 ... ... ... : C#5 00 C P80 ... ... : F-2 00 . P71 : ... .. 9 ... : ... .. . ... ...
ROW 3A : ... .. . ... ... ... : E-5 00 C P7F ... ... : D#2 00 . P8F : ... .. . ... : ... .. . ... ...
ROW 3B : ... .. F ... V03 ... : A-4 00 C ... ... ... : A-4 00 . P7F : ... .. 8 ... : ... .. . ... ...
ROW 3C : ... .. . ... V01 ... : C#5 00 C P80 ... ... : ... .. . ... : ... .. 7 ... : ... .. . ... ...
ROW 3D : ... .. E ... V02 ... : E-5 00 B P7F ... ... : ... .. . ... : ... .. . ... : ... .. . ... ...
ROW 3E : ... .. . ... ... ... : A-4 00 B ... ... ... : ... .. . ... : ... .. 6 ... : ... .. . ... ...
ROW 3F : ... .. D ... ... ... : C#5 00 B P80 ... ... : ... .. . ... : ... .. 5 ... : ... .. . ... ...
ROW 40 : ... .. C ... ... ... : E-5 00 A P7F ... ... : ... .. . ... : ... .. . ... : ... .. . ... ...
ROW 41 : ... .. . ... ... ... : A-4 00 A ... ... ... : ... .. . ... : ... .. 4 ... : ... .. . ... ...
ROW 42 : ... .. B ... ... ... : C#5 00 A P80 ... ... : ... .. . ... : ... .. . ... : ... .. . ... ...
ROW 43 : ... .. A ... ... ... : E-5 00 9 P7F ... ... : ... .. . ... : ... .. 3 ... : ... .. . ... ...
ROW 44 : ... .. . ... ... ... : A-4 00 9 ... ... ... : ... .. . ... : ... .. 2 ... : ... .. . ... ...
ROW 45 : ... .. 9 ... ... ... : C#5 00 9 P80 ... ... : ... .. . ... : ... .. . ... : ... .. . ... ...
ROW 46 : ... .. . ... ... ... : E-5 00 8 P7F ... ... : ... .. . ... : ... .. 1 ... : ... .. . ... ...
ROW 47 : A-2 00 F P7F V03 ... : A-5 00 F P80 ... ... : D#4 00 . P84 : 4-# 00 F V01 : ... .. . ... ...
ROW 48 : ... .. . ... V01 ... : C#6 00 F P7F ... ... : B-3 00 . P82 : ... .. . ... : ... .. . ... ...
ROW 49 : ... .. E ... V02 ... : E-6 00 F ... ... ... : G#3 00 . P7D : ... .. E V00 : ... .. . ... ...
ROW 4A : ... .. . ... ... ... : A-5 00 F P80 ... ... : F-3 00 . P80 : ... .. . ... : ... .. . ... ...
ROW 4B : ... .. D ... ... ... : C#6 00 E P7F ... ... : D#3 00 . P78 : ... .. D ... : ... .. . ... ...
ROW 4C : ... .. C ... ... ... : E-6 00 E ... ... ... : C-3 00 . P8C : ... .. C ... : ... .. . ... ...
ROW 4D : ... .. . ... ... ... : A-5 00 E P80 ... ... : B-2 00 . P75 : ... .. . ... : ... .. . ... ...
ROW 4E : ... .. B ... ... ... : C#6 00 D P7F ... ... : A-2 00 . P7C : ... .. B ... : ... .. . ... ...
ROW 4F : ... .. A ... ... ... : E-6 00 D ... ... ... : G-2 00 . P8B : ... .. A ... : ... .. . ... ...
ROW 50 : ... .. . ... ... ... : A-5 00 D P80 ... ... : F#2 00 . P7D : ... .. . ... : ... .. . ... ...
ROW 51 : ... .. 9 ... ... ... : C#6 00 C P7F ... ... : F-2 00 . P71 : ... .. 9 ... : ... .. . ... ...
ROW 52 : ... .. . ... ... ... : E-6 00 C ... ... ... : D#2 00 . P8F : ... .. . ... : ... .. . ... ...
ROW 53 : A-1 00 F P80 V03 ... : A-5 00 C P80 ... ... : A-4 00 . P7F : ... .. 8 ... : ... .. . ... ...
ROW 54 : ... .. . ... V01 ... : C#6 00 C P7F ... ... : ... .. . ... : ... .. 7 ... : ... .. . ... ...
ROW 55 : ... .. E ... V02 ... : E-6 00 B ... ... ... : ... .. . ... : ... .. . ... : ... .. . ... ...
ROW 56 : ... .. . ... ... ... : A-5 00 B P80 ... ... : ... .. . ... : ... .. 6 ... : ... .. . ... ...
ROW 57 : ... .. D ... ... ... : C#6 00 B P7F ... ... : ... .. . ... : ... .. 5 ... : ... .. . ... ...
ROW 58 : ... .. C ... ... ... : E-6 00 A ... ... ... : ... .. . ... : ... .. . ... : ... .. . ... ...
ROW 59 : ... .. . ... ... ... : A-5 00 A P80 ... ... : ... .. . ... : ... .. 4 ... : ... .. . ... ...
ROW 5A : ... .. B ... ... ... : C#6 00 A P7F ... ... : ... .. . ... : ... .. . ... : ... .. . ... ...
ROW 5B : ... .. A ... ... ... : E-6 00 9 ... ... ... : ... .. . ... : ... .. 3 ... : ... .. . ... ...
ROW 5C : ... .. . ... ... ... : A-5 00 9 P80 ... ... : ... .. . ... : ... .. 2 ... : ... .. . ... ...
ROW 5D : ... .. 9 ... ... ... : C#6 00 9 P7F ... ... : ... .. . ... : ... .. . ... : ... .. . ... ...
ROW 5E : ... .. . ... ... ... : E-6 00 8 ... ... ... : ... .. . ... : ... .. 1 ... : ... .. . ... ...
ROW 5F : ... .. F ... V03 ... : A-4 00 F ... ... ... : D#4 00 . P84 : 0-# 00 F V01 : ... .. . ... ...
ROW 60 : ... .. . ... V01 ... : C#5 00 F P80 ... ... : B-3 00 . P82 : ... .. . ... : ... .. . ... ...
ROW 61 : ... .. E ... V02 ... : E-5 00 F P7F ... ... : G#3 00 . P7D : ... .. E V00 : ... .. . ... ...
ROW 62 : ... .. . ... ... ... : A-4 00 F ... ... ... : F-3 00 . P80 : ... .. . ... : ... .. . ... ...
ROW 63 : ... .. D ... ... ... : C#5 00 E P80 ... ... : D#3 00 . P78 : ... .. D ... : ... .. . ... ...
ROW 64 : ... .. C ... ... ... : E-5 00 E P7F ... ... : C-3 00 . P8C : ... .. C ... : ... .. . ... ...
ROW 65 : ... .. . ... ... ... : A-4 00 E ... ... ... : B-2 00 . P75 : ... .. . ... : ... .. . ... ...
ROW 66 : ... .. B ... ... ... : C#5 00 D P80 ... ... : A-2 00 . P7C : ... .. B ... : ... .. . ... ...
ROW 67 : ... .. A ... ... ... : E-5 00 D P7F ... ... : G-2 00 . P8B : ... .. A ... : ... .. . ... ...
ROW 68 : ... .. . ... ... ... : A-4 00 D ... ... ... : F#2 00 . P7D : ... .. . ... : ... .. . ... ...
ROW 69 : ... .. 9 ... ... ... : C#5 00 C P80 ... ... : F-2 00 . P71 : ... .. 9 ... : ... .. . ... ...
ROW 6A : ... .. . ... ... ... : E-5 00 C P7F ... ... : D#2 00 . P8F : ... .. . ... : ... .. . ... ...
ROW 6B : ... .. F ... V03 ... : A-4 00 C ... ... ... : A-4 00 . P7F : ... .. 8 ... : ... .. . ... ...
ROW 6C : ... .. . ... V01 ... : C#5 00 C P80 ... ... : ... .. . ... : ... .. 7 ... : ... .. . ... ...
ROW 6D : ... .. E ... V02 ... : E-5 00 B P7F ... ... : ... .. . ... : ... .. . ... : ... .. . ... ...
ROW 6E : ... .. . ... ... ... : A-4 00 B ... ... ... : ... .. . ... : ... .. 6 ... : ... .. . ... ...
ROW 6F : ... .. D ... ... ... : C#5 00 B P80 ... ... : ... .. . ... : ... .. 5 ... : ... .. . ... ...
ROW 70 : ... .. C ... ... ... : E-5 00 A P7F ... ... : ... .. . ... : ... .. . ... : ... .. . ... ...
ROW 71 : ... .. . ... ... ... : A-4 00 A ... ... ... : ... .. . ... : ... .. 4 ... : ... .. . ... ...
ROW 72 : ... .. B ... ... ... : C#5 00 A P80 ... ... : ... .. . ... : ... .. . ... : ... .. . ... ...
ROW 73 : ... .. A ... ... ... : E-5 00 9 P7F ... ... : ... .. . ... : ... .. 3 ... : ... .. . ... ...
ROW 74 : ... .. . ... ... ... : A-4 00 9 ... ... ... : ... .. . ... : ... .. 2 ... : ... .. . ... ...
ROW 75 : ... .. 9 ... ... ... : C#5 00 9 P80 ... ... : ... .. . ... : ... .. . ... : ... .. . ... ...
ROW 76 : ... .. . ... ... ... : E-5 00 8 P7F ... ... : ... .. . ... : ... .. 1 ... : ... .. . ... ...
ROW 77 : A-2 00 F P7F V03 ... : A-3 00 F ... ... ... : D#4 00 . P84 : 4-# 00 F V01 : ... .. . ... ...
ROW 78 : ... .. . ... V01 ... : C#4 00 F P80 ... ... : B-3 00 . P82 : ... .. . ... : ... .. . ... ...
ROW 79 : ... .. E ... V02 ... : E-4 00 F P7F ... ... : G#3 00 . P7D : ... .. E V00 : ... .. . ... ...
ROW 7A : ... .. . ... ... ... : A-3 00 F ... ... ... : F-3 00 . P80 : ... .. . ... : ... .. . ... ...
ROW 7B : ... .. D ... ... ... : C#4 00 E P80 ... ... : D#3 00 . P78 : ... .. D ... : ... .. . ... ...
ROW 7C : ... .. C ... ... ... : E-4 00 E P7F ... ... : C-3 00 . P8C : ... .. C ... : ... .. . ... ...
ROW 7D : ... .. . ... ... ... : A-3 00 E ... ... ... : B-2 00 . P75 : ... .. . ... : ... .. . ... ...
ROW 7E : ... .. B ... ... ... : C#4 00 D P80 ... ... : A-2 00 . P7C : ... .. B ... : ... .. . ... ...
ROW 7F : ... .. A ... ... ... : E-4 00 D P7F ... ... : G-2 00 . P8B : ... .. A ... : ... .. . ... ...
ROW 80 : ... .. . ... ... ... : A-3 00 D ... ... ... : F#2 00 . P7D : ... .. . ... : ... .. . ... ...
ROW 81 : ... .. 9 ... ... ... : C#4 00 C P80 ... ... : F-2 00 . P71 : ... .. 9 ... : ... .. . ... ...
ROW 82 : ... .. . ... ... ... : E-4 00 C P7F ... ... : D#2 00 . P8F : ... .. . ... : ... .. . ... ...
ROW 83 : A-1 00 F P80 V03 ... : A-3 00 C ... ... ... : A-4 00 . P7F : ... .. 8 ... : ... .. . ... ...
ROW 84 : ... .. . ... V01 ... : C#4 00 C P80 ... ... : ... .. . ... : ... .. 7 ... : ... .. . ... ...
ROW 85 : ... .. E ... V02 ... : E-4 00 B P7F ... ... : ... .. . ... : ... .. . ... : ... .. . ... ...
ROW 86 : ... .. . ... ... ... : A-3 00 B ... ... ... : ... .. . ... : ... .. 6 ... : ... .. . ... ...
ROW 87 : ... .. D ... ... ... : C#4 00 B P80 ... ... : ... .. . ... : ... .. 5 ... : ... .. . ... ...
ROW 88 : ... .. C ... ... ... : E-4 00 A P7F ... ... : ... .. . ... : ... .. . ... : ... .. . ... ...
ROW 89 : ... .. . ... ... ... : A-3 00 A ... ... ... : ... .. . ... : ... .. 4 ... : ... .. . ... ...
ROW 8A : ... .. B ... ... ... : C#4 00 A P80 ... ... : ... .. . ... : ... .. . ... : ... .. . ... ...
ROW 8B : ... .. A ... ... ... : E-4 00 9 P7F ... ... : ... .. . ... : ... .. 3 ... : ... .. . ... ...
ROW 8C : ... .. . ... ... ... : A-3 00 9 ... ... ... : ... .. . ... : ... .. 2 ... : ... .. . ... ...
ROW 8D : ... .. 9 ... ... ... : C#4 00 9 P80 ... ... : ... .. . ... : ... .. . ... : ... .. . ... ...
ROW 8E : ... .. . ... ... ... : E-4 00 8 P7F ... ... : ... .. . ... : ... .. 1 ... : ... .. . ... ...
ROW 8F : G-1 00 F ... V03 ... : G-2 00 F P80 ... ... : D#4 00 . P84 : 0-# 00 F V01 : ... .. . ... ...
ROW 90 : ... .. . ... V01 ... : B-2 00 F ... ... ... : B-3 00 . P82 : ... .. . ... : ... .. . ... ...
ROW 91 : ... .. E ... V02 ... : D-3 00 F P7F ... ... : G#3 00 . P7D : ... .. E V00 : ... .. . ... ...
ROW 92 : ... .. . ... ... ... : G-2 00 F P80 ... ... : F-3 00 . P80 : ... .. . ... : ... .. . ... ...
ROW 93 : ... .. D ... ... ... : B-2 00 E ... ... ... : D#3 00 . P78 : ... .. D ... : ... .. . ... ...
ROW 94 : ... .. C ... ... ... : D-3 00 E P7F ... ... : C-3 00 . P8C : ... .. C ... : ... .. . ... ...
ROW 95 : ... .. . ... ... ... : G-2 00 E P80 ... ... : B-2 00 . P75 : ... .. . ... : ... .. . ... ...
ROW 96 : ... .. B ... ... ... : B-2 00 D ... ... ... : A-2 00 . P7C : ... .. B ... : ... .. . ... ...
ROW 97 : ... .. A ... ... ... : D-3 00 D P7F ... ... : G-2 00 . P8B : ... .. A ... : ... .. . ... ...
ROW 98 : ... .. . ... ... ... : G-2 00 D P80 ... ... : F#2 00 . P7D : ... .. . ... : ... .. . ... ...
ROW 99 : ... .. 9 ... ... ... : B-2 00 C ... ... ... : F-2 00 . P71 : ... .. 9 ... : ... .. . ... ...
ROW 9A : ... .. . ... ... ... : D-3 00 C P7F ... ... : D#2 00 . P8F : ... .. . ... : ... .. . ... ...
ROW 9B : ... .. F ... V03 ... : G-2 00 C P80 ... ... : G-4 00 . P80 : ... .. 8 ... : ... .. . ... ...
ROW 9C : ... .. . ... V01 ... : B-2 00 C ... ... ... : ... .. . ... : ... .. 7 ... : ... .. . ... ...
ROW 9D : ... .. E ... V02 ... : D-3 00 B P7F ... ... : ... .. . ... : ... .. . ... : ... .. . ... ...
ROW 9E : ... .. . ... ... ... : G-2 00 B P80 ... ... : ... .. . ... : ... .. 6 ... : ... .. . ... ...
ROW 9F : ... .. D ... ... ... : B-2 00 B ... ... ... : ... .. . ... : ... .. 5 ... : ... .. . ... ...
ROW A0 : ... .. C ... ... ... : D-3 00 A P7F ... ... : ... .. . ... : ... .. . ... : ... .. . ... ...
ROW A1 : ... .. . ... ... ... : G-2 00 A P80 ... ... : ... .. . ... : ... .. 4 ... : ... .. . ... ...
ROW A2 : ... .. B ... ... ... : B-2 00 A ... ... ... : ... .. . ... : ... .. . ... : ... .. . ... ...
ROW A3 : ... .. A ... ... ... : D-3 00 9 P7F ... ... : ... .. . ... : ... .. 3 ... : ... .. . ... ...
ROW A4 : ... .. . ... ... ... : G-2 00 9 P80 ... ... : ... .. . ... : ... .. 2 ... : ... .. . ... ...
ROW A5 : ... .. 9 ... ... ... : B-2 00 9 ... ... ... : ... .. . ... : ... .. . ... : ... .. . ... ...
ROW A6 : ... .. . ... ... ... : D-3 00 8 P7F ... ... : ... .. . ... : ... .. 1 ... : ... .. . ... ...
ROW A7 : G-2 00 F ... V03 ... : G-3 00 F ... ... ... : D#4 00 . P84 : 4-# 00 F V01 : ... .. . ... ...
ROW A8 : ... .. . ... V01 ... : B-3 00 F ... ... ... : B-3 00 . P82 : ... .. . ... : ... .. . ... ...
ROW A9 : ... .. E ... V02 ... : D-4 00 F ... ... ... : G#3 00 . P7D : ... .. E V00 : ... .. . ... ...
ROW AA : ... .. . ... ... ... : G-3 00 F ... ... ... : F-3 00 . P80 : ... .. . ... : ... .. . ... ...
ROW AB : ... .. D ... ... ... : B-3 00 E ... ... ... : D#3 00 . P78 : ... .. D ... : ... .. . ... ...
ROW AC : ... .. C ... ... ... : D-4 00 E ... ... ... : C-3 00 . P8C : ... .. C ... : ... .. . ... ...
ROW AD : ... .. . ... ... ... : G-3 00 E ... ... ... : B-2 00 . P75 : ... .. . ... : ... .. . ... ...
ROW AE : ... .. B ... ... ... : B-3 00 D ... ... ... : A-2 00 . P7C : ... .. B ... : ... .. . ... ...
ROW AF : ... .. A ... ... ... : D-4 00 D ... ... ... : G-2 00 . P8B : ... .. A ... : ... .. . ... ...
ROW B0 : ... .. . ... ... ... : G-3 00 D ... ... ... : F#2 00 . P7D : ... .. . ... : ... .. . ... ...
ROW B1 : ... .. 9 ... ... ... : B-3 00 C ... ... ... : F-2 00 . P71 : ... .. 9 ... : ... .. . ... ...
ROW B2 : ... .. . ... ... ... : D-4 00 C ... ... ... : D#2 00 . P8F : ... .. . ... : ... .. . ... ...
ROW B3 : G-1 00 F ... V03 ... : G-3 00 C ... ... ... : G-4 00 . P80 : ... .. 8 ... : ... .. . ... ...
ROW B4 : ... .. . ... V01 ... : B-3 00 C ... ... ... : ... .. . ... : ... .. 7 ... : ... .. . ... ...
ROW B5 : ... .. E ... V02 ... : D-4 00 B ... ... ... : ... .. . ... : ... .. . ... : ... .. . ... ...
ROW B6 : ... .. . ... ... ... : G-3 00 B ... ... ... : ... .. . ... : ... .. 6 ... : ... .. . ... ...
ROW B7 : ... .. D ... ... ... : B-3 00 B ... ... ... : ... .. . ... : ... .. 5 ... : ... .. . ... ...
ROW B8 : ... .. C ... ... ... : D-4 00 A ... ... ... : ... .. . ... : ... .. . ... : ... .. . ... ...
ROW B9 : ... .. . ... ... ... : G-3 00 A ... ... ... : ... .. . ... : ... .. 4 ... : ... .. . ... ...
ROW BA : ... .. B ... ... ... : B-3 00 A ... ... ... : ... .. . ... : ... .. . ... : ... .. . ... ...
ROW BB : ... .. A ... ... ... : D-4 00 9 ... ... ... : ... .. . ... : ... .. 3 ... : ... .. . ... ...
ROW BC : ... .. . ... ... ... : G-3 00 9 ... ... ... : ... .. . ... : ... .. 2 ... : ... .. . ... ...
ROW BD : ... .. 9 ... ... ... : B-3 00 9 ... ... ... : ... .. . ... : ... .. . ... : ... .. . ... ...
ROW BE : ... .. . ... ... ... : D-4 00 8 ... ... ... : ... .. . ... : ... .. 1 ... : ... .. . ... ...
ROW BF : A-1 00 F ... V03 ... : A-2 00 F ... ... ... : D#4 00 . P84 : 0-# 00 F V01 : ... .. . ... ...
ROW C0 : ... .. . ... V01 ... : C#3 00 F P80 ... ... : B-3 00 . P82 : ... .. . ... : ... .. . ... ...
ROW C1 : ... .. E ... V02 ... : E-3 00 F P7E ... ... : G#3 00 . P7D : ... .. E V00 : ... .. . ... ...
ROW C2 : ... .. . ... ... ... : A-2 00 F P7F ... ... : F-3 00 . P80 : ... .. . ... : ... .. . ... ...
ROW C3 : ... .. D ... ... ... : C#3 00 E P80 ... ... : D#3 00 . P78 : ... .. D ... : ... .. . ... ...
ROW C4 : ... .. C ... ... ... : E-3 00 E P7E ... ... : C-3 00 . P8C : ... .. C ... : ... .. . ... ...
ROW C5 : ... .. . ... ... ... : A-2 00 E P7F ... ... : B-2 00 . P75 : ... .. . ... : ... .. . ... ...
ROW C6 : ... .. B ... ... ... : C#3 00 D P80 ... ... : A-2 00 . P7C : ... .. B ... : ... .. . ... ...
ROW C7 : ... .. A ... ... ... : E-3 00 D P7E ... ... : G-2 00 . P8B : ... .. A ... : ... .. . ... ...
ROW C8 : ... .. . ... ... ... : A-2 00 D P7F ... ... : F#2 00 . P7D : ... .. . ... : ... .. . ... ...
ROW C9 : ... .. 9 ... ... ... : C#3 00 C P80 ... ... : F-2 00 . P71 : ... .. 9 ... : ... .. . ... ...
ROW CA : ... .. . ... ... ... : E-3 00 C P7E ... ... : D#2 00 . P8F : ... .. . ... : ... .. . ... ...
ROW CB : ... .. F ... V03 ... : A-2 00 C P7F ... ... : A-4 00 . P7F : ... .. 8 ... : ... .. . ... ...
ROW CC : ... .. . ... V01 ... : C#3 00 C P80 ... ... : ... .. . ... : ... .. 7 ... : ... .. . ... ...
ROW CD : ... .. E ... V02 ... : E-3 00 B P7E ... ... : ... .. . ... : ... .. . ... : ... .. . ... ...
ROW CE : ... .. . ... ... ... : A-2 00 B P7F ... ... : ... .. . ... : ... .. 6 ... : ... .. . ... ...
ROW CF : ... .. D ... ... ... : C#3 00 B P80 ... ... : ... .. . ... : ... .. 5 ... : ... .. . ... ...
ROW D0 : ... .. C ... ... ... : E-3 00 A P7E ... ... : ... .. . ... : ... .. . ... : ... .. . ... ...
ROW D1 : ... .. . ... ... ... : A-2 00 A P7F ... ... : ... .. . ... : ... .. 4 ... : ... .. . ... ...
ROW D2 : ... .. B ... ... ... : C#3 00 A P80 ... ... : ... .. . ... : ... .. . ... : ... .. . ... ...
ROW D3 : ... .. A ... ... ... : E-3 00 9 P7E ... ... : ... .. . ... : ... .. 3 ... : ... .. . ... ...
ROW D4 : ... .. . ... ... ... : A-2 00 9 P7F ... ... : ... .. . ... : ... .. 2 ... : ... .. . ... ...
ROW D5 : ... .. 9 ... ... ... : C#3 00 9 P80 ... ... : ... .. . ... : ... .. . ... : ... .. . ... ...
ROW D6 : ... .. . ... ... ... : E-3 00 8 P7E ... ... : ... .. . ... : ... .. 1 ... : ... .. . ... ...
ROW D7 : A-2 00 F P7F V03 ... : A-3 00 F P7F ... ... : D#4 00 . P84 : 4-# 00 F V01 : ... .. . ... ...
ROW D8 : ... .. . ... V01 ... : C#4 00 F P80 ... ... : B-3 00 . P82 : ... .. . ... : ... .. . ... ...
ROW D9 : ... .. E ... V02 ... : E-4 00 F P7F ... ... : G#3 00 . P7D : ... .. E V00 : ... .. . ... ...
ROW DA : ... .. . ... ... ... : A-3 00 F ... ... ... : F-3 00 . P80 : ... .. . ... : ... .. . ... ...
ROW DB : ... .. D ... ... ... : C#4 00 E P80 ... ... : D#3 00 . P78 : ... .. D ... : ... .. . ... ...
ROW DC : ... .. C ... ... ... : E-4 00 E P7F ... ... : C-3 00 . P8C : ... .. C ... : ... .. . ... ...
ROW DD : ... .. . ... ... ... : A-3 00 E ... ... ... : B-2 00 . P75 : ... .. . ... : ... .. . ... ...
ROW DE : ... .. B ... ... ... : C#4 00 D P80 ... ... : A-2 00 . P7C : ... .. B ... : ... .. . ... ...
ROW DF : ... .. A ... ... ... : E-4 00 D P7F ... ... : G-2 00 . P8B : ... .. A ... : ... .. . ... ...
ROW E0 : ... .. . ... ... ... : A-3 00 D ... ... ... : F#2 00 . P7D : ... .. . ... : ... .. . ... ...
ROW E1 : ... .. 9 ... ... ... : C#4 00 C P80 ... ... : F-2 00 . P71 : ... .. 9 ... : ... .. . ... ...
ROW E2 : ... .. . ... ... ... : E-4 00 C P7F ... ... : D#2 00 . P8F : ... .. . ... : ... .. . ... ...
ROW E3 : A-1 00 F P80 V03 ... : A-3 00 C ... ... ... : A-4 00 . P7F : ... .. 8 ... : ... .. . ... ...
ROW E4 : ... .. . ... V01 ... : C#4 00 C P80 ... ... : ... .. . ... : ... .. 7 ... : ... .. . ... ...
ROW E5 : ... .. E ... V02 ... : E-4 00 B P7F ... ... : ... .. . ... : ... .. . ... : ... .. . ... ...
ROW E6 : ... .. . ... ... ... : A-3 00 B ... ... ... : ... .. . ... : ... .. 6 ... : ... .. . ... ...
ROW E7 : ... .. D ... ... ... : C#4 00 B P80 ... ... : ... .. . ... : ... .. 5 ... : ... .. . ... ...
ROW E8 : ... .. C ... ... ... : E-4 00 A P7F ... ... : ... .. . ... : ... .. . ... : ... .. . ... ...
ROW E9 : ... .. . ... ... ... : A-3 00 A ... ... ... : ... .. . ... : ... .. 4 ... : ... .. . ... ...
ROW EA : ... .. B ... ... ... : C#4 00 A P80 ... ... : ... .. . ... : ... .. . ... : ... .. . ... ...
ROW EB : ... .. A ... ... ... : E-4 00 9 P7F ... ... : ... .. . ... : ... .. 3 ... : ... .. . ... ...
ROW EC : ... .. . ... ... ... : A-3 00 9 ... ... ... : ... .. . ... : ... .. 2 ... : ... .. . ... ...
ROW ED : ... .. 9 ... ... ... : C#4 00 9 P80 ... ... : ... .. . ... : ... .. . ... : ... .. . ... ...
ROW EE : ... .. . ... ... ... : E-4 00 8 P7F ... ... : ... .. . ... : ... .. 1 ... : ... .. . ... ...
ROW EF : ... .. F ... V03 ... : A-4 00 F ... ... ... : D#4 00 . P84 : 0-# 00 F V01 : ... .. . ... ...
ROW F0 : ... .. . ... V01 ... : C#5 00 F P80 ... ... : B-3 00 . P82 : ... .. . ... : ... .. . ... ...
ROW F1 : ... .. E ... V02 ... : E-5 00 F P7F ... ... : G#3 00 . P7D : ... .. E V00 : ... .. . ... ...
ROW F2 : ... .. . ... ... ... : A-4 00 F ... ... ... : F-3 00 . P80 : ... .. . ... : ... .. . ... ...
ROW F3 : ... .. D ... ... ... : C#5 00 E P80 ... ... : D#3 00 . P78 : ... .. D ... : ... .. . ... ...
ROW F4 : ... .. C ... ... ... : E-5 00 E P7F ... ... : C-3 00 . P8C : ... .. C ... : ... .. . ... ...
ROW F5 : ... .. . ... ... ... : A-4 00 E ... ... ... : B-2 00 . P75 : ... .. . ... : ... .. . ... ...
ROW F6 : ... .. B ... ... ... : C#5 00 D P80 ... ... : A-2 00 . P7C : ... .. B ... : ... .. . ... ...
ROW F7 : ... .. A ... ... ... : E-5 00 D P7F ... ... : G-2 00 . P8B : ... .. A ... : ... .. . ... ...
ROW F8 : ... .. . ... ... ... : A-4 00 D ... ... ... : F#2 00 . P7D : ... .. . ... : ... .. . ... ...
ROW F9 : ... .. 9 ... ... ... : C#5 00 C P80 ... ... : F-2 00 . P71 : ... .. 9 ... : ... .. . ... ...
ROW FA : ... .. . ... ... ... : E-5 00 C P7F ... ... : D#2 00 . P8F : ... .. . ... : ... .. . ... ...
ROW FB : ... .. F ... V03 ... : A-4 00 C ... ... ... : A-4 00 . P7F : ... .. 8 ... : ... .. . ... ...
ROW FC : ... .. . ... V01 ... : C#5 00 C P80 ... ... : ... .. . ... : ... .. 7 ... : ... .. . ... ...
ROW FD : ... .. E ... V02 ... : E-5 00 B P7F ... ... : ... .. . ... : ... .. . ... : ... .. . ... ...
ROW FE : ... .. . ... ... ... : A-4 00 B ... ... ... : ... .. . ... : ... .. 6 ... : ... .. . ... ...
ROW FF : ... .. D ... ... ... : C#5 00 B P80 ... ... : ... .. . ... : ... .. 5 ... : ... .. . ... ...

PATTERN 19
ROW 00 : ... .. C ... ... ... : E-5 00 A P7F ... ... : ... .. . ... : ... .. . ... : ... .. . ... ...
ROW 01 : ... .. . ... ... ... : A-4 00 A ... ... ... : ... .. . ... : ... .. 4 ... : ... .. . ... ...
ROW 02 : ... .. B ... ... ... : C#5 00 A P80 ... ... : ... .. . ... : ... .. . ... : ... .. . ... ...
ROW 03 : ... .. A ... ... ... : E-5 00 9 P7F ... ... : ... .. . ... : ... .. 3 ... : ... .. . ... ...
ROW 04 : ... .. . ... ... ... : A-4 00 9 ... ... ... : ... .. . ... : ... .. 2 ... : ... .. . ... ...
ROW 05 : ... .. 9 ... ... ... : C#5 00 9 P80 ... ... : ... .. . ... : ... .. . ... : ... .. . ... ...
ROW 06 : ... .. . ... ... ... : E-5 00 8 P7F ... ... : ... .. . ... : ... .. 1 ... : ... .. . ... ...
ROW 07 : A-2 00 F P7F V03 ... : A-5 00 F P80 ... ... : D#4 00 . P84 : 4-# 00 F V01 : ... .. . ... ...
ROW 08 : ... .. . ... V01 ... : C#6 00 F P7F ... ... : B-3 00 . P82 : ... .. . ... : ... .. . ... ...
ROW 09 : ... .. E ... V02 ... : E-6 00 F ... ... ... : G#3 00 . P7D : ... .. E V00 : ... .. . ... ...
ROW 0A : ... .. . ... ... ... : A-5 00 F P80 ... ... : F-3 00 . P80 : ... .. . ... : ... .. . ... ...
ROW 0B : ... .. D ... ... ... : C#6 00 E P7F ... ... : D#3 00 . P78 : ... .. D ... : ... .. . ... ...
ROW 0C : ... .. C ... ... ... : E-6 00 E ... ... ... : C-3 00 . P8C : ... .. C ... : ... .. . ... ...
ROW 0D : ... .. . ... ... ... : A-5 00 E P80 ... ... : B-2 00 . P75 : ... .. . ... : ... .. . ... ...
ROW 0E : ... .. B ... ... ... : C#6 00 D P7F ... ... : A-2 00 . P7C : ... .. B ... : ... .. . ... ...
ROW 0F : ... .. A ... ... ... : E-6 00 D ... ... ... : G-2 00 . P8B : ... .. A ... : ... .. . ... ...
ROW 10 : ... .. . ... ... ... : A-5 00 D P80 ... ... : F#2 00 . P7D : ... .. . ... : ... .. . ... ...
ROW 11 : ... .. 9 ... ... ... : C#6 00 C P7F ... ... : F-2 00 . P71 : ... .. 9 ... : ... .. . ... ...
ROW 12 : ... .. . ... ... ... : E-6 00 C ... ... ... : D#2 00 . P8F : ... .. . ... : ... .. . ... ...
ROW 13 : A-1 00 F P80 V03 ... : A-5 00 C P80 ... ... : A-4 00 . P7F : ... .. 8 ... : ... .. . ... ...
ROW 14 : ... .. . ... V01 ... : C#6 00 C P7F ... ... : ... .. . ... : ... .. 7 ... : ... .. . ... ...
ROW 15 : ... .. E ... V02 ... : E-6 00 B ... ... ... : ... .. . ... : ... .. . ... : ... .. . ... ...
ROW 16 : ... .. . ... ... ... : A-5 00 B P80 ... ... : ... .. . ... : ... .. 6 ... : ... .. . ... ...
ROW 17 : ... .. D ... ... ... : C#6 00 B P7F ... ... : ... .. . ... : ... .. 5 ... : ... .. . ... ...
ROW 18 : ... .. C ... ... ... : E-6 00 A ... ... ... : ... .. . ... : ... .. . ... : ... .. . ... ...
ROW 19 : ... .. . ... ... ... : A-5 00 A P80 ... ... : ... .. . ... : ... .. 4 ... : ... .. . ... ...
ROW 1A : ... .. B ... ... ... : C#6 00 A P7F ... ... : ... .. . ... : ... .. . ... : ... .. . ... ...
ROW 1B : ... .. A ... ... ... : E-6 00 9 ... ... ... : ... .. . ... : ... .. 3 ... : ... .. . ... ...
ROW 1C : ... .. . ... ... ... : A-5 00 9 P80 ... ... : ... .. . ... : ... .. 2 ... : ... .. . ... ...
ROW 1D : ... .. 9 ... ... ... : C#6 00 9 P7F ... ... : ... .. . ... : ... .. . ... : ... .. . ... ...
ROW 1E : ... .. . ... ... ... : E-6 00 8 ... ... ... : ... .. . ... : ... .. 1 ... : ... .. . ... ...
ROW 1F : ... .. F ... V03 ... : A-4 00 F ... ... ... : D#4 00 . P84 : 0-# 00 F V01 : ... .. . ... ...
ROW 20 : ... .. . ... V01 ... : C#5 00 F P80 ... ... : B-3 00 . P82 : ... .. . ... : ... .. . ... ...
ROW 21 : ... .. E ... V02 ... : E-5 00 F P7F ... ... : G#3 00 . P7D : ... .. E V00 : ... .. . ... ...
ROW 22 : ... .. . ... ... ... : A-4 00 F ... ... ... : F-3 00 . P80 : ... .. . ... : ... .. . ... ...
ROW 23 : ... .. D ... ... ... : C#5 00 E P80 ... ... : D#3 00 . P78 : ... .. D ... : ... .. . ... ...
ROW 24 : ... .. C ... ... ... : E-5 00 E P7F ... ... : C-3 00 . P8C : ... .. C ... : ... .. . ... ...
ROW 25 : ... .. . ... ... ... : A-4 00 E ... ... ... : B-2 00 . P75 : ... .. . ... : ... .. . ... ...
ROW 26 : ... .. B ... ... ... : C#5 00 D P80 ... ... : A-2 00 . P7C : ... .. B ... : ... .. . ... ...
ROW 27 : ... .. A ... ... ... : E-5 00 D P7F ... ... : G-2 00 . P8B : ... .. A ... : ... .. . ... ...
ROW 28 : ... .. . ... ... ... : A-4 00 D ... ... ... : F#2 00 . P7D : ... .. . ... : ... .. . ... ...
ROW 29 : ... .. 9 ... ... ... : C#5 00 C P80 ... ... : F-2 00 . P71 : ... .. 9 ... : ... .. . ... ...
ROW 2A : ... .. . ... ... ... : E-5 00 C P7F ... ... : D#2 00 . P8F : ... .. . ... : ... .. . ... ...
ROW 2B : ... .. F ... V03 ... : A-4 00 C ... ... ... : A-4 00 . P7F : ... .. 8 ... : ... .. . ... ...
ROW 2C : ... .. . ... V01 ... : C#5 00 C P80 ... ... : ... .. . ... : ... .. 7 ... : ... .. . ... ...
ROW 2D : ... .. E ... V02 ... : E-5 00 B P7F ... ... : ... .. . ... : ... .. . ... : ... .. . ... ...
ROW 2E : ... .. . ... ... ... : A-4 00 B ... ... ... : ... .. . ... : ... .. 6 ... : ... .. . ... ...
ROW 2F : ... .. D ... ... ... : C#5 00 B P80 ... ... : ... .. . ... : ... .. 5 ... : ... .. . ... ...
ROW 30 : ... .. C ... ... ... : E-5 00 A P7F ... ... : ... .. . ... : ... .. . ... : ... .. . ... ...
ROW 31 : ... .. . ... ... ... : A-4 00 A ... ... ... : ... .. . ... : ... .. 4 ... : ... .. . ... ...
ROW 32 : ... .. B ... ... ... : C#5 00 A P80 ... ... : ... .. . ... : ... .. . ... : ... .. . ... ...
ROW 33 : ... .. A ... ... ... : E-5 00 9 P7F ... ... : ... .. . ... : ... .. 3 ... : ... .. . ... ...
ROW 34 : ... .. . ... ... ... : A-4 00 9 ... ... ... : ... .. . ... : ... .. 2 ... : ... .. . ... ...
ROW 35 : ... .. 9 ... ... ... : C#5 00 9 P80 ... ... : ... .. . ... : ... .. . ... : ... .. . ... ...
ROW 36 : ... .. . ... ... ... : E-5 00 8 P7F ... ... : ... .. . ... : ... .. 1 ... : ... .. . ... ...
ROW 37 : A-2 00 F P7F V03 ... : A-3 00 F ... ... ... : D#4 00 . P84 : 4-# 00 F V01 : ... .. . ... ...
ROW 38 : ... .. . ... V01 ... : C#4 00 F P80 ... ... : B-3 00 . P82 : ... .. . ... : ... .. . ... ...
ROW 39 : ... .. E ... V02 ... : E-4 00 F P7F ... ... : G#3 00 . P7D : ... .. E V00 : ... .. . ... ...
ROW 3A : ... .. . ... ... ... : A-3 00 F ... ... ... : F-3 00 . P80 : ... .. . ... : ... .. . ... ...
ROW 3B : ... .. D ... ... ... : C#4 00 E P80 ... ... : D#3 00 . P78 : ... .. D ... : ... .. . ... ...
ROW 3C : ... .. C ... ... ... : E-4 00 E P7F ... ... : C-3 00 . P8C : ... .. C ... : ... .. . ... ...
ROW 3D : ... .. . ... ... ... : A-3 00 E ... ... ... : B-2 00 . P75 : ... .. . ... : ... .. . ... ...
ROW 3E : ... .. B ... ... ... : C#4 00 D P80 ... ... : A-2 00 . P7C : ... .. B ... : ... .. . ... ...
ROW 3F : ... .. A ... ... ... : E-4 00 D P7F ... ... : G-2 00 . P8B : ... .. A ... : ... .. . ... ...
ROW 40 : ... .. . ... ... ... : A-3 00 D ... ... ... : F#2 00 . P7D : ... .. . ... : ... .. . ... ...
ROW 41 : ... .. 9 ... ... ... : C#4 00 C P80 ... ... : F-2 00 . P71 : ... .. 9 ... : ... .. . ... ...
ROW 42 : ... .. . ... ... ... : E-4 00 C P7F ... ... : D#2 00 . P8F : ... .. . ... : ... .. . ... ...
ROW 43 : A-1 00 F P80 V03 ... : A-3 00 C ... ... ... : A-4 00 . P7F : ... .. 8 ... : ... .. . ... ...
ROW 44 : ... .. . ... V01 ... : C#4 00 C P80 ... ... : ... .. . ... : ... .. 7 ... : ... .. . ... ...
ROW 45 : ... .. E ... V02 ... : E-4 00 B P7F ... ... : ... .. . ... : ... .. . ... : ... .. . ... ...
ROW 46 : ... .. . ... ... ... : A-3 00 B ... ... ... : ... .. . ... : ... .. 6 ... : ... .. . ... ...
ROW 47 : ... .. D ... ... ... : C#4 00 B P80 ... ... : ... .. . ... : ... .. 5 ... : ... .. . ... ...
ROW 48 : ... .. C ... ... ... : E-4 00 A P7F ... ... : ... .. . ... : ... .. . ... : ... .. . ... ...
ROW 49 : ... .. . ... ... ... : A-3 00 A ... ... ... : ... .. . ... : ... .. 4 ... : ... .. . ... ...
ROW 4A : ... .. B ... ... ... : C#4 00 A P80 ... ... : ... .. . ... : ... .. . ... : ... .. . ... ...
ROW 4B : ... .. A ... ... ... : E-4 00 9 P7F ... ... : ... .. . ... : ... .. 3 ... : ... .. . ... ...
ROW 4C : ... .. . ... ... ... : A-3 00 9 ... ... ... : ... .. . ... : ... .. 2 ... : ... .. . ... ...
ROW 4D : ... .. 9 ... ... ... : C#4 00 9 P80 ... ... : ... .. . ... : ... .. . ... : ... .. . ... ...
ROW 4E : ... .. . ... ... ... : E-4 00 8 P7F ... ... : ... .. . ... : ... .. 1 ... : ... .. . ... ...
ROW 4F : G-1 00 F ... V03 ... : G-3 00 F ... ... ... : D#4 00 . P84 : ... .. F V01 : ... .. . ... ...
ROW 50 : ... .. . ... V01 ... : B-3 00 F ... ... ... : B-3 00 . P82 : ... .. . ... : ... .. . ... ...
ROW 51 : ... .. E ... V02 ... : D-4 00 F ... ... ... : G#3 00 . P7D : ... .. E V00 : ... .. . ... ...
ROW 52 : ... .. . ... ... ... : G-3 00 F ... ... ... : F-3 00 . P80 : ... .. . ... : ... .. . ... ...
ROW 53 : ... .. D ... ... ... : B-3 00 E ... ... ... : D#3 00 . P78 : ... .. D ... : ... .. . ... ...
ROW 54 : ... .. C ... ... ... : D-4 00 E ... ... ... : C-3 00 . P8C : ... .. C ... : ... .. . ... ...
ROW 55 : ... .. . ... ... ... : G-3 00 E ... ... ... : B-2 00 . P75 : ... .. . ... : ... .. . ... ...
ROW 56 : ... .. B ... ... ... : B-3 00 D ... ... ... : A-2 00 . P7C : ... .. B ... : ... .. . ... ...
ROW 57 : ... .. A ... ... ... : D-4 00 D ... ... ... : G-2 00 . P8B : ... .. A ... : ... .. . ... ...
ROW 58 : ... .. . ... ... ... : G-3 00 D ... ... ... : F#2 00 . P7D : ... .. . ... : ... .. . ... ...
ROW 59 : ... .. 9 ... ... ... : B-3 00 C ... ... ... : F-2 00 . P71 : ... .. 9 ... : ... .. . ... ...
ROW 5A : ... .. . ... ... ... : D-4 00 C ... ... ... : D#2 00 . P8F : ... .. . ... : ... .. . ... ...
ROW 5B : ... .. F ... V03 ... : G-3 00 C ... ... ... : D#4 00 . P84 : ... .. F V01 : ... .. . ... ...
ROW 5C : ... .. . ... V01 ... : B-3 00 C ... ... ... : B-3 00 . P82 : ... .. . ... : ... .. . ... ...
ROW 5D : ... .. E ... V02 ... : D-4 00 B ... ... ... : G#3 00 . P7D : ... .. E V00 : ... .. . ... ...
ROW 5E : ... .. . ... ... ... : G-3 00 B ... ... ... : F-3 00 . P80 : ... .. . ... : ... .. . ... ...
ROW 5F : ... .. D ... ... ... : B-3 00 B ... ... ... : D#3 00 . P78 : ... .. D ... : ... .. . ... ...
ROW 60 : ... .. C ... ... ... : D-4 00 A ... ... ... : C-3 00 . P8C : ... .. C ... : ... .. . ... ...
ROW 61 : ... .. . ... ... ... : G-3 00 A ... ... ... : B-2 00 . P75 : ... .. . ... : ... .. . ... ...
ROW 62 : ... .. B ... ... ... : B-3 00 A ... ... ... : A-2 00 . P7C : ... .. B ... : ... .. . ... ...
ROW 63 : ... .. A ... ... ... : D-4 00 9 ... ... ... : G-2 00 . P8B : ... .. A ... : ... .. . ... ...
ROW 64 : ... .. . ... ... ... : G-3 00 9 ... ... ... : --- .. . ... : ... .. . ... : ... .. . ... ...
ROW 65 : ... .. 9 ... ... ... : B-3 00 9 ... ... ... : ... .. . ... : ... .. 9 ... : ... .. . ... ...
ROW 66 : ... .. . ... ... ... : D-4 00 8 ... ... ... : ... .. . ... : ... .. . ... : ... .. . ... ...
ROW 67 : G-2 00 F ... V03 ... : G-2 00 F P80 ... ... : D#4 00 . P84 : ... .. F V01 : ... .. . ... ...
ROW 68 : ... .. . ... V01 ... : B-2 00 F ... ... ... : B-3 00 . P82 : ... .. . ... : ... .. . ... ...
ROW 69 : ... .. E ... V02 ... : D-3 00 F P7F ... ... : G#3 00 . P7D : ... .. E V00 : ... .. . ... ...
ROW 6A : ... .. . ... ... ... : G-2 00 F P80 ... ... : F-3 00 . P80 : ... .. . ... : ... .. . ... ...
ROW 6B : ... .. D ... ... ... : B-2 00 E ... ... ... : D#3 00 . P78 : ... .. D ... : ... .. . ... ...
ROW 6C : ... .. C ... ... ... : D-3 00 E P7F ... ... : C-3 00 . P8C : ... .. C ... : ... .. . ... ...
ROW 6D : ... .. . ... ... ... : G-2 00 E P80 ... ... : B-2 00 . P75 : ... .. . ... : ... .. . ... ...
ROW 6E : ... .. B ... ... ... : B-2 00 D ... ... ... : A-2 00 . P7C : ... .. B ... : ... .. . ... ...
ROW 6F : ... .. A ... ... ... : D-3 00 D P7F ... ... : G-2 00 . P8B : ... .. A ... : ... .. . ... ...
ROW 70 : ... .. . ... ... ... : G-2 00 D P80 ... ... : F#2 00 . P7D : ... .. . ... : ... .. . ... ...
ROW 71 : ... .. 9 ... ... ... : B-2 00 C ... ... ... : F-2 00 . P71 : ... .. 9 ... : ... .. . ... ...
ROW 72 : ... .. . ... ... ... : D-3 00 C P7F ... ... : D#2 00 . P8F : ... .. . ... : ... .. . ... ...
ROW 73 : G-1 00 F ... V03 ... : G-2 00 C P80 ... ... : D#4 00 . P84 : ... .. F V01 : ... .. . ... ...
ROW 74 : ... .. . ... V01 ... : B-2 00 C ... ... ... : B-3 00 . P82 : ... .. . ... : ... .. . ... ...
ROW 75 : ... .. E ... V02 ... : D-3 00 B P7F ... ... : G#3 00 . P7D : ... .. E V00 : ... .. . ... ...
ROW 76 : ... .. . ... ... ... : G-2 00 B P80 ... ... : F-3 00 . P80 : ... .. . ... : ... .. . ... ...
ROW 77 : ... .. D ... ... ... : B-2 00 B ... ... ... : D#3 00 . P78 : ... .. D ... : ... .. . ... ...
ROW 78 : ... .. C ... ... ... : D-3 00 A P7F ... ... : C-3 00 . P8C : ... .. C ... : ... .. . ... ...
ROW 79 : ... .. . ... ... ... : G-2 00 A P80 ... ... : D#4 00 . P84 : ... .. F V01 : ... .. . ... ...
ROW 7A : ... .. B ... ... ... : B-2 00 A ... ... ... : B-3 00 . P82 : ... .. . ... : ... .. . ... ...
ROW 7B : ... .. A ... ... ... : D-3 00 9 P7F ... ... : G#3 00 . P7D : ... .. E V00 : ... .. . ... ...
ROW 7C : ... .. . ... ... ... : G-2 00 9 P80 ... ... : F-3 00 . P80 : ... .. . ... : ... .. . ... ...
ROW 7D : ... .. 9 ... ... ... : B-2 00 9 ... ... ... : D#3 00 . P78 : ... .. D ... : ... .. . ... ...
ROW 7E : ... .. . ... ... ... : D-3 00 8 P7F ... ... : C-3 00 . P8C : ... .. C ... : ... .. . ... ...
ROW 7F : A-1 00 F ... V03 ... : A#2 00 F P83 V03 ... : D#4 00 . P84 : 0-# 00 F V01 : ... .. . ... ...
ROW 80 : ... .. . ... V01 ... : G#2 00 F P8E V01 ... : B-3 00 . P82 : ... .. . ... : ... .. . ... ...
ROW 81 : ... .. E ... V02 ... : G-2 00 E P7E V02 ... : G#3 00 . P7D : ... .. E V00 : ... .. . ... ...
ROW 82 : ... .. . ... ... ... : F#2 00 E P70 ... ... : F-3 00 . P80 : ... .. . ... : ... .. . ... ...
ROW 83 : ... .. D ... ... ... : E-2 00 D P8A ... ... : D#3 00 . P78 : ... .. D ... : ... .. . ... ...
ROW 84 : ... .. C ... ... ... : D#2 00 C P82 ... ... : C-3 00 . P8C : ... .. C ... : ... .. . ... ...
ROW 85 : ... .. . ... ... ... : A#2 00 F P83 V03 ... : B-2 00 . P75 : ... .. . ... : ... .. . ... ...
ROW 86 : ... .. B ... ... ... : G#2 00 F P8E V01 ... : A-2 00 . P7C : ... .. B ... : ... .. . ... ...
ROW 87 : ... .. A ... ... ... : G-2 00 E P7E V02 ... : G-2 00 . P8B : ... .. A ... : ... .. . ... ...
ROW 88 : ... .. . ... ... ... : F#2 00 E P70 ... ... : F#2 00 . P7D : ... .. . ... : ... .. . ... ...
ROW 89 : ... .. 9 ... ... ... : E-2 00 D P8A ... ... : F-2 00 . P71 : ... .. 9 ... : ... .. . ... ...
ROW 8A : ... .. . ... ... ... : D#2 00 C P82 ... ... : D#2 00 . P8F : ... .. . ... : ... .. . ... ...
ROW 8B : ... .. F ... V03 ... : A#2 00 F P83 V03 ... : A-4 00 . P7F : ... .. 8 ... : ... .. . ... ...
ROW 8C : ... .. . ... V01 ... : G#2 00 F P8E V01 ... : ... .. . ... : ... .. 7 ... : ... .. . ... ...
ROW 8D : ... .. E ... V02 ... : G-2 00 E P7E V02 ... : ... .. . ... : ... .. . ... : ... .. . ... ...
ROW 8E : ... .. . ... ... ... : F#2 00 E P70 ... ... : ... .. . ... : ... .. 6 ... : ... .. . ... ...
ROW 8F : ... .. D ... ... ... : E-2 00 D P8A ... ... : ... .. . ... : ... .. 5 ... : ... .. . ... ...
ROW 90 : ... .. C ... ... ... : D#2 00 C P82 ... ... : ... .. . ... : ... .. . ... : ... .. . ... ...
ROW 91 : ... .. . ... ... ... : D-2 00 C P7D ... ... : ... .. . ... : ... .. 4 ... : ... .. . ... ...
ROW 92 : ... .. B ... ... ... : C#2 00 B P7A ... ... : ... .. . ... : ... .. . ... : ... .. . ... ...
ROW 93 : ... .. A ... ... ... : C-2 00 A ... ... ... : ... .. . ... : ... .. 3 ... : ... .. . ... ...
ROW 94 : ... .. . ... ... ... : B-1 00 A P7D ... ... : ... .. . ... : ... .. 2 ... : ... .. . ... ...
ROW 95 : ... .. 9 ... ... ... : A#1 00 9 P83 ... ... : ... .. . ... : ... .. . ... : ... .. . ... ...
ROW 96 : ... .. . ... ... ... : A-1 00 9 P8C ... ... : ... .. . ... : ... .. 1 ... : ... .. . ... ...
ROW 97 : A-2 00 F P7F V03 ... : A#2 00 F P83 V03 ... : D#4 00 . P84 : 4-# 00 F V01 : ... .. . ... ...
ROW 98 : ... .. . ... V01 ... : G#2 00 F P8E V01 ... : B-3 00 . P82 : ... .. . ... : ... .. . ... ...
ROW 99 : ... .. E ... V02 ... : G-2 00 E P7E V02 ... : G#3 00 . P7D : ... .. E V00 : ... .. . ... ...
ROW 9A : ... .. . ... ... ... : F#2 00 E P70 ... ... : F-3 00 . P80 : ... .. . ... : ... .. . ... ...
ROW 9B : ... .. D ... ... ... : E-2 00 D P8A ... ... : D#3 00 . P78 : ... .. D ... : ... .. . ... ...
ROW 9C : ... .. C ... ... ... : D#2 00 C P82 ... ... : C-3 00 . P8C : ... .. C ... : ... .. . ... ...
ROW 9D : ... .. . ... ... ... : A#2 00 F P83 V03 ... : B-2 00 . P75 : ... .. . ... : ... .. . ... ...
ROW 9E : ... .. B ... ... ... : G#2 00 F P8E V01 ... : A-2 00 . P7C : ... .. B ... : ... .. . ... ...
ROW 9F : ... .. A ... ... ... : G-2 00 E P7E V02 ... : G-2 00 . P8B : ... .. A ... : ... .. . ... ...
ROW A0 : ... .. . ... ... ... : F#2 00 E P70 ... ... : F#2 00 . P7D : ... .. . ... : ... .. . ... ...
ROW A1 : ... .. 9 ... ... ... : E-2 00 D P8A ... ... : F-2 00 . P71 : ... .. 9 ... : ... .. . ... ...
ROW A2 : ... .. . ... ... ... : D#2 00 C P82 ... ... : D#2 00 . P8F : ... .. . ... : ... .. . ... ...
ROW A3 : A-1 00 F P80 V03 ... : A#2 00 F P83 V03 ... : A-4 00 . P7F : ... .. 8 ... : ... .. . ... ...
ROW A4 : ... .. . ... V01 ... : G#2 00 F P8E V01 ... : ... .. . ... : ... .. 7 ... : ... .. . ... ...
ROW A5 : ... .. E ... V02 ... : G-2 00 E P7E V02 ... : ... .. . ... : ... .. . ... : ... .. . ... ...
ROW A6 : ... .. . ... ... ... : F#2 00 E P70 ... ... : ... .. . ... : ... .. 6 ... : ... .. . ... ...
ROW A7 : ... .. D ... ... ... : E-2 00 D P8A ... ... : ... .. . ... : ... .. 5 ... : ... .. . ... ...
ROW A8 : ... .. C ... ... ... : D#2 00 C P82 ... ... : ... .. . ... : ... .. . ... : ... .. . ... ...
ROW A9 : ... .. . ... ... ... : D-2 00 C P7D ... ... : ... .. . ... : ... .. 4 ... : ... .. . ... ...
ROW AA : ... .. B ... ... ... : C#2 00 B P7A ... ... : ... .. . ... : ... .. . ... : ... .. . ... ...
ROW AB : ... .. A ... ... ... : C-2 00 A ... ... ... : ... .. . ... : ... .. 3 ... : ... .. . ... ...
ROW AC : ... .. . ... ... ... : B-1 00 A P7D ... ... : ... .. . ... : ... .. 2 ... : ... .. . ... ...
ROW AD : ... .. 9 ... ... ... : A#1 00 9 P83 ... ... : ... .. . ... : ... .. . ... : ... .. . ... ...
ROW AE : ... .. . ... ... ... : A-1 00 9 P8C ... ... : ... .. . ... : ... .. 1 ... : ... .. . ... ...
ROW AF : ... .. F ... V03 ... : G#3 00 F P86 V03 ... : D#4 00 . P84 : 0-# 00 F V01 : ... .. . ... ...
ROW B0 : ... .. . ... V01 ... : F-3 00 F P89 V01 ... : B-3 00 . P82 : ... .. . ... : ... .. . ... ...
ROW B1 : ... .. E ... V02 ... : D#3 00 E P81 V02 ... : G#3 00 . P7D : ... .. E V00 : ... .. . ... ...
ROW B2 : ... .. . ... ... ... : C#3 00 E P7D ... ... : F-3 00 . P80 : ... .. . ... : ... .. . ... ...
ROW B3 : ... .. D ... ... ... : B-2 00 D P7E ... ... : D#3 00 . P78 : ... .. D ... : ... .. . ... ...
ROW B4 : ... .. C ... ... ... : A-2 00 C P85 ... ... : C-3 00 . P8C : ... .. C ... : ... .. . ... ...
ROW B5 : ... .. . ... ... ... : G#3 00 F P86 V03 ... : B-2 00 . P75 : ... .. . ... : ... .. . ... ...
ROW B6 : ... .. B ... ... ... : F-3 00 F P89 V01 ... : A-2 00 . P7C : ... .. B ... : ... .. . ... ...
ROW B7 : ... .. A ... ... ... : D#3 00 E P81 V02 ... : G-2 00 . P8B : ... .. A ... : ... .. . ... ...
ROW B8 : ... .. . ... ... ... : C#3 00 E P7D ... ... : F#2 00 . P7D : ... .. . ... : ... .. . ... ...
ROW B9 : ... .. 9 ... ... ... : B-2 00 D P7E ... ... : F-2 00 . P71 : ... .. 9 ... : ... .. . ... ...
ROW BA : ... .. . ... ... ... : A-2 00 C P85 ... ... : D#2 00 . P8F : ... .. . ... : ... .. . ... ...
ROW BB : ... .. F ... V03 ... : G#3 00 F P86 V03 ... : A-4 00 . P7F : ... .. 8 ... : ... .. . ... ...
ROW BC : ... .. . ... V01 ... : F-3 00 F P89 V01 ... : ... .. . ... : ... .. 7 ... : ... .. . ... ...
ROW BD : ... .. E ... V02 ... : D#3 00 E P81 V02 ... : ... .. . ... : ... .. . ... : ... .. . ... ...
ROW BE : ... .. . ... ... ... : C#3 00 E P7D ... ... : ... .. . ... : ... .. 6 ... : ... .. . ... ...
ROW BF : ... .. D ... ... ... : B-2 00 D P7E ... ... : ... .. . ... : ... .. 5 ... : ... .. . ... ...
ROW C0 : ... .. C ... ... ... : A-2 00 C P85 ... ... : ... .. . ... : ... .. . ... : ... .. . ... ...
ROW C1 : ... .. . ... ... ... : G#3 00 F P86 V03 ... : ... .. . ... : ... .. 4 ... : ... .. . ... ...
ROW C2 : ... .. B ... ... ... : F-3 00 F P89 V01 ... : ... .. . ... : ... .. . ... : ... .. . ... ...
ROW C3 : ... .. A ... ... ... : D#3 00 E P81 V02 ... : ... .. . ... : ... .. 3 ... : ... .. . ... ...
ROW C4 : ... .. . ... ... ... : C#3 00 E P7D ... ... : ... .. . ... : ... .. 2 ... : ... .. . ... ...
ROW C5 : ... .. 9 ... ... ... : B-2 00 D P7E ... ... : ... .. . ... : ... .. . ... : ... .. . ... ...
ROW C6 : ... .. . ... ... ... : A-2 00 C P85 ... ... : ... .. . ... : ... .. 1 ... : ... .. . ... ...
ROW C7 : A-2 00 F P7F V03 ... : G#3 00 F P86 V03 ... : D#4 00 . P84 : 4-# 00 F V01 : ... .. . ... ...
ROW C8 : ... .. . ... V01 ... : F-3 00 F P89 V01 ... : B-3 00 . P82 : ... .. . ... : ... .. . ... ...
ROW C9 : ... .. E ... V02 ... : D#3 00 E P81 V02 ... : G#3 00 . P7D : ... .. E V00 : ... .. . ... ...
ROW CA : ... .. . ... ... ... : C#3 00 E P7D ... ... : F-3 00 . P80 : ... .. . ... : ... .. . ... ...
ROW CB : ... .. D ... ... ... : B-2 00 D P7E ... ... : D#3 00 . P78 : ... .. D ... : ... .. . ... ...
ROW CC : ... .. C ... ... ... : A-2 00 C P85 ... ... : C-3 00 . P8C : ... .. C ... : ... .. . ... ...
ROW CD : ... .. . ... ... ... : G#2 00 C P74 ... ... : B-2 00 . P75 : ... .. . ... : ... .. . ... ...
ROW CE : ... .. B ... ... ... : F#2 00 B P86 ... ... : A-2 00 . P7C : ... .. B ... : ... .. . ... ...
ROW CF : ... .. A ... ... ... : F-2 00 A P7A ... ... : G-2 00 . P8B : ... .. A ... : ... .. . ... ...
ROW D0 : ... .. . ... ... ... : E-2 00 A P70 ... ... : F#2 00 . P7D : ... .. . ... : ... .. . ... ...
ROW D1 : ... .. 9 ... ... ... : D-2 00 9 P93 ... ... : F-2 00 . P71 : ... .. 9 ... : ... .. . ... ...
ROW D2 : ... .. . ... ... ... : C#2 00 9 P90 ... ... : D#2 00 . P8F : ... .. . ... : ... .. . ... ...
ROW D3 : A-1 00 F P80 V03 ... : A#2 00 F P83 V03 ... : A-4 00 . P7F : ... .. 8 ... : ... .. . ... ...
ROW D4 : ... .. . ... V01 ... : G#2 00 F P8E V01 ... : ... .. . ... : ... .. 7 ... : ... .. . ... ...
ROW D5 : ... .. E ... V02 ... : G-2 00 E P7E V02 ... : ... .. . ... : ... .. . ... : ... .. . ... ...
ROW D6 : ... .. . ... ... ... : F#2 00 E P70 ... ... : ... .. . ... : ... .. 6 ... : ... .. . ... ...
ROW D7 : ... .. D ... ... ... : E-2 00 D P8A ... ... : ... .. . ... : ... .. 5 ... : ... .. . ... ...
ROW D8 : ... .. C ... ... ... : D#2 00 C P82 ... ... : ... .. . ... : ... .. . ... : ... .. . ... ...
ROW D9 : ... .. . ... ... ... : A#2 00 F P83 V03 ... : ... .. . ... : ... .. 4 ... : ... .. . ... ...
ROW DA : ... .. B ... ... ... : G#2 00 F P8E V01 ... : ... .. . ... : ... .. . ... : ... .. . ... ...
ROW DB : ... .. A ... ... ... : G-2 00 E P7E V02 ... : ... .. . ... : ... .. 3 ... : ... .. . ... ...
ROW DC : ... .. . ... ... ... : F#2 00 E P70 ... ... : ... .. . ... : ... .. 2 ... : ... .. . ... ...
ROW DD : ... .. 9 ... ... ... : E-2 00 D P8A ... ... : ... .. . ... : ... .. . ... : ... .. . ... ...
ROW DE : ... .. . ... ... ... : D#2 00 C P82 ... ... : ... .. . ... : ... .. 1 ... : ... .. . ... ...
ROW DF : ... .. F ... V03 ... : A#2 00 F P83 V03 ... : D#4 00 . P84 : 0-# 00 F V01 : ... .. . ... ...
ROW E0 : ... .. . ... V01 ... : G#2 00 F P8E V01 ... : B-3 00 . P82 : ... .. . ... : ... .. . ... ...
ROW E1 : ... .. E ... V02 ... : G-2 00 E P7E V02 ... : G#3 00 . P7D : ... .. E V00 : ... .. . ... ...
ROW E2 : ... .. . ... ... ... : F#2 00 E P70 ... ... : F-3 00 . P80 : ... .. . ... : ... .. . ... ...
ROW E3 : ... .. D ... ... ... : E-2 00 D P8A ... ... : D#3 00 . P78 : ... .. D ... : ... .. . ... ...
ROW E4 : ... .. C ... ... ... : D#2 00 C P82 ... ... : C-3 00 . P8C : ... .. C ... : ... .. . ... ...
ROW E5 : ... .. . ... ... ... : D-2 00 C P7D ... ... : B-2 00 . P75 : ... .. . ... : ... .. . ... ...
ROW E6 : ... .. B ... ... ... : C#2 00 B P7A ... ... : A-2 00 . P7C : ... .. B ... : ... .. . ... ...
ROW E7 : ... .. A ... ... ... : C-2 00 A ... ... ... : G-2 00 . P8B : ... .. A ... : ... .. . ... ...
ROW E8 : ... .. . ... ... ... : B-1 00 A P7D ... ... : F#2 00 . P7D : ... .. . ... : ... .. . ... ...
ROW E9 : ... .. 9 ... ... ... : A#1 00 9 P83 ... ... : F-2 00 . P71 : ... .. 9 ... : ... .. . ... ...
ROW EA : ... .. . ... ... ... : A-1 00 9 P8C ... ... : D#2 00 . P8F : ... .. . ... : ... .. . ... ...
ROW EB : ... .. F ... V03 ... : A#2 00 F P83 V03 ... : A-4 00 . P7F : ... .. 8 ... : ... .. . ... ...
ROW EC : ... .. . ... V01 ... : G#2 00 F P8E V01 ... : ... .. . ... : ... .. 7 ... : ... .. . ... ...
ROW ED : ... .. E ... V02 ... : G-2 00 E P7E V02 ... : ... .. . ... : ... .. . ... : ... .. . ... ...
ROW EE : ... .. . ... ... ... : F#2 00 E P70 ... ... : ... .. . ... : ... .. 6 ... : ... .. . ... ...
ROW EF : ... .. D ... ... ... : E-2 00 D P8A ... ... : ... .. . ... : ... .. 5 ... : ... .. . ... ...
ROW F0 : ... .. C ... ... ... : D#2 00 C P82 ... ... : ... .. . ... : ... .. . ... : ... .. . ... ...
ROW F1 : ... .. . ... ... ... : D-2 00 C P7D ... ... : ... .. . ... : ... .. 4 ... : ... .. . ... ...
ROW F2 : ... .. B ... ... ... : C#2 00 B P7A ... ... : ... .. . ... : ... .. . ... : ... .. . ... ...
ROW F3 : ... .. A ... ... ... : C-2 00 A ... ... ... : ... .. . ... : ... .. 3 ... : ... .. . ... ...
ROW F4 : ... .. . ... ... ... : B-1 00 A P7D ... ... : ... .. . ... : ... .. 2 ... : ... .. . ... ...
ROW F5 : ... .. 9 ... ... ... : A#1 00 9 P83 ... ... : ... .. . ... : ... .. . ... : ... .. . ... ...
ROW F6 : ... .. . ... ... ... : A-1 00 9 P8C ... ... : ... .. . ... : ... .. 1 ... : ... .. . ... ...
ROW F7 : A-2 00 F P7F V03 ... : G#3 00 F P86 V03 ... : D#4 00 . P84 : 4-# 00 F V01 : ... .. . ... ...
ROW F8 : ... .. . ... V01 ... : F-3 00 F P89 V01 ... : B-3 00 . P82 : ... .. . ... : ... .. . ... ...
ROW F9 : ... .. E ... V02 ... : D#3 00 E P81 V02 ... : G#3 00 . P7D : ... .. E V00 : ... .. . ... ...
ROW FA : ... .. . ... ... ... : C#3 00 E P7D ... ... : F-3 00 . P80 : ... .. . ... : ... .. . ... ...
ROW FB : ... .. D ... ... ... : B-2 00 D P7E ... ... : D#3 00 . P78 : ... .. D ... : ... .. . ... ...
ROW FC : ... .. C ... ... ... : A-2 00 C P85 ... ... : C-3 00 . P8C : ... .. C ... : ... .. . ... ...
ROW FD : ... .. . ... ... ... : G#3 00 F P86 V03 ... : B-2 00 . P75 : ... .. . ... : ... .. . ... ...
ROW FE : ... .. B ... ... ... : F-3 00 F P89 V01 ... : A-2 00 . P7C : ... .. B ... : ... .. . ... ...
ROW FF : ... .. A ... ... ... : D#3 00 E P81 V02 ... : G-2 00 . P8B : ... .. A ... : ... .. . ... ...

PATTERN 1A
ROW 00 : ... .. . ... ... ... : C#3 00 E P7D ... ... : F#2 00 . P7D : ... .. . ... : ... .. . ... ...
ROW 01 : ... .. 9 ... ... ... : B-2 00 D P7E ... ... : F-2 00 . P71 : ... .. 9 ... : ... .. . ... ...
ROW 02 : ... .. . ... ... ... : A-2 00 C P85 ... ... : D#2 00 . P8F : ... .. . ... : ... .. . ... ...
ROW 03 : A-1 00 F P80 V03 ... : G#3 00 F P86 V03 ... : A-4 00 . P7F : ... .. 8 ... : ... .. . ... ...
ROW 04 : ... .. . ... V01 ... : F-3 00 F P89 V01 ... : ... .. . ... : ... .. 7 ... : ... .. . ... ...
ROW 05 : ... .. E ... V02 ... : D#3 00 E P81 V02 ... : ... .. . ... : ... .. . ... : ... .. . ... ...
ROW 06 : ... .. . ... ... ... : C#3 00 E P7D ... ... : ... .. . ... : ... .. 6 ... : ... .. . ... ...
ROW 07 : ... .. D ... ... ... : B-2 00 D P7E ... ... : ... .. . ... : ... .. 5 ... : ... .. . ... ...
ROW 08 : ... .. C ... ... ... : A-2 00 C P85 ... ... : ... .. . ... : ... .. . ... : ... .. . ... ...
ROW 09 : ... .. . ... ... ... : G#3 00 F P86 V03 ... : ... .. . ... : ... .. 4 ... : ... .. . ... ...
ROW 0A : ... .. B ... ... ... : F-3 00 F P89 V01 ... : ... .. . ... : ... .. . ... : ... .. . ... ...
ROW 0B : ... .. A ... ... ... : D#3 00 E P81 V02 ... : ... .. . ... : ... .. 3 ... : ... .. . ... ...
ROW 0C : ... .. . ... ... ... : C#3 00 E P7D ... ... : ... .. . ... : ... .. 2 ... : ... .. . ... ...
ROW 0D : ... .. 9 ... ... ... : B-2 00 D P7E ... ... : ... .. . ... : ... .. . ... : ... .. . ... ...
ROW 0E : ... .. . ... ... ... : A-2 00 C P85 ... ... : ... .. . ... : ... .. 1 ... : ... .. . ... ...
ROW 0F : G-1 00 F ... V03 ... : A#2 00 F P83 V03 ... : D#4 00 . P84 : 0-# 00 F V01 : ... .. . ... ...
ROW 10 : ... .. . ... V01 ... : G#2 00 F P8E V01 ... : B-3 00 . P82 : ... .. . ... : ... .. . ... ...
ROW 11 : ... .. E ... V02 ... : G-2 00 E P7E V02 ... : G#3 00 . P7D : ... .. E V00 : ... .. . ... ...
ROW 12 : ... .. . ... ... ... : F#2 00 E P70 ... ... : F-3 00 . P80 : ... .. . ... : ... .. . ... ...
ROW 13 : ... .. D ... ... ... : E-2 00 D P8A ... ... : D#3 00 . P78 : ... .. D ... : ... .. . ... ...
ROW 14 : ... .. C ... ... ... : D#2 00 C P82 ... ... : C-3 00 . P8C : ... .. C ... : ... .. . ... ...
ROW 15 : ... .. . ... ... ... : D-2 00 C P7D ... ... : B-2 00 . P75 : ... .. . ... : ... .. . ... ...
ROW 16 : ... .. B ... ... ... : C#2 00 B P7A ... ... : A-2 00 . P7C : ... .. B ... : ... .. . ... ...
ROW 17 : ... .. A ... ... ... : C-2 00 A ... ... ... : G-2 00 . P8B : ... .. A ... : ... .. . ... ...
ROW 18 : ... .. . ... ... ... : B-1 00 A P7D ... ... : F#2 00 . P7D : ... .. . ... : ... .. . ... ...
ROW 19 : ... .. 9 ... ... ... : A#1 00 9 P83 ... ... : F-2 00 . P71 : ... .. 9 ... : ... .. . ... ...
ROW 1A : ... .. . ... ... ... : A-1 00 9 P8C ... ... : D#2 00 . P8F : ... .. . ... : ... .. . ... ...
ROW 1B : ... .. F ... V03 ... : G#3 00 F P86 V03 ... : G-4 00 . P80 : ... .. 8 ... : ... .. . ... ...
ROW 1C : ... .. . ... V01 ... : F-3 00 F P89 V01 ... : ... .. . ... : ... .. 7 ... : ... .. . ... ...
ROW 1D : ... .. E ... V02 ... : D#3 00 E P81 V02 ... : ... .. . ... : ... .. . ... : ... .. . ... ...
ROW 1E : ... .. . ... ... ... : C#3 00 E P7D ... ... : ... .. . ... : ... .. 6 ... : ... .. . ... ...
ROW 1F : ... .. D ... ... ... : B-2 00 D P7E ... ... : ... .. . ... : ... .. 5 ... : ... .. . ... ...
ROW 20 : ... .. C ... ... ... : A-2 00 C P85 ... ... : ... .. . ... : ... .. . ... : ... .. . ... ...
ROW 21 : ... .. . ... ... ... : G#3 00 F P86 V03 ... : ... .. . ... : ... .. 4 ... : ... .. . ... ...
ROW 22 : ... .. B ... ... ... : F-3 00 F P89 V01 ... : ... .. . ... : ... .. . ... : ... .. . ... ...
ROW 23 : ... .. A ... ... ... : D#3 00 E P81 V02 ... : ... .. . ... : ... .. 3 ... : ... .. . ... ...
ROW 24 : ... .. . ... ... ... : C#3 00 E P7D ... ... : ... .. . ... : ... .. 2 ... : ... .. . ... ...
ROW 25 : ... .. 9 ... ... ... : B-2 00 D P7E ... ... : ... .. . ... : ... .. . ... : ... .. . ... ...
ROW 26 : ... .. . ... ... ... : A-2 00 C P85 ... ... : ... .. . ... : ... .. 1 ... : ... .. . ... ...
ROW 27 : G-2 00 F ... V03 ... : G#3 00 F P86 V03 ... : D#4 00 . P84 : 4-# 00 F V01 : ... .. . ... ...
ROW 28 : ... .. . ... V01 ... : F-3 00 F P89 V01 ... : B-3 00 . P82 : ... .. . ... : ... .. . ... ...
ROW 29 : ... .. E ... V02 ... : D#3 00 E P81 V02 ... : G#3 00 . P7D : ... .. E V00 : ... .. . ... ...
ROW 2A : ... .. . ... ... ... : C#3 00 E P7D ... ... : F-3 00 . P80 : ... .. . ... : ... .. . ... ...
ROW 2B : ... .. D ... ... ... : B-2 00 D P7E ... ... : D#3 00 . P78 : ... .. D ... : ... .. . ... ...
ROW 2C : ... .. C ... ... ... : A-2 00 C P85 ... ... : C-3 00 . P8C : ... .. C ... : ... .. . ... ...
ROW 2D : ... .. . ... ... ... : G#3 00 F P86 V03 ... : B-2 00 . P75 : ... .. . ... : ... .. . ... ...
ROW 2E : ... .. B ... ... ... : F-3 00 F P89 V01 ... : A-2 00 . P7C : ... .. B ... : ... .. . ... ...
ROW 2F : ... .. A ... ... ... : D#3 00 E P81 V02 ... : G-2 00 . P8B : ... .. A ... : ... .. . ... ...
ROW 30 : ... .. . ... ... ... : C#3 00 E P7D ... ... : F#2 00 . P7D : ... .. . ... : ... .. . ... ...
ROW 31 : ... .. 9 ... ... ... : B-2 00 D P7E ... ... : F-2 00 . P71 : ... .. 9 ... : ... .. . ... ...
ROW 32 : ... .. . ... ... ... : A-2 00 C P85 ... ... : D#2 00 . P8F : ... .. . ... : ... .. . ... ...
ROW 33 : G-1 00 F ... V03 ... : G#3 00 F P86 V03 ... : G-4 00 . P80 : ... .. 8 ... : ... .. . ... ...
ROW 34 : ... .. . ... V01 ... : F-3 00 F P89 V01 ... : ... .. . ... : ... .. 7 ... : ... .. . ... ...
ROW 35 : ... .. E ... V02 ... : D#3 00 E P81 V02 ... : ... .. . ... : ... .. . ... : ... .. . ... ...
ROW 36 : ... .. . ... ... ... : C#3 00 E P7D ... ... : ... .. . ... : ... .. 6 ... : ... .. . ... ...
ROW 37 : ... .. D ... ... ... : B-2 00 D P7E ... ... : ... .. . ... : ... .. 5 ... : ... .. . ... ...
ROW 38 : ... .. C ... ... ... : A-2 00 C P85 ... ... : ... .. . ... : ... .. . ... : ... .. . ... ...
ROW 39 : ... .. . ... ... ... : G#3 00 F P86 V03 ... : ... .. . ... : ... .. 4 ... : ... .. . ... ...
ROW 3A : ... .. B ... ... ... : F-3 00 F P89 V01 ... : ... .. . ... : ... .. . ... : ... .. . ... ...
ROW 3B : ... .. A ... ... ... : D#3 00 E P81 V02 ... : ... .. . ... : ... .. 3 ... : ... .. . ... ...
ROW 3C : ... .. . ... ... ... : C#3 00 E P7D ... ... : ... .. . ... : ... .. 2 ... : ... .. . ... ...
ROW 3D : ... .. 9 ... ... ... : B-2 00 D P7E ... ... : ... .. . ... : ... .. . ... : ... .. . ... ...
ROW 3E : ... .. . ... ... ... : A-2 00 C P85 ... ... : ... .. . ... : ... .. 1 ... : ... .. . ... ...
ROW 3F : A-1 00 F ... V03 ... : A#2 00 F P83 V03 ... : D#4 00 . P84 : 0-# 00 F V01 : ... .. . ... ...
ROW 40 : ... .. . ... V01 ... : G#2 00 F P8E V01 ... : B-3 00 . P82 : ... .. . ... : ... .. . ... ...
ROW 41 : ... .. E ... V02 ... : G-2 00 E P7E V02 ... : G#3 00 . P7D : ... .. E V00 : ... .. . ... ...
ROW 42 : ... .. . ... ... ... : F#2 00 E P70 ... ... : F-3 00 . P80 : ... .. . ... : ... .. . ... ...
ROW 43 : ... .. D ... ... ... : E-2 00 D P8A ... ... : D#3 00 . P78 : ... .. D ... : ... .. . ... ...
ROW 44 : ... .. C ... ... ... : D#2 00 C P82 ... ... : C-3 00 . P8C : ... .. C ... : ... .. . ... ...
ROW 45 : ... .. . ... ... ... : D-2 00 C P7D ... ... : B-2 00 . P75 : ... .. . ... : ... .. . ... ...
ROW 46 : ... .. B ... ... ... : C#2 00 B P7A ... ... : A-2 00 . P7C : ... .. B ... : ... .. . ... ...
ROW 47 : ... .. A ... ... ... : C-2 00 A ... ... ... : G-2 00 . P8B : ... .. A ... : ... .. . ... ...
ROW 48 : ... .. . ... ... ... : B-1 00 A P7D ... ... : F#2 00 . P7D : ... .. . ... : ... .. . ... ...
ROW 49 : ... .. 9 ... ... ... : A#1 00 9 P83 ... ... : F-2 00 . P71 : ... .. 9 ... : ... .. . ... ...
ROW 4A : ... .. . ... ... ... : A-1 00 9 P8C ... ... : D#2 00 . P8F : ... .. . ... : ... .. . ... ...
ROW 4B : ... .. F ... V03 ... : A#2 00 F P83 V03 ... : A-4 00 . P7F : ... .. 8 ... : ... .. . ... ...
ROW 4C : ... .. . ... V01 ... : G#2 00 F P8E V01 ... : ... .. . ... : ... .. 7 ... : ... .. . ... ...
ROW 4D : ... .. E ... V02 ... : G-2 00 E P7E V02 ... : ... .. . ... : ... .. . ... : ... .. . ... ...
ROW 4E : ... .. . ... ... ... : F#2 00 E P70 ... ... : ... .. . ... : ... .. 6 ... : ... .. . ... ...
ROW 4F : ... .. D ... ... ... : E-2 00 D P8A ... ... : ... .. . ... : ... .. 5 ... : ... .. . ... ...
ROW 50 : ... .. C ... ... ... : D#2 00 C P82 ... ... : ... .. . ... : ... .. . ... : ... .. . ... ...
ROW 51 : ... .. . ... ... ... : D-2 00 C P7D ... ... : ... .. . ... : ... .. 4 ... : ... .. . ... ...
ROW 52 : ... .. B ... ... ... : C#2 00 B P7A ... ... : ... .. . ... : ... .. . ... : ... .. . ... ...
ROW 53 : ... .. A ... ... ... : C-2 00 A ... ... ... : ... .. . ... : ... .. 3 ... : ... .. . ... ...
ROW 54 : ... .. . ... ... ... : B-1 00 A P7D ... ... : ... .. . ... : ... .. 2 ... : ... .. . ... ...
ROW 55 : ... .. 9 ... ... ... : A#1 00 9 P83 ... ... : ... .. . ... : ... .. . ... : ... .. . ... ...
ROW 56 : ... .. . ... ... ... : A-1 00 9 P8C ... ... : ... .. . ... : ... .. 1 ... : ... .. . ... ...
ROW 57 : A-2 00 F P7F V03 ... : G#3 00 F P86 V03 ... : D#4 00 . P84 : 4-# 00 F V01 : ... .. . ... ...
ROW 58 : ... .. . ... V01 ... : F-3 00 F P89 V01 ... : B-3 00 . P82 : ... .. . ... : ... .. . ... ...
ROW 59 : ... .. E ... V02 ... : D#3 00 E P81 V02 ... : G#3 00 . P7D : ... .. E V00 : ... .. . ... ...
ROW 5A : ... .. . ... ... ... : C#3 00 E P7D ... ... : F-3 00 . P80 : ... .. . ... : ... .. . ... ...
ROW 5B : ... .. D ... ... ... : B-2 00 D P7E ... ... : D#3 00 . P78 : ... .. D ... : ... .. . ... ...
ROW 5C : ... .. C ... ... ... : A-2 00 C P85 ... ... : C-3 00 . P8C : ... .. C ... : ... .. . ... ...
ROW 5D : ... .. . ... ... ... : G#2 00 C P74 ... ... : B-2 00 . P75 : ... .. . ... : ... .. . ... ...
ROW 5E : ... .. B ... ... ... : F#2 00 B P86 ... ... : A-2 00 . P7C : ... .. B ... : ... .. . ... ...
ROW 5F : ... .. A ... ... ... : F-2 00 A P7A ... ... : G-2 00 . P8B : ... .. A ... : ... .. . ... ...
ROW 60 : ... .. . ... ... ... : E-2 00 A P70 ... ... : F#2 00 . P7D : ... .. . ... : ... .. . ... ...
ROW 61 : ... .. 9 ... ... ... : D-2 00 9 P93 ... ... : F-2 00 . P71 : ... .. 9 ... : ... .. . ... ...
ROW 62 : ... .. . ... ... ... : C#2 00 9 P90 ... ... : D#2 00 . P8F : ... .. . ... : ... .. . ... ...
ROW 63 : A-1 00 F P80 V03 ... : A-3 00 F P7F V03 ... : A-4 00 . P7F : ... .. 8 ... : ... .. . ... ...
ROW 64 : ... .. . ... V01 ... : ... .. . ... V01 ... : ... .. . ... : ... .. 7 ... : ... .. . ... ...
ROW 65 : ... .. E ... V02 ... : ... .. E ... V02 ... : ... .. . ... : ... .. . ... : ... .. . ... ...
ROW 66 : ... .. . ... ... ... : ... .. . ... ... ... : ... .. . ... : ... .. 6 ... : ... .. . ... ...
ROW 67 : ... .. D ... ... ... : ... .. D ... ... ... : ... .. . ... : ... .. 5 ... : ... .. . ... ...
ROW 68 : ... .. C ... ... ... : ... .. C ... ... ... : ... .. . ... : ... .. . ... : ... .. . ... ...
ROW 69 : ... .. . ... ... ... : C#4 00 F P80 V03 ... : ... .. . ... : ... .. 4 ... : ... .. . ... ...
ROW 6A : ... .. B ... ... ... : ... .. . ... V01 ... : ... .. . ... : ... .. . ... : ... .. . ... ...
ROW 6B : ... .. A ... ... ... : ... .. E ... V02 ... : ... .. . ... : ... .. 3 ... : ... .. . ... ...
ROW 6C : ... .. . ... ... ... : ... .. . ... ... ... : ... .. . ... : ... .. 2 ... : ... .. . ... ...
ROW 6D : ... .. 9 ... ... ... : ... .. D ... ... ... : ... .. . ... : ... .. . ... : ... .. . ... ...
ROW 6E : ... .. . ... ... ... : ... .. C ... ... ... : ... .. . ... : ... .. 1 ... : ... .. . ... ...
ROW 6F : ... .. F ... V03 ... : E-4 00 F P7F V03 ... : D#4 00 . P84 : 0-# 00 F V01 : ... .. . ... ...
ROW 70 : ... .. . ... V01 ... : ... .. . ... V01 ... : B-3 00 . P82 : ... .. . ... : ... .. . ... ...
ROW 71 : ... .. E ... V02 ... : ... .. E ... V02 ... : G#3 00 . P7D : ... .. E V00 : ... .. . ... ...
ROW 72 : ... .. . ... ... ... : ... .. . ... ... ... : F-3 00 . P80 : ... .. . ... : ... .. . ... ...
ROW 73 : ... .. D ... ... ... : ... .. D ... ... ... : D#3 00 . P78 : ... .. D ... : ... .. . ... ...
ROW 74 : ... .. C ... ... ... : ... .. C ... ... ... : C-3 00 . P8C : ... .. C ... : ... .. . ... ...
ROW 75 : ... .. . ... ... ... : C#4 00 F P80 V03 ... : B-2 00 . P75 : ... .. . ... : ... .. . ... ...
ROW 76 : ... .. B ... ... ... : ... .. . ... V01 ... : A-2 00 . P7C : ... .. B ... : ... .. . ... ...
ROW 77 : ... .. A ... ... ... : ... .. E ... V02 ... : G-2 00 . P8B : ... .. A ... : ... .. . ... ...
ROW 78 : ... .. . ... ... ... : ... .. . ... ... ... : F#2 00 . P7D : ... .. . ... : ... .. . ... ...
ROW 79 : ... .. 9 ... ... ... : ... .. D ... ... ... : F-2 00 . P71 : ... .. 9 ... : ... .. . ... ...
ROW 7A : ... .. . ... ... ... : ... .. C ... ... ... : D#2 00 . P8F : ... .. . ... : ... .. . ... ...
ROW 7B : ... .. F ... V03 ... : E-4 00 F P7F V03 ... : A-4 00 . P7F : ... .. 8 ... : ... .. . ... ...
ROW 7C : ... .. . ... V01 ... : ... .. . ... V01 ... : ... .. . ... : ... .. 7 ... : ... .. . ... ...
ROW 7D : ... .. E ... V02 ... : ... .. E ... V02 ... : ... .. . ... : ... .. . ... : ... .. . ... ...
ROW 7E : ... .. . ... ... ... : ... .. . ... ... ... : ... .. . ... : ... .. 6 ... : ... .. . ... ...
ROW 7F : ... .. D ... ... ... : ... .. D ... ... ... : ... .. . ... : ... .. 5 ... : ... .. . ... ...
ROW 80 : ... .. C ... ... ... : ... .. C ... ... ... : ... .. . ... : ... .. . ... : ... .. . ... ...
ROW 81 : ... .. . ... ... ... : A-4 00 F ... V03 ... : ... .. . ... : ... .. 4 ... : ... .. . ... ...
ROW 82 : ... .. B ... ... ... : ... .. . ... V01 ... : ... .. . ... : ... .. . ... : ... .. . ... ...
ROW 83 : ... .. A ... ... ... : A#4 00 E ... V02 ... : ... .. . ... : ... .. 3 ... : ... .. . ... ...
ROW 84 : ... .. . ... ... ... : A-4 00 E ... ... ... : ... .. . ... : ... .. 2 ... : ... .. . ... ...
ROW 85 : ... .. 9 ... ... ... : ... .. D ... ... ... : ... .. . ... : ... .. . ... : ... .. . ... ...
ROW 86 : ... .. . ... ... ... : A#4 00 C ... ... ... : ... .. . ... : ... .. 1 ... : ... .. . ... ...
ROW 87 : A-2 00 F P7F V03 ... : A-4 00 C ... ... ... : D#4 00 . P84 : 4-# 00 F V01 : ... .. . ... ...
ROW 88 : ... .. . ... V01 ... : ... .. B ... ... ... : B-3 00 . P82 : ... .. . ... : ... .. . ... ...
ROW 89 : ... .. E ... V02 ... : A#4 00 A ... ... ... : G#3 00 . P7D : ... .. E V00 : ... .. . ... ...
ROW 8A : ... .. . ... ... ... : A-4 00 A ... ... ... : F-3 00 . P80 : ... .. . ... : ... .. . ... ...
ROW 8B : ... .. D ... ... ... : ... .. 9 ... ... ... : D#3 00 . P78 : ... .. D ... : ... .. . ... ...
ROW 8C : ... .. C ... ... ... : A#4 00 9 ... ... ... : C-3 00 . P8C : ... .. C ... : ... .. . ... ...
ROW 8D : ... .. . ... ... ... : A-4 00 8 ... ... ... : B-2 00 . P75 : ... .. . ... : ... .. . ... ...
ROW 8E : ... .. B ... ... ... : ... .. 7 ... ... ... : A-2 00 . P7C : ... .. B ... : ... .. . ... ...
ROW 8F : ... .. A ... ... ... : A#4 00 7 ... ... ... : G-2 00 . P8B : ... .. A ... : ... .. . ... ...
ROW 90 : ... .. . ... ... ... : A-4 00 6 ... ... ... : F#2 00 . P7D : ... .. . ... : ... .. . ... ...
ROW 91 : ... .. 9 ... ... ... : ... .. 5 ... ... ... : F-2 00 . P71 : ... .. 9 ... : ... .. . ... ...
ROW 92 : ... .. . ... ... ... : A#4 00 5 ... ... ... : D#2 00 . P8F : ... .. . ... : ... .. . ... ...
ROW 93 : A-1 00 F P80 V03 ... : A-4 00 F ... V03 ... : A-4 00 . P7F : ... .. 8 ... : ... .. . ... ...
ROW 94 : ... .. . ... V01 ... : ... .. . ... V01 ... : ... .. . ... : ... .. 7 ... : ... .. . ... ...
ROW 95 : ... .. E ... V02 ... : ... .. E ... V02 ... : ... .. . ... : ... .. . ... : ... .. . ... ...
ROW 96 : ... .. . ... ... ... : ... .. . ... ... ... : ... .. . ... : ... .. 6 ... : ... .. . ... ...
ROW 97 : ... .. D ... ... ... : ... .. D ... ... ... : ... .. . ... : ... .. 5 ... : ... .. . ... ...
ROW 98 : ... .. C ... ... ... : ... .. C ... ... ... : ... .. . ... : ... .. . ... : ... .. . ... ...
ROW 99 : ... .. . ... ... ... : G#4 00 F P80 V03 ... : ... .. . ... : ... .. 4 ... : ... .. . ... ...
ROW 9A : ... .. B ... ... ... : ... .. . ... V01 ... : ... .. . ... : ... .. . ... : ... .. . ... ...
ROW 9B : ... .. A ... ... ... : ... .. E ... V02 ... : ... .. . ... : ... .. 3 ... : ... .. . ... ...
ROW 9C : ... .. . ... ... ... : ... .. . ... ... ... : ... .. . ... : ... .. 2 ... : ... .. . ... ...
ROW 9D : ... .. 9 ... ... ... : ... .. D ... ... ... : ... .. . ... : ... .. . ... : ... .. . ... ...
ROW 9E : ... .. . ... ... ... : ... .. C ... ... ... : ... .. . ... : ... .. 1 ... : ... .. . ... ...
ROW 9F : ... .. F ... V03 ... : G-4 00 F ... V03 ... : D#4 00 . P84 : 0-# 00 F V01 : ... .. . ... ...
ROW A0 : ... .. . ... V01 ... : ... .. . ... V01 ... : B-3 00 . P82 : ... .. . ... : ... .. . ... ...
ROW A1 : ... .. E ... V02 ... : ... .. E ... V02 ... : G#3 00 . P7D : ... .. E V00 : ... .. . ... ...
ROW A2 : ... .. . ... ... ... : ... .. . ... ... ... : F-3 00 . P80 : ... .. . ... : ... .. . ... ...
ROW A3 : ... .. D ... ... ... : ... .. D ... ... ... : D#3 00 . P78 : ... .. D ... : ... .. . ... ...
ROW A4 : ... .. C ... ... ... : ... .. C ... ... ... : C-3 00 . P8C : ... .. C ... : ... .. . ... ...
ROW A5 : ... .. . ... ... ... : F#4 00 F P7F V03 ... : B-2 00 . P75 : ... .. . ... : ... .. . ... ...
ROW A6 : ... .. B ... ... ... : ... .. . ... V01 ... : A-2 00 . P7C : ... .. B ... : ... .. . ... ...
ROW A7 : ... .. A ... ... ... : ... .. E ... V02 ... : G-2 00 . P8B : ... .. A ... : ... .. . ... ...
ROW A8 : ... .. . ... ... ... : ... .. . ... ... ... : F#2 00 . P7D : ... .. . ... : ... .. . ... ...
ROW A9 : ... .. 9 ... ... ... : ... .. D ... ... ... : F-2 00 . P71 : ... .. 9 ... : ... .. . ... ...
ROW AA : ... .. . ... ... ... : ... .. C ... ... ... : D#2 00 . P8F : ... .. . ... : ... .. . ... ...
ROW AB : ... .. F ... V03 ... : F-4 00 F ... V03 ... : A-4 00 . P7F : ... .. 8 ... : ... .. . ... ...
ROW AC : ... .. . ... V01 ... : ... .. . ... V01 ... : ... .. . ... : ... .. 7 ... : ... .. . ... ...
ROW AD : ... .. E ... V02 ... : ... .. E ... V02 ... : ... .. . ... : ... .. . ... : ... .. . ... ...
ROW AE : ... .. . ... ... ... : ... .. . ... ... ... : ... .. . ... : ... .. 6 ... : ... .. . ... ...
ROW AF : ... .. D ... ... ... : ... .. D ... ... ... : ... .. . ... : ... .. 5 ... : ... .. . ... ...
ROW B0 : ... .. C ... ... ... : ... .. C ... ... ... : ... .. . ... : ... .. . ... : ... .. . ... ...
ROW B1 : ... .. . ... ... ... : E-4 00 F ... V03 ... : ... .. . ... : ... .. 4 ... : ... .. . ... ...
ROW B2 : ... .. B ... ... ... : ... .. . ... V01 ... : ... .. . ... : ... .. . ... : ... .. . ... ...
ROW B3 : ... .. A ... ... ... : ... .. E ... V02 ... : ... .. . ... : ... .. 3 ... : ... .. . ... ...
ROW B4 : ... .. . ... ... ... : ... .. . ... ... ... : ... .. . ... : ... .. 2 ... : ... .. . ... ...
ROW B5 : ... .. 9 ... ... ... : ... .. D ... ... ... : ... .. . ... : ... .. . ... : ... .. . ... ...
ROW B6 : ... .. . ... ... ... : ... .. C ... ... ... : ... .. . ... : ... .. 1 ... : ... .. . ... ...
ROW B7 : A-2 00 F P7F V03 ... : D#4 00 F P80 V03 ... : D#4 00 . P84 : 4-# 00 F V01 : ... .. . ... ...
ROW B8 : ... .. . ... V01 ... : ... .. . ... V01 ... : B-3 00 . P82 : ... .. . ... : ... .. . ... ...
ROW B9 : ... .. E ... V02 ... : ... .. E ... V02 ... : G#3 00 . P7D : ... .. E V00 : ... .. . ... ...
ROW BA : ... .. . ... ... ... : ... .. . ... ... ... : F-3 00 . P80 : ... .. . ... : ... .. . ... ...
ROW BB : ... .. D ... ... ... : ... .. D ... ... ... : D#3 00 . P78 : ... .. D ... : ... .. . ... ...
ROW BC : ... .. C ... ... ... : ... .. C ... ... ... : C-3 00 . P8C : ... .. C ... : ... .. . ... ...
ROW BD : ... .. . ... ... ... : D-4 00 F P7F V03 ... : B-2 00 . P75 : ... .. . ... : ... .. . ... ...
ROW BE : ... .. B ... ... ... : ... .. . ... V01 ... : A-2 00 . P7C : ... .. B ... : ... .. . ... ...
ROW BF : ... .. A ... ... ... : ... .. E ... V02 ... : G-2 00 . P8B : ... .. A ... : ... .. . ... ...
ROW C0 : ... .. . ... ... ... : ... .. . ... ... ... : F#2 00 . P7D : ... .. . ... : ... .. . ... ...
ROW C1 : ... .. 9 ... ... ... : ... .. D ... ... ... : F-2 00 . P71 : ... .. 9 ... : ... .. . ... ...
ROW C2 : ... .. . ... ... ... : ... .. C ... ... ... : D#2 00 . P8F : ... .. . ... : ... .. . ... ...
ROW C3 : A-1 00 F P80 V03 ... : C#4 00 F P80 V03 ... : A-4 00 . P7F : ... .. 8 ... : ... .. . ... ...
ROW C4 : ... .. . ... V01 ... : ... .. . ... V01 ... : ... .. . ... : ... .. 7 ... : ... .. . ... ...
ROW C5 : ... .. E ... V02 ... : ... .. E ... V02 ... : ... .. . ... : ... .. . ... : ... .. . ... ...
ROW C6 : ... .. . ... ... ... : ... .. . ... ... ... : ... .. . ... : ... .. 6 ... : ... .. . ... ...
ROW C7 : ... .. D ... ... ... : ... .. D ... ... ... : ... .. . ... : ... .. 5 ... : ... .. . ... ...
ROW C8 : ... .. C ... ... ... : ... .. C ... ... ... : ... .. . ... : ... .. . ... : ... .. . ... ...
ROW C9 : ... .. . ... ... ... : C-4 00 F P7F V03 ... : ... .. . ... : ... .. 4 ... : ... .. . ... ...
ROW CA : ... .. B ... ... ... : ... .. . ... V01 ... : ... .. . ... : ... .. . ... : ... .. . ... ...
ROW CB : ... .. A ... ... ... : ... .. E ... V02 ... : ... .. . ... : ... .. 3 ... : ... .. . ... ...
ROW CC : ... .. . ... ... ... : ... .. . ... ... ... : ... .. . ... : ... .. 2 ... : ... .. . ... ...
ROW CD : ... .. 9 ... ... ... : ... .. D ... ... ... : ... .. . ... : ... .. . ... : ... .. . ... ...
ROW CE : ... .. . ... ... ... : ... .. C ... ... ... : ... .. . ... : ... .. 1 ... : ... .. . ... ...
ROW CF : G-1 00 F ... V03 ... : B-3 00 F ... V03 ... : D#4 00 . P84 : ... .. F V01 : ... .. . ... ...
ROW D0 : ... .. . ... V01 ... : ... .. . ... V01 ... : B-3 00 . P82 : ... .. . ... : ... .. . ... ...
ROW D1 : ... .. E ... V02 ... : ... .. E ... V02 ... : G#3 00 . P7D : ... .. E V00 : ... .. . ... ...
ROW D2 : ... .. . ... ... ... : ... .. . ... ... ... : F-3 00 . P80 : ... .. . ... : ... .. . ... ...
ROW D3 : ... .. D ... ... ... : ... .. D ... ... ... : D#3 00 . P78 : ... .. D ... : ... .. . ... ...
ROW D4 : ... .. C ... ... ... : ... .. C ... ... ... : C-3 00 . P8C : ... .. C ... : ... .. . ... ...
ROW D5 : ... .. . ... ... ... : A#3 00 F ... V03 ... : B-2 00 . P75 : ... .. . ... : ... .. . ... ...
ROW D6 : ... .. B ... ... ... : ... .. . ... V01 ... : A-2 00 . P7C : ... .. B ... : ... .. . ... ...
ROW D7 : ... .. A ... ... ... : ... .. E ... V02 ... : G-2 00 . P8B : ... .. A ... : ... .. . ... ...
ROW D8 : ... .. . ... ... ... : ... .. . ... ... ... : F#2 00 . P7D : ... .. . ... : ... .. . ... ...
ROW D9 : ... .. 9 ... ... ... : ... .. D ... ... ... : F-2 00 . P71 : ... .. 9 ... : ... .. . ... ...
ROW DA : ... .. . ... ... ... : ... .. C ... ... ... : D#2 00 . P8F : ... .. . ... : ... .. . ... ...
ROW DB : ... .. F ... V03 ... : A-3 00 F ... V03 ... : D#4 00 . P84 : ... .. F V01 : ... .. . ... ...
ROW DC : ... .. . ... V01 ... : ... .. . ... V01 ... : B-3 00 . P82 : ... .. . ... : ... .. . ... ...
ROW DD : ... .. E ... V02 ... : ... .. E ... V02 ... : G#3 00 . P7D : ... .. E V00 : ... .. . ... ...
ROW DE : ... .. . ... ... ... : ... .. . ... ... ... : F-3 00 . P80 : ... .. . ... : ... .. . ... ...
ROW DF : ... .. D ... ... ... : ... .. D ... ... ... : D#3 00 . P78 : ... .. D ... : ... .. . ... ...
ROW E0 : ... .. C ... ... ... : ... .. C ... ... ... : C-3 00 . P8C : ... .. C ... : ... .. . ... ...
ROW E1 : ... .. . ... ... ... : G#3 00 F ... V03 ... : B-2 00 . P75 : ... .. . ... : ... .. . ... ...
ROW E2 : ... .. B ... ... ... : ... .. . ... V01 ... : A-2 00 . P7C : ... .. B ... : ... .. . ... ...
ROW E3 : ... .. A ... ... ... : ... .. E ... V02 ... : G-2 00 . P8B : ... .. A ... : ... .. . ... ...
ROW E4 : ... .. . ... ... ... : ... .. . ... ... ... : --- .. . ... : ... .. . ... : ... .. . ... ...
ROW E5 : ... .. 9 ... ... ... : ... .. D ... ... ... : ... .. . ... : ... .. 9 ... : ... .. . ... ...
ROW E6 : ... .. . ... ... ... : ... .. C ... ... ... : ... .. . ... : ... .. . ... : ... .. . ... ...
ROW E7 : G-2 00 F ... V03 ... : G-3 00 F ... V03 ... : D#4 00 . P84 : ... .. F V01 : ... .. . ... ...
ROW E8 : ... .. . ... V01 ... : ... .. . ... V01 ... : B-3 00 . P82 : ... .. . ... : ... .. . ... ...
ROW E9 : ... .. E ... V02 ... : ... .. E ... V02 ... : G#3 00 . P7D : ... .. E V00 : ... .. . ... ...
ROW EA : ... .. . ... ... ... : ... .. . ... ... ... : F-3 00 . P80 : ... .. . ... : ... .. . ... ...
ROW EB : ... .. D ... ... ... : ... .. D ... ... ... : D#3 00 . P78 : ... .. D ... : ... .. . ... ...
ROW EC : ... .. C ... ... ... : ... .. C ... ... ... : C-3 00 . P8C : ... .. C ... : ... .. . ... ...
ROW ED : ... .. . ... ... ... : F#3 00 F P7E V03 ... : B-2 00 . P75 : ... .. . ... : ... .. . ... ...
ROW EE : ... .. B ... ... ... : ... .. . ... V01 ... : A-2 00 . P7C : ... .. B ... : ... .. . ... ...
ROW EF : ... .. A ... ... ... : ... .. E ... V02 ... : G-2 00 . P8B : ... .. A ... : ... .. . ... ...
ROW F0 : ... .. . ... ... ... : ... .. . ... ... ... : F#2 00 . P7D : ... .. . ... : ... .. . ... ...
ROW F1 : ... .. 9 ... ... ... : ... .. D ... ... ... : F-2 00 . P71 : ... .. 9 ... : ... .. . ... ...
ROW F2 : ... .. . ... ... ... : ... .. C ... ... ... : D#2 00 . P8F : ... .. . ... : ... .. . ... ...
ROW F3 : G-1 00 F ... V03 ... : F-3 00 F P7F V03 ... : D#4 00 . P84 : ... .. F V01 : ... .. . ... ...
ROW F4 : ... .. . ... V01 ... : ... .. . ... V01 ... : B-3 00 . P82 : ... .. . ... : ... .. . ... ...
ROW F5 : ... .. E ... V02 ... : ... .. E ... V02 ... : G#3 00 . P7D : ... .. E V00 : ... .. . ... ...
ROW F6 : ... .. . ... ... ... : ... .. . ... ... ... : F-3 00 . P80 : ... .. . ... : ... .. . ... ...
ROW F7 : ... .. D ... ... ... : ... .. D ... ... ... : D#3 00 . P78 : ... .. D ... : ... .. . ... ...
ROW F8 : ... .. C ... ... ... : ... .. C ... ... ... : C-3 00 . P8C : ... .. C ... : ... .. . ... ...
ROW F9 : ... .. . ... ... ... : E-3 00 F P7E V03 ... : D#4 00 . P84 : ... .. F V01 : ... .. . ... ...
ROW FA : ... .. B ... ... ... : ... .. . ... V01 ... : B-3 00 . P82 : ... .. . ... : ... .. . ... ...
ROW FB : ... .. A ... ... ... : ... .. E ... V02 ... : G#3 00 . P7D : ... .. E V00 : ... .. . ... ...
ROW FC : ... .. . ... ... ... : ... .. . ... ... ... : F-3 00 . P80 : ... .. . ... : ... .. . ... ...
ROW FD : ... .. 9 ... ... ... : ... .. D ... ... ... : D#3 00 . P78 : ... .. D ... : ... .. . ... ...
ROW FE : ... .. . ... ... ... : ... .. C ... ... ... : C-3 00 . P8C : ... .. C ... : ... .. . ... ...
ROW FF : A-1 00 F ... V03 ... : A-3 00 F P7F V03 ... : F-4 00 . P80 : 0-# 00 F ... : ... .. . ... ...

PATTERN 1B
ROW 00 : ... .. . ... V01 ... : ... .. . ... V01 ... : D-4 00 . P7E : ... .. E ... : ... .. . ... ...
ROW 01 : ... .. E ... V02 ... : ... .. E ... V02 ... : B-3 00 . P82 : ... .. C ... : ... .. . ... ...
ROW 02 : ... .. . ... ... ... : ... .. . ... ... ... : A-3 00 . P7E : ... .. A ... : ... .. . ... ...
ROW 03 : ... .. D ... ... ... : ... .. D ... ... ... : G-3 00 . P7D : ... .. 9 ... : ... .. . ... ...
ROW 04 : ... .. C ... ... ... : ... .. C ... ... ... : F-3 00 . P80 : ... .. 7 ... : ... .. . ... ...
ROW 05 : ... .. . ... ... ... : ... .. . ... ... ... : D#3 00 . P88 : ... .. 5 ... : ... .. . ... ...
ROW 06 : ... .. B ... ... ... : ... .. B ... ... ... : D-3 00 . P7D : ... .. 4 ... : ... .. . ... ...
ROW 07 : ... .. A ... ... ... : ... .. A ... ... ... : C-3 00 . P8C : ... .. 2 ... : ... .. . ... ...
ROW 08 : ... .. . ... ... ... : ... .. . ... ... ... : B-2 00 . P85 : ... .. 0 ... : ... .. . ... ...
ROW 09 : ... .. 9 ... ... ... : ... .. 9 ... ... ... : A#2 00 . P80 : ... .. . ... : ... .. . ... ...
ROW 0A : ... .. . ... ... ... : ... .. . ... ... ... : A-2 00 . P7C : ... .. . ... : ... .. . ... ...
ROW 0B : ... .. F ... V03 ... : A-4 00 F ... V03 ... : F-4 00 . P80 : F-# 00 F ... : ... .. . ... ...
ROW 0C : ... .. . ... V01 ... : ... .. . ... V01 ... : D-4 00 . P7E : ... .. E ... : ... .. . ... ...
ROW 0D : ... .. E ... V02 ... : ... .. E ... V02 ... : B-3 00 . P82 : ... .. C ... : ... .. . ... ...
ROW 0E : ... .. . ... ... ... : ... .. . ... ... ... : A-3 00 . P7E : ... .. A ... : ... .. . ... ...
ROW 0F : ... .. D ... ... ... : ... .. D ... ... ... : G-3 00 . P7D : ... .. 9 ... : ... .. . ... ...
ROW 10 : ... .. C ... ... ... : ... .. C ... ... ... : F-3 00 . P80 : ... .. 7 ... : ... .. . ... ...
ROW 11 : ... .. . ... ... ... : A-3 00 F ... V03 ... : F-4 00 . ... : ... .. F ... : ... .. . ... ...
ROW 12 : ... .. B ... ... ... : ... .. . ... V01 ... : D-4 00 . P7E : ... .. E ... : ... .. . ... ...
ROW 13 : ... .. A ... ... ... : ... .. E ... V02 ... : B-3 00 . P82 : ... .. C ... : ... .. . ... ...
ROW 14 : ... .. . ... ... ... : ... .. . ... ... ... : A-3 00 . P7E : ... .. A ... : ... .. . ... ...
ROW 15 : ... .. 9 ... ... ... : ... .. D ... ... ... : G-3 00 . P7D : ... .. 9 ... : ... .. . ... ...
ROW 16 : ... .. . ... ... ... : ... .. C ... ... ... : F-3 00 . P80 : ... .. 7 ... : ... .. . ... ...
ROW 17 : A-2 00 F P7F V03 ... : G-3 00 F ... V03 ... : F-4 00 . ... : 4-# 00 F ... : ... .. . ... ...
ROW 18 : ... .. . ... V01 ... : ... .. . ... V01 ... : D-4 00 . P7E : ... .. E ... : ... .. . ... ...
ROW 19 : ... .. E ... V02 ... : ... .. E ... V02 ... : B-3 00 . P82 : ... .. C ... : ... .. . ... ...
ROW 1A : ... .. . ... ... ... : ... .. . ... ... ... : A-3 00 . P7E : ... .. A ... : ... .. . ... ...
ROW 1B : ... .. D ... ... ... : ... .. D ... ... ... : G-3 00 . P7D : ... .. 9 ... : ... .. . ... ...
ROW 1C : ... .. C ... ... ... : ... .. C ... ... ... : F-3 00 . P80 : ... .. 7 ... : ... .. . ... ...
ROW 1D : ... .. . ... ... ... : ... .. . ... ... ... : D#3 00 . P88 : ... .. 5 ... : ... .. . ... ...
ROW 1E : ... .. B ... ... ... : ... .. B ... ... ... : D-3 00 . P7D : ... .. 4 ... : ... .. . ... ...
ROW 1F : ... .. A ... ... ... : ... .. A ... ... ... : C-3 00 . P8C : ... .. 2 ... : ... .. . ... ...
ROW 20 : ... .. . ... ... ... : ... .. . ... ... ... : B-2 00 . P85 : ... .. 0 ... : ... .. . ... ...
ROW 21 : ... .. 9 ... ... ... : ... .. 9 ... ... ... : A#2 00 . P80 : ... .. . ... : ... .. . ... ...
ROW 22 : ... .. . ... ... ... : ... .. . ... ... ... : A-2 00 . P7C : ... .. . ... : ... .. . ... ...
ROW 23 : A-1 00 F P80 V03 ... : E-3 00 F P7E V03 ... : F-4 00 . P80 : F-# 00 F ... : ... .. . ... ...
ROW 24 : ... .. . ... V01 ... : ... .. . ... V01 ... : D-4 00 . P7E : ... .. E ... : ... .. . ... ...
ROW 25 : ... .. E ... V02 ... : ... .. E ... V02 ... : B-3 00 . P82 : ... .. C ... : ... .. . ... ...
ROW 26 : ... .. . ... ... ... : ... .. . ... ... ... : A-3 00 . P7E : ... .. A ... : ... .. . ... ...
ROW 27 : ... .. D ... ... ... : ... .. D ... ... ... : G-3 00 . P7D : ... .. 9 ... : ... .. . ... ...
ROW 28 : ... .. C ... ... ... : ... .. C ... ... ... : F-3 00 . P80 : ... .. 7 ... : ... .. . ... ...
ROW 29 : ... .. . ... ... ... : G-3 00 F P7F V03 ... : F-4 00 . ... : 4-# 00 F ... : ... .. . ... ...
ROW 2A : ... .. B ... ... ... : ... .. . ... V01 ... : D-4 00 . P7E : ... .. E ... : ... .. . ... ...
ROW 2B : ... .. A ... ... ... : ... .. E ... V02 ... : B-3 00 . P82 : ... .. C ... : ... .. . ... ...
ROW 2C : ... .. . ... ... ... : ... .. . ... ... ... : A-3 00 . P7E : ... .. A ... : ... .. . ... ...
ROW 2D : ... .. 9 ... ... ... : ... .. D ... ... ... : G-3 00 . P7D : ... .. 9 ... : ... .. . ... ...
ROW 2E : ... .. . ... ... ... : ... .. C ... ... ... : F-3 00 . P80 : ... .. 7 ... : ... .. . ... ...
ROW 2F : ... .. F ... V03 ... : E-3 00 F P7E V03 ... : F-4 00 . ... : 0-# 00 F ... : ... .. . ... ...
ROW 30 : ... .. . ... V01 ... : ... .. . ... V01 ... : D-4 00 . P7E : ... .. E ... : ... .. . ... ...
ROW 31 : ... .. E ... V02 ... : ... .. E ... V02 ... : B-3 00 . P82 : ... .. C ... : ... .. . ... ...
ROW 32 : ... .. . ... ... ... : ... .. . ... ... ... : A-3 00 . P7E : ... .. A ... : ... .. . ... ...
ROW 33 : ... .. D ... ... ... : ... .. D ... ... ... : G-3 00 . P7D : ... .. 9 ... : ... .. . ... ...
ROW 34 : ... .. C ... ... ... : ... .. C ... ... ... : F-3 00 . P80 : ... .. 7 ... : ... .. . ... ...
ROW 35 : ... .. . ... ... ... : F-3 00 F P7F V03 ... : F-4 00 . ... : ... .. 5 ... : ... .. . ... ...
ROW 36 : ... .. B ... ... ... : ... .. . ... V01 ... : D-4 00 . P7E : ... .. 4 ... : ... .. . ... ...
ROW 37 : ... .. A ... ... ... : ... .. E ... V02 ... : B-3 00 . P82 : ... .. 2 ... : ... .. . ... ...
ROW 38 : ... .. . ... ... ... : ... .. . ... ... ... : A-3 00 . P7E : ... .. 0 ... : ... .. . ... ...
ROW 39 : ... .. 9 ... ... ... : ... .. D ... ... ... : G-3 00 . P7D : ... .. . ... : ... .. . ... ...
ROW 3A : ... .. . ... ... ... : ... .. C ... ... ... : F-3 00 . P80 : ... .. . ... : ... .. . ... ...
ROW 3B : ... .. F ... V03 ... : F#3 00 F P7E V03 ... : F-4 00 . ... : F-# 00 F ... : ... .. . ... ...
ROW 3C : ... .. . ... V01 ... : ... .. . ... V01 ... : D-4 00 . P7E : ... .. E ... : ... .. . ... ...
ROW 3D : ... .. E ... V02 ... : ... .. E ... V02 ... : B-3 00 . P82 : ... .. C ... : ... .. . ... ...
ROW 3E : ... .. . ... ... ... : ... .. . ... ... ... : A-3 00 . P7E : ... .. A ... : ... .. . ... ...
ROW 3F : ... .. D ... ... ... : ... .. D ... ... ... : G-3 00 . P7D : ... .. 9 ... : ... .. . ... ...
ROW 40 : ... .. C ... ... ... : ... .. C ... ... ... : F-3 00 . P80 : ... .. 7 ... : ... .. . ... ...
ROW 41 : ... .. . ... ... ... : G-3 00 F P7F V03 ... : F-4 00 . ... : 0-# 00 F ... : ... .. . ... ...
ROW 42 : ... .. B ... ... ... : ... .. . ... V01 ... : D-4 00 . P7E : ... .. E ... : ... .. . ... ...
ROW 43 : ... .. A ... ... ... : ... .. E ... V02 ... : B-3 00 . P82 : ... .. C ... : ... .. . ... ...
ROW 44 : ... .. . ... ... ... : ... .. . ... ... ... : A-3 00 . P7E : ... .. A ... : ... .. . ... ...
ROW 45 : ... .. 9 ... ... ... : ... .. D ... ... ... : G-3 00 . P7D : ... .. 9 ... : ... .. . ... ...
ROW 46 : ... .. . ... ... ... : ... .. C ... ... ... : F-3 00 . P80 : ... .. 7 ... : ... .. . ... ...
ROW 47 : A-2 00 F P7F V03 ... : A-3 00 F ... V03 ... : F-4 00 . ... : 4-# 00 F ... : ... .. . ... ...
ROW 48 : ... .. . ... V01 ... : ... .. . ... V01 ... : D-4 00 . P7E : ... .. E ... : ... .. . ... ...
ROW 49 : ... .. E ... V02 ... : ... .. E ... V02 ... : B-3 00 . P82 : ... .. C ... : ... .. . ... ...
ROW 4A : ... .. . ... ... ... : ... .. . ... ... ... : A-3 00 . P7E : ... .. A ... : ... .. . ... ...
ROW 4B : ... .. D ... ... ... : ... .. D ... ... ... : G-3 00 . P7D : ... .. 9 ... : ... .. . ... ...
ROW 4C : ... .. C ... ... ... : ... .. C ... ... ... : F-3 00 . P80 : ... .. 7 ... : ... .. . ... ...
ROW 4D : ... .. . ... ... ... : ... .. . ... ... ... : D#3 00 . P88 : ... .. 5 ... : ... .. . ... ...
ROW 4E : ... .. B ... ... ... : ... .. B ... ... ... : D-3 00 . P7D : ... .. 4 ... : ... .. . ... ...
ROW 4F : ... .. A ... ... ... : ... .. A ... ... ... : C-3 00 . P8C : ... .. 2 ... : ... .. . ... ...
ROW 50 : ... .. . ... ... ... : ... .. . ... ... ... : B-2 00 . P85 : ... .. 0 ... : ... .. . ... ...
ROW 51 : ... .. 9 ... ... ... : ... .. 9 ... ... ... : A#2 00 . P80 : ... .. . ... : ... .. . ... ...
ROW 52 : ... .. . ... ... ... : ... .. . ... ... ... : A-2 00 . P7C : ... .. . ... : ... .. . ... ...
ROW 53 : A-1 00 F P80 V03 ... : G-3 00 F ... V03 ... : F-4 00 . P80 : F-# 00 F ... : ... .. . ... ...
ROW 54 : ... .. . ... V01 ... : ... .. . ... V01 ... : D-4 00 . P7E : ... .. E ... : ... .. . ... ...
ROW 55 : ... .. E ... V02 ... : ... .. E ... V02 ... : B-3 00 . P82 : ... .. C ... : ... .. . ... ...
ROW 56 : ... .. . ... ... ... : ... .. . ... ... ... : A-3 00 . P7E : ... .. A ... : ... .. . ... ...
ROW 57 : ... .. D ... ... ... : ... .. D ... ... ... : G-3 00 . P7D : ... .. 9 ... : ... .. . ... ...
ROW 58 : ... .. C ... ... ... : ... .. C ... ... ... : F-3 00 . P80 : ... .. 7 ... : ... .. . ... ...
ROW 59 : ... .. . ... ... ... : A-3 00 F ... V03 ... : F-4 00 . ... : 4-# 00 F ... : ... .. . ... ...
ROW 5A : ... .. B ... ... ... : ... .. . ... V01 ... : D-4 00 . P7E : ... .. E ... : ... .. . ... ...
ROW 5B : ... .. A ... ... ... : ... .. E ... V02 ... : B-3 00 . P82 : ... .. C ... : ... .. . ... ...
ROW 5C : ... .. . ... ... ... : ... .. . ... ... ... : A-3 00 . P7E : ... .. A ... : ... .. . ... ...
ROW 5D : ... .. 9 ... ... ... : ... .. D ... ... ... : G-3 00 . P7D : ... .. 9 ... : ... .. . ... ...
ROW 5E : ... .. . ... ... ... : ... .. C ... ... ... : F-3 00 . P80 : ... .. 7 ... : ... .. . ... ...
ROW 5F : C-2 00 F P7E V03 ... : C-4 00 F ... V03 ... : F-4 00 . ... : 0-# 00 F ... : ... .. . ... ...
ROW 60 : ... .. . ... V01 ... : ... .. . ... V01 ... : D-4 00 . P7E : ... .. E ... : ... .. . ... ...
ROW 61 : ... .. E ... V02 ... : ... .. E ... V02 ... : B-3 00 . P82 : ... .. C ... : ... .. . ... ...
ROW 62 : ... .. . ... ... ... : ... .. . ... ... ... : A-3 00 . P7E : ... .. A ... : ... .. . ... ...
ROW 63 : ... .. D ... ... ... : ... .. D ... ... ... : G-3 00 . P7D : ... .. 9 ... : ... .. . ... ...
ROW 64 : ... .. C ... ... ... : ... .. C ... ... ... : F-3 00 . P80 : ... .. 7 ... : ... .. . ... ...
ROW 65 : ... .. . ... ... ... : ... .. . ... ... ... : D#3 00 . P88 : ... .. 5 ... : ... .. . ... ...
ROW 66 : ... .. B ... ... ... : ... .. B ... ... ... : D-3 00 . P7D : ... .. 4 ... : ... .. . ... ...
ROW 67 : ... .. A ... ... ... : ... .. A ... ... ... : C-3 00 . P8C : ... .. 2 ... : ... .. . ... ...
ROW 68 : ... .. . ... ... ... : ... .. . ... ... ... : B-2 00 . P85 : ... .. 0 ... : ... .. . ... ...
ROW 69 : ... .. 9 ... ... ... : ... .. 9 ... ... ... : A#2 00 . P80 : ... .. . ... : ... .. . ... ...
ROW 6A : ... .. . ... ... ... : ... .. . ... ... ... : A-2 00 . P7C : ... .. . ... : ... .. . ... ...
ROW 6B : ... .. F ... V03 ... : ... .. F ... V03 ... : F-4 00 . P80 : F-# 00 F ... : ... .. . ... ...
ROW 6C : ... .. . ... V01 ... : ... .. . ... V01 ... : D-4 00 . P7E : ... .. E ... : ... .. . ... ...
ROW 6D : ... .. E ... V02 ... : ... .. E ... V02 ... : B-3 00 . P82 : ... .. C ... : ... .. . ... ...
ROW 6E : ... .. . ... ... ... : ... .. . ... ... ... : A-3 00 . P7E : ... .. A ... : ... .. . ... ...
ROW 6F : ... .. D ... ... ... : ... .. D ... ... ... : G-3 00 . P7D : ... .. 9 ... : ... .. . ... ...
ROW 70 : ... .. C ... ... ... : ... .. C ... ... ... : F-3 00 . P80 : ... .. 7 ... : ... .. . ... ...
ROW 71 : ... .. . ... ... ... : B-3 00 F ... V03 ... : F-4 00 . ... : 0-# 00 F ... : ... .. . ... ...
ROW 72 : ... .. B ... ... ... : ... .. . ... V01 ... : D-4 00 . P7E : ... .. E ... : ... .. . ... ...
ROW 73 : ... .. A ... ... ... : ... .. E ... V02 ... : B-3 00 . P82 : ... .. C ... : ... .. . ... ...
ROW 74 : ... .. . ... ... ... : ... .. . ... ... ... : A-3 00 . P7E : ... .. A ... : ... .. . ... ...
ROW 75 : ... .. 9 ... ... ... : ... .. D ... ... ... : G-3 00 . P7D : ... .. 9 ... : ... .. . ... ...
ROW 76 : ... .. . ... ... ... : ... .. C ... ... ... : F-3 00 . P80 : ... .. 7 ... : ... .. . ... ...
ROW 77 : C-3 00 F P7F V03 ... : G-3 00 F ... V03 ... : F-4 00 . ... : 4-# 00 F ... : ... .. . ... ...
ROW 78 : ... .. . ... V01 ... : ... .. . ... V01 ... : D-4 00 . P7E : ... .. E ... : ... .. . ... ...
ROW 79 : ... .. E ... V02 ... : ... .. E ... V02 ... : B-3 00 . P82 : ... .. C ... : ... .. . ... ...
ROW 7A : ... .. . ... ... ... : ... .. . ... ... ... : A-3 00 . P7E : ... .. A ... : ... .. . ... ...
ROW 7B : ... .. D ... ... ... : ... .. D ... ... ... : G-3 00 . P7D : ... .. 9 ... : ... .. . ... ...
ROW 7C : ... .. C ... ... ... : ... .. C ... ... ... : F-3 00 . P80 : ... .. 7 ... : ... .. . ... ...
ROW 7D : ... .. . ... ... ... : ... .. . ... ... ... : D#3 00 . P88 : ... .. 5 ... : ... .. . ... ...
ROW 7E : ... .. B ... ... ... : ... .. B ... ... ... : D-3 00 . P7D : ... .. 4 ... : ... .. . ... ...
ROW 7F : ... .. A ... ... ... : ... .. A ... ... ... : C-3 00 . P8C : ... .. 2 ... : ... .. . ... ...
ROW 80 : ... .. . ... ... ... : ... .. . ... ... ... : B-2 00 . P85 : ... .. 0 ... : ... .. . ... ...
ROW 81 : ... .. 9 ... ... ... : ... .. 9 ... ... ... : A#2 00 . P80 : ... .. . ... : ... .. . ... ...
ROW 82 : ... .. . ... ... ... : ... .. . ... ... ... : A-2 00 . P7C : ... .. . ... : ... .. . ... ...
ROW 83 : C-2 00 F P7E V03 ... : ... .. F ... V03 ... : F-4 00 . P80 : F-# 00 F ... : ... .. . ... ...
ROW 84 : ... .. . ... V01 ... : ... .. . ... V01 ... : D-4 00 . P7E : ... .. E ... : ... .. . ... ...
ROW 85 : ... .. E ... V02 ... : ... .. E ... V02 ... : B-3 00 . P82 : ... .. C ... : ... .. . ... ...
ROW 86 : ... .. . ... ... ... : ... .. . ... ... ... : A-3 00 . P7E : ... .. A ... : ... .. . ... ...
ROW 87 : ... .. D ... ... ... : ... .. D ... ... ... : G-3 00 . P7D : ... .. 9 ... : ... .. . ... ...
ROW 88 : ... .. C ... ... ... : ... .. C ... ... ... : F-3 00 . P80 : ... .. 7 ... : ... .. . ... ...
ROW 89 : ... .. . ... ... ... : A-3 00 F ... V03 ... : F-4 00 . ... : 4-# 00 F ... : ... .. . ... ...
ROW 8A : ... .. B ... ... ... : ... .. . ... V01 ... : D-4 00 . P7E : ... .. E ... : ... .. . ... ...
ROW 8B : ... .. A ... ... ... : ... .. E ... V02 ... : B-3 00 . P82 : ... .. C ... : ... .. . ... ...
ROW 8C : ... .. . ... ... ... : ... .. . ... ... ... : A-3 00 . P7E : ... .. A ... : ... .. . ... ...
ROW 8D : ... .. 9 ... ... ... : ... .. D ... ... ... : G-3 00 . P7D : ... .. 9 ... : ... .. . ... ...
ROW 8E : ... .. . ... ... ... : ... .. C ... ... ... : F-3 00 . P80 : ... .. 7 ... : ... .. . ... ...
ROW 8F : G-1 00 F P80 V03 ... : B-3 00 F ... V03 ... : F-4 00 . ... : 0-# 00 F ... : ... .. . ... ...
ROW 90 : ... .. . ... V01 ... : ... .. . ... V01 ... : D-4 00 . P7E : ... .. E ... : ... .. . ... ...
ROW 91 : ... .. E ... V02 ... : ... .. E ... V02 ... : B-3 00 . P82 : ... .. C ... : ... .. . ... ...
ROW 92 : ... .. . ... ... ... : ... .. . ... ... ... : A-3 00 . P7E : ... .. A ... : ... .. . ... ...
ROW 93 : ... .. D ... ... ... : ... .. D ... ... ... : G-3 00 . P7D : ... .. 9 ... : ... .. . ... ...
ROW 94 : ... .. C ... ... ... : ... .. C ... ... ... : F-3 00 . P80 : ... .. 7 ... : ... .. . ... ...
ROW 95 : ... .. . ... ... ... : C-4 00 F ... V03 ... : F-4 00 . ... : ... .. 5 ... : ... .. . ... ...
ROW 96 : ... .. B ... ... ... : ... .. . ... V01 ... : D-4 00 . P7E : ... .. 4 ... : ... .. . ... ...
ROW 97 : ... .. A ... ... ... : ... .. E ... V02 ... : B-3 00 . P82 : ... .. 2 ... : ... .. . ... ...
ROW 98 : ... .. . ... ... ... : ... .. . ... ... ... : A-3 00 . P7E : ... .. 0 ... : ... .. . ... ...
ROW 99 : ... .. 9 ... ... ... : ... .. D ... ... ... : G-3 00 . P7D : ... .. . ... : ... .. . ... ...
ROW 9A : ... .. . ... ... ... : ... .. C ... ... ... : F-3 00 . P80 : ... .. . ... : ... .. . ... ...
ROW 9B : ... .. F ... V03 ... : D-4 00 F ... V03 ... : F-4 00 . ... : F-# 00 F ... : ... .. . ... ...
ROW 9C : ... .. . ... V01 ... : ... .. . ... V01 ... : D-4 00 . P7E : ... .. E ... : ... .. . ... ...
ROW 9D : ... .. E ... V02 ... : ... .. E ... V02 ... : B-3 00 . P82 : ... .. C ... : ... .. . ... ...
ROW 9E : ... .. . ... ... ... : ... .. . ... ... ... : A-3 00 . P7E : ... .. A ... : ... .. . ... ...
ROW 9F : ... .. D ... ... ... : ... .. D ... ... ... : G-3 00 . P7D : ... .. 9 ... : ... .. . ... ...
ROW A0 : ... .. C ... ... ... : ... .. C ... ... ... : F-3 00 . P80 : ... .. 7 ... : ... .. . ... ...
ROW A1 : ... .. . ... ... ... : C-4 00 F ... V03 ... : F-4 00 . ... : 0-# 00 F ... : ... .. . ... ...
ROW A2 : ... .. B ... ... ... : ... .. . ... V01 ... : D-4 00 . P7E : ... .. E ... : ... .. . ... ...
ROW A3 : ... .. A ... ... ... : ... .. E ... V02 ... : B-3 00 . P82 : ... .. C ... : ... .. . ... ...
ROW A4 : ... .. . ... ... ... : ... .. . ... ... ... : A-3 00 . P7E : ... .. A ... : ... .. . ... ...
ROW A5 : ... .. 9 ... ... ... : ... .. D ... ... ... : G-3 00 . P7D : ... .. 9 ... : ... .. . ... ...
ROW A6 : ... .. . ... ... ... : ... .. C ... ... ... : F-3 00 . P80 : ... .. 7 ... : ... .. . ... ...
ROW A7 : G-2 00 F ... V03 ... : G-3 00 F ... V03 ... : F-4 00 . ... : 4-# 00 F ... : ... .. . ... ...
ROW A8 : ... .. . ... V01 ... : ... .. . ... V01 ... : D-4 00 . P7E : ... .. E ... : ... .. . ... ...
ROW A9 : ... .. E ... V02 ... : ... .. E ... V02 ... : B-3 00 . P82 : ... .. C ... : ... .. . ... ...
ROW AA : ... .. . ... ... ... : ... .. . ... ... ... : A-3 00 . P7E : ... .. A ... : ... .. . ... ...
ROW AB : ... .. D ... ... ... : ... .. D ... ... ... : G-3 00 . P7D : ... .. 9 ... : ... .. . ... ...
ROW AC : ... .. C ... ... ... : ... .. C ... ... ... : F-3 00 . P80 : ... .. 7 ... : ... .. . ... ...
ROW AD : ... .. . ... ... ... : ... .. . ... ... ... : D#3 00 . P88 : ... .. 5 ... : ... .. . ... ...
ROW AE : ... .. B ... ... ... : ... .. B ... ... ... : D-3 00 . P7D : ... .. 4 ... : ... .. . ... ...
ROW AF : ... .. A ... ... ... : ... .. A ... ... ... : C-3 00 . P8C : ... .. 2 ... : ... .. . ... ...
ROW B0 : ... .. . ... ... ... : ... .. . ... ... ... : B-2 00 . P85 : ... .. 0 ... : ... .. . ... ...
ROW B1 : ... .. 9 ... ... ... : ... .. 9 ... ... ... : A#2 00 . P80 : ... .. . ... : ... .. . ... ...
ROW B2 : ... .. . ... ... ... : ... .. . ... ... ... : A-2 00 . P7C : ... .. . ... : ... .. . ... ...
ROW B3 : G-1 00 F ... V03 ... : E-3 00 F P7E V03 ... : F-4 00 . P80 : F-# 00 F ... : ... .. . ... ...
ROW B4 : ... .. . ... V01 ... : ... .. . ... V01 ... : D-4 00 . P7E : ... .. E ... : ... .. . ... ...
ROW B5 : ... .. E ... V02 ... : ... .. E ... V02 ... : B-3 00 . P82 : ... .. C ... : ... .. . ... ...
ROW B6 : ... .. . ... ... ... : ... .. . ... ... ... : A-3 00 . P7E : ... .. A ... : ... .. . ... ...
ROW B7 : ... .. D ... ... ... : ... .. D ... ... ... : G-3 00 . P7D : ... .. 9 ... : ... .. . ... ...
ROW B8 : ... .. C ... ... ... : ... .. C ... ... ... : F-3 00 . P80 : ... .. 7 ... : ... .. . ... ...
ROW B9 : ... .. . ... ... ... : G-3 00 F P7F V03 ... : F-4 00 . ... : 4-# 00 F ... : ... .. . ... ...
ROW BA : ... .. B ... ... ... : ... .. . ... V01 ... : D-4 00 . P7E : ... .. E ... : ... .. . ... ...
ROW BB : ... .. A ... ... ... : ... .. E ... V02 ... : B-3 00 . P82 : ... .. C ... : ... .. . ... ...
ROW BC : ... .. . ... ... ... : ... .. . ... ... ... : A-3 00 . P7E : ... .. A ... : ... .. . ... ...
ROW BD : ... .. 9 ... ... ... : ... .. D ... ... ... : G-3 00 . P7D : ... .. 9 ... : ... .. . ... ...
ROW BE : ... .. . ... ... ... : ... .. C ... ... ... : F-3 00 . P80 : ... .. 7 ... : ... .. . ... ...
ROW BF : F-1 00 F ... V03 ... : F-3 00 F ... V03 ... : F-4 00 . ... : 0-# 00 F ... : ... .. . ... ...
ROW C0 : ... .. . ... V01 ... : ... .. . ... V01 ... : D-4 00 . P7E : ... .. E ... : ... .. . ... ...
ROW C1 : ... .. E ... V02 ... : ... .. E ... V02 ... : B-3 00 . P82 : ... .. C ... : ... .. . ... ...
ROW C2 : ... .. . ... ... ... : ... .. . ... ... ... : A-3 00 . P7E : ... .. A ... : ... .. . ... ...
ROW C3 : ... .. D ... ... ... : ... .. D ... ... ... : G-3 00 . P7D : ... .. 9 ... : ... .. . ... ...
ROW C4 : ... .. C ... ... ... : ... .. C ... ... ... : F-3 00 . P80 : ... .. 7 ... : ... .. . ... ...
ROW C5 : ... .. . ... ... ... : ... .. . ... ... ... : D#3 00 . P88 : ... .. 5 ... : ... .. . ... ...
ROW C6 : ... .. B ... ... ... : ... .. B ... ... ... : D-3 00 . P7D : ... .. 4 ... : ... .. . ... ...
ROW C7 : ... .. A ... ... ... : ... .. A ... ... ... : C-3 00 . P8C : ... .. 2 ... : ... .. . ... ...
ROW C8 : ... .. . ... ... ... : ... .. . ... ... ... : B-2 00 . P85 : ... .. 0 ... : ... .. . ... ...
ROW C9 : ... .. 9 ... ... ... : ... .. 9 ... ... ... : A#2 00 . P80 : ... .. . ... : ... .. . ... ...
ROW CA : ... .. . ... ... ... : ... .. . ... ... ... : A-2 00 . P7C : ... .. . ... : ... .. . ... ...
ROW CB : ... .. F ... V03 ... : ... .. F ... V03 ... : F-4 00 . P80 : F-# 00 F ... : ... .. . ... ...
ROW CC : ... .. . ... V01 ... : ... .. . ... V01 ... : D-4 00 . P7E : ... .. E ... : ... .. . ... ...
ROW CD : ... .. E ... V02 ... : ... .. E ... V02 ... : B-3 00 . P82 : ... .. C ... : ... .. . ... ...
ROW CE : ... .. . ... ... ... : ... .. . ... ... ... : A-3 00 . P7E : ... .. A ... : ... .. . ... ...
ROW CF : ... .. D ... ... ... : ... .. D ... ... ... : G-3 00 . P7D : ... .. 9 ... : ... .. . ... ...
ROW D0 : ... .. C ... ... ... : ... .. C ... ... ... : F-3 00 . P80 : ... .. 7 ... : ... .. . ... ...
ROW D1 : ... .. . ... ... ... : E-3 00 F P7E V03 ... : F-4 00 . ... : 0-# 00 F ... : ... .. . ... ...
ROW D2 : ... .. B ... ... ... : ... .. . ... V01 ... : D-4 00 . P7E : ... .. E ... : ... .. . ... ...
ROW D3 : ... .. A ... ... ... : ... .. E ... V02 ... : B-3 00 . P82 : ... .. C ... : ... .. . ... ...
ROW D4 : ... .. . ... ... ... : ... .. . ... ... ... : A-3 00 . P7E : ... .. A ... : ... .. . ... ...
ROW D5 : ... .. 9 ... ... ... : ... .. D ... ... ... : G-3 00 . P7D : ... .. 9 ... : ... .. . ... ...
ROW D6 : ... .. . ... ... ... : ... .. C ... ... ... : F-3 00 . P80 : ... .. 7 ... : ... .. . ... ...
ROW D7 : F-2 00 F ... V03 ... : F-3 00 F P7F V03 ... : F-4 00 . ... : 4-# 00 F ... : ... .. . ... ...
ROW D8 : ... .. . ... V01 ... : ... .. . ... V01 ... : D-4 00 . P7E : ... .. E ... : ... .. . ... ...
ROW D9 : ... .. E ... V02 ... : ... .. E ... V02 ... : B-3 00 . P82 : ... .. C ... : ... .. . ... ...
ROW DA : ... .. . ... ... ... : ... .. . ... ... ... : A-3 00 . P7E : ... .. A ... : ... .. . ... ...
ROW DB : ... .. D ... ... ... : ... .. D ... ... ... : G-3 00 . P7D : ... .. 9 ... : ... .. . ... ...
ROW DC : ... .. C ... ... ... : ... .. C ... ... ... : F-3 00 . P80 : ... .. 7 ... : ... .. . ... ...
ROW DD : ... .. . ... ... ... : ... .. . ... ... ... : D#3 00 . P88 : ... .. 5 ... : ... .. . ... ...
ROW DE : ... .. B ... ... ... : ... .. B ... ... ... : D-3 00 . P7D : ... .. 4 ... : ... .. . ... ...
ROW DF : ... .. A ... ... ... : ... .. A ... ... ... : C-3 00 . P8C : ... .. 2 ... : ... .. . ... ...
ROW E0 : ... .. . ... ... ... : ... .. . ... ... ... : B-2 00 . P85 : ... .. 0 ... : ... .. . ... ...
ROW E1 : ... .. 9 ... ... ... : ... .. 9 ... ... ... : A#2 00 . P80 : ... .. . ... : ... .. . ... ...
ROW E2 : ... .. . ... ... ... : ... .. . ... ... ... : A-2 00 . P7C : ... .. . ... : ... .. . ... ...
ROW E3 : F-1 00 F ... V03 ... : ... .. F ... V03 ... : F-4 00 . P80 : F-# 00 F ... : ... .. . ... ...
ROW E4 : ... .. . ... V01 ... : ... .. . ... V01 ... : D-4 00 . P7E : ... .. E ... : ... .. . ... ...
ROW E5 : ... .. E ... V02 ... : ... .. E ... V02 ... : B-3 00 . P82 : ... .. C ... : ... .. . ... ...
ROW E6 : ... .. . ... ... ... : ... .. . ... ... ... : A-3 00 . P7E : ... .. A ... : ... .. . ... ...
ROW E7 : ... .. D ... ... ... : ... .. D ... ... ... : G-3 00 . P7D : ... .. 9 ... : ... .. . ... ...
ROW E8 : ... .. C ... ... ... : ... .. C ... ... ... : F-3 00 . P80 : ... .. 7 ... : ... .. . ... ...
ROW E9 : ... .. . ... ... ... : G-3 00 F ... V03 ... : F-4 00 . ... : 4-# 00 F ... : ... .. . ... ...
ROW EA : ... .. B ... ... ... : ... .. . ... V01 ... : D-4 00 . P7E : ... .. E ... : ... .. . ... ...
ROW EB : ... .. A ... ... ... : ... .. E ... V02 ... : B-3 00 . P82 : ... .. C ... : ... .. . ... ...
ROW EC : ... .. . ... ... ... : ... .. . ... ... ... : A-3 00 . P7E : ... .. A ... : ... .. . ... ...
ROW ED : ... .. 9 ... ... ... : ... .. D ... ... ... : G-3 00 . P7D : ... .. 9 ... : ... .. . ... ...
ROW EE : ... .. . ... ... ... : ... .. C ... ... ... : F-3 00 . P80 : ... .. 7 ... : ... .. . ... ...
ROW EF : ... .. F ... V03 ... : F-3 00 F ... V03 ... : F-4 00 . ... : 0-# 00 F ... : ... .. . ... ...
ROW F0 : ... .. . ... V01 ... : ... .. . ... V01 ... : D-4 00 . P7E : ... .. E ... : ... .. . ... ...
ROW F1 : ... .. E ... V02 ... : ... .. E ... V02 ... : B-3 00 . P82 : ... .. C ... : ... .. . ... ...
ROW F2 : ... .. . ... ... ... : ... .. . ... ... ... : A-3 00 . P7E : ... .. A ... : ... .. . ... ...
ROW F3 : ... .. D ... ... ... : ... .. D ... ... ... : G-3 00 . P7D : ... .. 9 ... : ... .. . ... ...
ROW F4 : ... .. C ... ... ... : ... .. C ... ... ... : F-3 00 . P80 : ... .. 7 ... : ... .. . ... ...
ROW F5 : ... .. . ... ... ... : G-3 00 F ... V03 ... : F-4 00 . ... : ... .. 5 ... : ... .. . ... ...
ROW F6 : ... .. B ... ... ... : ... .. . ... V01 ... : D-4 00 . P7E : ... .. 4 ... : ... .. . ... ...
ROW F7 : ... .. A ... ... ... : ... .. E ... V02 ... : B-3 00 . P82 : ... .. 2 ... : ... .. . ... ...
ROW F8 : ... .. . ... ... ... : ... .. . ... ... ... : A-3 00 . P7E : ... .. 0 ... : ... .. . ... ...
ROW F9 : ... .. 9 ... ... ... : ... .. D ... ... ... : G-3 00 . P7D : ... .. . ... : ... .. . ... ...
ROW FA : ... .. . ... ... ... : ... .. C ... ... ... : F-3 00 . P80 : ... .. . ... : ... .. . ... ...
ROW FB : ... .. F ... V03 ... : G#3 00 F ... V03 ... : F-4 00 . ... : F-# 00 F ... : ... .. . ... ...
ROW FC : ... .. . ... V01 ... : ... .. . ... V01 ... : D-4 00 . P7E : ... .. E ... : ... .. . ... ...
ROW FD : ... .. E ... V02 ... : ... .. E ... V02 ... : B-3 00 . P82 : ... .. C ... : ... .. . ... ...
ROW FE : ... .. . ... ... ... : ... .. . ... ... ... : A-3 00 . P7E : ... .. A ... : ... .. . ... ...
ROW FF : ... .. D ... ... ... : ... .. D ... ... ... : G-3 00 . P7D : ... .. 9 ... : ... .. . ... ...

PATTERN 1C
ROW 00 : ... .. C ... ... ... : ... .. C ... ... ... : F-3 00 . P80 : ... .. 7 ... : ... .. . ... ...
ROW 01 : ... .. . ... ... ... : A-3 00 F ... V03 ... : F-4 00 . ... : 0-# 00 F ... : ... .. . ... ...
ROW 02 : ... .. B ... ... ... : ... .. . ... V01 ... : D-4 00 . P7E : ... .. E ... : ... .. . ... ...
ROW 03 : ... .. A ... ... ... : ... .. E ... V02 ... : B-3 00 . P82 : ... .. C ... : ... .. . ... ...
ROW 04 : ... .. . ... ... ... : ... .. . ... ... ... : A-3 00 . P7E : ... .. A ... : ... .. . ... ...
ROW 05 : ... .. 9 ... ... ... : ... .. D ... ... ... : G-3 00 . P7D : ... .. 9 ... : ... .. . ... ...
ROW 06 : ... .. . ... ... ... : ... .. C ... ... ... : F-3 00 . P80 : ... .. 7 ... : ... .. . ... ...
ROW 07 : F-2 00 F ... V03 ... : C-4 00 F ... V03 ... : F-4 00 . ... : 4-# 00 F ... : ... .. . ... ...
ROW 08 : ... .. . ... V01 ... : ... .. . ... V01 ... : D-4 00 . P7E : ... .. E ... : ... .. . ... ...
ROW 09 : ... .. E ... V02 ... : ... .. E ... V02 ... : B-3 00 . P82 : ... .. C ... : ... .. . ... ...
ROW 0A : ... .. . ... ... ... : ... .. . ... ... ... : A-3 00 . P7E : ... .. A ... : ... .. . ... ...
ROW 0B : ... .. D ... ... ... : ... .. D ... ... ... : G-3 00 . P7D : ... .. 9 ... : ... .. . ... ...
ROW 0C : ... .. C ... ... ... : ... .. C ... ... ... : F-3 00 . P80 : ... .. 7 ... : ... .. . ... ...
ROW 0D : ... .. . ... ... ... : ... .. . ... ... ... : D#3 00 . P88 : ... .. 5 ... : ... .. . ... ...
ROW 0E : ... .. B ... ... ... : ... .. B ... ... ... : D-3 00 . P7D : ... .. 4 ... : ... .. . ... ...
ROW 0F : ... .. A ... ... ... : ... .. A ... ... ... : C-3 00 . P8C : ... .. 2 ... : ... .. . ... ...
ROW 10 : ... .. . ... ... ... : ... .. . ... ... ... : B-2 00 . P85 : ... .. 0 ... : ... .. . ... ...
ROW 11 : ... .. 9 ... ... ... : ... .. 9 ... ... ... : A#2 00 . P80 : ... .. . ... : ... .. . ... ...
ROW 12 : ... .. . ... ... ... : ... .. . ... ... ... : A-2 00 . P7C : ... .. . ... : ... .. . ... ...
ROW 13 : F-1 00 F ... V03 ... : ... .. F ... V03 ... : F-4 00 . P80 : F-# 00 F ... : ... .. . ... ...
ROW 14 : ... .. . ... V01 ... : ... .. . ... V01 ... : D-4 00 . P7E : ... .. E ... : ... .. . ... ...
ROW 15 : ... .. E ... V02 ... : ... .. E ... V02 ... : B-3 00 . P82 : ... .. C ... : ... .. . ... ...
ROW 16 : ... .. . ... ... ... : ... .. . ... ... ... : A-3 00 . P7E : ... .. A ... : ... .. . ... ...
ROW 17 : ... .. D ... ... ... : ... .. D ... ... ... : G-3 00 . P7D : ... .. 9 ... : ... .. . ... ...
ROW 18 : ... .. C ... ... ... : ... .. C ... ... ... : F-3 00 . P80 : ... .. 7 ... : ... .. . ... ...
ROW 19 : ... .. . ... ... ... : D-4 00 F ... V03 ... : F-4 00 . ... : 4-# 00 F ... : ... .. . ... ...
ROW 1A : ... .. B ... ... ... : ... .. . ... V01 ... : D-4 00 . P7E : ... .. E ... : ... .. . ... ...
ROW 1B : ... .. A ... ... ... : ... .. E ... V02 ... : B-3 00 . P82 : ... .. C ... : ... .. . ... ...
ROW 1C : ... .. . ... ... ... : ... .. . ... ... ... : A-3 00 . P7E : ... .. A ... : ... .. . ... ...
ROW 1D : ... .. 9 ... ... ... : ... .. D ... ... ... : G-3 00 . P7D : ... .. 9 ... : ... .. . ... ...
ROW 1E : ... .. . ... ... ... : ... .. C ... ... ... : F-3 00 . P80 : ... .. 7 ... : ... .. . ... ...
ROW 1F : ... .. . ... ... ... : ... .. . ... ... ... : ... .. . ... : ... .. . ... : ... .. . ... ...
ROW 20 : ... .. . ... ... ... : ... .. . ... ... ... : ... .. . ... : ... .. . ... : ... .. . ... ...
ROW 21 : ... .. . ... ... ... : ... .. . ... ... ... : ... .. . ... : ... .. . ... : ... .. . ... ...
ROW 22 : ... .. . ... ... ... : ... .. . ... ... ... : ... .. . ... : ... .. . ... : ... .. . ... ...
ROW 23 : ... .. . ... ... ... : ... .. . ... ... ... : ... .. . ... : ... .. . ... : ... .. . ... ...
ROW 24 : ... .. . ... ... ... : ... .. . ... ... ... : ... .. . ... : ... .. . ... : ... .. . ... ...
ROW 25 : ... .. . ... ... ... : ... .. . ... ... ... : ... .. . ... : ... .. . ... : ... .. . ... ...
ROW 26 : ... .. . ... ... ... : ... .. . ... ... ... : ... .. . ... : ... .. . ... : ... .. . ... ...
ROW 27 : ... .. . ... ... ... : ... .. . ... ... ... : ... .. . ... : ... .. . ... : ... .. . ... ...
ROW 28 : ... .. . ... ... ... : ... .. . ... ... ... : ... .. . ... : ... .. . ... : ... .. . ... ...
ROW 29 : ... .. . ... ... ... : ... .. . ... ... ... : ... .. . ... : ... .. . ... : ... .. . ... ...
ROW 2A : ... .. . ... ... ... : ... .. . ... ... ... : ... .. . ... : ... .. . ... : ... .. . ... ...
ROW 2B : ... .. . ... ... ... : ... .. . ... ... ... : ... .. . ... : ... .. . ... : ... .. . ... ...
ROW 2C : ... .. . ... ... ... : ... .. . ... ... ... : ... .. . ... : ... .. . ... : ... .. . ... ...
ROW 2D : ... .. . ... ... ... : ... .. . ... ... ... : ... .. . ... : ... .. . ... : ... .. . ... ...
ROW 2E : ... .. . ... ... ... : ... .. . ... ... ... : ... .. . ... : ... .. . ... : ... .. . ... ...
ROW 2F : ... .. . ... ... ... : ... .. . ... ... ... : ... .. . ... : ... .. . ... : ... .. . ... ...
ROW 30 : ... .. . ... ... ... : ... .. . ... ... ... : ... .. . ... : ... .. . ... : ... .. . ... ...
ROW 31 : ... .. . ... ... ... : ... .. . ... ... ... : ... .. . ... : ... .. . ... : ... .. . ... ...
ROW 32 : ... .. . ... ... ... : ... .. . ... ... ... : ... .. . ... : ... .. . ... : ... .. . ... ...
ROW 33 : ... .. . ... ... ... : ... .. . ... ... ... : ... .. . ... : ... .. . ... : ... .. . ... ...
ROW 34 : ... .. . ... ... ... : ... .. . ... ... ... : ... .. . ... : ... .. . ... : ... .. . ... ...
ROW 35 : ... .. . ... ... ... : ... .. . ... ... ... : ... .. . ... : ... .. . ... : ... .. . ... ...
ROW 36 : ... .. . ... ... ... : ... .. . ... ... ... : ... .. . ... : ... .. . ... : ... .. . ... ...
ROW 37 : ... .. . ... ... ... : ... .. . ... ... ... : ... .. . ... : ... .. . ... : ... .. . ... ...
ROW 38 : ... .. . ... ... ... : ... .. . ... ... ... : ... .. . ... : ... .. . ... : ... .. . ... ...
ROW 39 : ... .. . ... ... ... : ... .. . ... ... ... : ... .. . ... : ... .. . ... : ... .. . ... ...
ROW 3A : ... .. . ... ... ... : ... .. . ... ... ... : ... .. . ... : ... .. . ... : ... .. . ... ...
ROW 3B : ... .. . ... ... ... : ... .. . ... ... ... : ... .. . ... : ... .. . ... : ... .. . ... ...
ROW 3C : ... .. . ... ... ... : ... .. . ... ... ... : ... .. . ... : ... .. . ... : ... .. . ... ...
ROW 3D : ... .. . ... ... ... : ... .. . ... ... ... : ... .. . ... : ... .. . ... : ... .. . ... ...
ROW 3E : ... .. . ... ... ... : ... .. . ... ... ... : ... .. . ... : ... .. . ... : ... .. . ... ...
ROW 3F : ... .. . ... ... ... : ... .. . ... ... ... : ... .. . ... : ... .. . ... : ... .. . ... ...
ROW 40 : ... .. . ... ... ... : ... .. . ... ... ... : ... .. . ... : ... .. . ... : ... .. . ... ...
ROW 41 : ... .. . ... ... ... : ... .. . ... ... ... : ... .. . ... : ... .. . ... : ... .. . ... ...
ROW 42 : ... .. . ... ... ... : ... .. . ... ... ... : ... .. . ... : ... .. . ... : ... .. . ... ...
ROW 43 : ... .. . ... ... ... : ... .. . ... ... ... : ... .. . ... : ... .. . ... : ... .. . ... ...
ROW 44 : ... .. . ... ... ... : ... .. . ... ... ... : ... .. . ... : ... .. . ... : ... .. . ... ...
ROW 45 : ... .. . ... ... ... : ... .. . ... ... ... : ... .. . ... : ... .. . ... : ... .. . ... ...
ROW 46 : ... .. . ... ... ... : ... .. . ... ... ... : ... .. . ... : ... .. . ... : ... .. . ... ...
ROW 47 : ... .. . ... ... ... : ... .. . ... ... ... : ... .. . ... : ... .. . ... : ... .. . ... ...
ROW 48 : ... .. . ... ... ... : ... .. . ... ... ... : ... .. . ... : ... .. . ... : ... .. . ... ...
ROW 49 : ... .. . ... ... ... : ... .. . ... ... ... : ... .. . ... : ... .. . ... : ... .. . ... ...
ROW 4A : ... .. . ... ... ... : ... .. . ... ... ... : ... .. . ... : ... .. . ... : ... .. . ... ...
ROW 4B : ... .. . ... ... ... : ... .. . ... ... ... : ... .. . ... : ... .. . ... : ... .. . ... ...
ROW 4C : ... .. . ... ... ... : ... .. . ... ... ... : ... .. . ... : ... .. . ... : ... .. . ... ...
ROW 4D : ... .. . ... ... ... : ... .. . ... ... ... : ... .. . ... : ... .. . ... : ... .. . ... ...
ROW 4E : ... .. . ... ... ... : ... .. . ... ... ... : ... .. . ... : ... .. . ... : ... .. . ... ...
ROW 4F : ... .. . ... ... ... : ... .. . ... ... ... : ... .. . ... : ... .. . ... : ... .. . ... ...
ROW 50 : ... .. . ... ... ... : ... .. . ... ... ... : ... .. . ... : ... .. . ... : ... .. . ... ...
ROW 51 : ... .. . ... ... ... : ... .. . ... ... ... : ... .. . ... : ... .. . ... : ... .. . ... ...
ROW 52 : ... .. . ... ... ... : ... .. . ... ... ... : ... .. . ... : ... .. . ... : ... .. . ... ...
ROW 53 : ... .. . ... ... ... : ... .. . ... ... ... : ... .. . ... : ... .. . ... : ... .. . ... ...
ROW 54 : ... .. . ... ... ... : ... .. . ... ... ... : ... .. . ... : ... .. . ... : ... .. . ... ...
ROW 55 : ... .. . ... ... ... : ... .. . ... ... ... : ... .. . ... : ... .. . ... : ... .. . ... ...
ROW 56 : ... .. . ... ... ... : ... .. . ... ... ... : ... .. . ... : ... .. . ... : ... .. . ... ...
ROW 57 : ... .. . ... ... ... : ... .. . ... ... ... : ... .. . ... : ... .. . ... : ... .. . ... ...
ROW 58 : ... .. . ... ... ... : ... .. . ... ... ... : ... .. . ... : ... .. . ... : ... .. . ... ...
ROW 59 : ... .. . ... ... ... : ... .. . ... ... ... : ... .. . ... : ... .. . ... : ... .. . ... ...
ROW 5A : ... .. . ... ... ... : ... .. . ... ... ... : ... .. . ... : ... .. . ... : ... .. . ... ...
ROW 5B : ... .. . ... ... ... : ... .. . ... ... ... : ... .. . ... : ... .. . ... : ... .. . ... ...
ROW 5C : ... .. . ... ... ... : ... .. . ... ... ... : ... .. . ... : ... .. . ... : ... .. . ... ...
ROW 5D : ... .. . ... ... ... : ... .. . ... ... ... : ... .. . ... : ... .. . ... : ... .. . ... ...
ROW 5E : ... .. . ... ... ... : ... .. . ... ... ... : ... .. . ... : ... .. . ... : ... .. . ... ...
ROW 5F : ... .. . ... ... ... : ... .. . ... ... ... : ... .. . ... : ... .. . ... : ... .. . ... ...
ROW 60 : ... .. . ... ... ... : ... .. . ... ... ... : ... .. . ... : ... .. . ... : ... .. . ... ...
ROW 61 : ... .. . ... ... ... : ... .. . ... ... ... : ... .. . ... : ... .. . ... : ... .. . ... ...
ROW 62 : ... .. . ... ... ... : ... .. . ... ... ... : ... .. . ... : ... .. . ... : ... .. . ... ...
ROW 63 : ... .. . ... ... ... : ... .. . ... ... ... : ... .. . ... : ... .. . ... : ... .. . ... ...
ROW 64 : ... .. . ... ... ... : ... .. . ... ... ... : ... .. . ... : ... .. . ... : ... .. . ... ...
ROW 65 : ... .. . ... ... ... : ... .. . ... ... ... : ... .. . ... : ... .. . ... : ... .. . ... ...
ROW 66 : ... .. . ... ... ... : ... .. . ... ... ... : ... .. . ... : ... .. . ... : ... .. . ... ...
ROW 67 : ... .. . ... ... ... : ... .. . ... ... ... : ... .. . ... : ... .. . ... : ... .. . ... ...
ROW 68 : ... .. . ... ... ... : ... .. . ... ... ... : ... .. . ... : ... .. . ... : ... .. . ... ...
ROW 69 : ... .. . ... ... ... : ... .. . ... ... ... : ... .. . ... : ... .. . ... : ... .. . ... ...
ROW 6A : ... .. . ... ... ... : ... .. . ... ... ... : ... .. . ... : ... .. . ... : ... .. . ... ...
ROW 6B : ... .. . ... ... ... : ... .. . ... ... ... : ... .. . ... : ... .. . ... : ... .. . ... ...
ROW 6C : ... .. . ... ... ... : ... .. . ... ... ... : ... .. . ... : ... .. . ... : ... .. . ... ...
ROW 6D : ... .. . ... ... ... : ... .. . ... ... ... : ... .. . ... : ... .. . ... : ... .. . ... ...
ROW 6E : ... .. . ... ... ... : ... .. . ... ... ... : ... .. . ... : ... .. . ... : ... .. . ... ...
ROW 6F : ... .. . ... ... ... : ... .. . ... ... ... : ... .. . ... : ... .. . ... : ... .. . ... ...
ROW 70 : ... .. . ... ... ... : ... .. . ... ... ... : ... .. . ... : ... .. . ... : ... .. . ... ...
ROW 71 : ... .. . ... ... ... : ... .. . ... ... ... : ... .. . ... : ... .. . ... : ... .. . ... ...
ROW 72 : ... .. . ... ... ... : ... .. . ... ... ... : ... .. . ... : ... .. . ... : ... .. . ... ...
ROW 73 : ... .. . ... ... ... : ... .. . ... ... ... : ... .. . ... : ... .. . ... : ... .. . ... ...
ROW 74 : ... .. . ... ... ... : ... .. . ... ... ... : ... .. . ... : ... .. . ... : ... .. . ... ...
ROW 75 : ... .. . ... ... ... : ... .. . ... ... ... : ... .. . ... : ... .. . ... : ... .. . ... ...
ROW 76 : ... .. . ... ... ... : ... .. . ... ... ... : ... .. . ... : ... .. . ... : ... .. . ... ...
ROW 77 : ... .. . ... ... ... : ... .. . ... ... ... : ... .. . ... : ... .. . ... : ... .. . ... ...
ROW 78 : ... .. . ... ... ... : ... .. . ... ... ... : ... .. . ... : ... .. . ... : ... .. . ... ...
ROW 79 : ... .. . ... ... ... : ... .. . ... ... ... : ... .. . ... : ... .. . ... : ... .. . ... ...
ROW 7A : ... .. . ... ... ... : ... .. . ... ... ... : ... .. . ... : ... .. . ... : ... .. . ... ...
ROW 7B : ... .. . ... ... ... : ... .. . ... ... ... : ... .. . ... : ... .. . ... : ... .. . ... ...
ROW 7C : ... .. . ... ... ... : ... .. . ... ... ... : ... .. . ... : ... .. . ... : ... .. . ... ...
ROW 7D : ... .. . ... ... ... : ... .. . ... ... ... : ... .. . ... : ... .. . ... : ... .. . ... ...
ROW 7E : ... .. . ... ... ... : ... .. . ... ... ... : ... .. . ... : ... .. . ... : ... .. . ... ...
ROW 7F : ... .. . ... ... ... : ... .. . ... ... ... : ... .. . ... : ... .. . ... : ... .. . ... ...
ROW 80 : ... .. . ... ... ... : ... .. . ... ... ... : ... .. . ... : ... .. . ... : ... .. . ... ...
ROW 81 : ... .. . ... ... ... : ... .. . ... ... ... : ... .. . ... : ... .. . ... : ... .. . ... ...
ROW 82 : ... .. . ... ... ... : ... .. . ... ... ... : ... .. . ... : ... .. . ... : ... .. . ... ...
ROW 83 : ... .. . ... ... ... : ... .. . ... ... ... : ... .. . ... : ... .. . ... : ... .. . ... ...
ROW 84 : ... .. . ... ... ... : ... .. . ... ... ... : ... .. . ... : ... .. . ... : ... .. . ... ...
ROW 85 : ... .. . ... ... ... : ... .. . ... ... ... : ... .. . ... : ... .. . ... : ... .. . ... ...
ROW 86 : ... .. . ... ... ... : ... .. . ... ... ... : ... .. . ... : ... .. . ... : ... .. . ... ...
ROW 87 : ... .. . ... ... ... : ... .. . ... ... ... : ... .. . ... : ... .. . ... : ... .. . ... ...
ROW 88 : ... .. . ... ... ... : ... .. . ... ... ... : ... .. . ... : ... .. . ... : ... .. . ... ...
ROW 89 : ... .. . ... ... ... : ... .. . ... ... ... : ... .. . ... : ... .. . ... : ... .. . ... ...
ROW 8A : ... .. . ... ... ... : ... .. . ... ... ... : ... .. . ... : ... .. . ... : ... .. . ... ...
ROW 8B : ... .. . ... ... ... : ... .. . ... ... ... : ... .. . ... : ... .. . ... : ... .. . ... ...
ROW 8C : ... .. . ... ... ... : ... .. . ... ... ... : ... .. . ... : ... .. . ... : ... .. . ... ...
ROW 8D : ... .. . ... ... ... : ... .. . ... ... ... : ... .. . ... : ... .. . ... : ... .. . ... ...
ROW 8E : ... .. . ... ... ... : ... .. . ... ... ... : ... .. . ... : ... .. . ... : ... .. . ... ...
ROW 8F : ... .. . ... ... ... : ... .. . ... ... ... : ... .. . ... : ... .. . ... : ... .. . ... ...
ROW 90 : ... .. . ... ... ... : ... .. . ... ... ... : ... .. . ... : ... .. . ... : ... .. . ... ...
ROW 91 : ... .. . ... ... ... : ... .. . ... ... ... : ... .. . ... : ... .. . ... : ... .. . ... ...
ROW 92 : ... .. . ... ... ... : ... .. . ... ... ... : ... .. . ... : ... .. . ... : ... .. . ... ...
ROW 93 : ... .. . ... ... ... : ... .. . ... ... ... : ... .. . ... : ... .. . ... : ... .. . ... ...
ROW 94 : ... .. . ... ... ... : ... .. . ... ... ... : ... .. . ... : ... .. . ... : ... .. . ... ...
ROW 95 : ... .. . ... ... ... : ... .. . ... ... ... : ... .. . ... : ... .. . ... : ... .. . ... ...
ROW 96 : ... .. . ... ... ... : ... .. . ... ... ... : ... .. . ... : ... .. . ... : ... .. . ... ...
ROW 97 : ... .. . ... ... ... : ... .. . ... ... ... : ... .. . ... : ... .. . ... : ... .. . ... ...
ROW 98 : ... .. . ... ... ... : ... .. . ... ... ... : ... .. . ... : ... .. . ... : ... .. . ... ...
ROW 99 : ... .. . ... ... ... : ... .. . ... ... ... : ... .. . ... : ... .. . ... : ... .. . ... ...
ROW 9A : ... .. . ... ... ... : ... .. . ... ... ... : ... .. . ... : ... .. . ... : ... .. . ... ...
ROW 9B : ... .. . ... ... ... : ... .. . ... ... ... : ... .. . ... : ... .. . ... : ... .. . ... ...
ROW 9C : ... .. . ... ... ... : ... .. . ... ... ... : ... .. . ... : ... .. . ... : ... .. . ... ...
ROW 9D : ... .. . ... ... ... : ... .. . ... ... ... : ... .. . ... : ... .. . ... : ... .. . ... ...
ROW 9E : ... .. . ... ... ... : ... .. . ... ... ... : ... .. . ... : ... .. . ... : ... .. . ... ...
ROW 9F : ... .. . ... ... ... : ... .. . ... ... ... : ... .. . ... : ... .. . ... : ... .. . ... ...
ROW A0 : ... .. . ... ... ... : ... .. . ... ... ... : ... .. . ... : ... .. . ... : ... .. . ... ...
ROW A1 : ... .. . ... ... ... : ... .. . ... ... ... : ... .. . ... : ... .. . ... : ... .. . ... ...
ROW A2 : ... .. . ... ... ... : ... .. . ... ... ... : ... .. . ... : ... .. . ... : ... .. . ... ...
ROW A3 : ... .. . ... ... ... : ... .. . ... ... ... : ... .. . ... : ... .. . ... : ... .. . ... ...
ROW A4 : ... .. . ... ... ... : ... .. . ... ... ... : ... .. . ... : ... .. . ... : ... .. . ... ...
ROW A5 : ... .. . ... ... ... : ... .. . ... ... ... : ... .. . ... : ... .. . ... : ... .. . ... ...
ROW A6 : ... .. . ... ... ... : ... .. . ... ... ... : ... .. . ... : ... .. . ... : ... .. . ... ...
ROW A7 : ... .. . ... ... ... : ... .. . ... ... ... : ... .. . ... : ... .. . ... : ... .. . ... ...
ROW A8 : ... .. . ... ... ... : ... .. . ... ... ... : ... .. . ... : ... .. . ... : ... .. . ... ...
ROW A9 : ... .. . ... ... ... : ... .. . ... ... ... : ... .. . ... : ... .. . ... : ... .. . ... ...
ROW AA : ... .. . ... ... ... : ... .. . ... ... ... : ... .. . ... : ... .. . ... : ... .. . ... ...
ROW AB : ... .. . ... ... ... : ... .. . ... ... ... : ... .. . ... : ... .. . ... : ... .. . ... ...
ROW AC : ... .. . ... ... ... : ... .. . ... ... ... : ... .. . ... : ... .. . ... : ... .. . ... ...
ROW AD : ... .. . ... ... ... : ... .. . ... ... ... : ... .. . ... : ... .. . ... : ... .. . ... ...
ROW AE : ... .. . ... ... ... : ... .. . ... ... ... : ... .. . ... : ... .. . ... : ... .. . ... ...
ROW AF : ... .. . ... ... ... : ... .. . ... ... ... : ... .. . ... : ... .. . ... : ... .. . ... ...
ROW B0 : ... .. . ... ... ... : ... .. . ... ... ... : ... .. . ... : ... .. . ... : ... .. . ... ...
ROW B1 : ... .. . ... ... ... : ... .. . ... ... ... : ... .. . ... : ... .. . ... : ... .. . ... ...
ROW B2 : ... .. . ... ... ... : ... .. . ... ... ... : ... .. . ... : ... .. . ... : ... .. . ... ...
ROW B3 : ... .. . ... ... ... : ... .. . ... ... ... : ... .. . ... : ... .. . ... : ... .. . ... ...
ROW B4 : ... .. . ... ... ... : ... .. . ... ... ... : ... .. . ... : ... .. . ... : ... .. . ... ...
ROW B5 : ... .. . ... ... ... : ... .. . ... ... ... : ... .. . ... : ... .. . ... : ... .. . ... ...
ROW B6 : ... .. . ... ... ... : ... .. . ... ... ... : ... .. . ... : ... .. . ... : ... .. . ... ...
ROW B7 : ... .. . ... ... ... : ... .. . ... ... ... : ... .. . ... : ... .. . ... : ... .. . ... ...
ROW B8 : ... .. . ... ... ... : ... .. . ... ... ... : ... .. . ... : ... .. . ... : ... .. . ... ...
ROW B9 : ... .. . ... ... ... : ... .. . ... ... ... : ... .. . ... : ... .. . ... : ... .. . ... ...
ROW BA : ... .. . ... ... ... : ... .. . ... ... ... : ... .. . ... : ... .. . ... : ... .. . ... ...
ROW BB : ... .. . ... ... ... : ... .. . ... ... ... : ... .. . ... : ... .. . ... : ... .. . ... ...
ROW BC : ... .. . ... ... ... : ... .. . ... ... ... : ... .. . ... : ... .. . ... : ... .. . ... ...
ROW BD : ... .. . ... ... ... : ... .. . ... ... ... : ... .. . ... : ... .. . ... : ... .. . ... ...
ROW BE : ... .. . ... ... ... : ... .. . ... ... ... : ... .. . ... : ... .. . ... : ... .. . ... ...
ROW BF : ... .. . ... ... ... : ... .. . ... ... ... : ... .. . ... : ... .. . ... : ... .. . ... ...
ROW C0 : ... .. . ... ... ... : ... .. . ... ... ... : ... .. . ... : ... .. . ... : ... .. . ... ...
ROW C1 : ... .. . ... ... ... : ... .. . ... ... ... : ... .. . ... : ... .. . ... : ... .. . ... ...
ROW C2 : ... .. . ... ... ... : ... .. . ... ... ... : ... .. . ... : ... .. . ... : ... .. . ... ...
ROW C3 : ... .. . ... ... ... : ... .. . ... ... ... : ... .. . ... : ... .. . ... : ... .. . ... ...
ROW C4 : ... .. . ... ... ... : ... .. . ... ... ... : ... .. . ... : ... .. . ... : ... .. . ... ...
ROW C5 : ... .. . ... ... ... : ... .. . ... ... ... : ... .. . ... : ... .. . ... : ... .. . ... ...
ROW C6 : ... .. . ... ... ... : ... .. . ... ... ... : ... .. . ... : ... .. . ... : ... .. . ... ...
ROW C7 : ... .. . ... ... ... : ... .. . ... ... ... : ... .. . ... : ... .. . ... : ... .. . ... ...
ROW C8 : ... .. . ... ... ... : ... .. . ... ... ... : ... .. . ... : ... .. . ... : ... .. . ... ...
ROW C9 : ... .. . ... ... ... : ... .. . ... ... ... : ... .. . ... : ... .. . ... : ... .. . ... ...
ROW CA : ... .. . ... ... ... : ... .. . ... ... ... : ... .. . ... : ... .. . ... : ... .. . ... ...
ROW CB : ... .. . ... ... ... : ... .. . ... ... ... : ... .. . ... : ... .. . ... : ... .. . ... ...
ROW CC : ... .. . ... ... ... : ... .. . ... ... ... : ... .. . ... : ... .. . ... : ... .. . ... ...
ROW CD : ... .. . ... ... ... : ... .. . ... ... ... : ... .. . ... : ... .. . ... : ... .. . ... ...
ROW CE : ... .. . ... ... ... : ... .. . ... ... ... : ... .. . ... : ... .. . ... : ... .. . ... ...
ROW CF : ... .. . ... ... ... : ... .. . ... ... ... : ... .. . ... : ... .. . ... : ... .. . ... ...
ROW D0 : ... .. . ... ... ... : ... .. . ... ... ... : ... .. . ... : ... .. . ... : ... .. . ... ...
ROW D1 : ... .. . ... ... ... : ... .. . ... ... ... : ... .. . ... : ... .. . ... : ... .. . ... ...
ROW D2 : ... .. . ... ... ... : ... .. . ... ... ... : ... .. . ... : ... .. . ... : ... .. . ... ...
ROW D3 : ... .. . ... ... ... : ... .. . ... ... ... : ... .. . ... : ... .. . ... : ... .. . ... ...
ROW D4 : ... .. . ... ... ... : ... .. . ... ... ... : ... .. . ... : ... .. . ... : ... .. . ... ...
ROW D5 : ... .. . ... ... ... : ... .. . ... ... ... : ... .. . ... : ... .. . ... : ... .. . ... ...
ROW D6 : ... .. . ... ... ... : ... .. . ... ... ... : ... .. . ... : ... .. . ... : ... .. . ... ...
ROW D7 : ... .. . ... ... ... : ... .. . ... ... ... : ... .. . ... : ... .. . ... : ... .. . ... ...
ROW D8 : ... .. . ... ... ... : ... .. . ... ... ... : ... .. . ... : ... .. . ... : ... .. . ... ...
ROW D9 : ... .. . ... ... ... : ... .. . ... ... ... : ... .. . ... : ... .. . ... : ... .. . ... ...
ROW DA : ... .. . ... ... ... : ... .. . ... ... ... : ... .. . ... : ... .. . ... : ... .. . ... ...
ROW DB : ... .. . ... ... ... : ... .. . ... ... ... : ... .. . ... : ... .. . ... : ... .. . ... ...
ROW DC : ... .. . ... ... ... : ... .. . ... ... ... : ... .. . ... : ... .. . ... : ... .. . ... ...
ROW DD : ... .. . ... ... ... : ... .. . ... ... ... : ... .. . ... : ... .. . ... : ... .. . ... ...
ROW DE : ... .. . ... ... ... : ... .. . ... ... ... : ... .. . ... : ... .. . ... : ... .. . ... ...
ROW DF : ... .. . ... ... ... : ... .. . ... ... ... : ... .. . ... : ... .. . ... : ... .. . ... ...
ROW E0 : ... .. . ... ... ... : ... .. . ... ... ... : ... .. . ... : ... .. . ... : ... .. . ... ...
ROW E1 : ... .. . ... ... ... : ... .. . ... ... ... : ... .. . ... : ... .. . ... : ... .. . ... ...
ROW E2 : ... .. . ... ... ... : ... .. . ... ... ... : ... .. . ... : ... .. . ... : ... .. . ... ...
ROW E3 : ... .. . ... ... ... : ... .. . ... ... ... : ... .. . ... : ... .. . ... : ... .. . ... ...
ROW E4 : ... .. . ... ... ... : ... .. . ... ... ... : ... .. . ... : ... .. . ... : ... .. . ... ...
ROW E5 : ... .. . ... ... ... : ... .. . ... ... ... : ... .. . ... : ... .. . ... : ... .. . ... ...
ROW E6 : ... .. . ... ... ... : ... .. . ... ... ... : ... .. . ... : ... .. . ... : ... .. . ... ...
ROW E7 : ... .. . ... ... ... : ... .. . ... ... ... : ... .. . ... : ... .. . ... : ... .. . ... ...
ROW E8 : ... .. . ... ... ... : ... .. . ... ... ... : ... .. . ... : ... .. . ... : ... .. . ... ...
ROW E9 : ... .. . ... ... ... : ... .. . ... ... ... : ... .. . ... : ... .. . ... : ... .. . ... ...
ROW EA : ... .. . ... ... ... : ... .. . ... ... ... : ... .. . ... : ... .. . ... : ... .. . ... ...
ROW EB : ... .. . ... ... ... : ... .. . ... ... ... : ... .. . ... : ... .. . ... : ... .. . ... ...
ROW EC : ... .. . ... ... ... : ... .. . ... ... ... : ... .. . ... : ... .. . ... : ... .. . ... ...
ROW ED : ... .. . ... ... ... : ... .. . ... ... ... : ... .. . ... : ... .. . ... : ... .. . ... ...
ROW EE : ... .. . ... ... ... : ... .. . ... ... ... : ... .. . ... : ... .. . ... : ... .. . ... ...
ROW EF : ... .. . ... ... ... : ... .. . ... ... ... : ... .. . ... : ... .. . ... : ... .. . ... ...
ROW F0 : ... .. . ... ... ... : ... .. . ... ... ... : ... .. . ... : ... .. . ... : ... .. . ... ...
ROW F1 : ... .. . ... ... ... : ... .. . ... ... ... : ... .. . ... : ... .. . ... : ... .. . ... ...
ROW F2 : ... .. . ... ... ... : ... .. . ... ... ... : ... .. . ... : ... .. . ... : ... .. . ... ...
ROW F3 : ... .. . ... ... ... : ... .. . ... ... ... : ... .. . ... : ... .. . ... : ... .. . ... ...
ROW F4 : ... .. . ... ... ... : ... .. . ... ... ... : ... .. . ... : ... .. . ... : ... .. . ... ...
ROW F5 : ... .. . ... ... ... : ... .. . ... ... ... : ... .. . ... : ... .. . ... : ... .. . ... ...
ROW F6 : ... .. . ... ... ... : ... .. . ... ... ... : ... .. . ... : ... .. . ... : ... .. . ... ...
ROW F7 : ... .. . ... ... ... : ... .. . ... ... ... : ... .. . ... : ... .. . ... : ... .. . ... ...
ROW F8 : ... .. . ... ... ... : ... .. . ... ... ... : ... .. . ... : ... .. . ... : ... .. . ... ...
ROW F9 : ... .. . ... ... ... : ... .. . ... ... ... : ... .. . ... : ... .. . ... : ... .. . ... ...
ROW FA : ... .. . ... ... ... : ... .. . ... ... ... : ... .. . ... : ... .. . ... : ... .. . ... ...
ROW FB : ... .. . ... ... ... : ... .. . ... ... ... : ... .. . ... : ... .. . ... : ... .. . ... ...
ROW FC : ... .. . ... ... ... : ... .. . ... ... ... : ... .. . ... : ... .. . ... : ... .. . ... ...
ROW FD : ... .. . ... ... ... : ... .. . ... ... ... : ... .. . ... : ... .. . ... : ... .. . ... ...
ROW FE : ... .. . ... ... ... : ... .. . ... ... ... : ... .. . ... : ... .. . ... : ... .. . ... ...
ROW FF : ... .. . ... ... ... : ... .. . ... ... ... : ... .. . ... : ... .. . ... : ... .. . ... ...

# End of export
